<svg id="Layer_1" data-name="Layer 1" xmlns="http://www.w3.org/2000/svg" viewBox="0 0 525 719.9"><defs><style>.cls-1{fill:#00FF00;stroke:#000;stroke-miterlimit:10;stroke-width:40px;}</style></defs><title>item</title><path class="cls-1" d="M754.5,481.5C754.5,615.43,645.93,724,512,724S269.5,615.43,269.5,481.5A242.35,242.35,0,0,1,388,273.06l27.41-144.68h-6.23c-20.14,0-36.61-19-36.61-42.14a45.36,45.36,0,0,1,10.76-29.75C390,48.85,399.11,44.1,409.18,44.1H618.72c20.14,0,36.61,19,36.61,42.14A45.36,45.36,0,0,1,644.57,116c-6.63,7.64-15.79,12.38-25.85,12.38H608.59L636,273.06A242.35,242.35,0,0,1,754.5,481.5Z" transform="translate(-249.5 -24.1)"/></svg>