<svg id="Layer_1" data-name="Layer 1" xmlns="http://www.w3.org/2000/svg" viewBox="0 0 169.73 171.76"><defs><style>.cls-1,.cls-2{fill:#a3a5a8;}.cls-1{stroke:#231f20;stroke-miterlimit:10;}.cls-3{fill:#231f20;}</style></defs><title>FrameNail</title><path class="cls-1" d="M91.4,27.05a1.93,1.93,0,0,1-.22.28c-.84,1-2.46,3-2.46,3a20.87,20.87,0,0,1,1,2.45l0,0S90.06,34.36,89,35a2.24,2.24,0,0,1-2.92-.53c-.66-.83-2.9-1.48-2.9-3.83s2.82-6.35,3.25-7l0-.06a3,3,0,1,1,4.93,3.44Z"/><path class="cls-2" d="M107.43,16.57C107.08,24,99.81,29.08,91.18,28s-15.33-7.94-15-15.34S83.83.16,92.46,1.24,107.79,9.18,107.43,16.57Z"/><path class="cls-3" d="M107.58,16.58a13.49,13.49,0,0,1-5.4,10.19,13.91,13.91,0,0,1-5.61,2.55,18.19,18.19,0,0,1-6.19.17,18.72,18.72,0,0,1-10.84-5.58,15.68,15.68,0,0,1-3.36-5.19,13,13,0,0,1-.8-6.1A12.75,12.75,0,0,1,77.47,7a14.6,14.6,0,0,1,4.24-4.1A17.88,17.88,0,0,1,93.2.09,16.61,16.61,0,0,1,99,1.84a15.86,15.86,0,0,1,4.73,3.82A16.27,16.27,0,0,1,107.58,16.58Zm-.3,0A10.15,10.15,0,0,0,106,11.16,13.81,13.81,0,0,0,102.42,7a22,22,0,0,0-4.56-2.79,22.8,22.8,0,0,0-5-1.66,18.87,18.87,0,0,0-5.37-.4,12.52,12.52,0,0,0-5.22,1.56,10.61,10.61,0,0,0-3.88,3.81A9.64,9.64,0,0,0,77,12.71a13.51,13.51,0,0,0,4.52,9.19,17.93,17.93,0,0,0,9.34,4.43,17.82,17.82,0,0,0,10.28-1.24,11.19,11.19,0,0,0,4.23-3.33A9.41,9.41,0,0,0,107.29,16.57Z"/><path d="M84.06,32.74l-2.82,4.2c-.93,1.4-1.79,2.86-2.69,4.29C76.75,44.08,75,47,73.28,49.89s-3.45,5.81-5.16,8.73S64.72,64.45,63,67.39Q52.81,84.89,42.84,102.56q-5,8.83-9.89,17.71T22.73,137.79c-3.56,5.75-7.13,11.49-10.84,17.16S4.43,166.26.43,171.76L0,171.51c2.75-6.22,5.76-12.29,8.85-18.32,1.52-3,3.14-6,4.71-9l4.85-8.92q4.92-8.88,10.27-17.5L39.4,100.53c7.11-11.52,14.24-23,21.5-34.44q2.73-4.28,5.51-8.53c1.85-2.84,3.68-5.68,5.57-8.49s3.74-5.64,5.69-8.42c1-1.38,1.92-2.79,2.93-4.15l3.06-4.06Z"/><path d="M90,32.62c7,11.38,13.87,22.82,20.81,34.22l20.59,34.35,10.38,17.12q5.19,8.56,10,17.35l4.73,8.83c1.53,3,3.11,5.91,4.6,8.9,3,6,6,12,8.66,18.11l-.43.25c-3.95-5.43-7.65-11-11.28-16.61-1.84-2.79-3.58-5.64-5.37-8.46l-5.24-8.53q-5.17-8.57-9.95-17.37l-9.56-17.6L108.6,68.09c-6.36-11.74-12.77-23.45-19.08-35.22Z"/></svg>