<svg id="Layer_1" data-name="Layer 1" xmlns="http://www.w3.org/2000/svg" viewBox="0 0 1378 873"><defs><style>.cls-1{fill:#ccc;}</style></defs><title>monitor</title><path class="cls-1" d="M289.29,967.5a18.81,18.81,0,0,1-18.79-18.79V116.29A18.81,18.81,0,0,1,289.29,97.5H1626.71a18.81,18.81,0,0,1,18.79,18.79V948.71a18.81,18.81,0,0,1-18.79,18.79Zm54.57-814.72a15.38,15.38,0,0,0-15.36,15.36V896.86a15.38,15.38,0,0,0,15.36,15.36H1572.14a15.38,15.38,0,0,0,15.36-15.36V168.14a15.38,15.38,0,0,0-15.36-15.36Z" transform="translate(-269 -96)"/><path d="M1626.71,99A17.31,17.31,0,0,1,1644,116.29V948.71A17.31,17.31,0,0,1,1626.71,966H289.29A17.31,17.31,0,0,1,272,948.71V116.29A17.31,17.31,0,0,1,289.29,99H1626.71M343.86,913.72H1572.14A16.88,16.88,0,0,0,1589,896.86V168.14a16.88,16.88,0,0,0-16.86-16.86H343.86A16.88,16.88,0,0,0,327,168.14V896.86a16.88,16.88,0,0,0,16.86,16.86M1626.71,96H289.29A20.3,20.3,0,0,0,269,116.29V948.71A20.3,20.3,0,0,0,289.29,969H1626.71A20.3,20.3,0,0,0,1647,948.71V116.29A20.3,20.3,0,0,0,1626.71,96ZM343.86,910.72A13.86,13.86,0,0,1,330,896.86V168.14a13.86,13.86,0,0,1,13.86-13.86H1572.14A13.86,13.86,0,0,1,1586,168.14V896.86a13.86,13.86,0,0,1-13.86,13.86Z" transform="translate(-269 -96)"/></svg>