<svg id="Layer_1" data-name="Layer 1" xmlns="http://www.w3.org/2000/svg" viewBox="0 0 1385 880" preserveAspectRatio="none"><defs><style>.cls-1{fill:#ccc;stroke:#666;stroke-width:10px;}.cls-1,.cls-2{stroke-miterlimit:10;}.cls-2{stroke:#000;stroke-width:20px;}</style></defs><title>monitor</title><path class="cls-1" d="M23.79,875A18.81,18.81,0,0,1,5,856.21V23.79A18.81,18.81,0,0,1,23.79,5H1361.21A18.81,18.81,0,0,1,1380,23.79V856.21A18.81,18.81,0,0,1,1361.21,875ZM78.36,60.28A15.38,15.38,0,0,0,63,75.64V804.36a15.38,15.38,0,0,0,15.36,15.36H1306.64A15.38,15.38,0,0,0,1322,804.36V75.64a15.38,15.38,0,0,0-15.36-15.36Z"/><polygon points="682.94 420.13 752.04 409.72 747.23 412.18 863.01 300.97 866.77 297.35 870.95 300.13 1037.25 410.77 1033.17 411.24 1179.5 265.5 1037.83 415.76 1036.04 417.65 1033.75 416.23 864.05 310.87 871.99 310.03 759.77 424.82 757.89 426.75 754.96 427.28 686.22 439.85 682.94 420.13"/><polygon points="239.5 497.5 399.84 503.56 396.15 504.85 442.79 459.36 444.15 458.04 446.44 457.62 542.97 439.62 546.03 459.38 448.56 471.38 452.21 469.64 402.85 512.15 401.12 513.64 399.16 513.44 239.5 497.5"/><polygon points="147.5 311.5 186.93 280.75 187.28 280.48 187.74 280.59 218.89 288 217.6 288.24 279.75 242.05 281.4 240.82 283.21 242.03 408.83 325.69 404.01 324.84 517.45 292.69 520.44 291.84 523.46 293.46 613.4 341.78 603.6 359.22 515.54 307.54 521.55 308.31 406.99 336.16 404.26 336.82 402.17 335.31 279.79 246.97 283.25 246.95 219.4 290.76 218.78 291.18 218.11 291 187.26 282.41 188.07 282.25 147.5 311.5"/><polygon points="194.5 155.5 244.97 177.47 245.93 177.88 245.56 178.91 234.2 210.16 233.93 208.37 270.14 252.44 265.43 256.15 231.07 210.63 230.42 209.77 230.8 208.84 243.44 178.09 244.03 179.53 194.5 155.5"/><polygon class="cls-2" points="665.5 387 684.58 429.99 624.5 440 583.5 471.5 544.5 449.5 567.5 407.5 539.5 380.5 608.5 350.5 627.5 294.5 668.5 342.5 731.5 350.5 665.5 387"/><polygon points="686.71 420.22 872.04 463.43 879.02 465.05 877.61 471.86 863.63 539.67 859.06 532.46 947.73 556.75 961.59 560.55 948.44 566 815.62 621.09 816.83 616.91 855 674.47 854.63 674.08 951.5 753.5 852.37 676.92 852.17 676.77 852 676.53 812.17 620.09 810.23 617.33 813.38 615.91 944.56 557 945.27 566.25 855.94 544.54 850.34 543.18 851.38 537.33 863.39 469.14 868.96 477.57 682.45 439.76 686.71 420.22"/><polygon points="955.66 365.42 948.17 259.77 947.75 253.82 952.99 256.51 1022.61 292.28 1019.04 294.83 1006.19 189.68 1006.06 188.65 1007 188.27 1119.5 143.5 1008 190.73 1008.81 189.32 1023.96 294.17 1024.63 298.78 1020.39 296.72 950.01 262.49 954.83 259.23 964.63 364.69 955.66 365.42"/><polygon points="378 365.06 403.83 409.29 400.65 408.02 494.95 370.09 496.06 369.64 498.06 369.68 540.21 370.52 538.79 390.48 496.94 385.32 500.05 384.91 402.35 412.98 400.05 413.65 399.17 411.71 378 365.06"/><polygon points="502.8 382.07 461.4 424.79 460.43 425.8 459.44 425.93 421.75 431.23 422.65 430.52 412.5 449.5 420.35 429.46 420.56 428.93 421.25 428.75 458.06 419.07 456.1 420.21 492.2 372.93 502.8 382.07"/><polygon points="619.16 300.01 584.43 242.51 580.25 235.61 586.9 232.17 647.26 200.96 645.61 207.22 618.11 156.63 617.61 155.7 617.89 154.87 635.5 103.5 622.11 156.13 621.89 154.37 653.39 202.58 655.82 206.29 651.74 208.84 594.1 244.83 596.58 234.49 635.84 288.99 619.16 300.01"/><polygon points="638.52 189.56 683.53 138.66 684.59 137.46 685.56 138.57 704.5 160.5 683.6 140.43 685.63 140.34 645.53 195.2 638.52 189.56"/><polygon points="590.33 464.2 678.75 549.64 688.6 559.16 675.75 563.13 592.55 588.8 596.98 581.1 607.16 632.28 608.71 640.08 600.99 639.26 444.21 622.74 446.63 617.03 532.42 693.43 533.94 694.78 532.19 695.73 455 737.5 530.81 693.27 530.58 695.57 442.37 621.97 434.65 615.52 444.79 616.26 602.01 627.74 595.84 634.72 584.02 583.9 582.69 578.18 588.45 576.2 670.77 547.87 667.78 561.36 576.67 478.8 590.33 464.2"/><polygon points="607.95 634.31 601.54 674.13 598.3 668.75 731.5 724.5 594.71 678.25 591.09 677.03 591.46 672.87 595.05 632.69 607.95 634.31"/><polygon points="729.59 341 796.19 300.68 793.84 309.66 764.09 246 762.38 242.36 765.6 240.53 858.46 187.66 770.03 247.64 771.53 242.16 806.19 303.29 809.13 308.48 803.85 312.27 740.61 357.69 729.59 341"/></svg>