<svg id="Layer_1" data-name="Layer 1" xmlns="http://www.w3.org/2000/svg" viewBox="0 0 810 873"><defs><style>.cls-1{fill:#ccc;}</style></defs><title>monitor-side</title><path class="cls-1" d="M572.93,957.5c-5.65,0-10.43-8.6-10.43-18.79V106.29c0-10.19,4.77-18.79,10.43-18.79h786.15c5.65,0,10.43,8.6,10.43,18.79V938.71c0,10.19-4.77,18.79-10.43,18.79Z" transform="translate(-561 -86)"/><path d="M1359.07,89c4.22,0,8.93,7.1,8.93,17.29V938.71c0,10.19-4.7,17.29-8.93,17.29H572.93c-4.22,0-8.93-7.1-8.93-17.29V106.29C564,96.1,568.7,89,572.93,89h786.15m0-3H572.93C566.34,86,561,95.09,561,106.29V938.71c0,11.2,5.34,20.29,11.93,20.29h786.15c6.58,0,11.93-9.09,11.93-20.29V106.29c0-11.2-5.34-20.29-11.93-20.29Z" transform="translate(-561 -86)"/></svg>