<?xml version="1.0" encoding="utf-8"?>
<!-- Generator: Adobe Illustrator 21.1.0, SVG Export Plug-In . SVG Version: 6.00 Build 0)  -->
<svg version="1.1" id="Layer_1" xmlns="http://www.w3.org/2000/svg" xmlns:xlink="http://www.w3.org/1999/xlink" x="0px" y="0px"
	 viewBox="0 0 372 372" style="enable-background:new 0 0 372 372;" xml:space="preserve">
<style type="text/css">
	.st0{fill:#CC1414;}
</style>
<g>
	<g>
		<path class="st0" d="M117.9,45.7c19.3,0,37.4,7.5,51.1,21.1c28.2,28.2,28.2,74,0,102.1c-13.6,13.6-31.8,21.1-51.1,21.1
			s-37.4-7.5-51.1-21.1c-28.2-28.2-28.2-74,0-102.1C80.5,53.2,98.6,45.7,117.9,45.7 M117.9,17.5c-25.7,0-51.4,9.8-71,29.4
			c-39.2,39.2-39.2,102.8,0,142c19.6,19.6,45.3,29.4,71,29.4s51.4-9.8,71-29.4c39.2-39.2,39.2-102.8,0-142
			C169.3,27.3,143.6,17.5,117.9,17.5L117.9,17.5z"/>
	</g>
	<g>
		<path class="st0" d="M182.6,171.7c0,0,76.8,57.7,128.4,110.7c22.2,22.8,34,39.9,40.2,52.1c8.5,16.6-0.1,25.2-16.7,16.7
			c-12.2-6.2-29.3-18-52.1-40.2c-53-51.6-110.7-128.4-110.7-128.4L182.6,171.7z"/>
	</g>
</g>
<g>
	<path class="st0" d="M67,112c0,0,16,52,66,56C133,168,60,182,67,112z"/>
</g>
</svg>
