<svg id="Layer_1" data-name="Layer 1" xmlns="http://www.w3.org/2000/svg" viewBox="0 0 800 800"><defs><style>.cls-1{fill:red;}</style></defs><title>Vandalism</title><path class="cls-1" d="M156.26,114.57c-6.67-9.2-14.77-14.78-26.37-14.65-6.52.07-32.44,7.75-36,13.26-5.27,8.18-4,7.77,1.7,14.49q8.65-2.67,13.45,6.26a174.74,174.74,0,0,1,14.14,14.54c8.72,10.09,17.12,35.72,33.59,26.34C176.48,163.59,165.94,127.91,156.26,114.57Zm-38.61,5.6c22.26-8.82,42,13.85,32.07,36.86A185.85,185.85,0,0,0,117.65,120.16Z"/><path class="cls-1" d="M200.2,69c-2.89-3.2-7.83-2.53-10.84-.07-6.71,5.47.93,10.16,2.05,15.18,2,8.94,11.57,23.19,2.37,32.47-13.73,13.85-16.94-36-34-26.27-14.57,8.36,19,49.12,33.36,46.24C222.6,130.69,214.36,84.7,200.2,69Z"/><path class="cls-1" d="M296.36,74.26C289.09,63.58,275.71,32,259.71,37.83c-10.59,3.83-8.05,22.09-7.32,31.45-14.55-19.62-42.77-31.39-37.5,3.94,1.37,9.2,4.38,41.56,16,42.65,14.61,1.38,10.76-26.66,10.22-34.89,16.8,17.24,28-3.53,27.51-19.15,3.62,5.31,10.22,20.83,16.66,22.26C290.24,85.2,303,84.08,296.36,74.26Z"/><path class="cls-1" d="M313.25,351.5c-10.6-25.29-39-41-60.16-56.29C234.53,281.8,229.33,276.69,226,254c-3.1-21-18.49-37.85-38-46.18-38-16.23,4.65,35.35-3.82,48.24-7.23-15-18.22-22.88-32.33-30.53-7.31-4-21.88-16-29.58-17-35.7-4.75,19.84,54.09,27.53,64-6.84,1-38.45-1-41.24,5.72-3.39,8.13,25,17.78,30.58,22.21,11.38,9,18.94,22.65,33.4,27.7,5.87,2,21-1.93,24.21-.52,4.39,1.94,9.86,16.86,12.59,20.84,18.45,26.93,45,50.3,78.41,55C320.31,408.1,324,377.05,313.25,351.5ZM192.5,318.62c-24.56,11.18-40.55-26.46-59.86-34.4,18.26-.82,42.78-2.45,55.68-17.42,13.08-15.18,1.39-32.29-3.84-49.56,16.65,9.09,28.7,20,31.9,39.16,4.13,24.7,6.16,29.42,27.87,45-11.94,10.62-24.77,24-27.39,40.52C215.62,340,190.75,300,192.5,318.62Zm114.41,68.77c-1.68,20.66-49.41-4.72-57.65-10.65-18.6-13.4-27-26.38-14.34-47.85,2.57-4.36,14-20.1,19.33-20.4s22,15.68,26.12,19.08C300.76,344.19,309.07,360.82,306.91,387.39Z"/><path class="cls-1" d="M300.29,494.21A352.59,352.59,0,0,1,200.93,514c-5.72.3-16,2.45-21.39.47-7-2.59-6.84-11.21-13.41-13.17-7.19-2.16-13.14,5.66-10,12.24-15.14-1.13-13.7,8.31-5.12,15.58,4.71,4,9.74.34,15,5.91,4.66,4.92,8.4,19.4,10.76,25.19a868,868,0,0,1,33.38,98.5c2.26,8.27,16.35,78,27.12,43.65,3.65-11.62-10.51-43.93-14-56.16q-7.92-27.82-17.65-55.08a260.75,260.75,0,0,0,59.18,7.22c4.9,0,47.15,1.42,32.76-14.86-5.88-6.66-38.58-1-47.56-1.64-9.85-.69-42.68-11.8-49.26-4q-9-23.91-19.28-47.3a364.42,364.42,0,0,0,90.3-11c8-2,32.74-5.07,36.94-13.14C311.76,500.57,308.13,491.43,300.29,494.21Z"/><path class="cls-1" d="M366.59,553.4c-7-10.77-4.09-17-8.93-26.24-1.23-2.35-7.85-3.73-10.42-6.71-4.86-5.64-6.76-23-13-26.62-18.49-10.6-17.46,29.13-19.52,42.27-1.16,7.43-9.34,33.65-2.5,39.14,15.22,12.22,13-17.19,16-22.05,6.43-10.41,11.35-6.27,19.76.67,4.52,3.74,4.8,13,13,10.62C365.57,563.19,370.36,559.18,366.59,553.4Zm-35.06-21.67.84-5.12Q338.57,532.8,331.53,531.73Z"/><path class="cls-1" d="M411.33,519.87c4.51-5.89,9.71-17.18,5.07-24.19a96.77,96.77,0,0,1-11.08-5.52c-11.6-1.26-42.41-2.28-49.33,4.8-9.34,9.55,5.29,13.36,9,18.3,8.7,11.48,6.19,39.84,15.41,47.73,18.45,15.79,11.34-22.63,10-27.58,8.93,1.87,37.58,7.69,41.79-3.38C437.24,516.87,418.26,520,411.33,519.87Zm-12.46-10c-3.82,5.23-8.66,5.84-12.9,10a120.76,120.76,0,0,0-5.64-12.18c6.79-.45,13.62-1,20.43-1.31Z"/><path class="cls-1" d="M470.94,515.49c-2.7,4.39-10.72,4.53-15.22,3.74-7.15-1.26-10.15-10.08-11.36-16.31a26.94,26.94,0,0,1-.18-10.72c.8-3.38,3-4.71,6-6.14,2.53-1.18,6.47-3.26,9.38-2.58,3.35.79,6,3.61,9.55,4.27,8.81,1.62,12.58-11.87,3.72-13.5-2.7-.5-4.81-2.28-7.31-3.38a17.33,17.33,0,0,0-9-1.35,41.25,41.25,0,0,0-16.71,6.23c-10.94,7-11.46,21.08-8.62,32.59S441.12,531,453.48,533c10.69,1.71,23.51-.6,29.55-10.42C487.76,514.86,475.66,507.82,470.94,515.49Z"/><path class="cls-1" d="M558,531.39c-11-1.53-40.38-.49-50.08-7.7q3.48,2-1.06-7c8.84-.53,62.56,6.36,52.31-12.55-5.59-10.32-45.69-4.16-55.94-3.23a79.69,79.69,0,0,1-.26-16c11,1.49,57.52,5.63,32-13.19-3.89-2.87-35.11-4.67-39.83-2.27-9.7,4.94-8.67,19.93-8.11,28.52,1.34,20.48,5.7,37.94,26.44,43.26,7.84,2,32.87,8.33,40.24,5.58C558.09,545.18,572.75,533.44,558,531.39Z"/><path class="cls-1" d="M638.09,529.36c-10.88-6.42-21.69-13-32.69-19.26,23.52-12.82,5.32-28.67-13.75-29.44-3.23-.13-19.57.35-21.91,4.48-5.12,9,.88,13.88,9.84,13.23-.33,8.25-4.7,37.14,3.93,41.36,12.56,6.14,11.92-9,11.78-17,7.32,4.54,29.66,22.23,37.28,21C638.32,542.79,647.94,535.17,638.09,529.36Z"/><path class="cls-1" d="M667.54,506.86c42.54,11.58,12.49-28.48-14-14.51-9.9,5.21-14.21,20.61-10.37,31,5,13.7,20.82,10.32,26,21.43-10.17-5.76-13.68,8.94-6.36,14.6,12.72,9.85,24.18-7.35,21.65-18.27-3.18-13.72-16.92-10.64-22.86-18.81C657.09,516.15,655.61,503.61,667.54,506.86Z"/><path class="cls-1" d="M494.63,20.05C485.9,10,466.89,6.74,464,20.35c-.39,1.81,5.33,24.06,5.26,30.93s-4.13,23.41-1.45,29.19c5.4,11.64,8.84,8.67,18.82-2.53C498.59,64.45,508.37,35.92,494.63,20.05Zm-5.84,25.32c-.41,8-3.17,17.05-8.63,23.08a346.37,346.37,0,0,0-.2-43.83C489.68,26.76,489.19,37.61,488.79,45.37Z"/><path class="cls-1" d="M530.89,21.62C520.45,41.92,520.16,67,508.32,86.39c-.35-14,16.58-53.76,7.66-64.12s-19.29,52.91-18.9,58.31c2.73,38.44,25,4.75,30.54-13,3.11-10,6.18-20.32,8.92-30.44C536.71,36.51,539.44,5,530.89,21.62Z"/><path class="cls-1" d="M562.73,36.85c-4,15.6-1.86,23.54-16.93,28.19,1.68-5.74,17.48-41.79,3.35-40.57-8.11.7-17.14,46.76-19.25,54.15-1.4,4.91-13.06,40.74,1.9,30.26C546.57,98.54,530.23,79.37,553,75c-1.44,5.66-15.44,42.57-1.56,40.56,8.94-1.29,12.68-37.7,14.74-45.8,1.26-4.93,10.13-25.1,7.61-29.86C572.2,36.87,565.55,25.75,562.73,36.85Z"/></svg>