<?xml version="1.0" encoding="utf-8"?>
<!-- Generator: Adobe Illustrator 21.1.0, SVG Export Plug-In . SVG Version: 6.00 Build 0)  -->
<svg version="1.1" id="Layer_1" xmlns="http://www.w3.org/2000/svg" xmlns:xlink="http://www.w3.org/1999/xlink" x="0px" y="0px"
	 width="498.1px" height="693.2px" viewBox="0 0 498.1 693.2" style="enable-background:new 0 0 498.1 693.2;" xml:space="preserve"
	>
<style type="text/css">
	.st0{fill:#D89393;}
	.st1{fill:#362525;}
	.st2{fill:#E0A9A9;}
	.st3{fill:#E8BEBE;}
	.st4{fill:#AA1111;}
	.st5{fill:#660000;}
	.st6{fill:#B51C1C;}
	.st7{fill:#C12828;}
	.st8{fill:#CC3333;}
	.st9{fill:#EBADAD;}
	.st10{fill:none;stroke:#660000;stroke-width:8;stroke-miterlimit:10;}
	.st11{fill:#A26E6E;}
	.st12{fill:#D14848;}
	.st13{fill:#D55A5A;}
	.st14{fill:#CC3300;stroke:#660000;stroke-miterlimit:10;}
	.st15{fill:#CC0000;stroke:#660000;stroke-width:2;stroke-miterlimit:10;}
	.st16{fill:#FF0033;}
</style>
<title>Heart</title>
<path class="st0" d="M103.9,38.2c0,0,29.4,64.4-3.9,133.7l54,97.3c0,0,76.9-109,25.1-246c0,0-17.3-26-46.6-19S103.9,38.2,103.9,38.2
	z"/>
<path class="st1" d="M199.6,105c-1,0-2-0.2-3-0.4c5.6,96.3-42.6,164.6-42.6,164.6l-54-97.3c33.3-69.3,3.9-133.7,3.9-133.7
	s-0.9-27,28.5-34c3.3-0.8,6.6-1.2,10-1.2c23.3,0,36.7,20.2,36.7,20.2c3.5,9.2,6.5,18.5,9,28c1.2,0.7,2.4,1.3,3.6,1.9
	c-2.7-10.5-5.9-20.8-9.7-31l-0.1-0.3l-0.2-0.3C181,20.7,167,0,142.4,0c-3.6,0-7.1,0.4-10.6,1.3c-16.3,3.9-23.9,13.7-27.3,21.3
	c-2.3,4.9-3.5,10.3-3.5,15.7v0.6l0.3,0.5c0.1,0.2,7.2,16.1,10.3,40.2c2.8,22.2,2.7,55.9-14.2,90.9l-0.7,1.4l0.8,1.4l54,97.3l2.3,4.2
	l2.8-3.9c0.8-1.1,19.7-28.2,32.4-72.5c7.4-25.7,11.2-52.3,11.2-79C200,114.6,199.9,109.8,199.6,105z"/>
<path class="st0" d="M284.9,103.1l0.8-1.4c15.7-27.4,15.9-64.1,15.9-64.5v-0.4l0.3-0.3c3.2-2.8,7.4-4.4,11.7-4.3
	c4.3-0.1,8.4,1.9,10.9,5.5l0.2,0.3l-0.1,0.4c-0.1,0.5-9,55-8,64.7l0.1,1.1L284.9,103.1z"/>
<path class="st1" d="M313.5,33.2c4-0.1,7.7,1.8,10,5c0,0-9,55-8,65l-29-1c16-28,16-65,16-65C305.6,34.6,309.5,33.1,313.5,33.2
	 M313.5,31.2c-4.6-0.1-9,1.6-12.4,4.6l-0.6,0.6v0.8c0,0.4-0.2,36.8-15.7,64l-1.6,2.9l3.3,0.1l29,1l2.3,0.1l-0.2-2.3
	c-1-9.6,7.9-63.9,8-64.5l0.1-0.7l-0.4-0.6C322.6,33.3,318.2,31.1,313.5,31.2L313.5,31.2z"/>
<path class="st2" d="M315.5,103.2h-1.2c-3.3-15.1,3.3-51.4,4-69.1c2.1,0.8,3.9,2.2,5.2,4.1C323.5,38.2,314.5,93.2,315.5,103.2z"/>
<path class="st0" d="M322,111l0.6-1.2c10.9-22.5,14.4-42.4,16.2-53c0.7-4.2,1.2-6.8,1.8-8c1.6-3.1,5-5,8.5-4.9
	c2.4,0,4.7,0.7,6.7,1.8c5.1,2.6,5.3,8.9,4.6,11.8v0.1v0.1c-0.1,0.3-10.9,31.1-8,56.6l0.1,1.3L322,111z"/>
<path class="st1" d="M349.1,44.8c2.2,0,4.3,0.6,6.3,1.7c5.8,3,4.1,10.7,4.1,10.7s-11,31-8,57l-28-4c15-31,16-57,18-61
	C343,46.4,346,44.7,349.1,44.8 M349.1,42.9L349.1,42.9c-3.9-0.1-7.6,2-9.4,5.5c-0.7,1.3-1.1,3.9-1.9,8.2
	c-1.9,10.6-5.3,30.4-16.1,52.8l-1.2,2.5l2.7,0.4l28,4l2.6,0.4l-0.3-2.6c-2.9-25.3,7.8-55.8,7.9-56.1v-0.1v-0.1
	c0.1-0.4,1.9-9.2-5.2-12.9C354,43.5,351.6,42.9,349.1,42.9L349.1,42.9z"/>
<path class="st2" d="M359.5,57.2c0,0-9.6,27-8.4,51.7c-2.5,0.2-4.4-1.1-4.4-5.7c0-11.1,8.2-40.9,8.9-56.5
	C361.2,49.7,359.5,57.2,359.5,57.2z"/>
<path class="st0" d="M152.8,262.8h-0.4h-0.8H151c-1.3,0.1-2.5-0.7-3-1.9c-0.8-1.7-0.9-4-0.9-6.1c0-0.6,0-1.3-0.1-1.8
	c-0.3-4.4-0.5-8.9-0.4-13.6c0.3-13.7,2.4-27.3,6.3-40.5c5.3-17.7,13.8-34.2,25.3-48.7c6.8-8.6,14.5-16.6,23-23.6
	c4.8-4,9.8-7.8,15-11.3c0.7-0.5,1.6-1,2.6-1.5c1.9-1,4.4-2.3,5-3.4c0.7-1.3,0.4-4.4,0.3-6.3c0-0.4-0.1-0.8-0.1-1.2
	c-0.6-6.4-2-12.6-4.3-18.6c-3.4-9.4-8.5-19.2-15.5-29.9c-1.8-2.7-3.7-5.5-5.7-8.2c-0.2-0.3-0.5-0.6-0.7-0.9c-1.1-1.1-1.6-2.5-1.6-4
	c0.1-3.9,4-8.3,11.6-13c2.5-1.5,4.2-2.2,5.8-2.2c2,0,3.8,1.1,5.2,3.4s3.3,4.7,5,7c1.4,1.9,2.9,3.8,4.2,5.8
	c10.2,14.8,20.5,30.7,24.3,47.6c0.7,2.8,1,5.7,1,8.7c16-3.3,32.3-5,48.6-5c11.4,0,22.7,0.9,34,2.7c21.9,3.6,51.2,13.3,66.1,39.3
	c6.4,11.1,9.4,23.4,9.3,38.6c0,7.2-0.4,14.3-1.4,21.4c0,0.4-0.1,0.9-0.2,1.5c-0.8,7.2-1.7,11.3-4,12.3c-0.6,0.2-1.3,0.4-1.9,0.3
	c-1.1,0-2.2-0.1-3.2-0.3c-0.6-0.1-1.1-0.2-1.5-0.2l-50.5-2.8l0.5-1.8c1.9-6.9,7.9-27.8-0.7-38.7c-13-16.5-38.6-18.3-48.9-18.3
	c-1.1,0-2.1,0-3.2,0.1c-34.6,1.1-64.7,21.1-78.5,52.3c-2.5,5.7-4.5,11.6-6,17.7c-0.5,1.9-0.9,3.8-1.2,5.6c-0.7,4.3-1.9,8.6-3.6,12.6
	c-1.3,3.1-2.7,6.2-4,9.2c-0.4,0.9-0.9,1.9-1.3,2.8c-1,1.8-1.7,3.7-2.3,5.6l-0.1,0.3c-0.1,0.3-0.1,0.6-0.2,0.8l0.4,0.4l0.7,0.7
	c2,2.1,4.1,4.1,6.4,5.9l3.4,2.8L152.8,262.8z"/>
<path class="st1" d="M213.7,27.8c1.5,0,2.8,0.8,4,2.7c2.9,4.4,6.3,8.4,9.3,12.8c9.8,14.2,20.2,30,24,47.1c0.8,3.3,1.1,6.8,0.8,10.2
	c16.5-3.5,33.3-5.3,50.2-5.4c11.3,0,22.6,0.9,33.7,2.7c25.6,4.2,51.6,15.2,65.1,38.6c6.9,11.9,9.1,24.4,9,37.9
	c0,7.1-0.4,14.2-1.4,21.2c-0.4,2.5-1,11.7-3.3,12.7c-0.4,0.2-0.9,0.2-1.3,0.2c-1.5,0-3.6-0.5-4.6-0.5l-10.5-0.6l-38.1-2.1
	c3.3-11.6,7.2-29.6-1-40c-11.3-14.2-32.5-18.8-50.1-18.8c-1.1,0-2.2,0-3.2,0.1c-34.7,1.1-65.7,21.3-79.8,53.2
	c-2.6,5.8-4.6,11.8-6.1,18c-1.5,6.2-2.1,12.2-4.7,18c-1.3,3.1-2.7,6.2-4,9.3c-1.2,2.7-3.1,5.8-3.7,8.7c-0.5,2.3-0.5,1.8,1.2,3.6
	c2.1,2.2,4.2,4.2,6.5,6.1l-33.8-1.2l-18.9-0.7h-0.5c-0.6,0-1,0-1.4,0c-0.8,0-1.2-0.1-1.7-1.1c-0.9-1.8-0.7-5.3-0.8-7.3
	c-0.4-4.5-0.5-9-0.4-13.4c0.3-13.6,2.4-27.1,6.3-40.1c5.2-17.5,13.7-33.8,25-48.2c6.8-8.6,14.4-16.4,22.8-23.4
	c4.8-4,9.7-7.7,14.9-11.2c2.1-1.4,7-3.3,8.1-5.5s0.5-6.2,0.3-8.3c-0.6-6.5-2.1-12.9-4.4-19c-4-10.6-9.3-20.8-15.7-30.2
	c-1.8-2.8-3.7-5.6-5.7-8.3c-1.1-1.5-2-2.2-2-3.9c0.2-4.7,7.4-9.6,10.9-11.8C210.7,28.5,212.3,27.7,213.7,27.8 M213.7,24.7
	c-2.4,0-4.7,1.2-6.6,2.4c-8.1,5-12.1,9.7-12.3,14.2c-0.1,1.9,0.6,3.7,1.9,5c0.2,0.2,0.4,0.5,0.6,0.8c2,2.7,3.9,5.5,5.6,8.2
	c7,10.6,12,20.3,15.3,29.6c2.2,5.8,3.6,12,4.2,18.2c0,0.3,0.1,0.8,0.1,1.2c0.1,1.4,0.4,4.6-0.1,5.5c-0.5,0.7-3.1,2.2-4.4,2.8
	c-1,0.6-2,1.1-2.8,1.6c-5.2,3.5-10.3,7.3-15.1,11.3c-8.5,7.1-16.3,15.1-23.2,23.8c-11.5,14.6-20.2,31.3-25.5,49.2
	c-4,13.3-6.1,27-6.4,40.9c-0.1,4.7,0,9.3,0.4,13.7c0,0.4,0,1,0.1,1.7c0,2.3,0.1,4.8,1.1,6.8c0.7,1.7,2.5,2.8,4.3,2.7h0.6h0.7h0.4
	l9.5,0.3l9.5,0.3l2.1,0.1l31.7,1.1l8.9,0.3l-6.9-5.6c-2.2-1.8-4.3-3.7-6.3-5.8l-0.6-0.6l0,0l0.1-0.3c0.5-1.8,1.2-3.6,2.2-5.3
	c0.5-0.9,0.9-1.9,1.4-2.9c1.3-3,2.6-6.1,4-9.2c1.7-4.2,2.9-8.5,3.7-13c0.4-1.8,0.8-3.7,1.2-5.6c1.5-6,3.5-11.8,5.9-17.5
	c13.6-30.6,43.1-50.3,77.2-51.4c1,0,2.1-0.1,3.1-0.1c10.1,0,35.1,1.7,47.8,17.7c8.1,10.3,2.4,30.6,0.5,37.3l-1,3.6l3.7,0.2l19,1
	l19,1l10.5,0.6c0.3,0,0.8,0.1,1.4,0.2c1.1,0.2,2.3,0.3,3.5,0.4c0.9,0,1.7-0.1,2.5-0.4c3-1.3,4-5.6,4.9-13.5c0.1-0.6,0.1-1.1,0.2-1.5
	c1-7.2,1.5-14.4,1.4-21.6c0.1-15.5-2.9-28-9.5-39.4c-15.3-26.5-45-36.4-67.2-40.1c-11.3-1.8-22.7-2.7-34.2-2.6
	c-15.8,0-31.6,1.6-47.1,4.7c-0.1-2.4-0.5-4.8-1-7.2c-3.9-17.2-14.2-33.2-24.5-48.1c-1.4-2-2.8-3.9-4.3-5.8c-1.7-2.2-3.4-4.5-5-6.9
	C218.4,26.1,216.2,24.8,213.7,24.7L213.7,24.7z"/>
<path class="st2" d="M409.9,174.3c-56.3-23.5-142.6-51.7-185.1,10.3c-1.4,2.1-3,6.3-4.8,7.8c-3.4,3-9.9,2-14.7,1.1
	c-10-1.8-21.5-7.8-24.6-18.3c-5.1-17,17.1-34.3,28.2-43.6c12.6-10.7,25.1-18.5,22.2-37.2c-1.7-10.9-6.8-21.5-11.8-31.3
	c-4.1-8-12.8-17.5-15.2-25.9c-0.7-2.4-1.4-1.3-0.9-3.4c0.5-1.8,8.2-6.6,10.4-6.3c2.6,0.4,2,1,3.6,2.2c4,3,7.2,9.6,10,13.7
	c10.5,15.3,26.8,37.4,24.6,57.1C310.8,88.1,410.4,93.4,409.9,174.3z"/>
<path class="st3" d="M216.4,155.4c0,0,73.3-62.7,179.3-2.7C395.7,152.7,327,48,216.4,155.4z"/>
<path class="st4" d="M232.8,689.2c-22.8,0-42.5-7.8-58.5-23.2C135.5,628.8,91.5,586.5,58,538.2C28.6,496,10.4,444.2,5.4,388.5
	c-4-43.9,10.8-85,41.5-115.8c26.9-26.9,63-33,97.9-38.9c9.1-1.5,18.6-3.1,27.8-5.1c28-5.9,56.5-8.9,85.1-9
	c24.3-0.1,48.6,2.4,72.4,7.4c5,1.1,10,2.1,14.9,3c36,7.2,70,14,92,47.8c20.8,31.9,31.3,74,32,128.7c0.6,47.8-17.6,100.7-52.7,153
	c-33.3,49.6-73.9,88-117.4,111C276,682.8,253.2,689.2,232.8,689.2z"/>
<path class="st5" d="M257.8,223.7c24-0.1,48,2.4,71.5,7.3c42.1,9,80.4,12.3,104.4,49.1c24.2,37.1,30.8,83.1,31.3,126.6
	c0.7,53.9-22.4,106.7-52,150.7s-68.8,84.7-116,109.8c-20,10.6-42.5,18.1-64.3,18.1c-19.9,0-39.3-6.3-55.8-22.1
	C136.2,623.9,93.7,582.6,61.3,536c-30.4-43.7-47.1-95-51.9-147.9C5.6,346,19.9,305.5,49.8,275.5c32.8-32.8,79-33.4,123.8-42.9
	C201.3,226.8,229.5,223.8,257.8,223.7 M257.8,215.8L257.8,215.8c-28.9,0.1-57.7,3.1-85.9,9.1c-9.1,1.9-18.6,3.5-27.7,5
	c-35.6,6-72.3,12.2-100.1,40c-15.5,15.4-27.4,34.1-34.7,54.7c-7.3,20.6-10.1,42.5-8,64.3c5.1,56.4,23.5,108.9,53.3,151.7
	c33.8,48.6,79.8,92.8,116.8,128.4c16.8,16.1,37.4,24.3,61.3,24.3c21,0,44.5-6.6,68-19c44.1-23.4,85.2-62.2,118.9-112.4
	c16.4-24.5,29.3-49.1,38.2-73.3c10.4-28.1,15.5-55.7,15.1-81.9c-0.3-25.4-2.6-47.4-7-67.3c-5.3-24.3-14-45.6-25.7-63.6
	c-23-35.2-57.8-42.2-94.6-49.5c-4.8-1-9.8-2-14.8-3C306.9,218.2,282.4,215.7,257.8,215.8L257.8,215.8z"/>
<path class="st6" d="M465,406.7c0.4,27.2-5.8,55.8-16.7,83.8c-29.1,75.1-92.1,146.3-153.9,178c-25,6.3-55.8,9.8-71.4-4.8
	c-29-27-19-40-74-60c-26.2-9.5-50.6-28.8-68.6-42.5l0,0C41,513,19.3,467.9,10,393.9C-5.1,272.4,116.9,224.2,258,224.2
	c103.7,0,160.1,17.2,187.2,76.8C458.5,330.5,464.5,366.2,465,406.7z"/>
<path class="st7" d="M465,406.7c0.4,27.2-5.8,55.8-16.7,83.8C295,740.7,268.5,594.1,190,562.7c-75-30-86.6-44.2-115.5-84.5
	c-23-32-49-163,73-205S272,304.7,302,328.7c6.8,5.4,35.5,16.5,57,5c15-8,31,1.3,43-8c27-21,27,0,50-8
	C465.4,347.2,464.5,366.2,465,406.7z"/>
<path class="st8" d="M210.5,291.2c-42-10-118,34-113,116s133,140,155,110c21.7-29.6,12.8-48.2,26-113
	C291.5,340.2,252.5,301.2,210.5,291.2z"/>
<path class="st8" d="M350.5,391.2c-53-6-34.3,18.3-51,108c-14,75,50,105,83,49c36-61,59-114,48-136S392.8,396,350.5,391.2z"/>
<path class="st9" d="M253,354.7c-19.4-22.6-51,8-34,21S277,382.7,253,354.7z"/>
<path class="st9" d="M200,396.7c10,13.8,26-2,12-13S192,385.7,200,396.7z"/>
<path class="st10" d="M24.5,326.2c61.7-70.2,148.4-95.1,206-76.6"/>
<path class="st0" d="M490.1,297.1c-2.5-0.4-60.6-8.7-69.1-26.3c-2.5-5.1-2.8-9-1.1-11.7c2.1-3.3,6.5-3.6,8.3-3.6h0.6h0.2l0.2,0.1
	c26.5,18.9,60.8,20,61.2,20h0.3l0.2,0.2c4.8,4.1,7,8.1,6.6,12.1c-0.6,5.8-6.5,9-6.8,9.1l-0.2,0.1L490.1,297.1z"/>
<path class="st1" d="M428.1,256.2h0.5c27,19.3,61.6,20.2,61.6,20.2c14.4,12.2-0.1,20-0.1,20s-60.1-8.4-68.5-25.9
	C415.2,257,425.6,256.2,428.1,256.2 M428.1,254.7c-1.9,0-6.7,0.4-8.9,4c-1.8,2.9-1.5,7.1,1.1,12.5c8.7,18,67.2,26.4,69.7,26.7
	l0.5,0.1l0.4-0.2c0.3-0.1,6.5-3.6,7.2-9.7c0.4-4.2-1.9-8.5-6.9-12.7l-0.4-0.3h-0.5c-0.3,0-34.5-1.1-60.8-19.9l-0.3-0.2h-0.4
	C428.8,254.8,428.5,254.8,428.1,254.7L428.1,254.7z"/>
<path class="st11" d="M493.7,293.6c-1,1.1-2.2,2-3.5,2.8c0,0-34.3-4.8-54.7-14.7v-0.6c0,0,26.6,7,42.4,10.4
	C483.1,292.7,488.4,293.4,493.7,293.6z"/>
<path class="st7" d="M338.7,335.1c-5.3-0.1-10.6-1.2-15.6-3.1l-1-0.4l-1-0.3v-1c-0.8-39.4-40.6-78-80.3-78c-3.3,0-6.7,0.3-10,0.8
	l-2.1,0.3l0.4-2.1c3.6-18.7,16.5-35.8,36.4-48.2s45.5-19.4,72-19.4c29,0,56.4,11.7,77.2,33c18.9,19.3,29.5,43.9,29.3,67.7
	c9.9,6.7,15.5,16.4,13.5,23.3c-1.1,3.8-5,8.3-16.8,8.3c-7.1,0-16.2-1.7-27.1-4.9c-3,10.5-12.9,16-28.9,16c-7.5-0.1-14.9-1-22.2-2.9
	C355.9,331.4,347.9,335.1,338.7,335.1z"/>
<path class="st5" d="M337.5,185.2c59.6,0,106,51,105,100c15.6,10.1,22,29.3-1.8,29.3c-6.8,0-16-1.6-28.2-5.3
	c-2.7,13.1-15.7,16.4-27.9,16.4c-7.7-0.1-15.3-1.1-22.7-3c-7.6,8.7-16.1,11.1-23.3,11.1c-7.5,0-13.7-2.6-16.1-3.4
	c-0.8-38.6-39.5-79.4-81.8-79.4c-3.4,0-6.8,0.3-10.2,0.8C237.8,214.1,282.9,185.2,337.5,185.2 M337.6,182.2
	c-26.8,0-52.7,7-72.8,19.6S231.3,232,227.7,251l-0.8,4.2l4.2-0.7c3.2-0.5,6.5-0.8,9.7-0.8c38.9,0,77.9,37.9,78.8,76.5v2.1l2,0.7
	l1,0.4c5.1,2,10.6,3.1,16.1,3.2c9.4,0,17.5-3.6,24.3-10.7c7.1,1.7,14.4,2.6,21.7,2.7c19.6,0,27.2-7.9,29.9-15.6
	c10.4,3,19.2,4.6,26.1,4.6c13.4,0,17.2-5.9,18.2-9.4c2.2-7.4-3.4-17.5-13.4-24.5c0-24-10.8-48.6-29.8-68
	c-9.9-10.2-21.7-18.4-34.8-24.2C367.3,185.4,352.5,182.2,337.6,182.2L337.6,182.2z"/>
<path class="st8" d="M448.2,289.6c-1.5-1.4-4.9-3.2-5.6-4.9c-1.4-3.2-0.4-9.9-1-13.5c-1.4-8.9-4.2-17.4-8.1-25.5
	c-3.5-7.2-7.8-13.9-12.8-20.1c-13.4-16.6-31.3-28.9-51.5-35.4c-48.2-15.4-127.6,4.9-138.6,61.4c36-5.8,71.6,20,85.7,52
	c1.5,3.5,2.6,11.4,4.8,14.6c2.7,4,11.4,4.5,16.7,4.6c9.5,0.1,17.6-5.7,26.5-5.4c9,0.2,17.5,2.3,26.7,0.9c4.9-0.7,10.1-2,14.3-4.9
	c2.7-1.8,5.5-7,7.7-7.3c4-0.6,12.2,4,16.4,4.7c5.4,1,20.9,3.7,25.5-0.8C460.6,304.2,452.1,293.3,448.2,289.6z"/>
<path class="st12" d="M442.5,284.1l-0.2,0.1l-0.5,0.3c-14,8.6-105,33.2-114.9,21.5c-10.7-12.7-12.8-33.6-43.9-52.1
	c-19.7-11.7,49.5-37,84.5-32.3c23.4,3.2,29.2,7.3,35.7,11.4c1.1,0.7,2.2,1.4,3.4,2.1l0.1,0.1c0.7,0.5,1.4,0.9,2.2,1.3l0,0
	c8,5.2,23.5,17.2,29.4,21.9l0,0l0.5,1.6c0.3,1,0.5,1.9,0.8,2.9c0,0,0,0.1,0,0.1c0.1,0.5,0.3,1,0.4,1.5s0.3,1.1,0.4,1.6
	c0.2,1.1,0.5,2.2,0.6,3.3c0.1,0.5,0.2,1,0.3,1.5c0,0,0,0.1,0,0.1l0,0C442.2,275.4,442.6,279.7,442.5,284.1z"/>
<path class="st0" d="M395.5,249c9.6,19.4,78.7,28.3,78.7,28.3s16.7-8.8,0.2-22.2c0,0-39.8-0.7-70.8-22
	C403.7,233.1,387.1,232.1,395.5,249z"/>
<path class="st11" d="M475,276.9c-0.5,0.3-0.7,0.4-0.7,0.4s-63-8.1-77-25.7c16.4,7.8,47.1,20,65.8,20.5
	C470.2,272.3,473.6,274.3,475,276.9z"/>
<path class="st11" d="M473.9,258.1c3.3,1.6,5.3,4.9,5.3,8.5c-0.2,5.3-2.3,8.1-5.6,8.8c-2.6,0.6-4.4-5.2-4.2-9.4
	S473.9,258.1,473.9,258.1z"/>
<path class="st3" d="M454.3,252.8c0,0,13.3,3.8,14.5,5.1s-0.9,5.1-0.8,9.7s1.7,7.8,4,8.8s5.5-1.3,5.5-1.3l2.7-3.2
	c0,0-4.8,3.2-6.3,2.7s-5.7-9-0.3-15.8C476.9,255.2,454.3,252.8,454.3,252.8z"/>
<path class="st1" d="M395.5,249c2,2.9,4.7,5.3,7.8,7c3,1.8,6.1,3.4,9.4,4.8c6.5,2.8,13.2,5,20.1,6.8c6.9,1.8,13.8,3.5,20.7,4.9
	s14,2.7,21,3.8l0,0l-0.6,0.1c1.9-1.1,3.6-2.5,4.9-4.2c1.3-1.6,2-3.7,2-5.8c-0.2-2.1-0.9-4.1-2.3-5.8c-1.3-1.8-2.9-3.4-4.6-4.8l0,0
	l0.6,0.2c-3.2,0-6.3-0.3-9.5-0.6s-6.3-0.7-9.4-1.3c-6.2-1-12.4-2.4-18.4-4.2c-6-1.8-11.9-4.1-17.6-6.7c-5.8-2.5-11.2-5.9-15.9-10.1
	c5.7,2.8,11.1,5.7,16.8,8.2c5.7,2.5,11.5,4.6,17.5,6.3c6,1.7,12,3.1,18.1,4.2c6.1,1.1,12.3,1.8,18.4,2.2h0.4l0.2,0.2l0,0
	c1.9,1.5,3.6,3.2,5,5.2c0.7,1,1.3,2.1,1.8,3.2c0.5,1.2,0.7,2.4,0.8,3.7c0,2.6-0.8,5.1-2.4,7c-1.5,1.9-3.4,3.5-5.6,4.7l-0.3,0.1h-0.3
	l0,0c-3.6-0.4-7.1-0.9-10.6-1.5s-7-1.2-10.5-1.9c-7-1.4-14-3-20.9-5c-6.9-1.9-13.7-4.3-20.3-7.3c-3.3-1.5-6.4-3.3-9.4-5.4
	C399.6,255.1,396.9,252.4,395.5,249z"/>
<path class="st1" d="M468,267.5c0,0,0.5,4.4,2.5,6.4c1.4,1.3,3,2.2,4.8,2.8l-2.1,0.6C473.2,277.3,466.2,274.6,468,267.5z"/>
<path class="st1" d="M473.5,258.7c-3.5,4.8-2.9,11.7-0.7,14.7C472.9,273.4,466.8,266,473.5,258.7z"/>
<path class="st13" d="M312.7,248.3c-6.5,13.1,22,50.8,50.7,46s61-5.9,65.7-12.9s-23.7-2.5-40-16.3s-21.1-18-42-25.1
	C332.7,235.2,316.7,240.2,312.7,248.3z"/>
<path class="st14" d="M307,373.7c-0.1,0.3-0.2,0.6-0.3,0.9c-0.6,0.4-1.2,0.8-1.8,1.1l0,0L307,373.7z"/>
<path class="st14" d="M137.9,433c-0.8,0.6-1.6,1.3-2.3,2C136.2,434.2,137,433.6,137.9,433z"/>
<path class="st14" d="M137,490.5c0.1-0.2,0.1-0.3,0.2-0.4L137,490.5z"/>
<path class="st14" d="M307,373.7c-0.1,0.3-0.2,0.6-0.3,0.9c-0.6,0.4-1.2,0.8-1.8,1.1l0,0L307,373.7z"/>
<path class="st15" d="M451.8,456.9c-21.5-31.8-46.6-22-54.3-27.7c-8-6-21-40-47-54s-20-25-20-25c10-47-42-112-58.2-107.8
	s-18.8,19.8-18.8,19.8s48,12.9,56.7,64.4c0.9,5.3,0.1,14.7,0.1,14.7c-6.8,39.5-71.3,51.7-92.9,71.4c-23.4,21.4-52-1.8-79.7,20.2
	c5.4-3.7,21.2-10.6,59.1-4.3c0,0-11.7,10.4-20.3,32.4c-8.5,21.8-30.4,12.6-39.4,28.9c1-1.3,5.6-5.4,26.4-11.9
	c0,0,10.2-0.7,20.8-19.1c0,0,5.9-20.2,24.6-31.5c0,0,3.8-5.2,19.6-15.7s76.2-36.1,76.2-36.1c-11.6,11.1-58.4,56.5-78.4,82.5
	c-23.4,30.4-33.4,92.5-25,112c0,0-3.6-50.8,25-102c0,0-15,68,21,115c0,0,6,7,1,15s-17,18-21,42s6.9,34,10,39c-0.4-0.7-6-11.4-7-23
	c-1-12,3-24,3-24s15,10,18,16c2.8,5.7-3.3,18.5,1.1,23.2c-0.1-1.5,0.5-5,2.9-13.2c5-17-14-25-19-31c0,0,2-11,21.7-34
	c15.3-18,13.4-26.9,27.8-48.5c0,0,10.5,58.3,52,95.9c0,0,5.7,3.2,4.1-3.1S295,586.7,294,539.7c0,0,17-79,20-132
	c2.3-13.5,3.6-18.4,6.3-30.5c0,0,39.2-3,64.2,51s2,53,3,71s11,23,7,41c-3.4,15.3,1.2,19.1,2.6,19.8c-1.1-0.7-3.7-4.1,0.4-18.8
	c5-18-3-25-2-29s4-2,4-2c9.6,6,16.7,15.2,20,26c0-22-20-28-24-34c-6.2-9.3,8-20,7-36s-8-32-8-32
	C431.2,436.4,446.3,449.9,451.8,456.9z M304,441.7c-7.1,63.6-15.3,86.9-22,97c-7.3,10.9-14.5,33.3-25.9,49c-0.8-1.8-2-4.3-3.6-7.5
	c-6-12-31-34-19-111c0,0,9-31,61-67c3.3-2.3,6.5-4.8,9.5-7.5C305.5,406.2,308,405.7,304,441.7z"/>
<path class="st16" d="M206.2,424.5l-0.2,0.1L206.2,424.5z"/>
<path class="st16" d="M208.4,422.7c-1.1,0.9-1.8,1.5-2.1,1.8L208.4,422.7z"/>
<path class="st16" d="M357,382.7c-24-19-28-11-34-29c3.7-28.8-5.9-48.1-5.9-48.1l0,0c-2.8-9.2-12.8-36.9-36.7-52
	c-0.8-0.5-1.9-0.3-2.5,0.5c-1.1,1.4-0.8,3.4,0.6,4.5c21.7,16.4,37.4,45.9,37.4,66.1c0,21-3.7,41.5-51,64c-38.4,18.3-40,19.9-56.7,34
	c5.7-4.6,23.2-17.3,71.7-39c17.1-7.7,18-8,32-21c0,0,2,15-15,28c-24.3,18.6-61,59-68,68c0,0,42-45,64-60c11.7-8,12-8,15-12
	c1,14,1,16,1,16c-1.1,35.7-17,132-17,132c8-38,19-112,19.9-127.2c0.8-14.5,3.8-21.1,8.4-39.8c10,7,32.6,11.3,46.7,28
	c16,19,18,24,22,34C389,429.7,381,401.7,357,382.7z"/>
<path class="st14" d="M454.5,461.2c-0.9-1.5-1.8-2.9-2.7-4.2C452.9,458.3,453.8,459.7,454.5,461.2z"/>
<path class="st15" d="M38.5,317.2c-9,45-9,107,16,127s5,39,16,55s17,3,26,25c0,0,1-9-10-17s-15-3-15-25s4-23-7-35c0,0,11-4,22,6
	s15,20,35,18c0,0-20,0-26-14s-22-18-33-17c0,0-14-1-19-32s1-78,5-88c0,0,59,6,83,36s55,17,55,17s-36,6-51-20s-64-39-64-39
	s43-3,75,12s42-9,84,6c0,0-18-11-44-8s-35-4-35-4s22-1,33-17s21-7,41-12c-9.3,0.5-18.7,0.2-28-1c-14-2-17,18-32,22s-25,3-25,3
	s-22-10-42-12S38.5,317.2,38.5,317.2z"/>
<path class="st16" d="M119.1,340.6c2.3,0.8,4.4,2,6.2,3.7c1.8,1.6,3.5,3.3,5,5.2c3,3.6,5.6,7.5,8.8,10.9c3.2,3.4,6.8,6.3,10.9,8.5
	c2.1,1.1,4.2,2.1,6.4,2.9c2.2,0.8,4.5,1.4,6.8,1.9c0.1,0,0.1,0.1,0.1,0.1c0,0,0,0,0,0c0,0.1-0.1,0.1-0.1,0.1c-4.7-0.7-9.3-2-13.6-4
	c-4.3-2.1-8.2-4.9-11.6-8.3c-3.4-3.3-6.5-6.9-9.3-10.8c-2.8-3.7-5.6-7.4-9.6-9.9C119,340.8,119,340.7,119.1,340.6
	C119,340.7,119.1,340.6,119.1,340.6z"/>
<path class="st16" d="M156.1,326.6c4.7,1.4,9.5,1.3,14.2,0.7s9.6-1.2,14.5-1.7c4.9-0.5,9.8-0.8,14.7-0.7c4.9,0.2,9.8,0.8,14.6,1.7
	c0.1,0,0.1,0.1,0.1,0.1c0,0,0,0,0,0c0,0.1-0.1,0.1-0.1,0.1c-4.8-0.7-9.7-1-14.5-0.9c-4.8,0.1-9.7,0.5-14.5,1.3
	c-4.8,0.7-9.6,1.8-14.5,2.1c-1.2,0.1-2.5,0.1-3.7,0.1c-0.6,0-1.3-0.1-1.9-0.1c-0.6,0-1.2-0.1-1.9-0.2c-2.5-0.3-4.9-1.1-7.1-2.3
	c0,0-0.1-0.1,0-0.1C156,326.6,156,326.6,156.1,326.6L156.1,326.6z"/>
<path class="st16" d="M152,316.6c4.7-0.9,9.3-2.1,13.9-3.7c2.2-0.8,4.4-1.7,6.5-2.8c2.1-1.1,4-2.4,5.8-3.9c1.8-1.6,3.4-3.3,4.8-5.3
	c1.4-2,2.9-3.9,4.5-5.7c0.9-0.9,1.8-1.7,2.9-2.4c1.1-0.6,2.2-1.1,3.5-1.3c2.4-0.5,4.9-0.5,7.3,0c0.1,0,0.1,0.1,0.1,0.1
	c0,0.1-0.1,0.1-0.1,0.1c-2.4-0.3-4.8-0.2-7.1,0.4c-1.1,0.3-2.2,0.8-3.2,1.4c-1,0.7-1.8,1.5-2.6,2.4c-1.5,1.8-2.8,3.8-4.2,5.8
	c-1.4,2-3,3.9-4.7,5.6c-3.6,3.5-7.9,6-12.7,7.4c-4.7,1.4-9.6,2.1-14.5,2C152,316.8,151.9,316.7,152,316.6
	C151.9,316.6,152,316.6,152,316.6L152,316.6L152,316.6z"/>
<path class="st7" d="M20.3,350.9c-11.2,0-15.3-7.3-18.2-15.1c-1.8-5,0.5-9.6,4.7-18c6.1-12.3,16.4-32.9,25.3-75.8
	c4.6-22.4,15.7-41.4,31.9-54.8c14.5-12,32.1-18.6,49.4-18.6c19,0,35.3,8.2,44.7,22.6c5.3,8.1,7,19.9,5.1,35
	c-1.7,11.9-4.7,23.6-9,34.9c1.6,6.7,1,12.2-1.8,16.3c-2.1,3-5.1,5.2-8.6,6.1c-0.9,16-11.7,21.1-15.4,22.3
	c-0.4,16.5-18.2,21.1-21.5,21.8c-8.4,8.8-16,13.2-22.5,13.2c-1.9,0.1-3.9-0.4-5.6-1.3c-9.7,7.6-18.9,11.4-27.3,11.4l0,0
	c-4.8,0.1-9.5-1.3-13.4-4.1C31,349.5,25.2,350.9,20.3,350.9z"/>
<path class="st5" d="M113.4,170c17.6,0,33.8,7.2,43.4,21.9c5.9,9,6.4,21.9,4.9,34c-1.7,12-4.7,23.7-9.1,35
	c4.7,19.1-10.3,21.3-10.3,21.3c-0.5,19.3-15.4,22.4-15.4,22.4c0.5,18-20.7,21.6-20.7,21.6c-10.1,10.7-17.3,13.1-21.7,13.1
	c-2,0.1-4-0.5-5.6-1.8c-11.4,9.2-20.6,11.8-27.3,11.8c-8.6,0-13.2-4.3-13.2-4.3h-0.1c-7.6,3-13.5,4.3-18,4.3
	c-10.3,0-14-6.5-16.8-14.2c-4-11,15.1-21,30-93C43.4,194.6,80.8,169.9,113.4,170 M113.4,166.9L113.4,166.9c-17.7,0-35.6,6.7-50.4,19
	c-16.5,13.6-27.7,32.9-32.4,55.7c-8.8,42.7-19,63.2-25.1,75.4c-4.2,8.5-6.8,13.6-4.7,19.2c3,8.4,7.5,16.1,19.6,16.1
	c4.9,0,10.7-1.3,17.7-3.9c4.1,2.6,8.8,4,13.7,3.9c8.6,0,17.8-3.7,27.5-11.1c1.7,0.8,3.5,1.2,5.4,1.1c6.8,0,14.7-4.5,23.2-13.3
	c8-1.7,21.2-8.1,22.2-22.1c5.9-2.2,14.1-8.7,15.3-22.3c3.4-1.2,6.4-3.4,8.4-6.4c2.9-4.4,3.6-10.1,2.1-17c4.3-11.2,7.3-22.9,8.9-34.9
	c1.9-15.5,0.1-27.7-5.3-36C149.7,175.5,133,167,113.4,166.9L113.4,166.9z"/>
<path class="st8" d="M152.7,260.9c4.7,19.1-10.3,21.3-10.3,21.3c-0.5,19.3-15.4,22.4-15.4,22.4c0.5,18-20.7,21.6-20.7,21.6
	c-18.7,19.7-27.3,11.3-27.3,11.3c-26.2,21-40.5,7.5-40.5,7.5h-0.1c-3.9-2.9-6.7-7.1-7.8-11.9c-6-27,18-57,26-101s62-57,84-40
	c11.5,8.9,18.1,21.9,21.2,33.8C160.1,237.9,157,249.6,152.7,260.9z"/>
<path class="st12" d="M129.3,206.7c48,37-29.6,127-58.2,109C47,300.5,88.9,175.6,129.3,206.7z"/>
<path class="st9" d="M119.6,242.8c19.2-1.7,1.3-22-10.6-18.7S95.9,244.9,119.6,242.8z"/>
<path class="st9" d="M100,251.8c5.9,5,8.3-4.4,1.6-7.6S95.3,247.8,100,251.8z"/>
<path class="st0" d="M189.5,49.2c1.3,3.3-2.5,17.5,67.9-21.6c0,0,14.9-2.1,23.1,17.6s-5.4,27.7-5.4,27.7S208,115.7,186,101.7
	c0,0-7-10-6-27S189.5,49.2,189.5,49.2z"/>
<path class="st11" d="M274.9,65.2L274.9,65.2c-0.6-0.1-10.8-2.3-15-14.6c-3.3-9.5-0.3-19.5,0.1-19.3l0,0
	C270.3,35.7,283.5,52.4,274.9,65.2z"/>
<path class="st1" d="M190.5,48.7c0.1,0.5,0.2,0.9,0.2,1.4c0,0.3,0.1,0.6,0.2,0.9c0.2,0.5,0.5,1,1,1.2c1.2,0.6,2.6,0.9,4,0.8
	c3.1-0.2,6.2-0.8,9.1-1.8c6.1-1.9,12-4.2,17.8-6.9c5.8-2.6,11.5-5.5,17.2-8.4s11.3-6,16.9-9.2l0,0l0.2-0.1h0.2
	c7.2-0.6,13.9,3,18.3,8.2c1.1,1.3,2.1,2.7,3,4.1c0.9,1.4,1.7,2.9,2.4,4.5c1.5,3.1,2.5,6.4,3,9.7c0.6,3.5,0.3,7-0.6,10.3
	c-1,3.4-3,6.4-5.6,8.8c-0.6,0.6-1.3,1.2-2,1.6l-2.1,1.3l-4.3,2.6c-2.9,1.7-5.7,3.3-8.6,4.9c-11.6,6.5-23.6,12.1-36,16.8
	c-6.2,2.4-12.7,4.1-19.3,5.3c-3.3,0.6-6.7,0.7-10.1,0.5c-3.4-0.4-6.9-1.4-9.4-3.7c3,1.2,6.2,1.8,9.5,1.8c3.2,0.1,6.5-0.1,9.6-0.7
	c6.5-1.2,12.8-2.9,18.9-5.3c12.3-4.8,24.1-10.4,35.6-16.9c2.9-1.6,5.7-3.2,8.6-4.9l4.2-2.5l2.1-1.3c0.6-0.4,1.2-0.9,1.8-1.4
	c2.3-2.1,4-4.7,4.9-7.7c0.9-3,1.1-6.2,0.6-9.3c-0.5-3.2-1.4-6.2-2.8-9.1c-0.6-1.5-1.4-2.9-2.2-4.3c-0.8-1.4-1.7-2.7-2.8-3.9
	c-2-2.4-4.5-4.4-7.4-5.8c-1.4-0.7-2.9-1.2-4.4-1.5c-1.5-0.3-3-0.5-4.6-0.4l0.4-0.1l0,0c-5.6,3.1-11.3,6.1-17,9
	c-5.7,3-11.4,5.8-17.3,8.5c-5.8,2.8-11.9,5.2-18,7.2c-3.1,1-6.4,1.7-9.6,2c-0.9,0.1-1.7,0.1-2.6,0c-0.9-0.1-1.9-0.3-2.7-0.8
	c-0.9-0.5-1.7-1.3-2.2-2.2c-0.2-0.4-0.4-0.9-0.5-1.4c-0.1-0.3-0.2-0.7-0.3-1L190.5,48.7z"/>
<path class="st1" d="M260.2,30.9c-4,6.7,0.7,29.8,14.7,34.3c0,0-10.7-2-15-14.6S260.2,30.9,260.2,30.9z"/>
<path class="st1" d="M251.5,49.6c3.3,12.6,7,21.4,22.2,24.1l1.9-1.5C275.5,72.2,259,74.4,251.5,49.6z"/>
<path class="st1" d="M260,31.2L260,31.2L260,31.2C260,31.2,260,31.2,260,31.2z"/>
<path class="st2" d="M168.6,74c3.8,16.9,11.6,24.7,18.3,28.3c2.5,1.8,5.4,2.8,8.5,3l1.2,0.1c0.3,5,0.4,9.9,0.4,14.8
	c-45,12.1-61.7,46.7-61.7,46.7c26.4-67.6-15.4-143.8-20.9-153.4c4.2-4,10-7.4,18-9.4c3.3-0.8,6.6-1.2,10-1.2
	c23.3,0,36.7,20.2,36.7,20.2c3.4,9,6.2,17.9,8.6,26.6l0,0l0,0c0.1,0.4,0.2,0.8,0.3,1.2v0.1h0.1c0.4,1.4,1.3,2.5,2.6,3.1
	c0.8,0.4,1.8,0.7,2.7,0.8c0.9,0.1,1.7,0.1,2.6,0c3.3-0.3,6.5-1,9.6-2c6.1-2,12.2-4.4,18-7.2c5.8-2.7,11.6-5.5,17.3-8.5
	c3.5-1.8,7-3.6,10.4-5.5c-1.1,5.9-1,12,0.2,17.9c0-0.1,0-0.2-0.1-0.3l0.1,0.6c0.4,1.8,0.9,3.5,1.6,5.2c2.1,6.3,4.9,11.4,10.3,14.7
	C218,99.3,194,97.9,181.4,90.5C175.3,86.8,170.7,80.9,168.6,74z"/>
<path class="st0" d="M148.5,2.2"/>
<path class="st0" d="M243,36.4c-13.4,11.2-49.2,26-57,25.3c-8.8-0.8-6.5-23-13.5-36.7c-5-10-15.4-17.5-20.7-20.8
	c17.4,4.3,27.3,19.1,27.3,19.1c3.4,9,6.2,17.9,8.6,26.6l0,0l0,0c0.1,0.4,0.2,0.8,0.3,1.2v0.1h0.1c0.4,1.4,1.3,2.5,2.6,3.1
	c0.8,0.4,1.8,0.7,2.7,0.8c0.9,0.1,1.7,0.1,2.6,0c3.3-0.3,6.5-1,9.6-2c6.1-2,12.2-4.4,18-7.2c5.8-2.7,11.6-5.5,17.3-8.5L243,36.4z"/>
<path class="st0" d="M459.5,235.2c-27.5-2-55-5.2-82.2-9.4c-19.1-3-38.5-6.5-57-12.4c-6.6-2.1-20.3-8.4-29.5-3.4
	c-8.4,4.5-10,12.6-13.7,21.2c-5,11.7-9.7,23.6-14.9,35.2c-1.5,3.4-2.4,6.4-5.4,8.3s-7.8,2.1-11.2,2.4c-7.2,0.6-14.5-0.4-21.2-2.9
	c-6.4-2.3-21.9-11.5-23.3-19.1c-0.8-4.6,7.2-16.8,9.1-21.2c3.3-7.4,6.6-14.8,9.9-22.3c4.5-10.1,3-22.4,8.2-32
	c5.9-11,21.7-20.3,32.6-25.1c8.5-3.8,40.1-7.4,52.9-1.7c6.1,4,12.6,7.4,19.5,10.1c7.4,3,50.7,15.5,121.2,15.2
	c8.8,0,15.9-4.3,19.6,4.1C483,201.7,475.7,222,459.5,235.2z"/>
<path class="st11" d="M320.1,156.5c4.2,2.1-31.6-3.6-56.8,8.5c-28.6,13.7-43.9,44.4-38.6,25.6c1.4-3.9,1.9-7.6,3.7-11
	c5.9-11,21.7-20.3,32.6-25.1c8.5-3.8,40.1-7.4,52.9-1.7C315.9,154.1,318,155.3,320.1,156.5z"/>
<path class="st11" d="M462.7,229.3c-2.7-5.4-4.3-11.4-4.7-17.4c0.2,1.7,0.4,3.4,0.8,5c-2.2-21.9,8.9-33.5,9.5-34.2l0,0
	C473.9,178.8,481,209,462.7,229.3z"/>
<path class="st3" d="M463.9,231.3c0,0-6-0.1-3-2.9c7-6.6,11.9-16,12.8-24.6c1.2-12.1-3.7-22.6-5.4-21c-7.5,7.2-9.9,17.1-9.9,17.1
	C455.6,220,463.8,231.3,463.9,231.3l-3.2,2.9c0,0-10.2-6.5-9.2-23.1s4.3-18.1,6.6-23.4s-1.6-9.7-1.6-9.7c7.9-0.5,14.2-3.6,17.7,4.2
	C477.8,190.2,483.2,211.8,463.9,231.3z"/>
<path class="st1" d="M451.8,203.7c0,0-4.5,25,7.7,31.5l2.4-2.1C462,233.1,451.8,233.1,451.8,203.7z"/>
<path class="st1" d="M468.3,182.7c0,0-11.8,11.7-9.5,34.3C458.8,216.9,453,194.4,468.3,182.7z"/>
<path class="st1" d="M202.9,248.1c1-3.4,2.3-6.7,3.9-9.9c0.8-1.6,1.5-3.2,2.2-4.7s1.3-3.3,2-4.9c1.4-3.2,2.8-6.4,4.2-9.7l2.1-4.8
	c0.7-1.6,1.5-3.2,2-4.8c1.2-3.2,2-6.5,2.5-9.9c0.6-3.4,1.1-6.9,2-10.5c0.8-3.6,2.2-7,4.1-10.2c2-3.1,4.3-5.9,7-8.4
	c5.2-5,10.9-9.3,17-13c3.1-1.9,6.2-3.6,9.5-5.1c3.4-1.4,6.8-2.5,10.4-3.2c7-1.4,14.2-2.1,21.4-1.9c3.6,0.1,7.2,0.4,10.8,0.9
	c3.6,0.5,7.2,1.5,10.6,2.9l0.1,0.1l0.1,0.1c3.9,2.5,7.9,4.8,12.1,6.8c2.1,1,4.2,2,6.4,2.9c2.1,0.9,4.3,1.6,6.5,2.2
	c9,2.6,18.1,4.6,27.3,6.2c18.5,3.2,37.1,5.3,55.9,6.2l7,0.4l7,0.2c4.7,0.2,9.4,0.2,14.1,0.2h3.5c1.1,0,2.2-0.1,3.3-0.2
	c2.3-0.2,4.6-0.7,7.1-0.8c1.3-0.1,2.7,0,4,0.2c1.4,0.3,2.8,1,3.9,2c1,1,1.9,2.1,2.5,3.4c0.3,0.6,0.5,1.2,0.8,1.7s0.5,1.1,0.7,1.7
	c3.5,9.2,3.7,19.4,0.5,28.8c-3.3,9.2-9.1,17.3-16.8,23.3l0,0l-0.5,0.4h-0.6c-5-0.3-10.1-0.7-15.1-1.1s-10.1-0.9-15.1-1.4
	c-10.1-1-20.1-2.1-30.1-3.4s-20-2.8-30-4.5s-20-3.5-29.8-5.8c-5-1.1-9.9-2.5-14.7-3.9c-1.2-0.4-2.4-0.8-3.6-1.1s-2.5-0.8-3.6-1.2
	c-2.4-0.9-4.7-1.7-7.1-2.4c-4.7-1.4-9.6-2.4-14.1-1.8c-2.3,0.3-4.4,1.2-6.2,2.6c-1.9,1.3-3.5,3-4.8,5c-2.6,3.9-4.1,8.8-6.1,13.5
	L273,245c-2,4.6-3.8,9.3-6,13.9c-1.1,2.3-2.2,4.5-3.4,6.8l-1.9,3.3c-0.6,1.1-1.4,2.2-2.2,3.1c1.1-2.3,1.5-4.8,2.5-7.2
	s1.7-4.8,2.6-7.1c1.8-4.7,3.8-9.4,5.7-14l5.8-14c1.9-4.6,3.3-9.5,6.3-14.1c1.5-2.3,3.4-4.3,5.6-5.9c1.1-0.8,2.3-1.5,3.6-2
	c1.3-0.5,2.6-0.9,4-1.1c2.7-0.4,5.4-0.4,8.1,0c2.6,0.4,5.1,1,7.6,1.7c2.5,0.7,4.9,1.6,7.3,2.4c1.2,0.4,2.3,0.8,3.5,1.2
	s2.4,0.7,3.6,1.1c4.8,1.4,9.7,2.6,14.5,3.8c9.8,2.3,19.7,4.1,29.6,5.8s19.9,3.1,29.9,4.5s20,2.6,30,3.7s20,2,30.1,2.9l-1.1,0.3l0,0
	c7.2-5.8,12.6-13.4,15.6-22.1c2.9-8.6,2.7-18-0.5-26.5c-0.2-0.5-0.4-1.1-0.6-1.6c-0.2-0.5-0.4-1.1-0.7-1.5c-0.4-0.9-1-1.7-1.7-2.3
	c-0.7-0.6-1.5-1-2.3-1.2c-1-0.2-2-0.2-3-0.1c-2.2,0.1-4.5,0.6-6.9,0.9c-1.2,0.1-2.5,0.2-3.7,0.3h-3.5c-4.7,0-9.5,0-14.2-0.2
	l-7.1-0.2l-7.1-0.4c-18.9-0.9-37.7-3-56.3-6.2c-9.4-1.6-18.6-3.7-27.7-6.3c-2.3-0.7-4.6-1.4-6.9-2.4c-2.2-0.9-4.4-1.9-6.5-2.9
	c-4.3-2.1-8.5-4.5-12.5-7.1l0.3,0.1c-3.1-1.3-6.4-2.2-9.7-2.7c-3.4-0.5-6.8-0.8-10.3-0.9c-6.9-0.2-13.8,0.4-20.6,1.7
	c-3.3,0.7-6.6,1.7-9.7,3c-3.1,1.4-6.2,3.1-9.1,4.9c-5.9,3.5-11.5,7.7-16.5,12.4c-2.5,2.3-4.6,5-6.5,7.8c-1.7,2.9-3,6-3.8,9.3
	c-1.7,6.6-2.1,13.8-4.7,20.7c-0.7,1.7-1.4,3.3-2.1,4.9l-2.2,4.7c-1.4,3.2-2.9,6.4-4.4,9.6c-0.7,1.6-1.5,3.2-2.3,4.8
	s-1.8,3.1-2.7,4.6L202.9,248.1z"/>
<path class="st3" d="M279,165c33.1,28.3-6.9-6.3-32.5,72.8c0,0,17-67.8,149.2-36.4C395.7,201.4,358.3,183.7,279,165z"/>
</svg>
