<svg id="Layer_1" data-name="Layer 1" xmlns="http://www.w3.org/2000/svg" viewBox="0 0 628.38 628.71"><defs><style>.cls-1{fill:#fecb33;}.cls-2{fill:#986500;}.cls-3{fill:#986501;}.cls-4{fill:#734d00;}.cls-5{fill:#5c3e00;}.cls-6{fill:#986600;}.cls-7{fill:#724d00;}.cls-8{fill:#5b3d00;}.cls-9{fill:#452e00;}.cls-10{fill:#5e3f01;}.cls-11{fill:#5a4006;}.cls-12{fill:#462f00;}.cls-13{fill:#432d00;}.cls-14{fill:#5c3d00;}.cls-15{fill:#fef3d1;}.cls-16{fill:#997a20;}.cls-17{fill:#e9ddc7;}.cls-18{fill:#e8ddc7;}</style></defs><title>GavelInventory</title><path class="cls-1" d="M543.67,131.8,668.13,256.27c-12.53,12.67-25,25.39-37.61,38q-43.29,43.29-86.67,86.49l-.08-.08c-13.1-12.76-26.29-25.42-39.27-38.29q-43-42.68-85.89-85.53l-.07-.05c.79-.86,1.55-1.75,2.37-2.57q59.7-59.72,119.42-119.42C541.39,133.76,542.56,132.81,543.67,131.8Zm45,78.63.1-.1q27.55,27.55,55.07,55.14c3.41,3.43,6,2.38,8.78-.61s5.48-5.71,1.79-9.8c-3.13-3.46-6-7.13-9.27-10.47-21.73-22.3-43.36-44.72-65.39-66.72-10.94-10.93-22.6-21.15-34.09-31.53-3-2.72-8.34-1-12.1,3.22-3.07,3.44-.25,5.45,1.79,7.5Q562,183.79,588.66,210.43Z" transform="translate(-115.29 -56.24)"/><path class="cls-2" d="M406.69,428.69c-13.13,13.44-26.4,26.75-39.36,40.36-24,25.17-47.74,50.53-71.62,75.78-4.68,5-9.49,9.79-14.24,14.68a39.73,39.73,0,0,0-5.11,3.79c-17.14,17.45-33.88,35.3-51.4,52.36-13.79,13.44-28.17,26.33-43,38.67-8.63,7.2-18.19,13.55-29.65,15.89-13.22,2.7-23.24-6.84-20.77-20.15a54.86,54.86,0,0,1,4.52-13.68c8.94-18.5,22.43-33.77,36.44-48.39,21.2-22.12,43.19-43.46,64.8-65.19a40.2,40.2,0,0,0,3.73-5.12q49.3-46.59,98.56-93.22c10.72-10.19,21.05-20.8,31.56-31.21Z" transform="translate(-115.29 -56.24)"/><path class="cls-3" d="M343.92,170.66c34.91-35,69.71-70,104.78-104.85,11.21-11.13,28.86-12.54,42.52-4.32,13,7.83,19.66,23.56,16,37.76-1.27.69-2.79,1.13-3.77,2.11q-58,57.95-115.9,116l-.7.5c-5.31-.32-10.62-.55-15.93-1-8-.63-16.26-1.13-22.64-6.56-9.42-8-9.92-18.59-7-29.75C342.13,177.27,343,174,343.92,170.66Zm88.51-79.19A38.6,38.6,0,0,1,437,88.73c7.71-3.44,15.3-7.26,23.27-10a19.09,19.09,0,0,1,17.27,2.37c7.18,4.94,9.3,12.14,7.42,20.23-1.47,6.35-4,12.45-6.16,18.83,8.21-7.17,16.08-14.52,20.61-24.67,3-6.76,3.88-13.79-.71-20C490.28,64.18,474.81,54,457,67.31,447.81,74.19,440.42,83.48,432.43,91.48Z" transform="translate(-115.29 -56.24)"/><path class="cls-3" d="M700.73,292.85c12.92-3.55,27.35,1.81,36.1,13.41a35.18,35.18,0,0,1,1.54,39.44,48.31,48.31,0,0,1-6.6,8.08q-48.1,48.24-96.32,96.35c-2,2-4.18,3.81-6.27,5.71-5.11,1.22-10.21,3.43-15.34,3.49-23.13.28-23.94-6.76-26-22.61-1.07-8.18-3.18-16.22-4.83-24.32q.22-.34.43-.69Q640.28,354.86,697.1,298A36.24,36.24,0,0,0,700.73,292.85Zm-24.88,34.54.46.81a37.64,37.64,0,0,1,5.05-2.91c6.77-2.65,13.42-6.1,20.46-7.46,11.07-2.13,20.06,4.74,21,16,.51,6.27-1.13,12.78-2.32,19.09-.61,3.23-2.35,6.26-3.91,10.21,4.7-4.7,9.34-8.24,12.52-12.8a64.14,64.14,0,0,0,9-17.55c3.37-11.1-2.46-22.74-13.74-30.12-8.26-5.4-17.26-4.89-26.59,3C690,312.33,683.12,320.11,675.84,327.39Z" transform="translate(-115.29 -56.24)"/><path class="cls-4" d="M700.73,292.85A36.24,36.24,0,0,1,697.1,298Q640.31,354.89,583.43,411.7c-1-1.9-2.1-3.77-3-5.7-5.09-10.36-13.13-16.9-24.58-19q57.27-57.25,114.55-114.5c1.76-1.76,3.68-3.37,5.52-5.05C677.67,281.67,685.8,290,700.73,292.85Z" transform="translate(-115.29 -56.24)"/><path class="cls-4" d="M387.53,217.35q57.93-58,115.9-116c1-1,2.5-1.42,3.77-2.11,2.49,14.58,11.25,23.18,25.32,24.87-1.22,1.36-2.38,2.78-3.67,4.07q-56.07,56.1-112.17,112.17c-1.29,1.29-2.7,2.46-4.05,3.69C409.55,230.19,403.45,219.16,387.53,217.35Z" transform="translate(-115.29 -56.24)"/><path class="cls-5" d="M241.08,517.7a40.2,40.2,0,0,1-3.73,5.12c-21.6,21.73-43.6,43.07-64.8,65.19-14,14.62-27.5,29.89-36.44,48.39a54.86,54.86,0,0,0-4.52,13.68c-2.47,13.31,7.55,22.85,20.77,20.15,11.46-2.34,21-8.69,29.65-15.89,14.78-12.34,29.16-25.23,43-38.67,17.52-17.06,34.26-34.91,51.4-52.36a39.73,39.73,0,0,1,5.11-3.79,25,25,0,0,1-2.21,3.26q-21.75,23.42-43.56,46.79c-12,12.9-23.44,26.47-36.26,38.53a143,143,0,0,1-66.11,35.63c-15.91,3.72-20.44-.75-16.93-16.58,4.95-22.34,14.68-42.72,29.8-59.71,13.34-15,28.55-28.29,43-42.23,6.84-6.58,13.94-12.87,20.88-19.35,9.25-8.64,18.43-17.34,27.68-26A23.37,23.37,0,0,1,241.08,517.7Z" transform="translate(-115.29 -56.24)"/><path class="cls-2" d="M412.62,244.06c1.35-1.23,2.76-2.4,4.05-3.69q56.1-56.07,112.17-112.17c1.29-1.29,2.45-2.71,3.67-4.07,2.12-2.13,4.42-3.41,7.31-1.39,3.17,2.21,5.19,4.93,3.84,9.07-1.11,1-2.28,2-3.33,3q-59.72,59.7-119.42,119.42c-.82.82-1.58,1.71-2.37,2.57l-6.34-12Q412.42,244.46,412.62,244.06Z" transform="translate(-115.29 -56.24)"/><path class="cls-6" d="M675.88,267.42c-1.84,1.68-3.76,3.29-5.52,5.05Q613.07,329.71,555.81,387a3.82,3.82,0,0,0-.82.41l-11.14-6.62q43.34-43.24,86.67-86.49c12.6-12.6,25.08-25.33,37.61-38,4.23-1.23,7,.76,9.24,4.09C679.24,263.21,677.89,265.39,675.88,267.42Z" transform="translate(-115.29 -56.24)"/><path class="cls-7" d="M370.87,377.12c4.37-8.71,10.88-10.4,21.1-5.45L428.33,408c2.38,4.32,3.88,8.76,1.9,13.68-1.5,3.72-3.81,6.54-8.05,7.19C399.5,417.15,382,400.27,370.87,377.12Z" transform="translate(-115.29 -56.24)"/><path class="cls-7" d="M460.91,376.8c3.56,10.93,2.16,16-5.53,20-25.25-10-42.92-29.08-52.26-52.27,4.12-7.63,9.09-9,20-5.51Z" transform="translate(-115.29 -56.24)"/><path class="cls-2" d="M460.91,376.8,423.16,339l19-20.18L481,357.78Z" transform="translate(-115.29 -56.24)"/><path class="cls-8" d="M583,412.39c1.64,8.1,3.76,16.14,4.83,24.32,2.07,15.85,2.89,22.9,26,22.61,5.13-.06,10.23-2.27,15.34-3.49-9.4,12.11-27.4,16-41.9,9.11s-23-23.37-19.62-37.65Z" transform="translate(-115.29 -56.24)"/><path class="cls-8" d="M343.92,170.66c-.89,3.31-1.79,6.61-2.66,9.92-2.92,11.15-2.42,21.72,7,29.75,6.38,5.43,14.65,5.93,22.64,6.56,5.3.42,10.62.65,15.93,1l-13.53,14c-12.18,3.89-28.51-3-36.08-15.17C327.59,201.13,330.36,182.06,343.92,170.66Z" transform="translate(-115.29 -56.24)"/><path class="cls-2" d="M428.33,408,392,371.68,402.4,361l36.07,35.83q.25.37.53.72Z" transform="translate(-115.29 -56.24)"/><path class="cls-9" d="M373.3,231.82l13.53-14,.7-.5c15.92,1.81,22,12.84,25.09,26.71q-.2.4-.42.79l-12.61,11.32c-2-9.56-6.41-17.49-15.81-21.5C380.48,233.25,376.81,232.74,373.3,231.82Z" transform="translate(-115.29 -56.24)"/><path class="cls-9" d="M583,412.39l-15.34,14.9c-.24-15.06-9.23-22.85-22.51-27.06,1.47-1.88,3-3.76,4.42-5.66,1.82-2.39,3.62-4.8,5.42-7.19a3.92,3.92,0,0,1,.82-.41c11.46,2.13,19.49,8.67,24.58,19,.95,1.93,2,3.8,3,5.7Q583.23,412.05,583,412.39Z" transform="translate(-115.29 -56.24)"/><path class="cls-10" d="M481,357.78l-38.9-38.92,6.77-7.49.86-.76,39.61,39.53-.76.82Z" transform="translate(-115.29 -56.24)"/><path class="cls-11" d="M488.6,351l.76-.82a45.43,45.43,0,0,1,4.65,3.59c11.54,11.46,23.12,22.88,34.46,34.53,3.09,3.17,5.23,3.26,8-.08,2.23-2.66,4.84-5,7.28-7.49l.08.08L555,387.38c-1.81,2.4-3.6,4.81-5.42,7.19-1.45,1.9-2.94,3.77-4.42,5.66-.91.41-1.85.76-2.72,1.24-4.86,2.63-9.48.57-11.3-4.55a22.73,22.73,0,0,0-4.65-8.24C514,376,501.25,363.5,488.6,351Z" transform="translate(-115.29 -56.24)"/><path class="cls-11" d="M449.75,310.6l-.86.76c-13.4-13.53-26.78-27.1-40.27-40.54-1-1-2.85-1.5-4.38-1.85-7-1.59-9-7-4.66-12.8l12.61-11.32,6.34,12,.07,0c-2.14,2.09-4.14,4.35-6.45,6.22-3.68,3-3.69,5.32-.16,8.73,11.58,11.19,22.87,22.68,34.21,34.12A42.37,42.37,0,0,1,449.75,310.6Z" transform="translate(-115.29 -56.24)"/><path class="cls-12" d="M403.13,344.55q16.22,36,52.26,52.27c-5,3-9.67,1.84-14.12-1.35l-36.15-36.09-.6-.67C401.27,354.26,400,349.62,403.13,344.55Z" transform="translate(-115.29 -56.24)"/><path class="cls-13" d="M370.87,377.12c11.16,23.14,29.57,39.41,51.3,51.77-5,2.91-9.3,1.64-13.25-2.06l-36.07-36.19C368.9,386.62,368.56,382.07,370.87,377.12Z" transform="translate(-115.29 -56.24)"/><path class="cls-14" d="M405.12,359.37l36.15,36.09-1.51,1.37-1.29-.06L402.4,361l1.49-1.53Z" transform="translate(-115.29 -56.24)"/><path class="cls-14" d="M372.85,390.65l36.07,36.19-2.24,1.86L371.2,393.27Z" transform="translate(-115.29 -56.24)"/><path class="cls-7" d="M405.12,359.37l-1.22,0a3.56,3.56,0,0,1,.62-.71Z" transform="translate(-115.29 -56.24)"/><path class="cls-7" d="M438.47,396.78l1.29.06-.76.66Q438.72,397.15,438.47,396.78Z" transform="translate(-115.29 -56.24)"/><path class="cls-15" d="M588.66,210.43Q562,183.76,535.34,157.07c-2-2.05-4.87-4.05-1.79-7.5,3.77-4.22,9.09-5.94,12.1-3.22,11.49,10.37,23.15,20.59,34.09,31.53,22,22,43.66,44.42,65.39,66.72,3.25,3.33,6.15,7,9.27,10.47,3.7,4.09.95,6.87-1.79,9.8s-5.38,4-8.78.61q-27.45-27.66-55.07-55.14Z" transform="translate(-115.29 -56.24)"/><path class="cls-16" d="M449.75,310.6a42.37,42.37,0,0,0-3.54-4.68C434.88,294.49,423.59,283,412,271.81c-3.54-3.41-3.52-5.76.16-8.73,2.31-1.87,4.31-4.13,6.45-6.22q42.94,42.77,85.89,85.53c13,12.87,26.17,25.53,39.27,38.29-2.44,2.49-5.05,4.83-7.28,7.49-2.79,3.34-4.93,3.25-8,.08-11.34-11.66-22.92-23.08-34.46-34.53a45.43,45.43,0,0,0-4.65-3.59Z" transform="translate(-115.29 -56.24)"/><path class="cls-17" d="M432.43,91.48c8-8,15.38-17.29,24.57-24.16,17.81-13.31,33.27-3.13,41.67,8.21,4.59,6.2,3.73,13.23.71,20-4.53,10.15-12.4,17.5-20.61,24.67,2.13-6.38,4.69-12.48,6.16-18.83,1.87-8.09-.24-15.29-7.42-20.23a19.09,19.09,0,0,0-17.27-2.37c-8,2.71-15.56,6.53-23.27,10A38.6,38.6,0,0,0,432.43,91.48Z" transform="translate(-115.29 -56.24)"/><path class="cls-18" d="M675.84,327.39c7.28-7.28,14.12-15.06,21.94-21.7,9.33-7.92,18.33-8.43,26.59-3,11.28,7.38,17.11,19,13.74,30.12a64.14,64.14,0,0,1-9,17.55c-3.18,4.56-7.82,8.1-12.52,12.8,1.56-4,3.3-7,3.91-10.21,1.19-6.31,2.82-12.82,2.32-19.09-.91-11.26-9.9-18.14-21-16-7,1.36-13.69,4.81-20.46,7.46a37.64,37.64,0,0,0-5.05,2.91Z" transform="translate(-115.29 -56.24)"/></svg>