<svg id="Layer_1" data-name="Layer 1" xmlns="http://www.w3.org/2000/svg" viewBox="0 0 403.91 704.51"><defs><style>.cls-1{fill:#fecb33;}.cls-2{fill:#986500;}.cls-3{fill:#986501;}.cls-4{fill:#734d00;}.cls-5{fill:#5c3e00;}.cls-6{fill:#986600;}.cls-7{fill:#724d00;}.cls-8{fill:#5b3d00;}.cls-9{fill:#452e00;}.cls-10{fill:#5e3f01;}.cls-11{fill:#5a4006;}.cls-12{fill:#462f00;}.cls-13{fill:#432d00;}.cls-14{fill:#5c3d00;}.cls-15{fill:#fef3d1;}.cls-16{fill:#997a20;}.cls-17{fill:#e9ddc7;}.cls-18{fill:#e8ddc7;}</style></defs><title>GavelCollectable</title><path class="cls-1" d="M311.95,61.39H488c.1,17.82.27,35.64.27,53.46q0,61.22-.13,122.44H488c-18.28.24-36.56.61-54.84.69-40.4.17-80.81.18-121.21.26l-.09,0c0-1.16-.14-2.33-.14-3.49q0-84.44,0-168.89C311.72,64.38,311.87,62.89,311.95,61.39Zm87.41,23.78V85c26,0,52-.05,77.93,0,4.84,0,5.92-2.55,5.78-6.64s-.16-7.91-5.66-8.19c-4.66-.24-9.3-.78-14-.84-31.14-.4-62.28-1-93.42-.94-15.47,0-30.94,1-46.4,1.81-4.06.21-6.6,5.19-6.28,10.83.26,4.61,3.68,4,6.57,4Q361.64,85.22,399.36,85.18Z" transform="translate(-198.04 -47.74)"/><path class="cls-2" d="M425,368.18c.22,18.79.25,37.58.71,56.37.85,34.75,2,69.49,2.95,104.23.19,6.82.21,13.63.31,20.45a39.73,39.73,0,0,0-.93,6.29c.22,24.46,1,48.92.68,73.37-.25,19.25-1.3,38.54-3,57.72-1,11.19-3.28,22.44-9.73,32.2-7.44,11.26-21.27,11.6-28.94.44a54.86,54.86,0,0,1-6.48-12.87c-6.76-19.4-8-39.74-8.45-60-.65-30.63-.19-61.28-.28-91.91a40.2,40.2,0,0,0-1-6.26c1.28-45.2,2.64-90.4,3.78-135.61.37-14.79.18-29.59.25-44.39Z" transform="translate(-198.04 -47.74)"/><path class="cls-3" d="M198.18,230.11c0-49.41-.23-98.82,0-148.23.06-15.8,11.54-29.27,27-33.12,14.73-3.66,30.57,2.76,38,15.4-.41,1.39-1.17,2.77-1.17,4.16q0,82,.06,164l-.14.85c-4,3.53-7.9,7.12-11.94,10.58-6.1,5.21-12.3,10.7-20.65,11.37-12.34,1-20.16-6.13-26-16.08C201.59,236,199.89,233.08,198.18,230.11Zm6.59-118.58a38.6,38.6,0,0,1,1.28-5.16c3-7.89,5.68-16,9.4-23.5a19.09,19.09,0,0,1,13.88-10.54c8.57-1.59,15.16,2,19.55,9.06,3.45,5.53,6,11.66,9,17.67.73-10.88,1.1-21.64-2.88-32-2.65-6.92-7-12.5-14.64-13.63-14-2.08-32.09,1.66-35.27,23.66C203.42,88.43,204.77,100.23,204.77,111.53Z" transform="translate(-198.04 -47.74)"/><path class="cls-3" d="M536.88,64.21c6.62-11.64,20.62-18.06,35-16a35.18,35.18,0,0,1,29,26.8,48.31,48.31,0,0,1,1,10.38q.1,68.12,0,136.24c0,2.82-.26,5.65-.4,8.47-2.75,4.48-4.8,9.64-8.38,13.31-16.16,16.55-21.71,12.15-34.39,2.41-6.54-5-13.72-9.22-20.61-13.78q-.08-.4-.18-.79,0-80.39,0-160.78A36.24,36.24,0,0,0,536.88,64.21Zm6.83,42,.9.25a37.64,37.64,0,0,1,1.51-5.63c2.91-6.66,5.17-13.8,9.19-19.74,6.32-9.33,17.54-10.83,26.14-3.5,4.79,4.08,8.24,9.84,11.86,15.14,1.86,2.72,2.76,6.08,4.46,10,0-6.65.77-12.43-.2-17.9a64.14,64.14,0,0,0-6-18.81c-5.47-10.23-17.82-14.34-31-11.58-9.66,2-15.67,8.75-16.67,20.94C543,85.59,543.71,95.94,543.71,106.23Z" transform="translate(-198.04 -47.74)"/><path class="cls-4" d="M536.88,64.21a36.24,36.24,0,0,1,1.07,6.2q.09,80.39,0,160.78c-2.06-.62-4.15-1.18-6.18-1.88-10.93-3.73-21.23-2.67-30.84,3.93q0-81,0-162c0-2.49.22-5,.33-7.48C512.67,72.61,524.3,72.75,536.88,64.21Z" transform="translate(-198.04 -47.74)"/><path class="cls-4" d="M262,232.29q-.06-82-.06-164c0-1.39.76-2.77,1.17-4.16,12.07,8.55,24.35,8.44,35.49-.32.1,1.82.28,3.65.28,5.47q0,79.32,0,158.64c0,1.82-.17,3.65-.25,5.47C286.68,225.79,274.56,222.31,262,232.29Z" transform="translate(-198.04 -47.74)"/><path class="cls-5" d="M370.85,548.22a40.2,40.2,0,0,1,1,6.26c.09,30.64-.37,61.29.28,91.91.43,20.24,1.69,40.58,8.45,60A54.86,54.86,0,0,0,387,719.25c7.67,11.16,21.5,10.82,28.94-.44,6.45-9.76,8.72-21,9.73-32.2,1.73-19.18,2.78-38.46,3-57.72.32-24.45-.46-48.91-.68-73.37a39.73,39.73,0,0,1,.93-6.29,25,25,0,0,1,.74,3.86Q430.91,585,432,617c.62,17.63,2.15,35.29,1.61,52.88a143,143,0,0,1-21.55,71.94c-8.61,13.88-15,13.92-23.7.25-12.3-19.3-19.83-40.59-21.15-63.29-1.16-20,.18-40.2.57-60.3.18-9.48.76-19,1.08-28.44.43-12.64.77-25.29,1.2-37.94A23.37,23.37,0,0,1,370.85,548.22Z" transform="translate(-198.04 -47.74)"/><path class="cls-2" d="M298.66,233.44c.09-1.82.26-3.65.26-5.47q0-79.32,0-158.64c0-1.82-.18-3.65-.28-5.47,0-3,.72-5.53,4.19-6.15,3.8-.68,7.16-.18,9.13,3.69-.08,1.5-.23,3-.23,4.49q0,84.44,0,168.89c0,1.16.09,2.33.14,3.49l-12.94-4Q298.8,233.86,298.66,233.44Z" transform="translate(-198.04 -47.74)"/><path class="cls-6" d="M501.33,63.8c-.12,2.49-.33,5-.33,7.48q0,81,0,162a3.82,3.82,0,0,0-.29.87l-12.56,3.19q.07-61.22.13-122.44c0-17.82-.18-35.64-.27-53.46,2.12-3.86,5.51-4.44,9.43-3.64C500.73,58.44,501.31,60.94,501.33,63.8Z" transform="translate(-198.04 -47.74)"/><path class="cls-7" d="M363.23,357c-3.07-9.25.34-15,11.07-18.77h51.4c4.74,1.37,8.94,3.46,11,8.33,1.57,3.69,1.93,7.32-.61,10.78C411.78,365.1,387.48,365.52,363.23,357Z" transform="translate(-198.04 -47.74)"/><path class="cls-7" d="M426.67,293.15c10.25,5.21,12.85,9.79,10.24,18.06C412,322,386,321,363,311.2c-2.48-8.31.06-12.79,10.26-18.06Z" transform="translate(-198.04 -47.74)"/><path class="cls-2" d="M426.67,293.15h-53.4q-.43-13.84-.85-27.69h55Z" transform="translate(-198.04 -47.74)"/><path class="cls-8" d="M538.16,232c6.89,4.57,14.07,8.76,20.61,13.78,12.68,9.74,18.23,14.15,34.39-2.41,3.58-3.67,5.63-8.84,8.38-13.31,1.92,15.21-8,30.71-23.19,36.07s-32.81-.25-40.5-12.75Q538,242.68,538.16,232Z" transform="translate(-198.04 -47.74)"/><path class="cls-8" d="M198.18,230.11c1.71,3,3.41,5.94,5.13,8.89,5.82,10,13.65,17.07,26,16.08,8.35-.67,14.55-6.16,20.65-11.37,4-3.45,8-7,11.95-10.58q.15,9.72.31,19.44c-5.87,11.36-22.26,18.05-36.24,14.78C208.17,263.2,196.65,247.76,198.18,230.11Z" transform="translate(-198.04 -47.74)"/><path class="cls-2" d="M425.7,338.26H374.3l-.21-15,50.84-.17q.44.09.88.14Z" transform="translate(-198.04 -47.74)"/><path class="cls-9" d="M262.2,252.58q-.15-9.72-.31-19.44l.14-.85c12.54-10,24.65-6.5,36.63,1.15.1.28.18.57.26.86L298,251.21c-8.19-5.34-16.9-7.83-26.38-4C268.29,248.52,265.33,250.75,262.2,252.58Z" transform="translate(-198.04 -47.74)"/><path class="cls-9" d="M538.16,232q-.16,10.69-.31,21.39c-10.82-10.49-22.68-9.63-35.05-3.22-.29-2.37-.56-4.75-.88-7.12-.4-3-.83-5.95-1.25-8.92a3.92,3.92,0,0,1,.29-.87c9.61-6.59,19.91-7.65,30.84-3.93,2,.7,4.12,1.26,6.18,1.88Q538.08,231.58,538.16,232Z" transform="translate(-198.04 -47.74)"/><path class="cls-10" d="M427.45,265.47h-55l-.52-10.08.07-1.15,56-.05,0,1.12Z" transform="translate(-198.04 -47.74)"/><path class="cls-11" d="M428,255.29l0-1.12a45.43,45.43,0,0,1,5.83-.75c16.26-.06,32.53-.17,48.78.05,4.42.06,6-1.39,5.61-5.73-.31-3.46-.12-7-.15-10.45h.11l12.56-3.19c.42,3,.85,5.94,1.25,8.92.32,2.37.59,4.75.88,7.12-.35.93-.77,1.85-1,2.8-1.58,5.29-6.3,7.1-11.21,4.78a22.73,22.73,0,0,0-9.12-2.53C463.61,255,445.79,255.22,428,255.29Z" transform="translate(-198.04 -47.74)"/><path class="cls-11" d="M372,254.23l-.07,1.15c-19-.09-38.09-.23-57.14-.2-1.48,0-3.07,1-4.41,1.79-6.08,3.82-11.3,1.43-12.35-5.76l.91-16.92,12.94,4,.09,0c0,3,.15,6-.16,9-.5,4.7,1.15,6.37,6.06,6.29,16.1-.28,32.21-.13,48.31-.07A42.37,42.37,0,0,1,372,254.23Z" transform="translate(-198.04 -47.74)"/><path class="cls-12" d="M363,311.2q37,14,73.91,0c-1.42,5.7-5.54,8.14-10.94,9l-51.09,0-.9,0C368.56,319.38,364.36,317,363,311.2Z" transform="translate(-198.04 -47.74)"/><path class="cls-13" d="M363.23,357c24.25,8.47,48.77,7,72.88.33-1.46,5.57-5.41,7.73-10.82,7.91l-51.1-.08C368.55,365.15,365.09,362.17,363.23,357Z" transform="translate(-198.04 -47.74)"/><path class="cls-14" d="M374.89,320.28l51.09,0-.1,2-1,.87-50.84.17,0-2.14Z" transform="translate(-198.04 -47.74)"/><path class="cls-14" d="M374.19,365.21l51.1.08q-.13,1.45-.27,2.89l-50.14,0Z" transform="translate(-198.04 -47.74)"/><path class="cls-7" d="M374.89,320.28l-.83.9a3.56,3.56,0,0,1-.07-.94Z" transform="translate(-198.04 -47.74)"/><path class="cls-7" d="M424.93,323.14l1-.87-.07,1Q425.36,323.23,424.93,323.14Z" transform="translate(-198.04 -47.74)"/><path class="cls-15" d="M399.36,85.18q-37.72,0-75.44,0c-2.89,0-6.31.57-6.57-4-.32-5.64,2.23-10.63,6.28-10.83,15.46-.79,30.93-1.8,46.4-1.81,31.14,0,62.28.54,93.42.94,4.66.06,9.3.61,14,.84,5.5.28,5.53,4.19,5.66,8.19s-.94,6.66-5.78,6.64c-26-.1-52,0-77.93,0Z" transform="translate(-198.04 -47.74)"/><path class="cls-16" d="M372,254.23a42.37,42.37,0,0,0-5.81-.81c-16.11-.07-32.21-.21-48.31.07-4.91.09-6.56-1.58-6.06-6.29.31-3,.13-6,.16-9,40.4-.08,80.81-.09,121.21-.26,18.28-.08,36.56-.45,54.84-.69,0,3.48-.16,7,.15,10.45.39,4.33-1.19,5.79-5.61,5.73-16.26-.23-32.52-.12-48.78-.05a45.43,45.43,0,0,0-5.83.75Z" transform="translate(-198.04 -47.74)"/><path class="cls-17" d="M204.77,111.53c0-11.3-1.35-23.1.29-34.46,3.18-22,21.31-25.74,35.27-23.66C248,54.55,252.33,60.12,255,67c4,10.38,3.61,21.14,2.88,32-3-6-5.51-12.14-9-17.67-4.39-7-11-10.64-19.55-9.06a19.09,19.09,0,0,0-13.88,10.54c-3.72,7.55-6.39,15.62-9.4,23.5A38.6,38.6,0,0,0,204.77,111.53Z" transform="translate(-198.04 -47.74)"/><path class="cls-18" d="M543.71,106.23c0-10.29-.66-20.63.17-30.86,1-12.2,7-18.92,16.67-20.94,13.2-2.76,25.55,1.35,31,11.58a64.14,64.14,0,0,1,6,18.81c1,5.47.2,11.25.2,17.9-1.69-3.9-2.6-7.27-4.46-10-3.62-5.3-7.07-11.06-11.86-15.14-8.61-7.32-19.83-5.83-26.14,3.5-4,5.94-6.28,13.08-9.19,19.74a37.64,37.64,0,0,0-1.51,5.63Z" transform="translate(-198.04 -47.74)"/></svg>