<svg xmlns="http://www.w3.org/2000/svg" width="1000" height="800" viewBox="0 0 1000 800" preserveAspectRatio="xMidYMid meet" style="width: 100%; height: 100%;"><defs><clipPath id="animationMask_EbbFJtzrtl"><rect width="1000" height="800" x="0" y="0"></rect></clipPath><clipPath id="cp_DcFliBXO"><path d="M0,0 L410,0 L410,710 L0,710z"></path></clipPath><clipPath id="cp_IzHh58qL"><path d="M0,0 L410,0 L410,710 L0,710z"></path></clipPath><mask id="XKenD5qYRw"><path fill="#ffffff" clip-rule="nonzero" d=" M431.909,-381.5 C431.909,-381.5 431.909,-381.5 431.909,-381.5 C416.05899999999997,-381.5 402.081,-373.11400000000003 394.166,-360.567 C388.945,-355.85 381.151,-352.853 372.442,-352.853 C363.278,-352.853 355.13199999999995,-356.168 349.929,-361.317 C349.929,-361.317 349.929,-364.183 349.929,-364.183 C349.929,-364.183 349.929,-369.246 341.859,-369.246 C334.44599999999997,-369.246 333.844,-364.985 333.795,-364.289 C333.795,-364.289 111.205,-364.289 111.205,-364.289 C111.15599999999999,-364.985 110.554,-369.246 103.141,-369.246 C95.071,-369.246 95.071,-364.183 95.071,-364.183 C95.071,-364.183 95.071,-361.317 95.071,-361.317 C89.868,-356.168 81.72200000000001,-352.853 72.558,-352.853 C63.849000000000004,-352.853 56.05500000000001,-355.85 50.834,-360.567 C42.919000000000004,-373.11400000000003 28.941,-381.5 13.091,-381.5 C13.091,-381.5 13.091,-381.5 13.091,-381.5 C-11.439000000000002,-381.5 -31.509,-361.42999999999995 -31.509,-336.9 C-31.509,-336.9 -31.509,-149.1 -31.509,-149.1 C-31.509,-124.57 -11.439000000000002,-104.5 13.091,-104.5 C13.091,-104.5 13.091,-104.5 13.091,-104.5 C28.941,-104.5 42.919000000000004,-112.88600000000001 50.834,-125.433 C56.05500000000001,-130.151 63.848000000000006,-133.147 72.558,-133.147 C81.72200000000001,-133.147 89.868,-129.832 95.071,-124.683 C95.071,-124.683 95.071,-121.817 95.071,-121.817 C95.071,-121.817 95.071,-116.754 103.141,-116.754 C110.554,-116.754 111.15599999999999,-121.015 111.205,-121.711 C111.205,-121.711 187.276,-121.711 187.276,-121.711 C187.739,-110.667 188.398,-93.48599999999999 189.022,-71.96 C181.023,-70.75099999999999 174.833,-63.823 174.833,-55.5 C174.833,-55.5 174.833,-55.5 174.833,-55.5 C174.833,-46.888 181.454,-39.75 189.856,-38.917 C190.018,-31.387 190.166,-23.543 190.296,-15.439 C181.688,-14.814 174.833,-7.593 174.833,1.167 C174.833,1.167 174.833,1.167 174.833,1.167 C174.833,10.063 181.901,17.366000000000003 190.696,17.792 C190.776,27.755000000000003 190.821,37.974000000000004 190.821,48.386 C190.821,149.155 179.92,386.057 179.92,386.057 C179.49599999999998,418.86400000000003 186.64000000000001,451.30100000000004 201.084,479.516 C208.189,493.396 216.018,504.5 222.881,504.5 C230.13400000000001,504.5 238.346,492.101 245.617,477.129 C258.935,449.707 265.502,418.56899999999996 265.095,387.102 C265.095,387.102 254.183,154.369 254.183,48.395 C254.183,37.901 254.224,27.688 254.297,17.793 C263.09499999999997,17.37 270.167,10.065 270.167,1.167 C270.167,1.167 270.167,1.167 270.167,1.167 C270.167,-7.603 263.297,-14.83 254.675,-15.44 C254.8,-23.583 254.944,-31.418999999999997 255.1,-38.915 C263.52299999999997,-39.727 270.167,-46.873 270.167,-55.5 C270.167,-55.5 270.167,-55.5 270.167,-55.5 C270.167,-63.843 263.948,-70.785 255.92,-71.969 C256.548,-93.713 257.22,-110.773 257.696,-121.711 C257.696,-121.711 333.795,-121.711 333.795,-121.711 C333.844,-121.015 334.44599999999997,-116.754 341.859,-116.754 C349.929,-116.754 349.929,-121.817 349.929,-121.817 C349.929,-121.817 349.929,-124.683 349.929,-124.683 C355.13199999999995,-129.832 363.278,-133.147 372.442,-133.147 C381.151,-133.147 388.945,-130.151 394.166,-125.433 C402.081,-112.88600000000001 416.05899999999997,-104.5 431.909,-104.5 C431.909,-104.5 431.909,-104.5 431.909,-104.5 C456.43899999999996,-104.5 476.509,-124.57 476.509,-149.1 C476.509,-149.1 476.509,-336.9 476.509,-336.9 C476.509,-361.42999999999995 456.43899999999996,-381.5 431.909,-381.5" fill-opacity="1"></path></mask><mask id="QQoTYSJM2S"><path fill="#ffffff" clip-rule="nonzero" d=" M431.909,-381.5 C431.909,-381.5 431.909,-381.5 431.909,-381.5 C416.05899999999997,-381.5 402.081,-373.11400000000003 394.166,-360.567 C388.945,-355.85 381.151,-352.853 372.442,-352.853 C363.278,-352.853 355.13199999999995,-356.168 349.929,-361.317 C349.929,-361.317 349.929,-364.183 349.929,-364.183 C349.929,-364.183 349.929,-369.246 341.859,-369.246 C334.44599999999997,-369.246 333.844,-364.985 333.795,-364.289 C333.795,-364.289 111.205,-364.289 111.205,-364.289 C111.15599999999999,-364.985 110.554,-369.246 103.141,-369.246 C95.071,-369.246 95.071,-364.183 95.071,-364.183 C95.071,-364.183 95.071,-361.317 95.071,-361.317 C89.868,-356.168 81.72200000000001,-352.853 72.558,-352.853 C63.849000000000004,-352.853 56.05500000000001,-355.85 50.834,-360.567 C42.919000000000004,-373.11400000000003 28.941,-381.5 13.091,-381.5 C13.091,-381.5 13.091,-381.5 13.091,-381.5 C-11.439000000000002,-381.5 -31.509,-361.42999999999995 -31.509,-336.9 C-31.509,-336.9 -31.509,-149.1 -31.509,-149.1 C-31.509,-124.57 -11.439000000000002,-104.5 13.091,-104.5 C13.091,-104.5 13.091,-104.5 13.091,-104.5 C28.941,-104.5 42.919000000000004,-112.88600000000001 50.834,-125.433 C56.05500000000001,-130.151 63.848000000000006,-133.147 72.558,-133.147 C81.72200000000001,-133.147 89.868,-129.832 95.071,-124.683 C95.071,-124.683 95.071,-121.817 95.071,-121.817 C95.071,-121.817 95.071,-116.754 103.141,-116.754 C110.554,-116.754 111.15599999999999,-121.015 111.205,-121.711 C111.205,-121.711 187.276,-121.711 187.276,-121.711 C187.739,-110.667 188.398,-93.48599999999999 189.022,-71.96 C181.023,-70.75099999999999 174.833,-63.823 174.833,-55.5 C174.833,-55.5 174.833,-55.5 174.833,-55.5 C174.833,-46.888 181.454,-39.75 189.856,-38.917 C190.018,-31.387 190.166,-23.543 190.296,-15.439 C181.688,-14.814 174.833,-7.593 174.833,1.167 C174.833,1.167 174.833,1.167 174.833,1.167 C174.833,10.063 181.901,17.366000000000003 190.696,17.792 C190.776,27.755000000000003 190.821,37.974000000000004 190.821,48.386 C190.821,149.155 179.92,386.057 179.92,386.057 C179.49599999999998,418.86400000000003 186.64000000000001,451.30100000000004 201.084,479.516 C208.189,493.396 216.018,504.5 222.881,504.5 C230.13400000000001,504.5 238.346,492.101 245.617,477.129 C258.935,449.707 265.502,418.56899999999996 265.095,387.102 C265.095,387.102 254.183,154.369 254.183,48.395 C254.183,37.901 254.224,27.688 254.297,17.793 C263.09499999999997,17.37 270.167,10.065 270.167,1.167 C270.167,1.167 270.167,1.167 270.167,1.167 C270.167,-7.603 263.297,-14.83 254.675,-15.44 C254.8,-23.583 254.944,-31.418999999999997 255.1,-38.915 C263.52299999999997,-39.727 270.167,-46.873 270.167,-55.5 C270.167,-55.5 270.167,-55.5 270.167,-55.5 C270.167,-63.843 263.948,-70.785 255.92,-71.969 C256.548,-93.713 257.22,-110.773 257.696,-121.711 C257.696,-121.711 333.795,-121.711 333.795,-121.711 C333.844,-121.015 334.44599999999997,-116.754 341.859,-116.754 C349.929,-116.754 349.929,-121.817 349.929,-121.817 C349.929,-121.817 349.929,-124.683 349.929,-124.683 C355.13199999999995,-129.832 363.278,-133.147 372.442,-133.147 C381.151,-133.147 388.945,-130.151 394.166,-125.433 C402.081,-112.88600000000001 416.05899999999997,-104.5 431.909,-104.5 C431.909,-104.5 431.909,-104.5 431.909,-104.5 C456.43899999999996,-104.5 476.509,-124.57 476.509,-149.1 C476.509,-149.1 476.509,-336.9 476.509,-336.9 C476.509,-361.42999999999995 456.43899999999996,-381.5 431.909,-381.5" fill-opacity="1"></path></mask></defs><g clip-path="url(#animationMask_EbbFJtzrtl)"><g clip-path="url(#cp_DcFliBXO)" transform="matrix(1,0,0,1,519.062,46.61400000000003)" opacity="1"><g transform="matrix(0.7948900000000001,0,0,0.7948900000000001,3.0901046499999723,2.862663249999855)" opacity="1" style="-webkit-user-select: none;"><g opacity="1" transform="matrix(1,0,0,1,254.008,566)"><path fill="rgb(153,102,0)" fill-opacity="1" d="M0 0 M42.596,202.603 C43.00299999999999,234.07 36.437,265.207 23.118,292.629 C15.846999999999998,307.601 7.635,320 0.383,320 C-6.481,320 -14.309999999999999,308.897 -21.415,295.017 C-35.859,266.801 -43.003,234.365 -42.579,201.558 C-42.579,201.558 -31.677,-35.34400000000001 -31.677,-136.114 C-31.677,-236.883 -35.841,-320 -35.841,-320 C-35.841,-320 35.845,-320 35.845,-320 C35.845,-320 31.684,-242.07800000000003 31.684,-136.104 C31.684,-30.13000000000001 42.596,202.603 42.596,202.603z"></path></g><g opacity="1" transform="matrix(1,0,0,1,254.009,326)"><path fill="rgb(115,77,0)" fill-opacity="1" d="M0 0 M31,16.666 C31,16.666 -31,16.666 -31,16.666 C-40.167,16.666 -47.667,9.166 -47.667,-0.001 C-47.667,-9.167 -40.167,-16.666 -31,-16.666 C-31,-16.666 31,-16.666 31,-16.666 C40.167,-16.666 47.667,-9.167 47.667,-0.001 C47.667,9.166 40.167,16.666 31,16.666z"></path></g><g opacity="1" transform="matrix(1,0,0,1,254.009,382.667)"><path fill="rgb(115,77,0)" fill-opacity="1" d="M0 0 M31,16.666 C31,16.666 -31,16.666 -31,16.666 C-40.167,16.666 -47.667,9.166 -47.667,-0.001 C-47.667,-9.167 -40.167,-16.666 -31,-16.666 C-31,-16.666 31,-16.666 31,-16.666 C40.167,-16.666 47.667,-9.167 47.667,-0.001 C47.667,9.166 40.167,16.666 31,16.666z"></path></g></g></g><g clip-path="url(#cp_IzHh58qL)" transform="matrix(1,0,0,1,519.062,46.61400000000003)" opacity="1"><g transform="matrix(0.7948900000000001,0,0,0.7948900000000001,3.0901046499999723,2.862663249999855)" opacity="1" style="-webkit-user-select: none;"><g opacity="1" transform="matrix(1,0,0,1,254.434,138.5)"><path fill="rgb(255,204,51)" fill-opacity="1" d="M0 0 M-114.262,-121.289 C-114.262,-121.289 114.262,-121.289 114.262,-121.289 C114.262,-121.289 114.262,121.289 114.262,121.289 C114.262,121.289 -114.262,121.289 -114.262,121.289 C-114.262,121.289 -114.262,-121.289 -114.262,-121.289z"></path></g><g opacity="1" transform="matrix(1,0,0,1,463.418,138.5)"><path fill="rgb(153,102,0)" fill-opacity="1" d="M0 0 M-44.6,93.9 C-44.6,93.9 -44.6,-93.9 -44.6,-93.9 C-44.6,-118.43 -24.531,-138.5 0,-138.5 C24.53,-138.5 44.6,-118.43 44.6,-93.9 C44.6,-93.9 44.6,93.9 44.6,93.9 C44.6,118.43 24.53,138.5 0,138.5 C-24.531,138.5 -44.6,118.43 -44.6,93.9z"></path></g><g opacity="1" transform="matrix(1,0,0,1,404.376,138.5)"><path fill="rgb(115,77,0)" fill-opacity="1" d="M0 0 M-0.424,109.853 C-10.100999999999999,109.853 -18.647000000000002,113.545 -23.786,119.194 C-23.786,119.194 -23.786,-119.194 -23.786,-119.194 C-18.647000000000002,-113.545 -10.100999999999999,-109.853 -0.424,-109.853 C9.481,-109.853 18.205,-113.72699999999999 23.302,-119.603 C23.302,-119.603 23.786,-119.603 23.786,-119.603 C23.786,-119.603 23.786,119.603 23.786,119.603 C23.786,119.603 23.302,119.603 23.302,119.603 C18.205,113.72699999999999 9.481,109.853 -0.424,109.853z"></path></g><g opacity="1" transform="matrix(1,0,0,1,373.368,138.5)"><path fill="rgb(153,102,0)" fill-opacity="1" d="M0 0 M0.001,126.246 C-8.07,126.246 -8.07,121.184 -8.07,121.184 C-8.07,121.184 -8.07,-121.184 -8.07,-121.184 C-8.07,-121.184 -8.07,-126.246 0.001,-126.246 C8.071,-126.246 8.07,-121.184 8.07,-121.184 C8.07,-121.184 8.07,121.184 8.07,121.184 C8.07,121.184 8.071,126.246 0.001,126.246z"></path></g><g opacity="1" transform="matrix(1,0,0,1,44.6,138.5)"><path fill="rgb(153,102,0)" fill-opacity="1" d="M0 0 M44.6,93.9 C44.6,93.9 44.6,-93.9 44.6,-93.9 C44.6,-118.43 24.529999999999998,-138.5 -0.001,-138.5 C-24.531000000000002,-138.5 -44.601,-118.43 -44.601,-93.9 C-44.601,-93.9 -44.601,93.9 -44.601,93.9 C-44.601,118.43 -24.531000000000002,138.5 -0.001,138.5 C24.529999999999998,138.5 44.6,118.43 44.6,93.9z"></path></g><g opacity="1" transform="matrix(1,0,0,1,103.642,138.5)"><path fill="rgb(115,77,0)" fill-opacity="1" d="M0 0 M0.425,109.853 C10.101,109.853 18.647,113.545 23.787,119.194 C23.787,119.194 23.787,-119.194 23.787,-119.194 C18.647,-113.545 10.101,-109.853 0.425,-109.853 C-9.481,-109.853 -18.205000000000002,-113.72699999999999 -23.303,-119.603 C-23.303,-119.603 -23.787,-119.603 -23.787,-119.603 C-23.787,-119.603 -23.787,119.603 -23.787,119.603 C-23.787,119.603 -23.303,119.603 -23.303,119.603 C-18.205000000000002,113.72699999999999 -9.481,109.853 0.425,109.853z"></path></g><g opacity="1" transform="matrix(1,0,0,1,134.65,138.5)"><path fill="rgb(153,102,0)" fill-opacity="1" d="M0 0 M0.001,126.246 C8.071,126.246 8.07,121.184 8.07,121.184 C8.07,121.184 8.07,-121.184 8.07,-121.184 C8.07,-121.184 8.071,-126.246 0.001,-126.246 C-8.07,-126.246 -8.071,-121.184 -8.071,-121.184 C-8.071,-121.184 -8.071,121.184 -8.071,121.184 C-8.071,121.184 -8.07,126.246 0.001,126.246z"></path></g></g></g><g mask="url(#XKenD5qYRw)" transform="matrix(0.795,0,0,0.795,547.5771550000001,353.01382000000007)" opacity="0.4" style="-webkit-user-select: none;"><g opacity="1" transform="matrix(1,0,0,1,0,0)"><path fill="rgb(0,0,0)" fill-opacity="1" d="M0 0 M177.968,222.139 C172.607,223.83200000000002 168.118,227.654 164.429,233.209 C127.124,289.374 171.575,522.561 223.286,520.302 C282.043,517.735 286.41799999999995,223.872 266.018,225.912 C240.86099999999996,228.428 283.628,472.45300000000003 224.545,473.365 C184.56699999999998,473.982 185.495,374.044 186.219,300.007 C186.273,294.469 186.326,289.07599999999996 186.361,283.881 C186.391,279.424 186.407,275.112 186.399,270.98 C186.386,264.141 186.305,257.79200000000003 186.109,252.085 C185.982,248.389 185.806,244.962 185.568,241.845 C185.32600000000002,238.68 185.022,235.835 184.638,233.353 C183.394,225.305 181.32999999999998,221.077 177.968,222.139z"></path></g><g opacity="1" transform="matrix(1,0,0,1,0,0)"><path fill="rgb(0,0,0)" fill-opacity="1" d="M0 0 M279.529,-58.951 C260.015,-34.437 178.257,-38.584 169.15,-56.515 C175.738,-34.812 181.07,-35.099999999999994 221.808,-35.251 C257.34299999999996,-35.382999999999996 276.68,-33.481 279.529,-58.951z"></path></g><g opacity="1" transform="matrix(1,0,0,1,0,0)"><path fill="rgb(0,0,0)" fill-opacity="1" d="M0 0 M279.517,-2.033 C260.003,22.480999999999998 178.244,18.334 169.137,0.403 C175.725,22.105999999999998 181.057,21.819 221.795,21.668 C257.33,21.535999999999998 276.668,23.436999999999998 279.517,-2.033z"></path></g></g><g mask="url(#QQoTYSJM2S)" transform="matrix(0.795,0,0,0.795,547.5771550000001,353.01382000000007)" opacity="0.4" style="-webkit-user-select: none;"><g opacity="1" transform="matrix(1,0,0,1,-51.572,35.849)"><path fill="rgb(0,0,0)" fill-opacity="1" d="M0 0 M101.984,-186.376 C82.70599999999999,-170.336 64.994,-146.404 41.106,-160.933 C28.078000000000003,-168.857 21.994,-179.748 12.011,-218.838 C10.994,-222.819 9.216999999999999,-184.3 10.437,-140.351 C11.096,-116.6 182.37099999999992,-167.799 532.834,-129.827 C553.7049999999999,-127.566 555.842,-206.41199999999998 538.871,-208.766 C521.365,-211.195 536.869,-175.32899999999998 499.3,-158.724 C484.25800000000004,-152.076 470.446,-175.928 447.218,-186.294 C412.559,-201.76100000000002 397.50399999999996,-179.748 393.14,-179.654 C306.836,-177.79399999999998 195.59,-177.73 154.693,-178.398 C149.038,-178.49 125.767,-206.16400000000002 101.984,-186.376z"></path></g><g opacity="1" transform="matrix(1,0,0,1,0,0)"><path fill="rgb(0,0,0)" fill-opacity="0" d="M0 0 M-34.259,-125.215 C-63.169,-133.585 -21.086,-78.035 83.337,-106.262 C96.899,-109.928 99.626,-122.19299999999998 99.325,-131.081 C99.144,-136.41199999999998 97.87299999999999,-140.527 97.198,-140.843 C39.355999999999995,-167.92899999999997 55.031000000000006,-99.36500000000001 -34.259,-125.215z"></path></g><g opacity="1" transform="matrix(1,0,0,1,-181.145,17.885)"><path fill="rgb(0,0,0)" fill-opacity="0" d="M0 0 M275.827,-158.325 C280.524,-130.111 246.244,-125.104 406.623,-127.099 C546.549,-128.839 530.505,-124.005 530.547,-161.915 C530.547,-161.69199999999998 275.62,-159.569 275.827,-158.325z"></path></g><g opacity="1" transform="matrix(1,0,0,1,17.596,19.915)"><path fill="rgb(0,0,0)" fill-opacity="0" d="M0 0 M333.379,-163.944 C315.509,-139.72699999999998 359.432,-96 463.855,-124.227 C475.77500000000003,-127.449 485.568,-259.17 476.919,-235.479 C457.921,-183.443 423.32,-139.083 379.926,-171.458 C366.724,-181.307 350.37600000000003,-186.97899999999998 333.379,-163.944z"></path></g></g><g transform="matrix(1,0,0,1,511.562,394.11400000000003)" opacity="0.8" style="-webkit-user-select: none;"><g opacity="1" transform="matrix(0.9963494824030651,0.039947858705375046,-0.01740014388156801,0.4339813174468467,20.789,164.187)"><path fill="rgb(255,255,255)" fill-opacity="0" d="M0 0 M218.814,139.603 C209.373,92.26500000000001 213.915,256.10999999999996 221.242,281.804 C221.742,283.556 222.155,283.087 222.487,280.872 C224.846,265.108 223.066,160.92000000000002 218.814,139.603z"></path></g><g opacity="1" transform="matrix(1,0,0,1.00059,0,0)"><path fill="rgb(255,255,255)" fill-opacity="0" d="M0 0 M240.471,-93.249 C247.541,-84.085 234.743,-72.893 240.084,-76.033 C258.512,-86.868 234.924,-100.439 240.471,-93.249z"></path></g><g opacity="1" transform="matrix(1,0,0,1.00059,0,0)"><path fill="rgb(255,255,255)" fill-opacity="0" d="M0 0 M240.432,-48.091 C247.50199999999998,-38.927 234.70399999999998,-27.735 240.045,-30.875 C258.473,-41.71 234.885,-55.281 240.432,-48.091z"></path></g></g><g transform="matrix(1,0,0,1,511.562,394.11400000000003)" opacity="0.8" style="-webkit-user-select: none;"><g opacity="1" transform="matrix(1,0,0,1,0,0)"><path fill="rgb(255,255,255)" fill-opacity="1" d="M0 0 M47.5,-339.5 C9.502000000000002,-338.867 16.5,-299.5 16.5,-285.5 C16.5,-257.123 16.5,-320.5 45.5,-320.5 C64.242,-320.5 70,-291 70,-291 C70,-291 77.5,-340 47.5,-339.5z"></path></g><g opacity="1" transform="matrix(1,0,0,1,339,1.5)"><path fill="rgb(255,255,255)" fill-opacity="1" d="M0 0 M47.5,-339.5 C9.5,-344.75 17.25,-307 17.25,-293 C17.25,-264.623 17.5,-324.25 45.5,-320.5 C64.076,-318.012 71.25,-290 71.25,-290 C71.25,-290 77.22200000000001,-335.394 47.5,-339.5z"></path></g><g opacity="1" transform="matrix(1,0,0,1,0,3)"><path fill="rgb(255,255,255)" fill-opacity="1" d="M0 0 M293,-324.5 C289,-327 136.564,-328.487 132.75,-324.25 C130.5,-321.75 128.75,-312.25 131,-310.75 C133.664,-308.974 293.5,-309 294.5,-311 C295.5,-313 297,-322 293,-324.5z"></path></g></g></g></svg>