<svg xmlns="http://www.w3.org/2000/svg" width="1000" height="800" viewBox="0 0 1000 800" preserveAspectRatio="xMidYMid meet" style="width: 100%; height: 100%;"><defs><clipPath id="animationMask_O9dO3xrCJa"><rect width="1000" height="800" x="0" y="0"></rect></clipPath><clipPath id="cp_QJkius69"><path d="M0,0 L410,0 L410,710 L0,710z"></path></clipPath><clipPath id="cp_Mc27VyfH"><path d="M0,0 L410,0 L410,710 L0,710z"></path></clipPath><mask id="l7GND7jS2y"><path fill="#ffffff" clip-rule="nonzero" d=" M431.909,-381.5 C431.909,-381.5 431.909,-381.5 431.909,-381.5 C416.05899999999997,-381.5 402.081,-373.11400000000003 394.166,-360.567 C388.945,-355.85 381.151,-352.853 372.442,-352.853 C363.278,-352.853 355.13199999999995,-356.168 349.929,-361.317 C349.929,-361.317 349.929,-364.183 349.929,-364.183 C349.929,-364.183 349.929,-369.246 341.859,-369.246 C334.44599999999997,-369.246 333.844,-364.985 333.795,-364.289 C333.795,-364.289 111.205,-364.289 111.205,-364.289 C111.15599999999999,-364.985 110.554,-369.246 103.141,-369.246 C95.071,-369.246 95.071,-364.183 95.071,-364.183 C95.071,-364.183 95.071,-361.317 95.071,-361.317 C89.868,-356.168 81.72200000000001,-352.853 72.558,-352.853 C63.849000000000004,-352.853 56.05500000000001,-355.85 50.834,-360.567 C42.919000000000004,-373.11400000000003 28.941,-381.5 13.091,-381.5 C13.091,-381.5 13.091,-381.5 13.091,-381.5 C-11.439000000000002,-381.5 -31.509,-361.42999999999995 -31.509,-336.9 C-31.509,-336.9 -31.509,-149.1 -31.509,-149.1 C-31.509,-124.57 -11.439000000000002,-104.5 13.091,-104.5 C13.091,-104.5 13.091,-104.5 13.091,-104.5 C28.941,-104.5 42.919000000000004,-112.88600000000001 50.834,-125.433 C56.05500000000001,-130.151 63.848000000000006,-133.147 72.558,-133.147 C81.72200000000001,-133.147 89.868,-129.832 95.071,-124.683 C95.071,-124.683 95.071,-121.817 95.071,-121.817 C95.071,-121.817 95.071,-116.754 103.141,-116.754 C110.554,-116.754 111.15599999999999,-121.015 111.205,-121.711 C111.205,-121.711 187.276,-121.711 187.276,-121.711 C187.739,-110.667 188.398,-93.48599999999999 189.022,-71.96 C181.023,-70.75099999999999 174.833,-63.823 174.833,-55.5 C174.833,-55.5 174.833,-55.5 174.833,-55.5 C174.833,-46.888 181.454,-39.75 189.856,-38.917 C190.018,-31.387 190.166,-23.543 190.296,-15.439 C181.688,-14.814 174.833,-7.593 174.833,1.167 C174.833,1.167 174.833,1.167 174.833,1.167 C174.833,10.063 181.901,17.366000000000003 190.696,17.792 C190.776,27.755000000000003 190.821,37.974000000000004 190.821,48.386 C190.821,149.155 179.92,386.057 179.92,386.057 C179.49599999999998,418.86400000000003 186.64000000000001,451.30100000000004 201.084,479.516 C208.189,493.396 216.018,504.5 222.881,504.5 C230.13400000000001,504.5 238.346,492.101 245.617,477.129 C258.935,449.707 265.502,418.56899999999996 265.095,387.102 C265.095,387.102 254.183,154.369 254.183,48.395 C254.183,37.901 254.224,27.688 254.297,17.793 C263.09499999999997,17.37 270.167,10.065 270.167,1.167 C270.167,1.167 270.167,1.167 270.167,1.167 C270.167,-7.603 263.297,-14.83 254.675,-15.44 C254.8,-23.583 254.944,-31.418999999999997 255.1,-38.915 C263.52299999999997,-39.727 270.167,-46.873 270.167,-55.5 C270.167,-55.5 270.167,-55.5 270.167,-55.5 C270.167,-63.843 263.948,-70.785 255.92,-71.969 C256.548,-93.713 257.22,-110.773 257.696,-121.711 C257.696,-121.711 333.795,-121.711 333.795,-121.711 C333.844,-121.015 334.44599999999997,-116.754 341.859,-116.754 C349.929,-116.754 349.929,-121.817 349.929,-121.817 C349.929,-121.817 349.929,-124.683 349.929,-124.683 C355.13199999999995,-129.832 363.278,-133.147 372.442,-133.147 C381.151,-133.147 388.945,-130.151 394.166,-125.433 C402.081,-112.88600000000001 416.05899999999997,-104.5 431.909,-104.5 C431.909,-104.5 431.909,-104.5 431.909,-104.5 C456.43899999999996,-104.5 476.509,-124.57 476.509,-149.1 C476.509,-149.1 476.509,-336.9 476.509,-336.9 C476.509,-361.42999999999995 456.43899999999996,-381.5 431.909,-381.5" fill-opacity="1"></path></mask><mask id="k995rMipjt"><path fill="#ffffff" clip-rule="nonzero" d=" M431.909,-381.5 C431.909,-381.5 431.909,-381.5 431.909,-381.5 C416.05899999999997,-381.5 402.081,-373.11400000000003 394.166,-360.567 C388.945,-355.85 381.151,-352.853 372.442,-352.853 C363.278,-352.853 355.13199999999995,-356.168 349.929,-361.317 C349.929,-361.317 349.929,-364.183 349.929,-364.183 C349.929,-364.183 349.929,-369.246 341.859,-369.246 C334.44599999999997,-369.246 333.844,-364.985 333.795,-364.289 C333.795,-364.289 111.205,-364.289 111.205,-364.289 C111.15599999999999,-364.985 110.554,-369.246 103.141,-369.246 C95.071,-369.246 95.071,-364.183 95.071,-364.183 C95.071,-364.183 95.071,-361.317 95.071,-361.317 C89.868,-356.168 81.72200000000001,-352.853 72.558,-352.853 C63.849000000000004,-352.853 56.05500000000001,-355.85 50.834,-360.567 C42.919000000000004,-373.11400000000003 28.941,-381.5 13.091,-381.5 C13.091,-381.5 13.091,-381.5 13.091,-381.5 C-11.439000000000002,-381.5 -31.509,-361.42999999999995 -31.509,-336.9 C-31.509,-336.9 -31.509,-149.1 -31.509,-149.1 C-31.509,-124.57 -11.439000000000002,-104.5 13.091,-104.5 C13.091,-104.5 13.091,-104.5 13.091,-104.5 C28.941,-104.5 42.919000000000004,-112.88600000000001 50.834,-125.433 C56.05500000000001,-130.151 63.848000000000006,-133.147 72.558,-133.147 C81.72200000000001,-133.147 89.868,-129.832 95.071,-124.683 C95.071,-124.683 95.071,-121.817 95.071,-121.817 C95.071,-121.817 95.071,-116.754 103.141,-116.754 C110.554,-116.754 111.15599999999999,-121.015 111.205,-121.711 C111.205,-121.711 187.276,-121.711 187.276,-121.711 C187.739,-110.667 188.398,-93.48599999999999 189.022,-71.96 C181.023,-70.75099999999999 174.833,-63.823 174.833,-55.5 C174.833,-55.5 174.833,-55.5 174.833,-55.5 C174.833,-46.888 181.454,-39.75 189.856,-38.917 C190.018,-31.387 190.166,-23.543 190.296,-15.439 C181.688,-14.814 174.833,-7.593 174.833,1.167 C174.833,1.167 174.833,1.167 174.833,1.167 C174.833,10.063 181.901,17.366000000000003 190.696,17.792 C190.776,27.755000000000003 190.821,37.974000000000004 190.821,48.386 C190.821,149.155 179.92,386.057 179.92,386.057 C179.49599999999998,418.86400000000003 186.64000000000001,451.30100000000004 201.084,479.516 C208.189,493.396 216.018,504.5 222.881,504.5 C230.13400000000001,504.5 238.346,492.101 245.617,477.129 C258.935,449.707 265.502,418.56899999999996 265.095,387.102 C265.095,387.102 254.183,154.369 254.183,48.395 C254.183,37.901 254.224,27.688 254.297,17.793 C263.09499999999997,17.37 270.167,10.065 270.167,1.167 C270.167,1.167 270.167,1.167 270.167,1.167 C270.167,-7.603 263.297,-14.83 254.675,-15.44 C254.8,-23.583 254.944,-31.418999999999997 255.1,-38.915 C263.52299999999997,-39.727 270.167,-46.873 270.167,-55.5 C270.167,-55.5 270.167,-55.5 270.167,-55.5 C270.167,-63.843 263.948,-70.785 255.92,-71.969 C256.548,-93.713 257.22,-110.773 257.696,-121.711 C257.696,-121.711 333.795,-121.711 333.795,-121.711 C333.844,-121.015 334.44599999999997,-116.754 341.859,-116.754 C349.929,-116.754 349.929,-121.817 349.929,-121.817 C349.929,-121.817 349.929,-124.683 349.929,-124.683 C355.13199999999995,-129.832 363.278,-133.147 372.442,-133.147 C381.151,-133.147 388.945,-130.151 394.166,-125.433 C402.081,-112.88600000000001 416.05899999999997,-104.5 431.909,-104.5 C431.909,-104.5 431.909,-104.5 431.909,-104.5 C456.43899999999996,-104.5 476.509,-124.57 476.509,-149.1 C476.509,-149.1 476.509,-336.9 476.509,-336.9 C476.509,-361.42999999999995 456.43899999999996,-381.5 431.909,-381.5" fill-opacity="1"></path></mask></defs><g clip-path="url(#animationMask_O9dO3xrCJa)"><g clip-path="url(#cp_QJkius69)" transform="matrix(0.12884752018163093,-0.991664417302065,0.991664417302065,0.12884752018163093,111.57458773724522,764.7563211195795)" opacity="1"><g transform="matrix(0.7948900000000001,0,0,0.7948900000000001,3.0901046499999723,2.862663249999855)" opacity="1" style="-webkit-user-select: none;"><g opacity="1" transform="matrix(1,0,0,1,254.008,566)"><path fill="rgb(153,102,0)" fill-opacity="1" d="M0 0 M42.596,202.603 C43.00299999999999,234.07 36.437,265.207 23.118,292.629 C15.846999999999998,307.601 7.635,320 0.383,320 C-6.481,320 -14.309999999999999,308.897 -21.415,295.017 C-35.859,266.801 -43.003,234.365 -42.579,201.558 C-42.579,201.558 -31.677,-35.34400000000001 -31.677,-136.114 C-31.677,-236.883 -35.841,-320 -35.841,-320 C-35.841,-320 35.845,-320 35.845,-320 C35.845,-320 31.684,-242.07800000000003 31.684,-136.104 C31.684,-30.13000000000001 42.596,202.603 42.596,202.603z"></path></g><g opacity="1" transform="matrix(1,0,0,1,254.009,326)"><path fill="rgb(115,77,0)" fill-opacity="1" d="M0 0 M31,16.666 C31,16.666 -31,16.666 -31,16.666 C-40.167,16.666 -47.667,9.166 -47.667,-0.001 C-47.667,-9.167 -40.167,-16.666 -31,-16.666 C-31,-16.666 31,-16.666 31,-16.666 C40.167,-16.666 47.667,-9.167 47.667,-0.001 C47.667,9.166 40.167,16.666 31,16.666z"></path></g><g opacity="1" transform="matrix(1,0,0,1,254.009,382.667)"><path fill="rgb(115,77,0)" fill-opacity="1" d="M0 0 M31,16.666 C31,16.666 -31,16.666 -31,16.666 C-40.167,16.666 -47.667,9.166 -47.667,-0.001 C-47.667,-9.167 -40.167,-16.666 -31,-16.666 C-31,-16.666 31,-16.666 31,-16.666 C40.167,-16.666 47.667,-9.167 47.667,-0.001 C47.667,9.166 40.167,16.666 31,16.666z"></path></g></g></g><g clip-path="url(#cp_Mc27VyfH)" transform="matrix(0.1288475255221913,-0.9916644584052519,0.9916643767643564,0.12884751491454344,111.57459505165336,764.7563306538965)" opacity="1"><g transform="matrix(0.7948900000000001,0,0,0.7948900000000001,3.0901046499999723,2.862663249999855)" opacity="1" style="-webkit-user-select: none;"><g opacity="1" transform="matrix(1,0,0,1,254.434,138.5)"><path fill="rgb(255,204,51)" fill-opacity="1" d="M0 0 M-114.262,-121.289 C-114.262,-121.289 114.262,-121.289 114.262,-121.289 C114.262,-121.289 114.262,121.289 114.262,121.289 C114.262,121.289 -114.262,121.289 -114.262,121.289 C-114.262,121.289 -114.262,-121.289 -114.262,-121.289z"></path></g><g opacity="1" transform="matrix(1,0,0,1,463.418,138.5)"><path fill="rgb(153,102,0)" fill-opacity="1" d="M0 0 M-44.6,93.9 C-44.6,93.9 -44.6,-93.9 -44.6,-93.9 C-44.6,-118.43 -24.531,-138.5 0,-138.5 C24.53,-138.5 44.6,-118.43 44.6,-93.9 C44.6,-93.9 44.6,93.9 44.6,93.9 C44.6,118.43 24.53,138.5 0,138.5 C-24.531,138.5 -44.6,118.43 -44.6,93.9z"></path></g><g opacity="1" transform="matrix(1,0,0,1,404.376,138.5)"><path fill="rgb(115,77,0)" fill-opacity="1" d="M0 0 M-0.424,109.853 C-10.100999999999999,109.853 -18.647000000000002,113.545 -23.786,119.194 C-23.786,119.194 -23.786,-119.194 -23.786,-119.194 C-18.647000000000002,-113.545 -10.100999999999999,-109.853 -0.424,-109.853 C9.481,-109.853 18.205,-113.72699999999999 23.302,-119.603 C23.302,-119.603 23.786,-119.603 23.786,-119.603 C23.786,-119.603 23.786,119.603 23.786,119.603 C23.786,119.603 23.302,119.603 23.302,119.603 C18.205,113.72699999999999 9.481,109.853 -0.424,109.853z"></path></g><g opacity="1" transform="matrix(1,0,0,1,373.368,138.5)"><path fill="rgb(153,102,0)" fill-opacity="1" d="M0 0 M0.001,126.246 C-8.07,126.246 -8.07,121.184 -8.07,121.184 C-8.07,121.184 -8.07,-121.184 -8.07,-121.184 C-8.07,-121.184 -8.07,-126.246 0.001,-126.246 C8.071,-126.246 8.07,-121.184 8.07,-121.184 C8.07,-121.184 8.07,121.184 8.07,121.184 C8.07,121.184 8.071,126.246 0.001,126.246z"></path></g><g opacity="1" transform="matrix(1,0,0,1,44.6,138.5)"><path fill="rgb(153,102,0)" fill-opacity="1" d="M0 0 M44.6,93.9 C44.6,93.9 44.6,-93.9 44.6,-93.9 C44.6,-118.43 24.529999999999998,-138.5 -0.001,-138.5 C-24.531000000000002,-138.5 -44.601,-118.43 -44.601,-93.9 C-44.601,-93.9 -44.601,93.9 -44.601,93.9 C-44.601,118.43 -24.531000000000002,138.5 -0.001,138.5 C24.529999999999998,138.5 44.6,118.43 44.6,93.9z"></path></g><g opacity="1" transform="matrix(1,0,0,1,103.642,138.5)"><path fill="rgb(115,77,0)" fill-opacity="1" d="M0 0 M0.425,109.853 C10.101,109.853 18.647,113.545 23.787,119.194 C23.787,119.194 23.787,-119.194 23.787,-119.194 C18.647,-113.545 10.101,-109.853 0.425,-109.853 C-9.481,-109.853 -18.205000000000002,-113.72699999999999 -23.303,-119.603 C-23.303,-119.603 -23.787,-119.603 -23.787,-119.603 C-23.787,-119.603 -23.787,119.603 -23.787,119.603 C-23.787,119.603 -23.303,119.603 -23.303,119.603 C-18.205000000000002,113.72699999999999 -9.481,109.853 0.425,109.853z"></path></g><g opacity="1" transform="matrix(1,0,0,1,134.65,138.5)"><path fill="rgb(153,102,0)" fill-opacity="1" d="M0 0 M0.001,126.246 C8.071,126.246 8.07,121.184 8.07,121.184 C8.07,121.184 8.07,-121.184 8.07,-121.184 C8.07,-121.184 8.071,-126.246 0.001,-126.246 C-8.07,-126.246 -8.071,-121.184 -8.071,-121.184 C-8.071,-121.184 -8.071,121.184 -8.071,121.184 C-8.071,121.184 -8.07,126.246 0.001,126.246z"></path></g></g></g><g mask="url(#l7GND7jS2y)" transform="matrix(0.10243377854439659,-0.7883732117551417,0.7883732117551417,0.10243377854439659,419.09449370834767,775.9577135433245)" opacity="0.4" style="-webkit-user-select: none;"><g opacity="1" transform="matrix(1,0,0,1,0,0)"><path fill="rgb(0,0,0)" fill-opacity="1" d="M0 0 M195.607,-121.455 C185.756,-121.56099999999999 185.353,-121.029 177.651,-113.514 C176.64600000000002,-112.53399999999999 134.499,269.964 134.749,319.771 C135.388,447.372 215.053,526.27 206.814,504.191 C182.405,438.779 196.455,283.803 197.476,239.711 C198.552,193.26000000000002 205.656,17.202 205.656,17.202 C205.656,17.202 185.39700000000002,14.100000000000001 184.228,0.774 C183.357,-9.157 205.947,-15.278 205.947,-15.278 C205.947,-15.278 205.831,-40.1 205.831,-40.1 C205.831,-40.1 186.12,-45.078 185.352,-56.35 C184.471,-69.281 204.924,-72.493 204.924,-72.493 C204.924,-72.493 206.022,-121.343 195.607,-121.455z"></path></g><g opacity="1" transform="matrix(1,0,0,1,0,0)"><path fill="rgb(0,0,0)" fill-opacity="0" d="M0 0 M217.722,-39.629 C193.416,-44.189 183.35500000000002,-49.611 172.918,-65.958 C175.15200000000002,-57.57 154.48000000000002,-30.425 179.27,-33.012 C192.89600000000002,-34.434 201.297,-36.855 217.722,-39.629z"></path></g><g opacity="1" transform="matrix(1,0,0,1,0,0)"><path fill="rgb(0,0,0)" fill-opacity="0" d="M0 0 M213.453,17.278 C189.147,12.718 179.085,7.295000000000002 168.648,-9.052 C170.882,-0.6639999999999997 150.211,26.482 175.001,23.895 C188.627,22.473 197.028,20.052 213.453,17.278z"></path></g></g><g mask="url(#k995rMipjt)" transform="matrix(0.1024337827901421,-0.7883732444321753,0.7883731795276634,0.10243377435706205,419.0944887542961,775.957720291743)" opacity="0.4" style="-webkit-user-select: none;"><g opacity="1" transform="matrix(1,0,0,1,-51.572,35.849)"><path fill="rgb(0,0,0)" fill-opacity="0" d="M0 0 M122.087,-182.433 C95.876,-182.005 110.312,-156.488 54.829,-146.732 C39.811,-144.091 20.415,-150.426 10.432,-189.516 C9.415000000000001,-193.49699999999999 9.216999999999999,-184.3 10.437,-140.351 C11.096,-116.6 182.37099999999992,-167.799 532.834,-129.827 C553.7049999999999,-127.566 549.591,-296.24 532.62,-298.594 C515.114,-301.02299999999997 534.087,-201.982 495.035,-189.251 C459.92600000000004,-177.806 460.345,-195.58999999999997 448.187,-204.777 C417.906,-227.658 397.311,-186.692 392.947,-186.598 C306.644,-184.738 189.493,-175.738 148.596,-176.406 C142.941,-176.49800000000002 153.02100000000002,-182.939 122.087,-182.433z"></path></g><g opacity="1" transform="matrix(1,0,0,1,0,0)"><path fill="rgb(0,0,0)" fill-opacity="1" d="M0 0 M-19.336,-350.534 C5.047000000000001,-406.818 96.23700000000001,-403.62199999999996 -13.285,-394.602 C-122.807,-385.582 -67.451,-75.24600000000001 -7.648,-86.307 C26.74,-92.667 -13.267000000000001,-97.275 -18.396,-137.453 C-21.981,-164.641 -20.549999999999997,-289.291 -19.336,-350.534z"></path></g><g opacity="1" transform="matrix(1,0,0,1,-181.145,17.885)"><path fill="rgb(0,0,0)" fill-opacity="1" d="M0 0 M283.808,-387.444 C277.465,-361.81 275.746,-143.14600000000002 284.15,-134.263 C252.14999999999998,-125.58500000000001 263.812,-105.61499999999998 265.693,-258.885 C271.508,-395.589 239.91899999999998,-403.587 283.808,-387.444z"></path></g><g opacity="1" transform="matrix(1,0,0,1,17.596,19.915)"><path fill="rgb(0,0,0)" fill-opacity="1" d="M0 0 M370.066,-411.305 C375.854,-265.704 373.93100000000004,-252.10199999999998 370.199,-123.759 C369.67,-105.569 413.422,-104.89 396.375,-126.751 C374.786,-154.437 380.70899999999995,-367.97 394.768,-397.353 C418.385,-446.711 368.924,-440.034 370.066,-411.305z"></path></g></g><g transform="matrix(0.12884752018163093,-0.991664417302065,0.991664417302065,0.12884752018163093,455.21161634835056,816.9683175124618)" opacity="0.8" style="-webkit-user-select: none;"><g opacity="1" transform="matrix(0.9963494824030651,0.039947858705375046,-0.01740014388156801,0.4339813174468467,20.789,164.187)"><path fill="rgb(255,255,255)" fill-opacity="1" d="M0 0 M204.865,-372.797 C216.70700000000002,197.558 222.353,204.585 208.191,400.368 C207.945,403.772 227.973,300.981 225.494,226.396 C211.161,-204.859 203.94,-417.351 204.865,-372.797z"></path></g><g opacity="1" transform="matrix(1,0,0,1.00059,0,0)"><path fill="rgb(255,255,255)" fill-opacity="1" d="M0 0 M240.471,-93.249 C247.541,-84.085 234.743,-72.893 240.084,-76.033 C258.512,-86.868 234.924,-100.439 240.471,-93.249z"></path></g><g opacity="1" transform="matrix(1,0,0,1.00059,0,0)"><path fill="rgb(255,255,255)" fill-opacity="1" d="M0 0 M240.432,-48.091 C247.50199999999998,-38.927 234.70399999999998,-27.735 240.045,-30.875 C258.473,-41.71 234.885,-55.281 240.432,-48.091z"></path></g></g><g transform="matrix(0.1288475255221913,-0.9916644584052519,0.9916643767643564,0.12884751491454344,455.21160953585076,816.9683255247397)" opacity="0.8" style="-webkit-user-select: none;"><g opacity="1" transform="matrix(1,0,0,1,0,0)"><path fill="rgb(255,255,255)" fill-opacity="1" d="M0 0 M66.841,-331.079 C61.443999999999996,-335.69100000000003 51.223,-343.863 62.031,-330.574 C67.626,-323.694 68.269,-255.661 66.604,-193.891 C64.779,-126.16099999999999 46.805,-122.908 67.244,-140.828 C71.435,-172.767 71.946,-326.716 66.841,-331.079z"></path></g><g opacity="1" transform="matrix(1,0,0,1,339,1.5)"><path fill="rgb(255,255,255)" fill-opacity="1" d="M0 0 M67.453,-324.854 C62.056000000000004,-329.466 44.653999999999996,-346.278 55.394,-332.934 C65.82,-319.97900000000004 67.401,-256.51599999999996 65.816,-217.759 C62.037000000000006,-125.36199999999998 49.491,-126.65 67.864,-145.458 C73.72800000000001,-166.611 72.558,-320.491 67.453,-324.854z"></path></g><g opacity="1" transform="matrix(1,0,0,1,0,3)"><path fill="rgb(255,255,255)" fill-opacity="1" d="M0 0 M293,-324.5 C289,-327 284.94300000000004,-322.614 283.386,-311.839 C282.024,-302.419 279.51,-167.735 267.724,-157.971 C262.763,-153.861 278.803,-151.03799999999998 294.366,-148.969 C296.58299999999997,-148.674 297,-322 293,-324.5z"></path></g></g></g></svg>