<svg id="Layer_1" data-name="Layer 1" xmlns="http://www.w3.org/2000/svg" viewBox="0 0 800 800"><defs><style>.cls-1,.cls-3{fill:none;stroke-miterlimit:10;}.cls-1{stroke:#fff;stroke-width:8px;opacity:0.5;}.cls-2{fill:#fff;}.cls-3{stroke:#333;stroke-width:5px;}</style></defs><title>TwistedRootsVandalism</title><path class="cls-1" d="M675,307c22.49-14.19,55.65-15.44,75-34.78,7.18-7.18,15.86-11.68,6.75-20.85-9.59-9.64-16.33,1.63-26.49,6.33,6-11,29.47-52.26.79-40.72-10.77,4.34-20.74,23.33-29.27,31.2-11.65,10.75-22.6,16.49-36.86,23.84,8.83-8.74,30.23-23.24,17.53-35,9.84-5,4.67-14.67-5.56-16.58-13.31-2.48-54.9,29.06-66.93,35.84q-30.07,16.94-59.45,35.05c-9.76,6-47.27,21.18-36.3,33.83-6.25-4.22-62.19,68-51.6,80.67a539.19,539.19,0,0,0-50,22.95c7.18-6.46,54.25-42.36,21.49-44.83-7.64-.58-26.78,17.22-33.65,21.64,12.1-14.89,27.62-29,17.58-44.62-6-9.26-12.16-16.06-21.67-5.39,11.5-18.32,31.26-33.05,40.58-51.35,1.1-2.16-3.23-5.07-2.7-6.18,3.76-7.88,12-14.29,16.38-22,7.56-13.25,6.68-21.87,21-29.76,29.72-16.42,65.44-23.9,96.37-38.25,10.52-4.88,32.23-8.55,22.78-21.25-8.94-12-31.74,5.45-42.06,10.05,21.52-11.14,29.33-25.48,43.95-38.89,18.91-17.35,46.83-29.11,67.52-45.17,10.07-7.81,31.13-21.57,7.14-28.87C652,79.25,599.09,111.3,586,117.57c8-6.18,22.41-11.51,8.65-21-10.54-7.26-32.31,8.33-42.93,13,15.61-15,34.48-17.29,54.46-25.59,11.31-4.7,58.06-23.64,58.53-36.77.94-26.67-112.79,1.47-126.83,4.72,3.78-4.68,23.86-23.12,2.61-25.15-9.33-.89-27.85,25.59-24.86,34.56,6.56,19.7,97.61-8,115.88-9.88-12.47,8.06-31,20.45-45.91,22.65a72.27,72.27,0,0,1-27.4-.59c-14.11-2.68-10.8-4.62-26.83,7.78-8.46,6.54-14.74,13.79-21.55,19.59-9.7,8.26-47.12,28.1-36.88,39.47a11.16,11.16,0,0,0,8.07,5.45q9.15-10.17,14,2.27c14.79-.14,28.77-7.58,44-14.32-10.32,9.58-27.4,17.48-12.42,30.14-39.92,21.12-66.32,30.33-100.87,62.35-7.83,7.25-16.86,16.07-26.86,20.66q-7.16,4.9-14.42,9.67a21,21,0,0,0-5.9-7.43c-7.52.34-10.42,0-20.25,5.12-13.48,7-16.49,18.45-29.15,8.59a225.7,225.7,0,0,0,50-58.22c15.13-25.11,20.6-53.2-16-32,8.55-16.11,1.68-22.51,13.25-34.87,15.26,18.78,90.32-40.64,102.49-56.05,5.95-7.53,14.21-18.3-3.21-21.74-14.34-2.83-59.22,26.51-72.71,32.54,10.13-9.7,44.64-34.72,33.44-49s-56.73,13.18-70.48,18.36C372.77,52,386.68,41.44,371,32.55c-6-3.38-10.65,3.3-16.59,1.88-2.22-.53-13.15-8.22-15.32-7.78-3.7.74-15,20.51-15,20.91,1.3,16.84,19.22,8,26.56,5.25-3.67,5.43-20,40.06,4.15,31-9.52,8.18-34.7,22.29-24.09,35.09,2.37,2.86,5,3.71,8.08,5.28q9.1-9.42,13.44-1.44a22.22,22.22,0,0,0,7.25,6.68c-8.6,9.12-27.94,23.05-32.56,34.55A15.06,15.06,0,0,0,333.51,174q-5.39,8.58-10.72,17.19c-2.31-4.69-8.33-12.89-13.91-8.93,5.35-6.59,15.91-13,10.37-21.46-4.43-6.78-8.08-8.28-15.07-5.15,28.23-44.16-14.48-26.59-38.72-17.4,12.46-18.37,20.65-39.38-11.7-30.12,3.87-4.74,17.9-16.87,18-22.08.44-18.85-21-10.72-30.73-7.48,19.8-26.68,26-53.8-13.54-33.55-11.89,6.09-24.34,12.28-32.78,11.5-3.4-.31-4.37-8.7-9.38-8.37-4.65.3-13.21,8.31-17.26,10.5,2.74-5.11,19.53-32.85-2.32-31.75-2.1.11-15,25.74-16.34,30.43-3.73,12.94-8.36,10.11.87,20,4.52,4.86,13.65,3.76,17.53,4.31,10.45,1.48,11,5.29,25-1q19.13-8.58,37.9-17.94C224.36,71.62,206,85.42,210.24,95c5.91,13.3,21.41,3.89,30.47.88-7.05,8.64-22.63,17.87-12.78,28.7,7.81,8.59,15.67,3.09,25.35.32-7,10.34-20.87,20.8-12.08,32.21,9.59,12.44,36.62-5.78,47.7-10-5.94,9.29-23.56,29.22-2.59,34.61-6.85,8.44-24.61,22.9-19.7,33,7.09,14.6,22.45,1,31.14-4.16-4.81,10.84.87,4.89,1.24,13,.31,6.63-4.58,16.5-10.07,23.74-7.6,10-22,21.93-27.78,35.15.26-.59-3.66,17.46-3.49,18.13,5.22,20.55,23.81,4.7,34-1C277.81,314.36,264,332.3,251,342c-4.38,3.25-16.21,10.4-20.23,11.11-2.7.47-5.6-10.67-10.41-9.66-8.43,1.78-16.74,14-25.53,15.55.12,0-8.77-9.91-11.77-10.27l-12.27,7.53a19.39,19.39,0,0,0-9.84-7.42c-5.64.75-14.5,8.79-21.85,10.23,4.57-10.62,1.65-27.27-13.29-21.39,1.34-5.86-1.86-16.94-10-17.39-6.35-.35-28.88,35.47-33.35,41.05.14-3.27-11.94-13.47-12.52-12.34-4.66,9.09-29.75,54.46-6.48,59.39,11.16,2.37,43.45-49.21,50.7-58.65,2.1,2.15,5.11,5,8.41,4.71-5.31,9.56-22.66,21.52-6,29.92,12.93,6.52,17-10.45,29.71-11.07,5.68-.28,20.68,6.06,24.44,7.29,3.29,1.07,5.34,9.35,10.67,8.94,7.16-.55,20.63-13.95,26.23-17.73-14.72,22.12-15.26,41.66,17.54,36.13,9.16-1.55,27-5.69,30.35-6.2,13.34-2.05,2.37,23.67,17.48-1,7.78,12.59-20.33,45.2,16.22,33,11.45-3.83,19-17.71,28.31-21.12q8.73-13.93,15.21-1.09,4.54,4.27,8.39-.27c-6.33,5.56-55.69,41.44-27.71,49,13.18,3.58,50-40.68,59.52-50.05-4.6,5.11-37.79,32.15-37.45,37.15.23,3.34,7.79,15.23,12.2,13.17-20.75,16.78-46,25.39-61.56,48.27-6.83,10.06-19,42.38,6.39,34.44-7.85,9.51-31.92,29.45-26.6,40.79,7.59,16.19,34.06-2.13,44-6.1-7.11,4.66-37,19-36.7,27.21.68,17.14,28.54,5.25,34.62,3.36-9.39,6-34.08,15.35-24.33,27.29s28.21-7.63,37.44-13.84a475.86,475.86,0,0,1,105.83-53.16c-11.1,9.61-75.74,47.67-75.63,59.47.23,25.16,62.83-20.86,70.91-25.06-7.73,8.47-45.3,35.08-28.33,45.5,12.8,7.86,55.87-20.93,68.62-27.08C458,627.21,425.7,654.39,448.66,658c10.52,1.65,24-17.06,27.32-22,5.49-8,21.52-26.73,12.12-37.18-10.26-11.4-42.29,11.69-53.27,17,8.54-9.38,42.32-35.24,16.14-44.46q5.87-5.32,11.57-10.83,4.89-8.34,9.39,2.15c3.87-1.24,9-4.44,14-6.22,17.2-6.1,33.91-22.67,51.9-29.93,2-.79-10.18-12.89-10.66-13.06,41.55-5.51,88-32.05,124.58-51.2,15.07-7.89,33.41-18.54,46.82-23.64,10.28-3.91,28.91-4.92,37.48-19.92,7.42-13,.67-8.61.55-20.35,0-2.38-2.36-11.22-2.2-12,1.38-6.53,10.14-9.48,14.6-16.53,9-14.22,7.15-14.51-8.18-19.47-4.91-1.59-10.13,0-14.82-1.58-6.47-2.19-4-7.46-12.82-4.2,3.2-39-93.12,17.24-66.61,38.25q-24.24,15.32-47.3,32.41c10.35-11.3,40.21-35.68,18.55-48.47,18.52-11.36,6.41-8.87,10.82-22.39,4.17-12.78,30-15,9.55-29.5C646,312.65,670.42,309.84,675,307ZM616.38,122.32C605.06,130,552,169.6,541.26,160.58Q577.83,139.59,616.38,122.32Zm-89.52,65q4.15,2.36-5.05,3.68ZM395.09,114.64,425.46,101A369.09,369.09,0,0,1,393,120.8Zm-4.69-36c-2.54,7.62-14.37,14.09-21.34,16.67Q379.4,86.51,390.4,78.59Zm-47.24,125.8,24.28-14a231.22,231.22,0,0,1-14.27,21.24C347,204,338,207.35,343.16,204.39ZM214,394.72l5.75-9.57Q230.6,395.63,214,394.72Zm30.75-11.9q-6.29,2.62-12.79,4.72c3.76-21.8,4-16,19.45-25.38C241.74,368.95,233.48,373,244.76,382.82Zm265.19,90.41c-8.69,25.5-27.42,26.68-51.14,39.36,9.21-11.71,12.4-19.11,23-27C486.48,482.13,511.88,467.57,509.95,473.24Zm5.65-114.58L548,343.47c-15.83,15.93-33.24,23.41-53.11,33.41a211.84,211.84,0,0,1,14.16-22A9,9,0,0,0,515.6,358.66Zm61.26-47.56c5.44-2.55,16.54-19.25,24.07-24.71,16.38-11.88,36.83-20.49,54.48-30.37a335.73,335.73,0,0,1-39.83,34.12c-6.26,4.66-12.65,9.14-19.1,13.54C589.38,308.52,581.43,309,576.86,311.1Zm-56.5,19.78-36.47,77.23c13-4.77,1.84,8,20.13-4.53A345.49,345.49,0,0,1,474.71,425C480.79,419.74,490.71,416.23,483.89,408.11ZM616.36,321c-5.6,2.34-23.71,13.23-29,11.23A128.85,128.85,0,0,1,616.36,321ZM392.48,296q18.93-9.33,36.93-20.4c-5.65,7.41-23,17.76-15.25,26.93l-32.83,21.73C385.38,315,389.1,305.59,392.48,296ZM351,280.43c-9.53,15.62-22.73,18.34-37.8,28Q331.57,293.79,351,280.43Zm-65,2.39c6.83-12.18,16.24-24.31,26.15-14.66Zm-5.58,67.35c-3.77.68-3.5-10.53-.32-13.5,7.37,19.48,21.94,6.05,33.52-.33q-9.5,10.11-18.47,20.69C291.37,353.07,286.3,349.1,280.36,350.17Zm76-1.85c-23.16,20-43.53,42.75-64.59,61.69,14.81-32.87,38.23-49.27,65-73Q351.16,342.43,356.32,348.31Zm13.1,24.2c4.81-6.16,13.9-18.84,20.27-12.76Zm-16.8,111.73c-1.36-5.86,68.25-40.29,75.86-44.18q-37.43,30-77.13,57ZM296,525.41c9.41-15.32,18.64-16.74,32.45-25.71C317.34,513.2,312.53,520.75,296,525.41Zm21,16.15c6.33-7.66,10.11-8.07,20.06-10.31Q327.09,536.43,317,541.56Zm31.42,36.84q-6.94,2.3-13.89,4.56l34.26-22.47Q358.86,569.69,348.46,578.4Zm19.18-68.33c13.54-7.68,23.49-12.42,38.07-16.18C392.66,501.44,382.65,507.84,367.64,510.06Zm51.59,20.16q-5.36-5.48,7.33-7.59ZM431,512.08l8.13-3.57Q434.65,520.34,431,512.08Zm57.32,16c-17.88,6.94-35.86,12.95-54,19.19a536,536,0,0,1,66-36.06A142.58,142.58,0,0,1,488.33,528.11Zm29.46-11.61c.38-.15,1.25-2.47,7-2.8ZM695.47,391c-7.65,4.06-44.65,24.59-19.94,32.38,8.71,2.74,40.33-23.75,51.42-27.68,3.55,6.62-9.87,18.47-16,21.36-.8.38-7.56-4.36-13.09-1.86-20.26,9.16-39.09,23.9-58.94,34.28-16,8.36-110.47,59-119,43.7-4.22-7.61,11.22-34.1,19-38,5.64-2.85,4.56,4.87,10,3.42,13.52-3.59,26.55-13.13,39.39-18.53,16.88-7.1,34-13.22,50.91-21.31,13.36-6.38,55.8-18.34,38.88-34.5,12.27-7.27,15.53-7.83,26.15-7.79,3.89,0,9.47-.56,13-2.74Q706.6,382.61,695.47,391Zm2.88-43.37c-.92,4.27-7.94,6.47-12.24,7Q692.06,350.8,698.34,347.6ZM568.27,420.72c-6.84-2.43-39.87,16-47.29,18.9,25.64-18.95,44.08-32.95,73.44-45.91A280.12,280.12,0,0,1,568.27,420.72Zm9.45-58.56q-8.57,4.15-16.91,8.76c12.19-7.48,23.5-17.62,36.56-23.36Q587.79,355.2,577.72,362.17Z"/><path class="cls-2" d="M241.66,291c5.74-13.56-14.27-20.85-24-16.68-3.58-4.38,13.6-20.22,7.38-29.73-8.51-13-20.35-2-31.85,1.93,11.13-17.9,10-13.79-.44-28-3.25-4.43-3.17,6.61-10.2-3.92-2.25-3.37-.68-7.46-6.05-12.14,24.35-17.91,13.31-31.09-11.89-21.54,8.08-15.95,28.16-43.44,10.28-56.83-15.36-11.51-55.09,4.68-72.23,4.66,7.06-15.19-8.18-23.2-7.24-26.16-7.58,23.82-17.46,40.27,19.91,39.54-9.78,12.87,3.62,2.82,1.2,13.7-1.53,6.87-19.07,15.22-16.23,23,7.65,21,31-2.95,41.3-8.63-.23,5.72-6.64,14.77-8.39,19.63,1.58-4.39-1.94,22.38-3.44,19.22,4.15,8.81,18.8,17.27,28,14.38-6.23,9.33,2.53,29.25,15.57,22.72-14.67,26.17,21.45,17.07,31.61,13.64-6.07,9.2-17.25,13.18-7.56,23.23-12.65,5.43-25.23,11.74-38.27,16.2,5.25-16.18,12.41-60.69-17.19-44.5,4.35-8.27,5.9-16.29-4.73-21.21-7.13-3.3-30.27,17.49-36.64,21.82,4.4-8.53,3.84-18.79,5.14-28.82,1-8,8-23.21-5.69-26.93-13.53-3.67-60.1,47.93-73.77,56.79,3.44-7.77,43.35-56.68,14.56-56-10.93.26-37.42,59-35.55,67.05,8.36,35.8,68-25,80.58-35.61-7.58,14.45,1.6,8.42-.63,16.28-2.3,8.09-15.27,20.7-13.58,29,4.93,24.12,29-.28,37.77-6.24-13.06,14.72,11.56,12.72,16.54,12.52,2-.08,11.07-8.11,13.48-7.38,13.11,4,2.05,12.65,4.28,18.69,11.83,32.1,53.27,11.72,78.19-2.2-.94,10.88,10.82,33.37,13,8.52C245,307.59,249.65,298.17,241.66,291ZM146.78,148.22c-11.2-10.07,16.63-13,20.4-13.21C163.55,144,155.5,144.12,146.78,148.22Z"/><path class="cls-2" d="M675,307c22.49-14.19,55.65-15.44,75-34.78,7.18-7.18,15.86-11.68,6.75-20.85-9.59-9.64-16.33,1.63-26.49,6.33,6-11,29.47-52.26.79-40.72-10.77,4.34-20.74,23.33-29.27,31.2-11.65,10.75-22.6,16.49-36.86,23.84,8.83-8.74,30.23-23.24,17.53-35,9.84-5,4.67-14.67-5.56-16.58-13.31-2.48-54.9,29.06-66.93,35.84q-30.07,16.94-59.45,35.05c-9.76,6-47.27,21.18-36.3,33.83-6.25-4.22-62.19,68-51.6,80.67a539.19,539.19,0,0,0-50,22.95c7.18-6.46,54.25-42.36,21.49-44.83-7.64-.58-26.78,17.22-33.65,21.64,12.1-14.89,27.62-29,17.58-44.62-6-9.26-12.16-16.06-21.67-5.39,11.5-18.32,31.26-33.05,40.58-51.35,1.1-2.16-3.23-5.07-2.7-6.18,3.76-7.88,12-14.29,16.38-22,7.56-13.25,6.68-21.87,21-29.76,29.72-16.42,65.44-23.9,96.37-38.25,10.52-4.88,32.23-8.55,22.78-21.25-8.94-12-31.74,5.45-42.06,10.05,21.52-11.14,29.33-25.48,43.95-38.89,18.91-17.35,46.83-29.11,67.52-45.17,10.07-7.81,31.13-21.57,7.14-28.87C652,79.25,599.09,111.3,586,117.57c8-6.18,22.41-11.51,8.65-21-10.54-7.26-32.31,8.33-42.93,13,15.61-15,34.48-17.29,54.46-25.59,11.31-4.7,58.06-23.64,58.53-36.77.94-26.67-112.79,1.47-126.83,4.72,3.78-4.68,23.86-23.12,2.61-25.15-9.33-.89-27.85,25.59-24.86,34.56,6.56,19.7,97.61-8,115.88-9.88-12.47,8.06-31,20.45-45.91,22.65a72.27,72.27,0,0,1-27.4-.59c-14.11-2.68-10.8-4.62-26.83,7.78-8.46,6.54-14.74,13.79-21.55,19.59-9.7,8.26-47.12,28.1-36.88,39.47a11.16,11.16,0,0,0,8.07,5.45q9.15-10.17,14,2.27c14.79-.14,28.77-7.58,44-14.32-10.32,9.58-27.4,17.48-12.42,30.14-39.92,21.12-66.32,30.33-100.87,62.35-7.83,7.25-16.86,16.07-26.86,20.66q-7.16,4.9-14.42,9.67a21,21,0,0,0-5.9-7.43c-7.52.34-10.42,0-20.25,5.12-13.48,7-16.49,18.45-29.15,8.59a225.7,225.7,0,0,0,50-58.22c15.13-25.11,20.6-53.2-16-32,8.55-16.11,1.68-22.51,13.25-34.87,15.26,18.78,90.32-40.64,102.49-56.05,5.95-7.53,14.21-18.3-3.21-21.74-14.34-2.83-59.22,26.51-72.71,32.54,10.13-9.7,44.64-34.72,33.44-49s-56.73,13.18-70.48,18.36C372.77,52,386.68,41.44,371,32.55c-6-3.38-10.65,3.3-16.59,1.88-2.22-.53-13.15-8.22-15.32-7.78-3.7.74-15,20.51-15,20.91,1.3,16.84,19.22,8,26.56,5.25-3.67,5.43-20,40.06,4.15,31-9.52,8.18-34.7,22.29-24.09,35.09,2.37,2.86,5,3.71,8.08,5.28q9.1-9.42,13.44-1.44a22.22,22.22,0,0,0,7.25,6.68c-8.6,9.12-27.94,23.05-32.56,34.55A15.06,15.06,0,0,0,333.51,174q-5.39,8.58-10.72,17.19c-2.31-4.69-8.33-12.89-13.91-8.93,5.35-6.59,15.91-13,10.37-21.46-4.43-6.78-8.08-8.28-15.07-5.15,28.23-44.16-14.48-26.59-38.72-17.4,12.46-18.37,20.65-39.38-11.7-30.12,3.87-4.74,17.9-16.87,18-22.08.44-18.85-21-10.72-30.73-7.48,19.8-26.68,26-53.8-13.54-33.55-11.89,6.09-24.34,12.28-32.78,11.5-3.4-.31-4.37-8.7-9.38-8.37-4.65.3-13.21,8.31-17.26,10.5,2.74-5.11,19.53-32.85-2.32-31.75-2.1.11-15,25.74-16.34,30.43-3.73,12.94-8.36,10.11.87,20,4.52,4.86,13.65,3.76,17.53,4.31,10.45,1.48,11,5.29,25-1q19.13-8.58,37.9-17.94C224.36,71.62,206,85.42,210.24,95c5.91,13.3,21.41,3.89,30.47.88-7.05,8.64-22.63,17.87-12.78,28.7,7.81,8.59,15.67,3.09,25.35.32-7,10.34-20.87,20.8-12.08,32.21,9.59,12.44,36.62-5.78,47.7-10-5.94,9.29-23.56,29.22-2.59,34.61-6.85,8.44-24.61,22.9-19.7,33,7.09,14.6,22.45,1,31.14-4.16-4.81,10.84.87,4.89,1.24,13,.31,6.63-4.58,16.5-10.07,23.74-7.6,10-22,21.93-27.78,35.15.26-.59-3.66,17.46-3.49,18.13,5.22,20.55,23.81,4.7,34-1C277.81,314.36,264,332.3,251,342c-4.38,3.25-16.21,10.4-20.23,11.11-2.7.47-5.6-10.67-10.41-9.66-8.43,1.78-16.74,14-25.53,15.55.12,0-8.77-9.91-11.77-10.27l-12.27,7.53a19.39,19.39,0,0,0-9.84-7.42c-5.64.75-14.5,8.79-21.85,10.23,4.57-10.62,1.65-27.27-13.29-21.39,1.34-5.86-1.86-16.94-10-17.39-6.35-.35-28.88,35.47-33.35,41.05.14-3.27-11.94-13.47-12.52-12.34-4.66,9.09-29.75,54.46-6.48,59.39,11.16,2.37,43.45-49.21,50.7-58.65,2.1,2.15,5.11,5,8.41,4.71-5.31,9.56-22.66,21.52-6,29.92,12.93,6.52,17-10.45,29.71-11.07,5.68-.28,20.68,6.06,24.44,7.29,3.29,1.07,5.34,9.35,10.67,8.94,7.16-.55,20.63-13.95,26.23-17.73-14.72,22.12-15.26,41.66,17.54,36.13,9.16-1.55,27-5.69,30.35-6.2,13.34-2.05,2.37,23.67,17.48-1,7.78,12.59-20.33,45.2,16.22,33,11.45-3.83,19-17.71,28.31-21.12q8.73-13.93,15.21-1.09,4.54,4.27,8.39-.27c-6.33,5.56-55.69,41.44-27.71,49,13.18,3.58,50-40.68,59.52-50.05-4.6,5.11-37.79,32.15-37.45,37.15.23,3.34,7.79,15.23,12.2,13.17-20.75,16.78-46,25.39-61.56,48.27-6.83,10.06-19,42.38,6.39,34.44-7.85,9.51-31.92,29.45-26.6,40.79,7.59,16.19,34.06-2.13,44-6.1-7.11,4.66-37,19-36.7,27.21.68,17.14,28.54,5.25,34.62,3.36-9.39,6-34.08,15.35-24.33,27.29s28.21-7.63,37.44-13.84a475.86,475.86,0,0,1,105.83-53.16c-11.1,9.61-75.74,47.67-75.63,59.47.23,25.16,62.83-20.86,70.91-25.06-7.73,8.47-45.3,35.08-28.33,45.5,12.8,7.86,55.87-20.93,68.62-27.08C458,627.21,425.7,654.39,448.66,658c10.52,1.65,24-17.06,27.32-22,5.49-8,21.52-26.73,12.12-37.18-10.26-11.4-42.29,11.69-53.27,17,8.54-9.38,42.32-35.24,16.14-44.46q5.87-5.32,11.57-10.83,4.89-8.34,9.39,2.15c3.87-1.24,9-4.44,14-6.22,17.2-6.1,33.91-22.67,51.9-29.93,2-.79-10.18-12.89-10.66-13.06,41.55-5.51,88-32.05,124.58-51.2,15.07-7.89,33.41-18.54,46.82-23.64,10.28-3.91,28.91-4.92,37.48-19.92,7.42-13,.67-8.61.55-20.35,0-2.38-2.36-11.22-2.2-12,1.38-6.53,10.14-9.48,14.6-16.53,9-14.22,7.15-14.51-8.18-19.47-4.91-1.59-10.13,0-14.82-1.58-6.47-2.19-4-7.46-12.82-4.2,3.2-39-93.12,17.24-66.61,38.25q-24.24,15.32-47.3,32.41c10.35-11.3,40.21-35.68,18.55-48.47,18.52-11.36,6.41-8.87,10.82-22.39,4.17-12.78,30-15,9.55-29.5C646,312.65,670.42,309.84,675,307ZM616.38,122.32C605.06,130,552,169.6,541.26,160.58Q577.83,139.59,616.38,122.32Zm-89.52,65q4.15,2.36-5.05,3.68ZM395.09,114.64,425.46,101A369.09,369.09,0,0,1,393,120.8Zm-4.69-36c-2.54,7.62-14.37,14.09-21.34,16.67Q379.4,86.51,390.4,78.59Zm-47.24,125.8,24.28-14a231.22,231.22,0,0,1-14.27,21.24C347,204,338,207.35,343.16,204.39ZM214,394.72l5.75-9.57Q230.6,395.63,214,394.72Zm30.75-11.9q-6.29,2.62-12.79,4.72c3.76-21.8,4-16,19.45-25.38C241.74,368.95,233.48,373,244.76,382.82Zm265.19,90.41c-8.69,25.5-27.42,26.68-51.14,39.36,9.21-11.71,12.4-19.11,23-27C486.48,482.13,511.88,467.57,509.95,473.24Zm5.65-114.58L548,343.47c-15.83,15.93-33.24,23.41-53.11,33.41a211.84,211.84,0,0,1,14.16-22A9,9,0,0,0,515.6,358.66Zm61.26-47.56c5.44-2.55,16.54-19.25,24.07-24.71,16.38-11.88,36.83-20.49,54.48-30.37a335.73,335.73,0,0,1-39.83,34.12c-6.26,4.66-12.65,9.14-19.1,13.54C589.38,308.52,581.43,309,576.86,311.1Zm-56.5,19.78-36.47,77.23c13-4.77,1.84,8,20.13-4.53A345.49,345.49,0,0,1,474.71,425C480.79,419.74,490.71,416.23,483.89,408.11ZM616.36,321c-5.6,2.34-23.71,13.23-29,11.23A128.85,128.85,0,0,1,616.36,321ZM392.48,296q18.93-9.33,36.93-20.4c-5.65,7.41-23,17.76-15.25,26.93l-32.83,21.73C385.38,315,389.1,305.59,392.48,296ZM351,280.43c-9.53,15.62-22.73,18.34-37.8,28Q331.57,293.79,351,280.43Zm-65,2.39c6.83-12.18,16.24-24.31,26.15-14.66Zm-5.58,67.35c-3.77.68-3.5-10.53-.32-13.5,7.37,19.48,21.94,6.05,33.52-.33q-9.5,10.11-18.47,20.69C291.37,353.07,286.3,349.1,280.36,350.17Zm76-1.85c-23.16,20-43.53,42.75-64.59,61.69,14.81-32.87,38.23-49.27,65-73Q351.16,342.43,356.32,348.31Zm13.1,24.2c4.81-6.16,13.9-18.84,20.27-12.76Zm-16.8,111.73c-1.36-5.86,68.25-40.29,75.86-44.18q-37.43,30-77.13,57ZM296,525.41c9.41-15.32,18.64-16.74,32.45-25.71C317.34,513.2,312.53,520.75,296,525.41Zm21,16.15c6.33-7.66,10.11-8.07,20.06-10.31Q327.09,536.43,317,541.56Zm31.42,36.84q-6.94,2.3-13.89,4.56l34.26-22.47Q358.86,569.69,348.46,578.4Zm19.18-68.33c13.54-7.68,23.49-12.42,38.07-16.18C392.66,501.44,382.65,507.84,367.64,510.06Zm51.59,20.16q-5.36-5.48,7.33-7.59ZM431,512.08l8.13-3.57Q434.65,520.34,431,512.08Zm57.32,16c-17.88,6.94-35.86,12.95-54,19.19a536,536,0,0,1,66-36.06A142.58,142.58,0,0,1,488.33,528.11Zm29.46-11.61c.38-.15,1.25-2.47,7-2.8ZM695.47,391c-7.65,4.06-44.65,24.59-19.94,32.38,8.71,2.74,40.33-23.75,51.42-27.68,3.55,6.62-9.87,18.47-16,21.36-.8.38-7.56-4.36-13.09-1.86-20.26,9.16-39.09,23.9-58.94,34.28-16,8.36-110.47,59-119,43.7-4.22-7.61,11.22-34.1,19-38,5.64-2.85,4.56,4.87,10,3.42,13.52-3.59,26.55-13.13,39.39-18.53,16.88-7.1,34-13.22,50.91-21.31,13.36-6.38,55.8-18.34,38.88-34.5,12.27-7.27,15.53-7.83,26.15-7.79,3.89,0,9.47-.56,13-2.74Q706.6,382.61,695.47,391Zm2.88-43.37c-.92,4.27-7.94,6.47-12.24,7Q692.06,350.8,698.34,347.6ZM568.27,420.72c-6.84-2.43-39.87,16-47.29,18.9,25.64-18.95,44.08-32.95,73.44-45.91A280.12,280.12,0,0,1,568.27,420.72Zm9.45-58.56q-8.57,4.15-16.91,8.76c12.19-7.48,23.5-17.62,36.56-23.36Q587.79,355.2,577.72,362.17Z"/><path class="cls-3" d="M103.9,665.66,49.38,730.14l96.75-51.6a518.53,518.53,0,0,1-42.61,74.74,555.87,555.87,0,0,1,88.92-84.42q-28.09,35-53.39,72.07A1176.76,1176.76,0,0,1,251.15,668a969.93,969.93,0,0,1-66.79,97.54,688.66,688.66,0,0,1,111.48-83.81q-23.5,32.78-48.46,64.47,55.63-38.13,114.39-71.4a881.48,881.48,0,0,1-59.85,87.41l74.56-82.59a411.7,411.7,0,0,1-51.14,81.42q46.82-36.29,90.67-76.2a748.72,748.72,0,0,0-55,72.67q27.85-21.73,53.61-46a207,207,0,0,0-31.87,45.15,357,357,0,0,0,62.11-55.18l-39.12,55.67"/><path class="cls-3" d="M84.13,671.7A702.36,702.36,0,0,1,60.8,774.48c11-2.45,18.82-12,25.7-21L146.63,675a498.56,498.56,0,0,1-32.3,75.47,368.2,368.2,0,0,0,53.39-53.34l-15.46,47.54a771.68,771.68,0,0,0,62.36-66.45l-2.81,68.21c4.68,3.33,10.12-3.05,12.33-8.35L249.19,678a215.25,215.25,0,0,1-9.44,44.15l29-29.82L244.05,740.8l63.68-55.91a546.11,546.11,0,0,0-33.53,87.82L337.32,691q-8.47,26.95-14.68,54.54a582.93,582.93,0,0,0,51.53-57.07,372.47,372.47,0,0,0-27.68,64.94l38.85-53a275.59,275.59,0,0,1-13.69,61.92,160.73,160.73,0,0,1,44.17-58.1,354.3,354.3,0,0,0-21.37,64.54A491.9,491.9,0,0,0,449.21,696a98.52,98.52,0,0,1-18.29,41.45"/><path class="cls-3" d="M129.36,553.61A201.16,201.16,0,0,0,52,583.06c29.83,10.83,64.11,3,93.69,14.57,2.78,1.08,5.91,2.91,6,5.88.09,2.22-1.59,4.07-3.2,5.6a121.61,121.61,0,0,1-95.33,32.46"/><path class="cls-3" d="M193.36,548.23A198.19,198.19,0,0,0,174.78,649"/><path class="cls-3" d="M156.75,577.26c-2.43,4.4,3.11,8.86,7.79,10.69a169.16,169.16,0,0,0,67,11.47"/><path class="cls-3" d="M240.89,572.59a477.55,477.55,0,0,0-3.29,71.59c.09,2.93.26,6.06,2,8.42,3.59,4.88,11.18,3.59,16.73,1.14,29.05-12.82,48.3-45,45.8-76.7"/><path class="cls-3" d="M321.49,623.5A283.57,283.57,0,0,0,374,599c5-3,10.08-6.28,13.34-11.13s4.27-11.66.94-16.46c-4.83-7-15.17-6.19-23.5-4.66-21,3.86-34.68,5.26-35.8,27.05-1.23,23.81.16,47.8-1.33,71.69"/><path class="cls-3" d="M420.08,578.33A185.43,185.43,0,0,0,401.23,667"/><path class="cls-3" d="M430.83,570A228.85,228.85,0,0,1,506.51,578c3.47,1,7.12,2.14,9.5,4.84,2.92,3.31,3.28,8.08,3.49,12.48.52,10.72.9,22.12-4.44,31.44-4.07,7.11-11,12.08-17.81,16.57-14,9.2-33,13.34-49.4,10.2l-5.52-71.92"/><path class="cls-3" d="M142.93,436.87l64.75-8.6c6.84-8.13,12.21-12.83,19.05-21"/><path class="cls-3" d="M249.55,407.63C234,416.75,202.49,435,227.44,453.48"/><path class="cls-3" d="M210.19,428.53c-.32,6.24,4.92,11.2,9.73,15.2l21.81,18.16"/><path class="cls-3" d="M224.19,422.4a245.47,245.47,0,0,0,32.39,30.7"/><path class="cls-3" d="M116,439.11l-54-1.83c2.62-8.07,3.45-15.95,7.06-23.62-5-2-8.91,4.45-11.59,9.15-4.55,8-12,13.77-19.32,19.35L18.12,457.51l55.62,2.85a117.31,117.31,0,0,1-14.51-26.48"/><path class="cls-1" d="M241.66,291c5.74-13.56-14.27-20.85-24-16.68-3.58-4.38,13.6-20.22,7.38-29.73-8.51-13-20.35-2-31.85,1.93,11.13-17.9,10-13.79-.44-28-3.25-4.43-3.17,6.61-10.2-3.92-2.25-3.37-.68-7.46-6.05-12.14,24.35-17.91,13.31-31.09-11.89-21.54,8.08-15.95,28.16-43.44,10.28-56.83-15.36-11.51-55.09,4.68-72.23,4.66,7.06-15.19-8.18-23.2-7.24-26.16-7.58,23.82-17.46,40.27,19.91,39.54-9.78,12.87,3.62,2.82,1.2,13.7-1.53,6.87-19.07,15.22-16.23,23,7.65,21,31-2.95,41.3-8.63-.23,5.72-6.64,14.77-8.39,19.63,1.58-4.39-1.94,22.38-3.44,19.22,4.15,8.81,18.8,17.27,28,14.38-6.23,9.33,2.53,29.25,15.57,22.72-14.67,26.17,21.45,17.07,31.61,13.64-6.07,9.2-17.25,13.18-7.56,23.23-12.65,5.43-25.23,11.74-38.27,16.2,5.25-16.18,12.41-60.69-17.19-44.5,4.35-8.27,5.9-16.29-4.73-21.21-7.13-3.3-30.27,17.49-36.64,21.82,4.4-8.53,3.84-18.79,5.14-28.82,1-8,8-23.21-5.69-26.93-13.53-3.67-60.1,47.93-73.77,56.79,3.44-7.77,43.35-56.68,14.56-56-10.93.26-37.42,59-35.55,67.05,8.36,35.8,68-25,80.58-35.61-7.58,14.45,1.6,8.42-.63,16.28-2.3,8.09-15.27,20.7-13.58,29,4.93,24.12,29-.28,37.77-6.24-13.06,14.72,11.56,12.72,16.54,12.52,2-.08,11.07-8.11,13.48-7.38,13.11,4,2.05,12.65,4.28,18.69,11.83,32.1,53.27,11.72,78.19-2.2-.94,10.88,10.82,33.37,13,8.52C245,307.59,249.65,298.17,241.66,291ZM146.78,148.22c-11.2-10.07,16.63-13,20.4-13.21C163.55,144,155.5,144.12,146.78,148.22Z"/></svg>