<svg id="Layer_1" data-name="Layer 1" xmlns="http://www.w3.org/2000/svg" viewBox="0 0 572.83 554"><defs><style>.cls-1{fill:#5b5b6f;}.cls-2{fill:#32324b;}.cls-3{fill:#848493;}</style></defs><title>LinkNail</title><path class="cls-1" d="M274,534c-70.64,0-135.24-26.36-181.91-74.23C45.6,412.09,20,346.47,20,275,20,127.24,126,20,272,20A317.16,317.16,0,0,1,395.58,45.6c38.85,16.61,73.35,40.61,99.77,69.4,29.35,32,63,85.41,56.73,158.28-6.79,78.75-37.53,145-88.91,191.66a258.26,258.26,0,0,1-85,51.16C345.89,528,310.83,534,274,534Z"/><path class="cls-2" d="M272,40A297,297,0,0,1,387.71,64c36.26,15.5,68.38,37.82,92.89,64.54,26.64,29,57.2,77.41,51.54,143-6.35,73.64-34.85,135.38-82.42,178.57a238.35,238.35,0,0,1-78.44,47.2C341.2,508.39,308.47,514,274,514c-33.33,0-65-6.15-94-18.29a221.1,221.1,0,0,1-73.55-49.9C63.58,401.89,40,341.23,40,275c0-33.71,5.88-65.63,17.47-94.86a220.08,220.08,0,0,1,47.8-73.81A216,216,0,0,1,178,57.79C206.88,46,238.51,40,272,40m0-40C114,0,0,117,0,275S116,554,274,554,557,449,572,275C585.57,117.63,430,0,272,0Z"/><path class="cls-3" d="M281,180.51C135.13,192.2-7,230.45,247,267s-342.47,51.15-47,99.88C345,390.82,515,356.36,400,343c-174.36-20.26,63-31.65,65-67.53s-316-40.8-206-54.86S439,167.85,281,180.51Z"/></svg>