<svg id="Layer_1" data-name="Layer 1" xmlns="http://www.w3.org/2000/svg" viewBox="0 0 459.5 866.63"><defs><style>.cls-1{fill:#1a1a1a;}.cls-2,.cls-5{fill:#fff;}.cls-2{stroke:#000;stroke-miterlimit:10;stroke-width:1.37px;}.cls-3{fill:#4d4d4d;}.cls-4{fill:#c33;}.cls-6{fill:#992626;}.cls-7{fill:#333;}.cls-8{fill:#666;}</style></defs><title>Logo</title><polygon class="cls-1" points="262.17 473.56 262.15 492.99 262.27 512.42 262.73 551.28 263.45 590.14 263.92 609.57 264.5 629 258.5 629 259.08 609.57 259.55 590.14 260.27 551.28 260.73 512.42 260.85 492.99 260.83 473.56 262.17 473.56"/><path class="cls-2" d="M367.6,602.5"/><path class="cls-3" d="M459.5,616.22v37c-48,0-131.14,49.33-131.14,101.48s54.75,72.57,54.75,72.57v39.34H143.3V827.29s54.75-8.77,54.75-60.22-54.75-59.75-54.75-59.75S46.64,710.86,0,616.22Z"/><path class="cls-4" d="M443.5,194c0,107.14-93,274-182,274s-182-166.86-182-274S161,0,261.5,0,443.5,86.86,443.5,194Z"/><path class="cls-5" d="M366.39,66.5C402.51,102.63,406.74,157,395,168.68S360.09,145.05,324,108.93,252.5,49.58,264.21,37.87,330.27,30.38,366.39,66.5Z"/><path class="cls-6" d="M354,414.45C325.6,446.71,293.29,468,261.5,468c-89,0-182-166.86-182-274a203.34,203.34,0,0,1,21.23-91C101.4,221,164.64,454.85,354,414.45Z"/><path class="cls-6" d="M264.76,464.88a4.54,4.54,0,0,0-6.52,0c-27,27.75-4.54,16.48,3.26,16.48S291.71,492.63,264.76,464.88Z"/><path class="cls-7" d="M238.17,765c0,36.81-35.68,62-68.23,68.17l-.14,33.47H143.3V827.29S198,818.52,198,767.07s-54.75-59.75-54.75-59.75S44.46,709.67,0,616.22H43.73S78,687,156.51,694.89C205.5,698,238.17,707.5,238.17,765Z"/><path class="cls-8" d="M459.5,631.67v21.58c-11.7,0-25.48,2.93-39.64,8.12-44,16.09-91.5,53.92-91.5,93.36,0,35.15,24.89,55.89,41.1,65.66a91.28,91.28,0,0,0,13.65,6.9v39.34H354.17V834c-52.67-28-52.67-74.33-52.67-74.33C301.5,638.67,459.5,631.67,459.5,631.67Z"/><path class="cls-1" d="M171.77,716.35a50,50,0,0,0,8.17-3.42c2.72-1.39,5.4-2.92,8-4.52,5.28-3.24,10.43-6.77,15.49-10.42,10.11-7.33,19.81-15.27,29.2-23.54A317.69,317.69,0,0,0,259.32,648a142.71,142.71,0,0,0,11.49-14.78,56.57,56.57,0,0,0,4.49-8.14c1.18-2.8,2.18-5.86,1.71-8.74v0a.67.67,0,1,1,1.32-.22h0c.53,3.41-.59,6.59-1.81,9.5a57.84,57.84,0,0,1-4.6,8.33A144.54,144.54,0,0,1,260.5,649a344.92,344.92,0,0,1-26.15,27.24q-13.68,13-28.5,24.85c-4.94,3.94-10,7.76-15.23,11.36-2.62,1.81-5.29,3.57-8.07,5.22a55.21,55.21,0,0,1-8.94,4.39,3,3,0,1,1-2.06-5.64l.18-.06Z"/><path class="cls-1" d="M343,719.11a54.68,54.68,0,0,1-8.57-4.22c-2.67-1.57-5.22-3.27-7.73-5-5-3.48-9.81-7.17-14.5-11q-14-11.49-26.92-24.18a310.44,310.44,0,0,1-24.47-26.6,132.51,132.51,0,0,1-10.52-14.74,55.65,55.65,0,0,1-4.13-8.12,27.85,27.85,0,0,1-1.32-4.42,12.79,12.79,0,0,1-.16-4.72.67.67,0,1,1,1.31.22h0c-.49,2.76.35,5.71,1.38,8.43a54.39,54.39,0,0,0,4,7.91A130.8,130.8,0,0,0,262,647.11a286.12,286.12,0,0,0,25,25.8,352,352,0,0,0,27.63,22.88c4.81,3.53,9.71,6.94,14.74,10,2.53,1.54,5.08,3,7.68,4.33a44.86,44.86,0,0,0,7.81,3.23h0a3,3,0,1,1-1.64,5.78Z"/></svg>