<svg xmlns="http://www.w3.org/2000/svg" width="610" height="280" viewBox="0 0 610 280" preserveAspectRatio="xMidYMid meet" style="width: 100%; height: 100%;"><defs><clipPath id="animationMask_czynyljyHV"><rect width="610" height="280" x="0" y="0"></rect></clipPath></defs><g clip-path="url(#animationMask_czynyljyHV)"><g transform="matrix(1,0,0,1,8.5,9)" opacity="1" style="-webkit-user-select: none;"><g opacity="1" transform="matrix(1,0,0,1,296.191,133.102)"><path fill="rgb(255,204,255)" fill-opacity="1" d="M0 0 M255.585,-11.294 C255.585,-11.294 294.832,-83.278 294.832,-83.278 C301.462,-98.44500000000001 281.676,-101.514 281.676,-101.514 C276.34299999999996,-103.874 112.467,-125.381 112.467,-125.381 C88.523,-128.758 64.189,-128.188 40.431,-123.693 C40.431,-123.693 -222.137,-74.309 -222.137,-74.309 C-239.007,-70.185 -288.612,18.883 -288.612,18.883 C-299.41400000000004,36.329 -276.07800000000003,49.760999999999996 -259.129,55.583 C-259.129,55.583 -60.518,126.875 -60.518,126.875 C-47.013,131.169 -36.676,126.91799999999999 -31.584,125.865 C-29.33,125.398 217.554,28.65 217.554,28.65 C228.81,25.563 239.203,14.114999999999998 255.585,-11.294z"></path></g><g opacity="1" transform="matrix(1,0,0,1,332.5,131.907)"><path fill="rgb(255,235,255)" fill-opacity="1" d="M0 0 M10.94,-29.94 C10.94,-29.94 237.5,-96.907 237.5,-96.907 C237.5,-96.907 -8.434,-31.107 -8.434,-31.107 C-20.622,-29.886 -32.334,-29.878 -44.414,-30.962 C-52.06,-32.833 -228.586,-70.073 -237.5,-71.907 C-228.722,-69.50699999999999 -64.472,-29.468999999999998 -62.306,-28.955 C-49.177,-22.485999999999997 -32.5,-19.907 -33.5,-0.907 C-33.5,-0.907 -70.90700000000001,87.5 -70.373,96.907 C-64.5,86.09299999999999 -22.4,1.737 -22.4,1.737 C-13.499999999999998,-11.907 -1.947000000000001,-23.192 10.94,-29.94z"></path></g><g opacity="1" transform="matrix(1,0,0,1,353.884,49.467)"><path fill="rgb(255,235,255)" fill-opacity="1" d="M0 0 M36.852,-30.773 C22.070999999999998,-28.826 73.78399999999999,-21.251 48.796,-19.835 C23.809,-18.42 -42.24,-24.820999999999998 -40.395,-17.648 C-38.551,-10.474 -25.832000000000004,-1.963 -45.7,4.139 C-65.56700000000001,10.241 -91.66300000000001,0.45399999999999974 -109.049,5.693 C-126.43700000000001,10.931999999999999 -116.061,25.917 -104.313,28.837 C-92.56400000000001,31.758 -16.67,31.5 9.729,19.624 C36.128,7.746999999999998 14.2,-2.1439999999999997 23.31,-4.773 C32.42,-7.403 81.699,-4.600999999999999 104.068,-10.764 C126.437,-16.927 111.25500000000001,-23.773999999999997 91.171,-26.49 C71.08600000000001,-29.206 44.333999999999996,-31.758 36.852,-30.773z"></path></g><g opacity="1" transform="matrix(1,0,0,1,133.105,175.765)"><path fill="rgb(190,153,190)" fill-opacity="1" d="M0 0 M132.535,82.835 C131.92499999999998,83.065 131.575,83.18599999999999 131.505,83.205 C126.41499999999999,84.255 116.075,88.505 102.565,84.216 C102.565,84.216 -96.045,12.915 -96.045,12.915 C-112.995,7.095999999999999 -136.32500000000002,-6.334999999999997 -125.525,-23.784 C-125.525,-23.784 -105.945,-58.935 -87.205,-86.095 C-83.845,-83.825 -79.995,-78.575 -83.105,-66.765 C-88.105,-47.765 -109.105,-22.765 -97.105,-14.765 C-85.105,-6.765000000000001 -71.10499999999999,-7.765000000000001 -60.105,-3.765 C-49.105,0.23499999999999988 -59.105,13.235 -34.105,21.235 C-9.104999999999997,29.235 4.895,13.235 20.895,21.235 C36.894999999999996,29.235 39.895,50.235 57.895,56.235 C75.89500000000001,62.235 87.895,66.235 100.895,66.235 C106.975,66.235 121.895,51.235 127.895,66.235 C130.572,72.928 133.105,78.09599999999999 132.535,82.835z"></path></g><g opacity="1" transform="matrix(1,0,0,1,195,190.373)"><path fill="rgb(190,153,190)" fill-opacity="1" d="M0 0 M-10,-20.373 C-14.277999999999999,-39.627 -22,-0.3730000000000011 -10,19.627 C2,39.626999999999995 4,34.627 13,12.627 C22,-9.373 0,16.627 -3,5.627 C-6,-5.373 -8,-11.373000000000001 -10,-20.373z"></path></g><g opacity="1" transform="matrix(1,0,0,1,167.655,186.531)"><path fill="rgb(190,153,190)" fill-opacity="1" d="M0 0 M2.045,-11.657 C-4.867,-8.076 -7.021,1.2169999999999996 -3.3,7.784 C0.3570000000000002,14.235 7.022,-14.235 2.045,-11.657z"></path></g><g opacity="1" transform="matrix(1,0,0,1,278.754,243.339)"><path fill="rgb(190,153,190)" fill-opacity="1" d="M0 0 M-4.507,5.429 C-4.146,19.979 15.469,-15.195 11.818,-17.39 C10.815,-17.994 -6.62,-18.521 -10.666,-12.859 C-15.469000000000001,-6.137 -4.869,-9.121 -4.507,5.429z"></path></g></g></g></svg>