<svg xmlns="http://www.w3.org/2000/svg" width="1200" height="1500" viewBox="0 0 1200 1500" preserveAspectRatio="xMidYMid meet" style="width: 100%; height: 100%;"><defs><clipPath id="animationMask_9EPIqUe9qL"><rect width="1200" height="1500" x="0" y="0"></rect></clipPath><mask id="kcORybLuBL"><path fill="#ffffff" clip-rule="nonzero" d="M0,0  h1200 v1500 h-1200 v-1500  M425.5,385.952 C411.299,404.449 411.3,406.144 407.226,426.97 C404.46,441.112 395.486,460.458 395.486,460.458 C395.486,460.458 384.545,451.283 365.613,446.404 C346.681,441.525 360.952,768.862 360.952,768.862 C360.952,768.862 435.528,769.992 435.528,769.992 C435.528,769.992 440.226,366.771 425.5,385.952" fill-opacity="1"></path></mask></defs><g clip-path="url(#animationMask_9EPIqUe9qL)"><g transform="matrix(1,0,0,1,179.49,700.4839999999999)" opacity="1" style="-webkit-user-select: none;"><g opacity="1" transform="matrix(1,0,0,1,420.052,381.569)"><path fill="rgb(255,204,153)" fill-opacity="1" d="M0 0 M379.491,235.442 C362.226,274.099 338.00800000000004,309.879 307.182,339.014 C298.91900000000004,346.825 290.199,354.165 281.012,360.867 C276.523,364.141 271.916,367.217 267.182,370.127 C264.344,371.872 261.103,375.55 257.782,373.408 C253.33599999999998,370.538 249.268,366.601 244.984,363.443 C240.173,359.894 235.28500000000003,356.44899999999996 230.354,353.068 C220.71,346.45599999999996 210.895,340.09700000000004 201.098,333.713 C181.139,320.706 160.95499999999998,308.06 140.563,295.741 C130.38199999999998,289.589 120.15599999999999,283.51 109.853,277.565 C100.348,272.08 90.62,265.27500000000003 80.319,261.415 C59.277,253.52800000000002 36.924,258.2 19.03,270.938 C15.330000000000002,273.572 11.867,276.21 7.61,277.906 C2.638,279.88800000000003 -2.665,280.88 -7.934,281.692 C-18.975,283.392 -30.308999999999997,285.161 -41.513,284.641 C-46.943,284.389 -50.651,285.568 -55.831,287.161 C-61.241,288.823 -67.01,289.167 -72.476,287.599 C-78.06,285.99899999999997 -82.209,287.46799999999996 -87.839,288.395 C-93.301,289.294 -99.074,289.192 -104.527,288.253 C-107.115,287.806 -109.686,287.15500000000003 -112.134,286.196 C-113.962,285.48100000000005 -115.997,283.69 -117.998,283.635 C-119.97500000000001,283.581 -122.30499999999999,285.476 -124.113,286.135 C-126.986,287.182 -130.113,287.71 -133.143,288.061 C-136.172,288.412 -139.226,288.461 -142.266,288.242 C-144.36599999999999,288.09000000000003 -146.87300000000002,287.295 -148.937,287.716 C-150.598,288.055 -152.065,289.475 -153.464,290.357 C-156.287,292.13500000000005 -159.321,293.59 -162.294,295.097 C-183.14100000000002,305.667 -204.873,314.32000000000005 -226.927,322.011 C-237.45399999999998,325.682 -248.84099999999998,329.603 -260.145,327.776 C-265.311,326.94100000000003 -270.123,324.76300000000003 -275.235,323.725 C-280.731,322.61 -286.27700000000004,323.251 -291.826,323.21 C-314.40500000000003,323.041 -326.175,304.097 -332.209,284.573 C-335.694,273.296 -338.957,262.1 -342.839,250.947 C-346.562,240.25300000000001 -349.16700000000003,229.44400000000002 -350.345,218.18 C-350.78000000000003,214.019 -350.59,209.974 -354.77,207.934 C-359.054,205.84199999999998 -363.42699999999996,204.69699999999997 -367.566,202.128 C-376.171,196.78799999999998 -383.002,189.19899999999998 -386.526,179.629 C-390.30400000000003,169.367 -390.146,158.355 -391.536,147.648 C-393.021,136.207 -395.91700000000003,125.09 -398.108,113.784 C-400.406,101.924 -400.944,90.271 -399.208,78.296 C-398.471,73.21400000000001 -397.43,68.175 -396.11,63.213 C-394.846,58.46 -391.08299999999997,52.643 -394.844,48.454 C-401.844,40.657000000000004 -407.77,33.252 -409.692,22.6 C-411.648,11.755 -410.51000000000005,0.23600000000000065 -409.994,-10.702 C-409.43100000000004,-22.647 -408.538,-34.579 -407.205,-46.464 C-405.917,-57.956 -404.88800000000003,-70.104 -401.607,-81.229 C-400.06300000000005,-86.462 -397.432,-91.28 -394.762,-96.01 C-393.669,-97.946 -392.622,-99.935 -391.413,-101.803 C-390.32800000000003,-103.478 -388.21999999999997,-105.452 -387.943,-107.509 C-387.498,-110.807 -393.724,-115.195 -395.806,-117.759 C-399.445,-122.237 -402.661,-127.08600000000001 -405.104,-132.323 C-414.29699999999997,-152.03 -410.069,-176.346 -403.488,-196.286 C-396.599,-217.162 -381.985,-235.522 -369.077,-253.011 C-356.949,-269.444 -343.59299999999996,-285.21099999999996 -324.426,-293.506 C-304.616,-302.07899999999995 -280.959,-305.19 -259.492,-303.394 C-248.561,-302.48 -239.37699999999998,-296.665 -228.748,-294.82 C-218.09799999999998,-292.971 -206.971,-293.995 -196.225,-294.188 C-192.915,-294.248 -186.807,-292.686 -184.325,-295.549 C-182.071,-298.149 -182.11599999999999,-303.01 -181.314,-306.215 C-178.644,-316.881 -176.899,-328.07 -171.27,-337.694 C-161.642,-354.15200000000004 -144.12199999999999,-366.324 -126.16,-372.062 C-115.24,-375.55 -104.158,-374.156 -92.955,-373.367 C-80.917,-372.52000000000004 -68.843,-372.74100000000004 -56.789,-373.028 C-44.819,-373.312 -32.793,-373.662 -20.884,-372.157 C-8.98,-370.651 2.681000000000001,-367.621 14.3,-364.707 C36.722,-359.085 59.267999999999994,-352.54200000000003 80.094,-342.341 C96.851,-334.133 111.198,-321.867 120.972,-305.887 C132.64499999999998,-286.805 138.391,-264.732 143.42,-243.151 C154.089,-197.354 169.81,-153.253 186.803,-109.471 C188.899,-104.069 191.006,-98.67099999999999 193.111,-93.273 C194.725,-89.134 195.72,-84.075 198.271,-80.406 C200.99099999999999,-76.495 206.867,-73.994 210.941,-71.798 C215.827,-69.167 220.849,-66.801 225.863,-64.424 C248.053,-53.90700000000001 270.33,-43.629999999999995 292.772,-33.66 C314.936,-23.811999999999998 337.166,-14.113 359.438,-4.513 C370.36699999999996,0.19700000000000006 381.30400000000003,4.886000000000001 392.254,9.55 C396.678,11.435 401.765,12.795 406.024,14.935 C410.36,17.115000000000002 409.41200000000003,24.098 409.805,28.256 C414.297,75.72800000000001 411.25800000000004,124.22900000000001 400.72,170.734 C395.697,192.905 388.76599999999996,214.672 379.491,235.442z"></path></g><g opacity="1" transform="matrix(1,0,0,1,185.858,371.092)"><path fill="rgb(128,102,77)" fill-opacity="1" d="M0 0 M128.125,30.598 C124.309,37.513 119.87700000000001,44.412000000000006 113.626,49.383 C106.908,54.726 98.386,56.869 90.262,59.084 C71.44,64.217 52.322,67.953 33.089,71.169 C13.767,74.39999999999999 -5.6419999999999995,77.041 -25.091,79.389 C-44.391999999999996,81.71799999999999 -63.771,84.332 -83.208,85.166 C-103.383,86.032 -123.89699999999999,84.31400000000001 -141.765,74.078 C-113.72599999999998,80.07900000000001 -86.161,80.18900000000001 -57.749,76.888 C-29.428,73.598 -1.1649999999999991,68.864 26.91,63.926 C50.22,59.826 75.08,56.477000000000004 97.06,47.252 C106.31,43.370000000000005 115.24499999999999,38.031 121.636,30.151 C128.951,21.131999999999998 131.3,6.805 131.991,-4.497 C133.865,-35.141 118.332,-60.839 103.115,-86.032 C117.77,-71.03 130.412,-53.312 135.985,-32.85 C141.76500000000001,-11.629000000000001 138.725,11.378 128.125,30.598z"></path></g><g opacity="1" transform="matrix(1,0,0,1,157.058,442.455)"><path fill="rgb(128,102,77)" fill-opacity="1" d="M0 0 M132.515,-16.694 C116.314,-9.748999999999999 98.922,-6.284 81.724,-2.811 C63.474000000000004,0.8730000000000002 45.123000000000005,4.035 26.677,6.565 C8.050999999999998,9.118 -10.617999999999999,11.366999999999999 -29.325,13.235 C-47.754,15.075999999999999 -66.544,16.694 -84.931,13.578 C-102.198,10.652999999999999 -121.48199999999999,1.6419999999999995 -132.515,-12.444 C-122.12799999999999,-0.5360000000000014 -105.51599999999999,7.162000000000001 -90.339,10.429 C-72.81,14.202 -54.779,13.051 -37.084,11.267 C0.10499999999999687,7.5169999999999995 37.177,2.7989999999999995 74.041,-3.394 C93.752,-6.7059999999999995 113.59599999999999,-10.056999999999999 132.515,-16.694z"></path></g><g opacity="1" transform="matrix(1,0,0,1,237.733,79.106)"><path fill="rgb(255,204,153)" fill-opacity="1" d="M0 0 M-0.28,1.035 C-0.11000000000000001,0.3849999999999999 0.08000000000000002,-0.30499999999999994 0.28,-1.035 C0.10000000000000003,-0.345 -0.09000000000000002,0.345 -0.28,1.035z"></path></g><g opacity="1" transform="matrix(1,0,0,1,238.408,76.606)"><path fill="rgb(255,204,153)" fill-opacity="1" d="M0 0 M-0.395,1.465 C-0.124,0.4850000000000001 0.14500000000000002,-0.4850000000000001 0.395,-1.465 C0.126,-0.42500000000000004 -0.14500000000000002,0.545 -0.395,1.465z"></path></g><g opacity="1" transform="matrix(1,0,0,1,167.451,131.491)"><path fill="rgb(128,102,77)" fill-opacity="1" d="M0 0 M45.908,16.663 C16.235000000000003,3.17 -12.753999999999998,-11.615 -45.908,-13.481 C-13.200000000000003,-16.663 19.275000000000002,-0.7399999999999984 45.908,16.663z"></path></g><g opacity="1" transform="matrix(1,0,0,1,191.253,121.011)"><path fill="rgb(128,102,77)" fill-opacity="1" d="M0 0 M-10.709,-21 C1.343,-11.206 10.358,5.3740000000000006 10.71,21 C5.450000000000001,5.869 -1.9649999999999999,-7.616 -10.709,-21z"></path></g><g opacity="1" transform="matrix(1,0,0,1,148.043,289.302)"><path fill="rgb(128,102,77)" fill-opacity="1" d="M0 0 M116.5,12.708 C101.479,17.291 85.486,16.137 70.081,14.648 C53.697,13.065 37.413,10.646 21.118,8.355 C4.567,6.029 -12.059000000000001,3.826 -28.806,3.922 C-44.732,4.013 -60.696000000000005,5.731 -76.474,2.71 C-91.19200000000001,-0.10899999999999999 -106.33,-5.820000000000002 -116.5,-17.292 C-97.303,1.7089999999999996 -67.98400000000001,3.654 -42.527,1.858 C-8.021999999999998,-0.5749999999999997 25.624000000000002,6.5 59.616,11.26 C78.34100000000001,13.882 97.786,17.139 116.5,12.708z"></path></g><g opacity="1" transform="matrix(1,0,0,1,173.526,214.905)"><path fill="rgb(128,102,77)" fill-opacity="1" d="M0 0 M123.269,-24.54 C116.84100000000001,-41.078 109.42699999999999,-58.25900000000001 96.713,-71.019 C81.204,-86.58600000000001 60.066,-89.55600000000001 39.763,-81.894 C54.601,-87.494 71.461,-90.015 86.553,-83.886 C100.204,-78.342 110.211,-66.882 117.257,-54.263 C124.58000000000001,-41.144 129.285,-26.467 132.548,-11.848 C136.294,4.933999999999999 136.637,22.198 131.203,38.656 C126.763,52.102 120.93299999999999,65.705 110.502,75.631 C99.53,86.072 85.101,89.595 70.307,89.722 C36,90.015 1.9709999999999965,81.04899999999999 -32.051,77.722 C-51.065,75.862 -69.865,78.988 -88.847,77.79 C-105.78399999999999,76.721 -123.014,72.328 -136.637,61.795 C-135.693,60.665 -122.441,66.467 -120.738,67.029 C-110.38,70.449 -98.74300000000001,71.056 -87.918,71.346 C-60.909000000000006,72.07000000000001 -34.196,68.008 -7.454,73.442 C5.668,76.10799999999999 18.543,79.61500000000001 31.923,80.79 C44.683,81.911 57.754000000000005,83.74000000000001 70.56,83.709 C92.611,83.656 108.81099999999999,70.764 117.967,51.281 C128.606,28.645 132.482,-0.8369999999999997 123.269,-24.54z"></path></g><g opacity="1" transform="matrix(1,0,0,1,246.528,49.991)"><path fill="rgb(255,204,153)" fill-opacity="1" d="M0 0 M-1.985,3.02 C-1.004,-0.8799999999999999 0.9489999999999998,-4.466 3.185,-7.78 C0.020000000000000018,-3.09 -1.7750000000000001,2.3470000000000004 -3.185,7.78 C-2.783,6.194 -2.3840000000000003,4.607 -1.985,3.02z"></path></g><g opacity="1" transform="matrix(1,0,0,1,332.658,8.506)"><path fill="rgb(255,204,153)" fill-opacity="1" d="M0 0 M-1.035,-0.045 C-0.346,-0.0049999999999999975 0.344,0.024999999999999998 1.035,0.045 C0.344,0.026 -0.346,-0.003999999999999997 -1.035,-0.045z"></path></g><g opacity="1" transform="matrix(1,0,0,1,394.813,9.326)"><path fill="rgb(255,204,153)" fill-opacity="1" d="M0 0 M2.73,-0.316 C5.274,0.15499999999999997 7.819999999999999,0.6160000000000001 10.36,1.104 C3.534,-0.18899999999999983 -3.4099999999999993,-0.906 -10.36,-0.906 C-5.997999999999999,-0.928 -1.5829999999999997,-1.105 2.73,-0.316z"></path></g><g opacity="1" transform="matrix(1,0,0,1,527.698,60.461)"><path fill="rgb(255,204,153)" fill-opacity="1" d="M0 0 M3.845,1.55 C6.431,4.814 8.859,8.203000000000001 11.105,11.71 C5.2090000000000005,2.6400000000000006 -2.1880000000000006,-5.529000000000001 -11.105,-11.71 C-5.578,-7.974 -0.31999999999999984,-3.6980000000000004 3.845,1.55z"></path></g><g opacity="1" transform="matrix(1,0,0,1,545.048,82.991)"><path fill="rgb(255,204,153)" fill-opacity="1" d="M0 0 M-1.145,-2.2 C-0.345,-0.7400000000000002 0.41500000000000004,0.7300000000000002 1.145,2.2 C0.405,0.7200000000000002 -0.355,-0.7400000000000002 -1.145,-2.2z"></path></g><g opacity="1" transform="matrix(1,0,0,1,559.228,129.341)"><path fill="rgb(255,204,153)" fill-opacity="1" d="M0 0 M-12.315,-42.67 C1.4350000000000005,-14.340000000000003 5.395,16.53 12.315,42.67 C4.494999999999999,14 0.6349999999999998,-15.73 -12.315,-42.67z"></path></g><g opacity="1" transform="matrix(1,0,0,1,587.103,217.766)"><path fill="rgb(255,204,153)" fill-opacity="1" d="M0 0 M-12.31,-34.635 C-6.460000000000001,-15.974999999999998 3.42,11.055 12.31,34.635 C3.6500000000000004,11.735 -5.08,-11.235 -12.31,-34.635z"></path></g><g opacity="1" transform="matrix(1,0,0,1,613.718,289.706)"><path fill="rgb(255,204,153)" fill-opacity="1" d="M0 0 M1.255,3.225 C0.4149999999999999,1.0750000000000002 -0.42499999999999993,-1.0750000000000002 -1.255,-3.225 C-0.32499999999999984,-0.8450000000000002 0.5159999999999999,1.3150000000000002 1.255,3.225z"></path></g><g opacity="1" transform="matrix(1,0,0,1,208.808,512.338)"><path fill="rgb(128,102,77)" fill-opacity="1" d="M0 0 M103.19,-62.122 C101.213,-70.589 96.081,-77.899 90.867,-84.685 C94.167,-75.116 98.389,-66.481 98.812,-56.173 C99.236,-45.835 98.489,-35.252 97.561,-24.957 C96.81700000000001,-16.71 96.82199999999999,-6.134 92.966,1.379 C88.91999999999999,9.262 80.21100000000001,14.384999999999998 72.421,17.871 C54.01700000000001,26.107 34.417,31.244 16.374,40.369 C-1.5670000000000002,49.444 -18.971,58.897000000000006 -37.915,65.816 C-59.891,73.845 -82.715,79.063 -105.665,83.422 C-85.94800000000001,84.684 -66.524,80.959 -47.608,75.69 C-28.714,70.426 -10.977,63.027 6.323,53.839 C23.43,44.753 41.611000000000004,38.443 59.395,30.881 C75.249,24.14 88.78999999999999,15.904000000000002 96.371,-0.187 C100.74499999999999,-9.471 102.57300000000001,-19.623 103.718,-29.745 C104.93,-40.457 105.664,-51.527 103.19,-62.122z"></path></g><g opacity="1" transform="matrix(1,0,0,1,174.913,567.226)"><path fill="rgb(128,102,77)" fill-opacity="1" d="M0 0 M-106.37,23.784 C-92.658,27.491 -76.94,27.982 -62.797,27.906 C-47.83,27.825 -33.162,24.519 -18.778,20.65 C-4.870999999999999,16.909 8.851,12.361 22.009,6.483 C34.917,0.7169999999999996 47.165000000000006,-6.441 60.246,-11.833 C75.548,-18.143 91.433,-23.002000000000002 106.37,-30.195 C93.69800000000001,-22.904 79.928,-17.916 66.53,-12.175 C53.421,-6.558000000000001 41.025999999999996,0.5149999999999997 28.223,6.766 C15.159999999999998,13.143 1.4339999999999993,17.99 -12.541,21.938 C-26.802,25.968 -41.379000000000005,29.561 -56.264,29.964 C-64.855,30.195999999999998 -73.42399999999999,29.374 -81.942,28.333 C-90.15799999999999,27.33 -98.46300000000001,26.343 -106.37,23.784z"></path></g><g opacity="1" transform="matrix(1,0,0,1,204.333,667.226)"><path fill="rgb(190,153,115)" fill-opacity="1" d="M0 0 M98.97,-43.076 C92.72,-29.528 86.21600000000001,-15.263 74.986,-5.058 C63.687000000000005,5.210000000000001 49.673,11.493000000000002 35.832,17.536 C20.553,24.206000000000003 5.02,30.226999999999997 -10.631,35.961 C-17.818,38.594 -25.145000000000003,41.142 -32.773,42.112 C-40.369,43.076 -47.327999999999996,41.785 -54.62,39.76 C-58.599,38.655 -62.61,37.589 -66.758,37.422 C-70.61399999999999,37.266999999999996 -74.461,37.718999999999994 -78.325,37.486 C-85.976,37.023999999999994 -93.156,34.609 -98.97,29.495 C-91.886,31.414 -85.167,33.678000000000004 -77.782,34.145 C-70.072,34.632000000000005 -62.356,34.077000000000005 -54.642,34.31 C-47.127,34.536 -39.667,36.634 -32.145,35.38 C-24.825000000000003,34.159000000000006 -17.669,31.137999999999998 -10.736,28.58 C16.279999999999998,18.613 44.105999999999995,8.385 67.478,-8.839 C79.857,-17.961 92.02799999999999,-29.133000000000003 98.97,-43.076z"></path></g><g opacity="1" transform="matrix(1,0,0,1,242.723,60.196)"><path fill="rgb(255,204,153)" fill-opacity="1" d="M0 0 M-0.44,1.725 C-0.15000000000000002,0.5650000000000002 0.14,-0.5850000000000002 0.44,-1.725 C0.14,-0.5450000000000002 -0.15000000000000002,0.5950000000000002 -0.44,1.725z"></path></g><g opacity="1" transform="matrix(1,0,0,1,267.303,27.206)"><path fill="rgb(255,204,153)" fill-opacity="1" d="M0 0 M16.6,-13.585 C3.1000000000000014,-6.955000000000001 -9.310000000000002,3.485000000000001 -16.6,13.585 C-8.330000000000002,1.9850000000000012 3.8400000000000016,-7.375000000000001 16.6,-13.585z"></path></g><g opacity="1" transform="matrix(1,0,0,1,295.438,9.311)"><path fill="rgb(255,204,153)" fill-opacity="1" d="M0 0 M-5.715,1.72 C-2.0149999999999997,0.24 1.8049999999999997,-0.96 5.715,-1.72 C1.9249999999999998,-0.97 -1.915,0.20999999999999996 -5.715,1.72z"></path></g><g opacity="1" transform="matrix(1,0,0,1,302.938,7.301)"><path fill="rgb(255,204,153)" fill-opacity="1" d="M0 0 M-1.785,0.29 C-0.605,0.04999999999999999 0.585,-0.13999999999999999 1.785,-0.29 C0.605,-0.13999999999999999 -0.585,0.05999999999999997 -1.785,0.29z"></path></g><g opacity="1" transform="matrix(1,0,0,1,321.623,7.566)"><path fill="rgb(255,204,153)" fill-opacity="1" d="M0 0 M-10,-0.895 C-3.2960000000000003,-0.774 3.3150000000000004,0.511 10,0.895 C3.322,0.5640000000000001 -3.3390000000000004,-0.6930000000000001 -10,-0.895z"></path></g><g opacity="1" transform="matrix(1,0,0,1,361.613,8.725)"><path fill="rgb(255,204,153)" fill-opacity="1" d="M0 0 M16.47,-0.245 C6.889999999999999,-0.08499999999999999 -4.799999999999999,0.245 -16.47,0.115 C-5.489999999999998,0.21500000000000002 5.489999999999998,-0.10499999999999998 16.47,-0.245z"></path></g><g opacity="1" transform="matrix(1,0,0,1,405.836,10.568)"><path fill="rgb(255,204,153)" fill-opacity="1" d="M0 0 M-0.193,-0.048 C0.194,0.028999999999999998 0.58,0.105 0.967,0.182 C-0.5810000000000001,-0.10699999999999998 -0.9670000000000001,-0.183 -0.193,-0.048z"></path></g><g opacity="1" transform="matrix(1,0,0,1,463.342,25.005)"><path fill="rgb(255,204,153)" fill-opacity="1" d="M0 0 M1.97,0.625 C0.6599999999999999,0.196 -0.657,-0.21100000000000002 -1.971,-0.625 C-0.6600000000000001,-0.21600000000000003 0.655,0.199 1.97,0.625z"></path></g><g opacity="1" transform="matrix(1,0,0,1,438.776,18.525)"><path fill="rgb(255,204,153)" fill-opacity="1" d="M0 0 M22.595,5.854 C5.794999999999998,0.6130000000000004 -10.526,-3.273 -22.596,-5.854 C-7.380000000000001,-2.636 7.749999999999998,1.1719999999999997 22.595,5.854z"></path></g><g opacity="1" transform="matrix(1,0,0,1,414.376,12.291)"><path fill="rgb(255,204,153)" fill-opacity="1" d="M0 0 M-1.803,-0.381 C-0.655,-0.14300000000000002 0.5599999999999998,0.11499999999999999 1.803,0.381 C0.601,0.127 -0.5999999999999999,-0.134 -1.803,-0.381z"></path></g><g opacity="1" transform="matrix(1,0,0,1,496.033,38.086)"><path fill="rgb(255,204,153)" fill-opacity="1" d="M0 0 M-14.06,-6.575 C-4.390000000000001,-2.8850000000000002 5.140000000000001,1.335 14.06,6.575 C5.661000000000001,1.6749999999999998 -3.9990000000000006,-2.705 -14.06,-6.575z"></path></g><g opacity="1" transform="matrix(1,0,0,1,581.043,381.011)"><path fill="rgb(190,153,115)" fill-opacity="1" d="M0 0 M38,-55.5 C38,-55.5 3,20.5 -38,55.5 C-38,55.5 25,14.5 38,-55.5z"></path></g><g opacity="1" transform="matrix(1,0,0,1,359.293,596.059)"><path fill="rgb(190,153,115)" fill-opacity="1" d="M0 0 M88.75,50.241 C83.752,52.513 79.96499999999999,56.59 75.591,59.786 C70.82499999999999,63.268 65.392,64.834 59.65,65.912 C46.361999999999995,68.408 32.908,70.42200000000001 19.37,69.909 C13.081000000000001,69.671 7.794,72.334 1.715,73.453 C-1.4399999999999997,74.033 -4.657,74.24 -7.851,73.917 C-10.712,73.628 -13.447999999999999,72.187 -16.31,72.191 C-19.099999999999998,72.194 -21.909,73.307 -24.662,73.709 C-28.102,74.211 -31.604,74.435 -35.08,74.354 C-41.21,74.213 -47.28,73.039 -53.001,70.83 C-56.123,69.625 -56.768,68.502 -59.93,69.899 C-62.331,70.96000000000001 -64.399,72.021 -66.99,72.625 C-74.041,74.267 -81.667,74.57799999999999 -88.75,72.951 C-78.437,66.761 -71.01899999999999,57.027 -65.187,46.695 C-59.461,36.551 -53.606,25.316000000000003 -50.662,14.006 C-43.794,-12.376000000000001 -61.150000000000006,-40.136 -78.01,-59.03 C-70.893,-62.82 -63.804,-67.407 -59.7,-74.578 C-50.93000000000001,-48.539 -40.888000000000005,-23.206 -22.481,-2.339 C-5.493000000000002,16.921000000000003 16.342000000000002,31.016 40.487,39.582 C56.055,45.104 72.349,48.446 88.75,50.241z"></path></g><g opacity="1" transform="matrix(1,0,0,1,661.043,440.011)"><path fill="rgb(190,153,115)" fill-opacity="1" d="M0 0 M9.5,-86 C9.5,-86 12.5,-23 -26.5,86 C-26.5,86 26.5,-32 9.5,-86z"></path></g><g opacity="1" transform="matrix(1,0,0,1,632.913,390.011)"><path fill="rgb(190,153,115)" fill-opacity="1" d="M0 0 M6.63,-50 C14.370000000000001,-17.045 6.200000000000001,23.038 -14.37,50 C0.9500000000000011,19.07 7.564,-15.600000000000001 6.63,-50z"></path></g><g opacity="1" transform="matrix(1,0,0,1,398.043,449.292)"><path fill="rgb(190,153,115)" fill-opacity="1" d="M0 0 M-76.5,-46.282 C-62.351,-22.274999999999995 -39.004000000000005,-3.976000000000001 -14.989,9.466 C13.364999999999998,25.338 44.635999999999996,30.951999999999998 76.5,23.718 C30.551000000000002,46.281 -22.144000000000005,22.33 -54.682,-12.113 C-63.922000000000004,-21.895 -72.8,-33.117999999999995 -76.5,-46.282z"></path></g><g opacity="1" transform="matrix(1,0,0,1,522.37,566.511)"><path fill="rgb(190,153,115)" fill-opacity="1" d="M0 0 M16.174,-49.5 C3.083,-17.764 -12.472000000000001,14.453000000000003 -12.826,49.5 C-16.173000000000002,32.444 -12.417,14.530000000000001 -7.12,-1.729 C-1.6130000000000004,-18.637999999999998 6.235999999999999,-34.753 16.174,-49.5z"></path></g><g opacity="1" transform="matrix(1,0,0,1,33.305,398.511)"><path fill="rgb(190,153,115)" fill-opacity="1" d="M0 0 M3.238,-23.5 C2.2800000000000002,-7.869 -0.1339999999999999,7.946999999999999 3.238,23.5 C-3.238,9.653 -0.8839999999999999,-9.343 3.238,-23.5z"></path></g><g opacity="1" transform="matrix(1,0,0,1,61.085,404.511)"><path fill="rgb(190,153,115)" fill-opacity="1" d="M0 0 M1.458,-23.5 C0.4059999999999999,-7.888 -0.784,7.933999999999999 1.458,23.5 C-1.215,16.265 -1.458,8.361 -1.43,0.734 C-1.4,-7.414999999999999 -0.7780000000000002,-15.629999999999999 1.458,-23.5z"></path></g><g opacity="1" transform="matrix(1,0,0,1,49.947,401.011)"><path fill="rgb(190,153,115)" fill-opacity="1" d="M0 0 M2.596,-29 C1.237,-19.406 0.76,-9.718 0.367,-0.045 C-0.027000000000000024,9.613 -0.8280000000000001,19.331 -0.404,29 C-2.596,19.481 -2.068,9.538 -1.614,-0.139 C-1.159,-9.850999999999999 -0.3959999999999999,-19.689 2.596,-29z"></path></g><g opacity="1" transform="matrix(1,0,0,1,33.7,221.511)"><path fill="rgb(190,153,115)" fill-opacity="1" d="M0 0 M3.843,-31.5 C2.0780000000000003,-10.463999999999999 -0.594,10.308 -0.157,31.5 C-3.843,11.030999999999999 -1.2720000000000002,-11.501999999999999 3.843,-31.5z"></path></g><g opacity="1" transform="matrix(1,0,0,1,54.334,224.511)"><path fill="rgb(190,153,115)" fill-opacity="1" d="M0 0 M4.21,-34.5 C2.443,-22.801000000000002 0.853,-11.08 -0.337,0.693 C-1.4709999999999999,11.908999999999999 -2.684,23.221 -1.79,34.5 C-4.209,23.33 -3.439,11.738999999999999 -2.322,0.459 C-1.151,-11.356 0.891,-23.09 4.21,-34.5z"></path></g><g opacity="1" transform="matrix(1,0,0,1,51.139,541.511)"><path fill="rgb(190,153,115)" fill-opacity="1" d="M0 0 M-2.596,-24.5 C-2.553,-16.242 -2.417,-7.919999999999999 -1.077,0.248 C0.266,8.439 3.321,16.259999999999998 4.405,24.5 C1.6740000000000004,16.859 -1.526,9.339 -2.924,1.301 C-4.404,-7.214 -4.253,-16.023 -2.596,-24.5z"></path></g><g opacity="1" transform="matrix(1,0,0,1,63.436,545.511)"><path fill="rgb(190,153,115)" fill-opacity="1" d="M0 0 M-2.893,-24.5 C-1.8739999999999999,-7.925999999999998 1.7310000000000003,8.286000000000001 5.107,24.5 C-1.1659999999999995,9.732 -5.108,-8.463000000000001 -2.893,-24.5z"></path></g><g opacity="1" transform="matrix(1,0,0,1,111.043,666.511)"><path fill="rgb(190,153,115)" fill-opacity="1" d="M0 0 M-7.5,-22.5 C-2.793,-7.422000000000001 0.006999999999999673,8.434 7.5,22.5 C2.633,16.933 -0.07299999999999995,9.785 -2.307,2.84 C-4.954,-5.393000000000001 -6.793,-13.873 -7.5,-22.5z"></path></g><g opacity="1" transform="matrix(1,0,0,1,125.543,663.511)"><path fill="rgb(190,153,115)" fill-opacity="1" d="M0 0 M-7,-19.5 C-4.068,-12.758 -1.845,-5.736000000000001 0.365,1.267 C2.295,7.384 3.664,13.948 7,19.5 C2.4450000000000003,15.043 0.567,8.424 -1.322,2.528 C-3.64,-4.704000000000001 -5.695,-12.009 -7,-19.5z"></path></g><g opacity="1" transform="matrix(1,0,0,1,420.509,379.073)"><path fill="rgb(128,102,77)" fill-opacity="1" d="M0 0 M-110.293,-371.823 C-104.7,-371.823 -99.072,-371.27 -93.412,-370.871 C-87.072,-370.42499999999995 -80.721,-370.275 -74.369,-370.275 C-68.661,-370.275 -62.951,-370.39599999999996 -57.246,-370.532 C-52.213,-370.652 -47.17,-370.783 -42.131,-370.783 C-35.184,-370.783 -28.243000000000002,-370.533 -21.341,-369.66 C-9.437000000000001,-368.15500000000003 2.2249999999999996,-365.125 13.843,-362.212 C36.266,-356.59 58.81100000000001,-350.047 79.638,-339.845 C96.394,-331.637 110.741,-319.37100000000004 120.516,-303.391 C132.18800000000002,-284.309 137.935,-262.237 142.963,-240.656 C153.632,-194.859 169.353,-150.75799999999998 186.346,-106.975 C188.442,-101.573 190.549,-96.176 192.654,-90.777 C194.269,-86.638 195.26399999999998,-81.579 197.814,-77.91 C200.534,-73.999 206.41,-71.498 210.484,-69.302 C215.37,-66.67200000000001 220.393,-64.30499999999999 225.406,-61.928 C247.596,-51.411 269.873,-41.135000000000005 292.315,-31.164 C314.479,-21.316000000000003 336.709,-11.616999999999999 358.981,-2.017 C369.90999999999997,2.693 380.84900000000005,7.382 391.797,12.046 C396.22200000000004,13.931 401.309,15.290000000000001 405.567,17.431 C409.903,19.611 408.955,26.593999999999998 409.349,30.752 C413.841,78.224 410.801,126.725 400.264,173.23 C395.24,195.40099999999998 388.31,217.16799999999998 379.034,237.938 C361.769,276.59499999999997 337.551,312.37399999999997 306.726,341.51 C298.462,349.32099999999997 289.74199999999996,356.66 280.556,363.363 C276.066,366.637 271.459,369.713 266.726,372.622 C264.496,373.992 262.019,376.555 259.45,376.555 C258.748,376.555 258.038,376.364 257.325,375.904 C252.878,373.033 248.81099999999998,369.09700000000004 244.527,365.939 C239.71599999999998,362.39000000000004 234.828,358.945 229.897,355.564 C220.253,348.951 210.438,342.593 200.642,336.209 C180.683,323.201 160.498,310.55600000000004 140.106,298.237 C129.92499999999998,292.08500000000004 119.699,286.006 109.396,280.061 C99.892,274.575 90.163,267.771 79.862,263.91 C72.836,261.27700000000004 65.66199999999999,260.043 58.559,260.043 C44.388,260.043 30.492,264.949 18.573,273.434 C14.873000000000001,276.06800000000004 11.41,278.70500000000004 7.153,280.403 C2.1819999999999995,282.384 -3.1220000000000008,283.376 -8.39,284.188 C-18.094,285.682 -28.024,287.229 -37.894,287.229 C-39.254,287.229 -40.612,287.199 -41.97,287.137 C-42.463,287.114 -42.943,287.103 -43.41,287.103 C-48.086,287.103 -51.57899999999999,288.208 -56.288,289.656 C-59.315999999999995,290.587 -62.458000000000006,291.105 -65.596,291.105 C-68.063,291.105 -70.527,290.78400000000005 -72.933,290.095 C-74.72800000000001,289.58000000000004 -76.375,289.383 -77.97,289.383 C-81.337,289.383 -84.47500000000001,290.262 -88.296,290.891 C-90.84500000000001,291.31 -93.464,291.512 -96.085,291.512 C-99.079,291.512 -102.07600000000001,291.24899999999997 -104.983,290.748 C-107.572,290.30199999999996 -110.143,289.651 -112.591,288.692 C-114.419,287.97700000000003 -116.454,286.186 -118.455,286.131 C-118.482,286.13 -118.511,286.13 -118.539,286.13 C-120.499,286.13 -122.788,287.98199999999997 -124.57,288.631 C-127.443,289.678 -130.57,290.20500000000004 -133.6,290.557 C-135.421,290.76800000000003 -137.251,290.869 -139.083,290.869 C-140.297,290.869 -141.511,290.824 -142.724,290.738 C-144.392,290.617 -146.317,290.09 -148.074,290.09 C-148.52800000000002,290.09 -148.97,290.125 -149.394,290.212 C-151.055,290.551 -152.522,291.971 -153.921,292.853 C-156.744,294.63100000000003 -159.778,296.086 -162.751,297.593 C-183.598,308.16200000000003 -205.32999999999998,316.81600000000003 -227.384,324.507 C-236.07,327.535 -245.341,330.735 -254.668,330.735 C-256.645,330.735 -258.62399999999997,330.591 -260.602,330.272 C-265.768,329.437 -270.58,327.259 -275.691,326.221 C-278.28999999999996,325.694 -280.899,325.559 -283.515,325.559 C-286.253,325.559 -288.99899999999997,325.707 -291.746,325.707 C-291.92499999999995,325.707 -292.104,325.70599999999996 -292.284,325.705 C-314.86199999999997,325.536 -326.631,306.59200000000004 -332.666,287.069 C-336.151,275.791 -339.414,264.596 -343.296,253.443 C-347.019,242.74800000000002 -349.624,231.94 -350.802,220.676 C-351.237,216.515 -351.046,212.471 -355.227,210.43 C-359.51099999999997,208.338 -363.884,207.19299999999998 -368.023,204.623 C-376.62800000000004,199.283 -383.459,191.695 -386.982,182.124 C-390.761,171.863 -390.603,160.851 -391.993,150.144 C-393.478,138.702 -396.374,127.586 -398.565,116.28 C-400.863,104.42 -401.40000000000003,92.767 -399.665,80.792 C-398.928,75.709 -397.887,70.671 -396.567,65.709 C-395.302,60.955000000000005 -391.53999999999996,55.138999999999996 -395.301,50.949 C-402.301,43.153 -408.22700000000003,35.747 -410.148,25.096 C-412.105,14.25 -410.96700000000004,2.732000000000001 -410.451,-8.206 C-409.88800000000003,-20.151 -408.995,-32.084 -407.662,-43.969 C-406.37399999999997,-55.461 -405.345,-67.608 -402.064,-78.733 C-400.52000000000004,-83.967 -397.889,-88.78399999999999 -395.219,-93.514 C-394.126,-95.44999999999999 -393.079,-97.439 -391.87,-99.306 C-390.785,-100.983 -388.677,-102.956 -388.399,-105.013 C-387.955,-108.311 -394.181,-112.69900000000001 -396.263,-115.263 C-399.90099999999995,-119.741 -403.118,-124.591 -405.561,-129.827 C-414.75399999999996,-149.534 -410.526,-173.85 -403.945,-193.79 C-397.056,-214.666 -382.441,-233.027 -369.534,-250.515 C-357.406,-266.949 -344.05,-282.716 -324.882,-291.01 C-308.66200000000003,-298.03 -289.858,-301.388 -271.793,-301.388 C-267.796,-301.388 -263.838,-301.224 -259.949,-300.899 C-249.018,-299.984 -239.834,-294.17 -229.205,-292.324 C-224.354,-291.482 -219.40200000000002,-291.236 -214.435,-291.236 C-208.496,-291.236 -202.533,-291.587 -196.682,-291.693 C-196.618,-291.69399999999996 -196.554,-291.694 -196.489,-291.694 C-194.788,-291.694 -192.423,-291.321 -190.189,-291.321 C-188.023,-291.321 -185.98100000000002,-291.672 -184.782,-293.053 C-182.52800000000002,-295.654 -182.57299999999998,-300.514 -181.771,-303.719 C-179.101,-314.385 -177.356,-325.57399999999996 -171.727,-335.198 C-162.099,-351.65599999999995 -144.579,-363.828 -126.617,-369.566 C-121.214,-371.292 -115.771,-371.823 -110.293,-371.823zM0 0 M-110.293,-378.823 C-117.355,-378.823 -123.21900000000001,-378.00100000000003 -128.747,-376.235 C-149.604,-369.572 -167.93,-355.552 -177.769,-338.733 C-182.823,-330.092 -184.98600000000002,-320.725 -187.079,-311.668 C-187.556,-309.60200000000003 -188.049,-307.466 -188.561,-305.419 C-188.87900000000002,-304.151 -189.07299999999998,-302.858 -189.26,-301.607 C-189.40099999999998,-300.665 -189.612,-299.26 -189.863,-298.325 C-189.962,-298.323 -190.07,-298.321 -190.189,-298.321 C-191.07999999999998,-298.321 -192.135,-298.412 -193.155,-298.5 C-194.256,-298.595 -195.394,-298.694 -196.489,-298.694 C-196.598,-298.694 -196.70600000000002,-298.693 -196.812,-298.691 C-199.257,-298.647 -201.74200000000002,-298.56 -204.144,-298.477 C-207.536,-298.35799999999995 -211.044,-298.236 -214.435,-298.236 C-219.823,-298.236 -224.136,-298.549 -228.007,-299.221 C-232.16,-299.942 -236.22099999999998,-301.41700000000003 -240.521,-302.978 C-246.362,-305.098 -252.403,-307.292 -259.366,-307.875 C-263.442,-308.216 -267.623,-308.388 -271.793,-308.388 C-291.498,-308.388 -311.34000000000003,-304.49800000000005 -327.663,-297.434 C-349.278,-288.08000000000004 -363.517,-270.457 -375.166,-254.672 C-376.444,-252.941 -377.738,-251.201 -379.04,-249.452 C-391.327,-232.937 -404.033,-215.86100000000002 -410.593,-195.984 C-419.817,-168.031 -420.259,-144.778 -411.904,-126.868 C-409.394,-121.48599999999999 -405.96000000000004,-116.09700000000001 -401.696,-110.849 C-400.809,-109.757 -399.69599999999997,-108.70599999999999 -398.518,-107.594 C-397.881,-106.99199999999999 -396.909,-106.075 -396.154,-105.271 C-396.178,-105.24 -396.202,-105.211 -396.224,-105.181 C-396.707,-104.568 -397.253,-103.872 -397.746,-103.111 C-398.78499999999997,-101.506 -399.67400000000004,-99.905 -400.533,-98.355 C-400.793,-97.887 -401.052,-97.42 -401.314,-96.956 C-404.26300000000003,-91.732 -407.053,-86.559 -408.777,-80.713 C-411.83299999999997,-70.353 -413.013,-59.491 -414.154,-48.986 C-414.308,-47.565999999999995 -414.461,-46.152 -414.619,-44.749 C-415.91600000000005,-33.18 -416.84,-21.335 -417.443,-8.536 C-417.526,-6.786999999999999 -417.625,-5.023 -417.724,-3.249 C-418.264,6.429 -418.823,16.436 -417.037,26.338 C-414.786,38.822 -408.02299999999997,47.244 -400.669,55.448 C-400.69899999999996,56.381 -401.485,58.510000000000005 -401.968,59.819 C-402.452,61.129000000000005 -402.952,62.484 -403.332,63.909 C-404.731,69.17099999999999 -405.828,74.51299999999999 -406.592,79.788 C-408.37,92.05499999999999 -407.992,104.428 -405.437,117.612 C-404.689,121.47099999999999 -403.855,125.334 -403.048,129.071 C-401.421,136.607 -399.885,143.725 -398.935,151.045 C-398.561,153.926 -398.305,156.81799999999998 -398.035,159.879 C-397.322,167.95399999999998 -396.585,176.305 -393.551,184.543 C-389.655,195.12300000000002 -382.105,204.123 -371.714,210.572 C-368.675,212.457 -365.6,213.68200000000002 -362.886,214.763 C-361.28200000000004,215.40200000000002 -359.76599999999996,216.005 -358.33,216.704 C-358.12899999999996,217.317 -358.00100000000003,218.79399999999998 -357.913,219.802 C-357.867,220.332 -357.82,220.867 -357.764,221.405 C-356.58,232.724 -354.01,243.956 -349.907,255.744 C-346.99399999999997,264.112 -344.36699999999996,272.73 -341.825,281.065 C-341.006,283.75 -340.186,286.441 -339.354,289.135 C-328.289,324.938 -307.678,332.59000000000003 -292.336,332.704 C-292.336,332.704 -291.746,332.707 -291.746,332.707 C-290.277,332.707 -288.83299999999997,332.668 -287.436,332.63 C-286.07399999999996,332.594 -284.788,332.559 -283.515,332.559 C-280.847,332.559 -278.863,332.72 -277.084,333.081 C-275.093,333.486 -273.043,334.129 -270.873,334.81 C-267.99,335.714 -265.01,336.65000000000003 -261.719,337.182 C-259.448,337.54900000000004 -257.076,337.735 -254.668,337.735 C-244.05700000000002,337.735 -233.97500000000002,334.219 -225.079,331.116 C-199.89100000000002,322.33299999999997 -178.46800000000002,313.409 -159.585,303.836 C-159.109,303.595 -158.632,303.356 -158.155,303.115 C-155.542,301.803 -152.84,300.445 -150.189,298.775 C-149.587,298.39599999999996 -149.04999999999998,298.003 -148.576,297.657 C-148.346,297.489 -148.038,297.265 -147.798,297.103 C-147.335,297.139 -146.674,297.247 -146.078,297.345 C-145.221,297.487 -144.248,297.646 -143.225,297.719 C-141.841,297.819 -140.447,297.869 -139.083,297.869 C-136.96699999999998,297.869 -134.851,297.748 -132.794,297.51 C-129.85600000000002,297.169 -125.993,296.6 -122.173,295.208 C-121.036,294.793 -120.03,294.24100000000004 -119.143,293.754 C-118.973,293.661 -118.772,293.55 -118.572,293.444 C-118.414,293.53200000000004 -118.258,293.623 -118.125,293.7 C-117.265,294.198 -116.29,294.76099999999997 -115.143,295.21 C-112.408,296.281 -109.474,297.078 -106.172,297.647 C-102.84,298.221 -99.446,298.512 -96.085,298.512 C-93.04199999999999,298.512 -90.039,298.272 -87.16,297.798 C-85.941,297.598 -84.831,297.382 -83.757,297.174 C-81.56800000000001,296.74899999999997 -79.678,296.383 -77.97,296.383 C-76.898,296.383 -75.911,296.52299999999997 -74.862,296.823 C-71.899,297.674 -68.781,298.105 -65.596,298.105 C-61.848000000000006,298.105 -58.025,297.513 -54.231,296.347 C-54.231,296.347 -53.923,296.252 -53.923,296.252 C-49.713,294.958 -46.931999999999995,294.103 -43.41,294.103 C-43.047999999999995,294.103 -42.676,294.112 -42.293,294.129 C-40.866,294.196 -39.385999999999996,294.229 -37.894,294.229 C-27.598,294.229 -17.454,292.666 -7.646,291.156 C-7.646,291.156 -7.324,291.106 -7.324,291.106 C-1.7960000000000003,290.254 4.098000000000001,289.15599999999995 9.746,286.905 C14.356000000000002,285.066 17.996,282.457 21.516,279.936 C21.516,279.936 22.633,279.136 22.633,279.136 C33.745999999999995,271.225 46.169,267.043 58.559,267.043 C65.007,267.043 71.349,268.195 77.405,270.465 C84.363,273.073 91.378,277.35200000000003 98.162,281.49 C100.694,283.034 103.311,284.631 105.897,286.123 C115.24300000000001,291.517 125.249,297.44 136.486,304.228 C157.054,316.654 177.353,329.387 196.82,342.073 C196.82,342.073 199.608,343.89 199.608,343.89 C208.29500000000002,349.548 217.277,355.399 225.939,361.337 C231.251,364.979 235.97299999999998,368.32599999999996 240.373,371.573 C241.96699999999998,372.74699999999996 243.562,374.07000000000005 245.252,375.47 C247.857,377.63000000000005 250.553,379.86400000000003 253.53,381.785 C255.325,382.944 257.372,383.555 259.45,383.555 C263.615,383.555 266.717,381.26 268.981,379.584 C269.52,379.185 270.029,378.808 270.391,378.586 C275.331,375.55 280.14,372.33 284.681,369.018 C293.78999999999996,362.371 302.825,354.828 311.534,346.597 C342.122,317.686 366.983,282.087 385.426,240.792 C394.46,220.564 401.749,198.35299999999998 407.091,174.777 C417.817,127.43399999999998 420.922,78.755 416.317,30.093 C416.26,29.476 416.238,28.614 416.216,27.702 C416.099,22.873 415.901,14.791 408.711,11.177 C405.826,9.727 402.79900000000004,8.653 399.872,7.614 C397.97,6.9399999999999995 396.175,6.302 394.54,5.606 C383.99100000000004,1.1129999999999995 372.96,-3.6149999999999993 361.753,-8.446 C337.80699999999996,-18.767 316.02299999999997,-28.291000000000004 295.157,-37.56 C273.704,-47.092 251.869,-57.132000000000005 228.404,-68.254 C228.404,-68.254 227.768,-68.556 227.768,-68.556 C223.125,-70.756 218.324,-73.03099999999999 213.804,-75.466 C213.075,-75.85799999999999 212.292,-76.26100000000001 211.479,-76.677 C208.67100000000002,-78.119 204.823,-80.09200000000001 203.561,-81.906 C202.40900000000002,-83.56400000000001 201.55200000000002,-86.236 200.723,-88.821 C200.25,-90.297 199.761,-91.822 199.176,-93.321 C199.176,-93.321 198.404,-95.299 198.404,-95.299 C196.558,-100.034 194.71,-104.76899999999999 192.871,-109.508 C177.818,-148.295 160.928,-194.397 149.78,-242.244 C144.692,-264.082 138.703,-287.07399999999996 126.487,-307.044 C116.40299999999999,-323.52799999999996 101.269,-337.044 82.717,-346.132 C60.503,-357.012 36.296,-363.79900000000004 15.546,-369.002 C15.546,-369.002 13.362,-369.55 13.362,-369.55 C2.4250000000000007,-372.29900000000004 -8.886,-375.141 -20.462,-376.605 C-26.814999999999998,-377.409 -33.7,-377.783 -42.131,-377.783 C-46.852000000000004,-377.783 -51.608,-377.66900000000004 -56.208,-377.559 C-56.208,-377.559 -57.412,-377.53 -57.412,-377.53 C-62.833999999999996,-377.40099999999995 -68.608,-377.275 -74.369,-377.275 C-81.319,-377.275 -87.387,-377.465 -92.921,-377.854 C-94.162,-377.942 -95.402,-378.037 -96.64,-378.132 C-101.082,-378.471 -105.674,-378.823 -110.293,-378.823z"></path></g><g opacity="1" transform="matrix(1,0,0,1,112.209,491.455)"><path fill="rgb(255,213,172)" fill-opacity="1" d="M0 0 M-74.666,-28.444 C-78.84899999999999,-17.987 -79.715,-6.258 -76.476,4.578 C-73.774,13.617999999999999 -67.469,24.990000000000002 -58.548,29.239 C-53.660000000000004,31.567 -48.164,30.723 -43.019,29.831 C-36.307,28.669 -29.779,26.651000000000003 -23.294,24.606 C-10.428,20.548000000000002 2.205,15.833 14.678,10.702 C26.975,5.644 39.126000000000005,0.22999999999999954 51.015,-5.727 C56.256,-8.354 61.536,-10.949 66.592,-13.923 C69.1,-15.397 71.557,-16.965 73.895,-18.698 C75.79899999999999,-20.11 79.715,-22.041 77.2,-24.305 C74.54,-26.701 67.084,-24.700000000000003 63.88,-24.481 C56.907000000000004,-24.006 49.948,-23.381 42.992,-22.702 C29.625999999999998,-21.399 16.262,-20.078 2.837,-19.551 C-12.138,-18.965 -27.224999999999998,-19.352 -41.998,-22.055 C-49.105,-23.355999999999998 -56.065000000000005,-25.283 -63.014,-27.242 C-65.09400000000001,-27.828 -73.417,-31.567 -74.666,-28.444z"></path></g><g opacity="1" transform="matrix(1,0,0,1,99.029,340.089)"><path fill="rgb(255,213,172)" fill-opacity="1" d="M0 0 M-43.486,-28.078 C-60.497,-20.517 -73.015,0.01699999999999946 -68.379,18.72 C-67.38900000000001,22.712 -65.407,26.623 -61.167,27.817 C-56.022000000000006,29.263 -49.632000000000005,27.861 -44.587,26.747 C-32.896,24.163 -21.588,19.448999999999998 -10.459,15.112 C12.347000000000001,6.225 34.634,-4.2299999999999995 57.897,-11.904 C59.927,-12.574 73.015,-14.825 70.852,-17.886 C68.744,-20.869 60.413,-21.315 57.168,-21.753 C51.326,-22.54 45.47,-23.29 39.617,-23.992 C25.442999999999998,-25.693 11.197,-26.912999999999997 -3.048,-27.833 C-9.929,-28.278 -16.815,-28.622000000000003 -23.707,-28.827 C-27.331,-28.934 -30.955000000000002,-29 -34.581,-28.946 C-37.426,-28.904 -40.82,-29.262999999999998 -43.486,-28.078z"></path></g><g opacity="1" transform="matrix(1,0,0,1,166.292,618.577)"><path fill="rgb(255,213,172)" fill-opacity="1" d="M0 0 M-61.249,-0.067 C-67.876,-1.9609999999999999 -81.342,-3.9720000000000004 -77.602,7.549 C-74.90700000000001,15.853000000000002 -66.979,25.023 -58.968,28.436 C-53.787000000000006,30.643 -48.421,29.72 -43.041,28.79 C-36.711999999999996,27.697 -30.494999999999997,26.044 -24.334,24.245 C-11.551,20.51 1.1500000000000004,16.448999999999998 13.606,11.732 C24.977,7.425999999999999 36.150999999999996,2.5799999999999996 47.04,-2.831 C56.867,-7.715 66.591,-13.28 74.579,-20.901 C76.478,-22.713 81.342,-26.802 78.045,-29.318 C76.309,-30.644000000000002 72.366,-29.937 70.403,-29.779 C66.753,-29.483999999999998 63.150000000000006,-28.759999999999998 59.59,-27.927 C47.17100000000001,-25.021 34.857,-21.548000000000002 22.583,-18.091 C8.522999999999998,-14.131 -5.509,-10.055 -19.66,-6.427 C-26.689,-4.6259999999999994 -33.751000000000005,-2.824 -40.859,-1.357 C-47.092,-0.07099999999999995 -54.957,1.731 -61.249,-0.067z"></path></g><g opacity="1" transform="matrix(1,0,0,1,123.929,154.833)"><path fill="rgb(255,213,172)" fill-opacity="1" d="M0 0 M-18.385,-33.822 C3.256999999999998,-27.059000000000005 25.81,-18.887999999999998 44.501,-5.757 C52.293,-0.2829999999999995 60.649,6.970000000000001 63.878,16.245 C67.371,26.279000000000003 60.275,32.041 51.04,33.44 C27.762999999999998,36.964999999999996 3.8299999999999983,30.79 -19.314,28.839 C-30.862000000000002,27.865 -42.657000000000004,28.599 -54.051,26.159 C-57.642,25.39 -62.177,24.292 -64.441,21.096 C-67.37,16.964 -64.52,11.861999999999998 -62.048,8.245 C-58.516000000000005,3.079999999999999 -53.959,-1.4079999999999995 -50.064,-6.302 C-46.247,-11.099 -42.721,-16.082 -39.366,-21.209 C-34.521,-28.611 -28.444000000000003,-36.965 -18.385,-33.822z"></path></g><g opacity="1" transform="matrix(1,0,0,1,412.579,41.837)"><path fill="rgb(255,213,172)" fill-opacity="1" d="M0 0 M-91.035,8.173 C-103.011,11.318 -111.963,0.7449999999999992 -112.66,-10.435 C-112.99799999999999,-15.847000000000001 -111.65299999999999,-22.141 -106.969,-25.429 C-102.493,-28.570999999999998 -96.467,-28.353 -91.249,-28.315 C-55.15,-28.048000000000002 -18.961000000000002,-23.223 16.322,-15.74 C48.494,-8.916 83.91499999999999,0.277000000000001 108.89,22.87 C109.731,23.631 112.99799999999999,25.79 112.341,27.151 C111.65499999999999,28.57 107.119,26.768 106.033,26.492 C97.307,24.276 88.72099999999999,21.583 80.094,19.016 C63.142999999999994,13.971999999999998 45.864999999999995,9.881 28.458,6.755 C-10.861000000000004,-0.3070000000000004 -52.093999999999994,-2.0540000000000003 -91.035,8.173z"></path></g><g opacity="1" transform="matrix(1,0,0,1,732.043,379.011)"><path fill="rgb(255,213,172)" fill-opacity="1" d="M0 0 M-92.5,-39 C-64.19800000000001,8.170000000000002 52.5,49 75.5,43 C98.5,37 -98.5,-49 -92.5,-39z"></path></g><g opacity="1" transform="matrix(1,0,0,1,641.543,576.011)"><path fill="rgb(255,213,172)" fill-opacity="1" d="M0 0 M-78,-33 C-50.697,8.863999999999997 47,56 70,48 C93,40 -93,-56 -78,-33z"></path></g><g opacity="1" transform="matrix(1,0,0,1,409.353,180.91)"><path fill="rgb(255,204,153)" fill-opacity="1" d="M0 0 M215.271,125.09 C212.046,123.226 209.37199999999999,121.74 207.85,118.199 C206.277,114.53999999999999 205.09300000000002,110.69800000000001 203.65,106.986 C200.11100000000002,97.876 196.546,88.777 193.03,79.658 C186.175,61.881 179.435,44.05 173.268,26.021 C167.326,8.650000000000002 162.04799999999997,-8.944999999999997 157.771,-26.804 C153.99499999999998,-42.569 150.735,-58.482000000000006 145.656,-73.9 C140.695,-88.962 134.039,-103.74199999999999 124.107,-116.213 C114.107,-128.772 100.566,-137.36599999999999 86.06,-143.88 C70.12,-151.039 53.373000000000005,-156.46200000000002 36.53,-161.05 C20.856,-165.32000000000002 4.9719999999999995,-169.55599999999998 -11.182,-171.528 C-29.025,-173.70499999999998 -47.083,-172.14399999999998 -64.997,-172.152 C-81.672,-172.159 -99.243,-176.594 -115.461,-171.45 C-130.957,-166.535 -146.287,-156.186 -156.299,-143.35 C-166.422,-130.37199999999999 -168.558,-113.492 -172.546,-97.965 C-174.519,-90.285 -176.52700000000002,-82.61 -179.328,-75.181 C-182.669,-66.324 -187.073,-57.951 -190.667,-49.204 C-197.409,-32.795 -205.383,-16.48 -210.949,0.355 C-213.484,8.022 -215.614,15.8 -218.352,23.405 C-221.308,31.618000000000002 -224.545,40.031 -224.874,48.857 C-225.51999999999998,66.264 -211.698,79.58699999999999 -196.835,86.261 C-163.981,101.01299999999999 -129.144,84.206 -100.508,67.632 C-85.698,59.06 -70.813,49.708 -58.52,37.698 C-46.741,26.192999999999998 -39.682,10.596 -32.012,-3.796 C-28.497,-10.391 -24.564999999999998,-17.183999999999997 -23.04,-24.58 C-25.152,-12.482999999999999 -31.134999999999998,-1.402000000000001 -36.052,9.712 C-42.112,23.408 -48.019000000000005,37.193 -53.447,51.152 C-58.522000000000006,64.20400000000001 -60.583000000000006,77.086 -53.816,89.948 C-47.628,101.711 -36.979,110.705 -26.504,118.542 C19.877999999999997,153.249 78.16899999999998,176.593 136.855,169.487 C153.646,167.454 170.039,162.905 185.262,155.496 C199.538,148.549 212.357,139.421 225.521,130.65 C222.064,128.871 218.629,127.049 215.271,125.09z"></path></g><g opacity="1" transform="matrix(1,0,0,1,286.234,257.992)"><path fill="rgb(128,102,77)" fill-opacity="1" d="M0 0 M-19.091,9.395 C-12.41,7.566999999999999 -6.421,3.776 -0.242,0.762 C6.51,-2.533 13.245,-5.831999999999999 19.799,-9.511 C6.998999999999999,-2.5909999999999993 -6.127000000000001,3.8070000000000004 -19.742,8.967 C-19.8,8.976 -18.702,9.512 -19.704,9.302 C-19.5,9.333 -19.295,9.363999999999999 -19.091,9.395z"></path></g><g opacity="1" transform="matrix(1,0,0,1,223.577,180.635)"><path fill="rgb(128,102,77)" fill-opacity="1" d="M0 0 M43.066,86.935 C27.130000000000003,92.382 9.126999999999999,93.544 -6.951,87.997 C-20.285,83.395 -33.271,73.619 -37.854,59.802 C-43.067,44.084 -33.589,28.451 -29.233,13.766 C-24.240000000000002,-3.0630000000000006 -17.23,-18.891999999999996 -10.435,-35.044 C-2.402000000000001,-54.141 5.031000000000001,-73.565 10.576,-93.544 C8.09,-56.513 -16.423000000000002,-25.597 -26.023,9.487 C-30.207,24.776 -40.742000000000004,40.608000000000004 -36.923,57.027 C-33.583,71.387 -20.320999999999998,81.47399999999999 -7.201,86.567 C2.013000000000001,90.14399999999999 12.032,91.397 21.866,90.662 C26.471,90.31700000000001 31.148000000000003,89.634 35.587,88.342 C37.037000000000006,87.92099999999999 41.885000000000005,85.415 43.066,86.935z"></path></g><g opacity="1" transform="matrix(1,0,0,1,400.123,118.34)"><path fill="rgb(128,102,77)" fill-opacity="1" d="M0 0 M-18.539,50.33 C-5.048000000000002,39.81 5.723999999999999,25.79 11.556,9.644 C18.538999999999998,-9.691 17.392,-30.473999999999997 13.421,-50.33 C15.93,-31.953 13.344000000000001,-12.341000000000001 7.78,5.273 C5.114000000000001,13.713 1.5740000000000003,21.879 -2.852,29.547 C-5.132,33.495 -7.642999999999999,37.305 -10.376,40.953 C-12.642999999999999,43.977000000000004 -15.202000000000002,48.385999999999996 -18.539,50.33z"></path></g><g opacity="1" transform="matrix(1,0,0,1,395.032,118.69)"><path fill="rgb(128,102,77)" fill-opacity="1" d="M0 0 M-14.444,49.679 C6.353999999999997,22.17 14.443999999999999,-19.096000000000004 -4.489,-49.679 C0.6180000000000003,-33.224000000000004 2.813,-14.960999999999999 0.797,2.195 C-0.15899999999999992,10.331 -2.176,18.576999999999998 -6.08,25.831 C-10.143,33.385 -12.031,41.475 -14.444,49.679z"></path></g><g opacity="1" transform="matrix(1,0,0,1,404.531,144.801)"><path fill="rgb(128,102,77)" fill-opacity="1" d="M0 0 M-26.013,31.774 C2.863999999999997,23.648000000000003 17.813000000000002,-5.143000000000001 26.012,-31.789 C20.301000000000002,-17.998 12.568000000000001,-4.736000000000001 3.342,7.003 C-1.0310000000000001,12.568999999999999 -5.8660000000000005,17.826999999999998 -11.319,22.354 C-13.947000000000001,24.535999999999998 -16.723,26.55 -19.662,28.296 C-20.730999999999998,28.931 -25.971,31.789 -26.013,31.774z"></path></g><g opacity="1" transform="matrix(1,0,0,1,411.543,161.511)"><path fill="rgb(128,102,77)" fill-opacity="1" d="M0 0 M-41,21.5 C-41,21.5 12,23.5 41,-23.5 C41,-23.5 0.5,18 -41,21.5z"></path></g><g opacity="1" transform="matrix(1,0,0,1,248.467,186.689)"><path fill="rgb(255,235,213)" fill-opacity="1" d="M0 0 M-14.924,-22.678 C-35.03,-9.274000000000001 -45.468,14.058 -51.088,36.78 C-42.72,36.493 -34.409,36.03 -26.031,36.176 C-17.985999999999997,36.318000000000005 -10.026,36.289 -2.069,34.941 C12.768999999999998,32.427 26.091,26.699 39.531,20.184 C45.364,17.356 45.891,13.076 46.847,7.078 C47.923,0.3180000000000005 49.141999999999996,-6.415000000000001 50.162,-13.185 C51.088,-19.333 49.85,-23.962 44.954,-28.053 C40.804,-31.521 35.431,-33.367999999999995 30.155,-34.233 C14.612000000000002,-36.779999999999994 -1.8689999999999998,-30.76 -14.924,-22.678z"></path></g><g opacity="1" transform="matrix(1,0,0,1,248.402,186.534)"><path fill="rgb(255,223,194)" fill-opacity="1" d="M0 0 M58.142,-24.524 C56.454,-34.613 39.244,-38.065 31.267,-38.491 C18.227,-39.188 4.328,-36.296 -7.249,-30.257 C-27.532999999999998,-19.677 -41.522999999999996,-0.14499999999999957 -52.486,19.342 C-54.629,23.151 -58.321999999999996,28.031 -58.964,32.473 C-59.527,36.366 -53.501,39.189 -50.91,36.257 C-50.041,35.272999999999996 -49.894,32.598 -49.552,31.376 C-48.635,28.106 -47.666,24.843999999999998 -46.595,21.621 C-44.615,15.658999999999999 -42.102,10.045 -38.888,4.647 C-32.775999999999996,-5.619 -25.421,-15.457999999999998 -15.373,-22.168 C-5.122,-29.014 7.433,-33.532999999999994 19.741,-34.483 C26.061,-34.971 32.653999999999996,-34.388 38.474,-31.723 C44.053,-29.168 50.588,-24.064 50.603,-17.402 C50.616,-12.073 49.281,-6.4 48.408,-1.145 C47.372,5.087 45.882999999999996,11.181000000000001 44.352,17.306 C47.215999999999994,15.496 50.267,13.768 52.618,11.285 C55.439,8.304 56.33,4.57 56.978,0.624 C58.329,-7.598 59.527,-16.228 58.142,-24.524z"></path></g><g opacity="1" transform="matrix(1,0,0,1,287.156,171.046)"><path fill="rgb(190,153,115)" fill-opacity="1" d="M0 0 M95.267,-4.805 C84.306,27.685000000000002 59.843,52.064 31.435,70.092 C15.247999999999998,80.366 -2.1679999999999993,89.898 -20.392,96.023 C-37.057,101.625 -55.016,103.035 -71.613,96.472 C-85.974,90.794 -100.708,79.189 -101.993,62.665 C-90.78699999999999,79.451 -73.35900000000001,90.335 -52.712,88.082 C-29.940000000000005,85.598 -7.134,77.358 13.003,66.604 C49.043,47.355999999999995 77.974,16.061000000000003 88.315,-24.081 C94.951,-49.841 94.232,-77.035 89.387,-103.035 C97.346,-88.711 100.481,-72.19200000000001 101.216,-55.968 C101.993,-38.851 100.764,-21.131 95.267,-4.805z"></path></g><g opacity="1" transform="matrix(1,0,0,1,287.677,172.102)"><path fill="rgb(128,102,77)" fill-opacity="1" d="M0 0 M101.686,-46.461 C101.483,-24.759999999999998 97.207,-2.7570000000000014 86.556,16.333 C76.707,33.986999999999995 62.138999999999996,48.518 45.966,60.441 C28.950000000000003,72.986 9.879999999999999,83.619 -9.567,91.898 C-28.055,99.768 -48.707,104.091 -68.295,97.642 C-84.346,92.356 -101.36699999999999,79.882 -102.514,61.609 C-100.53099999999999,80.86 -81.429,92.849 -64.208,97.077 C-39.544,103.132 -15.544999999999998,92.80600000000001 5.922,81.513 C27.857,69.97500000000001 49.437,56.912 66.454,38.617 C82.669,21.183999999999997 93.87299999999999,-0.4480000000000004 97.934,-23.959 C102.51299999999999,-50.464 101.374,-79.782 88.866,-104.091 C98.822,-86.70599999999999 101.867,-66.245 101.686,-46.461z"></path></g><g opacity="1" transform="matrix(1,0,0,1,542.196,263.703)"><path fill="rgb(255,213,172)" fill-opacity="1" d="M0 0 M-4.751,-113.693 C2.4339999999999993,-93.638 9.341000000000001,-73.481 15.702,-53.15 C21.942999999999998,-33.199 28.211999999999996,-13.168 32.126,7.395 C34.088,17.703 36.045,28.495 34.924,39.012 C33.848,49.112 30.317999999999998,59.175 27.395,68.862 C21.678,87.817 15.467,106.48400000000001 6.494,124.179 C4.769,127.581 -1.112,139.397 -5.918,133.095 C-9.672,128.172 -9.341,118.105 -9.626,112.43 C-10.644,92.176 -9.194,71.174 -6.522,51.093 C-5.133,40.659000000000006 -2.6369999999999996,30.397 -1.382,19.948 C-0.17499999999999982,9.896 -1.1559999999999997,0.32699999999999996 -3.272,-9.532 C-7.5120000000000005,-29.299 -14.979999999999999,-48.15299999999999 -21.522,-67.225 C-25.252,-78.095 -28.692999999999998,-89.107 -31.284,-100.311 C-33.442,-109.64600000000002 -36.045,-121.174 -33.481,-130.704 C-31.143,-139.39700000000002 -23.123,-137.924 -17.67,-133.108 C-11.938000000000002,-128.047 -7.315,-120.852 -4.751,-113.693z"></path></g><g opacity="1" transform="matrix(1,0,0,1,304.043,607.261)"><path fill="rgb(128,102,77)" fill-opacity="1" d="M0 0 M-18.905,-65.75 C-5.500000000000002,-37.25 33.5,-14.25 -33.5,62.75 C-33.5,62.75 -29.5,65.75 -29.5,65.75 C-29.5,65.75 10.5,24.75 9.5,-7.25 C8.5,-39.25 -18.905,-65.75 -18.905,-65.75z"></path></g></g><g mask="url(#kcORybLuBL)" transform="matrix(1.77,0,0,1.77,-308,34)" opacity="1" style="-webkit-user-select: none;"><g opacity="1" transform="matrix(1,0,0,1,399.974,149.826)"><path fill="rgb(253,202,51)" fill-opacity="1" d="M0 0 M-88.028,-88.434 C-29.355000000000004,-88.43299999999999 29.317000000000007,-88.43100000000001 87.989,-88.43 C88.086,-70.61000000000001 88.26299999999999,-52.79 88.264,-34.97 C88.267,5.844000000000001 88.185,46.657999999999994 88.137,87.472 C88.136,87.472 88.024,87.472 88.024,87.472 C69.743,87.711 51.463,88.086 33.182,88.161 C-7.222000000000001,88.327 -47.62499999999999,88.34100000000001 -88.029,88.418 C-88.029,88.418 -88.117,88.434 -88.117,88.434 C-88.165,87.26899999999999 -88.25699999999999,86.105 -88.258,84.94 C-88.265,28.644 -88.267,-27.651999999999994 -88.256,-83.948 C-88.256,-85.443 -88.107,-86.939 -88.028,-88.434zM0 0 M-0.618,-64.649 C-0.618,-64.649 -0.619,-64.79 -0.619,-64.79 C25.359,-64.79 51.33599999999999,-64.842 77.314,-64.742 C82.15299999999999,-64.723 83.233,-67.29 83.095,-71.384 C82.961,-75.388 82.93700000000001,-79.29499999999999 77.433,-79.573 C72.777,-79.809 68.12899999999999,-80.356 63.474,-80.416 C32.333999999999996,-80.817 1.193999999999999,-81.375 -29.946,-81.358 C-45.413000000000004,-81.351 -60.885,-80.337 -76.342,-79.545 C-80.398,-79.33800000000001 -82.94399999999999,-74.356 -82.624,-68.711 C-82.363,-64.102 -78.94900000000001,-64.682 -76.055,-64.676 C-50.91000000000001,-64.628 -25.764,-64.649 -0.618,-64.649z"></path></g><g opacity="1" transform="matrix(1,0,0,1,399.952,549.298)"><path fill="rgb(151,100,0)" fill-opacity="1" d="M0 0 M25.066,-181.116 C25.287,-162.327 25.311,-143.53300000000002 25.772,-124.75 C26.624,-90.00399999999999 27.745,-55.265 28.716,-20.522 C28.908,-13.706 28.93,-6.8870000000000005 29.031,-0.07 C28.705,2.0290000000000004 28.082,4.129999999999999 28.1,6.225 C28.321,30.683999999999997 29.102,55.147999999999996 28.781,79.598 C28.528,98.852 27.481,118.137 25.751,137.315 C24.740000000000002,148.509 22.47,159.75900000000001 16.022,169.518 C8.584,180.774 -5.248,181.116 -12.913,169.955 C-15.612,166.026 -17.819,161.59 -19.389,157.086 C-26.152,137.68 -27.407999999999998,117.342 -27.839,97.1 C-28.491,66.475 -28.029,35.826 -28.116,5.186 C-28.122,3.098 -28.759,1.0119999999999998 -29.102,-1.074 C-27.827,-46.275999999999996 -26.467000000000002,-91.476 -25.324,-136.68 C-24.950000000000003,-151.47 -25.142,-166.274 -25.076,-181.071 C-8.362000000000002,-181.08599999999998 8.352,-181.10100000000003 25.066,-181.116z"></path></g><g opacity="1" transform="matrix(1,0,0,1,230.543,150.59)"><path fill="rgb(151,100,1)" fill-opacity="1" d="M0 0 M-32.364,79.522 C-32.407999999999994,30.111000000000004 -32.598,-19.299999999999997 -32.41,-68.71 C-32.351,-84.50899999999999 -20.869,-97.979 -5.399,-101.825 C9.332,-105.486 25.166999999999998,-99.068 32.598,-86.423 C32.189,-85.037 31.426,-83.651 31.426,-82.265 C31.401999999999997,-27.61 31.448,27.045999999999992 31.484,81.701 C31.438000000000002,81.984 31.393,82.267 31.346,82.55 C27.369,86.081 23.445,89.67399999999999 19.401,93.127 C13.303,98.333 7.104000000000001,103.82499999999999 -1.247,104.496 C-13.583,105.48599999999999 -21.405,98.363 -27.229,88.413 C-28.958,85.46 -30.653,82.486 -32.364,79.522zM0 0 M-25.771,-39.058 C-25.427,-40.492 -25.176000000000002,-42.438 -24.495,-44.22 C-21.48,-52.105 -18.81,-60.175 -15.091,-67.723 C-12.395999999999999,-73.193 -7.521000000000001,-77.09 -1.209,-78.259 C7.360000000000001,-79.846 13.951999999999998,-76.246 18.345,-69.202 C21.794999999999998,-63.668 24.302999999999997,-57.546 27.307,-51.53 C28.04,-62.406 28.404,-73.167 24.431,-83.548 C21.783,-90.465 17.419,-96.04400000000001 9.787,-97.183 C-4.17,-99.265 -22.302,-95.526 -25.482,-73.52 C-27.125,-62.157 -25.771,-50.361000000000004 -25.771,-39.058z"></path></g><g opacity="1" transform="matrix(1,0,0,1,569.425,153.033)"><path fill="rgb(151,100,1)" fill-opacity="1" d="M0 0 M-32.55,-88.824 C-25.924999999999997,-100.466 -11.929,-106.881 2.458,-104.868 C16.393,-102.919 28.328,-92.00999999999999 31.438,-78.073 C32.190999999999995,-74.69999999999999 32.477999999999994,-71.158 32.483,-67.693 C32.55,-22.28 32.535000000000004,23.13300000000001 32.509,68.546 C32.508,71.369 32.249,74.192 32.11,77.014 C29.358999999999998,81.491 27.314,86.658 23.734,90.327 C7.577000000000002,106.881 2.0229999999999997,102.47500000000001 -10.653,92.733 C-17.192,87.708 -24.371000000000002,83.517 -31.262,78.95 C-31.315,78.685 -31.374,78.42200000000001 -31.441,78.159 C-31.439,24.565000000000005 -31.423000000000002,-29.029999999999994 -31.481,-82.624 C-31.483,-84.691 -32.178,-86.758 -32.55,-88.824zM0 0 M-25.72,-46.804 C-25.72,-46.804 -24.818,-46.556 -24.818,-46.556 C-24.328000000000003,-48.44 -24.075,-50.428 -23.306,-52.189 C-20.395,-58.851 -18.132,-65.992 -14.114,-71.929 C-7.796000000000001,-81.261 3.423,-82.756 12.029,-75.434 C16.820999999999998,-71.358 20.269,-65.595 23.889,-60.296 C25.746,-57.578 26.651,-54.211999999999996 28.345,-50.312 C28.345,-56.961999999999996 29.119,-62.745 28.144,-68.217 C26.994999999999997,-74.661 25.192999999999998,-81.296 22.133,-87.025 C16.668,-97.257 4.314,-101.36500000000001 -8.883,-98.605 C-18.548,-96.583 -24.551,-89.858 -25.548,-77.661 C-26.383,-67.43900000000001 -25.72,-57.095 -25.72,-46.804z"></path></g><g opacity="1" transform="matrix(1,0,0,1,519.479,148.519)"><path fill="rgb(115,77,0)" fill-opacity="1" d="M0 0 M17.396,-84.311 C17.768,-82.245 18.462,-80.178 18.464,-78.111 C18.522,-24.517000000000003 18.506,29.078000000000003 18.504,82.673 C16.441000000000003,82.05 14.358,81.491 12.32,80.795 C1.391,77.068 -8.913999999999998,78.127 -18.522,84.72 C-18.512999999999998,30.731 -18.51,-23.256 -18.483,-77.244 C-18.482,-79.736 -18.266,-82.228 -18.151,-84.72 C-6.805999999999999,-75.906 4.823,-75.772 17.396,-84.311z"></path></g><g opacity="1" transform="matrix(1,0,0,1,280.436,148.644)"><path fill="rgb(115,77,0)" fill-opacity="1" d="M0 0 M-18.408,83.646 C-18.445,28.990000000000002 -18.491,-25.663999999999994 -18.467,-80.32 C-18.465999999999998,-81.705 -17.703000000000003,-83.09100000000001 -17.295,-84.477 C-5.226000000000001,-75.93 7.052,-76.04 18.194,-84.792 C18.293,-82.968 18.476,-81.14299999999999 18.476,-79.32 C18.491,-26.43999999999999 18.491,26.439 18.477,79.318 C18.477,81.143 18.31,82.968 18.223,84.792 C6.239999999999998,77.151 -5.873000000000001,73.665 -18.408,83.646z"></path></g><g opacity="1" transform="matrix(1,0,0,1,400.105,651.973)"><path fill="rgb(92,61,0)" fill-opacity="1" d="M0 0 M-29.255,-103.75 C-28.912,-101.663 -28.276,-99.577 -28.27,-97.489 C-28.183,-66.85000000000001 -28.644000000000002,-36.2 -27.992,-5.575 C-27.562,14.667000000000002 -26.305999999999997,35.004999999999995 -19.543,54.41 C-17.973,58.913999999999994 -15.764000000000001,63.351 -13.066,67.279 C-5.401000000000001,78.44 8.431999999999999,78.099 15.87,66.843 C22.319,57.084 24.587,45.833 25.598,34.64 C27.328,15.462 28.375,-3.8230000000000004 28.628,-23.077 C28.95,-47.527 28.166999999999998,-71.991 27.947,-96.45 C27.928,-98.546 28.552,-100.646 28.878,-102.745 C29.135,-101.45700000000001 29.572000000000003,-100.177 29.62,-98.882 C30.411,-77.58800000000001 31.159,-56.292 31.904,-34.996 C32.521,-17.366000000000003 34.051,0.2930000000000028 33.512,17.888 C32.725,43.592 25.604,67.835 11.957,89.826 C3.343,103.707 -3.0220000000000002,103.749 -11.742,90.071 C-24.045,70.774 -31.569999999999997,49.481 -32.888,26.78 C-34.050999999999995,6.758000000000003 -32.704,-13.416 -32.315,-33.521 C-32.131,-43.004000000000005 -31.554,-52.479 -31.232,-61.961 C-30.802,-74.605 -30.467000000000002,-87.25399999999999 -30.03,-99.898 C-29.985,-101.189 -29.523,-102.467 -29.255,-103.75z"></path></g><g opacity="1" transform="matrix(1,0,0,1,305.284,147.64)"><path fill="rgb(151,100,0)" fill-opacity="1" d="M0 0 M-6.628,85.796 C-6.539,83.971 -6.372000000000001,82.146 -6.371,80.321 C-6.357,27.442 -6.357,-25.43699999999999 -6.372,-78.317 C-6.373,-80.13999999999999 -6.556,-81.964 -6.654,-83.788 C-6.664,-86.79599999999999 -5.938000000000001,-89.323 -2.467,-89.942 C1.3359999999999999,-90.61999999999999 4.688000000000001,-90.12 6.663,-86.248 C6.583,-84.753 6.4350000000000005,-83.25800000000001 6.434,-81.763 C6.423,-25.467000000000006 6.425,30.830000000000005 6.433,87.126 C6.433,88.29 6.5249999999999995,89.456 6.574,90.62 C2.261,89.29700000000001 -2.053,87.973 -6.367,86.65 C-6.442,86.36200000000001 -6.529,86.07700000000001 -6.628,85.796z"></path></g><g opacity="1" transform="matrix(1,0,0,1,494.647,147.125)"><path fill="rgb(151,102,0)" fill-opacity="1" d="M0 0 M6.682,-83.327 C6.567,-80.835 6.351,-78.343 6.35,-75.851 C6.3229999999999995,-21.863 6.319,32.126000000000005 6.31,86.114 C6.18,86.391 6.083,86.679 6.022,86.98 C1.8370000000000006,88.045 -2.3489999999999993,89.109 -6.536,90.172 C-6.4879999999999995,49.358999999999995 -6.406,8.545000000000002 -6.409,-32.269 C-6.41,-50.089 -6.587,-67.91 -6.683,-85.729 C-4.564,-89.593 -1.1729999999999996,-90.172 2.744,-89.369 C6.083,-88.68299999999999 6.666,-86.187 6.682,-83.327z"></path></g><g opacity="1" transform="matrix(1,0,0,1,399.397,351.891)"><path fill="rgb(113,77,0)" fill-opacity="1" d="M0 0 M-36.169,5.153 C-39.244,-4.097 -35.825,-9.895 -25.099,-13.621 C-7.965,-13.623000000000001 9.169999999999998,-13.626 26.305,-13.628 C31.041,-12.257 35.241,-10.172 37.318,-5.295 C38.89,-1.6059999999999999 39.245000000000005,2.0240000000000005 36.71,5.485 C12.381,13.213000000000001 -11.913999999999998,13.626999999999999 -36.169,5.153z"></path></g><g opacity="1" transform="matrix(1,0,0,1,400.016,307.571)"><path fill="rgb(113,77,0)" fill-opacity="1" d="M0 0 M26.653,-14.422 C36.902,-9.214 39.498999999999995,-4.635 36.897,3.638 C11.983999999999998,14.429 -14.016000000000002,13.428999999999998 -37.015,3.63 C-39.499,-4.678999999999999 -36.952,-9.159 -26.75,-14.429 C-8.95,-14.426 8.850999999999999,-14.424000000000001 26.653,-14.422z"></path></g><g opacity="1" transform="matrix(1,0,0,1,399.929,279.301)"><path fill="rgb(151,100,0)" fill-opacity="1" d="M0 0 M26.74,13.848 C8.937999999999999,13.846 -8.863,13.844 -26.663,13.841 C-26.947,4.612 -27.230999999999998,-4.616999999999999 -27.516,-13.847 C-9.171999999999997,-13.841999999999999 9.171999999999997,-13.838000000000001 27.516,-13.833 C27.258,-4.606 26.999,4.621 26.74,13.848z"></path></g><g opacity="1" transform="matrix(1,0,0,1,570.654,250.751)"><path fill="rgb(91,60,0)" fill-opacity="1" d="M0 0 M-32.491,-18.769 C-25.6,-14.201999999999998 -18.421,-10.011 -11.882,-4.986 C0.7940000000000005,4.756000000000001 6.347999999999999,9.161999999999999 22.505,-7.392 C26.085,-11.061 28.13,-16.226999999999997 30.881,-20.705 C32.802,-5.493999999999998 22.841,10.004999999999999 7.696,15.37 C-7.366,20.705 -25.11,15.119 -32.802,2.62 C-32.698,-4.51 -32.595,-11.639999999999999 -32.491,-18.769z"></path></g><g opacity="1" transform="matrix(1,0,0,1,229.424,250.372)"><path fill="rgb(91,60,0)" fill-opacity="1" d="M0 0 M-31.244,-20.26 C-29.534,-17.296000000000003 -27.839000000000002,-14.322999999999999 -26.111,-11.37 C-20.287,-1.42 -12.464,5.704000000000001 -0.128,4.714 C8.222,4.043 14.423000000000002,-1.4489999999999998 20.521,-6.656 C24.565,-10.108 28.487000000000002,-13.702 32.465,-17.232 C32.568000000000005,-10.751999999999999 32.67100000000001,-4.272 32.773,2.208 C26.906000000000002,13.57 10.51,20.26 -3.462,16.992 C-21.252,12.832 -32.772999999999996,-2.617000000000001 -31.244,-20.26z"></path></g><g opacity="1" transform="matrix(1,0,0,1,399.947,330.706)"><path fill="rgb(151,100,0)" fill-opacity="1" d="M0 0 M25.754,7.558 C8.619,7.56 -8.515,7.562 -25.649,7.565 C-25.719,2.5790000000000006 -25.79,-2.407 -25.861,-7.393 C-8.914000000000001,-7.45 8.032,-7.507000000000001 24.979,-7.565 C25.272,-7.507000000000001 25.566,-7.463 25.861,-7.429 C25.826,-2.434 25.790000000000003,2.5619999999999994 25.754,7.558z"></path></g><g opacity="1" transform="matrix(1,0,0,1,280.404,237.445)"><path fill="rgb(69,45,0)" fill-opacity="1" d="M0 0 M-18.206,15.135 C-18.309,8.655 -18.410999999999998,2.176 -18.514,-4.304 C-18.468,-4.588 -18.422,-4.871 -18.376,-5.155 C-5.841000000000001,-15.135000000000002 6.273,-11.649999999999999 18.255,-4.01 C18.351,-3.727 18.438,-3.4419999999999997 18.514,-3.154 C18.21,2.4850000000000003 17.904999999999998,8.125 17.601,13.764 C9.411999999999999,8.428999999999998 0.702,5.932 -8.784,9.736 C-12.111,11.071000000000002 -15.076,13.309 -18.206,15.135z"></path></g><g opacity="1" transform="matrix(1,0,0,1,519.415,239.479)"><path fill="rgb(69,45,0)" fill-opacity="1" d="M0 0 M18.748,-7.497 C18.644000000000002,-0.3680000000000003 18.541,6.763000000000001 18.437,13.893 C7.618,3.4080000000000013 -4.243999999999998,4.265999999999999 -16.615,10.671 C-16.906,8.296 -17.177,5.917999999999999 -17.494,3.546 C-17.893,0.5699999999999998 -18.328,-2.402 -18.748,-5.375 C-18.685000000000002,-5.675 -18.587999999999997,-5.963 -18.458,-6.24 C-8.849999999999998,-12.833 1.4559999999999995,-13.892 12.385,-10.164 C14.423,-9.469 16.506,-8.908999999999999 18.569,-8.286 C18.636,-8.024 18.695,-7.762 18.748,-7.497z"></path></g><g opacity="1" transform="matrix(1,0,0,1,399.933,259.82)"><path fill="rgb(94,62,1)" fill-opacity="1" d="M0 0 M27.512,5.648 C9.167000000000002,5.643 -9.175999999999998,5.638999999999999 -27.52,5.635 C-27.692,2.2739999999999996 -27.864,-1.0869999999999997 -28.036,-4.449 C-28.014000000000003,-4.83 -27.992,-5.212000000000001 -27.969,-5.594 C-9.316000000000003,-5.612 9.338000000000001,-5.63 27.991,-5.648 C28.006,-5.2749999999999995 28.022000000000002,-4.901 28.036,-4.528 C27.862000000000002,-1.1349999999999998 27.687,2.256 27.512,5.648z"></path></g><g opacity="1" transform="matrix(1,0,0,1,465.362,247.078)"><path fill="rgb(90,64,6)" fill-opacity="1" d="M0 0 M-37.392,8.213 C-37.407000000000004,7.8389999999999995 -37.423,7.466 -37.438,7.093 C-35.496,6.83 -33.553999999999995,6.346 -31.612,6.338 C-15.349999999999998,6.277 0.9140000000000015,6.168 17.172,6.394 C21.597,6.455 23.173000000000002,5 22.788,0.665 C22.48,-2.794 22.668000000000003,-6.295999999999999 22.635,-9.78 C22.635,-9.78 22.749,-9.78 22.75,-9.78 C26.936,-10.844 31.121999999999996,-11.909 35.306,-12.973 C35.724,-10.001000000000001 36.160999999999994,-7.029 36.559,-4.053 C36.876999999999995,-1.681 37.147000000000006,0.6970000000000001 37.438,3.071 C37.085,4.003 36.671,4.916 36.388,5.868 C34.812,11.16 30.086,12.972999999999999 25.18,10.645 C22.358999999999998,9.306 19.125,8.14 16.065,8.111 C-1.7509999999999977,7.946000000000001 -19.573000000000004,8.139999999999999 -37.392,8.213z"></path></g><g opacity="1" transform="matrix(1,0,0,1,334.984,247.541)"><path fill="rgb(90,64,6)" fill-opacity="1" d="M0 0 M36.98,6.684 C36.958,7.066 36.936,7.447 36.913,7.829 C17.866999999999997,7.737 -1.1799999999999997,7.604 -20.227,7.633 C-21.704,7.636 -23.3,8.587 -24.634,9.426 C-30.713,13.25 -35.937,10.854 -36.979,3.668 C-36.675,-1.971 -36.371,-7.611999999999999 -36.066,-13.251 C-31.752000000000002,-11.927999999999999 -27.439,-10.604000000000001 -23.125,-9.281 C-23.126,-9.281 -23.039,-9.298 -23.039,-9.298 C-23.076,-6.311 -22.887999999999998,-3.298 -23.203,-0.34 C-23.703,4.363 -22.055999999999997,6.032 -17.141,5.947 C-1.0409999999999968,5.667 15.067999999999998,5.813 31.173,5.879 C33.108999999999995,5.887 35.044,6.4030000000000005 36.98,6.684z"></path></g><g opacity="1" transform="matrix(1,0,0,1,399.957,315.874)"><path fill="rgb(70,46,0)" fill-opacity="1" d="M0 0 M-36.956,-4.673 C-12.320000000000004,4.6739999999999995 12.317000000000004,4.6499999999999995 36.956,-4.665 C35.531000000000006,1.0350000000000001 31.418999999999997,3.48 26.019,4.364 C8.989999999999998,4.377 -8.039000000000001,4.391 -25.067,4.405 C-25.366,4.384 -25.666,4.367999999999999 -25.966,4.356 C-31.401,3.503 -35.599000000000004,1.1429999999999998 -36.956,-4.673z"></path></g><g opacity="1" transform="matrix(1,0,0,1,399.667,361.282)"><path fill="rgb(67,44,0)" fill-opacity="1" d="M0 0 M-36.439,-4.237 C-12.184000000000001,4.237 12.332999999999998,2.7180000000000004 36.44,-3.905 C34.980999999999995,1.669 31.026,3.828 25.62,4.007 C8.585,3.9789999999999996 -8.446000000000002,3.952 -25.478,3.926 C-31.118000000000002,3.873 -34.576,0.8890000000000002 -36.439,-4.237z"></path></g><g opacity="1" transform="matrix(1,0,0,1,400.016,321.775)"><path fill="rgb(92,60,0)" fill-opacity="1" d="M0 0 M-25.126,-1.496 C-8.098000000000003,-1.51 8.931000000000001,-1.524 25.959,-1.538 C25.926,-0.859 25.893,-0.18100000000000005 25.86,0.498 C25.543,0.7869999999999999 25.227,1.077 24.91,1.367 C7.963000000000001,1.424 -8.983,1.481 -25.93,1.538 C-25.94,0.8250000000000001 -25.948999999999998,0.11199999999999999 -25.959,-0.6 C-25.682,-0.899 -25.404,-1.198 -25.126,-1.496z"></path></g><g opacity="1" transform="matrix(1,0,0,1,399.737,366.717)"><path fill="rgb(92,60,0)" fill-opacity="1" d="M0 0 M-25.548,-1.51 C-8.515999999999998,-1.483 8.514,-1.456 25.548,-1.429 C25.459999999999997,-0.4650000000000001 25.369,0.5000000000000001 25.28,1.465 C8.566000000000003,1.48 -8.148,1.494 -24.862,1.51 C-25.090999999999998,0.5030000000000001 -25.319,-0.504 -25.548,-1.51z"></path></g><g opacity="1" transform="matrix(1,0,0,1,374.431,320.702)"><path fill="rgb(113,77,0)" fill-opacity="1" d="M0 0 M0.46,-0.424 C0.182,-0.126 -0.09699999999999998,0.174 -0.374,0.473 C-0.438,0.15999999999999998 -0.46,-0.15499999999999997 -0.44,-0.473 C-0.14,-0.46199999999999997 0.16100000000000003,-0.445 0.46,-0.424z"></path></g><g opacity="1" transform="matrix(1,0,0,1,425.401,322.775)"><path fill="rgb(113,77,0)" fill-opacity="1" d="M0 0 M-0.475,0.367 C-0.15799999999999997,0.07700000000000001 0.15899999999999997,-0.21300000000000002 0.475,-0.502 C0.45299999999999996,-0.16799999999999998 0.43,0.16699999999999998 0.408,0.502 C0.11199999999999999,0.469 -0.182,0.424 -0.475,0.367z"></path></g><g opacity="1" transform="matrix(1,0,0,1,400.119,77.087)"><path fill="rgb(253,243,209)" fill-opacity="1" d="M0 0 M-0.762,8.089 C-25.908,8.089 -51.054,8.11 -76.199,8.062 C-79.093,8.056 -82.507,8.636 -82.768,4.027 C-83.088,-1.6179999999999994 -80.542,-6.6000000000000005 -76.486,-6.807 C-61.029,-7.599 -45.557,-8.613 -30.09,-8.62 C1.0500000000000007,-8.636999999999999 32.189,-8.079 63.329,-7.678 C67.984,-7.618 72.633,-7.071 77.289,-6.835 C82.793,-6.557 82.817,-2.6499999999999995 82.951,1.354 C83.089,5.448 82.008,8.015 77.169,7.996 C51.190999999999995,7.896000000000001 25.215,7.948 -0.763,7.948 C-0.763,7.948 -0.762,8.089 -0.762,8.089z"></path></g><g opacity="1" transform="matrix(1,0,0,1,399.908,245.762)"><path fill="rgb(153,121,31)" fill-opacity="1" d="M0 0 M-27.944,8.464 C-29.88,8.183 -31.814,7.666 -33.75,7.658 C-49.855000000000004,7.5920000000000005 -65.964,7.446 -82.064,7.726 C-86.979,7.811 -88.627,6.142 -88.127,1.439 C-87.812,-1.5190000000000001 -88,-4.531 -87.963,-7.518 C-47.55899999999999,-7.595 -7.155000000000001,-7.609 33.248,-7.775 C51.53,-7.849 69.81,-8.225 88.09,-8.464 C88.122,-4.98 87.934,-1.477 88.242,1.982 C88.62700000000001,6.317 87.05199999999999,7.771 82.627,7.71 C66.369,7.484 50.105000000000004,7.594 33.843,7.655 C31.901000000000003,7.663 29.959,8.147 28.017,8.41 C9.364,8.428 -9.291,8.446 -27.944,8.464z"></path></g><g opacity="1" transform="matrix(1,0,0,1,231.183,81.429)"><path fill="rgb(233,221,198)" fill-opacity="1" d="M0 0 M-26.41,30.103 C-26.41,18.8 -27.764,7.005 -26.121,-4.358 C-22.941,-26.364 -4.809000000000001,-30.104 9.148,-28.022 C16.78,-26.883 21.144000000000002,-21.304000000000002 23.792,-14.387 C27.765,-4.006 27.401,6.755000000000001 26.668,17.631 C23.663999999999998,11.615 21.156,5.494 17.706,-0.04 C13.312999999999999,-7.084 6.721000000000001,-10.685 -1.848,-9.098 C-8.16,-7.929 -13.035,-4.031 -15.73,1.439 C-19.449,8.987 -22.119,17.055999999999997 -25.134,24.941 C-25.815,26.723 -26.066,28.669 -26.41,30.103z"></path></g><g opacity="1" transform="matrix(1,0,0,1,570.793,79.072)"><path fill="rgb(232,221,198)" fill-opacity="1" d="M0 0 M-27.088,27.156 C-27.088,16.865 -27.751,6.520999999999999 -26.916,-3.701 C-25.919,-15.898 -19.915999999999997,-22.623 -10.251,-24.645 C2.9459999999999997,-27.405 15.3,-23.296 20.765,-13.064 C23.825,-7.335 25.627,-0.7009999999999996 26.776,5.743 C27.751,11.215 26.977,16.997999999999998 26.977,23.648 C25.283,19.748 24.378,16.383 22.521,13.665 C18.901,8.366 15.453,2.6029999999999998 10.661,-1.473 C2.0549999999999997,-8.795 -9.164,-7.301 -15.482,2.031 C-19.5,7.968 -21.762999999999998,15.11 -24.674,21.772 C-25.442999999999998,23.532999999999998 -25.696,25.521 -26.186,27.405 C-26.186,27.405 -27.088,27.156 -27.088,27.156z"></path></g></g></g></svg>