<svg xmlns="http://www.w3.org/2000/svg" width="1200" height="1500" viewBox="0 0 1200 1500" preserveAspectRatio="xMidYMid meet" style="width: 100%; height: 100%;"><defs><clipPath id="animationMask_xxxrfxHD1S"><rect width="1200" height="1500" x="0" y="0"></rect></clipPath><clipPath id="P91AsgCvHw"><path fill="#ffffff" clip-rule="nonzero" d=" M679.084,756.477 C642.25,728 520.25,651.25 500.746,644.234 C479.601,636.6270000000001 457.476,640.269 439.582,653.007 C435.882,655.641 424.875,669.5 375.414,667.21 C369.984,666.9590000000001 363.5,673.875 345.076,670.168 C338.045,668.753 321.5,676.5 301.929,666.579 C289.5,672.625 278.83,671.456 275.786,671.311 C269.25,671 202.75,707.5 170.157,710.595 C159.26100000000002,711.63 145.02800000000002,706.3009999999999 139.817,706.544 C92.5,708.75 93.451,677.392 81.3,646.947 C68.25,614.25 71,596.25 65.782,590.003 C22,577.25 34,545 24.086,505.211 C14.375999999999998,466.237 24.75,447.5 26.708,434.023 C7.25,414 8.5,399.5 11.235,357.43 C14.543,306.533 21.064,290.766 32.609,274.56 C33.054,271.262 -7.5,248 17.064,185.783 C25.137,165.33599999999998 64.5,100.5 96.126,88.563 C116.321,80.941 139.59300000000002,76.87899999999999 161.06,78.675 C171.991,79.589 180.25,89.25 215.727,88.77 C247.498,88.33999999999999 295,74 388.253,109.939 C504.488,154.73499999999999 617.316,299.49600000000004 618.823,301.663 C634,314.25 742.75,363 827.701,398.504 C831.375,401.25 842.5,512.5 806.109,605.367 C764.414,711.77 680.6679999999999,757.702 679.084,756.477" fill-opacity="1"></path></clipPath><filter id="fi_LdXcdIdU6m"><feMorphology operator="dilate" in="SourceGraphic" radius="0"></feMorphology></filter><mask id="AzZqFpbgkl"><path fill="#ffffff" clip-rule="nonzero" stroke="#ffffff" d=" M679.084,756.477 C642.25,728 520.25,651.25 500.746,644.234 C479.601,636.6270000000001 457.476,640.269 439.582,653.007 C435.882,655.641 424.875,669.5 375.414,667.21 C369.984,666.9590000000001 363.5,673.875 345.076,670.168 C338.045,668.753 321.5,676.5 301.929,666.579 C289.5,672.625 278.83,671.456 275.786,671.311 C269.25,671 202.75,707.5 170.157,710.595 C159.26100000000002,711.63 145.02800000000002,706.3009999999999 139.817,706.544 C92.5,708.75 93.451,677.392 81.3,646.947 C68.25,614.25 71,596.25 65.782,590.003 C22,577.25 34,545 24.086,505.211 C14.375999999999998,466.237 24.75,447.5 26.708,434.023 C7.25,414 8.5,399.5 11.235,357.43 C14.543,306.533 21.064,290.766 32.609,274.56 C33.054,271.262 -7.5,248 17.064,185.783 C25.137,165.33599999999998 64.5,100.5 96.126,88.563 C116.321,80.941 139.59300000000002,76.87899999999999 161.06,78.675 C171.991,79.589 180.25,89.25 215.727,88.77 C247.498,88.33999999999999 295,74 388.253,109.939 C504.488,154.73499999999999 617.316,299.49600000000004 618.823,301.663 C634,314.25 742.75,363 827.701,398.504 C831.375,401.25 842.5,512.5 806.109,605.367 C764.414,711.77 680.6679999999999,757.702 679.084,756.477" fill-opacity="1" filter="null" stroke-width="10"></path></mask></defs><g clip-path="url(#animationMask_xxxrfxHD1S)"><g transform="matrix(1,0,0,1,180,700)" opacity="1" style="-webkit-user-select: none;"><path stroke-linecap="butt" stroke-linejoin="miter" fill-opacity="0" stroke-miterlimit="4" stroke="rgb(128,102,77)" stroke-opacity="1" stroke-width="15" d="M0 0 M678.584,755.977 C641.75,727.5 519.75,650.75 500.246,643.734 C479.101,636.1270000000001 456.976,639.769 439.082,652.507 C435.382,655.141 424.375,669 374.914,666.71 C369.484,666.4590000000001 363,673.375 344.576,669.668 C337.545,668.253 321,676 301.429,666.079 C289,672.125 278.33,670.956 275.286,670.811 C268.75,670.5 202.25,707 169.657,710.095 C158.76100000000002,711.13 144.52800000000002,705.8009999999999 139.317,706.044 C92,708.25 92.951,676.892 80.8,646.447 C67.75,613.75 70.5,595.75 65.282,589.503 C21.5,576.75 33.5,544.5 23.586,504.711 C13.875999999999998,465.737 24.25,447 26.208,433.523 C6.75,413.5 8,399 10.735,356.93 C14.043,306.033 20.564,290.266 32.109,274.06 C32.554,270.762 -8,247.5 16.564,185.283 C24.637,164.83599999999998 64,100 95.626,88.063 C115.821,80.441 139.09300000000002,76.37899999999999 160.56,78.175 C171.491,79.089 179.75,88.75 215.227,88.27 C246.998,87.83999999999999 294.5,73.5 387.753,109.439 C503.988,154.23499999999999 616.816,298.99600000000004 618.323,301.163 C633.5,313.75 742.25,362.5 827.201,398.004 C830.875,400.75 842,511.99999999999994 805.609,604.867 C763.914,711.27 680.1679999999999,757.202 678.584,755.977z"></path><g opacity="1" transform="matrix(1,0,0,1,0,0)"><path fill="rgb(255,204,153)" fill-opacity="1" d="M0 0 M678.584,755.977 C641.75,727.5 519.75,650.75 500.246,643.734 C479.101,636.1270000000001 456.976,639.769 439.082,652.507 C435.382,655.141 424.375,669 374.914,666.71 C369.484,666.4590000000001 363,673.375 344.576,669.668 C337.545,668.253 321,676 301.429,666.079 C289,672.125 278.33,670.956 275.286,670.811 C268.75,670.5 202.25,707 169.657,710.095 C158.76100000000002,711.13 144.52800000000002,705.8009999999999 139.317,706.044 C92,708.25 92.951,676.892 80.8,646.447 C67.75,613.75 70.5,595.75 65.282,589.503 C21.5,576.75 33.5,544.5 23.586,504.711 C13.875999999999998,465.737 24.25,447 26.208,433.523 C6.75,413.5 8,399 10.735,356.93 C14.043,306.033 20.564,290.266 32.109,274.06 C32.554,270.762 -8,247.5 16.564,185.283 C24.637,164.83599999999998 64,100 95.626,88.063 C115.821,80.441 139.09300000000002,76.37899999999999 160.56,78.175 C171.491,79.089 179.75,88.75 215.227,88.27 C246.998,87.83999999999999 294.5,73.5 387.753,109.439 C503.988,154.23499999999999 616.816,298.99600000000004 618.323,301.163 C633.5,313.75 742.25,362.5 827.201,398.004 C830.875,400.75 842,511.99999999999994 805.609,604.867 C763.914,711.27 680.1679999999999,757.202 678.584,755.977z"></path></g></g><g clip-path="url(#P91AsgCvHw)" transform="matrix(1,0,0,1,180,700)" opacity="1" style="-webkit-user-select: none;"><path fill="rgb(190,153,115)" fill-opacity="1" d="M0 0 M448.043,646.3009999999999 C447.75,651 427.875,674.741 382.639,680.583 C342.35200000000003,685.786 131.00300000000001,737.786 119.328,731.996 C107.166,725.9639999999999 82.56399999999996,689.621 91.93099999999998,692.966 C99.375,695.624 121.51500000000001,703.358 131.43800000000002,702.799 C154.50000000000003,701.5 161.24900000000002,703.5 170.90300000000002,703.4169999999999 C240.24900000000002,685 278.56100000000004,655.26 288.185,645.045 C333.94100000000003,596.48 292.207,549.271 281.283,537.029 C286,531.999 291,529 299.593,521.481 C303.847,534.112 313.5,578.5 354.418,611.992 C399.136,648.595 439.598,645.377 448.043,646.3009999999999zM0 0 M538,518.5 C538,518.5 503.5,568 509,612.5 C517,559.5 538,518.5 538,518.5zM0 0 M671.5,353.5 C671.5,353.5 669.5,436 635.5,523.25 C685,413.5 671.5,353.5 671.5,353.5zM0 0 M639,340.5 C639,340.5 641,397.5 620,437.25 C653,389.25 639,340.5 639,340.5zM0 0 M617.75,326.75 C617.75,326.75 583.75,401 545.25,435 C610.25,389.25 617.75,326.75 617.75,326.75zM0 0 M471.25,474.75 C471.25,474.75 391.5,516 321.75,406.5 C389,495.5 471.25,474.75 471.25,474.75zM0 0 M130,681.25 C130,681.25 122.5,667.75 118,645.25 C127.5,665.5 130,681.25 130,681.25zM0 0 M117.25,688.5 C117.25,688.5 105.25,671.5 103.25,645.25 C110.75,671.25 117.25,688.5 117.25,688.5zM0 0 M54.5,564.5 C54.5,564.5 45,546.25 47.25,519.25 C49,541.25 54.5,564.5 54.5,564.5zM0 0 M67.5,569.25 C67.5,569.25 56.5,546 60.25,518.5 C61.25,541.5 67.5,569.25 67.5,569.25zM0 0 M61.25,426.75 C61.25,426.75 55.75,407.25 61.75,381.625 C61.25,401.5 61.25,426.75 61.25,426.75zM0 0 M48.75,429.5 C48.75,429.5 44.5,396.75 51.75,374.125 C49.5,393.25 48.75,429.5 48.75,429.5zM0 0 M35.5,421.5 C35.5,421.5 27,400.625 35.875,377.125 C33.875,397 35.5,421.5 35.5,421.5zM0 0 M52,258 C52,258 47.5,221 57.375,192.625 C53.75,215.5 52,258 52,258zM0 0 M52,258 C52,258 47.5,221 57.375,192.625 C53.75,215.5 52,258 52,258zM0 0 M32.5,255.75 C32.5,255.75 28.5,217.5 36.625,192.625 C34.25,215.75 32.5,255.75 32.5,255.75z"></path><g opacity="1" transform="matrix(1,0,0,1,359.293,596.059)"></g><g opacity="1" transform="matrix(1,0,0,1,0,0)"></g><g opacity="1" transform="matrix(1,0,0,1,0,0)"></g><g opacity="1" transform="matrix(1,0,0,1,0,0)"></g><g opacity="1" transform="matrix(1,0,0,1,0,0)"></g><g opacity="1" transform="matrix(1,0,0,1,0,0)"></g><g opacity="1" transform="matrix(1,0,0,1,0,0)"></g><g opacity="1" transform="matrix(1,0,0,1,0,0)"></g><g opacity="1" transform="matrix(1,0,0,1,0,0)"></g><g opacity="1" transform="matrix(1,0,0,1,0,0)"></g><g opacity="1" transform="matrix(1,0,0,1,0,0)"></g><g opacity="1" transform="matrix(1,0,0,1,0,0)"></g><g opacity="1" transform="matrix(1,0,0,1,0,0)"></g><g opacity="1" transform="matrix(1,0,0,1,0,0)"></g><g opacity="1" transform="matrix(1,0,0,1,0,0)"></g></g><g transform="matrix(1,0,0,1,600,750)" opacity="1" style="-webkit-user-select: none;"><path fill="rgb(255,214,173)" fill-opacity="1" d="M0 0 M-251.5,556.25 C-323.174,580.824 -326.5,559.25 -331.5,571 C-335.616,580.672 -323,616.25 -254.5,586.5 C-206.851,565.806 -174.682,549.5419999999999 -173.005,542.112 C-171.932,537.36 -207.75,541.25 -251.5,556.25zM0 0 M-311,422.75 C-366.5,427 -380,402.25 -385,414 C-389.116,423.672 -394,495 -325.5,465.25 C-277.852,444.55600000000004 -231.932,426.0419999999999 -230.255,418.61199999999997 C-229.182,413.86 -264.885,419.21900000000005 -311,422.75zM0 0 M-317.5,263.25 C-373.25,258.25 -375.5,262.25 -386.75,286.75 C-395.334,305.44399999999996 -399.75,338.5 -331.25,305 C-284.58299999999997,282.178 -252.682,280.5419999999999 -251.005,273.11199999999997 C-249.932,268.36 -271.435,267.381 -317.5,263.25zM0 0 M-284.5,81.25 C-310.25,70.25 -321.724,66.57499999999999 -329.5,76.75 C-356.25,111.75 -383,132.25 -338.5,133.75 C-294.274,135.24099999999999 -278.749,140.452 -268.505,132.61199999999997 C-261.5,127.25 -258.776,92.23900000000003 -284.5,81.25zM0 0 M307,325.25 C276.25,311.75 225,285.5 221,291 C215.764,298.2 256.477,327.486 281.25,340.75 C313,357.75 385.75,381.5 389.495,370.61199999999997 C391.871,363.70399999999995 332.61400000000003,336.495 307,325.25zM0 0 M224.5,524.25 C198.5,509.75 146.786,485.441 143.25,491.25 C139.75,497 172.23700000000002,524.363 195.75,539.75 C229.75,562 289.28499999999997,583.713 292.995,573.612 C296.25,564.75 248.931,537.875 224.5,524.25z"></path><g opacity="1" transform="matrix(1,0,0,1,0,0)"></g><g opacity="1" transform="matrix(1,0,0,1,-60,-122)"></g><g opacity="1" transform="matrix(1,0,0,1,-62.5,-261)"></g><g opacity="1" transform="matrix(1,0,0,1,-26.5,-440)"></g><g opacity="1" transform="matrix(1,0,0,1,566.5,-185)"></g><g opacity="1" transform="matrix(1,0,0,1,473.5,17)"></g></g><g mask="url(#AzZqFpbgkl)" transform="matrix(1,0,0,1,180,700)" opacity="1" style="-webkit-user-select: none;"><path fill="rgb(128,102,77)" fill-opacity="1" d="M0 0 M284.5,541.25 C356,607.75 268.75,677 268.75,677 C268.75,677 265.5,678.5 265.75,674.75 C336.5,601.25 300.25,567.5 284.5,541.25zM0 0 M300,429.5 C300,429.5 308.5,440.5 306,477 C303.466,513.998 302.5,519 288,526.5 C273.5,534 248,542.5 230.5,550.5 C213,558.5 121.423,612.469 64,589.5 C59,587.5 121,612 190,580.5 C238.34199999999998,558.431 242,554 263,547 C281.669,540.777 288,531.5 294,526.5 C300,521.5 313,510 313,472.5 C313,435 300,429.5 300,429.5zM0 0 M287.5,285.5 C287.5,285.5 318.5,326 317,362.5 C315.5,399 308.5,421 238.5,431.5 C168.5,442 44,470 21,427.5 C18.55,422.973 33.509,460.343 98,458.5 C115.5,458 132,456 161,452.5 C190,449 271.5,436 289.5,427 C307.5,418 325.695,397.57 324,353.5 C322.5,314.5 287.5,285.5 287.5,285.5zM0 0 M214,132 C252,120 293.5,146.5 302,220 C296.5,296 262,309.5 192.5,294.5 C123,276.5 76,303.5 23.5,269 C30.5,277.5 51.5,298 115,294.5 C163.874,290.843 225,315 262.5,302.5 C300,290 309,249 308,221.5 C307,194 288,108 214,132zM0 0 M121.75,118.75 C121.75,118.75 146.25,116.5 211.5,148 C155.5,111 121.75,118.75 121.75,118.75zM0 0 M180.5,101 C180.5,101 191.5,116.25 201,141.25 C200,115.5 180.5,101 180.5,101z"></path><g opacity="1" transform="matrix(1,0,0,1,0,0)"></g><g opacity="1" transform="matrix(1,0,0,1,0,0)"></g><g opacity="1" transform="matrix(1,0,0,1,0,0)"></g><g opacity="1" transform="matrix(1,0,0,1,0,0)"></g><g opacity="1" transform="matrix(1,0,0,1,0,0)"></g><g opacity="1" transform="matrix(1,0,0,1,0,0)"></g></g><g transform="matrix(1,0,0,1,600,750)" opacity="1" style="-webkit-user-select: none;"><g opacity="1" transform="matrix(1,0,0,1,0,0)"><path stroke-linecap="butt" stroke-linejoin="miter" fill-opacity="0" stroke-miterlimit="4" stroke="rgb(128,102,77)" stroke-opacity="1" stroke-width="15" d="M0 0 M-83,-41.5 C-115.5,-43.5 -165.928,-46.105999999999995 -181,19.5 C-198,93.5 -216,113.5 -225.5,145 C-232.359,167.742 -252.5,199.5 -200.5,220.5 C-158.402,237.501 -53.5,170 -44,134 C-43.429,131.838 -81,282.5 33.5,296 C148,309.5 197.5,251 197.5,251 C197.5,251 166.927,176.155 150.5,114 C132,44 126.487,-16.993 2,-37 C-54,-46 -50.5,-39.5 -83,-41.5z"></path><path fill="rgb(255,204,153)" fill-opacity="1" d="M0 0 M-83,-41.5 C-115.5,-43.5 -165.928,-46.105999999999995 -181,19.5 C-198,93.5 -216,113.5 -225.5,145 C-232.359,167.742 -252.5,199.5 -200.5,220.5 C-158.402,237.501 -53.5,170 -44,134 C-43.429,131.838 -81,282.5 33.5,296 C148,309.5 197.5,251 197.5,251 C197.5,251 166.927,176.155 150.5,114 C132,44 126.487,-16.993 2,-37 C-54,-46 -50.5,-39.5 -83,-41.5z"></path></g></g><g transform="matrix(1,0,0,1,600,750)" opacity="1" style="-webkit-user-select: none;"><path fill="rgb(255,204,153)" fill-opacity="1" d="M0 0 M-44.5,137.5 C-56.75,162 -64,171 -101.724,200.297 C-133,233 -53.093,306.882 30,313.5 C143,322.5 185.5,264 222,270 C168,224 6.820999999999998,34.858999999999995 -44.5,137.5z"></path></g><g transform="matrix(1,0,0,1,600,750)" opacity="1" style="-webkit-user-select: none;"><g opacity="1" transform="matrix(1,0,0,1,0,0)"><path fill="rgb(128,102,77)" fill-opacity="1" d="M0 0 M-29.5,19.5 C-29.5,19.5 1.25,68.5 -42,118.5 C-11,71.75 -29.5,19.5 -29.5,19.5z"></path></g><g opacity="1" transform="matrix(1,0,0,1,0,0)"><path fill="rgb(128,102,77)" fill-opacity="1" d="M0 0 M-7,20.5 C-7,20.5 11.5,74.25 -35.25,116.5 C0.75,72 -7,20.5 -7,20.5z"></path></g><g opacity="1" transform="matrix(1,0,0,1,0,0)"><path fill="rgb(128,102,77)" fill-opacity="1" d="M0 0 M9.25,64.5 C9.25,64.5 -0.75,115.25 -41.25,126.5 C-8.25,109.75 9.25,64.5 9.25,64.5z"></path></g><g opacity="1" transform="matrix(1,0,0,1,7,17.5)"><path fill="rgb(128,102,77)" fill-opacity="1" d="M0 0 M24.75,71.75 C24.75,71.75 2.25,113.25 -51.5,115.5 C-13.5,109.5 24.75,71.75 24.75,71.75z"></path></g></g><g transform="matrix(1,0,0,1,600,750)" opacity="1" style="-webkit-user-select: none;"><path fill="rgb(190,153,115)" fill-opacity="1" d="M0 0 M-43.5,19.5 C-32,73 -44.861,142.305 -100.5,176.5 C-148.5,206 -205.5,230.75 -235.5,184 C-229.5,215 -202,223.5 -187,225 C-172,226.5 -132.5,216 -80.5,177.5 C-2.030000000000001,119.402 -37.5,26.75 -43.5,19.5z"></path><g opacity="1" transform="matrix(1,0,0,1,0,0)"></g></g><g transform="matrix(1,0,0,1,600,750)" opacity="1" style="-webkit-user-select: none;"><g opacity="1" transform="matrix(1,0,0,1,0,0)"><path fill="rgb(255,224,193)" fill-opacity="1" d="M0 0 M-159,100 C-194.463,105.599 -226.75,153.25 -230,168.5 C-230.5,179 -214.25,179.5 -175,172.5 C-135.75,165.5 -114,155.32999999999998 -114,124.5 C-114,106.5 -121,94 -159,100z"></path></g><g opacity="1" transform="matrix(1,0,0,1,0,0)"><path fill="rgb(255,234,214)" fill-opacity="1" d="M0 0 M-154.5,103 C-207,110 -220,160 -221.5,172.5 C-171.5,174.5 -130.5,155 -130.5,155 C-130.5,155 -102,96 -154.5,103z"></path></g></g><g transform="matrix(1,0,0,1,600,750)" opacity="1" style="-webkit-user-select: none;"><g opacity="1" transform="matrix(1,0,0,1,0,0)"><path fill="rgb(255,214,173)" fill-opacity="1" d="M0 0 M-129.25,-24 C-137.25,-16.5 -122.5,7.5 -74,-6 C-25.5,-19.5 88.5,19 102.5,18 C116.5,17 58.69,-13.358 -2.75,-25.25 C-49.25,-34.25 -121.25,-31.5 -129.25,-24z"></path></g><g opacity="0" transform="matrix(1,0,0,1,0,0)"><path fill="rgb(255,214,173)" fill-opacity="1" d="M0 0 M-39,171.5 C-53.902,168.87 -75.5,198 -80.5,214.5 C-85.5,231 -83.2,272.1 -77.5,274.5 C-68,278.5 -30.5,173 -39,171.5z"></path></g></g></g></svg>