<svg id="Layer_1" data-name="Layer 1" xmlns="http://www.w3.org/2000/svg" viewBox="0 0 800 800"><defs><style>.cls-1{fill:red;}</style></defs><title>Vandalism</title><path class="cls-1" d="M232,328c-51.28,50.85-107.34,99.06-168,138.45,29.23-34.34,63.57-63.68,94.86-96,8.27-8.55,48.09-42.77,46.83-54.69-1.1-10.39-6.63-21.06-17.4-8.67,11.07-13.48,34.51-34.38,7.48-38-15.56-2.11-79.81,57.9-95.44,68.24,5.74-6.05,50.49-38.39,29.43-45.35-17.29-5.72-49,38.18-59.16,50.33-8,9.63-38.33,43.23-8,40.7C86,381,127.21,342.24,145.81,329,120.89,359.39,91.19,389.22,69.5,422c-6.41,9.68-2.84,9.63-11.52,22.66-5.56,8.35-33.79,32.63-34.13,43.26-1.27,40.57,121.14-57.14,136-69.25-12.55,17.31-23.54,36.1-35.88,53.3-11.6,16.16-32.92,32.52-41.36,50.51-5.59,11.9-12.91,26.33,7.63,20.33,14.95-4.37,44.24-52.55,53.79-63.89,26.15-31.07,63.16-62.44,82.62-98.14,3.11-5.7-2.64-13.48-2.05-14.71,2.56-5.41,23.9-21.22,21.93-29.3C245.4,332.3,242.88,317.26,232,328Z"/><path class="cls-1" d="M647.22,305.19c-21.8,13-44.1,26.3-63,43.4-6.51,5.89-48.7,47.26-22,48.76-11.38,11.09-25.11,40.29,5.42,30.82-8.64,9-43.64,35.5-42.82,48.71,1.39,22.55,30.8,8.28,39.25,1.55-12.13,22.78-27.6,62.72,14.38,33.83-4.15,6-51.49,62.61-26.93,62.35,18.14-.19,41.68-50.38,51.8-65,8.54-12.31,48.15-54.74,42.7-69.86-6.65-18.45-58.5,42-65.32,47.29,6.06-11.4,33.4-40.59,33.82-51.94.57-15.66-5.48-20.28-19-8.63,9.35-9.79,49.77-42.23,49.05-54.51-1.33-23-23.11-3.14-33.38,4.17,10-9.73,22.38-18.88,30.7-29.93,7.69-10.22,2.4-12.5,5.84-19.19,1.43-2.78,14.87-6.23,13.55-11.53C659.72,309.51,656.57,299.63,647.22,305.19Z"/><path class="cls-1" d="M634.61,623.79c-94.69-6.55-189.45-15-284.25-19.52-41.89-2-84.8-2.4-125.25,10.35-14.55,4.59-70.48,29.61-32.14,35.07,10.51,1.5,44.62-19.31,57.72-22.07,15.16-3.2,30.85-4.54,46.31-5.21,46-2,92.52,2.94,138.32,6.23,42.51,3,85,6.25,127.51,9.19,12.25.85,62.59,11.76,71.79,5C640.37,638.54,652,625,634.61,623.79Z"/><path class="cls-1" d="M646.3,671.12C585.41,644.94,518,641.55,452.9,648.63c-37,4-73.4,11.7-109.6,20.07-13,3-63.62,9.13-37.31,27,12.23,8.3,79.09-17,95.14-20.07C434.89,669.17,469,664.5,503.43,664c33.61-.5,67.49,2.73,99.93,11.86,4.13,1.16,34.89,15.73,40.57,12.53S655.84,675.22,646.3,671.12Z"/><path class="cls-1" d="M661.09,696.73a628,628,0,0,0-158.86-6.22c-12.58,1.11-121.67,15.26-78.34,31.33,13.85,5.14,55-10.05,70.91-11.72a603,603,0,0,1,71.79-3.19c25.79.39,55.56,9.59,80.56,6.77C651.24,713.24,685.75,700.88,661.09,696.73Z"/><path class="cls-1" d="M578.16,266.48a339.94,339.94,0,0,1-47.65,23.17c16.65-20.61,56.75-65.06,3.24-45.37-37.35,13.74-72.68,32.31-110.58,45,32.89-28.24,68.48-55,99.39-85.32,15.78-15.5,13-18.44,25.93-31.17,11.11-11,30.58-15.11,40.38-27.63,40.68-51.94-32-21.57-55.43-12C492.69,150,450.5,172.5,406.92,180.58c20.37-18.31,48.7-31.68,72.9-43.82,16-8,63.78-18.44,74.91-31.55,13.6-16,.23-16.09-13.56-15.25-24.29,1.48-61.52,25.34-82.65,36.51-16.55,8.75-116.23,72.06-45.44,72.21,45.14.09,105.15-38.82,146.47-55.75-47,31.23-96.85,57.61-146.27,84.67-9.09,5-54.29,24.11-30.16,34.66,14.08,6.15,65.54-24.27,77.57-30.11-16,13.72-72.75,47.47-70.52,71.56C392.87,332.88,466,294,482,287.45c-11.11,9-54.69,31.28-48.07,47.72,7.76,19.27,54.75-29.41,62.4-34-7.26,9.45-49.17,50.72-46.09,63.23,5.89,23.89,39.24-7.2,49.95-14.45Q532.53,328.1,563,303.63c5.31-4.28,24.91-15.84,26.66-22.23C591.08,276.24,591.77,258.49,578.16,266.48Zm-70.63,51.09L518,314.31q-8.77,6.42-17.69,12.62Z"/><path class="cls-1" d="M163.59,174.76c-23.94,3.08-47.63,14.3-68.19,26.77-3.1-21.21-6-42.47-8.64-63.75-1.56-12.74,1.17-68.33-9-77C48.89,36.42,67.34,134.5,69.05,148c3.6,28.48-2,75.06,32.63,71.72,14.25-1.38,41.6-17.32,54.05-24.18C158,194.34,188.84,171.51,163.59,174.76Z"/><path class="cls-1" d="M227.31,109.29c-4.5-10.91-31.76-58.59-42.76-60.87C159.81,43.3,162.9,96,162.19,111.78c-1.18,26.39-2.42,76.24,35.26,77.1C236.56,189.77,238.34,136,227.31,109.29ZM214.2,149.52c-5,27.3-21.24,23-31,3-8.51-17.37-2.31-54,1.59-71.67C202.12,98.9,219,123,214.2,149.52Z"/><path class="cls-1" d="M356.39,127.9c-20.55,18-44.76,33.36-64.3,52.26-6.93-16.69-9.17-34.5-11.9-52.32-2.55-16.63-.13-63.23-10.27-75.68-29.31-36-10.06,66.43-8.42,77.3,4.9,32.31,6.15,84.5,48.48,60.94,15.3-8.52,43.38-28.39,52.57-42.79,2.72-4.26,13.68-9,8.91-15.94C368.19,126.88,362.66,122.41,356.39,127.9Z"/></svg>