<svg id="Layer_1" data-name="Layer 1" xmlns="http://www.w3.org/2000/svg" viewBox="0 0 800 800"><defs><style>.cls-1{fill:red;}</style></defs><title>Vandalism</title><path class="cls-1" d="M559.75,478.13c-8.46-64.14-62-124.64-132-124-30.88.28-50.8,22.57-81.22,22.2-34.36-.42-56.75-17.45-89.3,3.5-47.92,30.85-91.4,137.44-31.64,173.93C264.67,577.63,374.39,618.4,396,551.2,454.22,610.82,570.84,562.22,559.75,478.13Zm-15.32,39.79c-20.37,54.49-114.13,57.41-145.76,14.73-16-21.54-29.25-59.41-25.19-85.94,1-6.3,14.26-29,1.18-30.45-11.19-1.26-14.49,26.87-15,33.56-8.38-2.83-30.94-34.75-35.82-29.68-12.07,12.54,18.77,33.78,24.65,39.4,7.59,7.26,6.89,1.85,12.21,10.16,4.51,7,5,21.07,8.09,29.74,4.92,13.58,17.94,32.08,15.66,44.1-9.33,49.15-77.86,26.78-106.58,16.58-45.24-16.08-78.41-28.81-63.65-83.18,10.47-38.58,32.71-94.85,80.57-96.61,14.35-.53,36.82,9,53.54,9.55,18.5.64,27.77-5.46,44-12.66C469.85,342.82,576.14,433.08,544.42,517.92Z"/><path class="cls-1" d="M279.62,195.82c-3.72-7.46-30.42-53.41-36-31.45-.64,2.51,18.78,28.48,22.14,31.28C266.6,196.38,288.06,212.75,279.62,195.82Z"/><path class="cls-1" d="M304.17,143.53c-1.23,15-3.11,30.09-5.62,45-6.1-9-6.3-17.55-12.28-29.26-16.28-31.86-15.21,11.33-6.92,25.08,5.92,9.82,20.75,19.17,30.29,10.25,5-4.67,6.92-37.09,5.7-42.5C315.08,150.9,305.78,123.95,304.17,143.53Z"/><path class="cls-1" d="M339.05,147c-6.57,7.06-37.35,67.91-14.9,48.93,1.78-1.5,14.66-28.54,15.84-31.36C338.34,168.47,354.76,130.07,339.05,147Z"/><path class="cls-1" d="M390.75,137.47c-4-12-9.8.63-11.57,3.19-.34.48,9.5,49.07,9.15,48.93C408.73,197.32,394.42,148.47,390.75,137.47Z"/><path class="cls-1" d="M438.57,152.61A105,105,0,0,0,421.76,187c-.29-7.38,10.86-46.71,4.66-48.46-13.06-3.68-21.25,46-16.46,53.15,8.52,12.65,17.68,3.41,24.21-3.53,1.09-1.16,15.26-27.42,14.76-29.44C448.05,155.09,445.82,142.92,438.57,152.61Z"/><path class="cls-1" d="M475.05,177c-7.67,1.61-60.29,21.92-36.57,29.42,1.13.36,31.48-14,33.2-15.95C470.79,191.53,494.94,172.87,475.05,177Z"/><path class="cls-1" d="M745.82,222.19a640,640,0,0,0-62.35-28c6.18-11.07-1-25.59-7.23-36.3,7.21,1.68,22.63,10.77,25-.16,1.46-6.61-29.65-9.15-32.5-10.64-11.55-6-48.38-34.14-14.66-2.63-31.24-4.87,10.36,13.4,12.51,15.37C685,176.7,679,189.23,660.72,192c-35.94,5.39-91-60.62-43.91-70.94,16.54-3.63,39.54,16,48.15-14.13s-20.43-31-38-32.34c-8.55-.66-17,1.3-25.21-1.94-13-5.11-30.2-36.27-54.27-30.43-30.35,7.36-.4,15.92,2.44,29.16,1.34,6.25-4.75,13.56-3.75,20.61,2,14.35,10.42,16.24,18.52,25,.79.86,26.28,24.7,25.11,21.27,3.75,11-6.67,4.3-16.17,9.62-35.39,19.78-10,6.63,7.79,7,19.32.39,18.2,22.83,37.48,34.75,5.57,3.44,26,6.46,29.78,10.07,1,1,5.06,21,5.84,22.55,1.57,3.11,34.17,42.64,36.79,24.21.52-3.69-19.9-15.59-23.3-20-6.5-8.38-6.7-17-11.17-25.92,18.44,1.29,28,3.46,46.08,11.23C710,214.86,736.58,232,741.27,230,743.1,229.16,754.35,226.58,745.82,222.19ZM592.69,131.4c-10.25-13.57-32.49-20.46-37-39.09-2.38-9.93,5.26-16.12,1-25.85-1.35-3.07-15.43-13.75-15.38-13.86,6-12.6,49.18,16.47,53.43,20.55-13.49,3.12-24.62,21-21,34.17C577.35,120.82,595.59,119,592.69,131.4Zm-3.19-18.86c-13.47-6.7-6.59-24.27,5-30,4.67-2.3,16.8,1,22.35,1,14.48,0,59.17-.76,35.7,27.91-20,24.49-30.06-8.11-36.58-14.67q2.8-7.52-3.78-11.51-9.74,5-4.75,16.68,10.63,12.55-1.75,14.69A24.42,24.42,0,0,1,589.5,112.54Z"/><path class="cls-1" d="M760.11,155.06c-4.29-14.8-2.58-32.45-4.18-47.05-1.53-13.9,15.76-14.55-13.82-14.9C736.43,92.74,780,40,724.36,52c-32.12,6.92-39.65,25.67-54.9,52.05-20,34.66-5.17,26.36,11.1-1.5,16.9-29,26.85-41.38,62.85-43.69-4.24,13.83-21,44.33,5.46,43.53-9.59,16.37,3.66,38,2.77,55.77-.63,12.58,8.19,12.76-4.4,21.33-6.76,4.6-33.4-1.48-40.24-1-47,3.15,16.49,14,33.23,10.42C761.43,184.36,766.71,177.82,760.11,155.06Z"/><path class="cls-1" d="M637.13,249.94c-15.36-18.56-29.2-23.6-34.53,2.58-5.17,25.43,3,18.16,10.4-2.4-.18,7.31,7.51,73.22,19.28,62.6,1.08-1-10.49-58.17-10.2-65.17C620,245.75,648.94,264.2,637.13,249.94Z"/><path class="cls-1" d="M622.39,335.61c19.9-20.46-26.27-20.54-27.66.4C591.2,389.34,661.95,351,622.39,335.61Zm-6.53,22.08c-13-5.64-15.43-27.3.89-29.25-18,20.55,2.27,2.86,1.87,15C618.69,341.08,633.89,365.51,615.86,357.69Z"/><path class="cls-1" d="M674.36,316c-1.91-16.57-8.66,15.32-8.95,16.76-1.37,6.72-3.93,14.1-4.58,20.81,1.42-14.55-20-44.66-14.77-12,.87,5.51,6.64,21.74,14,21.8C676.25,363.54,675.44,325.39,674.36,316Z"/><path class="cls-1" d="M721.62,313.25l-13.85,6.8C703.14,304.29,686.31,263.48,692,302a161.17,161.17,0,0,1,5.86,16.52q6.63,11.46-11.76,12.21c-1.2,11.69,4.27,7.9,15.83,2.23.22.92,3,25.23,6.87,25,10.47-.68,2.43-12,4-17.38l-2.58-11.65,16-7.86C726.38,318.88,730.33,309,721.62,313.25Z"/><path class="cls-1" d="M764.92,289.31c-21.41,6.69-7-6.23-20.55-14.71-2.29-1.42-3.75-14-10.41-8-4,3.62,8.6,27.39,9.44,29.48-3,.94-21.44,4.14-22.28,9.41-1.34,8.34,8.88,2.44,10.51,3.7L741.74,306q9.68-5.79,9.48,9.34c2.92,1.77,4.1,20.09,12.3,12.72,3.88-3.49-7.27-24.12-8.16-26.31C765.46,301.15,773.48,286.63,764.92,289.31Z"/><path class="cls-1" d="M633.24,448.86c-4.42-7.54-24.24-33.33-25.37-43.83-.4-3.73,11.69-23.6,7.14-27.56-8.55-7.44-13.08,16.34-14.21,19.93-12.47-7.85-5.09,16.11-6.29,23.5-1.46,9-12.57,24.94-5.43,33.1,9.95,11.36,7.61-15.71,23.21-14.51C606.94,439.08,641.55,463,633.24,448.86ZM601.09,433.4l3.38-15.78,7.41,12.63Z"/><path class="cls-1" d="M669.58,424.71c-8.33-16.79-21.7-39-31.37-9-10.92-23.71-14.29,10.19-4.71,16.22,13.1,8.25,17.26-23.46,18.26-22.6,4.59,4,4.67,18.5,10.05,20C664.41,430,673.64,432.88,669.58,424.71Z"/><path class="cls-1" d="M698.79,438.94c-.23-11.74,2.19-25.37-4.58-34.79-1.51-2.1-8.49,10.19-8.74,10.32-.7.38,4.84-28.08,8.09-24-15.45-19.37-30.54,45-4,32.39.23,10,5.41,35.94-3,44.36-3.19,3.19-17.94,2-17.93,2.57.16,8.55,5.08,11.72,16.09,9.36C701.5,475.54,699,450.78,698.79,438.94Z"/><path class="cls-1" d="M739.76,427.63c-8.36,4.88-17.64-.34-21.29-7.92-4.91-10.21,14.35-17.33,8-28-11.43-19.18-20.84,9.72-20.34,19.22.46,8.66,4,17.91,13.5,23.26C743.72,447.76,744.37,424.94,739.76,427.63Zm-22-32.2Z"/><path class="cls-1" d="M750.38,344.95c-5.33-21.57-5.3,28.83-5.41,16.95.13,14.32,2.46,37.92,6.36,51.68,5.57,19.63,7.69,7.76,8.61-7.92C761.08,386.29,755,363.61,750.38,344.95Z"/><path class="cls-1" d="M649.4,548.65a157.22,157.22,0,0,1-34.51,9c4.84-19.77,11.51-47.66,7.26-68-7.09-33.91-9.67,27.54-10.6,35.56-2.1,18.22-14,35.38,6.27,41.2,3,.86,32.47-6.12,34-9.14C652.8,555.29,657.89,545.28,649.4,548.65Z"/><path class="cls-1" d="M669.4,485.81c-22.69-9.86-25,53.74-8.84,63.88C684.6,564.77,697.18,497.89,669.4,485.81Zm5.37,43.83c0-.16-4.22,17.68-8.36,13.22-9.59-10.35-5.86-38.23-2.64-49.92C676.85,503.58,679.87,511.64,674.77,529.64Z"/><path class="cls-1" d="M745.34,544.08c-13.77,2.41-31.64,5.88-37.54-6-5.41-10.92,15.61-59.83-1.23-57.6-5.36.71-9.76,61.46-5.9,66.79,5.76,8,48.11,13.36,50.23,2.61Q751.16,544.15,745.34,544.08Z"/><path class="cls-1" d="M64.95,585.6c-17.1-8-42.56-2.17-51.71,15.5C1.1,624.56,18.63,625.36,33,636.78c16.48,13.12,16.48,27,15.59,48.43-1.16,27.71-8.24,28.53-24,46.26-8.86,9.95-16.91,17,5,16.37,19.82-.61,30.93-26,34.41-41.41,3.74-16.61,4.84-45.11-1.16-61.1-.75-2-35.42-38.06-37.15-29.88-3.77-13.53,22.2-14.47,26.59-16C52.47,599.31,85.51,595.2,64.95,585.6Z"/><path class="cls-1" d="M142.08,759.48c-6.65.53-47,8.17-51.62,3.92s1.84-52.33,2.14-58.07c1.25-24.07,9.22-54.38,5-77.79-3.79-21-10.45-20.61-17-.39-7,21.72-3.59,51.35-4.81,74.3-.79,14.95-9.31,56-1,69.16,9.83,15.62,37.17,9.29,52.51,7.06,4.7-.69,17.73,1.07,20.9-4.33C151.18,768.24,150.58,758.8,142.08,759.48Z"/><path class="cls-1" d="M397.68,744.68c-1-11.62-13.33-20.14-23-22.3-17.86-4-.51,12.74.8,22.76.36,2.79-4,26.71-7.16,19.76,2,4.24-4.28,4.56,2.07,6.95C381.42,776,398.26,751.53,397.68,744.68Zm-12.53,10.45q-1.84-10.46-3.15-21C389.38,738.64,392.94,748.33,385.15,755.13Z"/><path class="cls-1" d="M422.52,731.15c-1.73,3.59-1.23,24.84-7.42,27-7.17,2.55-3.67-28.67-4-29.19-8.54-13.62-10.38,24.72-7,29.53C428.62,793,427.56,720.66,422.52,731.15Z"/><path class="cls-1" d="M457.63,734.79c-4.53-5.57-8.39,6.07-8.9,7.35-5.69-35.6-28.35,20.64-20.24,24.19,6.46,2.83,11.84-19.08,12.55-21.2.47,4.16,4.92,24.3,11.32,9.61C452.19,802,468.76,748.45,457.63,734.79Z"/><path class="cls-1" d="M583.88,724.67c-4.48,2.32-.68,16.12-.47,18.95,2.42,32.1,4.1,12.68,13.49-.57,4-5.63,28.35-16.05,14-26.15C604.67,712.54,589.38,721.82,583.88,724.67ZM601,732.56l-10.2,4.6c-1.12-9.85,7.22-11.54,16-13.13A17.76,17.76,0,0,1,601,732.56Z"/><path class="cls-1" d="M637.65,725c0,6.81-1.29,29.76-10.64,31.78-3.24.7,2-67.58-10.23-19-3.53,14.07.59,33.68,18,23.21,6.86-4.12,11.37-22.24,10.13-29C645.48,734.74,637.76,709.55,637.65,725Z"/></svg>