<svg id="Layer_1" data-name="Layer 1" xmlns="http://www.w3.org/2000/svg" viewBox="0 0 372 372"><defs><style>.cls-1{fill:red;}</style></defs><title>ExaminableButton</title><path class="cls-1" d="M186,35A151,151,0,0,1,292.77,292.77,151,151,0,1,1,79.23,79.23,150,150,0,0,1,186,35m0-35C83.28,0,0,83.28,0,186S83.28,372,186,372s186-83.28,186-186S288.72,0,186,0Z" transform="translate(0 0)"/><path class="cls-1" d="M138.44,82.75q20.34-19.51,55.23-19.51t56.06,18.85q21.16,18.85,21.17,52.75T251.72,184q-19.19,15.22-56.89,15.88v36.05H151.17V169.07H170q28.44,0,42.17-7.28t13.73-28.44q0-14.55-8.43-23.15t-23.15-8.6q-14.72,0-23.15,8.43t-8.43,23h-44Q118.09,102.26,138.44,82.75ZM155.31,306a26.75,26.75,0,0,1,0-37.7,27.17,27.17,0,0,1,37.7,0,26.75,26.75,0,0,1,0,37.7,27.16,27.16,0,0,1-37.7,0Z" transform="translate(0 0)"/></svg>