<svg id="Layer_1" data-name="Layer 1" xmlns="http://www.w3.org/2000/svg" viewBox="0 0 372 372"><defs><style>.cls-1{fill:red;}</style></defs><title>ExitButton</title><path class="cls-1" d="M186,35A151,151,0,0,1,292.77,292.77,151,151,0,1,1,79.23,79.23,150,150,0,0,1,186,35m0-35C83.28,0,0,83.28,0,186S83.28,372,186,372s186-83.28,186-186S288.72,0,186,0Z" transform="translate(0 0)"/><path class="cls-1" d="M171.7,260.1v24.13H89.34V260.1l17.19-5.82,56-68.22L111,118.4l-16.08-5.27v-23l83.19-1.39v24.4l-13.87,4.71,28.56,38.54L220,119l-15-5.82v-23l79.86-1.39v24.4l-18.3,5.55-51,65.17,54.07,70.71L289,260.1v24.13H203V260.1l12.76-4.44-30.5-41.59-31.06,40.49Z" transform="translate(0 0)"/></svg>