<?xml version="1.0" encoding="utf-8"?>
<!-- Generator: Adobe Illustrator 21.1.0, SVG Export Plug-In . SVG Version: 6.00 Build 0)  -->
<svg version="1.1" id="Layer_1" xmlns="http://www.w3.org/2000/svg" xmlns:xlink="http://www.w3.org/1999/xlink" x="0px" y="0px"
	 viewBox="0 0 372 372" style="enable-background:new 0 0 372 372;" xml:space="preserve">
<style type="text/css">
	.st0{fill:#CC3333;}
</style>
<g>
	<path class="st0" d="M186,35c40.3,0,78.3,15.7,106.8,44.2S337,145.7,337,186s-15.7,78.3-44.2,106.8S226.3,337,186,337
		s-78.3-15.7-106.8-44.2S35,226.3,35,186s15.7-78.3,44.2-106.8S145.7,35,186,35 M186,0C83.3,0,0,83.3,0,186s83.3,186,186,186
		s186-83.3,186-186S288.7,0,186,0L186,0z"/>
</g>
<g>
	<path class="st0" d="M138.4,82.7c13.6-13,32-19.5,55.2-19.5c23.3,0,41.9,6.3,56.1,18.9c14.1,12.6,21.2,30.2,21.2,52.8
		c0,22.6-6.4,39-19.2,49.1c-12.8,10.1-31.8,15.4-56.9,15.9v36.1h-43.7v-66.8H170c19,0,33-2.4,42.2-7.3c9.1-4.8,13.7-14.3,13.7-28.4
		c0-9.7-2.8-17.4-8.4-23.2c-5.6-5.7-13.3-8.6-23.2-8.6c-9.8,0-17.5,2.8-23.2,8.4s-8.4,13.3-8.4,23h-44
		C118.3,112.5,124.9,95.8,138.4,82.7z M155.3,306c-5.2-5.1-7.8-11.4-7.8-18.9c0-7.5,2.6-13.8,7.8-18.9c5.2-5.1,11.5-7.6,18.9-7.6
		c7.4,0,13.7,2.5,18.9,7.6c5.2,5.1,7.8,11.4,7.8,18.9c0,7.5-2.6,13.8-7.8,18.9c-5.2,5.1-11.5,7.6-18.9,7.6
		C166.8,313.6,160.5,311.1,155.3,306z"/>
</g>
</svg>
