<svg id="Layer_1" data-name="Layer 1" xmlns="http://www.w3.org/2000/svg" viewBox="0 0 9 9"><defs><style>.cls-1{fill:#0071bc;}.cls-2{fill:blue;}.cls-3{fill:#fff;}</style></defs><title>Blue Ball</title><circle class="cls-1" cx="4.5" cy="4.5" r="4.38"/><path class="cls-2" d="M4.5.24A4.26,4.26,0,1,1,.24,4.5,4.27,4.27,0,0,1,4.5.24M4.5,0A4.5,4.5,0,1,0,9,4.5,4.5,4.5,0,0,0,4.5,0Z"/><path class="cls-3" d="M3.24,1.79A4.56,4.56,0,0,0,1.63,4.07a.05.05,0,0,1-.1,0A2.16,2.16,0,0,1,3.19,1.7.05.05,0,0,1,3.24,1.79Z"/></svg>