<svg id="Layer_1" data-name="Layer 1" xmlns="http://www.w3.org/2000/svg" viewBox="0 0 148.06 77.42"><defs><style>.cls-1{fill:#f0f3a6;}.cls-2{fill:#b4b67c;}</style></defs><title>ButtonGlue</title><path class="cls-1" d="M146.5,25.21A89.82,89.82,0,0,1,145.24,36c.13.75.24,1.52.35,2.3.14.31.29.63.46.94.93,1.73,2.06,3,1.84,5.07-.19,1.72-1.47,2.65-1.87,4.24s-.22,2.9-1.32,4.22C142,56,136.4,55.58,132.72,57c-3,1.17-6.24,1-7.54,4-.89,2-4.06,7.83-3.37,10.1,1.2,4.19-7.17,5-8.42.84-1.05-3.68,2.05-7.26.83-10.88-.85-2.53-1.47-6.75-3.47-8.7-2.16-2.1-7.39-1.78-10.11-2.07l-1.52-.16c-4,.65-8,1.22-11.95,2.13-3.06.71-4.26,3.62-7.72,4.07a18.23,18.23,0,0,1-5.37,0C72.3,56,70.69,54.68,69,54.46c-2.65-.34-5.6,2.81-8.24,3.51-3.57.93-6.33-.61-9.26-2.49C49.21,54,46.2,52.61,43.7,50.89c-7.49,7-1.65,26.88-8.62,26.11-.57.72-2.46-25.12-3.22-24.73A5.11,5.11,0,0,1,28,52.7c-2.4-.77-2.16,9.14-6.37,11.67-2.62,1.57-1.31-7.54-3.06-9.89L15,49.72a3.43,3.43,0,0,1-4.57-2.2c-.52-1.52-4.78-2.44-6-3.38A6.59,6.59,0,0,1,1.5,37.7c.26-1.73,1.33-2.89,1.91-4.5.71-2-.24-3.51-.72-5.49-.89-3.69.28-6,1.68-9.29C7,12.16,11.6,5.75,17.9,2.59c2.65-1.33,6.24-2.27,9.08-1A5,5,0,0,1,29.4,3.87a7,7,0,0,1,1.2-.35,3.75,3.75,0,0,1,3.37,1,2,2,0,0,1,.72-.64,3.37,3.37,0,0,1,4.08-.52A12.12,12.12,0,0,1,40.94,5.2c4.56-.52,9.27-3.33,13.76-3.6a2.89,2.89,0,0,1,3.06,2.19,21.9,21.9,0,0,1,3-.42,5.47,5.47,0,0,1,2.82.07,3.06,3.06,0,0,1,2,1.55A16.65,16.65,0,0,0,71.72,3.9,4.29,4.29,0,0,1,73.8,2.26a3.36,3.36,0,0,1,3.07.39l.13.12a55.14,55.14,0,0,0,9.35,1.76c3.44.19,6.81-.67,10.2-1a46.74,46.74,0,0,1,11,.1c3.12.39,6.22,1.21,9.37.73,2.75-.42,5.27-1.37,8.1-1.36a84.17,84.17,0,0,1,9.73,1c5.09.6,9,1.9,8.58,7.59a5.39,5.39,0,0,1,2.49,1.24C148,15.1,148.6,19,149,22A3,3,0,0,1,146.5,25.21Z" transform="translate(-1.1 -0.45)"/><path class="cls-2" d="M146.58,25.28c0,.21,0,.42,0,.62l0,.68-.09,1.35q-.1,1.35-.24,2.7-.28,2.7-.72,5.38v-.09l.38,2.3,0-.08a26.05,26.05,0,0,0,1.41,2.5,6.31,6.31,0,0,1,1,2.86,5,5,0,0,1-.79,3A7.07,7.07,0,0,0,146.38,49a15.1,15.1,0,0,1-.61,2.92,5.8,5.8,0,0,1-2,2.39,14.74,14.74,0,0,1-5.61,2,31,31,0,0,0-5.52,1.38c-1.88.71-3.87.94-5.31,1.85a3.9,3.9,0,0,0-1.53,1.9l-1.22,2.64a26.2,26.2,0,0,0-1.93,5.25,4.87,4.87,0,0,0-.11,1.22l.11.62a2.84,2.84,0,0,1,.07.94,2.52,2.52,0,0,1-.22.95l-.21.45-.3.38a2.91,2.91,0,0,1-.68.62,3.7,3.7,0,0,1-.76.44,6.66,6.66,0,0,1-3.24.52,6.19,6.19,0,0,1-3.14-1.08c-.22-.19-.46-.37-.67-.59s-.38-.48-.55-.73-.26-.56-.37-.84-.13-.55-.19-.82a8.9,8.9,0,0,1,.14-3.19c.41-2,1.12-3.79,1.06-5.46a4.36,4.36,0,0,0-.19-1.19L113,60.17l-.78-2.78a18.19,18.19,0,0,0-1-2.57,5.27,5.27,0,0,0-1.42-1.94,5.82,5.82,0,0,0-2.26-.94,19.13,19.13,0,0,0-2.72-.38c-.94-.07-1.89-.11-2.87-.16-.49,0-1-.06-1.49-.11L99,51.16h.26c-2.47.4-4.93.78-7.36,1.21-1.22.22-2.43.46-3.63.72l-.9.2a5.56,5.56,0,0,0-.73.24,7,7,0,0,0-1.41.81,25.71,25.71,0,0,1-3.17,2.24,7.26,7.26,0,0,1-2,.71,16.53,16.53,0,0,1-2,.23,17.88,17.88,0,0,1-4-.14A14.71,14.71,0,0,1,70.36,56a5.77,5.77,0,0,0-1.5-.47,3.12,3.12,0,0,0-1.36.19,17.2,17.2,0,0,0-3.09,1.63A12.61,12.61,0,0,1,60.73,59a9.1,9.1,0,0,1-4.17,0c-2.73-.63-4.88-2.3-6.92-3.5s-4.37-2.38-6.5-3.85l1.22-.09a12,12,0,0,0-3.08,5.87,41.57,41.57,0,0,0-1,7c-.19,2.4-.26,4.83-.58,7.31a12.9,12.9,0,0,1-1,3.78,4,4,0,0,1-1.44,1.75,3.6,3.6,0,0,1-2.31.49l.76-.32a.93.93,0,0,1-.77.33.91.91,0,0,1-.51-.23.69.69,0,0,1-.17-.2l-.06-.1a1.68,1.68,0,0,1-.09-.24c0-.1-.05-.21-.07-.29L34,76.3l-.14-1-.22-1.88-.38-3.75-.7-7.49c-.24-2.49-.48-5-.79-7.45-.08-.61-.17-1.23-.29-1.8,0-.12-.08-.29-.08-.31l0,0a.49.49,0,0,0,.2.17.6.6,0,0,0,.47,0l.1,0h0l-.06,0-.24.11a6.35,6.35,0,0,1-1,.35,5.7,5.7,0,0,1-2.1.16,6.33,6.33,0,0,1-1-.21c-.08,0-.07,0-.23.11a4.65,4.65,0,0,0-.71,1.45c-.2.57-.37,1.17-.55,1.76-.35,1.2-.7,2.42-1.16,3.63a11.36,11.36,0,0,1-1.92,3.44,5.43,5.43,0,0,1-.74.72,3.64,3.64,0,0,1-1,.59,1.21,1.21,0,0,1-1.42-.42,3,3,0,0,1-.46-1,23.73,23.73,0,0,1-.47-3.82,25.64,25.64,0,0,0-.45-3.66,5.63,5.63,0,0,0-.26-.83,3,3,0,0,0-.43-.72L16.93,53l-2.21-3,.46.13a3.77,3.77,0,0,1-4.55-1.42,5.7,5.7,0,0,1-.55-1.09,1.84,1.84,0,0,0-.67-.69,11,11,0,0,0-2-1C6.7,45.58,6,45.31,5.25,45a5.84,5.84,0,0,1-1.08-.6,9.39,9.39,0,0,1-.91-.79,6.8,6.8,0,0,1-2.13-4.28,6.56,6.56,0,0,1,.22-2.42,11.1,11.1,0,0,1,1-2.17,9,9,0,0,0,.9-2.05,4.41,4.41,0,0,0-.06-2.16,21.75,21.75,0,0,1-1.11-4.56,10.9,10.9,0,0,1,.75-4.69C5,15.43,8.1,9.78,12.82,5.54A20.48,20.48,0,0,1,21,.86a10.26,10.26,0,0,1,4.87-.2,6,6,0,0,1,4.06,2.94l-.77-.3,1.28-.38a4.72,4.72,0,0,1,1.41-.07A4.18,4.18,0,0,1,34.45,4l-1,.12a2.67,2.67,0,0,1,1-.88l-.17.14A3.66,3.66,0,0,1,36.1,2.3a4.27,4.27,0,0,1,2.17,0,3.48,3.48,0,0,1,1,.49c.27.18.53.37.78.57A12.67,12.67,0,0,1,41.49,4.7l-.63-.24c2.89-.38,5.69-1.61,8.63-2.58A22.63,22.63,0,0,1,54.12.81a5.44,5.44,0,0,1,1.33,0,3.63,3.63,0,0,1,1.4.48,4,4,0,0,1,1.72,2.27l-1-.58,3.12-.45-.16,0a6.31,6.31,0,0,1,3.12,0,4.2,4.2,0,0,1,1.54.7,3.94,3.94,0,0,1,1.13,1.32l-.78-.47a15.79,15.79,0,0,0,5.82-1L71,3.42a4.75,4.75,0,0,1,1.29-1.34,5,5,0,0,1,1.67-.79,4.34,4.34,0,0,1,1.9,0,3.79,3.79,0,0,1,1.75.84l-.36-.18a60.51,60.51,0,0,0,8.61,1.73,36.77,36.77,0,0,0,8.68-.7,46.39,46.39,0,0,1,9-.47q2.27.11,4.51.42c1.5.21,3,.49,4.4.67a16.05,16.05,0,0,0,4.26.07c1.42-.19,2.85-.56,4.33-.86a18.11,18.11,0,0,1,4.58-.43,44.56,44.56,0,0,1,4.5.42l4.41.63A23.55,23.55,0,0,1,139,4.3,6.84,6.84,0,0,1,142.8,7a7.37,7.37,0,0,1,.86,4.56l-.28-.39a7.17,7.17,0,0,1,2.07.89,5.9,5.9,0,0,1,1.5,1.7,13,13,0,0,1,1.57,4.08,33.21,33.21,0,0,1,.62,4.28,2.78,2.78,0,0,1-.72,2.09A3.48,3.48,0,0,1,146.58,25.28Zm-.15-.13a5.06,5.06,0,0,0,1-.44,3.15,3.15,0,0,0,.78-.66,2.45,2.45,0,0,0,.57-1.88A36.75,36.75,0,0,0,148,18a12.44,12.44,0,0,0-1.6-3.86,5.32,5.32,0,0,0-1.35-1.47,6.5,6.5,0,0,0-1.88-.74l-.3-.08,0-.32a6.57,6.57,0,0,0-.85-4,6.06,6.06,0,0,0-3.38-2.25,22.6,22.6,0,0,0-4.28-.78L130,3.91a43.4,43.4,0,0,0-4.39-.33,16.79,16.79,0,0,0-4.27.48c-1.43.31-2.88.72-4.4,1a17.46,17.46,0,0,1-4.64,0c-1.51-.17-3-.45-4.43-.63s-2.91-.31-4.37-.37a44.78,44.78,0,0,0-8.74.52,38.14,38.14,0,0,1-9.06.78,61.78,61.78,0,0,1-8.88-1.7l-.21,0-.15-.13A2.39,2.39,0,0,0,74.35,3a3.3,3.3,0,0,0-1.06.52,3.17,3.17,0,0,0-.81.83l-.16.25-.26.1a17.53,17.53,0,0,1-6.49,1.13H65l-.25-.47a2.18,2.18,0,0,0-.62-.73,2.44,2.44,0,0,0-.92-.41A4.57,4.57,0,0,0,61,4.2h0l-.13,0-2.89.4-.77.11L56.94,4a2.3,2.3,0,0,0-1-1.33,1.93,1.93,0,0,0-.75-.26,3.91,3.91,0,0,0-1,0,21,21,0,0,0-4.29,1c-2.87.89-5.76,2.11-9,2.48l-.38,0-.25-.28a11.19,11.19,0,0,0-1.24-1.18c-.22-.18-.45-.36-.68-.52a2,2,0,0,0-.61-.31,2.76,2.76,0,0,0-2.66.61l-.09.09-.09,0a1.49,1.49,0,0,0-.49.4l-.45.76L33.49,5a2.88,2.88,0,0,0-1.76-.84,3.46,3.46,0,0,0-1,0l-1.07.3-.56.15-.22-.45a4.8,4.8,0,0,0-3.22-2.38,9.19,9.19,0,0,0-4.34.11,19.54,19.54,0,0,0-7.89,4.32c-4.66,4-7.73,9.57-9.92,15.3a10.23,10.23,0,0,0-.75,4.41,21.44,21.44,0,0,0,1.06,4.47,5.19,5.19,0,0,1,.06,2.44A9.56,9.56,0,0,1,2.89,35,10.54,10.54,0,0,0,2,37.07a5.93,5.93,0,0,0-.19,2.18,6.13,6.13,0,0,0,2,3.86,8.71,8.71,0,0,0,.85.73,5.2,5.2,0,0,0,1,.52c.69.3,1.42.57,2.15.87A11.57,11.57,0,0,1,9.82,46.3a2.51,2.51,0,0,1,.92,1,5,5,0,0,0,.49,1,3,3,0,0,0,3.65,1.11l.27-.12.19.25,2.26,3L18.73,54a4,4,0,0,1,.54.89,6.49,6.49,0,0,1,.32,1c.61,2.53.47,5.12,1,7.42a2,2,0,0,0,.3.67c.14.12.08.1.25.07a2.94,2.94,0,0,0,.63-.42,4.38,4.38,0,0,0,.6-.6,10.35,10.35,0,0,0,1.67-3.13c.42-1.15.74-2.34,1.07-3.55.17-.61.33-1.22.54-1.83a5.55,5.55,0,0,1,.95-1.9,1.58,1.58,0,0,1,.6-.43,1.33,1.33,0,0,1,.84-.06,5.1,5.1,0,0,0,.84.17,4.41,4.41,0,0,0,1.62-.15,5,5,0,0,0,.78-.29l.19-.09,0,0h0l.13,0a.75.75,0,0,1,.53,0,.9.9,0,0,1,.28.26l.07.13a3.11,3.11,0,0,1,.19.59c.15.66.24,1.28.34,1.91.36,2.5.63,5,.91,7.49l.82,7.47.43,3.72.24,1.85.14.9.08.42,0,.16v0l0-.05a.82.82,0,0,0-.13-.15.78.78,0,0,0-.46-.2.81.81,0,0,0-.72.3l.76-.32c1.86.35,2.48-2.31,2.74-4.57s.34-4.77.52-7.21a43.33,43.33,0,0,1,1-7.37A13.83,13.83,0,0,1,43,50.18l.57-.54.66.45c2,1.35,4.2,2.46,6.4,3.72,1.12.64,2.15,1.36,3.19,1.93A11.77,11.77,0,0,0,57,57a7,7,0,0,0,3.24,0,10.77,10.77,0,0,0,3.05-1.48,17.62,17.62,0,0,1,3.52-1.84,5.2,5.2,0,0,1,2.31-.28,7.78,7.78,0,0,1,2.06.64,13.29,13.29,0,0,0,3.23,1.25,15.82,15.82,0,0,0,3.49.13,14.76,14.76,0,0,0,1.73-.19,5.17,5.17,0,0,0,1.48-.51A25.38,25.38,0,0,0,84,52.65a9.1,9.1,0,0,1,1.83-1,7.6,7.6,0,0,1,1-.34l.93-.21c1.23-.27,2.47-.51,3.71-.72,2.47-.44,4.95-.81,7.4-1.2l.14,0h.13l1.44.15c.46,0,.92.08,1.39.11,1,.05,1.93.09,2.92.17a21.06,21.06,0,0,1,3,.43,7.72,7.72,0,0,1,3,1.31A7.12,7.12,0,0,1,113,54a20.05,20.05,0,0,1,1,2.87l.75,2.81.4,1.39a6.22,6.22,0,0,1,.24,1.66c0,2.23-.8,4.1-1.16,5.87s-.36,3.59.91,4.44a5.1,5.1,0,0,0,4.68.45A1.82,1.82,0,0,0,121.09,72a6.28,6.28,0,0,0-.17-1.3,6.33,6.33,0,0,1,.15-1.66,27.4,27.4,0,0,1,2.11-5.58l1.26-2.6a5.35,5.35,0,0,1,2.11-2.48c1.91-1.11,3.89-1.24,5.62-1.88a32.17,32.17,0,0,1,5.73-1.31,13.77,13.77,0,0,0,5.24-1.76,4.82,4.82,0,0,0,1.72-1.92,15,15,0,0,0,.61-2.73A7.74,7.74,0,0,1,146.77,46a4.18,4.18,0,0,0,.76-2.51c0-1.8-1.48-3.32-2.21-5.15l0,0v0L145,36v-.09q.51-2.65.87-5.33.18-1.34.32-2.68Z" transform="translate(-1.1 -0.45)"/></svg>