<svg id="Layer_1" data-name="Layer 1" xmlns="http://www.w3.org/2000/svg" viewBox="0 0 800 800"><defs><style>.cls-1{fill:#f0f3a6;}.cls-2{fill:#e6e6e6;stroke:#1a1a1a;stroke-width:1.43px;}.cls-2,.cls-5{stroke-miterlimit:10;}.cls-3{fill:#1a1a1a;}.cls-4{fill:#fff;opacity:0.7;}.cls-5{fill:#fcffbb;stroke:#3f402f;stroke-width:0.72px;}.cls-6{fill:#7e805e;}.cls-7{fill:#bdbf8c;}</style></defs><title>Vandalism</title><path class="cls-1" d="M609.64,554.25c-.5,3.91,0,2.32,2.95,2.8a6.06,6.06,0,0,1,3.87,2.55,8.19,8.19,0,0,1,1.33,3c5.12-3.55,11.7,2,12,7.7.26,4.74-1.62,9.41-1.54,14.2.05,3.94,1.41,8.37-1.36,11.71-2.35,2.84-6.74,1.72-8.35,4.76-1.74,3.28-1.82,6.17-5.34,8.24a4.08,4.08,0,0,1-5.75-1.71,16.29,16.29,0,0,1-2.3,3.63,12,12,0,0,1-7.84,4,4,4,0,0,1-4-2.75,2.36,2.36,0,0,1-.42-1.07,4.45,4.45,0,0,1-4.09-.8,8.27,8.27,0,0,1-1.09-1,5.88,5.88,0,0,1-3.78,1.06c-3.71-.14-7-3.08-9.08-5.92-5-6.74-6.3-16-5.75-24.06.3-4.25.3-7.31,3.24-10.73,1.58-1.83,3.42-3,3.73-5.41.25-2-.25-3.81.41-5.79a7.83,7.83,0,0,1,6.58-5.24c1.83-.31,6.84,1,8.21-.31a4.07,4.07,0,0,1,6,.15l6.28-3.13C606.7,548.53,610.11,550.65,609.64,554.25Z"/><path class="cls-1" d="M443,595c5-3,4.72-14.78,7.57-13.86a6.06,6.06,0,0,0,4.61-.51c.9-.47,3.14,30.23,3.82,29.37,9,1,0-27,12.92-32.82,4.33-1.95,2.84-9.12,5.09-13.35,1.84-3.48,5.07-6.81,4.12-11.05-.8-3.6-5.22-4.6-5.27-8-.06-3.71,1.19-6.32-1-9.77a4.08,4.08,0,0,0-5.9-1.09,16.29,16.29,0,0,0-.4-4.28,12,12,0,0,0-5.18-7.1,4,4,0,0,0-4.84.62,2.36,2.36,0,0,0-.86.76,4.45,4.45,0,0,0-4-1.15,8.27,8.27,0,0,0-1.43.41,5.88,5.88,0,0,0-2.88-2.66c-3.37-1.56-7.63-.44-10.78,1.14-7.48,3.75-12.89,11.37-16.07,18.81-1.67,3.92-3.06,6.65-2,11,.57,2.35,1.7,4.19.86,6.52-.69,1.91-2,3.28-2.27,5.34a7.83,7.83,0,0,0,3.48,7.66c1.49,1.11,6.55,2.21,7.17,4a4.07,4.07,0,0,0,5.43,2.61l4.17,5.65C441.44,586.05,439.89,596.87,443,595Z"/><path class="cls-1" d="M365.51,325.84c-2.4-3.13-1.63-1.66-4.07.08a6.06,6.06,0,0,1-4.55.91,8.19,8.19,0,0,1-3.05-1.19c-1.14,6.12-9.72,6.8-13.95,3-3.52-3.19-5.46-7.84-8.88-11.19-2.81-2.76-6.89-5-7.27-9.29-.32-3.67,3.59-6,2.6-9.26-1.06-3.55-3-5.67-2-9.62a4.08,4.08,0,0,1,5.3-2.82,16.29,16.29,0,0,1-.91-4.2,12,12,0,0,1,2.79-8.33,4,4,0,0,1,4.8-.87,2.36,2.36,0,0,1,1,.46,4.45,4.45,0,0,1,3.47-2.3,8.27,8.27,0,0,1,1.49,0,5.88,5.88,0,0,1,1.94-3.41c2.74-2.5,7.14-2.72,10.62-2.17,8.26,1.32,15.72,6.95,21,13.08,2.78,3.23,4.93,5.42,5.24,9.91.17,2.41-.36,4.51,1.15,6.48,1.23,1.61,2.86,2.53,3.78,4.41a7.83,7.83,0,0,1-1,8.35c-1.09,1.51-5.58,4.09-5.62,6A4.07,4.07,0,0,1,375,317.9q-1.14,3.32-2.27,6.65C371.63,327.85,367.7,328.73,365.51,325.84Z"/><path class="cls-1" d="M221,299.94c-3.71,1.34-2.07,1-1.15,3.9a6.06,6.06,0,0,1-.51,4.61A8.19,8.19,0,0,1,217.3,311c5.49,2.94,3.55,11.32-1.39,14.19-4.1,2.39-8.91,3.28-13.35,5.09C191,335,201,350,192,350c-3.69,0-1-15-8.53-20.87-2.93-2.28-6.32,1.19-9.77-1a4.08,4.08,0,0,1-1.09-5.9,16.29,16.29,0,0,1-4.28-.4,12,12,0,0,1-7.1-5.18,4,4,0,0,1,.62-4.84,2.36,2.36,0,0,1,.76-.86,4.45,4.45,0,0,1-1.15-4,8.27,8.27,0,0,1,.41-1.43,5.88,5.88,0,0,1-2.66-2.88c-1.56-3.37-.44-7.63,1.14-10.78,3.75-7.48,11.37-12.89,18.81-16.07,3.92-1.67,6.65-3.06,11-2,2.35.57,4.19,1.7,6.52.86,1.91-.69,3.28-2,5.34-2.27a7.83,7.83,0,0,1,7.66,3.48c1.11,1.49,2.21,6.55,4,7.17a4.07,4.07,0,0,1,2.61,5.43l5.65,4.17C224.78,294.71,224.44,298.72,221,299.94Z"/><path class="cls-1" d="M64.62,609.35c-3.82,1.28-7.22,3.27-7.91,7.54-.31,1.91.53,4.05,1.11,6.07-2.73-1-6.48,1.07-5.37,4.65l1.74,5.63a12.62,12.62,0,0,0-.4,3.63,12,12,0,0,0,5.55,9.49c2.88,2,6.86-1.33,5.88-4.52L62.8,634c1.22-1.92,3.13-3.86,3.51-5.57A11.39,11.39,0,0,0,66,623c-.64-2.44-2.52-4.87.8-6C71.61,615.44,69.53,607.71,64.62,609.35Z"/><path class="cls-1" d="M89.81,656.52c-1.38-5-9.1-2.85-7.71,2.13,1.3,4.68,1.57,9-.87,13.25-1.68,2.94-2.7,5.17-2,8.6,1.08,5,8.79,2.9,7.71-2.13-.31-1.43,2.12-3.76,2.69-5a15,15,0,0,0,1.16-4.47A30.83,30.83,0,0,0,89.81,656.52Z"/><path class="cls-1" d="M72.39,698.89c-1.32,7.39-6.58,13.52-2.46,21.09,2.46,4.52,9.37.49,6.91-4-2.33-4.27,2.51-10.65,3.27-14.92C81,696,73.29,693.82,72.39,698.89Z"/><path class="cls-1" d="M67.94,737.57c-3.43-3.86-9.07,1.82-5.66,5.66a18.3,18.3,0,0,1,3.27,18.93c-1.78,4.84,5.94,6.92,7.71,2.13A26.3,26.3,0,0,0,67.94,737.57Z"/><path class="cls-1" d="M107.73,747.69c-.1.72-3.39.84-4,1.13a5.58,5.58,0,0,0-3,3.36c-.9,2-.7,1.73-3.05,1.74a60,60,0,0,1-6.88-.4c-5.11-.56-5.07,7.44,0,8,5.25.58,13,1.87,16.18-3.58.45-.77,1.13-1.73.7-1.83,1.09-.14,2.45.07,3.52-.42a7.51,7.51,0,0,0,4.32-5.88C116.15,744.78,108.44,742.61,107.73,747.69Z"/><path class="cls-1" d="M146,715.72c-1.33-5-9-2.86-7.71,2.13.59,2.22,1.29,4.34.06,6.5a20.46,20.46,0,0,1-3.5,4c-2.37,2.38-4.87,5-7.83,6.59-4.52,2.46-.49,9.37,4,6.91s9-6.92,12.34-11C147.32,726.21,147.56,721.47,146,715.72Z"/><path class="cls-1" d="M139.06,668.82c-2.75-4.33-9.68-.33-6.91,4,3.49,5.49,1.16,12.28.3,18.33-.71,5,7,7.21,7.71,2.13C141.36,684.9,143.94,676.48,139.06,668.82Z"/><path class="cls-1" d="M132.32,645.85c-1.87-5-3.2-11.4-6.53-15.69-2.76-3.55-8.28-6.32-12.76-6.69-1.74-.14-4.73.93-5.67,0-1.24-1.18-1.24-3.82-2.78-5.21a9.51,9.51,0,0,0-4.7-2.13c-1.85-.36-5.38.32-6.85-.93-3.89-3.33-9.58,2.3-5.66,5.66,3.18,2.72,5.93,2.18,9.71,3,2.36.51,2.23,1.25,3.07,3.39a7.79,7.79,0,0,0,3.14,4,8.06,8.06,0,0,0,5.26.75c3.08-.43,5.15-.57,8,.93,5.12,2.71,6.17,9.86,8.08,15C126.39,652.76,134.13,650.69,132.32,645.85Z"/><path class="cls-1" d="M178.45,632.09a17.49,17.49,0,0,1-1.82-1.81c.92-4-.84-7.82-2.9-11.22a4.19,4.19,0,0,0-.78-.93,16.63,16.63,0,0,1,.56-2.6c1.5-4.94-6.22-7-7.71-2.13a23.26,23.26,0,0,0,7,24.34C176.68,641.08,182.36,635.44,178.45,632.09Z"/><path class="cls-1" d="M187.83,652.9c4.69-2.1.63-9-4-6.91-5.69,2.54-8.06,8.26-8.41,14.19a39.09,39.09,0,0,0,.68,9.39c.35,1.9,4,9.85,3.08,11.17-3.06,4.15,3.88,8.14,6.91,4,1.9-2.58,1.58-5.24.71-7.91a4,4,0,0,0,.75-4.91c-.42-.67-.81-1.35-1.18-2q-.25-.49-.49-1c-.08-.17-.62-1.45-.23-.49a4.4,4.4,0,0,0-1.84-2.39c-.08,0-.19-.08-.28-.12C182.74,660.83,183.1,655,187.83,652.9Z"/><path class="cls-1" d="M186.29,707.47c-1.83-1-.3-4.93-.23-6.49a12.36,12.36,0,0,0-.85-5.39c-1.37-3.39-4.15-6.39-6.28-9.34-3-4.14-9.92-.15-6.91,4,1.48,2.06,3.06,4.09,4.46,6.2,1.85,2.78,1.42,4.48,1.13,7.65-.39,4.24.75,8.09,4.64,10.24C186.76,716.88,190.8,710,186.29,707.47Z"/><path class="cls-1" d="M229.23,737.17c0,2-9.32,2.23-11.42,2.94-3.23,1.09-6.44,3.34-9.93,3.21-2.3-.08-6.43-1.94-8.71-2.89-4.6-1.91-5.85-6.79-7.13-11.18-1.43-4.94-9.15-2.84-7.71,2.13,1.65,5.69,3.77,11.82,9.07,15.14,2.39,1.49,5.18,1.91,7.69,3.07a14.64,14.64,0,0,0,8.07,1.73,29.11,29.11,0,0,0,8.4-2.55c3.52-1.44,6.57-1.58,10.28-2.1,5.12-.72,9.4-4,9.4-9.5C237.23,732,229.23,732,229.23,737.17Z"/><path class="cls-1" d="M255.7,702.64c-1.05-3.44-3.49-6.17-4.85-9.45-1.95-4.69-9.69-2.63-7.71,2.13,1.91,4.6,5.34,8.42,5.38,13.58,0,2.14,0,5.51-1.19,7.37-1.33,2.1-5.14,4-7.14,5.48-4.08,3-.09,10,4,6.91,5.73-4.27,10.79-7,11.79-14.46C256.53,710.35,256.86,706.43,255.7,702.64Z"/><path class="cls-1" d="M238.46,620.42c-4.21-3-8.21,4-4,6.91,3,2.12.73,5.06.77,8.12.06,3.71.81,6.75,0,10.5a4,4,0,0,0,.19,2.48l-.08.1a18,18,0,0,0-3.28,7.94c-.49,3.39.68,6.74-.08,10.08-1.38,6-5,10.71-2.52,17,1.83,4.76,9.57,2.69,7.71-2.13s2-9.55,2.84-14.28c.95-5.36-1.23-9.69,2.23-14.6a3.27,3.27,0,0,0,.36-3.55,4.27,4.27,0,0,0,.33-.94,28.45,28.45,0,0,0,.78-8.67,26.66,26.66,0,0,1,.57-8.25C245.2,626.25,242.16,623,238.46,620.42Z"/><path class="cls-1" d="M331.21,631.18c-2.1-4.57-4.82-5.64-9.26-7.84-3.81-1.88-7.76-4.37-12-4.94-5.66-.75-10.81,1.76-15.65,4.4a3.54,3.54,0,0,0-1.93,2.62,12.74,12.74,0,0,0-1.72-1.38c-4.3-2.86-8.31,4.06-4,6.91,5.79,3.86-.23,15.7-1.68,20.46-1.87,6.12-.11,9.14,5.46,11.81a24.92,24.92,0,0,1,7.79,5.19c.71.77,2.62,2.87,2.66,4.21-.13-.22-1,1.53-1.06,1.7-.86,2.3,0,3.58,1,5.57s.88,3.29,1.38,5.15a6.94,6.94,0,0,0-.15,1.26,5.05,5.05,0,0,0-.49.37c-1.9,1.71-2.24,3.83-2.06,6.27a31.7,31.7,0,0,0,.62,4.06q.21,1.12.53,2.21-.35-.62-.94.18c-4.18,4.16-11,4-12.79,10.52-1.71,6.33-1,14,.91,20.14s6.37,7.53,11.79,10.1c4.63,2.19,8.69-4.7,4-6.91-2.84-1.35-6.82-2.34-8.12-5.32-1.61-3.69-1.68-8.7-1.37-12.63.59-7.39,10-6.81,13.56-12.24,1.27-1.93,1.06-3.84.62-6-.26-1.27-1.09-3.18-1-4.59l.09-.06a3,3,0,0,0,1.12-1c2.6-3,2.49-12.07-.52-15.22a6,6,0,0,0,.7-2.28A11.32,11.32,0,0,0,307,667a22.43,22.43,0,0,0-5.79-6.56,31.62,31.62,0,0,0-3.5-2.41c-1.28-.76-3.67-1.34-4.68-2.35-.64-.64-.92-.54-1-.5a4.08,4.08,0,0,0,.54-1.67,41.54,41.54,0,0,1,1.67-4.79,41.85,41.85,0,0,0,2.26-9.25,20.16,20.16,0,0,0-1.1-9.41,3.8,3.8,0,0,0,2.85-.39c3-1.62,6.33-3.69,9.84-3.5,3.12.16,6.25,2.3,9,3.64,2,1,5.24,1.91,6.49,3.58,1,1.28,3.08,6.39,2.88,7.7-.79,5,6.92,7.21,7.71,2.13C334.91,638.62,333.1,635.3,331.21,631.18Z"/><path class="cls-1" d="M329.54,674.49c-2.84-.94-2.61-1.29-2.46-4.07a19.75,19.75,0,0,0,0-3.57c-.47-3.81-2.37-7.11-1.71-11.07.85-5-6.86-7.2-7.71-2.13a21.79,21.79,0,0,0-.05,8.25c.3,1.44.92,2.8,1.2,4.24a19.73,19.73,0,0,1-.07,5.85c-.45,5.74,3.74,8.58,8.66,10.21S334.42,676.1,329.54,674.49Z"/><path class="cls-1" d="M364,667.2c-2.34-4.59-9.25-.54-6.91,4,1.11,2.17.87,2.8-.73,4.52a14.46,14.46,0,0,0-2.23,3.94c-.57,1.14-.55.89-2.29,1.74-1.43.7-2.94,1.57-4.47,2.23-2.59-.72-6,1.36-5.22,4.84.87,3.66,4.45,4.11,7.46,2.86,3.23-1.34,7.88-3,10.3-5.58,1.12-1.21,1.19-2.63,1.94-4,.84-1.48,2.43-2.37,3.27-3.89C367.11,674.38,365.72,670.52,364,667.2Z"/><path class="cls-1" d="M378.57,625.51c-1.84,2-5.86,2.11-8.28,3.4a20.57,20.57,0,0,0-6.68,5.75c-.9,1.2-1.48,2.48-2.25,3.74a21.72,21.72,0,0,1-2.74,3c-2.13,2.4-2.15,5-1,7.75,1.8,4.24,7.52,1.39,7.23-2.64.78-1.3,2.73-2.87,3.38-4a16.22,16.22,0,0,1,4.12-5.43c3.66-2.81,8.56-2.38,11.83-5.85C387.76,627.42,382.11,621.76,378.57,625.51Z"/><path class="cls-1" d="M399.07,658.43c-.45-.53-1.82-1.35-2.13-1.91.31.56.26-2.62.26-2.53.07-2.14.61-4.28.42-6.42-.42-4.65-4-7.87-7.82-10.08-4.46-2.6-8.49,4.31-4,6.91,2,1.18,3.76,2.3,3.92,4.79.12,2-.49,4.13-.49,6.13a11.18,11.18,0,0,0,.69,4.84c.82,1.74,2.33,2.53,3.53,3.94C396.77,668,402.41,662.32,399.07,658.43Z"/><path class="cls-1" d="M402,672c-3.62-3.68-9.27,2-5.66,5.66,1.19,1.21,2.8,3.57,2.34,5.43-.32,1.3-1.84,2.41-2.17,4-.38,1.8.12,3.35.28,5.12.19,2.21-.52,4.33-.69,6.57-.4,5.13,7.6,5.11,8,0,.23-2.9.83-5.21.56-8.18-.23-2.51.67-2.41,1.47-4.9C407.71,680.78,405.43,675.5,402,672Z"/><path class="cls-1" d="M411.06,725.69a9.45,9.45,0,0,0-3.39-3.45c-2-1.24-2.84-1.21-3.29-3.64-.5-2.68-1.41-4.43-3.26-5.71,0-1.22.33-3.58.37-4.39.26-5.15-7.74-5.13-8,0-.12,2.43-.72,5.43.13,7.77a5.18,5.18,0,0,0,2.14,2.76,1.33,1.33,0,0,0,.69.22,2.58,2.58,0,0,0,0,.45c.35,2.2.55,4.1,2.06,5.9s4.61,2.42,5.61,4.13C406.73,734.18,413.65,730.16,411.06,725.69Z"/><circle class="cls-2" cx="190.75" cy="302.25" r="27.25"/><circle class="cls-3" cx="196.46" cy="310.81" r="13.98"/><path class="cls-4" d="M201.49,281.81c-3.89-4.15-22.7-6.2-30.3,8.51s1.94,26.28,3.93,27.4-10.67-11.88,2-28C186.6,277.6,200.55,282.91,201.49,281.81Z"/><path class="cls-4" d="M207.61,286.78c3.67-.14,10.39,11.38,5.11,25.17-3.71,9.7-9.7,8.85-5.14-3.42C212.34,295.74,207.28,288,207.61,286.78Z"/><circle class="cls-2" cx="448.75" cy="552.25" r="27.25"/><circle class="cls-3" cx="440.46" cy="561.81" r="13.98"/><path class="cls-4" d="M459.49,531.81c-3.89-4.15-22.7-6.2-30.3,8.51s1.94,26.28,3.93,27.4-10.67-11.88,2-28C444.6,527.6,458.55,532.91,459.49,531.81Z"/><path class="cls-4" d="M465.61,536.78c3.67-.14,10.39,11.38,5.11,25.17-3.71,9.7-9.7,8.85-5.14-3.42C470.34,545.74,465.28,538,465.61,536.78Z"/><circle class="cls-2" cx="599.75" cy="582.25" r="27.25"/><circle class="cls-3" cx="599.46" cy="591.81" r="13.98"/><path class="cls-4" d="M610.49,561.81c-3.89-4.15-22.7-6.2-30.3,8.51s1.94,26.28,3.93,27.4-10.67-11.88,2-28C595.6,557.6,609.55,562.91,610.49,561.81Z"/><path class="cls-4" d="M616.61,566.78c3.67-.14,10.39,11.38,5.11,25.17-3.71,9.7-9.7,8.85-5.14-3.42C621.34,575.74,616.28,568,616.61,566.78Z"/><circle class="cls-2" cx="353.75" cy="298.25" r="27.25"/><circle class="cls-3" cx="345.46" cy="306.81" r="13.98"/><path class="cls-4" d="M364.49,277.81c-3.89-4.15-22.7-6.2-30.3,8.51s1.94,26.28,3.93,27.4-10.67-11.88,2-28C349.6,273.6,363.55,278.91,364.49,277.81Z"/><path class="cls-4" d="M370.61,282.78c3.67-.14,10.39,11.38,5.11,25.17-3.71,9.7-9.7,8.85-5.14-3.42C375.34,291.74,370.28,284,370.61,282.78Z"/><path class="cls-5" d="M72.51,605.89C57.29,616,50.65,637.1,66.71,652.27c13,12.32,12.32-4.35,12.32-4.35s-19.53-15.18-2.9-30.43C84.83,609.52,72.51,605.89,72.51,605.89Z"/><path class="cls-6" d="M74.25,651.24c-1.56,2.09-.79,6.43,1.9,3.17S78.25,645.88,74.25,651.24Z"/><path class="cls-6" d="M74.65,610.54c1.42,1.63,5.93,3.84,3.07.24C74.61,606.86,70.93,606.26,74.65,610.54Z"/><path class="cls-7" d="M77.91,647c-1.05.43-4.22-2.3-6.12-4.83-8.7-11.59-1.46-21.73,5.62-25.93a16.16,16.16,0,0,1-1.27,1.3C62,630.46,74,643.38,77.91,647Z"/><path class="cls-5" d="M121.36,635.29c-2.42-18.13-18.42-33.35-39.1-25.6-16.8,6.3-1.51,13-1.51,13S103,611.8,109.35,633.45C112.69,644.76,121.36,635.29,121.36,635.29Z"/><path class="cls-6" d="M79.87,616.92c-1.19-2.32-5.43-3.54-3.68.31S82.92,622.86,79.87,616.92Z"/><path class="cls-6" d="M116.24,635.18c-2.08.56-6.06,3.63-1.56,2.65C119.56,636.76,121.72,633.71,116.24,635.18Z"/><path class="cls-7" d="M82.11,622.08c.08-1.13,3.92-2.78,7-3.37C103.38,616,109.3,627,110,635.16a16.16,16.16,0,0,1-.61-1.71C103.93,615,87,620.14,82.11,622.08Z"/><path class="cls-5" d="M135.58,661.2c6.7-17,.12-38.1-21.73-41.38-17.74-2.66-7.63,10.6-7.63,10.6s24.71,1.31,19.76,23.33C123.39,665.26,135.58,661.2,135.58,661.2Z"/><path class="cls-6" d="M108.25,625c.09-2.61-3-5.73-3.37-1.52S108,631.65,108.25,625Z"/><path class="cls-6" d="M131.16,658.61c-2.09-.53-7.06.23-2.65,1.56C133.29,661.61,136.66,660,131.16,658.61Z"/><path class="cls-7" d="M107.69,630.58c.62-1,4.78-.52,7.79.47,13.76,4.55,13.61,17,10.2,24.5a16.16,16.16,0,0,1,.3-1.79C130.19,635,112.94,631.28,107.69,630.58Z"/><path class="cls-5" d="M130.54,707.82c16.52-7.84,26.13-27.73,12.42-45.05-11.13-14.07-12.82,2.53-12.82,2.53s17.14,17.84-1.52,30.53C118.87,702.46,130.54,707.82,130.54,707.82Z"/><path class="cls-6" d="M135.35,662.7c1.85-1.85,1.71-6.25-1.42-3.41S130.62,667.42,135.35,662.7Z"/><path class="cls-6" d="M129.09,702.91c-1.17-1.81-5.31-4.66-3-.68C128.6,706.55,132.15,707.68,129.09,702.91Z"/><path class="cls-7" d="M131.12,666.4c1.1-.27,3.85,2.89,5.36,5.67,6.93,12.73-1.69,21.71-9.3,24.85a16.16,16.16,0,0,1,1.44-1.1C144.5,685,134.47,670.5,131.12,666.4Z"/><path class="cls-5" d="M165.89,600c-10.83,14.74-9.86,36.8,10.42,45.56,16.47,7.11,10.09-8.3,10.09-8.3s-23.55-7.59-13.14-27.61C178.71,599.2,165.89,600,165.89,600Z"/><path class="cls-6" d="M183,642c-.75,2.5,1.46,6.31,2.87,2.33S185,635.63,183,642Z"/><path class="cls-6" d="M169.5,603.65c1.89,1,6.88,1.58,3-.82C168.2,600.21,164.54,600.9,169.5,603.65Z"/><path class="cls-7" d="M185,636.75c-.84.76-4.76-.72-7.41-2.45-12.14-7.92-8.8-19.92-3.6-26.29a16.16,16.16,0,0,1-.75,1.65C164.4,626.7,180.12,634.73,185,636.75Z"/><path class="cls-5" d="M244.57,655.78c11.55-14.18,11.68-36.27-8.13-46-16.1-7.93-10.49,7.79-10.49,7.79s23.14,8.75,11.74,28.23C231.73,655.95,244.57,655.78,244.57,655.78Z"/><path class="cls-6" d="M229.54,613c.88-2.46-1.14-6.38-2.75-2.47S227.3,619.25,229.54,613Z"/><path class="cls-6" d="M241.15,652c-1.83-1.14-6.8-1.92-3,.68C242.28,655.47,246,655,241.15,652Z"/><path class="cls-7" d="M227.31,618.13c.88-.72,4.71,1,7.28,2.81,11.73,8.52,7.8,20.34,2.28,26.44a16.16,16.16,0,0,1,.83-1.61C247.39,629.2,232.09,620.39,227.31,618.13Z"/><path class="cls-5" d="M292.06,664.47c14.42-11.25,19.46-32.76,2.31-46.68-13.93-11.31-12,5.26-12,5.26s20.62,13.68,5.17,30.13C279.5,661.78,292.06,664.47,292.06,664.47Z"/><path class="cls-6" d="M286.93,619.38c1.4-2.2.31-6.47-2.13-3S283.34,625,286.93,619.38Z"/><path class="cls-6" d="M289.57,660c-1.53-1.52-6.2-3.39-3.08,0C289.89,663.66,293.6,664,289.57,660Z"/><path class="cls-7" d="M283.6,623.92c1-.5,4.38,2,6.47,4.36,9.54,10.91,3.08,21.56-3.66,26.28a16.16,16.16,0,0,1,1.17-1.39C300.72,639.19,287.76,627.2,283.6,623.92Z"/><path class="cls-5" d="M301.24,700.69c10.06-15.27,8-37.26-12.73-45-16.81-6.26-9.65,8.8-9.65,8.8s23.91,6.37,14.53,26.9C288.48,702.15,301.24,700.69,301.24,700.69Z"/><path class="cls-6" d="M282,659.6c.62-2.54-1.78-6.23-3-2.18S280.37,666.09,282,659.6Z"/><path class="cls-6" d="M297.45,697.24c-1.94-.95-7-1.23-2.92,1C298.92,700.61,302.54,699.73,297.45,697.24Z"/><path class="cls-7" d="M280.27,665c.8-.8,4.79.47,7.52,2.07,12.53,7.29,9.81,19.45,4.93,26.07a16.16,16.16,0,0,1,.66-1.69C301.36,674,285.26,666.74,280.27,665Z"/><path class="cls-5" d="M300.94,692.15c-14.28,11.42-19.08,33-1.77,46.7,14.06,11.15,11.9-5.39,11.9-5.39s-20.77-13.44-5.51-30.07C313.53,694.7,300.94,692.15,300.94,692.15Z"/><path class="cls-6" d="M306.59,737.18c-1.38,2.22-.23,6.48,2.16,3S310.11,731.5,306.59,737.18Z"/><path class="cls-6" d="M303.48,696.6c1.55,1.5,6.24,3.32,3.08,0C303.12,692.94,299.4,692.66,303.48,696.6Z"/><path class="cls-7" d="M309.86,732.6c-1,.52-4.41-1.93-6.52-4.29-9.66-10.8-3.33-21.52,3.36-26.32a16.16,16.16,0,0,1-1.15,1.4C292.57,717.53,305.66,729.37,309.86,732.6Z"/><path class="cls-5" d="M337.54,648.11c-3.66-17.92-20.67-32-40.77-22.85-16.33,7.44-.62,13-.62,13s21.43-12.37,29.28,8.79C329.54,658.16,337.54,648.11,337.54,648.11Z"/><path class="cls-6" d="M294.89,632.63c-1.35-2.24-5.66-3.16-3.65.56S298.34,638.35,294.89,632.63Z"/><path class="cls-6" d="M332.43,648.35c-2,.7-5.79,4-1.38,2.75C335.85,649.7,337.79,646.51,332.43,648.35Z"/><path class="cls-7" d="M297.47,637.63c0-1.13,3.72-3,6.78-3.85,14-3.68,20.68,6.84,21.9,15a16.16,16.16,0,0,1-.72-1.66C318.76,629.1,302.25,635.36,297.47,637.63Z"/><path class="cls-5" d="M392.77,622.78c-17.37-5.73-38,2-40.09,24-1.66,17.86,11,7,11,7s-.09-24.74,22.18-21C397.51,634.72,392.77,622.78,392.77,622.78Z"/><path class="cls-6" d="M358.14,652.11c-2.61.06-5.55,3.34-1.33,3.45S364.82,652,358.14,652.11Z"/><path class="cls-6" d="M390.43,627.34c-.41,2.12.63,7,1.7,2.56C393.3,625,391.51,621.77,390.43,627.34Z"/><path class="cls-7" d="M363.77,652.35c-1-.56-.79-4.74,0-7.8,3.77-14,16.21-14.54,23.88-11.57a16.16,16.16,0,0,1-1.8-.2C366.94,629.64,364.17,647.07,363.77,652.35Z"/><path class="cls-5" d="M400.33,675.38c10.29-15.12,8.53-37.13-12.05-45.16-16.72-6.52-9.78,8.66-9.78,8.66s23.81,6.73,14.12,27.12C387.56,676.65,400.33,675.38,400.33,675.38Z"/><path class="cls-6" d="M381.68,634c.66-2.53-1.68-6.26-2.95-2.23S380,640.48,381.68,634Z"/><path class="cls-6" d="M396.6,671.88c-1.92-1-6.94-1.33-2.93.93C398,675.27,401.66,674.45,396.6,671.88Z"/><path class="cls-7" d="M379.9,639.36c.81-.79,4.78.54,7.49,2.18,12.41,7.48,9.51,19.59,4.54,26.14a16.16,16.16,0,0,1,.69-1.68C400.86,648.66,384.87,641.2,379.9,639.36Z"/><path class="cls-5" d="M396,711.74c16-8.91,24.25-29.38,9.45-45.77-12-13.31-12.62,3.36-12.62,3.36s18.27,16.68.48,30.57C384,707.16,396,711.74,396,711.74Z"/><path class="cls-6" d="M397.81,666.4c1.72-2,1.3-6.35-1.64-3.31S393.41,671.42,397.81,666.4Z"/><path class="cls-6" d="M394.19,706.94c-1.28-1.73-5.61-4.3-3-.48C393.94,710.61,397.57,711.5,394.19,706.94Z"/><path class="cls-7" d="M393.83,670.38c1.08-.34,4,2.63,5.72,5.3,7.75,12.25-.27,21.78-7.65,25.41a16.16,16.16,0,0,1,1.37-1.19C408.4,688.09,397.44,674.25,393.83,670.38Z"/><path class="cls-5" d="M391.31,692.88c-8.64,16.12-4.57,37.83,16.74,43.64,17.31,4.72,8.82-9.64,8.82-9.64s-24.38-4.19-16.9-25.48C403.89,690.28,391.31,692.88,391.31,692.88Z"/><path class="cls-6" d="M414.22,732.06c-.39,2.58,2.33,6,3.17,1.9S415.22,725.45,414.22,732.06Z"/><path class="cls-6" d="M395.39,696c2,.77,7,.59,2.82-1.23C393.63,692.75,390.1,694,395.39,696Z"/><path class="cls-7" d="M415.42,726.56c-.73.87-4.81,0-7.68-1.38-13.13-6.13-11.52-18.48-7.27-25.52a16.16,16.16,0,0,1-.51,1.74C393.6,719.51,410.3,725.25,415.42,726.56Z"/><path class="cls-5" d="M323.88,642.62c-8.69,16.09-4.68,37.81,16.61,43.68,17.3,4.77,8.84-9.61,8.84-9.61s-24.37-4.26-16.82-25.53C336.46,640,323.88,642.62,323.88,642.62Z"/><path class="cls-6" d="M346.67,681.86c-.4,2.58,2.32,6.05,3.16,1.91S347.69,675.25,346.67,681.86Z"/><path class="cls-6" d="M328,645.72c2,.77,7,.62,2.82-1.23C326.19,642.49,322.66,643.68,328,645.72Z"/><path class="cls-7" d="M347.89,676.36c-.73.87-4.81-.05-7.67-1.4-13.11-6.17-11.47-18.51-7.19-25.54a16.16,16.16,0,0,1-.51,1.74C326.09,669.25,342.77,675,347.89,676.36Z"/><path class="cls-5" d="M333.83,691.81c18.29-.3,35.26-14.43,30-35.87-4.31-17.42-12.71-3-12.71-3s8.22,23.34-14,27.17C325.42,682.1,333.83,691.81,333.83,691.81Z"/><path class="cls-6" d="M356.88,652.73c2.45-.92,4.14-5,.12-3.69S350.63,655.07,356.88,652.73Z"/><path class="cls-6" d="M334.54,686.74c-.31-2.13-2.91-6.44-2.45-1.86C332.58,689.86,335.35,692.35,334.54,686.74Z"/><path class="cls-7" d="M351.49,654.35c1.11.21,2.31,4.22,2.54,7.38,1,14.45-10.53,19.07-18.75,18.78a16.16,16.16,0,0,1,1.77-.41C356,676.84,352.85,659.47,351.49,654.35Z"/><path class="cls-5" d="M189.23,634.85c-17.17,6.3-28.55,25.23-16.48,43.73,9.8,15,13-1.35,13-1.35S170.3,657.91,190,647C200.36,641.26,189.23,634.85,189.23,634.85Z"/><path class="cls-6" d="M180.32,679.35c-2,1.67-2.27,6.07,1.1,3.53S185.45,675.08,180.32,679.35Z"/><path class="cls-6" d="M190.23,639.87c1,1.91,4.86,5.12,2.93.95C191,636.29,187.61,634.84,190.23,639.87Z"/><path class="cls-7" d="M184.87,676c-1.12.17-3.57-3.22-4.82-6.13-5.74-13.31,3.67-21.47,11.53-23.9a16.16,16.16,0,0,1-1.54,1C173.25,656.27,181.91,671.65,184.87,676Z"/><path class="cls-5" d="M252.23,645.85c-17.17,6.3-28.55,25.23-16.48,43.73,9.8,15,13-1.35,13-1.35S233.3,668.91,253,658C263.36,652.26,252.23,645.85,252.23,645.85Z"/><path class="cls-6" d="M243.32,690.35c-2,1.67-2.27,6.07,1.1,3.53S248.45,686.08,243.32,690.35Z"/><path class="cls-6" d="M253.23,650.87c1,1.91,4.86,5.12,2.93.95C254,647.29,250.61,645.84,253.23,650.87Z"/><path class="cls-7" d="M247.87,687c-1.12.17-3.57-3.22-4.82-6.13-5.74-13.31,3.67-21.47,11.53-23.9a16.16,16.16,0,0,1-1.54,1C236.25,667.27,244.91,682.65,247.87,687Z"/><path class="cls-5" d="M231.42,732.86c17.41-5.59,29.56-24,18.27-43-9.17-15.42-13,.81-13,.81s14.63,20-5.54,30.06C220.56,726,231.42,732.86,231.42,732.86Z"/><path class="cls-6" d="M242.16,688.77c2.08-1.59,2.52-6-1-3.57S236.85,692.82,242.16,688.77Z"/><path class="cls-6" d="M230.63,727.8c-.92-2-4.65-5.32-2.88-1.07C229.66,731.35,233,732.94,230.63,727.8Z"/><path class="cls-7" d="M237.47,691.89c1.13-.12,3.43,3.37,4.57,6.32,5.19,13.53-4.55,21.3-12.5,23.41a16.16,16.16,0,0,1,1.57-.9C248.27,712.12,240.25,696.39,237.47,691.89Z"/><path class="cls-5" d="M190.45,718.63c8.25-16.32,3.67-37.92-17.78-43.22-17.42-4.3-8.58,9.85-8.58,9.85s24.48,3.61,17.5,25.07C177.95,721.54,190.45,718.63,190.45,718.63Z"/><path class="cls-6" d="M166.62,680c.33-2.59-2.48-6-3.21-1.83S165.78,686.64,166.62,680Z"/><path class="cls-6" d="M186.3,715.64c-2-.72-7.05-.43-2.79,1.3C188.15,718.82,191.65,717.53,186.3,715.64Z"/><path class="cls-7" d="M165.55,685.54c.7-.89,4.81-.08,7.71,1.19,13.28,5.81,12,18.2,7.87,25.34a16.16,16.16,0,0,1,.47-1.75C187.53,692.06,170.7,686.73,165.55,685.54Z"/><path class="cls-5" d="M198.07,696.91c-14.18,11.55-18.77,33.16-1.33,46.72,14.16,11,11.85-5.51,11.85-5.51s-20.9-13.24-5.8-30C210.68,699.33,198.07,696.91,198.07,696.91Z"/><path class="cls-6" d="M204.15,741.88c-1.36,2.23-.17,6.48,2.19,3S207.61,736.17,204.15,741.88Z"/><path class="cls-6" d="M200.65,701.33c1.56,1.48,6.27,3.26,3.08-.06C200.26,697.67,196.54,697.43,200.65,701.33Z"/><path class="cls-7" d="M207.38,737.27c-1,.53-4.42-1.89-6.56-4.22-9.77-10.71-3.53-21.49,3.11-26.35a16.16,16.16,0,0,1-1.14,1.41C189.94,722.37,203.15,734.08,207.38,737.27Z"/><path class="cls-5" d="M194.92,741.53c15.57,9.59,37.49,6.82,44.56-14.1,5.75-17-9.1-9.38-9.1-9.38s-5.64,24.09-26.44,15.34C193.06,728.83,194.92,741.53,194.92,741.53Z"/><path class="cls-6" d="M235.39,721c2.55.55,6.17-2,2.09-3S228.86,719.61,235.39,721Z"/><path class="cls-6" d="M198.24,737.64c.89-2,1-7-1.06-2.89C194.92,739.21,195.91,742.81,198.24,737.64Z"/><path class="cls-7" d="M230,719.48c.83.78-.33,4.8-1.83,7.58-6.9,12.74-19.14,10.4-25.91,5.73a16.16,16.16,0,0,1,1.71.61C221.63,740.84,228.36,724.52,230,719.48Z"/><path class="cls-5" d="M112.42,745.6c18.28.55,35.9-12.77,31.6-34.43-3.49-17.6-12.56-3.6-12.56-3.6s7.12,23.7-15.28,26.48C104.49,735.51,112.42,745.6,112.42,745.6Z"/><path class="cls-6" d="M137.29,707.64c2.49-.8,4.37-4.78.29-3.68S130.93,709.69,137.29,707.64Z"/><path class="cls-6" d="M113.37,740.57c-.21-2.15-2.6-6.57-2.36-2C111.27,743.59,113.92,746.22,113.37,740.57Z"/><path class="cls-7" d="M131.83,709c1.1.26,2.11,4.32,2.19,7.49.37,14.49-11.41,18.55-19.61,17.88a16.16,16.16,0,0,1,1.79-.32C135.24,731.69,132.94,714.19,131.83,709Z"/><path class="cls-5" d="M68.58,696.61c16.81-7.19,27.19-26.69,14.17-44.53-10.57-14.49-12.91,2-12.91,2s16.43,18.5-2.71,30.45C57.13,690.8,68.58,696.61,68.58,696.61Z"/><path class="cls-6" d="M75.15,651.72c1.92-1.77,2-6.18-1.28-3.46S70.24,656.25,75.15,651.72Z"/><path class="cls-6" d="M67.32,691.65c-1.09-1.86-5.13-4.86-3-.8C66.69,695.28,70.2,696.54,67.32,691.65Z"/><path class="cls-7" d="M70.78,655.26c1.11-.23,3.73,3,5.14,5.87,6.43,13-2.54,21.63-10.26,24.47a16.16,16.16,0,0,1,1.48-1C83.42,674.39,74,659.48,70.78,655.26Z"/><path class="cls-5" d="M85.83,683.79c-17.74,4.43-31.09,22-21.07,41.72,8.13,16,13.06.05,13.06.05s-13.28-20.88,7.52-29.63C96.21,691.34,85.83,683.79,85.83,683.79Z"/><path class="cls-6" d="M72.21,727.07c-2.18,1.44-2.91,5.79.72,3.62S77.77,723.37,72.21,727.07Z"/><path class="cls-6" d="M86.29,688.88c.79,2,4.29,5.61,2.81,1.26C87.49,685.41,84.22,683.6,86.29,688.88Z"/><path class="cls-7" d="M77.09,724.27c-1.13,0-3.2-3.59-4.14-6.61-4.28-13.84,5.95-21,14-22.53a16.16,16.16,0,0,1-1.63.79C67.65,703.37,74.62,719.59,77.09,724.27Z"/><path class="cls-5" d="M74.93,773.88c11.82-14,12.38-36-7.24-46.17-15.94-8.24-10.64,7.58-10.64,7.58s23,9.2,11.19,28.45C62.09,773.8,74.93,773.88,74.93,773.88Z"/><path class="cls-6" d="M60.73,730.78c.92-2.44-1-6.4-2.7-2.52S58.37,737,60.73,730.78Z"/><path class="cls-6" d="M71.59,770c-1.81-1.17-6.76-2.05-3,.62C72.64,773.53,76.35,773.09,71.59,770Z"/><path class="cls-7" d="M58.4,735.9c.89-.7,4.69,1,7.22,3,11.56,8.74,7.4,20.48,1.77,26.48a16.16,16.16,0,0,1,.86-1.6C78.27,747.36,63.14,738.26,58.4,735.9Z"/><path class="cls-5" d="M79.87,757.07C97.1,763.19,118,755.89,120.48,734c2.06-17.82-10.86-7.26-10.86-7.26s-.47,24.74-22.64,20.54C75.4,745,79.87,757.07,79.87,757.07Z"/><path class="cls-6" d="M115.14,728.53c2.61,0,5.63-3.22,1.41-3.42S108.46,728.53,115.14,728.53Z"/><path class="cls-6" d="M82.31,752.57c.45-2.11-.47-7-1.64-2.6C79.39,754.81,81.11,758.11,82.31,752.57Z"/><path class="cls-7" d="M109.53,728.16c1,.59.69,4.76-.21,7.8-4.08,13.91-16.53,14.18-24.13,11a16.16,16.16,0,0,1,1.8.24C105.85,750.8,109,733.43,109.53,728.16Z"/></svg>