<svg xmlns="http://www.w3.org/2000/svg" width="1400" height="150" viewBox="0 0 1400 150" preserveAspectRatio="xMidYMid meet" style="width: 100%; height: 100%;"><defs><clipPath id="animationMask_hpXIunW4Jn"><rect width="1400" height="150" x="0" y="0"></rect></clipPath></defs><g clip-path="url(#animationMask_hpXIunW4Jn)"><g transform="matrix(1,0,0,1,-24,-1.5)" opacity="1" style="-webkit-user-select: none;"><g opacity="1" transform="matrix(1,0,0,1,0,0)"><path fill="rgb(247,247,199)" fill-opacity="1" d="M0 0 M1287.889,29.909 C1287.889,29.909 1250.008,83.452 1250.008,83.452 C1250.008,83.452 1291.722,131.462 1291.722,131.462 C1291.722,131.462 1301.597,127.849 1301.597,127.849 C1301.597,127.849 1308.885,97.938 1308.885,97.938 C1308.885,97.938 1308.321,61.935 1308.321,61.935 C1308.321,61.935 1299.546,33.986 1299.546,33.986 C1299.546,33.986 1287.889,29.909 1287.889,29.909zM0 0 M1295.375,68.75 C1292.89,68.75 1290.875,74.682 1290.875,82 C1290.875,89.318 1292.89,95.25 1295.375,95.25 C1297.86,95.25 1299.875,89.318 1299.875,82 C1299.875,74.682 1297.86,68.75 1295.375,68.75z"></path><g opacity="1" transform="matrix(1,0,0,1,1295.375,82)"><path fill="rgb(34,34,34)" fill-opacity="1" d="M0 0 M0,-13.25 C-2.485,-13.25 -4.5,-7.318 -4.5,0 C-4.5,7.318 -2.485,13.25 0,13.25 C2.485,13.25 4.5,7.318 4.5,0 C4.5,-7.318 2.485,-13.25 0,-13.25z"></path><path stroke-linecap="butt" stroke-linejoin="miter" fill-opacity="0" stroke-miterlimit="4" stroke="rgb(255,255,255)" stroke-opacity="1" stroke-width="0" d="M0 0 M0,-13.25 C-2.485,-13.25 -4.5,-7.318 -4.5,0 C-4.5,7.318 -2.485,13.25 0,13.25 C2.485,13.25 4.5,7.318 4.5,0 C4.5,-7.318 2.485,-13.25 0,-13.25z"></path></g></g><g opacity="1" transform="matrix(1,0,0,1,130.728,81)"><path fill="rgb(232,232,187)" fill-opacity="1" d="M0 0 M-130.728,-81 C-130.728,-81 1317.272,-81 1317.272,-81 C1317.272,-81 1317.272,72 1317.272,72 C1317.272,72 -130.728,72 -130.728,72 C-130.728,72 -130.728,-81 -130.728,-81zM0 0 M-130.728,72 C-130.728,72 1317.272,72 1317.272,72 C1317.272,72 1317.272,-81 1317.272,-81 C1317.272,-81 -130.728,-81 -130.728,-81 C-130.728,-81 -130.728,72 -130.728,72zM0 0 M102.272,-51 C102.272,-51 -100.41,-1.777 -100.41,-1.777 C-102.273,-1.325 -102.273,1.325 -100.41,1.777 C-100.41,1.777 102.272,51 102.272,51 C102.272,51 102.272,-51 102.272,-51z"></path><g opacity="1" transform="matrix(1,0,0,1,0,0)"></g></g><g opacity="1" transform="matrix(1,0,0,1,131.814,69)"><path fill="rgb(239,239,193)" fill-opacity="1" d="M0 0 M-131.814,-69 C-131.814,-69 1316.186,-69 1316.186,-69 C1316.186,-69 1316.186,84 1316.186,84 C1316.186,84 -131.814,84 -131.814,84 C-131.814,84 -131.814,-69 -131.814,-69zM0 0 M-131.814,84 C-131.814,84 1316.186,84 1316.186,84 C1316.186,84 1316.186,-69 1316.186,-69 C1316.186,-69 -131.814,-69 -131.814,-69 C-131.814,-69 -131.814,84 -131.814,84zM0 0 M101.186,-39 C101.186,-39 -99.214,9.669 -99.214,9.669 C-101.18599999999999,10.147 -101.028,13.001 -99.016,13.26 C-99.016,13.26 101.186,39 101.186,39 C101.186,39 101.186,-39 101.186,-39z"></path><g opacity="1" transform="matrix(1,0,0,1,0,0)"></g></g><g opacity="1" transform="matrix(1,0,0,1,134.374,55.5)"><path fill="rgb(247,247,198)" fill-opacity="1" d="M0 0 M-134.374,-55.5 C-134.374,-55.5 1313.626,-55.5 1313.626,-55.5 C1313.626,-55.5 1313.626,97.5 1313.626,97.5 C1313.626,97.5 -134.374,97.5 -134.374,97.5 C-134.374,97.5 -134.374,-55.5 -134.374,-55.5zM0 0 M-134.374,97.5 C-134.374,97.5 1313.626,97.5 1313.626,97.5 C1313.626,97.5 1313.626,-55.5 1313.626,-55.5 C1313.626,-55.5 -134.374,-55.5 -134.374,-55.5 C-134.374,-55.5 -134.374,97.5 -134.374,97.5zM0 0 M98.626,-25.5 C98.626,-25.5 -96.523,21.894 -96.523,21.894 C-98.62599999999999,22.404 -98.256,25.5 -96.092,25.5 C-96.092,25.5 98.626,25.5 98.626,25.5 C98.626,25.5 98.626,-25.5 98.626,-25.5z"></path><g opacity="1" transform="matrix(1,0,0,1,0,0)"></g></g><g opacity="1" transform="matrix(1,0,0,1,141.707,53.833)"><path fill="rgb(255,255,204)" fill-opacity="1" d="M0 0 M-141.707,-53.833 C-141.707,-53.833 1306.292,-53.833 1306.292,-53.833 C1306.292,-53.833 1306.292,99.167 1306.292,99.167 C1306.292,99.167 -141.707,99.167 -141.707,99.167 C-141.707,99.167 -141.707,-53.833 -141.707,-53.833zM0 0 M-141.707,99.167 C-141.707,99.167 1306.292,99.167 1306.292,99.167 C1306.292,99.167 1306.292,-53.833 1306.292,-53.833 C1306.292,-53.833 -141.707,-53.833 -141.707,-53.833 C-141.707,-53.833 -141.707,99.167 -141.707,99.167zM0 0 M91.293,-23.833 C91.293,-23.833 -89.06,19.967 -89.06,19.967 C-91.292,20.509 -90.69300000000001,23.833000000000002 -88.412,23.562 C-88.412,23.562 91.293,2.167 91.293,2.167 C91.293,2.167 91.293,-23.833 91.293,-23.833z"></path><g opacity="1" transform="matrix(1,0,0,1,0,0)"></g></g><g opacity="1" transform="matrix(1,0,0,1,46.3,81.515)"><path fill="rgb(34,34,34)" fill-opacity="1" d="M0 0 M17.38,9.365 C17.38,9.365 -15.983,1.262 -15.983,1.262 C-17.846,0.8089999999999999 -17.846,-1.8399999999999999 -15.983,-2.292 C-15.983,-2.292 13.13,-9.365 13.13,-9.365 C12.41,-7.746 11.95,-6.215 11.77,-4.695 C11.61,-3.3240000000000003 11.68,-1.955 12,-0.515 C12.35,0.985 12.99,2.5550000000000006 13.94,4.275 C14.82,5.835000000000001 15.95,7.505 17.38,9.365z"></path></g><g opacity="1" transform="matrix(1,0,0,1,751.195,118.75)"><path fill="rgb(255,204,51)" fill-opacity="1" d="M0 0 M-751.195,-118.75 C-751.195,-118.75 696.805,-118.75 696.805,-118.75 C696.805,-118.75 696.805,34.25 696.805,34.25 C696.805,34.25 -751.195,34.25 -751.195,34.25 C-751.195,34.25 -751.195,-118.75 -751.195,-118.75zM0 0 M-751.195,34.25 C-751.195,34.25 696.805,34.25 696.805,34.25 C696.805,34.25 696.805,-118.75 696.805,-118.75 C696.805,-118.75 -751.195,-118.75 -751.195,-118.75 C-751.195,-118.75 -751.195,34.25 -751.195,34.25zM0 0 M538.805,13.25 C538.805,13.25 -518.195,13.25 -518.195,13.25 C-518.195,13.25 -538.805,-13.25 -538.805,-13.25 C-538.805,-13.25 528.195,-13.25 528.195,-13.25 C528.195,-13.25 538.805,13.25 538.805,13.25z"></path><g opacity="1" transform="matrix(1,0,0,1,0,0)"></g></g><g opacity="1" transform="matrix(1,0,0,1,745.695,81)"><path fill="rgb(255,230,77)" fill-opacity="1" d="M0 0 M-745.695,-81 C-745.695,-81 702.305,-81 702.305,-81 C702.305,-81 702.305,72 702.305,72 C702.305,72 -745.695,72 -745.695,72 C-745.695,72 -745.695,-81 -745.695,-81zM0 0 M-745.695,72 C-745.695,72 702.305,72 702.305,72 C702.305,72 702.305,-81 702.305,-81 C702.305,-81 -745.695,-81 -745.695,-81 C-745.695,-81 -745.695,72 -745.695,72zM0 0 M533.695,24.5 C533.695,24.5 -533.305,24.5 -533.305,24.5 C-533.305,24.5 -533.695,24 -533.695,24 C-533.695,24 -533.695,-24 -533.695,-24 C-533.695,-24 -533.305,-24.5 -533.305,-24.5 C-533.305,-24.5 533.695,-24.5 533.695,-24.5 C533.695,-24.5 533.305,-24 533.305,-24 C533.305,-24 533.305,24 533.305,24 C533.305,24 533.695,24.5 533.695,24.5z"></path><g opacity="1" transform="matrix(1,0,0,1,0,0)"></g></g><g opacity="1" transform="matrix(1,0,0,1,751.195,43.25)"><path fill="rgb(255,255,102)" fill-opacity="1" d="M0 0 M-751.195,-43.25 C-751.195,-43.25 696.805,-43.25 696.805,-43.25 C696.805,-43.25 696.805,109.75 696.805,109.75 C696.805,109.75 -751.195,109.75 -751.195,109.75 C-751.195,109.75 -751.195,-43.25 -751.195,-43.25zM0 0 M-751.195,109.75 C-751.195,109.75 696.805,109.75 696.805,109.75 C696.805,109.75 696.805,-43.25 696.805,-43.25 C696.805,-43.25 -751.195,-43.25 -751.195,-43.25 C-751.195,-43.25 -751.195,109.75 -751.195,109.75zM0 0 M528.195,13.25 C528.195,13.25 -538.805,13.25 -538.805,13.25 C-538.805,13.25 -518.195,-13.25 -518.195,-13.25 C-518.195,-13.25 538.805,-13.25 538.805,-13.25 C538.805,-13.25 528.195,13.25 528.195,13.25z"></path><g opacity="1" transform="matrix(1,0,0,1,0,0)"></g></g></g></g></svg>