<svg xmlns="http://www.w3.org/2000/svg" width="2300" height="2300" viewBox="0 0 2300 2300" preserveAspectRatio="xMidYMid meet" style="width: 100%; height: 100%;"><defs><clipPath id="animationMask_4hOOqzspnF"><rect width="2300" height="2300" x="0" y="0"></rect></clipPath><clipPath id="cp_Yzy5k2tW"><path d="M0,0 L2300,0 L2300,2300 L0,2300z"></path></clipPath><clipPath id="cp_tPTwScsG"><path d="M0,0 L2300,0 L2300,2300 L0,2300z"></path></clipPath><clipPath id="cp_qelI7P3Q"><path d="M0,0 L1000,0 L1000,800 L0,800z"></path></clipPath><clipPath id="cp_KfuMjjNy"><path d="M0,0 L410,0 L410,710 L0,710z"></path></clipPath><clipPath id="cp_mLYuDbVD"><path d="M0,0 L410,0 L410,710 L0,710z"></path></clipPath><mask id="XRFS52LXJf"><path fill="#ffffff" clip-rule="nonzero" d=" M431.909,-381.5 C431.909,-381.5 431.909,-381.5 431.909,-381.5 C416.05899999999997,-381.5 402.081,-373.11400000000003 394.166,-360.567 C388.945,-355.85 381.151,-352.853 372.442,-352.853 C363.278,-352.853 355.13199999999995,-356.168 349.929,-361.317 C349.929,-361.317 349.929,-364.183 349.929,-364.183 C349.929,-364.183 349.929,-369.246 341.859,-369.246 C334.44599999999997,-369.246 333.844,-364.985 333.795,-364.289 C333.795,-364.289 111.205,-364.289 111.205,-364.289 C111.15599999999999,-364.985 110.554,-369.246 103.141,-369.246 C95.071,-369.246 95.071,-364.183 95.071,-364.183 C95.071,-364.183 95.071,-361.317 95.071,-361.317 C89.868,-356.168 81.72200000000001,-352.853 72.558,-352.853 C63.849000000000004,-352.853 56.05500000000001,-355.85 50.834,-360.567 C42.919000000000004,-373.11400000000003 28.941,-381.5 13.091,-381.5 C13.091,-381.5 13.091,-381.5 13.091,-381.5 C-11.439000000000002,-381.5 -31.509,-361.42999999999995 -31.509,-336.9 C-31.509,-336.9 -31.509,-149.1 -31.509,-149.1 C-31.509,-124.57 -11.439000000000002,-104.5 13.091,-104.5 C13.091,-104.5 13.091,-104.5 13.091,-104.5 C28.941,-104.5 42.919000000000004,-112.88600000000001 50.834,-125.433 C56.05500000000001,-130.151 63.848000000000006,-133.147 72.558,-133.147 C81.72200000000001,-133.147 89.868,-129.832 95.071,-124.683 C95.071,-124.683 95.071,-121.817 95.071,-121.817 C95.071,-121.817 95.071,-116.754 103.141,-116.754 C110.554,-116.754 111.15599999999999,-121.015 111.205,-121.711 C111.205,-121.711 187.276,-121.711 187.276,-121.711 C187.739,-110.667 188.398,-93.48599999999999 189.022,-71.96 C181.023,-70.75099999999999 174.833,-63.823 174.833,-55.5 C174.833,-55.5 174.833,-55.5 174.833,-55.5 C174.833,-46.888 181.454,-39.75 189.856,-38.917 C190.018,-31.387 190.166,-23.543 190.296,-15.439 C181.688,-14.814 174.833,-7.593 174.833,1.167 C174.833,1.167 174.833,1.167 174.833,1.167 C174.833,10.063 181.901,17.366000000000003 190.696,17.792 C190.776,27.755000000000003 190.821,37.974000000000004 190.821,48.386 C190.821,149.155 179.92,386.057 179.92,386.057 C179.49599999999998,418.86400000000003 186.64000000000001,451.30100000000004 201.084,479.516 C208.189,493.396 216.018,504.5 222.881,504.5 C230.13400000000001,504.5 238.346,492.101 245.617,477.129 C258.935,449.707 265.502,418.56899999999996 265.095,387.102 C265.095,387.102 254.183,154.369 254.183,48.395 C254.183,37.901 254.224,27.688 254.297,17.793 C263.09499999999997,17.37 270.167,10.065 270.167,1.167 C270.167,1.167 270.167,1.167 270.167,1.167 C270.167,-7.603 263.297,-14.83 254.675,-15.44 C254.8,-23.583 254.944,-31.418999999999997 255.1,-38.915 C263.52299999999997,-39.727 270.167,-46.873 270.167,-55.5 C270.167,-55.5 270.167,-55.5 270.167,-55.5 C270.167,-63.843 263.948,-70.785 255.92,-71.969 C256.548,-93.713 257.22,-110.773 257.696,-121.711 C257.696,-121.711 333.795,-121.711 333.795,-121.711 C333.844,-121.015 334.44599999999997,-116.754 341.859,-116.754 C349.929,-116.754 349.929,-121.817 349.929,-121.817 C349.929,-121.817 349.929,-124.683 349.929,-124.683 C355.13199999999995,-129.832 363.278,-133.147 372.442,-133.147 C381.151,-133.147 388.945,-130.151 394.166,-125.433 C402.081,-112.88600000000001 416.05899999999997,-104.5 431.909,-104.5 C431.909,-104.5 431.909,-104.5 431.909,-104.5 C456.43899999999996,-104.5 476.509,-124.57 476.509,-149.1 C476.509,-149.1 476.509,-336.9 476.509,-336.9 C476.509,-361.42999999999995 456.43899999999996,-381.5 431.909,-381.5" fill-opacity="1"></path></mask><mask id="8qg0AfCFJf"><path fill="#ffffff" clip-rule="nonzero" d=" M431.909,-381.5 C431.909,-381.5 431.909,-381.5 431.909,-381.5 C416.05899999999997,-381.5 402.081,-373.11400000000003 394.166,-360.567 C388.945,-355.85 381.151,-352.853 372.442,-352.853 C363.278,-352.853 355.13199999999995,-356.168 349.929,-361.317 C349.929,-361.317 349.929,-364.183 349.929,-364.183 C349.929,-364.183 349.929,-369.246 341.859,-369.246 C334.44599999999997,-369.246 333.844,-364.985 333.795,-364.289 C333.795,-364.289 111.205,-364.289 111.205,-364.289 C111.15599999999999,-364.985 110.554,-369.246 103.141,-369.246 C95.071,-369.246 95.071,-364.183 95.071,-364.183 C95.071,-364.183 95.071,-361.317 95.071,-361.317 C89.868,-356.168 81.72200000000001,-352.853 72.558,-352.853 C63.849000000000004,-352.853 56.05500000000001,-355.85 50.834,-360.567 C42.919000000000004,-373.11400000000003 28.941,-381.5 13.091,-381.5 C13.091,-381.5 13.091,-381.5 13.091,-381.5 C-11.439000000000002,-381.5 -31.509,-361.42999999999995 -31.509,-336.9 C-31.509,-336.9 -31.509,-149.1 -31.509,-149.1 C-31.509,-124.57 -11.439000000000002,-104.5 13.091,-104.5 C13.091,-104.5 13.091,-104.5 13.091,-104.5 C28.941,-104.5 42.919000000000004,-112.88600000000001 50.834,-125.433 C56.05500000000001,-130.151 63.848000000000006,-133.147 72.558,-133.147 C81.72200000000001,-133.147 89.868,-129.832 95.071,-124.683 C95.071,-124.683 95.071,-121.817 95.071,-121.817 C95.071,-121.817 95.071,-116.754 103.141,-116.754 C110.554,-116.754 111.15599999999999,-121.015 111.205,-121.711 C111.205,-121.711 187.276,-121.711 187.276,-121.711 C187.739,-110.667 188.398,-93.48599999999999 189.022,-71.96 C181.023,-70.75099999999999 174.833,-63.823 174.833,-55.5 C174.833,-55.5 174.833,-55.5 174.833,-55.5 C174.833,-46.888 181.454,-39.75 189.856,-38.917 C190.018,-31.387 190.166,-23.543 190.296,-15.439 C181.688,-14.814 174.833,-7.593 174.833,1.167 C174.833,1.167 174.833,1.167 174.833,1.167 C174.833,10.063 181.901,17.366000000000003 190.696,17.792 C190.776,27.755000000000003 190.821,37.974000000000004 190.821,48.386 C190.821,149.155 179.92,386.057 179.92,386.057 C179.49599999999998,418.86400000000003 186.64000000000001,451.30100000000004 201.084,479.516 C208.189,493.396 216.018,504.5 222.881,504.5 C230.13400000000001,504.5 238.346,492.101 245.617,477.129 C258.935,449.707 265.502,418.56899999999996 265.095,387.102 C265.095,387.102 254.183,154.369 254.183,48.395 C254.183,37.901 254.224,27.688 254.297,17.793 C263.09499999999997,17.37 270.167,10.065 270.167,1.167 C270.167,1.167 270.167,1.167 270.167,1.167 C270.167,-7.603 263.297,-14.83 254.675,-15.44 C254.8,-23.583 254.944,-31.418999999999997 255.1,-38.915 C263.52299999999997,-39.727 270.167,-46.873 270.167,-55.5 C270.167,-55.5 270.167,-55.5 270.167,-55.5 C270.167,-63.843 263.948,-70.785 255.92,-71.969 C256.548,-93.713 257.22,-110.773 257.696,-121.711 C257.696,-121.711 333.795,-121.711 333.795,-121.711 C333.844,-121.015 334.44599999999997,-116.754 341.859,-116.754 C349.929,-116.754 349.929,-121.817 349.929,-121.817 C349.929,-121.817 349.929,-124.683 349.929,-124.683 C355.13199999999995,-129.832 363.278,-133.147 372.442,-133.147 C381.151,-133.147 388.945,-130.151 394.166,-125.433 C402.081,-112.88600000000001 416.05899999999997,-104.5 431.909,-104.5 C431.909,-104.5 431.909,-104.5 431.909,-104.5 C456.43899999999996,-104.5 476.509,-124.57 476.509,-149.1 C476.509,-149.1 476.509,-336.9 476.509,-336.9 C476.509,-361.42999999999995 456.43899999999996,-381.5 431.909,-381.5" fill-opacity="1"></path></mask></defs><g clip-path="url(#animationMask_4hOOqzspnF)"><g clip-path="url(#cp_Yzy5k2tW)" transform="matrix(1,0,0,1,0,0)" opacity="1"><g transform="matrix(1.3719999999999999,0,0,1.3719999999999999,271.8280000000001,844.3580000000001)" opacity="1" style="-webkit-user-select: none;"><g opacity="1" transform="matrix(1,0,0,1,400.583,565.539)"><path fill="rgb(90,109,199)" fill-opacity="0.12" d="M0 0 M370,226.854 C370,226.854 370,0.962 370,0.962 C370,0.962 326.5,32.724 326.5,32.724 C326.5,32.724 291.5,137.724 291.5,137.724 C291.5,137.724 245.5,53.724 245.5,53.724 C245.5,53.724 210.5,173.724 210.5,173.724 C210.5,173.724 123.5,74.724 123.5,74.724 C123.5,74.724 -17.5,45.724 -17.5,45.724 C-17.5,45.724 -41.5,-69.276 -41.5,-69.276 C-41.5,-69.276 -162.5,-39.276 -162.5,-39.276 C-162.5,-39.276 -120.5,-225.276 -120.5,-225.276 C-120.5,-225.276 -162.5,-203.276 -162.5,-203.276 C-162.5,-203.276 -221.5,-290.276 -221.5,-290.276 C-221.5,-290.276 -260.5,-236.276 -260.5,-236.276 C-260.5,-236.276 -312.5,-308.276 -312.5,-308.276 C-312.5,-308.276 -319.945,-348.974 -319.945,-348.974 C-351.767,-294.33799999999997 -370,-230.81300000000002 -370,-163.026 C-370,-163.026 -370,226.854 -370,226.854 C-376.06,228.58300000000003 -381.47,231.82399999999998 -385.81,236.164 C-392.42,242.774 -396.5,251.89399999999998 -396.5,261.974 C-396.5,322.974 -190,348.974 0,348.974 C190,348.974 396.5,317.974 396.5,261.974 C396.5,245.284 385.3,231.21400000000003 370,226.854z"></path></g><g opacity="1" transform="matrix(1,0,0,1,401.754,564.259)"><path fill="rgb(90,109,199)" fill-opacity="1" d="M0 0 M365.637,230.544 C365.139,154.615 364.815,78.342 364.836,2.243 C364.836,2.243 371.184,5.466 371.184,5.466 C371.184,5.466 327.682,37.227 327.682,37.227 C327.682,37.227 329.116,35.266 329.116,35.266 C329.116,35.266 294.111,140.265 294.111,140.265 C294.111,140.265 291.221,148.932 291.221,148.932 C291.221,148.932 286.833,140.918 286.833,140.918 C286.833,140.918 240.822,56.925 240.822,56.925 C240.822,56.925 248.168,56.124 248.168,56.124 C248.168,56.124 213.241,176.145 213.241,176.145 C213.241,176.145 211.168,183.262 211.168,183.262 C211.168,183.262 206.268,177.694 206.268,177.694 C206.268,177.694 119.21,78.745 119.21,78.745 C119.21,78.745 121.492,80.072 121.492,80.072 C121.492,80.072 -19.51,51.09 -19.51,51.09 C-19.51,51.09 -22.197,50.537 -22.197,50.537 C-22.197,50.537 -22.753,47.856 -22.753,47.856 C-22.753,47.856 -46.627,-67.171 -46.627,-67.171 C-46.627,-67.171 -41.698,-64.073 -41.698,-64.073 C-41.698,-64.073 -102.236,-49.227 -102.236,-49.227 C-102.236,-49.227 -162.797,-34.473 -162.797,-34.473 C-162.797,-34.473 -168.52,-33.08 -168.52,-33.08 C-168.52,-33.08 -167.21,-38.796 -167.21,-38.796 C-167.21,-38.796 -124.648,-224.669 -124.648,-224.669 C-124.648,-224.669 -120.253,-221.292 -120.253,-221.292 C-120.253,-221.292 -162.369,-199.512 -162.369,-199.512 C-162.369,-199.512 -164.604,-198.356 -164.604,-198.356 C-164.604,-198.356 -165.991,-200.422 -165.991,-200.422 C-165.991,-200.422 -224.569,-287.709 -224.569,-287.709 C-224.569,-287.709 -220.811,-287.653 -220.811,-287.653 C-220.811,-287.653 -260,-233.79 -260,-233.79 C-260,-233.79 -261.681,-231.479 -261.681,-231.479 C-261.681,-231.479 -263.34,-233.79 -263.34,-233.79 C-263.34,-233.79 -315.158,-305.921 -315.158,-305.921 C-315.158,-305.921 -315.403,-306.261 -315.403,-306.261 C-315.403,-306.261 -315.476,-306.666 -315.476,-306.666 C-315.476,-306.666 -322.851,-347.377 -322.851,-347.377 C-322.851,-347.377 -319.59,-346.806 -319.59,-346.806 C-344.12,-304.96299999999997 -360.092,-258.146 -366.389,-210.046 C-367.978,-198.023 -368.944,-185.91899999999998 -369.343,-173.797 C-369.536,-167.733 -369.545,-161.681 -369.538,-155.579 C-369.538,-155.579 -369.533,-137.307 -369.533,-137.307 C-369.533,-137.307 -369.517,-64.219 -369.517,-64.219 C-369.517,-64.219 -369.528,228.134 -369.528,228.134 C-369.528,228.134 -369.528,229.377 -369.528,229.377 C-369.528,229.377 -370.72,229.713 -370.72,229.713 C-379.70500000000004,232.243 -387.541,238.564 -391.919,246.813 C-394.123,250.921 -395.481,255.47599999999997 -395.892,260.121 C-396.098,262.45799999999997 -396.095,264.77500000000003 -395.749,267.033 C-395.406,269.298 -394.72900000000004,271.51 -393.814,273.628 C-391.935,277.856 -389.06,281.656 -385.702,284.987 C-382.343,288.329 -378.53000000000003,291.25 -374.523,293.886 C-366.471,299.13 -357.678,303.28000000000003 -348.692,306.884 C-330.663,314.03700000000003 -311.80999999999995,319.12 -292.828,323.388 C-273.82399999999996,327.628 -254.607,330.952 -235.314,333.717 C-196.71699999999998,339.226 -157.826,342.66499999999996 -118.887,344.919 C-79.938,347.102 -40.921,348.053 -1.914,347.954 C37.086,347.813 76.07900000000001,346.358 114.968,343.625 C153.85,340.844 192.65300000000002,336.794 231.108,330.741 C250.329,327.704 269.464,324.163 288.376,319.779 C307.262,315.36 326.008,310.19899999999996 343.921,303.193 C352.84999999999997,299.667 361.585,295.667 369.618,290.765 C373.617,288.303 377.419,285.587 380.804,282.55 C384.171,279.51300000000003 387.105,276.098 389.004,272.351 C389.96500000000003,270.485 390.632,268.538 391,266.56 C391.159,265.568 391.295,264.57199999999995 391.293,263.566 C391.314,262.53099999999995 391.261,261.40500000000003 391.173,260.333 C390.79200000000003,256.00300000000004 389.533,251.767 387.486,247.934 C385.435,244.103 382.608,240.688 379.226,237.95 C377.528,236.59199999999998 375.703,235.393 373.777,234.386 C372.806,233.9 371.82800000000003,233.42600000000002 370.814,233.037 C370.31300000000005,232.826 369.797,232.65300000000002 369.286,232.472 C369.286,232.472 368.72,232.277 368.72,232.277 C368.351,232.147 367.979,231.992 367.616,231.814 C366.887,231.459 366.208,231.007 365.637,230.544zM0 0 M372.022,225.724 C372.03499999999997,225.441 371.939,225.167 371.793,224.992 C371.722,224.904 371.64,224.838 371.562,224.798 C371.48400000000004,224.764 371.50300000000004,224.773 371.624,224.814 C371.624,224.814 371.863,224.899 371.863,224.899 C372.502,225.122 373.144,225.342 373.77,225.603 C375.034,226.091 376.256,226.677 377.465,227.286 C379.86699999999996,228.54 382.13899999999995,230.034 384.251,231.726 C388.46099999999996,235.13 391.991,239.369 394.556,244.145 C397.12,248.92100000000002 398.708,254.223 399.189,259.62 C399.303,260.981 399.367,262.29600000000005 399.343,263.701 C399.34000000000003,265.139 399.16400000000004,266.57300000000004 398.932,267.987 C398.41700000000003,270.81100000000004 397.471,273.524 396.204,275.999 C393.668,280.97700000000003 390.07000000000005,285.051 386.213,288.543 C382.334,292.038 378.126,294.973 373.806,297.612 C365.142,302.857 356.005,306.922 346.754,310.485 C328.218,317.54900000000004 309.158,322.60699999999997 290.002,326.921 C270.832,331.193 251.51500000000001,334.601 232.139,337.485 C193.375,343.19 154.382,346.851 115.342,349.259 C76.297,351.656 37.187,352.708 -1.915,352.552 C-41.009,352.408 -80.098,351.209 -119.116,348.778 C-158.131,346.363 -197.101,342.8 -235.811,337.135 C-255.15800000000002,334.277 -274.44599999999997,330.91499999999996 -293.556,326.64 C-303.10999999999996,324.498 -312.615,322.116 -322.033,319.387 C-331.447,316.655 -340.778,313.577 -349.91,309.923 C-359.02700000000004,306.254 -367.983,302.026 -376.303,296.6 C-380.448,293.875 -384.43100000000004,290.836 -387.999,287.289 C-391.56100000000004,283.756 -394.699,279.65099999999995 -396.796,274.941 C-397.818,272.58099999999996 -398.584,270.088 -398.973,267.526 C-399.367,264.95300000000003 -399.366,262.355 -399.143,259.832 C-398.69699999999995,254.753 -397.21200000000005,249.763 -394.802,245.267 C-390.017,236.243 -381.45599999999996,229.33 -371.621,226.555 C-371.621,226.555 -372.812,228.134 -372.812,228.134 C-372.812,228.134 -372.824,-64.219 -372.824,-64.219 C-372.824,-64.219 -372.809,-137.307 -372.809,-137.307 C-372.809,-137.307 -372.804,-155.579 -372.804,-155.579 C-372.80899999999997,-161.65800000000002 -372.797,-167.79000000000002 -372.6,-173.901 C-372.189,-186.12900000000002 -371.213,-198.338 -369.629,-210.47 C-366.464,-234.735 -360.889,-258.687 -352.993,-281.853 C-345.091,-305.014 -334.91999999999996,-327.405 -322.64,-348.582 C-322.64,-348.582 -320.247,-352.708 -320.247,-352.708 C-320.247,-352.708 -319.379,-348.011 -319.379,-348.011 C-319.379,-348.011 -311.864,-307.326 -311.864,-307.326 C-311.864,-307.326 -312.182,-308.071 -312.182,-308.071 C-312.182,-308.071 -260,-236.202 -260,-236.202 C-260,-236.202 -263.34,-236.202 -263.34,-236.202 C-263.34,-236.202 -224.53,-290.338 -224.53,-290.338 C-224.53,-290.338 -222.629,-292.991 -222.629,-292.991 C-222.629,-292.991 -220.772,-290.283 -220.772,-290.283 C-220.772,-290.283 -161.35,-203.57 -161.35,-203.57 C-161.35,-203.57 -164.971,-204.48 -164.971,-204.48 C-164.971,-204.48 -123.087,-226.7 -123.087,-226.7 C-123.087,-226.7 -117.251,-229.797 -117.251,-229.797 C-117.251,-229.797 -118.692,-223.323 -118.692,-223.323 C-118.692,-223.323 -160.13,-37.197 -160.13,-37.197 C-160.13,-37.197 -164.543,-41.518 -164.543,-41.518 C-164.543,-41.518 -104.105,-56.765 -104.105,-56.765 C-104.105,-56.765 -43.643,-71.92 -43.643,-71.92 C-43.643,-71.92 -39.577,-72.938 -39.577,-72.938 C-39.577,-72.938 -38.713,-68.822 -38.713,-68.822 C-38.713,-68.822 -14.587,46.152 -14.587,46.152 C-14.587,46.152 -17.83,42.918 -17.83,42.918 C-17.83,42.918 123.166,71.937 123.166,71.937 C123.166,71.937 124.531,72.217 124.531,72.217 C124.531,72.217 125.449,73.263 125.449,73.263 C125.449,73.263 212.389,172.315 212.389,172.315 C212.389,172.315 205.418,173.864 205.418,173.864 C205.418,173.864 240.491,53.884 240.491,53.884 C240.491,53.884 243.2,44.613 243.2,44.613 C243.2,44.613 247.837,53.083 247.837,53.083 C247.837,53.083 293.827,137.089 293.827,137.089 C293.827,137.089 286.546,137.744 286.546,137.744 C286.546,137.744 321.543,32.743 321.543,32.743 C321.543,32.743 321.947,31.533 321.947,31.533 C321.947,31.533 322.976,30.782 322.976,30.782 C322.976,30.782 366.474,-0.982 366.474,-0.982 C366.474,-0.982 372.819,-5.615 372.819,-5.615 C372.819,-5.615 372.822,2.243 372.822,2.243 C372.843,76.737 372.52,151.05899999999997 372.022,225.724z"></path></g></g><g transform="matrix(1.3719999999999999,0,0,1.3719999999999999,274,844)" opacity="1" style="-webkit-user-select: none;"><path stroke-linecap="butt" stroke-linejoin="miter" fill-opacity="0" stroke-miterlimit="10" stroke="rgb(90,109,199)" stroke-opacity="1" stroke-width="3" d="M0 0 M-113.09716853389898,839.0616478486372 C-113.09716853389898,839.0616478486372 -28.053421610525447,874.8246283776647 -28.053421610525447,874.8246283776647 C-28.053421610525447,874.8246283776647 -50.54944182112892,826.5746445608693 -50.54944182112892,826.5746445608693 C-50.54944182112892,826.5746445608693 -113.09716853389898,839.0616478486372 -113.09716853389898,839.0616478486372zM0 0 M-7.011271503784641,952.0427773756567 C-7.011271503784641,952.0427773756567 41.74653294792013,991.3420479674796 41.74653294792013,991.3420479674796 C41.74653294792013,991.3420479674796 202.36984521384034,1021.1427440495293 202.36984521384034,1021.1427440495293 C202.36984521384034,1021.1427440495293 232.44048289495908,970.7344832482145 232.44048289495908,970.7344832482145 C232.44048289495908,970.7344832482145 -7.011271503784641,952.0427773756567 -7.011271503784641,952.0427773756567zM0 0 M-50.51423095711654,893.4514474438596 C-50.51423095711654,893.4514474438596 -85.67595703514702,977.8376064208256 -85.67595703514702,977.8376064208256 C-85.67595703514702,977.8376064208256 88.201568212809,905.4370150094148 88.201568212809,905.4370150094148 C88.201568212809,905.4370150094148 -50.51423095711654,893.4514474438596 -50.51423095711654,893.4514474438596zM0 0 M265.5031955628436,937.7706095158951 C265.5031955628436,937.7706095158951 455.3896912807023,925.5524032161961 455.3896912807023,925.5524032161961 C455.3896912807023,925.5524032161961 375.7462325053838,1015.6092576037096 375.7462325053838,1015.6092576037096 C375.7462325053838,1015.6092576037096 324.2609732305878,1013.2505852868929 324.2609732305878,1013.2505852868929 C324.2609732305878,1013.2505852868929 265.5031955628436,937.7706095158951 265.5031955628436,937.7706095158951zM0 0 M158.62887299442372,958.0336251338507 C158.62887299442372,958.0336251338507 269.27199425334857,936.8312170673772 269.27199425334857,936.8312170673772 C269.27199425334857,936.8312170673772 157.97090004991077,920.7486003424791 157.97090004991077,920.7486003424791 C157.97090004991077,920.7486003424791 7.652379752060938,960.6979239607058 7.652379752060938,960.6979239607058 C7.652379752060938,960.6979239607058 158.62887299442372,958.0336251338507 158.62887299442372,958.0336251338507zM0 0 M232.9350999828916,1052.0930532812083 C232.9350999828916,1052.0930532812083 277.5767870429064,919.9401284785868 277.5767870429064,919.9401284785868 C277.5767870429064,919.9401284785868 155.85260936136717,920.8161460891195 155.85260936136717,920.8161460891195 C155.85260936136717,920.8161460891195 186.53480037480523,947.6107161325984 186.53480037480523,947.6107161325984 C186.53480037480523,947.6107161325984 180.8032824519567,992.4932015814912 180.8032824519567,992.4932015814912 C180.8032824519567,992.4932015814912 232.9350999828916,1052.0930532812083 232.9350999828916,1052.0930532812083zM0 0 M344.8155503156112,1027.0505358751839 C344.8155503156112,1027.0505358751839 373.68958067508845,988.210889672314 373.68958067508845,988.210889672314 C373.68958067508845,988.210889672314 514.1024496843888,993.0174641248162 514.1024496843888,993.0174641248162 C514.1024496843888,993.0174641248162 344.8155503156112,1027.0505358751839 344.8155503156112,1027.0505358751839zM0 0 M332.9901528376904,996.3680175197499 C332.9901528376904,996.3680175197499 447.17840968613604,943.8986414194625 447.17840968613604,943.8986414194625 C447.17840968613604,943.8986414194625 270.9667844967289,972.3594632675378 270.9667844967289,972.3594632675378 C270.9667844967289,972.3594632675378 332.9901528376904,996.3680175197499 332.9901528376904,996.3680175197499zM0 0 M459.58329067246603,1003.0339239536552 C459.58329067246603,1003.0339239536552 699.577246435467,1005.9160672125566 699.577246435467,1005.9160672125566 C699.577246435467,1005.9160672125566 671.1913700448438,965.4528381024094 671.1913700448438,965.4528381024094 C671.1913700448438,965.4528381024094 572.4864047128806,970.7149727846129 572.4864047128806,970.7149727846129 C572.4864047128806,970.7149727846129 459.11728711379226,991.6019175520933 459.11728711379226,991.6019175520933 C459.11728711379226,991.6019175520933 459.58329067246603,1003.0339239536552 459.58329067246603,1003.0339239536552zM0 0 M1185.2225218747387,901.5706602729546 C1185.2225218747387,901.5706602729546 794.6589967846998,969.3701920913758 794.6589967846998,969.3701920913758 C794.6589967846998,969.3701920913758 1026.4537043030334,1025.2527214426727 1026.4537043030334,1025.2527214426727 C1026.4537043030334,1025.2527214426727 1185.2225218747387,901.5706602729546 1185.2225218747387,901.5706602729546zM0 0 M785.1375712094241,976.6015397873686 C785.1375712094241,976.6015397873686 937.3316778898728,951.2156411049928 937.3316778898728,951.2156411049928 C937.3316778898728,951.2156411049928 908.3410824106993,901.0602015881974 908.3410824106993,901.0602015881974 C908.3410824106993,901.0602015881974 856.6279413823283,934.4590561796323 856.6279413823283,934.4590561796323 C856.6279413823283,934.4590561796323 831.7992732875994,941.2269350675698 831.7992732875994,941.2269350675698 C831.7992732875994,941.2269350675698 785.1375712094241,976.6015397873686 785.1375712094241,976.6015397873686zM0 0 M427.70102319361695,1050.2280046487572 C427.70102319361695,1050.2280046487572 704.290976806383,949.4599953512429 704.290976806383,949.4599953512429 C704.290976806383,949.4599953512429 584.2202517698036,929.8170260089119 584.2202517698036,929.8170260089119 C584.2202517698036,929.8170260089119 427.70102319361695,1050.2280046487572 427.70102319361695,1050.2280046487572zM0 0 M917.8345263258819,913.6936965278281 C917.8345263258819,913.6936965278281 829.0048268844184,943.7312313870551 829.0048268844184,943.7312313870551 C829.0048268844184,943.7312313870551 716.5868998327313,955.1859106667887 716.5868998327313,955.1859106667887 C716.5868998327313,955.1859106667887 726.8171119869021,937.2071657975616 726.8171119869021,937.2071657975616 C726.8171119869021,937.2071657975616 867.519890893572,858.0704878720488 867.519890893572,858.0704878720488 C867.519890893572,858.0704878720488 914.2904043781632,878.9111563229834 914.2904043781632,878.9111563229834 C914.2904043781632,878.9111563229834 917.8345263258819,913.6936965278281 917.8345263258819,913.6936965278281zM0 0 M717.5627347717788,1004.452716016311 C717.5627347717788,1004.452716016311 781.865918845142,960.7110312084568 781.865918845142,960.7110312084568 C781.865918845142,960.7110312084568 836.6419173632853,981.0908009923102 836.6419173632853,981.0908009923102 C836.6419173632853,981.0908009923102 717.5627347717788,1004.452716016311 717.5627347717788,1004.452716016311zM0 0 M719.9624491259002,1006.7230237896406 C719.9624491259002,1006.7230237896406 646.2978286126825,961.3327116162483 646.2978286126825,961.3327116162483 C646.2978286126825,961.3327116162483 630.16894208744,1020.6564353297329 630.16894208744,1020.6564353297329 C630.16894208744,1020.6564353297329 719.9624491259002,1006.7230237896406 719.9624491259002,1006.7230237896406zM0 0 M434.1655675403651,1021.0281996154087 C434.1655675403651,1021.0281996154087 572.2876754669958,1013.4392537360666 572.2876754669958,1013.4392537360666 C572.2876754669958,1013.4392537360666 496.37187952385636,979.1354011406142 496.37187952385636,979.1354011406142 C496.37187952385636,979.1354011406142 434.1655675403651,1021.0281996154087 434.1655675403651,1021.0281996154087zM0 0 M469.60012037621595,980.4030859003072 C469.60012037621595,980.4030859003072 572.5591498433291,985.0720291049021 572.5591498433291,985.0720291049021 C572.5591498433291,985.0720291049021 532.0918463558604,930.7562677717752 532.0918463558604,930.7562677717752 C532.0918463558604,930.7562677717752 469.60012037621595,980.4030859003072 469.60012037621595,980.4030859003072zM0 0 M571.9951361555059,957.1365158357067 C571.9951361555059,957.1365158357067 645.6724000414866,911.993384144943 645.6724000414866,911.993384144943 C645.6724000414866,911.993384144943 691.9858625328321,944.3323038076859 691.9858625328321,944.3323038076859 C691.9858625328321,944.3323038076859 571.9951361555059,957.1365158357067 571.9951361555059,957.1365158357067zM0 0 M651.1444302369165,928.7478179784464 C651.1444302369165,928.7478179784464 758.4236821085331,936.3689488483427 758.4236821085331,936.3689488483427 C758.4236821085331,936.3689488483427 713.7996985943308,991.3999473020534 713.7996985943308,991.3999473020534 C713.7996985943308,991.3999473020534 651.1444302369165,928.7478179784464 651.1444302369165,928.7478179784464zM0 0 M778.8756461522571,935.1783390910092 C778.8756461522571,935.1783390910092 840.378211646345,866.9823912649439 840.378211646345,866.9823912649439 C840.378211646345,866.9823912649439 878.3298915143758,908.1249936829109 878.3298915143758,908.1249936829109 C878.3298915143758,908.1249936829109 778.8756461522571,935.1783390910092 778.8756461522571,935.1783390910092zM0 0 M813.8274547158654,887.6628754966243 C813.8274547158654,887.6628754966243 937.824440581144,864.6170514017059 937.824440581144,864.6170514017059 C937.824440581144,864.6170514017059 896.7555860288539,913.5021193685365 896.7555860288539,913.5021193685365 C896.7555860288539,913.5021193685365 813.8274547158654,887.6628754966243 813.8274547158654,887.6628754966243zM0 0 M871.7827649313954,905.6523327576201 C871.7827649313954,905.6523327576201 1046.308257577143,981.3209594253923 1046.308257577143,981.3209594253923 C1046.308257577143,981.3209594253923 993.2546537736956,910.2561328599103 993.2546537736956,910.2561328599103 C993.2546537736956,910.2561328599103 871.7827649313954,905.6523327576201 871.7827649313954,905.6523327576201zM0 0 M764.9907855350423,885.3666138063352 C764.9907855350423,885.3666138063352 843.429325018702,953.7624234966042 843.429325018702,953.7624234966042 C843.429325018702,953.7624234966042 738.1802082839955,965.2035710375527 738.1802082839955,965.2035710375527 C738.1802082839955,965.2035710375527 764.9907855350423,885.3666138063352 764.9907855350423,885.3666138063352zM0 0 M1011.7802166637364,755.8608182158968 C1011.7802166637364,755.8608182158968 865.2497833362636,790.6871817841032 865.2497833362636,790.6871817841032 C865.2497833362636,790.6871817841032 908.8842242264985,742.4914835590826 908.8842242264985,742.4914835590826 C908.8842242264985,742.4914835590826 1011.7802166637364,755.8608182158968 1011.7802166637364,755.8608182158968zM0 0 M935.269301496586,820.790388220329 C935.269301496586,820.790388220329 1108.757591347488,828.3250785013673 1108.757591347488,828.3250785013673 C1108.757591347488,828.3250785013673 1114.0640809223248,777.434628672599 1111.5678346975599,758.0111734734501 C1111.5678346975599,758.0111734734501 971.7179539221681,784.9623280577259 971.7179539221681,784.9623280577259 C971.7179539221681,784.9623280577259 935.269301496586,820.790388220329 935.269301496586,820.790388220329zM0 0 M900.3205097702914,870.4708465542051 C900.3205097702914,870.4708465542051 973.5825064458412,815.2514117498285 973.5825064458412,815.2514117498285 C973.5825064458412,815.2514117498285 952.1393570617955,797.4223561925807 952.1393570617955,797.4223561925807 C952.1393570617955,797.4223561925807 783.8131736748863,807.0961824671773 783.8131736748863,807.0961824671773 C783.8131736748863,807.0961824671773 900.3205097702914,870.4708465542051 900.3205097702914,870.4708465542051zM0 0 M1094.0099472912118,829.4214768674152 C1094.0099472912118,829.4214768674152 919.3962700095901,908.1495894568561 919.3962700095901,908.1495894568561 C919.3962700095901,908.1495894568561 937.0186791267047,845.2251481016002 937.0186791267047,845.2251481016002 C937.0186791267047,845.2251481016002 956.1352690326732,828.1342199963563 956.1352690326732,828.1342199963563 C956.1352690326732,828.1342199963563 1094.0099472912118,829.4214768674152 1094.0099472912118,829.4214768674152zM0 0 M1181.4182790276902,860.1389114887186 C1181.4182790276902,860.1389114887186 1124.8261066052758,873.1613038609644 1096.8637039544192,874.7463399931814 C1068.901324552283,876.3320635523759 948.969892928211,880.3881341386133 948.969892928211,880.3881341386133 C948.969892928211,880.3881341386133 1123.4511540209485,832.5061849847999 1123.4511540209485,832.5061849847999 C1123.4511540209485,832.5061849847999 1152.0161063595053,819.1522823315088 1152.0161063595053,819.1522823315088 C1152.0161063595053,819.1522823315088 1181.4182790276902,860.1389114887186 1181.4182790276902,860.1389114887186z"></path><g opacity="1" transform="matrix(0.8903002465482835,0.4553739902498445,0.2613436867442882,-0.5109522144965254,-63.127,842.381)"><path fill="rgb(90,109,199)" fill-opacity="0.15" d="M0 0 M-46,-34.5 C-46,-34.5 46,-22.5 46,-22.5 C46,-22.5 4,34.5 4,34.5 C4,34.5 -46,-34.5 -46,-34.5z"></path></g><g opacity="1" transform="matrix(0.9932052227259232,0.11637605230436919,0.0373276187766264,-0.31857057518933973,110.139,983.37)"><path fill="rgb(90,109,199)" fill-opacity="0.15" d="M0 0 M-120,54.5 C-120,54.5 -67,-49.5 -67,-49.5 C-67,-49.5 96,-83.5 96,-83.5 C96,-83.5 120,83.5 120,83.5 C120,83.5 -120,54.5 -120,54.5z"></path></g><g opacity="1" transform="matrix(0.9554588216454538,-0.29512444856345077,-0.23426683602518164,-0.758433658033945,-6.468,916.609)"><path fill="rgb(90,109,199)" fill-opacity="0.15" d="M0 0 M-35.25,44.25 C-35.25,44.25 -93.75,-44.25 -93.75,-44.25 C-93.75,-44.25 93.75,-21.75 93.75,-21.75 C93.75,-21.75 -35.25,44.25 -35.25,44.25z"></path></g><g opacity="1" transform="matrix(0.9837944119764295,-0.1793001811598395,-0.08059901743497105,-0.44223526407164454,367.109,968.218)"><path fill="rgb(90,109,199)" fill-opacity="0.15" d="M0 0 M-94.5,107.163 C-94.5,107.163 94.5,58.163 94.5,58.163 C94.5,58.163 0,-107.163 0,-107.163 C0,-107.163 -50.228,-81.465 -50.228,-81.465 C-50.228,-81.465 -94.5,107.163 -94.5,107.163z"></path></g><g opacity="1" transform="matrix(0.02122493369396622,1.2027427352055329,0.9998443261083628,-0.017644363091756144,138.303,939.744)"><path fill="rgb(90,109,199)" fill-opacity="0.15" d="M0 0 M15.5,20 C15.5,20 -0.5,131 -0.5,131 C-0.5,131 -15.5,20 -15.5,20 C-15.5,20 15.5,-131 15.5,-131 C15.5,-131 15.5,20 15.5,20z"></path></g><g opacity="1" transform="matrix(0.9587009258063616,0.5631189548914379,0.19155211577954825,-0.326114383369361,210.197,959.55)"><path fill="rgb(90,109,199)" fill-opacity="0.15" d="M0 0 M59.789,-180.534 C59.789,-180.534 34.211,180.534 34.211,180.534 C34.211,180.534 -59.789,15.533 -59.789,15.533 C-59.789,15.533 -23.789,-4.467 -23.789,-4.467 C-23.789,-4.467 -7.789,-114.467 -7.789,-114.467 C-7.789,-114.467 59.789,-180.534 59.789,-180.534z"></path></g><g opacity="1" transform="matrix(0.9930129584999028,0.11800535687531429,0.04350149475851586,-0.3660642970214042,429.459,1010.034)"><path fill="rgb(90,109,199)" fill-opacity="0.15" d="M0 0 M-82.044,-72.933 C-82.044,-72.933 -57.955,40.933 -57.955,40.933 C-57.955,40.933 82.044,72.933 82.044,72.933 C82.044,72.933 -82.044,-72.933 -82.044,-72.933z"></path></g><g opacity="1" transform="matrix(0.969978220057977,0.2431918021092791,0.11736436369793807,-0.4681114889999796,358.075,962.108)"><path fill="rgb(90,109,199)" fill-opacity="0.15" d="M0 0 M-16,-81.5 C-16,-81.5 82,81.5 82,81.5 C82,81.5 -82,-64.5 -82,-64.5 C-82,-64.5 -16,-81.5 -16,-81.5z"></path></g><g opacity="1" transform="matrix(1.052522724679294,0.2414852602824341,0.06271098515654942,-0.2733282225469867,581.813,988.012)"><path fill="rgb(90,109,199)" fill-opacity="0.15" d="M0 0 M-107.212,-149.681 C-107.212,-149.681 110,31.681 110,31.681 C110,31.681 76,149.681 76,149.681 C76,149.681 -12,52.681 -12,52.681 C-12,52.681 -110,-110.319 -110,-110.319 C-110,-110.319 -107.212,-149.681 -107.212,-149.681z"></path></g><g opacity="1" transform="matrix(-0.5177958216397336,-0.7604279633814325,-0.8265701030255359,0.5628337807775534,993.563,940.79)"><path fill="rgb(90,109,199)" fill-opacity="0.15" d="M0 0 M-82.018,-180.494 C-82.018,-180.494 96.009,180.494 96.009,180.494 C96.009,180.494 -96.009,20.352 -96.009,20.352 C-96.009,20.352 -82.018,-180.494 -82.018,-180.494z"></path></g><g opacity="1" transform="matrix(0.9946866582316658,0.1029487830715902,0.04780941485844648,-0.4619324840827856,863.649,940.581)"><path fill="rgb(90,109,199)" fill-opacity="0.15" d="M0 0 M-74.386,-94.556 C-74.386,-94.556 74.386,-6.444 74.386,-6.444 C74.386,-6.444 40.386,94.556 40.386,94.556 C40.386,94.556 -7.614,11.556 -7.614,11.556 C-7.614,11.556 -31.614,-8.444 -31.614,-8.444 C-31.614,-8.444 -74.386,-94.556 -74.386,-94.556z"></path></g><g opacity="1" transform="matrix(1.0643907296229793,0.17412899325690037,0.09232126969244843,-0.5643282130660969,565.996,999.844)"><path fill="rgb(90,109,199)" fill-opacity="0.15" d="M0 0 M-119,-126 C-119,-126 119,126 119,126 C119,126 6.193,126 6.193,126 C6.193,126 -119,-126 -119,-126z"></path></g><g opacity="1" transform="matrix(0.9948489119618328,-0.10136884318348222,-0.07425977345092358,-0.7287964674358799,814.147,904.377)"><path fill="rgb(90,109,199)" fill-opacity="0.15" d="M0 0 M102.209,-27 C102.209,-27 10.792,-55.5 10.792,-55.5 C10.792,-55.5 -102.208,-55.5 -102.208,-55.5 C-102.208,-55.5 -90.208,-32.5 -90.208,-32.5 C-90.208,-32.5 57.792,55.5 57.792,55.5 C57.792,55.5 102.209,20.726 102.209,20.726 C102.209,20.726 102.209,-27 102.209,-27z"></path></g><g opacity="1" transform="matrix(-0.10816041845048383,-0.9135695520214191,-0.9930643535207555,0.11757206201476582,775.534,979.525)"><path fill="rgb(90,109,199)" fill-opacity="0.15" d="M0 0 M-19.5,60.5 C-19.5,60.5 19.5,-8.5 19.5,-8.5 C19.5,-8.5 -9.5,-60.5 -9.5,-60.5 C-9.5,-60.5 -19.5,60.5 -19.5,60.5z"></path></g><g opacity="1" transform="matrix(1.03704405995113,-0.282905675659004,-0.26818060025654317,-0.9830665215264125,668.093,988.13)"><path fill="rgb(90,109,199)" fill-opacity="0.15" d="M0 0 M42,-31 C42,-31 -13,31 -13,31 C-13,31 -42,-21 -42,-21 C-42,-21 42,-31 42,-31z"></path></g><g opacity="1" transform="matrix(-0.019609153657414218,0.8333193167044911,-1.1113123613880949,-0.026150713680828736,503.609,1000.984)"><path fill="rgb(90,109,199)" fill-opacity="0.15" d="M0 0 M26,62.029 C26,62.029 13,-62.029 13,-62.029 C13,-62.029 -26,6.971 -26,6.971 C-26,6.971 26,62.029 26,62.029z"></path></g><g opacity="1" transform="matrix(-0.008995086917362134,0.9137657273674413,0.9999515515998307,0.009843498010923643,521.327,957.609)"><path fill="rgb(90,109,199)" fill-opacity="0.15" d="M0 0 M25.5,-51.5 C25.5,-51.5 29.5,51.5 29.5,51.5 C29.5,51.5 -29.5,10.5 -29.5,10.5 C-29.5,10.5 25.5,-51.5 25.5,-51.5z"></path></g><g opacity="1" transform="matrix(-0.12136953670300095,-0.668583035725929,-0.9549429225821555,0.17335315719724154,629.199,935.357)"><path fill="rgb(90,109,199)" fill-opacity="0.15" d="M0 0 M-16.5,62 C-16.5,62 29.5,-21 29.5,-21 C29.5,-21 -29.5,-62 -29.5,-62 C-29.5,-62 -16.5,62 -16.5,62z"></path></g><g opacity="1" transform="matrix(-0.18182364466414153,-0.9833311559393652,-0.6384080863705142,0.11804536482530062,708.966,955.175)"><path fill="rgb(90,109,199)" fill-opacity="0.15" d="M0 0 M36.5,80.176 C36.5,80.176 9.5,-80.176 9.5,-80.176 C9.5,-80.176 -36.5,2.824 -36.5,2.824 C-36.5,2.824 36.5,80.176 36.5,80.176z"></path></g><g opacity="1" transform="matrix(-0.278470753332661,-0.8940666554784046,-0.9547607995027975,0.2973748740777859,821.641,899.3)"><path fill="rgb(90,109,199)" fill-opacity="0.15" d="M0 0 M-23,51.5 C-23,51.5 27,-27.5 27,-27.5 C27,-27.5 -27,-51.5 -27,-51.5 C-27,-51.5 -23,51.5 -23,51.5z"></path></g><g opacity="1" transform="matrix(0.91083855813001,-0.6063749083064406,-0.47324308109478364,-0.7108606238890406,880.795,883.604)"><path fill="rgb(90,109,199)" fill-opacity="0.15" d="M0 0 M-53,39.5 C-53,39.5 53,-18.5 53,-18.5 C53,-18.5 -3,-39.5 -3,-39.5 C-3,-39.5 -53,39.5 -53,39.5z"></path></g><g opacity="1" transform="matrix(0.9804802957626273,0.42510464420096694,-0.3024306464045133,0.6975395203967646,967.816,923.258)"><path fill="rgb(90,109,199)" fill-opacity="0.15" d="M0 0 M-89,29 C-89,29 89,29 89,29 C89,29 17,-29 17,-29 C17,-29 -89,29 -89,29z"></path></g><g opacity="1" transform="matrix(1.2990670920982312,-0.14121561042408007,-0.05165146397253359,-0.4751508484360458,786.672,921.471)"><path fill="rgb(90,109,199)" fill-opacity="0.15" d="M0 0 M-13.509,80 C-13.509,80 40.51,-80 40.51,-80 C40.51,-80 -40.509,-80 -40.509,-80 C-40.509,-80 -13.509,80 -13.509,80z"></path></g><g opacity="1" transform="matrix(1.0607834271880192,0.1378281923382905,-0.06703292237449343,0.5159134131013994,938.515,773.274)"><path fill="rgb(90,109,199)" fill-opacity="0.15" d="M0 0 M65.823,-51.337 C65.823,-51.337 -65.823,51.337 -65.823,51.337 C-65.823,51.337 -31.177,-51.337 -31.177,-51.337 C-31.177,-51.337 65.823,-51.337 65.823,-51.337z"></path></g><g opacity="1" transform="matrix(0.7575412258599548,0.3869363006007538,-0.3869363006007538,0.7575412258599548,1036.546,796.106)"><path fill="rgb(90,109,199)" fill-opacity="0.15" d="M0 0 M-92.829,80 C-92.829,80 92.829,-4.884 92.829,-4.884 C92.829,-4.884 71.17099999999999,-61 58.171,-80 C58.171,-80 -73.829,23 -73.829,23 C-73.829,23 -92.829,80 -92.829,80z"></path></g><g opacity="1" transform="matrix(1.3161977720588076,0.15142800014340618,-0.05752042098316119,0.49996202732799616,876.733,828.252)"><path fill="rgb(90,109,199)" fill-opacity="0.15" d="M0 0 M21.329,77.984 C21.329,77.984 71.5,-47.659 71.5,-47.659 C71.5,-47.659 53.883,-77.984 53.883,-77.984 C53.883,-77.984 -71.5,-20.659 -71.5,-20.659 C-71.5,-20.659 21.329,77.984 21.329,77.984z"></path></g><g opacity="1" transform="matrix(0.1363243460160397,0.6107813264854282,-1.0401465155375913,0.23215721788263868,1003.295,853.516)"><path fill="rgb(90,109,199)" fill-opacity="0.15" d="M0 0 M-6,-88 C-6,-88 56,88 56,88 C56,88 -36,59 -36,59 C-36,59 -56,38 -56,38 C-56,38 -6,-88 -6,-88z"></path></g><g opacity="1" transform="matrix(0.023248720588548506,0.6874269774972434,-0.9994285968672667,0.03380058821864515,1064.485,849.297)"><path fill="rgb(90,109,199)" fill-opacity="0.15" d="M0 0 M21.5,-116.5 C21.5,-116.5 37.641,-59.5 38.57,-31.5 C39.5,-3.5 39.5,116.5 39.5,116.5 C39.5,116.5 -21.5,-59.5 -21.5,-59.5 C-21.5,-59.5 -39.5,-88.5 -39.5,-88.5 C-39.5,-88.5 21.5,-116.5 21.5,-116.5z"></path></g></g><g transform="matrix(1.3717,0,0,1.3717,271.9483,808.50005)" opacity="1" style="-webkit-user-select: none;"><g opacity="0" transform="matrix(1,0,0,1,400.666,501.301)"><path fill="rgb(90,109,199)" fill-opacity="0.15" d="M0 0 M396.5,354 C396.5,410 190,441 0,441 C-190,441 -396.5,415 -396.5,354 C-396.5,343.92 -392.42,334.8 -385.81,328.19 C-381.47,323.85 -376.06,320.61 -370,318.88 C-370,318.88 -370,-71 -370,-71 C-370,-275.35 -204.35,-441 0,-441 C102.18,-441 194.68,-399.59 261.63,-332.63 C328.59,-265.68 370,-173.18 370,-71 C370,-71 370,318.88 370,318.88 C385.3,323.24 396.5,337.31 396.5,354z"></path></g><g opacity="1" transform="matrix(1,0,0,1,400.666,882.301)"><path fill="rgb(90,109,199)" fill-opacity="0.5" d="M0 0 M360,12.5 C360,12.5 249,60.5 0,60.5 C-249,60.5 -360,12.5 -360,12.5 C-381,0 -396.5,-3.8419999999999987 -396.5,-24 C-396.5,-44.158 -387.158,-60.5 -367,-60.5 C-367,-60.5 -210,-12.5 0,-12.5 C210,-12.5 367,-60.5 367,-60.5 C387.158,-60.5 396.5,-44.158 396.5,-24 C396.5,-3.8419999999999987 386,-1 360,12.5z"></path></g><g opacity="1" transform="matrix(1,0,0,1,400.583,502.457)"><path fill="rgb(90,109,199)" fill-opacity="0" d="M0 0 M400.583,352.844 C400.595,358.323 398.781,363.694 396.016,368.082 C393.267,372.524 389.738,376.185 385.993,379.372 C382.237,382.565 378.222,385.294 374.103,387.758 C369.983,390.228 365.74800000000005,392.414 361.458,394.436 C352.869,398.459 344.06,401.81399999999996 335.161,404.792 C326.262,407.77299999999997 317.267,410.366 308.225,412.724 C290.13500000000005,417.424 271.858,421.166 253.514,424.374 C235.16500000000002,427.574 216.74,430.21500000000003 198.276,432.463 C161.346,436.94300000000004 124.266,439.88399999999996 87.144,441.705 C50.023,443.525 12.835,444.14599999999996 -24.314,443.686 C-61.466,443.267 -98.613,441.896 -135.698,439.344 C-172.779,436.766 -209.81600000000003,433.07300000000004 -246.622,427.321 C-265.019,424.42 -283.36,421.00300000000004 -301.535,416.641 C-310.619,414.45000000000005 -319.663,412.03000000000003 -328.623,409.24 C-337.579,406.446 -346.462,403.308 -355.152,399.54 C-363.827,395.75800000000004 -372.36199999999997,391.398 -380.258,385.687 C-384.188,382.81600000000003 -387.95300000000003,379.58 -391.269,375.763 C-394.576,371.96299999999997 -397.41,367.478 -399.071,362.403 C-399.884,359.867 -400.389,357.206 -400.544,354.529 C-400.609,353.171 -400.584,351.882 -400.528,350.6 C-400.528,350.6 -400.38,348.67 -400.38,348.67 C-400.38,348.67 -400.134,346.749 -400.134,346.749 C-399.358,341.64000000000004 -397.59,336.68 -394.96,332.237 C-392.329,327.79600000000005 -388.866,323.85200000000003 -384.782,320.699 C-380.702,317.543 -376.011,315.173 -371.047,313.764 C-371.047,313.764 -374.035,317.724 -374.035,317.724 C-374.035,317.724 -373.831,196.331 -373.831,196.331 C-373.831,196.331 -373.354,74.938 -373.354,74.938 C-373.354,74.938 -372.65,-46.455 -372.65,-46.455 C-372.65,-46.455 -372.561,-61.629 -372.561,-61.629 C-372.52,-66.694 -372.536,-71.72699999999999 -372.413,-76.835 C-372.23400000000004,-87.01599999999999 -371.67199999999997,-97.194 -370.631,-107.322 C-369.625,-117.452 -368.253,-127.54599999999999 -366.443,-137.563 C-364.604,-147.57299999999998 -362.373,-157.51000000000002 -359.752,-167.341 C-349.205,-206.65300000000002 -332.17900000000003,-244.18200000000002 -309.569,-277.978 C-298.257,-294.868 -285.60499999999996,-310.86400000000003 -271.688,-325.677 C-264.747,-333.098 -257.521,-340.25300000000004 -250.008,-347.095 C-242.476,-353.91600000000005 -234.675,-360.43800000000005 -226.627,-366.641 C-194.442,-391.46500000000003 -158.159,-410.944 -119.689,-424.072 C-81.20599999999999,-437.16700000000003 -40.559,-443.80899999999997 0.084,-443.83 C40.728,-443.832 81.376,-437.174 119.861,-424.084 C158.329,-410.953 194.627,-391.487 226.78,-366.624 C234.82,-360.41200000000003 242.619,-353.889 250.151,-347.069 C257.663,-340.226 264.888,-333.072 271.828,-325.652 C285.73199999999997,-310.829 298.355,-294.815 309.644,-277.916 C320.987,-261.049 330.81,-243.17499999999998 339.252,-224.683 C343.444,-215.422 347.226,-205.976 350.648,-196.404 C354.064,-186.828 357.121,-177.11999999999998 359.7,-167.283 C362.305,-157.45399999999998 364.536,-147.525 366.368,-137.52 C368.173,-127.50900000000001 369.54,-117.421 370.54,-107.298 C371.56100000000004,-97.175 372.095,-87.00399999999999 372.25,-76.83 C372.361,-71.73 372.332,-66.693 372.361,-61.629 C372.361,-61.629 372.414,-46.455 372.414,-46.455 C372.414,-46.455 373.047,74.938 373.047,74.938 C373.047,74.938 373.694,196.331 373.694,196.331 C373.85200000000003,236.795 374.175,277.26 374.113,317.724 C374.113,317.724 371.187,313.848 371.187,313.848 C379.61,316.236 387.164,321.454 392.408,328.434 C395.039,331.91700000000003 397.101,335.831 398.488,339.974 C399.879,344.116 400.581,348.488 400.583,352.844zM0 0 M392.583,352.844 C392.59900000000005,345.819 390.27,338.851 386.015,333.269 C381.792,327.67 375.716,323.494 368.979,321.6 C368.979,321.6 366.057,320.779 366.057,320.779 C366.057,320.779 366.053,317.724 366.053,317.724 C365.991,277.26 366.31399999999996,236.795 366.472,196.331 C366.472,196.331 367.119,74.938 367.119,74.938 C367.119,74.938 367.752,-46.455 367.752,-46.455 C367.752,-46.455 367.805,-61.629 367.805,-61.629 C367.811,-66.682 367.87399999999997,-71.762 367.799,-76.776 C367.71599999999995,-86.83 367.25899999999996,-96.887 366.318,-106.902 C365.399,-116.917 364.117,-126.903 362.401,-136.817 C360.654,-146.725 358.528,-156.56699999999998 355.999,-166.307 C353.48400000000004,-176.052 350.495,-185.67200000000003 347.149,-195.163 C343.798,-204.65300000000002 340.09000000000003,-214.01899999999998 335.973,-223.206 C327.682,-241.54899999999998 318.02,-259.294 306.842,-276.051 C295.675,-292.80899999999997 283.183,-308.695 269.418,-323.402 C262.547,-330.764 255.393,-337.86400000000003 247.954,-344.656 C240.49800000000002,-351.427 232.771,-357.899 224.795,-364.049 C192.909,-388.679 156.923,-407.95399999999995 118.794,-420.948 C80.648,-433.912 40.367000000000004,-440.456 0.084,-440.482 C-40.20099999999999,-440.48 -80.483,-433.91700000000003 -118.63,-420.958 C-137.684,-414.435 -156.23499999999999,-406.419 -173.975,-396.875 C-191.706,-387.324 -208.697,-376.375 -224.614,-364.03 C-288.502,-314.926 -335.63599999999997,-244.27100000000002 -355.611,-166.249 C-358.126,-156.511 -360.25300000000004,-146.677 -361.994,-136.774 C-363.704,-126.865 -364.981,-116.886 -365.896,-106.878 C-366.815,-96.868 -367.24399999999997,-86.81800000000001 -367.304,-76.772 C-367.36699999999996,-71.76400000000001 -367.291,-66.681 -367.273,-61.629 C-367.273,-61.629 -367.184,-46.455 -367.184,-46.455 C-367.184,-46.455 -366.48,74.938 -366.48,74.938 C-366.48,74.938 -366.003,196.331 -366.003,196.331 C-366.003,196.331 -365.799,317.724 -365.799,317.724 C-365.799,317.724 -365.794,320.825 -365.794,320.825 C-365.794,320.825 -368.787,321.684 -368.787,321.684 C-372.741,322.81800000000004 -376.469,324.714 -379.715,327.24 C-382.96599999999995,329.76 -385.717,332.919 -387.801,336.455 C-389.884,339.995 -391.27399999999994,343.93 -391.881,347.99 C-391.881,347.99 -392.073,349.517 -392.073,349.517 C-392.073,349.517 -392.19,351.054 -392.19,351.054 C-392.234,352.087 -392.253,353.116 -392.209,354.074 C-392.092,356.026 -391.729,357.953 -391.131,359.832 C-389.902,363.584 -387.731,367.12399999999997 -384.961,370.306 C-382.195,373.49399999999997 -378.897,376.35900000000004 -375.346,378.951 C-368.208,384.125 -360.142,388.285 -351.836,391.903 C-335.15500000000003,399.094 -317.44399999999996,404.225 -299.59,408.565 C-281.705,412.873 -263.565,416.284 -245.337,419.178 C-208.86399999999998,424.925 -172.03199999999998,428.647 -135.136,431.256 C-98.22999999999999,433.842 -61.230000000000004,435.253 -24.221,435.715 C12.791999999999998,436.17699999999996 49.794999999999995,435.551 86.755,433.739 C123.708,431.923 160.61100000000002,428.991 197.312,424.538 C215.65900000000002,422.302 233.95499999999998,419.678 252.14,416.505 C270.32,413.325 288.404,409.618 306.211,404.99 C315.10900000000004,402.668 323.94,400.12100000000004 332.624,397.211 C341.30600000000004,394.307 349.852,391.04400000000004 358.056,387.199 C362.151,385.27000000000004 366.16299999999995,383.19599999999997 369.996,380.897 C373.83,378.604 377.503,376.09499999999997 380.813,373.279 C384.12,370.472 387.076,367.34099999999995 389.209,363.881 C391.368,360.43399999999997 392.57500000000005,356.663 392.583,352.844z"></path></g><g opacity="0" transform="matrix(1,0,0,1,548.922,272.098)"><path fill="rgb(255,255,255)" fill-opacity="0.8" d="M0 0 M-177.256,-168.797 C-234.737,-126.644 -133.44,-142.563 -19.668,-70.758 C132.024,24.979 129.107,366.161 165.873,468.064 C170.957,482.154 203.72799999999998,250.745 180.539,96.362 C166.253,1.25 117.015,-76.818 63.744,-120.797 C-22.256,-191.797 -132.256,-201.797 -177.256,-168.797z"></path></g><g opacity="1" transform="matrix(1,0,0,1,435,867.073)"><path fill="rgb(255,255,255)" fill-opacity="0.8" d="M0 0 M-331.834,-14.272 C-317.834,-10.272 -162.266,16.552 1.166,14.728 C131.776,13.27 260.422,-17.436999999999998 301.166,-25.272 C405.166,-45.272 229.48,27.568 2.166,28.728 C-193.834,29.728 -331.834,-14.272 -331.834,-14.272z"></path></g></g><g clip-path="url(#cp_qelI7P3Q)" transform="matrix(1.376811165467089,0.3863819543471928,-0.3863819543471928,1.376811165467089,956.1471990053326,-177.91544336043194)" opacity="1"><g clip-path="url(#cp_KfuMjjNy)" transform="matrix(0.12884752018163093,-0.991664417302065,0.991664417302065,0.12884752018163093,111.57458773724522,764.7563211195795)" opacity="1"><g transform="matrix(0.7948900000000001,0,0,0.7948900000000001,3.0901046499999723,2.862663249999855)" opacity="1" style="-webkit-user-select: none; display: none;"><g opacity="1" transform="matrix(1,0,0,1,254.008,566)"><path fill="rgb(153,102,0)" fill-opacity="1" d="M0 0 M42.596,202.603 C43.00299999999999,234.07 36.437,265.207 23.118,292.629 C15.846999999999998,307.601 7.635,320 0.383,320 C-6.481,320 -14.309999999999999,308.897 -21.415,295.017 C-35.859,266.801 -43.003,234.365 -42.579,201.558 C-42.579,201.558 -31.677,-35.34400000000001 -31.677,-136.114 C-31.677,-236.883 -35.841,-320 -35.841,-320 C-35.841,-320 35.845,-320 35.845,-320 C35.845,-320 31.684,-242.07800000000003 31.684,-136.104 C31.684,-30.13000000000001 42.596,202.603 42.596,202.603z" style="display: none;"></path></g><g opacity="1" transform="matrix(1,0,0,1,254.009,326)"><path fill="rgb(115,77,0)" fill-opacity="1" d="M0 0 M31,16.666 C31,16.666 -31,16.666 -31,16.666 C-40.167,16.666 -47.667,9.166 -47.667,-0.001 C-47.667,-9.167 -40.167,-16.666 -31,-16.666 C-31,-16.666 31,-16.666 31,-16.666 C40.167,-16.666 47.667,-9.167 47.667,-0.001 C47.667,9.166 40.167,16.666 31,16.666z" style="display: none;"></path></g><g opacity="1" transform="matrix(1,0,0,1,254.009,382.667)"><path fill="rgb(115,77,0)" fill-opacity="1" d="M0 0 M31,16.666 C31,16.666 -31,16.666 -31,16.666 C-40.167,16.666 -47.667,9.166 -47.667,-0.001 C-47.667,-9.167 -40.167,-16.666 -31,-16.666 C-31,-16.666 31,-16.666 31,-16.666 C40.167,-16.666 47.667,-9.167 47.667,-0.001 C47.667,9.166 40.167,16.666 31,16.666z" style="display: none;"></path></g></g></g><g clip-path="url(#cp_mLYuDbVD)" transform="matrix(0.12884752018163093,-0.991664417302065,0.991664417302065,0.12884752018163093,111.57458773724522,764.7563211195795)" opacity="1"><g transform="matrix(0.7948900000000001,0,0,0.7948900000000001,3.0901046499999723,2.862663249999855)" opacity="1" style="-webkit-user-select: none; display: none;"><g opacity="1" transform="matrix(1,0,0,1,254.434,138.5)"><path fill="rgb(255,204,51)" fill-opacity="1" d="M0 0 M-114.262,-121.289 C-114.262,-121.289 114.262,-121.289 114.262,-121.289 C114.262,-121.289 114.262,121.289 114.262,121.289 C114.262,121.289 -114.262,121.289 -114.262,121.289 C-114.262,121.289 -114.262,-121.289 -114.262,-121.289z" style="display: none;"></path></g><g opacity="1" transform="matrix(1,0,0,1,463.418,138.5)"><path fill="rgb(153,102,0)" fill-opacity="1" d="M0 0 M-44.6,93.9 C-44.6,93.9 -44.6,-93.9 -44.6,-93.9 C-44.6,-118.43 -24.531,-138.5 0,-138.5 C24.53,-138.5 44.6,-118.43 44.6,-93.9 C44.6,-93.9 44.6,93.9 44.6,93.9 C44.6,118.43 24.53,138.5 0,138.5 C-24.531,138.5 -44.6,118.43 -44.6,93.9z" style="display: none;"></path></g><g opacity="1" transform="matrix(1,0,0,1,404.376,138.5)"><path fill="rgb(115,77,0)" fill-opacity="1" d="M0 0 M-0.424,109.853 C-10.100999999999999,109.853 -18.647000000000002,113.545 -23.786,119.194 C-23.786,119.194 -23.786,-119.194 -23.786,-119.194 C-18.647000000000002,-113.545 -10.100999999999999,-109.853 -0.424,-109.853 C9.481,-109.853 18.205,-113.72699999999999 23.302,-119.603 C23.302,-119.603 23.786,-119.603 23.786,-119.603 C23.786,-119.603 23.786,119.603 23.786,119.603 C23.786,119.603 23.302,119.603 23.302,119.603 C18.205,113.72699999999999 9.481,109.853 -0.424,109.853z" style="display: none;"></path></g><g opacity="1" transform="matrix(1,0,0,1,373.368,138.5)"><path fill="rgb(153,102,0)" fill-opacity="1" d="M0 0 M0.001,126.246 C-8.07,126.246 -8.07,121.184 -8.07,121.184 C-8.07,121.184 -8.07,-121.184 -8.07,-121.184 C-8.07,-121.184 -8.07,-126.246 0.001,-126.246 C8.071,-126.246 8.07,-121.184 8.07,-121.184 C8.07,-121.184 8.07,121.184 8.07,121.184 C8.07,121.184 8.071,126.246 0.001,126.246z" style="display: none;"></path></g><g opacity="1" transform="matrix(1,0,0,1,44.6,138.5)"><path fill="rgb(153,102,0)" fill-opacity="1" d="M0 0 M44.6,93.9 C44.6,93.9 44.6,-93.9 44.6,-93.9 C44.6,-118.43 24.529999999999998,-138.5 -0.001,-138.5 C-24.531000000000002,-138.5 -44.601,-118.43 -44.601,-93.9 C-44.601,-93.9 -44.601,93.9 -44.601,93.9 C-44.601,118.43 -24.531000000000002,138.5 -0.001,138.5 C24.529999999999998,138.5 44.6,118.43 44.6,93.9z" style="display: none;"></path></g><g opacity="1" transform="matrix(1,0,0,1,103.642,138.5)"><path fill="rgb(115,77,0)" fill-opacity="1" d="M0 0 M0.425,109.853 C10.101,109.853 18.647,113.545 23.787,119.194 C23.787,119.194 23.787,-119.194 23.787,-119.194 C18.647,-113.545 10.101,-109.853 0.425,-109.853 C-9.481,-109.853 -18.205000000000002,-113.72699999999999 -23.303,-119.603 C-23.303,-119.603 -23.787,-119.603 -23.787,-119.603 C-23.787,-119.603 -23.787,119.603 -23.787,119.603 C-23.787,119.603 -23.303,119.603 -23.303,119.603 C-18.205000000000002,113.72699999999999 -9.481,109.853 0.425,109.853z" style="display: none;"></path></g><g opacity="1" transform="matrix(1,0,0,1,134.65,138.5)"><path fill="rgb(153,102,0)" fill-opacity="1" d="M0 0 M0.001,126.246 C8.071,126.246 8.07,121.184 8.07,121.184 C8.07,121.184 8.07,-121.184 8.07,-121.184 C8.07,-121.184 8.071,-126.246 0.001,-126.246 C-8.07,-126.246 -8.071,-121.184 -8.071,-121.184 C-8.071,-121.184 -8.071,121.184 -8.071,121.184 C-8.071,121.184 -8.07,126.246 0.001,126.246z" style="display: none;"></path></g></g></g><g mask="url(#XRFS52LXJf)" transform="matrix(0.10243377854439659,-0.7883732117551417,0.7883732117551417,0.10243377854439659,419.09449370834767,775.9577135433245)" opacity="0.4" style="-webkit-user-select: none; display: none;"><g opacity="1" transform="matrix(1,0,0,1,0,0)"><path fill="rgb(0,0,0)" fill-opacity="1" d="M0 0 M195.607,-121.455 C185.756,-121.56099999999999 185.353,-121.029 177.651,-113.514 C176.64600000000002,-112.53399999999999 134.499,269.964 134.749,319.771 C135.388,447.372 215.053,526.27 206.814,504.191 C182.405,438.779 196.455,283.803 197.476,239.711 C198.552,193.26000000000002 205.656,17.202 205.656,17.202 C205.656,17.202 185.39700000000002,14.100000000000001 184.228,0.774 C183.357,-9.157 205.947,-15.278 205.947,-15.278 C205.947,-15.278 205.831,-40.1 205.831,-40.1 C205.831,-40.1 186.12,-45.078 185.352,-56.35 C184.471,-69.281 204.924,-72.493 204.924,-72.493 C204.924,-72.493 206.022,-121.343 195.607,-121.455z" style="display: none;"></path></g><g opacity="1" transform="matrix(1,0,0,1,0,0)"><path fill="rgb(0,0,0)" fill-opacity="0" d="M0 0 M217.722,-39.629 C193.416,-44.189 183.35500000000002,-49.611 172.918,-65.958 C175.15200000000002,-57.57 154.48000000000002,-30.425 179.27,-33.012 C192.89600000000002,-34.434 201.297,-36.855 217.722,-39.629z" style="display: none;"></path></g><g opacity="1" transform="matrix(1,0,0,1,0,0)"><path fill="rgb(0,0,0)" fill-opacity="0" d="M0 0 M213.453,17.278 C189.147,12.718 179.085,7.295000000000002 168.648,-9.052 C170.882,-0.6639999999999997 150.211,26.482 175.001,23.895 C188.627,22.473 197.028,20.052 213.453,17.278z" style="display: none;"></path></g></g><g mask="url(#8qg0AfCFJf)" transform="matrix(0.10243377854439659,-0.7883732117551417,0.7883732117551417,0.10243377854439659,419.09449370834767,775.9577135433245)" opacity="0.4" style="-webkit-user-select: none; display: none;"><g opacity="1" transform="matrix(1,0,0,1,-51.572,35.849)"><path fill="rgb(0,0,0)" fill-opacity="0" d="M0 0 M122.087,-182.433 C95.876,-182.005 110.312,-156.488 54.829,-146.732 C39.811,-144.091 20.415,-150.426 10.432,-189.516 C9.415000000000001,-193.49699999999999 9.216999999999999,-184.3 10.437,-140.351 C11.096,-116.6 182.37099999999992,-167.799 532.834,-129.827 C553.7049999999999,-127.566 549.591,-296.24 532.62,-298.594 C515.114,-301.02299999999997 534.087,-201.982 495.035,-189.251 C459.92600000000004,-177.806 460.345,-195.58999999999997 448.187,-204.777 C417.906,-227.658 397.311,-186.692 392.947,-186.598 C306.644,-184.738 189.493,-175.738 148.596,-176.406 C142.941,-176.49800000000002 153.02100000000002,-182.939 122.087,-182.433z" style="display: none;"></path></g><g opacity="1" transform="matrix(1,0,0,1,0,0)"><path fill="rgb(0,0,0)" fill-opacity="1" d="M0 0 M-19.336,-350.534 C5.047000000000001,-406.818 96.23700000000001,-403.62199999999996 -13.285,-394.602 C-122.807,-385.582 -67.451,-75.24600000000001 -7.648,-86.307 C26.74,-92.667 -13.267000000000001,-97.275 -18.396,-137.453 C-21.981,-164.641 -20.549999999999997,-289.291 -19.336,-350.534z" style="display: none;"></path></g><g opacity="1" transform="matrix(1,0,0,1,-181.145,17.885)"><path fill="rgb(0,0,0)" fill-opacity="1" d="M0 0 M283.808,-387.444 C277.465,-361.81 275.746,-143.14600000000002 284.15,-134.263 C252.14999999999998,-125.58500000000001 263.812,-105.61499999999998 265.693,-258.885 C271.508,-395.589 239.91899999999998,-403.587 283.808,-387.444z" style="display: none;"></path></g><g opacity="1" transform="matrix(1,0,0,1,17.596,19.915)"><path fill="rgb(0,0,0)" fill-opacity="1" d="M0 0 M370.066,-411.305 C375.854,-265.704 373.93100000000004,-252.10199999999998 370.199,-123.759 C369.67,-105.569 413.422,-104.89 396.375,-126.751 C374.786,-154.437 380.70899999999995,-367.97 394.768,-397.353 C418.385,-446.711 368.924,-440.034 370.066,-411.305z" style="display: none;"></path></g></g><g transform="matrix(0.12884752018163093,-0.991664417302065,0.991664417302065,0.12884752018163093,455.21161634835056,816.9683175124618)" opacity="0.8" style="-webkit-user-select: none; display: none;"><g opacity="1" transform="matrix(0.9963494824030651,0.039947858705375046,-0.01740014388156801,0.4339813174468467,20.789,164.187)"><path fill="rgb(255,255,255)" fill-opacity="1" d="M0 0 M204.865,-372.797 C216.70700000000002,197.558 222.353,204.585 208.191,400.368 C207.945,403.772 227.973,300.981 225.494,226.396 C211.161,-204.859 203.94,-417.351 204.865,-372.797z" style="display: none;"></path></g><g opacity="1" transform="matrix(1,0,0,1.00059,0,0)"><path fill="rgb(255,255,255)" fill-opacity="1" d="M0 0 M240.471,-93.249 C247.541,-84.085 234.743,-72.893 240.084,-76.033 C258.512,-86.868 234.924,-100.439 240.471,-93.249z" style="display: none;"></path></g><g opacity="1" transform="matrix(1,0,0,1.00059,0,0)"><path fill="rgb(255,255,255)" fill-opacity="1" d="M0 0 M240.432,-48.091 C247.50199999999998,-38.927 234.70399999999998,-27.735 240.045,-30.875 C258.473,-41.71 234.885,-55.281 240.432,-48.091z" style="display: none;"></path></g></g><g transform="matrix(0.12884752018163093,-0.991664417302065,0.991664417302065,0.12884752018163093,455.21161634835056,816.9683175124618)" opacity="0.8" style="-webkit-user-select: none; display: none;"><g opacity="1" transform="matrix(1,0,0,1,0,0)"><path fill="rgb(255,255,255)" fill-opacity="1" d="M0 0 M66.841,-331.079 C61.443999999999996,-335.69100000000003 51.223,-343.863 62.031,-330.574 C67.626,-323.694 68.269,-255.661 66.604,-193.891 C64.779,-126.16099999999999 46.805,-122.908 67.244,-140.828 C71.435,-172.767 71.946,-326.716 66.841,-331.079z" style="display: none;"></path></g><g opacity="1" transform="matrix(1,0,0,1,339,1.5)"><path fill="rgb(255,255,255)" fill-opacity="1" d="M0 0 M67.453,-324.854 C62.056000000000004,-329.466 44.653999999999996,-346.278 55.394,-332.934 C65.82,-319.97900000000004 67.401,-256.51599999999996 65.816,-217.759 C62.037000000000006,-125.36199999999998 49.491,-126.65 67.864,-145.458 C73.72800000000001,-166.611 72.558,-320.491 67.453,-324.854z" style="display: none;"></path></g><g opacity="1" transform="matrix(1,0,0,1,0,3)"><path fill="rgb(255,255,255)" fill-opacity="1" d="M0 0 M293,-324.5 C289,-327 284.94300000000004,-322.614 283.386,-311.839 C282.024,-302.419 279.51,-167.735 267.724,-157.971 C262.763,-153.861 278.803,-151.03799999999998 294.366,-148.969 C296.58299999999997,-148.674 297,-322 293,-324.5z" style="display: none;"></path></g></g></g></g><g clip-path="url(#cp_tPTwScsG)" transform="matrix(1,0,0,1,0,0)" opacity="1"><g transform="matrix(1.3719999999999999,0,0,1.3719999999999999,274,844)" opacity="1" style="-webkit-user-select: none;"><path stroke-linecap="butt" stroke-linejoin="miter" fill-opacity="0" stroke-miterlimit="10" stroke="rgb(90,109,199)" stroke-opacity="1" stroke-width="3" d="M0 0 M-107.09134633710676,772.8314778812022 C-107.09134633710676,772.8314778812022 -128.41579061978112,810.4387815068166 -128.41579061978112,810.4387815068166 C-128.41579061978112,810.4387815068166 -21.588960184518427,799.6327824618793 -21.588960184518427,799.6327824618793 C-21.588960184518427,799.6327824618793 -22.603838196707727,776.8237622119885 -22.603838196707727,776.8237622119885 C-22.603838196707727,776.8237622119885 -64.35432112493794,764.9359309139729 -64.35432112493794,764.9359309139729 C-64.35432112493794,764.9359309139729 -107.09134633710676,772.8314778812022 -107.09134633710676,772.8314778812022zM0 0 M175.01836877453758,737.6990007715978 C175.01836877453758,737.6990007715978 106.17414898619681,763.9894685288407 106.17414898619681,763.9894685288407 C106.17414898619681,763.9894685288407 17.303802618002237,797.4392626124688 17.303802618002237,797.4392626124688 C17.303802618002237,797.4392626124688 21.744069790712032,738.5409791544815 21.744069790712032,738.5409791544815 C21.744069790712032,738.5409791544815 77.63952344061438,728.8766669876102 107.07926064150011,730.4338711135049 C136.51955085389523,731.9900046105003 175.01836877453758,737.6990007715978 175.01836877453758,737.6990007715978zM0 0 M159.64605856772997,696.3940478796076 C159.64605856772997,696.3940478796076 135.7076137937189,739.5346820133628 142.83921530862278,779.4604364757173 C142.83921530862278,779.4604364757173 235.6895748409765,696.8768790042161 235.6895748409765,696.8768790042161 C235.6895748409765,696.8768790042161 159.64605856772997,696.3940478796076 159.64605856772997,696.3940478796076zM0 0 M397.5553021438375,729.1998119897198 C397.5553021438375,729.1998119897198 246.0298238261625,736.0572076715844 246.0298238261625,736.0572076715844 C246.0298238261625,736.0572076715844 357.8044915496938,689.8663478101457 357.8044915496938,689.8663478101457 C357.8044915496938,689.8663478101457 341.96100169097383,722.1996183390225 341.96100169097383,722.1996183390225 C341.96100169097383,722.1996183390225 397.5553021438375,729.1998119897198 397.5553021438375,729.1998119897198zM0 0 M543.2614311731613,709.4346950697022 C543.2614311731613,709.4346950697022 403.24246729718345,708.4776627510281 403.24246729718345,708.4776627510281 C403.24246729718345,708.4776627510281 413.89504265823535,748.9160448158525 413.89504265823535,748.9160448158525 C413.89504265823535,748.9160448158525 482.1896786098266,732.1482466471078 543.2614311731613,709.4346950697022zM0 0 M509.8317016253998,726.7111642666754 C509.8317016253998,726.7111642666754 585.6863018059365,717.4133558318174 585.6863018059365,717.4133558318174 C585.6863018059365,717.4133558318174 575.0139778058932,744.9058113313777 575.0139778058932,744.9058113313777 C575.0139778058932,744.9058113313777 509.8317016253998,726.7111642666754 509.8317016253998,726.7111642666754zM0 0 M666.9164075258486,726.1094624899281 C666.9164075258486,726.1094624899281 650.3398142681369,708.751191483268 639.7498496180078,701.1314575650283 C639.7498496180078,701.1314575650283 610.1718758525344,726.1078203460347 610.1718758525344,726.1078203460347 C610.1718758525344,726.1078203460347 666.9164075258486,726.1094624899281 666.9164075258486,726.1094624899281zM0 0 M672.1869805656371,728.4574342188588 C672.1869805656371,728.4574342188588 749.4928304860985,691.6488153944188 749.4928304860985,691.6488153944188 C749.4928304860985,691.6488153944188 726.0375652346981,724.4586537643414 726.0375652346981,724.4586537643414 C726.0375652346981,724.4586537643414 686.3848273909612,728.4917969847387 672.1869805656371,728.4574342188588zM0 0 M796.1895099679623,699.9028028950422 C796.1895099679623,699.9028028950422 760.4568279497263,707.842749432377 760.4568279497263,707.842749432377 C760.4568279497263,707.842749432377 843.3610022662359,726.7663910784181 843.3610022662359,726.7663910784181 C843.3610022662359,726.7663910784181 796.1895099679623,699.9028028950422 796.1895099679623,699.9028028950422zM0 0 M755.8054595888552,704.3660978592791 C755.8054595888552,704.3660978592791 727.38850504745,726.0460233884803 727.38850504745,726.0460233884803 C727.38850504745,726.0460233884803 785.445317180183,728.993924761144 785.445317180183,728.993924761144 C785.445317180183,728.993924761144 755.8054595888552,704.3660978592791 755.8054595888552,704.3660978592791zM0 0 M936.0570370519138,720.4745864542392 C936.0570370519138,720.4745864542392 889.5355899247699,712.7036668498134 889.5355899247699,712.7036668498134 C889.5355899247699,712.7036668498134 807.0349629480863,736.5174135457607 807.0349629480863,736.5174135457607 C807.0349629480863,736.5174135457607 884.0802806832913,742.2826370344554 936.0570370519138,720.4745864542392z"></path><g opacity="1" transform="matrix(-0.10243262387068099,0.5577824931520957,0.9835525614997014,0.18062214362413107,-72.618,792.052)"><path fill="rgb(90,109,199)" fill-opacity="0.15" d="M0 0 M-22.355,-37.378 C-22.355,-37.378 49.66,-51.559 49.66,-51.559 C49.66,-51.559 -3.105,51.559 -3.105,51.559 C-3.105,51.559 -42.34,46.441 -42.34,46.441 C-42.34,46.441 -49.66,3.23 -49.66,3.23 C-49.66,3.23 -22.355,-37.378 -22.355,-37.378z"></path></g><g opacity="1" transform="matrix(-0.876584004877923,0.48124887780875025,0.3235724954834913,0.5893800215197202,84.252,745.877)"><path fill="rgb(90,109,199)" fill-opacity="0.15" d="M0 0 M-83.5,54.305 C-83.5,54.305 -10.5,39.305 -10.5,39.305 C-10.5,39.305 83.5,19.305 83.5,19.305 C83.5,19.305 51.263,-54.305 51.263,-54.305 C51.263,-54.305 -2.3850000000000016,-26.897 -27.442,-3.795 C-52.5,19.305999999999997 -83.5,54.305 -83.5,54.305z"></path></g><g opacity="1" transform="matrix(0.122712192174978,0.5334786087479151,0.9745503530222599,-0.22416870750438983,187.301,729.633)"><path fill="rgb(90,109,199)" fill-opacity="0.15" d="M0 0 M-70.5,-19.5 C-70.5,-19.5 -3.5,-52.5 70.5,-54.5 C70.5,-54.5 -38.5,54.5 -38.5,54.5 C-38.5,54.5 -70.5,-19.5 -70.5,-19.5z"></path></g><g opacity="1" transform="matrix(-0.027038373056053545,0.4800090824999894,0.9984172941323074,0.05623972597302982,322.834,714.14)"><path fill="rgb(90,109,199)" fill-opacity="0.15" d="M0 0 M22.534,75.45 C22.534,75.45 54.5,-75.45 54.5,-75.45 C54.5,-75.45 -54.5,33.55 -54.5,33.55 C-54.5,33.55 14.5,19.55 14.5,19.55 C14.5,19.55 22.534,75.45 22.534,75.45z"></path></g><g opacity="1" transform="matrix(0.967010380349304,-0.25473697080850755,-0.07054685669570808,-0.26780385473393625,474.068,712.054)"><path fill="rgb(90,109,199)" fill-opacity="0.15" d="M0 0 M67.578,-54.5 C67.578,-54.5 -67.578,77.635 -67.578,77.635 C-67.578,77.635 -67.578,-73.365 -67.578,-73.365 C-67.578,-73.365 2.7349999999999994,-77.635 67.578,-54.5z"></path></g><g opacity="1" transform="matrix(0.8934306216886522,-0.1632338587089961,-0.0806427958689959,-0.44138356966977316,550.017,734.421)"><path fill="rgb(90,109,199)" fill-opacity="0.15" d="M0 0 M-42,33 C-42,33 42,23 42,23 C42,23 25,-33 25,-33 C25,-33 -42,33 -42,33z"></path></g><g opacity="1" transform="matrix(-0.08700193563246707,-0.5318712126033934,-0.9868839065636126,0.16143157982793457,636.94,716.302)"><path fill="rgb(90,109,199)" fill-opacity="0.15" d="M0 0 M-26.938,-28 C-26.938,-28 9.812999999999999,-14.443000000000001 26.938,-5.222 C26.938,-5.222 -9.938,28 -9.938,28 C-9.938,28 -26.938,-28 -26.938,-28z"></path></g><g opacity="1" transform="matrix(-0.861174437828776,0.41367805360000853,-0.2547936044928605,-0.5304166783855273,715.044,718.805)"><path fill="rgb(90,109,199)" fill-opacity="0.15" d="M0 0 M44.81,16.75 C44.81,16.75 -44.81,16.25 -44.81,16.25 C-44.81,16.25 -7.81,-16.75 -7.81,-16.75 C-7.81,-16.75 31.43,6.25 44.81,16.75z"></path></g><g opacity="1" transform="matrix(-0.9211574924056625,-0.2102626849560134,0.14550707433490917,-0.6374641879497979,803.655,709.655)"><path fill="rgb(90,109,199)" fill-opacity="0.15" d="M0 0 M10,12 C10,12 45,-12 45,-12 C45,-12 -45,-12 -45,-12 C-45,-12 10,12 10,12z"></path></g><g opacity="1" transform="matrix(-0.9696010103912808,-0.2827965357783002,-0.17900740718196334,0.6137478395676771,758.565,720.155)"><path fill="rgb(90,109,199)" fill-opacity="0.15" d="M0 0 M7,-22.5 C7,-22.5 28,22.5 28,22.5 C28,22.5 -28,1.5 -28,1.5 C-28,1.5 7,-22.5 7,-22.5z"></path></g><g opacity="1" transform="matrix(-0.4880062424968167,0.7515498622075172,-0.8060736896602404,-0.5234103713507466,871.546,728.496)"><path fill="rgb(90,109,199)" fill-opacity="0.15" d="M0 0 M-46.714,-51.75 C-46.714,-51.75 -25.714,-6.75 -25.714,-6.75 C-25.714,-6.75 46.714,51.75 46.714,51.75 C46.714,51.75 5.286000000000001,-18.75 -46.714,-51.75z"></path></g></g><g transform="matrix(1.3717,0,0,1.3717,-254.0523717999999,1962.4998061)" opacity="1" style="-webkit-user-select: none;"><g opacity="1" transform="matrix(1,0,0,1,-11.664000000000044,2.916000000000004)"><g opacity="1" transform="matrix(1,0,0,1,401.166,31.801)"><path fill="rgb(90,109,199)" fill-opacity="0.5" d="M0 0 M29.5,0 C29.5,16.292 16.292,29.5 0,29.5 C-16.292,29.5 -29.5,16.292 -29.5,0 C-29.5,-16.292 -16.292,-29.5 0,-29.5 C16.292,-29.5 29.5,-16.292 29.5,0z"></path></g><g opacity="1" transform="matrix(1,0,0,1,400.74,30.856)"><path fill="rgb(90,109,199)" fill-opacity="1" d="M0 0 M0.426,30.846 C-3.4859999999999998,30.856 -7.414,30.335 -11.277,29.194 C-15.129999999999999,28.058 -18.951,26.285999999999998 -22.314,23.685 C-25.662,21.09 -28.534000000000002,17.683 -30.408,13.719 C-32.287,9.764 -33.270999999999994,5.354 -33.346,0.946 C-33.513999999999996,-7.928000000000001 -29.5,-16.695 -23.108,-22.587 C-19.923000000000002,-25.551 -16.173,-27.909 -12.094,-29.272 C-8.033999999999999,-30.691 -3.707,-31.076999999999998 0.426,-30.744 C4.5760000000000005,-30.384999999999998 8.562000000000001,-29.237000000000002 12.23,-27.55 C15.903,-25.861 19.247999999999998,-23.573 22.197,-20.826 C25.125999999999998,-18.067 27.743000000000002,-14.872 29.716,-11.188 C31.685000000000002,-7.5200000000000005 33.015,-3.354 33.262,0.946 C33.515,5.236 32.729,9.642 30.953,13.593 C29.195999999999998,17.557 26.407,21.003999999999998 23.089,23.61 C19.753,26.22 15.945,27.997 12.102,29.134 C8.249,30.277 4.337,30.813 0.426,30.846zM0 0 M0.426,30.046 C4.239,30.064999999999998 8.046000000000001,29.082 11.326,27.263 C14.619,25.449 17.352,22.849999999999998 19.482,20.002 C21.621,17.142 23.208,14.048 24.404,10.877 C25.59,7.694000000000001 26.322,4.38 26.589,0.946 C26.822,-2.4779999999999998 26.633,-6.032 25.639,-9.497 C24.66,-12.95 22.901,-16.295 20.372,-19.001 C17.857,-21.713 14.66,-23.801 11.198,-25.063 C7.7330000000000005,-26.339 4,-26.709 0.426,-26.364 C-3.166,-26.018 -6.5600000000000005,-24.885 -9.634,-23.341 C-12.691,-21.753 -15.480000000000002,-19.735 -17.76,-17.24 C-20.026000000000003,-14.740999999999998 -21.804,-11.842 -22.967,-8.742 C-24.107999999999997,-5.633000000000001 -24.751,-2.3710000000000004 -24.803,0.946 C-24.865000000000002,4.262 -24.33,7.572 -23.247,10.75 C-22.169,13.922 -20.665,17.055 -18.555,19.926 C-16.453,22.782999999999998 -13.733,25.387999999999998 -10.449,27.203 C-7.179,29.025 -3.387,30.023 0.426,30.046z"></path></g></g></g><g transform="matrix(1.3719999999999999,0,0,1.3719999999999999,271.8280000000001,844.3580000000001)" opacity="1" style="-webkit-user-select: none;"><g opacity="1" transform="matrix(1,0,0,1,400.583,565.539)"><path fill="rgb(90,109,199)" fill-opacity="0.04" d="M0 0 M370,226.854 C370,226.854 370,0.962 370,0.962 C370,0.962 321.5,-21.276 321.5,-21.276 C321.5,-21.276 306.5,72.724 306.5,72.724 C306.5,72.724 221.5,9.724 221.5,9.724 C221.5,9.724 93.5,95.724 93.5,95.724 C93.5,95.724 -8.5,69.724 -8.5,69.724 C-8.5,69.724 17.5,-17.276 17.5,-17.276 C17.5,-17.276 0.5,-92.276 0.5,-92.276 C0.5,-92.276 -96.5,-47.276 -96.5,-47.276 C-96.5,-47.276 -113.5,-158.276 -113.5,-158.276 C-113.5,-158.276 -159.5,-170.276 -159.5,-170.276 C-159.5,-170.276 -170.5,-264.276 -170.5,-264.276 C-170.5,-264.276 -222.5,-230.276 -222.5,-230.276 C-222.5,-230.276 -276.5,-329.276 -276.5,-329.276 C-276.5,-329.276 -319.945,-348.974 -319.945,-348.974 C-351.767,-294.33799999999997 -370,-230.81300000000002 -370,-163.026 C-370,-163.026 -370,226.854 -370,226.854 C-376.06,228.58300000000003 -381.47,231.82399999999998 -385.81,236.164 C-392.42,242.774 -396.5,251.89399999999998 -396.5,261.974 C-396.5,322.974 -190,348.974 0,348.974 C190,348.974 396.5,317.974 396.5,261.974 C396.5,245.284 385.3,231.21400000000003 370,226.854z"></path></g><g opacity="1" transform="matrix(1,0,0,1,425.614,439.087)"><path fill="rgb(90,109,199)" fill-opacity="1" d="M0 0 M344.135,129.232 C344.135,129.232 295.636,106.992 295.636,106.992 C295.636,106.992 298.441,105.491 298.441,105.491 C298.441,105.491 283.438,199.49 283.438,199.49 C283.438,199.49 282.92,202.732 282.92,202.732 C282.92,202.732 280.281,200.778 280.281,200.778 C280.281,200.778 195.256,137.811 195.256,137.811 C195.256,137.811 197.603,137.866 197.603,137.866 C197.603,137.866 69.588,223.843 69.588,223.843 C69.588,223.843 68.843,224.343 68.843,224.343 C68.843,224.343 67.972,224.123 67.972,224.123 C50.97,219.797 33.986000000000004,215.40099999999998 17.005,210.992 C17.005,210.992 -33.924,197.715 -33.924,197.715 C-33.924,197.715 -35.534,197.295 -35.534,197.295 C-35.534,197.295 -35.054,195.721 -35.054,195.721 C-35.054,195.721 -8.543,108.875 -8.543,108.875 C-8.543,108.875 -8.56,109.41 -8.56,109.41 C-8.56,109.41 -16.944,71.882 -16.944,71.882 C-16.944,71.882 -25.388,34.371 -25.388,34.371 C-25.388,34.371 -24.162,34.973 -24.162,34.973 C-24.162,34.973 -121.182,79.928 -121.182,79.928 C-121.182,79.928 -122.185,80.393 -122.185,80.393 C-122.185,80.393 -122.352,79.301 -122.352,79.301 C-122.352,79.301 -139.342,-31.7 -139.342,-31.7 C-139.342,-31.7 -138.739,-31.031 -138.739,-31.031 C-138.739,-31.031 -184.743,-43.012 -184.743,-43.012 C-184.743,-43.012 -185.298,-43.156 -185.298,-43.156 C-185.298,-43.156 -185.365,-43.726 -185.365,-43.726 C-185.365,-43.726 -190.933,-90.718 -190.933,-90.718 C-190.933,-90.718 -196.539,-137.706 -196.539,-137.706 C-196.539,-137.706 -194.977,-136.975 -194.977,-136.975 C-194.977,-136.975 -246.813,-102.725 -246.813,-102.725 C-246.813,-102.725 -247.993,-101.945 -247.993,-101.945 C-247.993,-101.945 -248.684,-103.195 -248.684,-103.195 C-248.684,-103.195 -303.24,-201.892 -303.24,-201.892 C-303.24,-201.892 -302.335,-201.052 -302.335,-201.052 C-316.86199999999997,-207.519 -331.322,-214.132 -345.802,-220.701 C-345.802,-220.701 -344.151,-224.343 -344.151,-224.343 C-329.668,-217.779 -315.165,-211.261 -300.728,-204.596 C-300.728,-204.596 -300.127,-204.318 -300.127,-204.318 C-300.127,-204.318 -299.824,-203.755 -299.824,-203.755 C-299.824,-203.755 -246.379,-104.453 -246.379,-104.453 C-246.379,-104.453 -248.25,-104.923 -248.25,-104.923 C-248.25,-104.923 -196.087,-138.673 -196.087,-138.673 C-196.087,-138.673 -194.71,-139.563 -194.71,-139.563 C-194.71,-139.563 -194.524,-137.942 -194.524,-137.942 C-194.524,-137.942 -189.13,-90.93 -189.13,-90.93 C-189.13,-90.93 -183.698,-43.921 -183.698,-43.921 C-183.698,-43.921 -184.32,-44.636 -184.32,-44.636 C-184.32,-44.636 -138.325,-32.617 -138.325,-32.617 C-138.325,-32.617 -137.803,-32.48 -137.803,-32.48 C-137.803,-32.48 -137.722,-31.948 -137.722,-31.948 C-137.722,-31.948 -120.712,79.05 -120.712,79.05 C-120.712,79.05 -121.881,78.423 -121.881,78.423 C-121.881,78.423 -24.902,33.379 -24.902,33.379 C-24.902,33.379 -23.917,32.922 -23.917,32.922 C-23.917,32.922 -23.676,33.982 -23.676,33.982 C-23.676,33.982 -15.12,71.469 -15.12,71.469 C-15.12,71.469 -6.503,108.943 -6.503,108.943 C-6.503,108.943 -6.442,109.208 -6.442,109.208 C-6.442,109.208 -6.521,109.478 -6.521,109.478 C-6.521,109.478 -32.01,196.63 -32.01,196.63 C-32.01,196.63 -33.139,194.637 -33.139,194.637 C-33.139,194.637 17.931,207.361 17.931,207.361 C34.95,211.618 51.965999999999994,215.88799999999998 68.964,220.23 C68.964,220.23 67.348,220.509 67.348,220.509 C67.348,220.509 195.333,134.487 195.333,134.487 C195.333,134.487 196.526,133.685 196.526,133.685 C196.526,133.685 197.68,134.541 197.68,134.541 C197.68,134.541 282.656,197.574 282.656,197.574 C282.656,197.574 279.499,198.862 279.499,198.862 C279.499,198.862 294.495,104.861 294.495,104.861 C294.495,104.861 294.909,102.264 294.909,102.264 C294.909,102.264 297.301,103.36 297.301,103.36 C297.301,103.36 345.802,125.596 345.802,125.596 C345.802,125.596 344.135,129.232 344.135,129.232z"></path></g></g></g></g></svg>