<svg id="Layer_1" data-name="Layer 1" xmlns="http://www.w3.org/2000/svg" viewBox="0 0 800 800"><defs><style>.cls-1{fill:red;}.cls-2{fill:#fff;}.cls-3{fill:none;stroke:#fff;stroke-miterlimit:10;stroke-width:8px;opacity:0.5;}</style></defs><title>SkullAndBowlVandalism</title><path class="cls-1" d="M483.91,564.64c-3.58-36.68-57.68-87.38-94.46-59.74-21.26,16-21.32,53.88.76,68.39,13.11,8.62,70.83-2,50.34-23-3.6-3.68-29.6,7.56-36.34,5-26.4-10.07-6.27-36.78,18.13-36.9,69.74-.35,39.33,93.85,4.08,116.53-61.42,39.5-134.06-10.59-194.57-24.44-16.24-3.72-46.11-10.53-61.45-3.52-24.08,11-20.23,17.37.23,23.13-.07,0,35.85-3.19,33.86-3.3,16.2.93,32.41,6.51,47.89,11.13,37.6,11.21,73.71,26.95,113.65,27.5C426.05,666.24,490.62,633.48,483.91,564.64Z"/><path class="cls-1" d="M148.55,612c-9.32-33.93-151.09-28.56-174.38-27.27-17.66,1-38.52,6.65-55.66-.06-8.13-3.19-13.39-14.18-21.48-16.36-30.77-8.3-15.68,20.39.73,31.19,34.12,22.47,92.82,3.35,131.81,7C39.45,607.5,151.86,624.08,148.55,612Z"/><path class="cls-1" d="M442.46,205.32c-13.76-7,.09-13.53-19.31-14.91-10-.71-32.4,17.78-40.13,22.48-.69-15-10.08-5.77-15.37-10.4,12-34.55-12.47-21.62-28.24-17.52-.66.17-5.66-7-10.34-5.09-11.72,4.89-23.18,15.23-32.45,23.83-8.7-20.8-20.47,5-27.86,7.68-12.07,4.33-29.83,6-41.47,19.69-4.22,5-32.16,48-4.76,46.45a23.71,23.71,0,0,0,12.79-12.84q3.42-13.63,12.75-4.6a237.6,237.6,0,0,0,29.57-28.49c6.95,19,28-9,32.83-13.48,5.6,15.44,24.74-2.18,29.71-5.61-13.69,18.26,14.33,15.23,22.23,12.67-4.81,30.81,25.3,5.92,36.66,1.46q7.62-4.66,15.49-8.89,10.44-10.65,17.79,4.84C435.92,220.79,461.82,215.18,442.46,205.32Z"/><path class="cls-1" d="M129.05,239.54c-15.81.58-59.42-89.37-69.88-56.61-8.08-10.18-40-75.28-39.23-18.9-4.66-22-25.63-35-30.72-.76-12.57-9-33.17-11.86-29.88,14.2,2.74,21.67,11.86,3.69,19.61,4.33,1,.08,21.52,4,22.45,4.54C9.3,190.64,6.65,198.81,15,206.1c17,14.84,22.16,19.17,24.33-16.2,17.48,26.81,29.13,22.61,48.2,34.71,11,7,15.75,31.72,33.87,32.91C138,258.61,144.71,239,129.05,239.54Z"/><path class="cls-1" d="M331.45,355.25c-20.84-29.88-64.73,1.81-49.3,33.1C302.23,429.08,358.15,393.53,331.45,355.25Z"/><path class="cls-1" d="M51.19,352.51C24.79,325.3-15,369.36,15.9,390.17,38.34,405.27,74.21,376.22,51.19,352.51Z"/><path class="cls-2" d="M784,253Q760,270,736.39,287.37c5.19-5.91,36.62-56.58,34.62-66.61-4.32-21.73-32.15-13.22-46-8.42,4.59-7.13,4.78-9.14-2-15.35,18.2-12.79,56.36-38.49,63.28-60.82,8.57-27.67-21-10.1-33-1.92,14-19.46,20.52-40.44-8.52-28-11.32,4.83-23.55,14.55-34,21-5.91,3.65-26.44,10.57-28.28,12a283.21,283.21,0,0,0,10.63-35.55q-10.32-7.69,3.18-16.5L707.5,70.29c18.45-27.93,3.53-31.93-22.79-21.51,11.43-9.79,31-20.32,10.56-31.13C684.64,12,635.13,33.71,623.57,37c10.08-13.24,28.56-36.94-.64-31.64-22.14,4-55,31.8-75.8,41.79,4.68-7,2.22-17.42-8.38-18.39-8.18-.75-39.91,33.64-41.51,41.09-7.38,34.25,66.9.88,83.56-3.9-9.12,12.67-18.57,26.27-5,39.18-16.56,8.74-39.78,18-53,31.47-11.42,11.58-9.81,19.45,7.78,17,17.07-2.34,41.12-23.07,55.54-32.18C607.42,108,629.39,97.85,653,88.7c-8.05,10-50,41.24-43.07,49.83-27.48,13.82-72.93,30.78-93.34,54.22-4.21,4.84-20.07,13.27-2.47,19.45,8.4,2.95,23.45-7.86,31.31-11.6-11,7.91-50.07,23.07-27,37.24,13.63,8.36,60.85-16,74.67-21.31-10.45,9.26-32.55,21.73-38.31,34-11.94,25.34,23.52,10.91,37.31,5.26-15.41,10.52-104.37,61.88-99.51,74.78,7.31,19.43,95.49-29.26,111.34-36.15-26.78,19.78-55.73,38.14-81,59.81-7.28,6.25-22.56,15-2,21.79,10.13,3.34,42.42-19,51.79-23.51l62.5-30.13-69.38,52.35c-7.74,5.84-58.55,38.1-57.48,45.07,4.32,28,88.47-28.24,102.51-35.57-12.83,10.38-27.12,22.41-37.27,32.94-7.72,8-34.65,26.72-39.7,37.55-2.84,6.09-5.44,15.25,7.85,17.08,12.15,1.68,46-27.14,56.84-33.65-10.61,13.06-26.29,31.72-41,40.11,8.53-4.86-30.88,10.62-15.54,3.47-8.54,4-19.45,16-26,22.6-8.48,8.59-34.77,28.8-13.43,38.21,11.82,5.21,50.26-15,61.61-18.95-6.94,7.75-27,18.1-11.13,27.61,9.15,5.48,19.17-7.94,27.92-13.12-6,13.26-50.51,33.34-38.2,47.24,10.89,12.3,3.32-3.18,17.1.89,13.11,3.87,3,13.66,22.32,9.23-6,5.61-29,21.61-27.6,29.48,3.06,16.76,16.64,4.72,22.81,2.51,29.76-10.67,59.72-38.17,87.55-54.06-18.25,16.37-37.61,30.83-57.18,45.64l-46.06,34.86c-10.55,8-36.51,17.66-22.87,31.18q-40.51,18.75-79.85,39.92c-10,5.39-57.65,22.53-38.08,34.63,12.59,7.78,53.24-16.35,67.5-22.18q43.23-17.67,86.76-34.6c-9.89,11.72-53.19,46.2-37.1,61,19,17.44,85.45-19,104.71-27.06-5.57,3.49-17,14.45-1.24,18.23,10.56,2.54,18.58-8.82,28.39-11.69q8.55-12.38,14.59-4.54a8.19,8.19,0,0,0,6,3.45c11.14-4.3,20.64-16.31,29.32-24.07,11.54-10.32,46.59-28.65,18.33-42.49-18.09-8.86-66.81,15.49-84.91,21.56,17.72-13.06,48.42-26.91,62-43.82,6.07-7.53,7.16-6.53,9.3-10.43q-11.73-8,3.22-15.72,6.16-7.26,11.88-14.87c12.42-16.19,14.13-26.31-7.49-26.61-24-.34-60.85,18.47-83.31,26.21,20.2-18.12,52-32.79,68.85-53.71q12.71-1.92,11.34-10A5.85,5.85,0,0,0,725.9,543c6.67-8.55,19.84-12.89,19.47-25.77-1-35.82-90.87,2.78-112.68,8.6l53.92-48.37c11.51-10.32,42.38-25.19,24.75-40.07,11.86-9.25,30.21-15.93,12.52-28.61,12.94-13.68,7.31-22.37-8.51-19.53-18.57,3.34-44.42,25.87-61.6,34.46q27.6-26.47,56.62-51.4c5.67-4.87,33.21-27,8.05-29.71,8.69-7.88,10.16-10.69-.47-18.81l61.53-45.29c4.68-3.45,17.35-9.35,16.05-15.27C795,260.43,786.63,251.1,784,253ZM612.52,456.13,730.77,227.75c7.33-2.55,14.64-5.25,22-7.6a418,418,0,0,1-32.93,55.78c-11.5-11.24-26.41-.71-39.3,5.5C695.77,257.81,703.75,237.13,730.77,227.75Zm-55.73,30a29.61,29.61,0,0,0-8.09-7.84L683.87,244Zm23.24-36.12-50.21,17.44c16.87-11.51,34.78-16.77,54.07-23.42Zm-36-82.83c1.93-1.38,12.71-19.25,7.4-11.21-4.17,11-4.22,18.8-15.22,23.05Zm40.58,30.54c-26.56,19.51-50.64,43.61-81.18,56.12,35.8-32.32,67.05-63.82,108.16-89.22Q716.86,153.21,702.84,169.33ZM682,77.06q-12.84-11.45,8.24-12.48ZM595.64,45l-13.38,3.84q8.73-4.55,17.34-9.32Zm-68,16.54q5.23,4.43-4,4.12ZM665.18,41.74c-25.79,21.6-48.23,34.64-79,48.16,5.72-8.65,13.15-25.57,21.79-31.73C621.55,48.48,649.1,46.36,665.18,41.74ZM563,209.95l60.91-43.66c1.34,5.68,9,13.64,14.8,10.46C621.54,193.38,585.47,202,563,209.95Zm39.92,59.94c6.68,4.46,40.18-11.7,48-14.42l-74,32.14Zm64.37-.1c-18.71,29.07-39.36,37-70.27,51.9ZM526.67,519.19q7.22-7.48,15.09-14.27,6.85-12.31,13-2c5.8-3.52,16.28-16.72,24.11-20.35a9.25,9.25,0,0,0,6.26,3.38q11.2-4.22,22.32-8.64,22.24-8.82,44.19-18.37c-14.9,15.75-45.78,40.58-63.07,44.56-4.55,1-14.78-.68-22.95,2.16Zm79.6-2.36q5,3.49-2.91,6.09Q598.53,518.86,606.28,516.83ZM593,577l-12.6,2.89c6.14-13.58,35.14-21.19,48.21-27.66l-19.93,18.58Q602.29,585.59,593,577Zm43.9-7.62c10.71-6.28,23.6-25.69,36.29-34.09,15.2-10.05,35.69-12.69,53.71-17.29C705.12,542.47,665.16,552.77,636.87,569.39ZM599.38,701.9l6-1.94Q591,710.71,599.38,701.9Zm-40.14,48.15q44.11-18.24,89.22-33.93C619.14,728.19,590.2,742.74,559.23,750.05ZM722.82,605.2c-18.11,22.75-31.26,36.25-58.77,46.32,9.45-6.54,22.55-8.77,14-20.28-6.73-9-9.5-2.8-19.13.27-27.37,8.7-52.91,23.83-80.72,32.4,9-6.81,22.75-20.68,33.12-25.07,5.15-2.18,23.94-4.62,31.39-7.29Q682.38,617.32,722.82,605.2Z"/><path class="cls-3" d="M784,253Q760,270,736.39,287.37c5.19-5.91,36.62-56.58,34.62-66.61-4.32-21.73-32.15-13.22-46-8.42,4.59-7.13,4.78-9.14-2-15.35,18.2-12.79,56.36-38.49,63.28-60.82,8.57-27.67-21-10.1-33-1.92,14-19.46,20.52-40.44-8.52-28-11.32,4.83-23.55,14.55-34,21-5.91,3.65-26.44,10.57-28.28,12a283.21,283.21,0,0,0,10.63-35.55q-10.32-7.69,3.18-16.5L707.5,70.29c18.45-27.93,3.53-31.93-22.79-21.51,11.43-9.79,31-20.32,10.56-31.13C684.64,12,635.13,33.71,623.57,37c10.08-13.24,28.56-36.94-.64-31.64-22.14,4-55,31.8-75.8,41.79,4.68-7,2.22-17.42-8.38-18.39-8.18-.75-39.91,33.64-41.51,41.09-7.38,34.25,66.9.88,83.56-3.9-9.12,12.67-18.57,26.27-5,39.18-16.56,8.74-39.78,18-53,31.47-11.42,11.58-9.81,19.45,7.78,17,17.07-2.34,41.12-23.07,55.54-32.18C607.42,108,629.39,97.85,653,88.7c-8.05,10-50,41.24-43.07,49.83-27.48,13.82-72.93,30.78-93.34,54.22-4.21,4.84-20.07,13.27-2.47,19.45,8.4,2.95,23.45-7.86,31.31-11.6-11,7.91-50.07,23.07-27,37.24,13.63,8.36,60.85-16,74.67-21.31-10.45,9.26-32.55,21.73-38.31,34-11.94,25.34,23.52,10.91,37.31,5.26-15.41,10.52-104.37,61.88-99.51,74.78,7.31,19.43,95.49-29.26,111.34-36.15-26.78,19.78-55.73,38.14-81,59.81-7.28,6.25-22.56,15-2,21.79,10.13,3.34,42.42-19,51.79-23.51l62.5-30.13-69.38,52.35c-7.74,5.84-58.55,38.1-57.48,45.07,4.32,28,88.47-28.24,102.51-35.57-12.83,10.38-27.12,22.41-37.27,32.94-7.72,8-34.65,26.72-39.7,37.55-2.84,6.09-5.44,15.25,7.85,17.08,12.15,1.68,46-27.14,56.84-33.65-10.61,13.06-26.29,31.72-41,40.11,8.53-4.86-30.88,10.62-15.54,3.47-8.54,4-19.45,16-26,22.6-8.48,8.59-34.77,28.8-13.43,38.21,11.82,5.21,50.26-15,61.61-18.95-6.94,7.75-27,18.1-11.13,27.61,9.15,5.48,19.17-7.94,27.92-13.12-6,13.26-50.51,33.34-38.2,47.24,10.89,12.3,3.32-3.18,17.1.89,13.11,3.87,3,13.66,22.32,9.23-6,5.61-29,21.61-27.6,29.48,3.06,16.76,16.64,4.72,22.81,2.51,29.76-10.67,59.72-38.17,87.55-54.06-18.25,16.37-37.61,30.83-57.18,45.64l-46.06,34.86c-10.55,8-36.51,17.66-22.87,31.18q-40.51,18.75-79.85,39.92c-10,5.39-57.65,22.53-38.08,34.63,12.59,7.78,53.24-16.35,67.5-22.18q43.23-17.67,86.76-34.6c-9.89,11.72-53.19,46.2-37.1,61,19,17.44,85.45-19,104.71-27.06-5.57,3.49-17,14.45-1.24,18.23,10.56,2.54,18.58-8.82,28.39-11.69q8.55-12.38,14.59-4.54a8.19,8.19,0,0,0,6,3.45c11.14-4.3,20.64-16.31,29.32-24.07,11.54-10.32,46.59-28.65,18.33-42.49-18.09-8.86-66.81,15.49-84.91,21.56,17.72-13.06,48.42-26.91,62-43.82,6.07-7.53,7.16-6.53,9.3-10.43q-11.73-8,3.22-15.72,6.16-7.26,11.88-14.87c12.42-16.19,14.13-26.31-7.49-26.61-24-.34-60.85,18.47-83.31,26.21,20.2-18.12,52-32.79,68.85-53.71q12.71-1.92,11.34-10A5.85,5.85,0,0,0,725.9,543c6.67-8.55,19.84-12.89,19.47-25.77-1-35.82-90.87,2.78-112.68,8.6l53.92-48.37c11.51-10.32,42.38-25.19,24.75-40.07,11.86-9.25,30.21-15.93,12.52-28.61,12.94-13.68,7.31-22.37-8.51-19.53-18.57,3.34-44.42,25.87-61.6,34.46q27.6-26.47,56.62-51.4c5.67-4.87,33.21-27,8.05-29.71,8.69-7.88,10.16-10.69-.47-18.81l61.53-45.29c4.68-3.45,17.35-9.35,16.05-15.27C795,260.43,786.63,251.1,784,253ZM612.52,456.13,730.77,227.75c7.33-2.55,14.64-5.25,22-7.6a418,418,0,0,1-32.93,55.78c-11.5-11.24-26.41-.71-39.3,5.5C695.77,257.81,703.75,237.13,730.77,227.75Zm-55.73,30a29.61,29.61,0,0,0-8.09-7.84L683.87,244Zm23.24-36.12-50.21,17.44c16.87-11.51,34.78-16.77,54.07-23.42Zm-36-82.83c1.93-1.38,12.71-19.25,7.4-11.21-4.17,11-4.22,18.8-15.22,23.05Zm40.58,30.54c-26.56,19.51-50.64,43.61-81.18,56.12,35.8-32.32,67.05-63.82,108.16-89.22Q716.86,153.21,702.84,169.33ZM682,77.06q-12.84-11.45,8.24-12.48ZM595.64,45l-13.38,3.84q8.73-4.55,17.34-9.32Zm-68,16.54q5.23,4.43-4,4.12ZM665.18,41.74c-25.79,21.6-48.23,34.64-79,48.16,5.72-8.65,13.15-25.57,21.79-31.73C621.55,48.48,649.1,46.36,665.18,41.74ZM563,209.95l60.91-43.66c1.34,5.68,9,13.64,14.8,10.46C621.54,193.38,585.47,202,563,209.95Zm39.92,59.94c6.68,4.46,40.18-11.7,48-14.42l-74,32.14Zm64.37-.1c-18.71,29.07-39.36,37-70.27,51.9ZM526.67,519.19q7.22-7.48,15.09-14.27,6.85-12.31,13-2c5.8-3.52,16.28-16.72,24.11-20.35a9.25,9.25,0,0,0,6.26,3.38q11.2-4.22,22.32-8.64,22.24-8.82,44.19-18.37c-14.9,15.75-45.78,40.58-63.07,44.56-4.55,1-14.78-.68-22.95,2.16Zm79.6-2.36q5,3.49-2.91,6.09Q598.53,518.86,606.28,516.83ZM593,577l-12.6,2.89c6.14-13.58,35.14-21.19,48.21-27.66l-19.93,18.58Q602.29,585.59,593,577Zm43.9-7.62c10.71-6.28,23.6-25.69,36.29-34.09,15.2-10.05,35.69-12.69,53.71-17.29C705.12,542.47,665.16,552.77,636.87,569.39ZM599.38,701.9l6-1.94Q591,710.71,599.38,701.9Zm-40.14,48.15q44.11-18.24,89.22-33.93C619.14,728.19,590.2,742.74,559.23,750.05ZM722.82,605.2c-18.11,22.75-31.26,36.25-58.77,46.32,9.45-6.54,22.55-8.77,14-20.28-6.73-9-9.5-2.8-19.13.27-27.37,8.7-52.91,23.83-80.72,32.4,9-6.81,22.75-20.68,33.12-25.07,5.15-2.18,23.94-4.62,31.39-7.29Q682.38,617.32,722.82,605.2Z"/></svg>