<svg xmlns="http://www.w3.org/2000/svg" width="923" height="908" viewBox="0 0 923 908" preserveAspectRatio="xMidYMid meet" style="width: 100%; height: 100%;"><defs><clipPath id="animationMask_bEWiMlDt33"><rect width="923" height="908" x="0" y="0"></rect></clipPath></defs><g clip-path="url(#animationMask_bEWiMlDt33)"><g transform="matrix(0.7071067811865476,-0.7071067811865475,0.7071067811865475,0.7071067811865476,298.745591293668,605.3230340823068)" opacity="1" style="-webkit-user-select: none;"><g opacity="1" transform="matrix(1,0,0,1,412.5,27.5)"><path fill="rgb(230,230,230)" fill-opacity="1" d="M0 0 M407.145,-27.5 C407.145,-27.5 -412.5,-27.5 -412.5,-27.5 C-412.5,-27.5 -412.5,27.5 -412.5,27.5 C-412.5,27.5 405.077,27.5 405.077,27.5 C405.773,27.5 406.415,27.104000000000003 406.707,26.472 C410.37,18.564 412.5,9.133 412.5,-1 C412.5,-10.721 410.53799999999995,-19.796 407.145,-27.5z"></path></g><g opacity="1" transform="matrix(1,0,0,1,412.5,33.5)"><path fill="rgb(192,192,192)" fill-opacity="1" d="M0 0 M410.986,-21.5 C410.986,-21.5 -412.5,-21.5 -412.5,-21.5 C-412.5,-21.5 -412.5,21.5 -412.5,21.5 C-412.5,21.5 405.076,21.5 405.076,21.5 C405.77200000000005,21.5 406.41400000000004,21.104000000000003 406.706,20.472 C410.369,12.564 412.5,3.132999999999999 412.5,-7 C412.5,-12.041 411.966,-16.906 410.986,-21.5z"></path></g><g opacity="1" transform="matrix(1,0,0,1,412.5,39.5)"><path fill="rgb(154,154,154)" fill-opacity="1" d="M0 0 M412.455,-15.5 C412.455,-15.5 -412.5,-15.5 -412.5,-15.5 C-412.5,-15.5 -412.5,15.5 -412.5,15.5 C-412.5,15.5 405.076,15.5 405.076,15.5 C405.77200000000005,15.5 406.41400000000004,15.104 406.706,14.472 C410.369,6.563999999999999 412.5,-2.867000000000001 412.5,-13 C412.5,-13.839 412.483,-14.672 412.455,-15.5z"></path></g><g opacity="1" transform="matrix(1,0,0,1,412.241,45)"><path fill="rgb(115,115,115)" fill-opacity="1" d="M0 0 M-412.241,-10 C-412.241,-10 -412.241,10 -412.241,10 C-412.241,10 405.338,10 405.338,10 C406.03200000000004,10 406.672,9.604000000000001 406.964,8.974 C409.579,3.327 411.406,-3.099 412.241,-10 C412.241,-10 -412.241,-10 -412.241,-10z"></path></g><g opacity="1" transform="matrix(1,0,0,1,413.089,27.5)"><path fill="rgb(77,77,77)" fill-opacity="1" d="M0 0 M411.49,-14.19 C410.309,-18.89 409.17499999999995,-23.46 406.554,-27.5 C407.56399999999996,-22.8 407.78999999999996,-18.22 408.28,-13.61 C408.79999999999995,-9.01 409.01,-4.409999999999999 408.929,0.19 C408.84,4.79 408.48,9.38 407.8,13.96 C407.58,15.48 407.32,16.99 407.03,18.5 C407.03,18.5 -413.09,18.5 -413.09,18.5 C-413.09,18.5 -413.09,27.5 -413.09,27.5 C-413.09,27.5 404.489,27.5 404.489,27.5 C405.185,27.5 405.82500000000005,27.102999999999998 406.117,26.473 C406.45300000000003,25.744999999999997 406.77799999999996,25.005000000000003 407.09,24.26 C407.099,24.240000000000002 410.04,17.97 411,14.65 C412.32,9.98 413,5.12 413.08,0.26 C413.16999999999996,-4.6000000000000005 412.639,-9.481 411.49,-14.19z"></path></g></g><g transform="matrix(0.7071067811865476,-0.7071067811865475,0.7071067811865475,0.7071067811865476,3.5278030415031765,882.5081852006522)" opacity="1" style="-webkit-user-select: none;"><g opacity="1" transform="matrix(1,0,0,1,158.754,40.624)"><path fill="rgb(230,230,230)" fill-opacity="1" d="M0 0 M158.501,-21.731 C158.501,-21.731 158.501,27.797 158.501,27.797 C158.501,27.797 99.947,27.797 99.947,27.797 C99.842,27.797 99.736,27.809 99.635,27.831 C99.635,27.831 55.303,39.445 55.303,39.445 C48.967999999999996,41.061 42.186,40.553 36.244,38.016 C36.244,38.016 -158.501,-40.374 -158.501,-40.374 C-158.501,-40.374 41.686,-40.374 41.686,-40.374 C44.195,-40.374 46.692,-40.061 49.105,-39.446 C49.105,-39.446 99.635,-21.764 99.635,-21.764 C99.736,-21.742 99.842,-21.731 99.947,-21.731 C99.947,-21.731 158.501,-21.731 158.501,-21.731z"></path></g><g opacity="1" transform="matrix(1,0,0,1,113.463,40.627)"><path fill="rgb(151,151,151)" fill-opacity="1" d="M0 0 M113.25,36.164 C113.25,36.164 100.633,39.464 100.633,39.464 C94.295,41.089999999999996 87.518,40.58 81.572,38.04 C81.572,38.04 -113.175,-40.343 -113.175,-40.343 C-113.175,-40.343 -85.022,-40.343 -85.022,-40.343 C-85.022,-40.343 99.399,33.886 99.399,33.886 C103.731,35.738 108.514,36.508 113.25,36.164z"></path></g></g><g transform="matrix(0.7071067811865476,-0.7071067811865475,0.7071067811865475,0.7071067811865476,175.23171428990776,719.8184711988138)" opacity="1" style="-webkit-user-select: none;"><g opacity="1" transform="matrix(1,0,0,1,14.6,68.21)"><path fill="rgb(243,243,243)" fill-opacity="1" d="M0 0 M0.07,0.04 C0.07,0.04 -0.07,0.04 -0.07,0.04 C-0.07,0.04 -0.07,-0.04 -0.07,-0.04 C0.01999999999999999,0.019999999999999997 0.060000000000000005,0.04 0.07,0.04z"></path></g><g opacity="1" transform="matrix(1,0,0,1,95.055,34.25)"><path fill="rgb(243,243,243)" fill-opacity="1" d="M0 0 M80.51,33.91 C80.52000000000001,33.98 80.52,34 80.52,34 C80.52,34 -72.41,34 -72.41,34 C-73.94,31.48 -76.07,27.5 -77.5,22.91 C-77.5,22.9 -77.51,22.880000000000003 -77.51,22.87 C-77.58,22.650000000000002 -77.64999999999999,22.43 -77.71,22.2 C-77.77999999999999,21.97 -77.85,21.73 -77.91,21.5 C-78.17999999999999,20.54 -78.44000000000001,19.53 -78.68,18.44 C-78.75,18.110000000000003 -78.83000000000001,17.769 -78.9,17.43 C-78.97,17.08 -79.03999999999999,16.73 -79.1,16.38 C-79.16999999999999,16.019 -79.24,15.659999999999998 -79.3,15.29 C-79.34,15.04 -79.39,14.79 -79.43,14.54 C-79.52000000000001,13.969999999999999 -79.61,13.389 -79.69,12.79 C-79.74,12.459999999999999 -79.77999999999999,12.129999999999999 -79.82,11.79 C-79.85,11.579999999999998 -79.87,11.370000000000001 -79.9,11.15 C-79.93,10.870000000000001 -79.96,10.59 -79.99,10.3 C-80.03,9.96 -80.07,9.620000000000001 -80.1,9.269 C-80.16999999999999,8.620000000000001 -80.21000000000001,7.96 -80.26,7.28 C-80.43,4.99 -80.52,2.54 -80.52,-0.1 C-80.52,-0.1 -80.52,-4.33 -80.52,-4.33 C-80.52,-4.33 -80.43,-4.33 -80.43,-4.33 C-80.41000000000001,-5.42 -80.35000000000001,-6.47 -80.26,-7.481 C-79.93,-12.030000000000001 -79.32000000000001,-15.9 -78.56,-19.16 C-76.29,-29 -72.74,-33.3 -72.07,-34 C-72.07,-34 80.52,-34 80.52,-34 C80.52,-34 80.52000000000001,-33.98 80.51,-33.94 C80.51,-33.94 80.51,-33.91 80.51,-33.91 C80.45,-33.13999999999999 80.08,-27.64 79.8,-19.16 C79.66,-14.9 79.55000000000001,-9.879999999999999 79.51,-4.33 C79.5,-2.92 79.49,-1.481 79.49,0 C79.49,3.25 79.52,6.36 79.57,9.269 C79.64999999999999,14.48 79.78999999999999,19.09 79.94,22.87 C80.19,29.23 80.46000000000001,33.26 80.51,33.91z"></path></g><g opacity="1" transform="matrix(1,0,0,1,14.6,68.21)"><path fill="rgb(205,205,205)" fill-opacity="1" d="M0 0 M0.07,0.04 C0.07,0.04 -0.07,0.04 -0.07,0.04 C-0.07,0.04 -0.07,-0.04 -0.07,-0.04 C0.01999999999999999,0.019999999999999997 0.060000000000000005,0.04 0.07,0.04z"></path></g><g opacity="1" transform="matrix(1,0,0,1,95.055,41.67)"><path fill="rgb(205,205,205)" fill-opacity="1" d="M0 0 M80.52,26.58 C80.52,26.58 -72.41,26.58 -72.41,26.58 C-73.94,24.06 -76.07,20.08 -77.5,15.49 C-77.5,15.48 -77.51,15.459999999999999 -77.51,15.45 C-77.58,15.229999999999999 -77.64999999999999,15.01 -77.71,14.78 C-77.77999999999999,14.549999999999999 -77.85,14.31 -77.91,14.08 C-78.17999999999999,13.120000000000001 -78.44000000000001,12.11 -78.68,11.02 C-78.75,10.69 -78.83000000000001,10.35 -78.9,10.01 C-78.97,9.66 -79.03999999999999,9.31 -79.1,8.96 C-79.16999999999999,8.600000000000001 -79.24,8.24 -79.3,7.87 C-79.34,7.62 -79.39,7.37 -79.43,7.12 C-79.52000000000001,6.55 -79.61,5.97 -79.69,5.37 C-79.74,5.04 -79.77999999999999,4.71 -79.82,4.37 C-79.85,4.16 -79.87,3.95 -79.9,3.73 C-79.93,3.45 -79.96,3.17 -79.99,2.88 C-80.03,2.54 -80.07,2.2 -80.1,1.85 C-80.16999999999999,1.2000000000000002 -80.21000000000001,0.54 -80.26,-0.14 C-80.43,-2.43 -80.52,-4.879999999999999 -80.52,-7.52 C-80.52,-7.52 -80.52,-11.75 -80.52,-11.75 C-80.52,-11.75 -80.43,-11.75 -80.43,-11.75 C-80.41000000000001,-12.84 -80.35000000000001,-13.89 -80.26,-14.9 C-79.93,-19.45 -79.32000000000001,-23.32 -78.56,-26.58 C-78.56,-26.58 79.8,-26.58 79.8,-26.58 C79.66,-22.32 79.55000000000001,-17.3 79.51,-11.75 C79.5,-10.34 79.49,-8.9 79.49,-7.42 C79.49,-4.17 79.52,-1.06 79.57,1.85 C79.64999999999999,7.0600000000000005 79.78999999999999,11.67 79.94,15.45 C80.19,21.81 80.46000000000001,25.84 80.51,26.49 C80.52000000000001,26.56 80.52,26.58 80.52,26.58z"></path></g><g opacity="1" transform="matrix(1,0,0,1,14.6,68.21)"><path fill="rgb(167,167,167)" fill-opacity="1" d="M0 0 M0.07,0.04 C0.07,0.04 -0.07,0.04 -0.07,0.04 C-0.07,0.04 -0.07,-0.04 -0.07,-0.04 C0.01999999999999999,0.019999999999999997 0.060000000000000005,0.04 0.07,0.04z"></path></g><g opacity="1" transform="matrix(1,0,0,1,95.055,49.085)"><path fill="rgb(167,167,167)" fill-opacity="1" d="M0 0 M80.52,19.165 C80.52,19.165 -72.41,19.165 -72.41,19.165 C-73.94,16.645 -76.07,12.665 -77.5,8.075 C-77.5,8.065 -77.51,8.045 -77.51,8.035 C-77.58,7.815 -77.64999999999999,7.595000000000001 -77.71,7.365 C-77.77999999999999,7.135 -77.85,6.8950000000000005 -77.91,6.665 C-78.17999999999999,5.705 -78.44000000000001,4.695 -78.68,3.605 C-78.75,3.275 -78.83000000000001,2.935 -78.9,2.595 C-78.97,2.245 -79.03999999999999,1.895 -79.1,1.545 C-79.16999999999999,1.185 -79.24,0.825 -79.3,0.455 C-79.34,0.20500000000000002 -79.39,-0.044999999999999984 -79.43,-0.295 C-79.52000000000001,-0.865 -79.61,-1.4449999999999998 -79.69,-2.045 C-79.74,-2.375 -79.77999999999999,-2.705 -79.82,-3.045 C-79.85,-3.255 -79.87,-3.465 -79.9,-3.685 C-79.93,-3.965 -79.96,-4.245 -79.99,-4.535 C-80.03,-4.875 -80.07,-5.215000000000001 -80.1,-5.565 C-80.16999999999999,-6.215000000000001 -80.21000000000001,-6.875 -80.26,-7.555 C-80.43,-9.844999999999999 -80.52,-12.295 -80.52,-14.935 C-80.52,-14.935 -80.52,-19.165 -80.52,-19.165 C-80.52,-19.165 79.51,-19.165 79.51,-19.165 C79.5,-17.755 79.49,-16.315 79.49,-14.835 C79.49,-11.585 79.52,-8.475000000000001 79.57,-5.565 C79.64999999999999,-0.3550000000000004 79.78999999999999,4.255000000000001 79.94,8.035 C80.19,14.395 80.46000000000001,18.425 80.51,19.075 C80.52000000000001,19.145 80.52,19.165 80.52,19.165z"></path></g><g opacity="1" transform="matrix(1,0,0,1,14.6,68.21)"><path fill="rgb(128,128,128)" fill-opacity="1" d="M0 0 M0.07,0.04 C0.07,0.04 -0.07,0.04 -0.07,0.04 C-0.07,0.04 -0.07,-0.04 -0.07,-0.04 C0.01999999999999999,0.019999999999999997 0.060000000000000005,0.04 0.07,0.04z"></path></g><g opacity="1" transform="matrix(1,0,0,1,95.265,55.885)"><path fill="rgb(128,128,128)" fill-opacity="1" d="M0 0 M80.31,12.365 C80.31,12.365 -72.62,12.365 -72.62,12.365 C-74.15,9.845 -76.27999999999999,5.865 -77.71,1.275 C-77.71,1.265 -77.72,1.245 -77.72,1.235 C-77.78999999999999,1.0150000000000001 -77.86,0.7949999999999999 -77.92,0.565 C-77.99,0.33499999999999996 -78.06,0.095 -78.12,-0.135 C-78.39,-1.095 -78.65,-2.1049999999999995 -78.89,-3.195 C-78.96,-3.525 -79.04,-3.865 -79.11,-4.205 C-79.17999999999999,-4.555 -79.25,-4.905 -79.31,-5.255 C-79.38,-5.615 -79.45,-5.975 -79.51,-6.345 C-79.55000000000001,-6.595 -79.6,-6.845 -79.64,-7.095 C-79.73,-7.665 -79.82000000000001,-8.245000000000001 -79.9,-8.845 C-79.95,-9.175 -79.99,-9.505 -80.03,-9.845 C-80.06,-10.055000000000001 -80.08,-10.264999999999999 -80.11,-10.485 C-80.14,-10.764999999999999 -80.17,-11.045000000000002 -80.2,-11.335 C-80.24000000000001,-11.675 -80.28,-12.015 -80.31,-12.365 C-80.31,-12.365 79.36,-12.365 79.36,-12.365 C79.44,-7.155 79.58,-2.545 79.73,1.235 C79.98,7.595000000000001 80.25,11.625 80.3,12.275 C80.31,12.345 80.31,12.365 80.31,12.365z"></path></g><g opacity="1" transform="matrix(1,0,0,1,11.615,28.705)"><path fill="rgb(128,128,128)" fill-opacity="1" d="M0 0 M5.925,28.415 C5.925,28.425 5.935,28.444999999999997 5.935,28.455 C-1.4350000000000005,27.654999999999998 -6.245000000000001,24.475 -9.505,20.225 C-10.275,17.435000000000002 -10.854999999999999,14.305 -11.155,10.795 C-11.285,9.135 -11.365,7.385 -11.365,5.545 C-11.365,-18.415 1.445,-27.475 2.915,-28.375 C3.005,-28.435 3.0450000000000004,-28.455 3.055,-28.455 C3.055,-28.455 11.365,-28.455 11.365,-28.455 C10.705,-27.755 7.154999999999999,-23.455 4.875,-13.615 C4.115,-10.355 3.505,-6.485 3.175,-1.936 C3.0949999999999998,-0.925 3.0349999999999997,0.125 3.005,1.215 C3.005,1.215 2.915,1.215 2.915,1.215 C2.915,1.215 2.915,5.445 2.915,5.445 C2.915,8.085 3.005,10.535 3.175,12.825 C3.2249999999999996,13.504999999999999 3.2750000000000004,14.165 3.345,14.814 C3.665,18.285 4.165,21.335 4.755,23.985 C5.115,25.604 5.515,27.075 5.925,28.415z"></path></g><g opacity="1" transform="matrix(1,0,0,1,14.6,68.21)"><path fill="rgb(90,90,90)" fill-opacity="1" d="M0 0 M0.07,0.04 C0.07,0.04 -0.07,0.04 -0.07,0.04 C-0.07,0.04 -0.07,-0.04 -0.07,-0.04 C0.01999999999999999,0.019999999999999997 0.060000000000000005,0.04 0.07,0.04z"></path></g><g opacity="1" transform="matrix(1,0,0,1,88.845,58.59)"><path fill="rgb(90,90,90)" fill-opacity="1" d="M0 0 M86.73,9.66 C86.73,9.66 -74.17,9.66 -74.17,9.66 C-74.18,9.66 -74.22,9.64 -74.31,9.58 C-75.45,8.89 -83.14,3.4700000000000006 -86.73,-9.66 C-83.47,-5.41 -78.66000000000001,-2.23 -71.29,-1.43 C-71.29,-1.44 -71.3,-1.46 -71.3,-1.47 C-71.3,-1.47 86.15,-1.47 86.15,-1.47 C86.4,4.890000000000001 86.67,8.92 86.72,9.57 C86.73,9.64 86.73,9.66 86.73,9.66z"></path></g><g opacity="1" transform="matrix(1,0,0,1,173.474,34.25)"><path fill="rgb(90,90,90)" fill-opacity="1" d="M0 0 M1.522,22.87 C1.772,29.23 2.0410000000000004,33.26 2.091,33.91 C2.0010000000000003,33.25 -2.091,23 -2.091,0 C-2.091,-23 1.981,-33.12 2.091,-33.91 C2.031,-33.13999999999999 1.662,-27.64 1.382,-19.16 C1.242,-14.9 1.131,-9.879999999999999 1.091,-4.33 C1.081,-2.92 1.072,-1.481 1.072,0 C1.072,3.25 1.101,6.36 1.151,9.269 C1.231,14.48 1.372,19.09 1.522,22.87z"></path></g><g opacity="1" transform="matrix(1,0,0,1,26.465,7.855)"><path fill="rgb(230,230,230)" fill-opacity="1" d="M0 0 M3.125,0 C3.125,1.726 1.726,3.125 0,3.125 C-1.726,3.125 -3.125,1.726 -3.125,0 C-3.125,-1.726 -1.726,-3.125 0,-3.125 C1.726,-3.125 3.125,-1.726 3.125,0z"></path></g><g opacity="1" transform="matrix(1,0,0,1,52.951,7.855)"><path fill="rgb(230,230,230)" fill-opacity="1" d="M0 0 M3.125,0 C3.125,1.726 1.726,3.125 0,3.125 C-1.726,3.125 -3.125,1.726 -3.125,0 C-3.125,-1.726 -1.726,-3.125 0,-3.125 C1.726,-3.125 3.125,-1.726 3.125,0z"></path></g><g opacity="1" transform="matrix(1,0,0,1,79.437,7.855)"><path fill="rgb(230,230,230)" fill-opacity="1" d="M0 0 M3.125,0 C3.125,1.726 1.726,3.125 0,3.125 C-1.726,3.125 -3.125,1.726 -3.125,0 C-3.125,-1.726 -1.726,-3.125 0,-3.125 C1.726,-3.125 3.125,-1.726 3.125,0z"></path></g><g opacity="1" transform="matrix(1,0,0,1,105.923,7.855)"><path fill="rgb(230,230,230)" fill-opacity="1" d="M0 0 M3.125,0 C3.125,1.726 1.726,3.125 0,3.125 C-1.726,3.125 -3.125,1.726 -3.125,0 C-3.125,-1.726 -1.726,-3.125 0,-3.125 C1.726,-3.125 3.125,-1.726 3.125,0z"></path></g><g opacity="1" transform="matrix(1,0,0,1,132.409,7.855)"><path fill="rgb(230,230,230)" fill-opacity="1" d="M0 0 M3.125,0 C3.125,1.726 1.726,3.125 0,3.125 C-1.726,3.125 -3.125,1.726 -3.125,0 C-3.125,-1.726 -1.726,-3.125 0,-3.125 C1.726,-3.125 3.125,-1.726 3.125,0z"></path></g><g opacity="1" transform="matrix(1,0,0,1,158.895,7.855)"><path fill="rgb(230,230,230)" fill-opacity="1" d="M0 0 M3.125,0 C3.125,1.726 1.726,3.125 0,3.125 C-1.726,3.125 -3.125,1.726 -3.125,0 C-3.125,-1.726 -1.726,-3.125 0,-3.125 C1.726,-3.125 3.125,-1.726 3.125,0z"></path></g><g opacity="1" transform="matrix(1,0,0,1,26.465,22.567)"><path fill="rgb(179,179,179)" fill-opacity="1" d="M0 0 M3.125,0 C3.125,1.726 1.726,3.125 0,3.125 C-1.726,3.125 -3.125,1.726 -3.125,0 C-3.125,-1.726 -1.726,-3.125 0,-3.125 C1.726,-3.125 3.125,-1.726 3.125,0z"></path></g><g opacity="1" transform="matrix(1,0,0,1,52.951,22.567)"><path fill="rgb(179,179,179)" fill-opacity="1" d="M0 0 M3.125,0 C3.125,1.726 1.726,3.125 0,3.125 C-1.726,3.125 -3.125,1.726 -3.125,0 C-3.125,-1.726 -1.726,-3.125 0,-3.125 C1.726,-3.125 3.125,-1.726 3.125,0z"></path></g><g opacity="1" transform="matrix(1,0,0,1,79.437,22.567)"><path fill="rgb(179,179,179)" fill-opacity="1" d="M0 0 M3.125,0 C3.125,1.726 1.726,3.125 0,3.125 C-1.726,3.125 -3.125,1.726 -3.125,0 C-3.125,-1.726 -1.726,-3.125 0,-3.125 C1.726,-3.125 3.125,-1.726 3.125,0z"></path></g><g opacity="1" transform="matrix(1,0,0,1,105.923,22.567)"><path fill="rgb(179,179,179)" fill-opacity="1" d="M0 0 M3.125,0 C3.125,1.726 1.726,3.125 0,3.125 C-1.726,3.125 -3.125,1.726 -3.125,0 C-3.125,-1.726 -1.726,-3.125 0,-3.125 C1.726,-3.125 3.125,-1.726 3.125,0z"></path></g><g opacity="1" transform="matrix(1,0,0,1,132.409,22.567)"><path fill="rgb(179,179,179)" fill-opacity="1" d="M0 0 M3.125,0 C3.125,1.726 1.726,3.125 0,3.125 C-1.726,3.125 -3.125,1.726 -3.125,0 C-3.125,-1.726 -1.726,-3.125 0,-3.125 C1.726,-3.125 3.125,-1.726 3.125,0z"></path></g><g opacity="1" transform="matrix(1,0,0,1,158.895,22.567)"><path fill="rgb(179,179,179)" fill-opacity="1" d="M0 0 M3.125,0 C3.125,1.726 1.726,3.125 0,3.125 C-1.726,3.125 -3.125,1.726 -3.125,0 C-3.125,-1.726 -1.726,-3.125 0,-3.125 C1.726,-3.125 3.125,-1.726 3.125,0z"></path></g><g opacity="1" transform="matrix(1,0,0,1,26.465,37.278)"><path fill="rgb(153,153,153)" fill-opacity="1" d="M0 0 M3.125,0 C3.125,1.726 1.726,3.125 0,3.125 C-1.726,3.125 -3.125,1.726 -3.125,0 C-3.125,-1.726 -1.726,-3.125 0,-3.125 C1.726,-3.125 3.125,-1.726 3.125,0z"></path></g><g opacity="1" transform="matrix(1,0,0,1,52.951,37.278)"><path fill="rgb(153,153,153)" fill-opacity="1" d="M0 0 M3.125,0 C3.125,1.726 1.726,3.125 0,3.125 C-1.726,3.125 -3.125,1.726 -3.125,0 C-3.125,-1.726 -1.726,-3.125 0,-3.125 C1.726,-3.125 3.125,-1.726 3.125,0z"></path></g><g opacity="1" transform="matrix(1,0,0,1,79.437,37.278)"><path fill="rgb(153,153,153)" fill-opacity="1" d="M0 0 M3.125,0 C3.125,1.726 1.726,3.125 0,3.125 C-1.726,3.125 -3.125,1.726 -3.125,0 C-3.125,-1.726 -1.726,-3.125 0,-3.125 C1.726,-3.125 3.125,-1.726 3.125,0z"></path></g><g opacity="1" transform="matrix(1,0,0,1,105.923,37.278)"><path fill="rgb(153,153,153)" fill-opacity="1" d="M0 0 M3.125,0 C3.125,1.726 1.726,3.125 0,3.125 C-1.726,3.125 -3.125,1.726 -3.125,0 C-3.125,-1.726 -1.726,-3.125 0,-3.125 C1.726,-3.125 3.125,-1.726 3.125,0z"></path></g><g opacity="1" transform="matrix(1,0,0,1,132.409,37.278)"><path fill="rgb(153,153,153)" fill-opacity="1" d="M0 0 M3.125,0 C3.125,1.726 1.726,3.125 0,3.125 C-1.726,3.125 -3.125,1.726 -3.125,0 C-3.125,-1.726 -1.726,-3.125 0,-3.125 C1.726,-3.125 3.125,-1.726 3.125,0z"></path></g><g opacity="1" transform="matrix(1,0,0,1,158.895,37.278)"><path fill="rgb(153,153,153)" fill-opacity="1" d="M0 0 M3.125,0 C3.125,1.726 1.726,3.125 0,3.125 C-1.726,3.125 -3.125,1.726 -3.125,0 C-3.125,-1.726 -1.726,-3.125 0,-3.125 C1.726,-3.125 3.125,-1.726 3.125,0z"></path></g><g opacity="1" transform="matrix(1,0,0,1,26.465,51.99)"><path fill="rgb(102,102,102)" fill-opacity="1" d="M0 0 M3.125,0 C3.125,1.726 1.726,3.125 0,3.125 C-1.726,3.125 -3.125,1.726 -3.125,0 C-3.125,-1.727 -1.726,-3.125 0,-3.125 C1.726,-3.125 3.125,-1.727 3.125,0z"></path></g><g opacity="1" transform="matrix(1,0,0,1,52.951,51.99)"><path fill="rgb(102,102,102)" fill-opacity="1" d="M0 0 M3.125,0 C3.125,1.726 1.726,3.125 0,3.125 C-1.726,3.125 -3.125,1.726 -3.125,0 C-3.125,-1.727 -1.726,-3.125 0,-3.125 C1.726,-3.125 3.125,-1.727 3.125,0z"></path></g><g opacity="1" transform="matrix(1,0,0,1,79.437,51.99)"><path fill="rgb(102,102,102)" fill-opacity="1" d="M0 0 M3.125,0 C3.125,1.726 1.726,3.125 0,3.125 C-1.726,3.125 -3.125,1.726 -3.125,0 C-3.125,-1.727 -1.726,-3.125 0,-3.125 C1.726,-3.125 3.125,-1.727 3.125,0z"></path></g><g opacity="1" transform="matrix(1,0,0,1,105.923,51.99)"><path fill="rgb(102,102,102)" fill-opacity="1" d="M0 0 M3.125,0 C3.125,1.726 1.726,3.125 0,3.125 C-1.726,3.125 -3.125,1.726 -3.125,0 C-3.125,-1.727 -1.726,-3.125 0,-3.125 C1.726,-3.125 3.125,-1.727 3.125,0z"></path></g><g opacity="1" transform="matrix(1,0,0,1,132.409,51.99)"><path fill="rgb(102,102,102)" fill-opacity="1" d="M0 0 M3.125,0 C3.125,1.726 1.726,3.125 0,3.125 C-1.726,3.125 -3.125,1.726 -3.125,0 C-3.125,-1.727 -1.726,-3.125 0,-3.125 C1.726,-3.125 3.125,-1.727 3.125,0z"></path></g><g opacity="1" transform="matrix(1,0,0,1,158.895,51.99)"><path fill="rgb(102,102,102)" fill-opacity="1" d="M0 0 M3.125,0 C3.125,1.726 1.726,3.125 0,3.125 C-1.726,3.125 -3.125,1.726 -3.125,0 C-3.125,-1.727 -1.726,-3.125 0,-3.125 C1.726,-3.125 3.125,-1.727 3.125,0z"></path></g></g></g></svg>