<svg id="About" xmlns="http://www.w3.org/2000/svg" viewBox="0 0 942.84 274.19"><defs><style>.cls-1{fill:#646478;}.cls-2{fill:#4b4b5a;}.cls-3{fill:#7878a3;}.cls-4{fill:#3c3c52;}.cls-5{fill:#c7c7ef;}.cls-6{fill:#787896;}.cls-7{fill:#fff;}</style></defs><title>BrokenAboutLink</title><path class="cls-1" d="M161.76,34,39.82,37.42c-.75,2.16,5,13.74,8.51,13.64-4.27,6.81-2.83,6.56-3.2,14.18l124.7-3.53h0Z" transform="translate(-32.9 -31.93)"/><path class="cls-2" d="M181.22,128.35,155.32,97.07l14.51-35.36L44.48,65.26c-2.65,38.66,3.45,77.07,5.51,115.59l31.68-70.69Z" transform="translate(-32.9 -31.93)"/><path class="cls-2" d="M181.22,128.35,155.32,97.07,168,66.29,49.64,69.64l3,105.35,29-64.82Z" transform="translate(-32.9 -31.93)"/><path class="cls-2" d="M181.22,128.35,155.32,97.07,168,66.29,49.64,69.64l3,105.35,29-64.82Z" transform="translate(-32.9 -31.93)"/><polygon class="cls-3" points="148.32 96.42 122.43 65.14 135.06 34.34 16.74 37.69 19.72 143.05 48.77 78.23 148.32 96.42"/><path class="cls-4" d="M161.76,34l8.07,27.74h0L155.32,97.07l25.89,31.28L81.66,110.16,52.62,175h0L50,180.85c-2.05-38.52-8.16-76.93-5.51-115.59l.65,0c.37-7.61-1.07-7.36,3.2-14.18h0c-3.5,0-9.21-11.49-8.47-13.64L161.76,34m1.49-2-1.55,0L93.91,33.89,39.76,35.42l-1.38,0-.45,1.3c-.93,2.68,2.46,9.1,4.49,11.95a14.45,14.45,0,0,0,3,3.28c-2.2,3.83-2.3,5.42-2.25,8.83,0,.7,0,1.51,0,2.47l-.58,0-.12,1.81c-1.82,26.59.5,53.42,2.75,79.38,1,12,2.11,24.31,2.75,36.46l.44,8.26,3.38-7.55,2.63-5.86,28.41-63.39,98,17.91,5.4,1-3.5-4.23L157.63,96.72l14.05-34.25.27-.65-.2-.67-8.07-27.74-.43-1.48Z" transform="translate(-32.9 -31.93)"/><path class="cls-5" d="M969.1,297.24l-25.29-27.32c-5.83.14-11.65.36-17.48.4L635.2,272.49,653,300.31l295.23-2.19C955.16,298.07,962.13,297.55,969.1,297.24Z" transform="translate(-32.9 -31.93)"/><path class="cls-6" d="M971.12,183.78q-.07-16.72-.1-33.45L955.82,138l-15.12,30.8q.42,52.57.83,105.13l27.34,29.53c5.73-4.33,2.84-10.49,2.84-15.71C971.75,253.08,971.26,218.43,971.12,183.78Z" transform="translate(-32.9 -31.93)"/><path class="cls-2" d="M943.81,269.92c-5.82.14-11.65.36-17.47.4L635.2,272.48l-6.3-9.88,106.65-47.79-19.41-19.62L873,144.78l.46,62,36.25,33.73L943,172.65Q943.42,221.29,943.81,269.92Z" transform="translate(-32.9 -31.93)"/><polygon class="cls-2" points="905.83 149.51 906.46 234.1 599.64 236.38 596 230.67 702.64 182.88 683.24 163.26 840.13 112.85 840.59 174.85 876.84 208.58 905.83 149.51"/><polygon class="cls-2" points="905.83 149.51 906.46 234.1 599.64 236.38 596 230.67 702.64 182.88 683.24 163.26 840.13 112.85 840.59 174.85 876.84 208.58 905.83 149.51"/><polygon class="cls-3" points="905.83 149.5 906.46 234.11 599.65 236.39 596 230.67 702.64 182.88 683.24 163.26 840.13 112.85 840.59 174.85 876.84 208.58 905.83 149.5"/><path class="cls-4" d="M955.82,138,971,150.34q0,16.72.1,33.45c.14,34.65.63,69.3.6,103.94,0,5.22,2.89,11.37-2.84,15.71l-5.47-5.91c-5.07.27-10.14.56-15.22.6L653,300.31,635.2,272.49l291.13-2.17c5.06,0,10.12-.21,15.17-.34h0c-5.05.14-10.11.3-15.17.34L635.2,272.48l-2.66-4.17h0l-3.64-5.71,106.65-47.79-19.41-19.62L873,144.78l.46,62,36.25,33.73,31-63.25-.07-8.49L955.82,138m-.69-3.14L954,137.09l-15.12,30.8-.21.42v.47l0,4.25,0,3.76-29.64,60.41L875.48,205.9,875,144.77l0-2.72-2.59.83L715.52,193.29l-3.1,1,2.29,2.31,17.38,17.56-104,46.61-2.11.95,1.25,2,3.64,5.71.59.92h0l2.07,3.25.59.93h0l17.16,26.89.59.93H653l51.51-.38,243.72-1.81c4.79,0,9.64-.3,14.33-.55h0l4.84,5.22,1.23,1.33,1.44-1.09c5.23-4,4.54-9.27,4-13.54a29.68,29.68,0,0,1-.34-3.76c0-20.74-.15-41.82-.32-62.21-.11-13.68-.23-27.83-.28-41.75q-.07-16.72-.1-33.44v-.95l-.74-.6-15.2-12.37-2-1.59Z" transform="translate(-32.9 -31.93)"/><path class="cls-1" d="M181.36,45.63l5.81,28.3h0l143.33,7.5,46-25.59Z" transform="translate(-32.9 -31.93)"/><path class="cls-2" d="M340.5,177l-42.43-31.26-11.94-39.68L330.5,81.42l-143.33-7.5L169.87,108l23.29,33.26,67,39.55Z" transform="translate(-32.9 -31.93)"/><path class="cls-2" d="M340.5,177l-42.43-31.26-11.94-39.68L323,85.57,184.93,78.34,169.87,108l23.29,33.26,67,39.55Z" transform="translate(-32.9 -31.93)"/><path class="cls-2" d="M340.5,177l-42.43-31.26-11.94-39.68L323,85.57,184.93,78.34,169.87,108l23.29,33.26,67,39.55Z" transform="translate(-32.9 -31.93)"/><polygon class="cls-3" points="307.6 145.09 265.17 113.83 253.23 74.15 290.18 53.62 152.04 46.4 136.97 76.08 160.26 109.34 227.29 148.9 307.6 145.09"/><path class="cls-4" d="M181.36,45.63,376.55,55.84l-46,25.59-7.43,4.13h0l-36.95,20.53,11.94,39.68L340.5,177l-80.31,3.81-67-39.55L169.87,108l17.3-34.08h0l-5.81-28.3m-2.48-2.13L179.4,46l5.67,27.61-17,33.46-.54,1.07.69,1,23.29,33.26.25.35.37.22,67,39.55.51.3.6,0L340.59,179l5.63-.27-4.53-3.34-41.89-30.86L288.51,107,324,87.3l7.43-4.13,46-25.59,6.09-3.38-7-.36-100-5.23-95.19-5-2.58-.14Z" transform="translate(-32.9 -31.93)"/><path class="cls-5" d="M38.33,251.31c-9,16.39,1.16,15,13.1,29.18l145.19,12.6L183.49,263.9Z" transform="translate(-32.9 -31.93)"/><path class="cls-2" d="M222.3,239.23l-38.92-83.68L86.57,126.08,47,192.67c-1.21,19.69-3.48,39.29-8.51,58.65l145,12.57-8-17.69Z" transform="translate(-32.9 -31.93)"/><path class="cls-2" d="M222.3,239.23l-38.92-83.68L86.57,126.08,50.29,187.15,45,247.68l136.48,11.84-6-13.3Z" transform="translate(-32.9 -31.93)"/><path class="cls-2" d="M222.3,239.23l-38.92-83.68L86.57,126.08,50.29,187.15,45,247.68l136.48,11.84-6-13.3Z" transform="translate(-32.9 -31.93)"/><polygon class="cls-3" points="189.4 207.29 150.49 123.62 53.67 94.14 17.39 155.22 12.14 215.76 148.62 227.59 142.62 214.28 189.4 207.29"/><path class="cls-4" d="M86.57,126.08l96.82,29.48,38.92,83.68-46.78,7,6,13.32h0l2,4.37,13.14,29.18L51.43,280.49c-11.95-14.17-22.12-12.79-13.1-29.18h.16c5-19.36,7.3-39,8.51-58.65l39.56-66.59m-.92-2.37-.8,1.35L45.28,191.65l-.25.42,0,.48c-1.4,22.66-4,40.94-8.23,57.44l-.2.36c-6.84,12.44-3.35,16.23,4,22.38a72.28,72.28,0,0,1,9.37,9.05l.53.63.82.07,64.8,5.62,80.39,7,3.4.29-1.4-3.11-13.14-29.18-2-4.37-4.91-10.91,44.17-6.59,2.65-.4-1.13-2.43L185.2,154.71l-.38-.81-.85-.26L87.15,124.16l-1.5-.46Z" transform="translate(-32.9 -31.93)"/><path class="cls-5" d="M199.46,262.68l14.31,28.63,260.75,12,12.06-27.42Z" transform="translate(-32.9 -31.93)"/><path class="cls-2" d="M431.55,125.26l-89,64-80.28,4.32L195,154.43l42.28,82-46.46,8.88,8.68,17.35,287.12,13.2,20.25-46.05-10.56-7.34-7,1.16,7-1.16L446.68,188Z" transform="translate(-32.9 -31.93)"/><path class="cls-2" d="M431.55,125.26l-89,64-80.28,4.32L195,154.43l42.28,82-46.46,8.88,6.53,13.05,291.08,13.38,18.44-41.93-10.56-7.34-7,1.16,7-1.16L446.68,188Z" transform="translate(-32.9 -31.93)"/><path class="cls-2" d="M431.55,125.26l-89,64-80.28,4.32L195,154.43l42.28,82-46.46,8.88,6.53,13.05,291.08,13.38,18.44-41.93-10.56-7.34-7,1.16,7-1.16L446.68,188Z" transform="translate(-32.9 -31.93)"/><polygon class="cls-3" points="398.65 93.33 309.62 157.31 229.34 161.63 162.07 122.5 204.34 204.53 157.89 213.4 164.42 226.46 455.49 239.84 473.93 197.9 463.37 190.56 413.79 156.09 398.65 93.33"/><path class="cls-7" d="M429.71,165.31,419.64,165l-15.55,36.6-4.66,1.24-.25,5.47,19,.87.25-5.47L413.59,202l1.79-4.58,14,.64,1.29,4.79-4.78,1.23-.25,5.47,20,.92.25-5.47-4.34-1.65Zm-11.82,25.49,5.65-14.68,4,15.12Z" transform="translate(-32.9 -31.93)"/><path class="cls-7" d="M464.65,204.73A15.44,15.44,0,0,1,460,204l.3-6.51-9-6.24-.86,18.81,1.68.46q1.68.39,4.88.89a59.11,59.11,0,0,0,6.27.63c5.45.25,9.75-.92,12.93-3.48l-7.17-5A6.85,6.85,0,0,1,464.65,204.73Z" transform="translate(-32.9 -31.93)"/><path class="cls-5" d="M199.46,262.68l14.31,28.63,260.75,12,12.06-27.42Z" transform="translate(-32.9 -31.93)"/><path class="cls-2" d="M431.55,125.26l-89,64-80.28,4.32L195,154.43l42.28,82-46.46,8.88,8.68,17.35,287.12,13.2,20.25-46.05-10.56-7.34-7,1.16,7-1.16L446.68,188Z" transform="translate(-32.9 -31.93)"/><path class="cls-2" d="M431.55,125.26l-89,64-80.28,4.32L195,154.43l42.28,82-46.46,8.88,6.53,13.05,291.08,13.38,18.44-41.93-10.56-7.34-7,1.16,7-1.16L446.68,188Z" transform="translate(-32.9 -31.93)"/><path class="cls-2" d="M431.55,125.26l-89,64-80.28,4.32L195,154.43l42.28,82-46.46,8.88,6.53,13.05,291.08,13.38,18.44-41.93-10.56-7.34-7,1.16,7-1.16L446.68,188Z" transform="translate(-32.9 -31.93)"/><polygon class="cls-3" points="398.65 93.33 309.62 157.31 229.34 161.63 162.07 122.5 204.34 204.53 157.89 213.4 164.42 226.46 455.49 239.84 473.93 197.9 463.37 190.56 413.79 156.09 398.65 93.33"/><path class="cls-7" d="M429.71,165.31,419.64,165l-15.55,36.6-4.66,1.24-.25,5.47,19,.87.25-5.47L413.59,202l1.79-4.58,14,.64,1.29,4.79-4.78,1.23-.25,5.47,20,.92.25-5.47-4.34-1.65Zm-11.82,25.49,5.65-14.68,4,15.12Z" transform="translate(-32.9 -31.93)"/><path class="cls-7" d="M464.65,204.73A15.44,15.44,0,0,1,460,204l.3-6.51-9-6.24-.86,18.81,1.68.46q1.68.39,4.88.89a59.11,59.11,0,0,0,6.27.63c5.45.25,9.75-.92,12.93-3.48l-7.17-5A6.85,6.85,0,0,1,464.65,204.73Z" transform="translate(-32.9 -31.93)"/><path class="cls-5" d="M199.46,262.68l14.31,28.63,260.75,12,12.06-27.42Z" transform="translate(-32.9 -31.93)"/><path class="cls-2" d="M431.55,125.26l-89,64-80.28,4.32L195,154.43l42.28,82-46.46,8.88,8.68,17.35,287.12,13.2,20.25-46.05-10.56-7.34-7,1.16,7-1.16L446.68,188Z" transform="translate(-32.9 -31.93)"/><path class="cls-2" d="M431.55,125.26l-89,64-80.28,4.32L195,154.43l42.28,82-46.46,8.88,6.53,13.05,291.08,13.38,18.44-41.93-10.56-7.34-7,1.16,7-1.16L446.68,188Z" transform="translate(-32.9 -31.93)"/><path class="cls-2" d="M431.55,125.26l-89,64-80.28,4.32L195,154.43l42.28,82-46.46,8.88,6.53,13.05,291.08,13.38,18.44-41.93-10.56-7.34-7,1.16,7-1.16L446.68,188Z" transform="translate(-32.9 -31.93)"/><polygon class="cls-3" points="398.65 93.33 309.62 157.31 229.34 161.63 162.07 122.5 204.34 204.53 157.89 213.4 164.42 226.46 455.49 239.84 473.93 197.9 463.37 190.56 413.79 156.09 398.65 93.33"/><path class="cls-7" d="M429.71,165.31,419.64,165l-15.55,36.6-4.66,1.24-.25,5.47,19,.87.25-5.47L413.59,202l1.79-4.58,14,.64,1.29,4.79-4.78,1.23-.25,5.47,20,.92.25-5.47-4.34-1.65Zm-11.82,25.49,5.65-14.68,4,15.12Z" transform="translate(-32.9 -31.93)"/><path class="cls-7" d="M464.65,204.73A15.44,15.44,0,0,1,460,204l.3-6.51-9-6.24-.86,18.81,1.68.46q1.68.39,4.88.89a59.11,59.11,0,0,0,6.27.63c5.45.25,9.75-.92,12.93-3.48l-7.17-5A6.85,6.85,0,0,1,464.65,204.73Z" transform="translate(-32.9 -31.93)"/><path class="cls-4" d="M431.55,125.26,446.68,188l49.58,34.47,10.56,7.34-20.25,46.05-12.06,27.42-260.75-12-14.31-28.63-2.15-4.3-6.53-13.05,46.46-8.88-42.28-82,67.27,39.13,80.28-4.32,89-64m1.25-3.36-2.41,1.74-88.56,63.64-79.1,4.25L196,152.7,190,149.25l3.14,6.09L234.24,235l-43.83,8.37-2.6.5,1.18,2.36,6.53,13.05,2.15,4.3L212,292.2l.52,1,1.17.05,131.08,6,129.67,6,1.37.06.55-1.26,12.06-27.42,20.25-46.05.66-1.51-1.35-.94-10.56-7.34-49-34-15-62-.7-2.89Z" transform="translate(-32.9 -31.93)"/><path class="cls-5" d="M499.48,264.77,489.33,293,652,289.28,633.8,261.73Z" transform="translate(-32.9 -31.93)"/><path class="cls-2" d="M653.47,124.32l39.43-25.9,4.52-13L592.19,87.76l2.64,8.88-42.45,25,80.36,59.2-127.24,30,11,6.6-17.05,47.33,134.32-3-6.46-9.79,105.91-49.4Z" transform="translate(-32.9 -31.93)"/><path class="cls-2" d="M653.47,124.32l39.43-25.9,2.94-8.48L593.52,92.26l1.3,4.38-42.45,25,80.36,59.2-127.24,30,11,6.6L501,260.54l130.06-2.94-3.73-5.65,105.91-49.4Z" transform="translate(-32.9 -31.93)"/><path class="cls-2" d="M653.47,124.32l39.43-25.9,2.94-8.48L593.52,92.26l1.3,4.38-42.45,25,80.36,59.2-127.24,30,11,6.6L501,260.54l130.06-2.94-3.73-5.65,105.91-49.4Z" transform="translate(-32.9 -31.93)"/><polygon class="cls-3" points="620.57 92.39 659.99 66.5 662.94 58 560.62 60.31 561.93 64.71 519.48 89.67 599.84 148.88 472.6 178.91 483.64 185.51 468.11 228.62 598.18 225.68 594.44 220.01 700.36 170.61 620.57 92.39"/><polygon class="cls-7" points="523.76 168.07 536.59 167.34 536.51 163.82 523.56 166.88 523.76 168.07"/><path class="cls-7" d="M579.63,196.74q2,3.32,7.25,3.21t10.61-4.14l-2.37-4.48a10.7,10.7,0,0,1-4.94,1.56,2.73,2.73,0,0,1-2.67-1.2l-.09-.18-9,2.13A11.74,11.74,0,0,0,579.63,196.74Z" transform="translate(-32.9 -31.93)"/><path class="cls-1" d="M583.93,60l8.25,27.78,105.22-2.38,9.77-28.19Z" transform="translate(-32.9 -31.93)"/><path class="cls-4" d="M707.18,57.2l-9.77,28.19-1.58,4.56-2.94,8.48-39.43,25.9,79.79,78.22-105.91,49.4,6.46,9.79L652,289.28,489.33,293l10.15-28.18,1.52-4.22h0l15.53-43.11-11-6.6,51-12,12.95-3.06,17.81-4.2.21,0,45.31-10.7-80.36-59.2,42.45-25-2.64-8.88L583.93,60,707.18,57.2M710,55.13l-2.88.07-61.65,1.39L583.89,58l-2.62.06.75,2.51,8.25,27.78,2.19,7.38-41.1,24.17-2.61,1.54,2.44,1.8,76.88,56.64L587,189.55l-.21,0-17.81,4.2L556,196.86l-51,12-4.8,1.13,4.23,2.53,9.62,5.75-15,41.56-1.52,4.22-10.15,28.18-1,2.74,2.91-.07,80.4-1.81L652,291.28l3.62-.08-2-3-18.17-27.55-5.18-7.86L734.1,204.35l2.62-1.22-2.06-2-78-76.48L694,100.1l.57-.37.22-.64,2.94-8.48L699.3,86l9.77-28.19.94-2.72Z" transform="translate(-32.9 -31.93)"/><path class="cls-1" d="M378.63,52.89l-45.5,26.55,259.41,8.07-6.75-28.18Z" transform="translate(-32.9 -31.93)"/><path class="cls-2" d="M551,119.18,594.7,96.52l-2.16-9L333.13,79.45,289.29,105l12.78,39.42,43.08,30.35,88.07-65.29L449.28,172l50.09,33.73L628,182.6Z" transform="translate(-32.9 -31.93)"/><path class="cls-2" d="M551,119.18,594.7,96.52l-1.07-4.45L325.76,83.75,289.29,105l12.78,39.42,43.08,30.35,88.07-65.29L449.28,172l50.09,33.73L628,182.6Z" transform="translate(-32.9 -31.93)"/><path class="cls-2" d="M551,119.18,594.7,96.52l-1.07-4.45L325.76,83.75,289.29,105l12.78,39.42,43.08,30.35,88.07-65.29L449.28,172l50.09,33.73L628,182.6Z" transform="translate(-32.9 -31.93)"/><polygon class="cls-3" points="518.08 87.25 561.8 64.59 560.73 60.13 292.89 51.8 256.39 73.1 269.17 112.52 312.25 142.87 400.32 77.58 416.38 140.11 466.48 173.84 595.14 150.67 518.08 87.25"/><path class="cls-7" d="M485.08,177.69q.25-8-2.92-12.44t-9.46-4.64a14.61,14.61,0,0,0-9.1,3.06l.54-17.5-14,.07-.16,5,4.68,1.41L454,175.2l9.07,6.11.33-10.72.65-.67a6.94,6.94,0,0,1,2.22-1.38,7.4,7.4,0,0,1,3.2-.59q6.17.19,5.86,10.07-.21,6.91-3.42,9.25l7.24,4.87c.29-.24.59-.48.87-.75Q484.8,186.69,485.08,177.69Z" transform="translate(-32.9 -31.93)"/><path class="cls-7" d="M505,196.89q7.68.24,12.4-4.53t5-13.2q.25-8.12-3.73-12.68t-11.6-4.8q-7.8-.24-12.54,4.37t-5,13Q488.91,196.39,505,196.89Zm-3.82-25.82a6,6,0,0,1,5.32-2.17,5.32,5.32,0,0,1,4.8,2.64q1.46,2.53,1.3,7.63-.18,5.79-1.89,8.19a5.7,5.7,0,0,1-5.18,2.29,5.51,5.51,0,0,1-5-2.64q-1.5-2.53-1.33-7.95Q499.39,173.35,501.13,171.07Z" transform="translate(-32.9 -31.93)"/><path class="cls-7" d="M559.3,191.33l.85-27.37-13.92.07-.16,5,4.62,1.28-.51,16.49-1,.85a12,12,0,0,1-2.92,1.64,8.67,8.67,0,0,1-3.65.74,3,3,0,0,1-2.67-1.31,7,7,0,0,1-.7-3.83l.67-21.59L526,163.4l-.16,5,4.56,1.28-.52,16.68q-.17,5.35,2.23,8.38t7.12,3.18a12,12,0,0,0,3.44-.43,17.1,17.1,0,0,0,3.09-1.1,19,19,0,0,0,2.5-1.47q1.22-.84,1.64-1.18c.28-.22.48-.4.61-.52l.36,3.22L564,194.13l0-1.39Z" transform="translate(-32.9 -31.93)"/><path class="cls-7" d="M582.18,172.39l8.81.27.21-6.8-8.81-.27.32-10.38-9.3,1.41-.27,8.68-5.88.64-.19,6,5.85.18-.37,11.77a38.31,38.31,0,0,0,.52,8.62l9.13-1.64a10.65,10.65,0,0,1-.48-4.24Z" transform="translate(-32.9 -31.93)"/><path class="cls-4" d="M378.63,52.89l207.16,6.44,6.75,28.18,2.16,9L551,119.18,628,182.6l-45.82,8.25-5.88,1.06L564,194.13h0l-5.37,1-59.25,10.67-20.24-13.63-7.24-4.87-8.84-6h0L454,175.2h0l-4.7-3.16-16.06-62.53L345.15,174.8l-43.08-30.35L289.29,105l43.84-25.59,45.5-26.55m-.51-2-.5.29-45.5,26.55-43.84,25.59-1.39.81.5,1.53,12.78,39.42.21.63.54.38L344,176.44l1.18.83,1.16-.86L432,112.89l15.32,59.65.19.74.63.42,4.7,3.16,9.07,6.11,8.84,6,7.24,4.87,20.24,13.63.67.45.8-.14L559,197.07l5.37-1,12.34-2.22,5.88-1.06,45.82-8.25,4.25-.77-3.34-2.75-74.73-61.5,41-21.26,1.39-.72-.36-1.52-2.16-9-6.75-28.18-.36-1.49-1.53,0-98.52-3.06L378.69,50.89l-.57,0Z" transform="translate(-32.9 -31.93)"/><path class="cls-6" d="M970.43,144.72q1.59-43.93,3.24-87.85l-4-.53a21,21,0,0,0-3.45.36c-.1,6.63-5.88,9.19-9.53,13.27-4.1,4.58-9.86,7.61-12.58,13.48l-2.35,77.23,15.07-27.94Z" transform="translate(-32.9 -31.93)"/><path class="cls-1" d="M948.8,55.57,714.54,48.31,703.27,75.93l226.85,7c4.66.14,9.32.33,14,.5,2.72-5.87,8.48-8.9,12.58-13.48,3.65-4.08,9.43-6.64,9.53-13.27C960.41,56.32,954.61,55.75,948.8,55.57Z" transform="translate(-32.9 -31.93)"/><path class="cls-2" d="M941.75,160.68l-35.88,66.53-34.93-35.1,1.92-62L714.15,174.5l-56.85-62,40.75-23.75,5.21-12.78,226.86,7c4.66.14,9.31.33,14,.5Z" transform="translate(-32.9 -31.93)"/><polygon class="cls-3" points="906.74 55.83 904.21 137.37 872.98 195.29 838.05 160.19 839.97 98.22 681.26 142.57 624.41 80.54 665.16 56.79 668.56 48.46 906.74 55.83"/><path class="cls-4" d="M714.53,48.31l234.26,7.25c5.81.18,11.61.75,17.42,1.14a20,20,0,0,1,3.45-.36l4,.53q-1.61,43.92-3.24,87.85l-13.61-12-15.07,27.94-4.64,8.6h0l-31.24,57.92-34.93-35.1,1.92-62L714.15,174.49l-56.85-62,40.76-23.75,5.2-12.78h0l11.26-27.62m-1.33-2-.52,1.29L701.93,73.93h0l-.52,1.25-4.94,12.15L656.3,110.74,654.15,112l1.68,1.83,56.85,62,.83.91,1.18-.33L870.78,132.8l-1.84,59.25,0,.86.61.61,34.93,35.1,1.9,1.91,1.28-2.37,31.24-57.92.24-.44h0l4.4-8.16,13.88-25.73,11.72,10.32,3.17,2.79.15-4.22q.89-24.52,1.81-49,.72-19.41,1.43-38.82l.07-1.81-1.8-.24-2-.26-2-.27-.15,0h-.15a22.09,22.09,0,0,0-3.53.35c-1.75-.12-3.49-.25-5.24-.39-3.92-.3-8-.61-12-.74L829.66,49.88,714.6,46.32l-1.39,0Z" transform="translate(-32.9 -31.93)"/></svg>