<svg id="About" xmlns="http://www.w3.org/2000/svg" viewBox="0 0 915.44 239.61"><defs><style>.cls-1{fill:#646478;}.cls-2{fill:#4b4b5a;}.cls-3{fill:#7878a3;}.cls-4{fill:#3c3c52;}.cls-5{fill:#c7c7ef;}.cls-6{fill:#787896;}.cls-7{fill:#fff;}</style></defs><title>FixedAboutLink</title><path class="cls-1" d="M166.81,53.45h-122c-.81,2.13,4.63,13.87,8.12,13.87-4.46,6.69-3,6.48-3.6,14.08H174.1Z" transform="translate(-43.66 -52.42)"/><path class="cls-2" d="M183.6,148.34l-25-32,15.5-34.94H48.7C45,120,50,158.54,50.94,197.11L84.6,127.34Z" transform="translate(-43.66 -52.42)"/><path class="cls-2" d="M183.6,148.34l-25-32,13.49-30.41H53.73V191.32l30.87-64Z" transform="translate(-43.66 -52.42)"/><path class="cls-2" d="M183.6,148.34l-25-32,13.49-30.41H53.73V191.32l30.87-64Z" transform="translate(-43.66 -52.42)"/><polygon class="cls-3" points="139.94 95.93 114.94 63.93 128.43 33.5 10.06 33.5 10.06 138.91 40.94 74.93 139.94 95.93"/><path class="cls-4" d="M166.81,53.45l7.28,28h0l-15.5,34.94,25,32-99-21-30.87,64h0l-2.79,5.79C50,158.54,45,120,48.7,81.41h.65c.59-7.6-.86-7.39,3.6-14.08-3.5,0-8.93-11.74-8.13-13.87h122m.77-1H44.13l-.24.65c-.79,2.09,2,8.17,4.23,11.43a10.68,10.68,0,0,0,3.28,3.35c-2.79,4.37-2.81,5.76-2.86,9.07,0,.93,0,2-.12,3.46h-.62l-.09.9c-2.57,26.45-1,53.3.51,79.27.7,12,1.42,24.38,1.72,36.55l.1,4.13,1.8-3.72,2.79-5.79,30.53-63.27,98.23,20.84,2.69.57-1.69-2.16L159.76,116.2,175,81.81l.14-.32-.09-.34-7.28-28-.19-.75Z" transform="translate(-43.66 -52.42)"/><path class="cls-5" d="M954.53,284.49,929.44,257c-5.83.09-11.65.27-17.48.27H620.82l17.55,28H933.61C940.58,285.22,947.55,284.74,954.53,284.49Z" transform="translate(-43.66 -52.42)"/><path class="cls-6" d="M957.39,171.05q.06-16.72.15-33.44l-15.11-12.48-15.34,30.69q0,52.57.05,105.14l27.12,29.73c5.76-4.29,2.92-10.47,3-15.69C957.51,240.35,957.27,205.7,957.39,171.05Z" transform="translate(-43.66 -52.42)"/><path class="cls-2" d="M929.44,257c-5.82.1-11.65.27-17.47.27H620.82l-6.23-9.93,107-47-19.26-19.76,157.26-49.24v62l36,34,33.8-67.61Q929.42,208.36,929.44,257Z" transform="translate(-43.66 -52.42)"/><polygon class="cls-2" points="881.35 116.06 881.35 200.65 574.52 200.65 570.92 194.91 677.92 147.91 658.66 128.15 815.92 78.91 815.92 140.91 851.92 174.91 881.35 116.06"/><polygon class="cls-2" points="881.35 116.06 881.35 200.65 574.52 200.65 570.92 194.91 677.92 147.91 658.66 128.15 815.92 78.91 815.92 140.91 851.92 174.91 881.35 116.06"/><polygon class="cls-3" points="881.35 116.05 881.35 200.66 574.53 200.66 570.92 194.91 677.92 147.91 658.66 128.15 815.92 78.91 815.92 140.91 851.92 174.91 881.35 116.05"/><path class="cls-4" d="M942.43,125.13l15.11,12.48q-.09,16.72-.15,33.44c-.12,34.65.11,69.3-.17,103.95,0,5.22,2.8,11.4-3,15.69l-5.43-6c-5.07.23-10.15.48-15.22.48H638.37l-17.55-28H912c5.06,0,10.12-.13,15.18-.23h0c-5.06.1-10.12.23-15.17.23H620.82l-2.63-4.19h0l-3.6-5.74,107-47-19.26-19.76,157.26-49.24v62l36,34,31.5-63q0-4.24,0-8.49l15.34-30.69m-.33-1.57-.56,1.12-15.34,30.69-.11.21v8.49l-30.8,61.6-34.71-32.78V130l-1.3.41L702,179.61l-1.55.49,1.14,1.17L719.86,200,614.18,246.41l-1.06.47.62,1,3.6,5.74.29.47h0l2.33,3.72.29.47h0l17.25,27.49.29.47H933.61c4.77,0,9.61-.22,14.3-.44l.5,0,.48.52,4.64,5.08.61.67.73-.54c4.8-3.57,4.2-8.36,3.68-12.58a30.36,30.36,0,0,1-.32-3.9c.17-20.74.16-41.82.15-62.21,0-13.68,0-27.83,0-41.74q.06-16.72.15-33.44v-.47l-.37-.3-15.11-12.48-1-.8Z" transform="translate(-43.66 -52.42)"/><path class="cls-1" d="M168,53.52l7.28,28H318.76l44.65-28Z" transform="translate(-43.66 -52.42)"/><path class="cls-2" d="M333.74,176.41l-44-29-14-39,43-26.94H175.23l-15.5,34.94,25,32,69,36Z" transform="translate(-43.66 -52.42)"/><path class="cls-2" d="M333.74,176.41l-44-29-14-39L311.53,86H173.23l-13.49,30.41,25,32,69,36Z" transform="translate(-43.66 -52.42)"/><path class="cls-2" d="M333.74,176.41l-44-29-14-39L311.53,86H173.23l-13.49,30.41,25,32,69,36Z" transform="translate(-43.66 -52.42)"/><polygon class="cls-3" points="290.07 124 246.07 95 232.07 56 267.89 33.57 129.57 33.57 116.07 64 141.07 96 210.07 132 290.07 124"/><path class="cls-4" d="M363.41,53.52l-44.65,28L311.56,86h0l-35.82,22.43,14,39,44,29-80,8-69-36-25-32,15.5-34.94h0l-7.28-28H363.41m3.48-1H166.66l.33,1.25,7.2,27.62L158.82,116l-.24.55.37.47,25,32,.13.17.19.1,69,36,.26.14.3,0,80-8,2.8-.28-2.35-1.55-43.72-28.82-13.62-37.93,35.14-22,7.2-4.51,44.65-28,3-1.85Z" transform="translate(-43.66 -52.42)"/><path class="cls-5" d="M47.27,257c-7.56,17.11,2.45,14.85,15.57,27.94H208.59L193,257Z" transform="translate(-43.66 -52.42)"/><path class="cls-2" d="M229.51,229l-46-80-99-21L50.85,197.78c.49,19.72-.07,39.45-3.41,59.17H193L183.51,240Z" transform="translate(-43.66 -52.42)"/><path class="cls-2" d="M229.51,229l-46-80-99-21L53.64,192v60.76h137L183.51,240Z" transform="translate(-43.66 -52.42)"/><path class="cls-2" d="M229.51,229l-46-80-99-21L53.64,192v60.76h137L183.51,240Z" transform="translate(-43.66 -52.42)"/><polygon class="cls-3" points="185.85 176.6 139.85 96.6 40.85 75.6 9.98 139.58 9.98 200.35 146.97 200.35 139.85 187.6 185.85 176.6"/><path class="cls-4" d="M84.51,128l99,21,46,80-46,11,7.12,12.75h0L193,257l15.61,27.94H62.85C49.72,271.8,39.71,274.06,47.27,257h.17c3.34-19.72,3.9-39.45,3.41-59.17L84.51,128M84,126.88l-.34.71L49.95,197.35l-.11.22v.24c.57,22.81-.47,41.35-3.27,58.25l-.22.49c-5.68,12.84-1.69,15.64,5.54,20.73a73.13,73.13,0,0,1,10.25,8.32l.29.29H210.29l-.83-1.49-15.61-27.94-2.34-4.19L185,240.68,229.74,230l1.3-.31-.67-1.16-46-80-.22-.39-.44-.09-99-21-.77-.16Z" transform="translate(-43.66 -52.42)"/><path class="cls-5" d="M194.84,257.49l15.61,27.94h261l10.79-27.95Z" transform="translate(-43.66 -52.42)"/><path class="cls-2" d="M420.38,109.56l-86,68-80,8-69-36,46,80-46,11,9.46,16.93H482.26l18.11-46.93-10.89-6.85-7,1.48,7-1.48-51.11-32.15Z" transform="translate(-43.66 -52.42)"/><path class="cls-2" d="M420.38,109.56l-86,68-80,8-69-36,46,80-46,11,7.12,12.74H483.88l16.5-42.74-10.89-6.85-7,1.48,7-1.48-51.11-32.15Z" transform="translate(-43.66 -52.42)"/><path class="cls-2" d="M420.38,109.56l-86,68-80,8-69-36,46,80-46,11,7.12,12.74H483.88l16.5-42.74-10.89-6.85-7,1.48,7-1.48-51.11-32.15Z" transform="translate(-43.66 -52.42)"/><polygon class="cls-3" points="376.71 57.14 290.71 125.14 210.71 133.14 141.71 97.14 187.71 177.14 141.71 188.14 148.84 200.89 440.21 200.89 456.71 158.14 445.83 151.29 394.71 119.14 376.71 57.14"/><path class="cls-7" d="M420.38,149.64l-10.07.19L396.46,187.1l-4.6,1.45V194h19v-5.48L406,187l1.57-4.66h14L423,187.1l-4.72,1.45V194h20v-5.48l-4.41-1.45Zm-10.64,26,5-14.92,4.72,14.92Z" transform="translate(-43.66 -52.42)"/><path class="cls-7" d="M457.08,187.42a15.44,15.44,0,0,1-4.66-.5v-6.52l-9.26-5.82V193.4l1.7.38q1.7.32,4.91.66a59.11,59.11,0,0,0,6.29.34c5.45,0,9.69-1.37,12.76-4.07l-7.39-4.65A6.85,6.85,0,0,1,457.08,187.42Z" transform="translate(-43.66 -52.42)"/><path class="cls-5" d="M194.84,257.49l15.61,27.94h261l10.79-27.95Z" transform="translate(-43.66 -52.42)"/><path class="cls-2" d="M420.38,109.56l-86,68-80,8-69-36,46,80-46,11,9.46,16.93H482.26l18.11-46.93-10.89-6.85-7,1.48,7-1.48-51.11-32.15Z" transform="translate(-43.66 -52.42)"/><path class="cls-2" d="M420.38,109.56l-86,68-80,8-69-36,46,80-46,11,7.12,12.74H483.88l16.5-42.74-10.89-6.85-7,1.48,7-1.48-51.11-32.15Z" transform="translate(-43.66 -52.42)"/><path class="cls-2" d="M420.38,109.56l-86,68-80,8-69-36,46,80-46,11,7.12,12.74H483.88l16.5-42.74-10.89-6.85-7,1.48,7-1.48-51.11-32.15Z" transform="translate(-43.66 -52.42)"/><polygon class="cls-3" points="376.71 57.14 290.71 125.14 210.71 133.14 141.71 97.14 187.71 177.14 141.71 188.14 148.84 200.89 440.21 200.89 456.71 158.14 445.83 151.29 394.71 119.14 376.71 57.14"/><path class="cls-7" d="M420.38,149.64l-10.07.19L396.46,187.1l-4.6,1.45V194h19v-5.48L406,187l1.57-4.66h14L423,187.1l-4.72,1.45V194h20v-5.48l-4.41-1.45Zm-10.64,26,5-14.92,4.72,14.92Z" transform="translate(-43.66 -52.42)"/><path class="cls-7" d="M457.08,187.42a15.44,15.44,0,0,1-4.66-.5v-6.52l-9.26-5.82V193.4l1.7.38q1.7.32,4.91.66a59.11,59.11,0,0,0,6.29.34c5.45,0,9.69-1.37,12.76-4.07l-7.39-4.65A6.85,6.85,0,0,1,457.08,187.42Z" transform="translate(-43.66 -52.42)"/><path class="cls-5" d="M194.84,257.49l15.61,27.94h261l10.79-27.95Z" transform="translate(-43.66 -52.42)"/><path class="cls-2" d="M420.38,109.56l-86,68-80,8-69-36,46,80-46,11,9.46,16.93H482.26l18.11-46.93-10.89-6.85-7,1.48,7-1.48-51.11-32.15Z" transform="translate(-43.66 -52.42)"/><path class="cls-2" d="M420.38,109.56l-86,68-80,8-69-36,46,80-46,11,7.12,12.74H483.88l16.5-42.74-10.89-6.85-7,1.48,7-1.48-51.11-32.15Z" transform="translate(-43.66 -52.42)"/><path class="cls-2" d="M420.38,109.56l-86,68-80,8-69-36,46,80-46,11,7.12,12.74H483.88l16.5-42.74-10.89-6.85-7,1.48,7-1.48-51.11-32.15Z" transform="translate(-43.66 -52.42)"/><polygon class="cls-3" points="376.71 57.14 290.71 125.14 210.71 133.14 141.71 97.14 187.71 177.14 141.71 188.14 148.84 200.89 440.21 200.89 456.71 158.14 445.83 151.29 394.71 119.14 376.71 57.14"/><path class="cls-7" d="M420.38,149.64l-10.07.19L396.46,187.1l-4.6,1.45V194h19v-5.48L406,187l1.57-4.66h14L423,187.1l-4.72,1.45V194h20v-5.48l-4.41-1.45Zm-10.64,26,5-14.92,4.72,14.92Z" transform="translate(-43.66 -52.42)"/><path class="cls-7" d="M457.08,187.42a15.44,15.44,0,0,1-4.66-.5v-6.52l-9.26-5.82V193.4l1.7.38q1.7.32,4.91.66a59.11,59.11,0,0,0,6.29.34c5.45,0,9.69-1.37,12.76-4.07l-7.39-4.65A6.85,6.85,0,0,1,457.08,187.42Z" transform="translate(-43.66 -52.42)"/><path class="cls-4" d="M420.38,109.56l18,62,51.11,32.15,10.89,6.85-18.11,46.93-10.79,27.95h-261l-15.61-27.94-2.34-4.2-7.12-12.74,46-11-46-80,69,36,80-8,86-68m.55-1.71-1.17.92L334,176.59l-79.41,7.94-68.74-35.86-3-1.58,1.71,3,45.33,78.84-44.7,10.69-1.28.31.64,1.15,7.12,12.74L194,258l15.61,27.94.29.51H472.16l.25-.64,10.79-27.95,18.11-46.93.3-.77-.7-.44L490,202.86l-50.79-31.95-17.89-61.63-.41-1.43Z" transform="translate(-43.66 -52.42)"/><path class="cls-5" d="M484.49,257.22,473.7,285.17H636.38l-17.55-28Z" transform="translate(-43.66 -52.42)"/><path class="cls-2" d="M641.6,120.29l40-25,4.81-12.94H581.16l2.44,8.94-43,24,79,61L491.71,203.44l10.89,6.85-18.11,46.93H618.84l-6.23-9.93,107-47Z" transform="translate(-43.66 -52.42)"/><path class="cls-2" d="M641.6,120.29l40-25,3.13-8.41H582.4l1.2,4.41-43,24,79,61L491.71,203.44l10.89,6.85L486.11,253H616.2l-3.6-5.74,107-47Z" transform="translate(-43.66 -52.42)"/><path class="cls-2" d="M641.6,120.29l40-25,3.13-8.41H582.4l1.2,4.41-43,24,79,61L491.71,203.44l10.89,6.85L486.11,253H616.2l-3.6-5.74,107-47Z" transform="translate(-43.66 -52.42)"/><polygon class="cls-3" points="597.94 67.87 637.94 42.87 641.07 34.44 538.73 34.44 539.94 38.87 496.94 62.87 575.94 123.87 448.05 151.02 458.94 157.87 442.44 200.62 572.54 200.62 568.94 194.87 675.94 147.87 597.94 67.87"/><polygon class="cls-7" points="499.44 141.34 512.28 140.9 512.28 137.39 499.27 140.15 499.44 141.34"/><path class="cls-7" d="M566.15,191q2,3.37,7.18,3.37t10.7-3.9L581.76,186a10.7,10.7,0,0,1-5,1.45,2.73,2.73,0,0,1-2.64-1.26l-.09-.19L565,187.88A11.74,11.74,0,0,0,566.15,191Z" transform="translate(-43.66 -52.42)"/><path class="cls-1" d="M573.54,54.39l7.62,28H686.41l10.4-28Z" transform="translate(-43.66 -52.42)"/><path class="cls-4" d="M696.82,54.39l-10.4,28-1.68,4.53-3.13,8.41-40,25,78,80-107,47,6.23,9.93,17.55,28H473.7l10.79-27.95L486.1,253h0l16.5-42.75-10.89-6.85,51.22-10.87,13-2.76,17.9-3.8.21,0,45.54-9.67-79-61,43-24-2.44-8.94-7.62-28H696.82m1.44-1h-126l.34,1.26,7.62,28,2.23,8.18-42.32,23.62-1.32.74,1.2.93,77.29,59.68L573.85,185l-.21,0-17.9,3.8-13,2.76-51.22,10.87-2.41.51,2.09,1.31,10.19,6.41-16.2,42-1.62,4.19-10.79,27.95-.52,1.36H638.19l-1-1.53-17.55-28-5.62-9L720,201.2l1.32-.58-1-1-77.13-79.11,38.95-24.34.29-.18.12-.32,3.13-8.41,1.68-4.53,10.4-28,.5-1.35Z" transform="translate(-43.66 -52.42)"/><path class="cls-1" d="M365.29,53.42l-44.65,28H580.18l-7.62-28Z" transform="translate(-43.66 -52.42)"/><path class="cls-2" d="M539.61,114.31l43-24-2.44-8.94H320.64l-43,26.94,14,39,44,29,86-68,18,62,51.11,32.15,127.89-27.15Z" transform="translate(-43.66 -52.42)"/><path class="cls-2" d="M539.61,114.31l43-24-1.2-4.41h-268l-35.8,22.41,14,39,44,29,86-68,18,62,51.11,32.15,127.89-27.15Z" transform="translate(-43.66 -52.42)"/><path class="cls-2" d="M539.61,114.31l43-24-1.2-4.41h-268l-35.8,22.41,14,39,44,29,86-68,18,62,51.11,32.15,127.89-27.15Z" transform="translate(-43.66 -52.42)"/><polygon class="cls-3" points="495.95 61.89 538.95 37.89 537.74 33.47 269.77 33.47 233.95 55.89 247.95 94.89 291.95 123.89 377.95 55.89 395.95 117.89 447.06 150.05 574.95 122.89 495.95 61.89"/><path class="cls-7" d="M475.57,174.84q0-8-3.31-12.34t-9.6-4.34a14.61,14.61,0,0,0-9,3.34V144l-14,.5v5l4.72,1.26v22.53l9.26,5.82V168.42l.63-.69a6.94,6.94,0,0,1,2.17-1.45,7.4,7.4,0,0,1,3.18-.69q6.17,0,6.17,9.88,0,6.91-3.13,9.35l7.39,4.65c.29-.25.58-.5.84-.78Q475.57,183.85,475.57,174.84Z" transform="translate(-43.66 -52.42)"/><path class="cls-7" d="M496,193.41q7.69,0,12.25-4.91t4.56-13.35q0-8.12-4.13-12.56T497,158.16q-7.81,0-12.4,4.75T480,176.1Q480,193.42,496,193.41Zm-4.62-25.69a6,6,0,0,1,5.25-2.33,5.32,5.32,0,0,1,4.88,2.49q1.54,2.49,1.54,7.59,0,5.79-1.63,8.25a5.7,5.7,0,0,1-5.1,2.45,5.51,5.51,0,0,1-5-2.49q-1.58-2.48-1.57-7.9Q489.74,170.06,491.41,167.73Z" transform="translate(-43.66 -52.42)"/><path class="cls-7" d="M550.18,186.17V158.79l-13.92.5v5l4.66,1.13V182l-.94.88a12,12,0,0,1-2.87,1.73,8.67,8.67,0,0,1-3.62.85,3,3,0,0,1-2.71-1.23,7,7,0,0,1-.82-3.81v-21.6l-13.91.5v5l4.59,1.13v16.68q0,5.35,2.49,8.31t7.21,3a12,12,0,0,0,3.43-.54,17.1,17.1,0,0,0,3.05-1.2,19,19,0,0,0,2.46-1.54q1.19-.88,1.61-1.23c.27-.23.47-.41.6-.53l.46,3.21,13-2.76v-1.39Z" transform="translate(-43.66 -52.42)"/><path class="cls-7" d="M572.46,166.53h8.82v-6.8h-8.82V149.34l-9.25,1.7v8.69l-5.85.82v6h5.85V178.3a38.31,38.31,0,0,0,.79,8.6l9.07-1.93a10.65,10.65,0,0,1-.61-4.22Z" transform="translate(-43.66 -52.42)"/><path class="cls-4" d="M572.55,53.42l7.62,28,2.44,8.94-43,24,79,61L573.07,185l-5.84,1.24L555,188.83h0L549.62,190l-58.89,12.5-20.66-13-7.39-4.65-9-5.67h0l-9.26-5.82h0l-4.79-3-18-62-86,68-44-29-14-39,43-26.94,44.65-28H572.55m.76-1H365l-.24.15-44.65,28-43,26.94-.68.43.27.76,14,39,.11.31.28.18,44,29,.6.4.57-.45L421.07,110l17.59,60.57.11.37.32.2,4.79,3,9.26,5.82,9,5.67,7.39,4.65,20.66,13,.34.22.4-.08,58.89-12.5,5.34-1.13,12.27-2.6,5.84-1.24,45.54-9.67,2.11-.45-1.71-1.32-77.8-60.07L583.1,91.18l.68-.38-.21-.75-2.44-8.94-7.62-28-.2-.74Z" transform="translate(-43.66 -52.42)"/><path class="cls-6" d="M957.58,142.92q.23-44,.52-87.91l-4-.41a21,21,0,0,0-3.43.47c.11,6.63-5.59,9.37-9.11,13.56-4,4.71-9.62,7.91-12.15,13.86q0,38.63,0,77.27l14.2-28.39Z" transform="translate(-43.66 -52.42)"/><path class="cls-1" d="M933.19,54.48H698.82l-10.4,28h227c4.66,0,9.33,0,14,.06,2.53-6,8.2-9.16,12.15-13.86,3.52-4.19,9.22-6.93,9.11-13.56C944.82,54.87,939,54.48,933.19,54.48Z" transform="translate(-43.66 -52.42)"/><path class="cls-2" d="M929.4,159.77l-33.8,67.61-36-34v-62L702.34,180.62,643.6,120.38l40-25,4.81-12.94h227c4.66,0,9.32,0,14,.07Z" transform="translate(-43.66 -52.42)"/><polygon class="cls-3" points="881.37 34.53 881.37 116.1 851.93 174.96 815.93 140.96 815.93 78.96 658.67 128.2 599.93 67.96 639.93 42.96 643.08 34.53 881.37 34.53"/><path class="cls-4" d="M908.77,54.48h24.42c5.81,0,11.63.39,17.45.6a20,20,0,0,1,3.44-.47l4,.41q-.24,43.95-.52,87.91l-14-11.55-14.2,28.39L925,168.5h0L895.6,227.37l-36-34v-62L702.34,180.61,643.6,120.37l40-25,4.8-12.93h0l10.4-28h210m0-1H698.12l-.24.65L687.71,81.46h0l-.24.63-4.68,12.62-39.72,24.82-1.05.66.87.89,58.74,60.24.43.44.59-.18,156-48.83V193.8l.31.3,36,34,1,.92.6-1.2L925.93,169l.11-.23h0l4.26-8.51,13.64-27.27,13,10.75,1.63,1.34v-2.11q.13-24.55.29-49.09.12-19.41.23-38.82v-.91l-.9-.09-2-.2-2-.2H954a21.09,21.09,0,0,0-3.48.46c-1.79-.07-3.59-.15-5.38-.23-3.92-.18-8-.37-12-.37Z" transform="translate(-43.66 -52.42)"/></svg>