<svg id="Layer_1" data-name="Layer 1" xmlns="http://www.w3.org/2000/svg" viewBox="0 0 298.67 294.67"><defs><style>.cls-1{fill:#d0faff;}.cls-2{fill:#6e2405;}.cls-3{fill:#cda18b;}.cls-4{fill:#694d9f;}.cls-5{fill:#fff;}</style></defs><title>BLNLogo</title><rect class="cls-1" width="298.67" height="294.67"/><path class="cls-2" d="M121.38,111.49c0,.14,0,.27,0,.41,4,.72,8.19-1.35,12.75-4.18a3.1,3.1,0,0,0-.71-.18C129.4,107.63,125.38,109.44,121.38,111.49Z" transform="translate(12.57 7.37)"/><path class="cls-3" d="M162,68.72c-.34,2-1.22,5.78-2.27,7.55-8,13.51-39.85,12-38.33,35.22,4-2.06,8-3.86,12.06-3.95a3.1,3.1,0,0,1,.71.18c6.8-4.22,14.41-10.1,23.3-10.92,9.81-.9,20.09-17.26,26.86-30.82A133.27,133.27,0,0,0,162,68.72Z" transform="translate(12.57 7.37)"/><path class="cls-4" d="M82.07,261.5,73,263.21A15.35,15.35,0,0,1,55.09,251l-16.3-86.83A15.35,15.35,0,0,1,51,146.27l9.11-1.71Z" transform="translate(12.57 7.37)"/><path class="cls-4" d="M177.89,122.45l-17.73,3.33-11.08,2.08L98.24,137.4l-11.09,2.08-17.73,3.33,22,117L199.84,239.4Zm-69.55,39.48s.6-3.4,5.52-5.56a15.09,15.09,0,0,1,6.67-1.15,128.3,128.3,0,0,0,4.06,14.89,120.93,120.93,0,0,0,8.73,20.14C103.48,174.51,108.34,161.93,108.34,161.93ZM96.63,200.15s-2.64-2.22-2-7.57a15.18,15.18,0,0,1,2.33-6.34,129.2,129.2,0,0,0,14.93,3.93,120.36,120.36,0,0,0,21.82,2.49C105.1,210.65,96.63,200.15,96.63,200.15Zm25.86,30.21s-3.25,1.19-7.58-2a15.15,15.15,0,0,1-4.33-5.19,126.77,126.77,0,0,0,10.86-11,119,119,0,0,0,13.06-17.65C135.81,228.28,122.49,230.36,122.49,230.36ZM147,153.24s3.24-1.18,7.58,2a15.11,15.11,0,0,1,4.33,5.22,124.94,124.94,0,0,0-10.86,11A117.19,117.19,0,0,0,135,189.06C133.72,155.33,147,153.24,147,153.24Zm14.16,68.44s-.6,3.4-5.53,5.55a14.91,14.91,0,0,1-6.67,1.14,130.87,130.87,0,0,0-4-14.88,120.47,120.47,0,0,0-8.76-20.13C166.06,209.08,161.2,221.68,161.2,221.68ZM174.94,191a14.9,14.9,0,0,1-2.35,6.34,131.43,131.43,0,0,0-14.92-3.93,120.26,120.26,0,0,0-21.8-2.48c28.56-18,37-7.49,37-7.49S175.54,185.67,174.94,191Z" transform="translate(12.57 7.37)"/><path class="cls-5" d="M133.32,190.25c-29.84-15.74-25-28.32-25-28.32s.6-3.4,5.52-5.56a15.09,15.09,0,0,1,6.67-1.15,128.3,128.3,0,0,0,4.06,14.89A120.93,120.93,0,0,0,133.32,190.25Z" transform="translate(12.57 7.37)"/><path class="cls-5" d="M133.67,192.66c-28.57,18-37,7.49-37,7.49s-2.64-2.22-2-7.57a15.18,15.18,0,0,1,2.33-6.34,129.2,129.2,0,0,0,14.93,3.93A120.36,120.36,0,0,0,133.67,192.66Z" transform="translate(12.57 7.37)"/><path class="cls-5" d="M122.49,230.36s-3.25,1.19-7.58-2a15.15,15.15,0,0,1-4.33-5.19,126.77,126.77,0,0,0,10.86-11,119,119,0,0,0,13.06-17.65C135.81,228.28,122.49,230.36,122.49,230.36Z" transform="translate(12.57 7.37)"/><path class="cls-5" d="M161.2,221.68s-.6,3.4-5.53,5.55a14.91,14.91,0,0,1-6.67,1.14,130.87,130.87,0,0,0-4-14.88,120.47,120.47,0,0,0-8.76-20.13C166.06,209.08,161.2,221.68,161.2,221.68Z" transform="translate(12.57 7.37)"/><path class="cls-5" d="M174.94,191a14.9,14.9,0,0,1-2.35,6.34,131.43,131.43,0,0,0-14.92-3.93,120.26,120.26,0,0,0-21.8-2.48c28.56-18,37-7.49,37-7.49S175.54,185.67,174.94,191Z" transform="translate(12.57 7.37)"/><path class="cls-5" d="M159,160.46a124.94,124.94,0,0,0-10.86,11A117.19,117.19,0,0,0,135,189.06c-1.31-33.73,12-35.82,12-35.82s3.24-1.18,7.58,2A15.11,15.11,0,0,1,159,160.46Z" transform="translate(12.57 7.37)"/><path class="cls-4" d="M218.26,235.94l-9.12,1.71L187.19,120.71,196.3,119a15.34,15.34,0,0,1,17.87,12.23l16.3,86.83A15.35,15.35,0,0,1,218.26,235.94Z" transform="translate(12.57 7.37)"/><path class="cls-4" d="M144.4,95.79a6.84,6.84,0,0,1,8.14,5.14l7.62,24.86c.78,4.14-1.08,8-4.13,8.56s-6.18-2.34-7-6.48l-3-16.15a7.68,7.68,0,0,0-8.94-6.11l-35.78,6.72a7.68,7.68,0,0,0-6.11,8.94l3,16.15c.78,4.14-1.08,8-4.13,8.56s-6.18-2.34-7-6.48l-1.9-25.92A6.83,6.83,0,0,1,91,105.82Z" transform="translate(12.57 7.37)"/><polygon class="cls-5" points="103.95 267.13 94.64 268.87 72.69 151.93 81.99 150.18 103.95 267.13"/><polygon class="cls-5" points="221.71 245.02 212.41 246.77 190.46 129.82 199.76 128.08 221.71 245.02"/><path class="cls-2" d="M57.36,12.56c-10.54-.51-16.88-1.19-16.88-1.19a12,12,0,0,0,2,2.7A18.28,18.28,0,0,0,57.36,12.56Z" transform="translate(12.57 7.37)"/><path class="cls-2" d="M38.61,81.66c-6.24,6.93-10.73,12-10.73,12A33.82,33.82,0,0,0,36,92.81,18.33,18.33,0,0,0,38.61,81.66Z" transform="translate(12.57 7.37)"/><path class="cls-2" d="M63,105.22c1.15-3.68-3-3.68-6.19-2.21-4.61,7.57-7.77,13.11-7.77,13.11a40.2,40.2,0,0,0,10.11-2.9A30.21,30.21,0,0,0,63,105.22Z" transform="translate(12.57 7.37)"/><path class="cls-3" d="M236.55,11.74s-.93.56-34.61,1.32c-15,.34-48-6-61.08-4.07C107.78,13.84,76,13.47,57.36,12.56A18.28,18.28,0,0,1,42.5,14.08C57.05,29,111,24.35,111,24.35S82.26,37.26,75.28,42.74c-4.66,3.65-24.18,25.06-36.67,38.92A18.33,18.33,0,0,1,36,92.81c13.74-3.22,19.7-15.73,39.75-34.21C89.92,45.55,97.95,45.1,115.2,37.52A193.61,193.61,0,0,0,82.28,66.38C74.43,75,63.91,91.39,56.82,103c3.19-1.47,7.34-1.47,6.19,2.21a30.21,30.21,0,0,1-3.85,8c16-7.11,19.91-24.52,34.46-40.37,16.2-17.65,36.77-27.3,36.77-27.3C124,50.22,118.3,60.75,111.15,69.35c-4.5,5.43-8.18,25.2-10.28,39.07,1.42-1.28,2.79-2,4.43-.4,2,1.48,3,4.26,2.93,7.14C122.75,98,110.22,72.24,149.1,55c8.7-2.94,14.21,6.64,12.66,15.62,7-1.41,14.81-3.37,22-3.52A214.67,214.67,0,0,0,192.88,46c25.36.79,51.34,6.52,51.34,6.52Z" transform="translate(12.57 7.37)"/><path class="cls-2" d="M105.31,108c-1.65-1.58-3-.89-4.43.4C99.64,116.53,99,122.63,99,122.63a32.87,32.87,0,0,0,9.28-7.47C108.3,112.29,107.29,109.51,105.31,108Z" transform="translate(12.57 7.37)"/></svg>