<?xml version="1.0" encoding="utf-8"?>
<!-- Generator: Adobe Illustrator 21.1.0, SVG Export Plug-In . SVG Version: 6.00 Build 0)  -->
<svg version="1.1" id="Layer_1" xmlns="http://www.w3.org/2000/svg" xmlns:xlink="http://www.w3.org/1999/xlink" x="0px" y="0px"
	 viewBox="0 0 1084.9 294.4" style="enable-background:new 0 0 1084.9 294.4;" xml:space="preserve">
<style type="text/css">
	.st0{fill:#C6C6EE;}
	.st1{fill:#787895;}
	.st2{fill:#4A4A5A;}
	.st3{fill:#7878A2;}
	.st4{fill:#3B3B52;}
	.st5{fill:#636378;}
	.st6{fill:#FFFFFF;}
	.st7{fill:#F7F7C7;}
	.st8{fill-opacity:0;stroke:#D0D0A3;stroke-width:2;}
	.st9{fill-opacity:0;stroke:#D1D1A3;stroke-width:2;}
</style>
<g>
	<g>
		<g transform="matrix(1.1805400000000001,0,0,1.1805400000000001,474.6954099999999,94.58603999999997)">
			<g transform="matrix(0.9999101660125523,0.013403727270804093,-0.013403727270804093,0.9999101660125523,-9.777,-26.788)">
				<g transform="matrix(1,0,0,1,802.152,285.115)">
					<path class="st0" d="M-279.3-104.9c-8.4-9.1-16.9-18.2-25.3-27.3c-5.8,0.1-11.6,0.4-17.5,0.4c-97,0.7-194.1,1.4-291.1,2.2
						l17.8,27.8c98.4-0.7,196.8-1.5,295.2-2.2C-293.3-104.1-286.3-104.6-279.3-104.9z"/>
				</g>
				<g transform="matrix(1,0,0,1,957.655,220.705)">
					<path class="st1" d="M-432.8-154c0-11.1-0.1-22.3-0.1-33.4l-15.2-12.4l-15.1,30.8c0.3,35,0.6,70.1,0.8,105.1
						c9.1,9.8,18.2,19.7,27.3,29.5c5.7-4.3,2.8-10.5,2.8-15.7C-432.2-84.7-432.7-119.3-432.8-154z"/>
				</g>
				<g transform="matrix(1,0,0,1,786.349,208.633)">
					<path class="st2" d="M-288.8-55.8c-5.8,0.1-11.6,0.4-17.5,0.4l-291.1,2.2l-6.3-9.9l106.6-47.8l-19.4-19.6l156.9-50.4l0.5,62
						l36.3,33.7l33.3-67.9C-289.3-120.6-289.1-88.2-288.8-55.8z"/>
				</g>
				<g transform="matrix(1,0,0,1,784.124,206.547)">
					<path class="st2" d="M-291.7-142.2l0.6,84.6l-306.8,2.3l-3.6-5.7l106.6-47.8l-19.4-19.6l156.9-50.4l0.5,62l36.3,33.7
						L-291.7-142.2z"/>
					<path class="st2" d="M-291.7-142.2l0.6,84.6l-306.8,2.3l-3.6-5.7l106.6-47.8l-19.4-19.6l156.9-50.4l0.5,62l36.3,33.7
						L-291.7-142.2z"/>
				</g>
				<g transform="matrix(1,0,0,1,784.124,206.552)">
					<path class="st3" d="M-291.7-142.2l0.6,84.6l-306.8,2.3l-3.7-5.7l106.6-47.8l-19.4-19.6l156.9-50.4l0.5,62l36.3,33.7
						L-291.7-142.2z"/>
				</g>
				<g transform="matrix(1,0,0,1,800.638,220.48)">
					<path class="st4" d="M-291.1-199.6l15.2,12.4c0,11.1,0.1,22.3,0.1,33.4c0.1,34.6,0.6,69.3,0.6,103.9c0,5.2,2.9,11.4-2.8,15.7
						c-1.8-2-3.6-3.9-5.5-5.9c-5.1,0.3-10.1,0.6-15.2,0.6c-98.4,0.7-196.8,1.5-295.2,2.2l-17.8-27.8c97-0.7,194.1-1.4,291.1-2.2
						c5.1,0,10.1-0.2,15.2-0.3v0c-5.1,0.1-10.1,0.3-15.2,0.3l-291.1,2.2l-2.7-4.2h0L-618-75l106.6-47.8l-19.4-19.6l156.9-50.4
						l0.5,62l36.3,33.7l31-63.3c0-2.8,0-5.7-0.1-8.5L-291.1-199.6z M-291.8-202.7l-1.1,2.3l-15.1,30.8l-0.2,0.4l0,0.5l0,4.3l0,3.8
						l-29.6,60.4l-33.6-31.3l-0.5-61.1l0-2.7l-2.6,0.8l-156.9,50.4l-3.1,1l2.3,2.3l17.4,17.6l-104,46.6l-2.1,0.9l1.2,2l3.6,5.7
						l0.6,0.9h0l2.1,3.2l0.6,0.9h0l17.2,26.9l0.6,0.9l1.1,0l51.5-0.4c81.2-0.6,162.5-1.2,243.7-1.8c4.8,0,9.6-0.3,14.3-0.5l0,0
						l4.8,5.2l1.2,1.3l1.4-1.1c5.2-4,4.5-9.3,4-13.5c-0.2-1.3-0.3-2.6-0.3-3.8c0-20.7-0.2-41.8-0.3-62.2
						c-0.1-13.7-0.2-27.8-0.3-41.7c0-11.1-0.1-22.3-0.1-33.4l0-0.9l-0.7-0.6l-15.2-12.4L-291.8-202.7z"/>
				</g>
			</g>
			<g transform="matrix(0.9995212513584188,-0.030939749237839445,0.030939749237839445,0.9995212513584188,-15.4,24.024)">
				<g transform="matrix(1,0,0,1,957.716,108.516)">
					<path class="st1" d="M-427.9-100.5c1.1-29.3,2.2-58.6,3.2-87.8c-1.3-0.2-2.7-0.4-4-0.5c-1.2,0-2.3,0.1-3.4,0.4
						c-0.1,6.6-5.9,9.2-9.5,13.3c-4.1,4.6-9.9,7.6-12.6,13.5c-0.8,25.7-1.6,51.5-2.4,77.2l15.1-27.9L-427.9-100.5z"/>
				</g>
				<g transform="matrix(1,0,0,1,834.743,65.886)">
					<path class="st5" d="M-326.6-147.1c-78.1-2.4-156.2-4.8-234.3-7.3l-11.3,27.6c75.6,2.3,151.2,4.7,226.9,7
						c4.7,0.1,9.3,0.3,14,0.5c2.7-5.9,8.5-8.9,12.6-13.5c3.7-4.1,9.4-6.6,9.5-13.3C-315-146.3-320.8-146.9-326.6-147.1z"/>
				</g>
				<g transform="matrix(1,0,0,1,800.708,151.575)">
					<path class="st2" d="M-299.6-127.6l-35.9,66.5l-34.9-35.1l1.9-62l-158.7,44.3l-56.8-62l40.8-23.7l5.2-12.8l226.9,7
						c4.7,0.1,9.3,0.3,14,0.5C-298-179.1-298.8-153.4-299.6-127.6z"/>
				</g>
				<g transform="matrix(1,0,0,1,798.471,153.803)">
					<path class="st3" d="M-299.5-202.8l-2.5,81.5l-31.2,57.9l-34.9-35.1l1.9-62L-525-116l-56.8-62l40.8-23.8l3.4-8.3L-299.5-202.8z
						"/>
				</g>
				<g transform="matrix(1,0,0,1,814.945,138.404)">
					<path class="st4" d="M-541.1-226.8c78.1,2.4,156.2,4.8,234.3,7.3c5.8,0.2,11.6,0.8,17.4,1.1c1.1-0.2,2.3-0.3,3.4-0.4
						c1.3,0.2,2.7,0.3,4,0.5c-1.1,29.3-2.2,58.6-3.2,87.9l-13.6-12l-15.1,27.9l-4.6,8.6v0l-31.2,57.9L-384.6-83l1.9-62l-158.7,44.3
						l-56.8-62l40.8-23.7l5.2-12.8h0L-541.1-226.8z M-542.4-228.9l-0.5,1.3l-10.8,26.4h0l-0.5,1.2l-4.9,12.1l-40.2,23.4l-2.1,1.3
						l1.7,1.8l56.9,62l0.8,0.9l1.2-0.3l156.1-43.6l-1.8,59.2l0,0.9l0.6,0.6l34.9,35.1l1.9,1.9l1.3-2.4l31.2-57.9l0.2-0.4v0l4.4-8.2
						l13.9-25.7l11.7,10.3l3.2,2.8l0.2-4.2c0.6-16.3,1.2-32.7,1.8-49c0.5-12.9,1-25.9,1.4-38.8l0.1-1.8l-1.8-0.2
						c-0.7-0.1-1.3-0.2-2-0.3c-0.7-0.1-1.3-0.2-2-0.3l-0.1,0l-0.2,0c-1.2,0-2.4,0.1-3.5,0.3c-1.7-0.1-3.5-0.3-5.2-0.4
						c-3.9-0.3-8-0.6-12-0.7c-39.7-1.2-79.5-2.5-119.2-3.7c-38.4-1.2-76.7-2.4-115.1-3.6L-542.4-228.9z"/>
				</g>
			</g>
			<g transform="matrix(0.9996976396503063,0.02458921059339143,-0.02458921059339143,0.9996976396503063,-7.624,-24.718)">
				<g transform="matrix(1,0,0,1,570.649,277.344)">
					<path class="st0" d="M-518.7-124.6l-10.2,28.2c54.2-1.2,108.4-2.4,162.6-3.7l-18.2-27.5C-429.2-126.7-474-125.7-518.7-124.6z"
						/>
				</g>
				<g transform="matrix(1,0,0,1,616.367,175.076)">
					<path class="st2" d="M-410.5-162.8l39.4-25.9l4.5-13c-35.1,0.8-70.1,1.6-105.2,2.4l2.6,8.9l-42.4,25l80.4,59.2l-127.2,30
						l11,6.6l-17,47.3c44.8-1,89.5-2,134.3-3l-6.5-9.8l105.9-49.4L-410.5-162.8z"/>
				</g>
				<g transform="matrix(1,0,0,1,617.129,175.241)">
					<path class="st2" d="M-411.2-163l39.4-25.9l2.9-8.5c-34.1,0.8-68.2,1.5-102.3,2.3l1.3,4.4l-42.4,25l80.4,59.2l-127.2,30l11,6.6
						l-15.5,43.1c43.4-1,86.7-2,130.1-2.9l-3.7-5.7l105.9-49.4L-411.2-163z"/>
					<path class="st2" d="M-411.2-163l39.4-25.9l2.9-8.5c-34.1,0.8-68.2,1.5-102.3,2.3l1.3,4.4l-42.4,25l80.4,59.2l-127.2,30l11,6.6
						l-15.5,43.1c43.4-1,86.7-2,130.1-2.9l-3.7-5.7l105.9-49.4L-411.2-163z"/>
				</g>
				<g transform="matrix(1,0,0,1,617.127,175.238)">
					<path class="st3" d="M-411.2-163l39.4-25.9l2.9-8.5l-102.3,2.3l1.3,4.4l-42.4,25l80.4,59.2l-127.2,30l11,6.6l-15.5,43.1
						l130.1-2.9l-3.7-5.7l105.9-49.4L-411.2-163z"/>
				</g>
				<g transform="matrix(1,0,0,1,562.969,197.878)">
					<path class="st6" d="M-453.9-109.9l12.8-0.7l-0.1-3.5l-12.9,3.1L-453.9-109.9z"/>
				</g>
				<g transform="matrix(1,0,0,1,587.943,195.677)">
					<path class="st6" d="M-455.9-111c1.4,2.2,3.8,3.3,7.3,3.2c3.4-0.1,7-1.5,10.6-4.1l-2.4-4.5c-1.8,1-3.4,1.5-4.9,1.6
						c-1.3,0-2.2-0.4-2.7-1.2c0-0.1-0.1-0.1-0.1-0.2l-9,2.1C-456.8-112.9-456.4-111.8-455.9-111z"/>
				</g>
				<g transform="matrix(1,0,0,1,645.557,72.478)">
					<path class="st5" d="M-509.2-124.6l8.3,27.8c35.1-0.8,70.1-1.6,105.2-2.4l9.8-28.2C-427-126.4-468.1-125.5-509.2-124.6z"/>
				</g>
				<g transform="matrix(1,0,0,1,611.586,175.076)">
					<path class="st4" d="M-352-229.9l-9.8,28.2l-1.6,4.6l-2.9,8.5l-39.4,25.9l79.8,78.2l-105.9,49.4l6.5,9.8l18.2,27.5
						c-54.2,1.2-108.4,2.4-162.6,3.7l10.2-28.2l1.5-4.2l15.5-43.1l-11-6.6l51-12l12.9-3.1l17.8-4.2l0.2-0.1l45.3-10.7l-80.4-59.2
						l42.4-25l-2.6-8.9l-8.3-27.8C-434.1-228.1-393-229-352-229.9z M-349.1-232l-2.9,0.1l-61.6,1.4l-61.6,1.4l-2.6,0.1l0.7,2.5
						l8.3,27.8l2.2,7.4l-41.1,24.2l-2.6,1.5l2.4,1.8l76.9,56.6l-41.1,9.7l-0.2,0l-17.8,4.2l-13,3.1l-51,12l-4.8,1.1l4.2,2.5l9.6,5.8
						l-15,41.6l-1.5,4.2l-10.2,28.2l-1,2.7l2.9-0.1l80.4-1.8l82.2-1.9l3.6-0.1l-2-3l-18.2-27.5l-5.2-7.9L-325-82.8l2.6-1.2l-2.1-2
						l-78-76.5l37.4-24.5l0.6-0.4l0.2-0.6l2.9-8.5l1.6-4.6l9.8-28.2L-349.1-232z"/>
				</g>
			</g>
			<g transform="matrix(0.9995185475500578,-0.031026973803818195,0.031026973803818195,0.9995185475500578,-14.553,7.082)">
				<g transform="matrix(1,0,0,1,462.835,70.204)">
					<path class="st5" d="M-524.8-154.1l-45.5,26.6c86.5,2.7,172.9,5.4,259.4,8.1l-6.8-28.2C-386.7-149.8-455.8-151.9-524.8-154.1z"
						/>
				</g>
				<g transform="matrix(1,0,0,1,458.663,142.607)">
					<path class="st2" d="M-348.3-160.2l43.7-22.7l-2.2-9c-86.5-2.7-172.9-5.4-259.4-8.1l-43.8,25.6l12.8,39.4l43.1,30.4l88.1-65.3
						l16.1,62.5l50.1,33.7l128.7-23.2L-348.3-160.2z"/>
				</g>
				<g transform="matrix(1,0,0,1,458.663,144.756)">
					<path class="st2" d="M-348.3-162.4l43.7-22.7l-1.1-4.4c-89.3-2.8-178.6-5.6-267.9-8.3l-36.5,21.3l12.8,39.4l43.1,30.4
						l88.1-65.3l16.1,62.5l50.1,33.7l128.7-23.2L-348.3-162.4z"/>
					<path class="st2" d="M-348.3-162.4l43.7-22.7l-1.1-4.4c-89.3-2.8-178.6-5.6-267.9-8.3l-36.5,21.3l12.8,39.4l43.1,30.4
						l88.1-65.3l16.1,62.5l50.1,33.7l128.7-23.2L-348.3-162.4z"/>
				</g>
				<g transform="matrix(1,0,0,1,458.663,144.748)">
					<path class="st3" d="M-348.3-162.4l43.7-22.7l-1.1-4.5l-267.8-8.3l-36.5,21.3l12.8,39.4l43.1,30.4l88.1-65.3l16.1,62.5
						l50.1,33.7l128.7-23.2L-348.3-162.4z"/>
				</g>
				<g transform="matrix(1,0,0,1,467.624,169.153)">
					<path class="st6" d="M-423.2-128.2c0.2-5.3-0.8-9.5-2.9-12.4c-2.1-3-5.3-4.5-9.5-4.6c-3.1-0.1-6.1,0.9-9.1,3.1l0.5-17.5
						l-14,0.1l-0.2,5l4.7,1.4l-0.7,22.5l9.1,6.1l0.3-10.7l0.6-0.7c0.5-0.5,1.2-0.9,2.2-1.4c1-0.4,2.1-0.6,3.2-0.6
						c4.1,0.1,6.1,3.5,5.9,10.1c-0.1,4.6-1.3,7.7-3.4,9.2l7.2,4.9c0.3-0.2,0.6-0.5,0.9-0.8C-425.1-117.7-423.4-122.2-423.2-128.2z"
						/>
				</g>
				<g transform="matrix(1,0,0,1,505.791,179.281)">
					<path class="st6" d="M-441.5-119.2c5.1,0.2,9.2-1.4,12.4-4.5c3.1-3.2,4.8-7.6,5-13.2c0.2-5.4-1.1-9.6-3.7-12.7
						c-2.7-3-6.5-4.6-11.6-4.8c-5.2-0.2-9.4,1.3-12.5,4.4c-3.2,3.1-4.8,7.4-5,13C-457.3-125.4-452.2-119.5-441.5-119.2z M-445.3-145
						c1.2-1.5,2.9-2.2,5.3-2.2c2.2,0.1,3.8,0.9,4.8,2.6c1,1.7,1.4,4.2,1.3,7.6c-0.1,3.9-0.7,6.6-1.9,8.2c-1.1,1.6-2.9,2.4-5.2,2.3
						c-2.3-0.1-4-1-5-2.6c-1-1.7-1.4-4.3-1.3-7.9C-447.1-140.8-446.5-143.5-445.3-145z"/>
				</g>
				<g transform="matrix(1,0,0,1,544.956,180.658)">
					<path class="st6" d="M-426.3-126.1l0.9-27.4l-13.9,0.1l-0.2,5l4.6,1.3l-0.5,16.5l-1,0.9c-0.7,0.6-1.7,1.1-2.9,1.6
						c-1.3,0.5-2.5,0.8-3.6,0.7c-1.3,0-2.1-0.5-2.7-1.3c-0.5-0.8-0.8-2.1-0.7-3.8l0.7-21.6l-13.9,0.1l-0.2,5l4.6,1.3l-0.5,16.7
						c-0.1,3.6,0.6,6.4,2.2,8.4c1.6,2,4,3.1,7.1,3.2c1.1,0,2.2-0.1,3.4-0.4c1.2-0.3,2.2-0.7,3.1-1.1c0.9-0.4,1.7-0.9,2.5-1.5
						c0.8-0.6,1.4-1,1.6-1.2c0.3-0.2,0.5-0.4,0.6-0.5l0.4,3.2l13.1-2.4l0-1.4L-426.3-126.1z"/>
				</g>
				<g transform="matrix(1,0,0,1,579.145,173.853)">
					<path class="st6" d="M-437.6-138.2l8.8,0.3l0.2-6.8l-8.8-0.3l0.3-10.4l-9.3,1.4l-0.3,8.7l-5.9,0.6l-0.2,6l5.9,0.2l-0.4,11.8
						c-0.1,3.5,0.1,6.4,0.5,8.6l9.1-1.6c-0.4-0.9-0.5-2.3-0.5-4.2L-437.6-138.2z"/>
				</g>
				<g transform="matrix(1,0,0,1,459.768,129.377)">
					<path class="st4" d="M-521.8-213.3c69.1,2.1,138.1,4.3,207.2,6.4l6.8,28.2l2.2,9l-43.7,22.7l77.1,63.4l-45.8,8.2l-5.9,1.1
						l-12.3,2.2l-5.4,1L-401-60.4L-421.3-74l-7.2-4.9l-8.8-6l-9.1-6.1l-4.7-3.2l-16.1-62.5l-88.1,65.3l-43.1-30.4l-12.8-39.4
						l43.8-25.6L-521.8-213.3z M-522.3-215.3l-0.5,0.3l-45.5,26.6l-43.8,25.6l-1.4,0.8l0.5,1.5l12.8,39.4l0.2,0.6l0.5,0.4l43.1,30.4
						l1.2,0.8l1.2-0.9l85.7-63.5l15.3,59.6l0.2,0.7l0.6,0.4l4.7,3.2l9.1,6.1l8.8,6l7.2,4.9l20.2,13.6l0.7,0.5l0.8-0.1l59.3-10.7
						l5.4-1l12.3-2.2l5.9-1.1l45.8-8.2l4.3-0.8l-3.3-2.7l-74.7-61.5l41-21.3l1.4-0.7l-0.4-1.5l-2.2-9l-6.8-28.2l-0.4-1.5l-1.5,0
						l-98.5-3.1l-108.6-3.4L-522.3-215.3z"/>
				</g>
			</g>
			<g transform="matrix(0.9990466983693487,-0.04365426070046006,0.04365426070046006,0.9990466983693487,-14.706,-1.694)">
				<g transform="matrix(1,0,0,1,343.017,282.994)">
					<path class="st0" d="M-582.4-162.6l14.3,28.6c86.9,4,173.8,8,260.7,12l12.1-27.4C-391-153.8-486.7-158.2-582.4-162.6z"/>
				</g>
				<g transform="matrix(1,0,0,1,348.805,200.573)">
					<path class="st2" d="M-356.1-217.6l-89,64l-80.3,4.3l-67.3-39.1l42.3,82l-46.5,8.9l8.7,17.3c95.7,4.4,191.4,8.8,287.1,13.2
						l20.3-46.1l-10.6-7.3l-7,1.2l7-1.2l-49.6-34.5L-356.1-217.6z"/>
				</g>
				<g transform="matrix(1,0,0,1,348.805,198.514)">
					<path class="st2" d="M-356.1-215.6l-89,64l-80.3,4.3l-67.3-39.1l42.3,82l-46.5,8.9l6.5,13.1c97.1,4.5,194.1,8.9,291.1,13.4
						l18.4-41.9l-10.6-7.3l-7,1.2l7-1.2l-49.6-34.5L-356.1-215.6z"/>
					<path class="st2" d="M-356.1-215.6l-89,64l-80.3,4.3l-67.3-39.1l42.3,82l-46.5,8.9l6.5,13.1c97.1,4.5,194.1,8.9,291.1,13.4
						l18.4-41.9l-10.6-7.3l-7,1.2l7-1.2l-49.6-34.5L-356.1-215.6z"/>
				</g>
				<g transform="matrix(1,0,0,1,348.805,198.519)">
					<path class="st3" d="M-356.1-215.6l-89,64l-80.3,4.3l-67.3-39.1l42.3,82l-46.5,8.9l6.5,13.1l291.1,13.4l18.4-41.9l-10.6-7.3
						l-49.6-34.5L-356.1-215.6z"/>
				</g>
				<g transform="matrix(1,0,0,1,422.517,187.753)">
					<path class="st6" d="M-431.7-164.8l-10.1-0.3l-15.5,36.6l-4.7,1.2l-0.3,5.5l19,0.9l0.3-5.5l-4.8-1.7l1.8-4.6l14,0.6l1.3,4.8
						l-4.8,1.2l-0.3,5.5l20,0.9l0.3-5.5l-4.3-1.6L-431.7-164.8z M-443.5-139.3l5.7-14.7l4,15.1L-443.5-139.3z"/>
				</g>
				<g transform="matrix(1,0,0,1,463.349,201.774)">
					<path class="st6" d="M-437.6-139.4c-2.1-0.1-3.7-0.3-4.6-0.7l0.3-6.5l-9-6.2l-0.9,18.8l1.7,0.5c1.1,0.3,2.7,0.6,4.9,0.9
						c2.1,0.3,4.2,0.5,6.3,0.6c5.4,0.3,9.7-0.9,12.9-3.5l-7.2-5C-434.3-139.7-435.8-139.3-437.6-139.4z"/>
				</g>
				<g transform="matrix(1,0,0,1,343.017,282.994)">
					<path class="st0" d="M-582.4-162.6l14.3,28.6c86.9,4,173.8,8,260.7,12l12.1-27.4C-391-153.8-486.7-158.2-582.4-162.6z"/>
				</g>
				<g transform="matrix(1,0,0,1,348.805,200.573)">
					<path class="st2" d="M-356.1-217.6l-89,64l-80.3,4.3l-67.3-39.1l42.3,82l-46.5,8.9l8.7,17.3c95.7,4.4,191.4,8.8,287.1,13.2
						l20.3-46.1l-10.6-7.3l-7,1.2l7-1.2l-49.6-34.5L-356.1-217.6z"/>
				</g>
				<g transform="matrix(1,0,0,1,348.805,198.514)">
					<path class="st2" d="M-356.1-215.6l-89,64l-80.3,4.3l-67.3-39.1l42.3,82l-46.5,8.9l6.5,13.1c97.1,4.5,194.1,8.9,291.1,13.4
						l18.4-41.9l-10.6-7.3l-7,1.2l7-1.2l-49.6-34.5L-356.1-215.6z"/>
					<path class="st2" d="M-356.1-215.6l-89,64l-80.3,4.3l-67.3-39.1l42.3,82l-46.5,8.9l6.5,13.1c97.1,4.5,194.1,8.9,291.1,13.4
						l18.4-41.9l-10.6-7.3l-7,1.2l7-1.2l-49.6-34.5L-356.1-215.6z"/>
				</g>
				<g transform="matrix(1,0,0,1,348.805,198.519)">
					<path class="st3" d="M-356.1-215.6l-89,64l-80.3,4.3l-67.3-39.1l42.3,82l-46.5,8.9l6.5,13.1l291.1,13.4l18.4-41.9l-10.6-7.3
						l-49.6-34.5L-356.1-215.6z"/>
				</g>
				<g transform="matrix(1,0,0,1,422.517,187.753)">
					<path class="st6" d="M-431.7-164.8l-10.1-0.3l-15.5,36.6l-4.7,1.2l-0.3,5.5l19,0.9l0.3-5.5l-4.8-1.7l1.8-4.6l14,0.6l1.3,4.8
						l-4.8,1.2l-0.3,5.5l20,0.9l0.3-5.5l-4.3-1.6L-431.7-164.8z M-443.5-139.3l5.7-14.7l4,15.1L-443.5-139.3z"/>
				</g>
				<g transform="matrix(1,0,0,1,463.349,201.774)">
					<path class="st6" d="M-437.6-139.4c-2.1-0.1-3.7-0.3-4.6-0.7l0.3-6.5l-9-6.2l-0.9,18.8l1.7,0.5c1.1,0.3,2.7,0.6,4.9,0.9
						c2.1,0.3,4.2,0.5,6.3,0.6c5.4,0.3,9.7-0.9,12.9-3.5l-7.2-5C-434.3-139.7-435.8-139.3-437.6-139.4z"/>
				</g>
				<g transform="matrix(1,0,0,1,343.017,282.994)">
					<path class="st0" d="M-582.4-162.6l14.3,28.6c86.9,4,173.8,8,260.7,12l12.1-27.4C-391-153.8-486.7-158.2-582.4-162.6z"/>
				</g>
				<g transform="matrix(1,0,0,1,348.805,200.573)">
					<path class="st2" d="M-356.1-217.6l-89,64l-80.3,4.3l-67.3-39.1l42.3,82l-46.5,8.9l8.7,17.3c95.7,4.4,191.4,8.8,287.1,13.2
						l20.3-46.1l-10.6-7.3l-7,1.2l7-1.2l-49.6-34.5L-356.1-217.6z"/>
				</g>
				<g transform="matrix(1,0,0,1,348.805,198.514)">
					<path class="st2" d="M-356.1-215.6l-89,64l-80.3,4.3l-67.3-39.1l42.3,82l-46.5,8.9l6.5,13.1c97.1,4.5,194.1,8.9,291.1,13.4
						l18.4-41.9l-10.6-7.3l-7,1.2l7-1.2l-49.6-34.5L-356.1-215.6z"/>
					<path class="st2" d="M-356.1-215.6l-89,64l-80.3,4.3l-67.3-39.1l42.3,82l-46.5,8.9l6.5,13.1c97.1,4.5,194.1,8.9,291.1,13.4
						l18.4-41.9l-10.6-7.3l-7,1.2l7-1.2l-49.6-34.5L-356.1-215.6z"/>
				</g>
				<g transform="matrix(1,0,0,1,348.805,198.519)">
					<path class="st3" d="M-356.1-215.6l-89,64l-80.3,4.3l-67.3-39.1l42.3,82l-46.5,8.9l6.5,13.1l291.1,13.4l18.4-41.9l-10.6-7.3
						l-49.6-34.5L-356.1-215.6z"/>
				</g>
				<g transform="matrix(1,0,0,1,422.517,187.753)">
					<path class="st6" d="M-431.7-164.8l-10.1-0.3l-15.5,36.6l-4.7,1.2l-0.3,5.5l19,0.9l0.3-5.5l-4.8-1.7l1.8-4.6l14,0.6l1.3,4.8
						l-4.8,1.2l-0.3,5.5l20,0.9l0.3-5.5l-4.3-1.6L-431.7-164.8z M-443.5-139.3l5.7-14.7l4,15.1L-443.5-139.3z"/>
				</g>
				<g transform="matrix(1,0,0,1,463.349,201.774)">
					<path class="st6" d="M-437.6-139.4c-2.1-0.1-3.7-0.3-4.6-0.7l0.3-6.5l-9-6.2l-0.9,18.8l1.7,0.5c1.1,0.3,2.7,0.6,4.9,0.9
						c2.1,0.3,4.2,0.5,6.3,0.6c5.4,0.3,9.7-0.9,12.9-3.5l-7.2-5C-434.3-139.7-435.8-139.3-437.6-139.4z"/>
				</g>
				<g transform="matrix(1,0,0,1,348.567,213.635)">
					<path class="st4" d="M-355.9-230.7l15.1,62.8l49.6,34.5l10.6,7.3l-20.2,46.1l-12.1,27.4c-86.9-4-173.8-8-260.7-12L-588-93.3
						l-2.1-4.3l-6.5-13.1l46.5-8.9l-42.3-82l67.3,39.1l80.3-4.3L-355.9-230.7z M-354.6-234.1l-2.4,1.7l-88.6,63.6l-79.1,4.3
						l-66.8-38.8l-5.9-3.4l3.1,6.1l41.1,79.6l-43.8,8.4l-2.6,0.5l1.2,2.4l6.5,13.1l2.1,4.3l14.3,28.6l0.5,1l1.2,0.1l131.1,6l129.7,6
						l1.4,0.1l0.6-1.3l12.1-27.4l20.3-46.1l0.7-1.5l-1.4-0.9l-10.6-7.3l-49-34l-15-62L-354.6-234.1z"/>
				</g>
			</g>
			<g transform="matrix(0.9988044315542833,-0.04888463467721667,0.04888463467721667,0.9988044315542833,-14.4,9.318)">
				<g transform="matrix(1,0,0,1,278.953,63.529)">
					<path class="st5" d="M-535.7-162.5l5.8,28.3h0c47.8,2.5,95.6,5,143.3,7.5l46-25.6C-405.6-155.7-470.6-159.1-535.7-162.5z"/>
				</g>
				<g transform="matrix(1,0,0,1,255.181,127.378)">
					<path class="st2" d="M-352.8-95l-42.4-31.3l-11.9-39.7l44.4-24.7c-47.8-2.5-95.6-5-143.3-7.5l-17.3,34.1l23.3,33.3l67,39.6
						L-352.8-95z"/>
				</g>
				<g transform="matrix(1,0,0,1,255.181,129.585)">
					<path class="st2" d="M-352.8-97.2l-42.4-31.3l-11.9-39.7l36.9-20.5c-46-2.4-92.1-4.8-138.1-7.2l-15.1,29.7l23.3,33.3l67,39.6
						L-352.8-97.2z"/>
					<path class="st2" d="M-352.8-97.2l-42.4-31.3l-11.9-39.7l36.9-20.5c-46-2.4-92.1-4.8-138.1-7.2l-15.1,29.7l23.3,33.3l67,39.6
						L-352.8-97.2z"/>
				</g>
				<g transform="matrix(1,0,0,1,255.181,129.577)">
					<path class="st3" d="M-352.8-97.2l-42.4-31.3l-11.9-39.7l36.9-20.5l-138.1-7.2l-15.1,29.7l23.3,33.3l67,39.6L-352.8-97.2z"/>
				</g>
				<g transform="matrix(1,0,0,1,275.574,113.176)">
					<path class="st4" d="M-532.3-212.2c65.1,3.4,130.1,6.8,195.2,10.2l-46,25.6l-7.4,4.1l-36.9,20.5l11.9,39.7l42.4,31.3l-80.3,3.8
						l-67-39.6l-23.3-33.3l17.3-34.1h0L-532.3-212.2z M-534.8-214.3l0.5,2.5l5.7,27.6l-17,33.5l-0.5,1.1l0.7,1l23.3,33.3l0.2,0.4
						l0.4,0.2l67,39.6l0.5,0.3l0.6,0l80.3-3.8l5.6-0.3l-4.5-3.3l-41.9-30.9l-11.3-37.5l35.5-19.7l7.4-4.1l46.1-25.6l6.1-3.4l-7-0.4
						l-100-5.2l-95.2-5L-534.8-214.3z"/>
				</g>
			</g>
			<g transform="matrix(0.9964046856445924,-0.08472132214207345,0.08472132214207345,0.9964046856445924,-11.859,3.388)">
				<g transform="matrix(1,0,0,1,112.972,272.196)">
					<path class="st0" d="M-507.3-181.2c-9,16.4,1.2,15,13.1,29.2c48.4,4.2,96.8,8.4,145.2,12.6l-13.1-29.2
						C-410.5-172.8-458.9-177-507.3-181.2z"/>
				</g>
				<g transform="matrix(1,0,0,1,130.397,194.987)">
					<path class="st2" d="M-340.7-116l-38.9-83.7l-96.8-29.5l-39.6,66.6c-1.2,19.7-3.5,39.3-8.5,58.7l145,12.6l-8-17.7L-340.7-116z"
						/>
				</g>
				<g transform="matrix(1,0,0,1,133.667,192.795)">
					<path class="st2" d="M-344-113.8l-38.9-83.7l-96.8-29.5l-36.3,61.1c-1.8,20.2-3.5,40.3-5.2,60.5c45.5,3.9,91,7.9,136.5,11.8
						l-6-13.3L-344-113.8z"/>
					<path class="st2" d="M-344-113.8l-38.9-83.7l-96.8-29.5l-36.3,61.1c-1.8,20.2-3.5,40.3-5.2,60.5c45.5,3.9,91,7.9,136.5,11.8
						l-6-13.3L-344-113.8z"/>
				</g>
				<g transform="matrix(1,0,0,1,133.667,192.801)">
					<path class="st3" d="M-344-113.8l-38.9-83.7l-96.8-29.5l-36.3,61.1l-5.3,60.5l136.5,11.8l-6-13.3L-344-113.8z"/>
				</g>
				<g transform="matrix(1,0,0,1,127.279,209.538)">
					<path class="st4" d="M-473.4-243.7l96.8,29.5l38.9,83.7l-46.8,7l6,13.3l2,4.4l13.1,29.2c-48.4-4.2-96.8-8.4-145.2-12.6
						c-11.9-14.2-22.1-12.8-13.1-29.2c0.1,0,0.1,0,0.2,0c5-19.4,7.3-39,8.5-58.7L-473.4-243.7z M-474.3-246.1l-0.8,1.4l-39.6,66.6
						l-0.2,0.4l0,0.5c-1.4,22.7-4,40.9-8.2,57.4l-0.2,0.4c-6.8,12.4-3.3,16.2,4,22.4c2.7,2.2,6,5,9.4,9.1l0.5,0.6l0.8,0.1l64.8,5.6
						l80.4,7l3.4,0.3l-1.4-3.1l-13.1-29.2l-2-4.4l-4.9-10.9l44.2-6.6l2.6-0.4l-1.1-2.4l-38.9-83.7l-0.4-0.8l-0.9-0.3l-96.8-29.5
						L-474.3-246.1z"/>
				</g>
			</g>
			<g transform="matrix(0.9995650226315503,0.029491787527855154,-0.029491787527855154,0.9995650226315503,5.929,6.777)">
				<g transform="matrix(1,0,0,1,104.449,49.605)">
					<path class="st5" d="M-390.8-125.5c-40.6,1.2-81.3,2.3-121.9,3.5c-0.7,2.2,5,13.7,8.5,13.6c-4.3,6.8-2.8,6.6-3.2,14.2
						c41.6-1.2,83.1-2.4,124.7-3.5h0L-390.8-125.5z"/>
				</g>
				<g transform="matrix(1,0,0,1,111.525,121.279)">
					<path class="st2" d="M-378.4-102.8l-25.9-31.3l14.5-35.4l-125.3,3.5c-2.6,38.7,3.5,77.1,5.5,115.6L-478-121L-378.4-102.8z"/>
				</g>
				<g transform="matrix(1,0,0,1,115.427,120.638)">
					<path class="st2" d="M-382.3-102.2l-25.9-31.3l12.6-30.8c-39.4,1.1-78.9,2.2-118.3,3.3c1,35.4,2,70.4,3,105.3l29-64.8
						L-382.3-102.2z"/>
					<path class="st2" d="M-382.3-102.2l-25.9-31.3l12.6-30.8c-39.4,1.1-78.9,2.2-118.3,3.3c1,35.4,2,70.4,3,105.3l29-64.8
						L-382.3-102.2z"/>
				</g>
				<g transform="matrix(1,0,0,1,115.427,120.63)">
					<path class="st3" d="M-382.3-102.2l-25.9-31.3l12.6-30.8l-118.3,3.3l3,105.4l29-64.8L-382.3-102.2z"/>
				</g>
				<g transform="matrix(1,0,0,1,111.629,110.572)">
					<path class="st4" d="M-398-186.5l8.1,27.7l-14.5,35.4l25.9,31.3l-99.6-18.2l-29,64.8l-2.6,5.9c-2.1-38.5-8.2-76.9-5.5-115.6
						c0.2,0,0.4,0,0.7,0c0.4-7.6-1.1-7.4,3.2-14.2c0,0,0,0,0,0c-3.5,0-9.2-11.5-8.5-13.6C-479.3-184.2-438.6-185.3-398-186.5z
						 M-396.5-188.5l-1.5,0l-67.8,1.9L-520-185l-1.4,0l-0.5,1.3c-0.9,2.7,2.5,9.1,4.5,11.9c1,1.5,2,2.6,3,3.3
						c-2.2,3.8-2.3,5.4-2.2,8.8c0,0.7,0,1.5,0,2.5l-0.6,0l-0.1,1.8c-1.8,26.6,0.5,53.4,2.8,79.4c1,12,2.1,24.3,2.8,36.5l0.4,8.3
						l3.4-7.5l2.6-5.9l28.4-63.4l98,17.9l5.4,1l-3.5-4.2l-25.1-30.4L-388-158l0.3-0.6l-0.2-0.7L-396-187L-396.5-188.5z"/>
				</g>
			</g>
		</g>
		<g transform="matrix(1,0,0,1,1075,300)">
			<g transform="matrix(0.9998476951563913,-0.01745240643728351,0.01745240643728351,0.9998476951563913,-13,5)">
				<path class="st7" d="M-279.3-163.1c-8,2.8-6.5,12,3,10.5c1.6-0.3,36.6-8.5,66-17.2c50.4-15,95.4-27.1,113.3-33.7
					c1.7-0.6-1,70.6,2.4,72.3c1.4,0.7,36.6,39.7,42.3,40.2c1.1,0.1,48.5-85.7,58-109.3c0.4-1.1,16.7,12.6,17.4,12.2
					c7-3.6-15.7-17.6-15.9-17.9c0-0.1-0.8-7.5-8.1,8.8c-23.4,52.7-51.2,102.4-56.3,96c-8.3-10.4-33.3-35.4-33.1-36.9
					c0.7-8.2-0.3-22.2-0.3-35.5c0.1-17.4,1.7-33.8,1.8-34.1c2.4-8.9-74.1,14.1-91,20.9C-211.1-174.4-277.5-163.8-279.3-163.1z"/>
				<path class="st8" d="M-279.3-163.1c-8,2.8-6.5,12,3,10.5c1.6-0.3,36.6-8.5,66-17.2c50.4-15,95.4-27.1,113.3-33.7
					c1.7-0.6-1,70.6,2.4,72.3c1.4,0.7,36.6,39.7,42.3,40.2c1.1,0.1,48.5-85.7,58-109.3c0.4-1.1,16.7,12.6,17.4,12.2
					c7-3.6-15.7-17.6-15.9-17.9c0-0.1-0.8-7.5-8.1,8.8c-23.4,52.7-51.2,102.4-56.3,96c-8.3-10.4-33.3-35.4-33.1-36.9
					c0.7-8.2-0.3-22.2-0.3-35.5c0.1-17.4,1.7-33.8,1.8-34.1c2.4-8.9-74.1,14.1-91,20.9C-211.1-174.4-277.5-163.8-279.3-163.1z"/>
			</g>
			<g transform="matrix(0.9998476951563913,0.01745240643728351,-0.01745240643728351,0.9998476951563913,-12,-12)">
				<path class="st7" d="M-296.1-273.3c-0.8,1.7-9.7,23.9-12.7,37.9c-0.5,2.3-52.6,36.5-49.7,43.9c0.1,0.3,17.7,10.9,31.4,28
					c6.1,7.6,42.2,42.5,59.4,56.9c0.7,0.6-26.4,13.9-54,27.3c-35.1,17.1-82.3,32.2-67.5,36.8c0.2,0,12.7,16.8,14.5,20.9
					c2.4,5.5,17.4,29.7,18.9,24c1.5-5.8-25.7-47.7-24-48.4c29.8-12.8,119.2-56.1,119.6-56.3c6.8-4.3-11-12.3-25.5-29.4
					c-9.9-11.6-65.1-62.8-64-63.5c14.1-8.9,40.2-29.7,40.9-29.2c1.4,1.1,17.4-42.4,19-46.5C-286.6-278.8-293.9-278.1-296.1-273.3z"
					/>
				<path class="st9" d="M-296.1-273.3c-0.8,1.7-9.7,23.9-12.7,37.9c-0.5,2.3-52.6,36.5-49.7,43.9c0.1,0.3,17.7,10.9,31.4,28
					c6.1,7.6,42.2,42.5,59.4,56.9c0.7,0.6-26.4,13.9-54,27.3c-35.1,17.1-82.3,32.2-67.5,36.8c0.2,0,12.7,16.8,14.5,20.9
					c2.4,5.5,17.4,29.7,18.9,24c1.5-5.8-25.7-47.7-24-48.4c29.8-12.8,119.2-56.1,119.6-56.3c6.8-4.3-11-12.3-25.5-29.4
					c-9.9-11.6-65.1-62.8-64-63.5c14.1-8.9,40.2-29.7,40.9-29.2c1.4,1.1,17.4-42.4,19-46.5C-286.6-278.8-293.9-278.1-296.1-273.3z"
					/>
			</g>
			<g transform="matrix(0.9993908270190958,-0.03489949670250097,0.03489949670250097,0.9993908270190958,-9,-10)">
				<path class="st7" d="M-528.8-132.5c-7.5,4.3-4.3,11,2.8,7.5c1-0.5,17.6-2.8,39.8-7.1c17.3-3.3,50.2-10.9,65-12.9
					c28.9-3.8,49.6-8.6,45.1-10.6c-0.4-0.2-63.7-56-85.7-69.5c-1.5-0.9,45.2-28.7,45.1-29.9c0-1.3-7.1-43.1-11.6-43.2
					c-1,0,6.8,41.8,5.5,42.3c-13.8,4.7-46.2,27.8-46.4,28.4c-1,3.6,87.6,71.9,86.5,72c-16.8,1.7-59.7,9.8-81.8,13
					C-479.7-140.3-527-133.5-528.8-132.5z"/>
				<path class="st9" d="M-528.8-132.5c-7.5,4.3-4.3,11,2.8,7.5c1-0.5,17.6-2.8,39.8-7.1c17.3-3.3,50.2-10.9,65-12.9
					c28.9-3.8,49.6-8.6,45.1-10.6c-0.4-0.2-63.7-56-85.7-69.5c-1.5-0.9,45.2-28.7,45.1-29.9c0-1.3-7.1-43.1-11.6-43.2
					c-1,0,6.8,41.8,5.5,42.3c-13.8,4.7-46.2,27.8-46.4,28.4c-1,3.6,87.6,71.9,86.5,72c-16.8,1.7-59.7,9.8-81.8,13
					C-479.7-140.3-527-133.5-528.8-132.5z"/>
			</g>
			<g transform="matrix(0.9941509639723154,-0.10799935570602284,0.10799935570602284,0.9941509639723154,-17.4,-46.399)">
				<path class="st7" d="M-695.1-182.6c-4.8,2.8-0.3,12,4.5,8.5c1.8-1.3,18.7-14.4,22-17.4c9.3-8.6,64.5-39.6,78.7-52.3
					c1.4-1.2,9,48.7,13.6,66.2c0.4,1.4,3.4,11.7,8.5,14.1c4.2,2,41.8,34.7,57.8,44.7c1.3,0.8-42,80.3-39.6,88.7
					c0.5,1.6,25.9-51.1,38.1-74.4c3.3-6.3,8.5-11.7,8.6-11.8c1.8-3.2-69.8-58.2-69.8-60.8c0.1-18.2-13.3-73.4-13.9-73.8
					c-5.2-3.1-48.1,31.9-49.9,32.4C-639.7-217.7-693.6-183.5-695.1-182.6z"/>
				<path class="st9" d="M-695.1-182.6c-4.8,2.8-0.3,12,4.5,8.5c1.8-1.3,18.7-14.4,22-17.4c9.3-8.6,64.5-39.6,78.7-52.3
					c1.4-1.2,9,48.7,13.6,66.2c0.4,1.4,3.4,11.7,8.5,14.1c4.2,2,41.8,34.7,57.8,44.7c1.3,0.8-42,80.3-39.6,88.7
					c0.5,1.6,25.9-51.1,38.1-74.4c3.3-6.3,8.5-11.7,8.6-11.8c1.8-3.2-69.8-58.2-69.8-60.8c0.1-18.2-13.3-73.4-13.9-73.8
					c-5.2-3.1-48.1,31.9-49.9,32.4C-639.7-217.7-693.6-183.5-695.1-182.6z"/>
			</g>
			<g transform="matrix(0.9998476951563913,0.01745240643728351,-0.01745240643728351,0.9998476951563913,-4,-8)">
				<path class="st7" d="M-903.4-165.1c-1.9,2.7-0.8,6.8,1,8.6c0.4,0.4,12.8,29.1,16.7,32.9c4.4,4.2,23.8,43.5,32.1,53.9
					c1,1.3-58.3,18.5-48.8,22.9c0.3,0.2,21.2,53.2,27.1,51.9c7.4-1.7-21.8-52.7-20.6-53c14.6-3.8,48.3-15,48.4-15.2
					c1.8-2.2-24.5-41.6-25.5-47.7c-1-6-24.9-48.6-25-49.4C-898.3-164-901.2-168.1-903.4-165.1z"/>
				<path class="st9" d="M-903.4-165.1c-1.9,2.7-0.8,6.8,1,8.6c0.4,0.4,12.8,29.1,16.7,32.9c4.4,4.2,23.8,43.5,32.1,53.9
					c1,1.3-58.3,18.5-48.8,22.9c0.3,0.2,21.2,53.2,27.1,51.9c7.4-1.7-21.8-52.7-20.6-53c14.6-3.8,48.3-15,48.4-15.2
					c1.8-2.2-24.5-41.6-25.5-47.7c-1-6-24.9-48.6-25-49.4C-898.3-164-901.2-168.1-903.4-165.1z"/>
			</g>
			<g transform="matrix(0.9975640502598242,-0.0697564737441253,0.0697564737441253,0.9975640502598242,-8,-23)">
				<path class="st7" d="M-884-225.5c-5.5-3.2-7.3,5-2.3,8.5c1.1,0.8,35.2,18.7,39.2,22.4c3.9,3.6,21.5,13.2,32.3,17.9
					c2,10.2,105.3,4,104.9-2.1c0-0.7-36-31-47.2-37.7c-1.1-0.7-9.8-30-15.3-41.2c-0.4-0.7,61.1-34.7,71.5-40.1
					c10.4-5.4,37.1-22.4,38.1-25.1c0.9-2.3-62.3,35.5-72.3,38.2c-10,2.7-40.4,22.7-40.6,22.7c-3.7,0.5,13,45.3,14.1,47.1
					c5.2,8.8,43.2,33.9,41.3,33.8c-25.4-1.2-88.4,3.6-90.1,2.3c-11.4-8.9-42.4-27.1-46.4-28.5C-861.5-209-882.9-224.9-884-225.5z"/>
				<path class="st9" d="M-884-225.5c-5.5-3.2-7.3,5-2.3,8.5c1.1,0.8,35.2,18.7,39.2,22.4c3.9,3.6,21.5,13.2,32.3,17.9
					c2,10.2,105.3,4,104.9-2.1c0-0.7-36-31-47.2-37.7c-1.1-0.7-9.8-30-15.3-41.2c-0.4-0.7,61.1-34.7,71.5-40.1
					c10.4-5.4,37.1-22.4,38.1-25.1c0.9-2.3-62.3,35.5-72.3,38.2c-10,2.7-40.4,22.7-40.6,22.7c-3.7,0.5,13,45.3,14.1,47.1
					c5.2,8.8,43.2,33.9,41.3,33.8c-25.4-1.2-88.4,3.6-90.1,2.3c-11.4-8.9-42.4-27.1-46.4-28.5C-861.5-209-882.9-224.9-884-225.5z"/>
			</g>
			<g transform="matrix(0.9998476951563913,0.01745240643728351,-0.01745240643728351,0.9998476951563913,1,19)">
				<path class="st7" d="M-1072.9-120.6c3.2,1.1,14.2-20.4,17-33.5c0.3-1.4,16.2-31.5,19.4-42.1c0.5-1.8,6.4-9.6,12.1-5.5
					c5.7,4.1,116.9,18.9,116.9,18.3c-0.1-0.8-21.3-33.7-31.2-43.1c-0.8-0.8,13.1-27.5,14.6-36.9c0.3-2.1-6.4-37.3-9.6-34.9
					c-3.3,2.4,8,32.2,7.4,33.2c-4,7.2-16.9,36.1-17.1,36.8c-0.3,0.7,30.2,41,29.4,40.8c-24.7-9.1-111.7-20.6-112.2-21.6
					c-4-7.6-11.7,8.9-12.6,9.8c-5.9,6-16.8,36.6-17.6,35.9C-1063.4-147.6-1079.3-122.8-1072.9-120.6z"/>
				<path class="st9" d="M-1072.9-120.6c3.2,1.1,14.2-20.4,17-33.5c0.3-1.4,16.2-31.5,19.4-42.1c0.5-1.8,6.4-9.6,12.1-5.5
					c5.7,4.1,116.9,18.9,116.9,18.3c-0.1-0.8-21.3-33.7-31.2-43.1c-0.8-0.8,13.1-27.5,14.6-36.9c0.3-2.1-6.4-37.3-9.6-34.9
					c-3.3,2.4,8,32.2,7.4,33.2c-4,7.2-16.9,36.1-17.1,36.8c-0.3,0.7,30.2,41,29.4,40.8c-24.7-9.1-111.7-20.6-112.2-21.6
					c-4-7.6-11.7,8.9-12.6,9.8c-5.9,6-16.8,36.6-17.6,35.9C-1063.4-147.6-1079.3-122.8-1072.9-120.6z"/>
			</g>
		</g>
	</g>
</g>
</svg>
