<svg id="Layer_1" data-name="Layer 1" xmlns="http://www.w3.org/2000/svg" viewBox="0 0 800 800"><defs><style>.cls-1{fill:red;}.cls-2{fill:#ffffe5;}.cls-3{fill:#bfbfac;}.cls-4{fill:#fcee21;}.cls-5{fill:#bdb319;}</style></defs><title>Vandalism</title><path class="cls-1" d="M199.51,302.81c-27.46-20.26-32.82-1.16-46.32,24-5,9.29-45.63,77.22-36.22,83.55,10.8,7.27,45.08-48.36,51.86-56C175.73,346.56,217,315.73,199.51,302.81ZM180.19,302c8.89.64-4.58,4.23-3.72,5.16A12.9,12.9,0,0,1,180.19,302Zm-21.1,38.48L155.42,346Q157.58,336.08,159.09,340.48ZM189.94,319a21.41,21.41,0,0,1-9.63,9.39c1.9-2.86,7.7-9,3.29-12.78C186,313.17,190.73,315.65,189.94,319Z"/><path class="cls-1" d="M142.71,253.77c-9.54-30.92-48.3,14.1-56.42,22-10.53,10.27-58.81,50.08-55.79,65.42,2.22,11.3,58.64-32.52,66.38-38C110.15,293.81,149.33,275.21,142.71,253.77Zm-14.39,12.31a85.93,85.93,0,0,1-16.44,13.06c1.63-1.47,18.46-24.45,20.27-22.3A11.13,11.13,0,0,1,128.32,266.09Z"/><path class="cls-1" d="M188.23,69.28c-.51-.26-12.93-3.89-13.18-4.86,17.47-3.35,5.27-9.39-3.65-10.63-16.81-2.34-38,2.21-55.74,1-11.2-.75-80.83-10.38-78.18,10.06,2.08,16.05,65.85,15.42,77.41,16.57,16.63,1.65,35.13,6.46,51.72,5.16C171.45,86.21,202.62,76.68,188.23,69.28Zm-28.85,5.84a81.37,81.37,0,0,1,13,.54C168.2,76.23,163.39,75.65,159.38,75.12Z"/><path class="cls-1" d="M317.82,332.2c-.49-17.2-8.89-12.49-17.24-6.43-11.7,8.48-17.17,28.19-20.89,42.21-4.86,18.3-5.64,37.24-9.76,55.63-2.24,10-13.19,29-9.77,38.6,9.25,25.9,21.31-39.52,24.9-50.47a240.33,240.33,0,0,1,20-44.54C308.12,361.74,331.2,333.2,317.82,332.2Z"/><path class="cls-1" d="M386.48,302.74c-7.29,3.86-77.52,43.76-62,50.12,8.61,3.54,32.63-20.09,40.68-25.11,4.08-2.54,25.52-10.87,26.89-15.52C393,309,396.24,297.57,386.48,302.74Z"/><path class="cls-2" d="M541.29,525.87c-27.57,5.35-46.81-33.67-72.23-27.05-26.32,6.85-1.5,39.69,5.36,53.83,9.51,19.61,27.65,44.7,25.62,67.74-2.49,28.19-33,33.14-51.37,15.25-13.4-13-10.24-53.87-23.05-60.36-15.74-8-18.25,42.33-19.75,51.55-3.32,20.38-9.08,43.86-28.44,55.08C356,694.29,341.49,684,336.33,661.79c-6.17-26.59-.13-50.28,6.08-75.87,10.65-43.95-11.12-15.49-37.74-16-23-.41-40.42-21.78-35.92-44.41,4.89-24.59,29.2-26.56,42.51-43.69,17.25-22.2-.74-48.71,9.17-70.62,10.7-23.65,34.91-11.3,42.6,8.13,7.33,18.54,7.23,40.65,32.48,20.92,9.74-7.61,33.92-51.12,47.68-17,10.42-13.7,12-37.57,25.22-48.28,15.53-12.61,32.27-.3,33.76,17.09,2.77,32.22-72.76,51-61.13,75.07,12.84,26.59,63.41-19,82.72-13.67S572.06,519.88,541.29,525.87Z"/><path class="cls-3" d="M541.36,526.21A30.17,30.17,0,0,1,525,524.65a67.69,67.69,0,0,1-14.48-7.87c-4.53-3.1-8.91-6.4-13.45-9.41a57.42,57.42,0,0,0-14.4-7.4,25.93,25.93,0,0,0-7.88-1.16,23.46,23.46,0,0,0-7.77,1.48,14.32,14.32,0,0,0-6.33,4.31,12,12,0,0,0-2.45,7.06,26,26,0,0,0,1.1,7.77,54.28,54.28,0,0,0,2.8,7.53,151.33,151.33,0,0,0,7.68,14.34c1.38,2.35,2.79,4.7,4.16,7.11.69,1.2,1.35,2.44,2,3.68l1.88,3.6c2.57,4.78,5.33,9.51,8,14.29,5.36,9.56,10.71,19.34,14.07,30.14A58.23,58.23,0,0,1,502.84,617,35.9,35.9,0,0,1,499,634.15a27.55,27.55,0,0,1-13.07,12.36,32,32,0,0,1-17.74,2.26,39,39,0,0,1-16.41-6.57c-1.23-.83-2.38-1.76-3.51-2.71L446.6,638c-.55-.55-1.11-1.15-1.64-1.75a32.32,32.32,0,0,1-4.6-7.83,89.64,89.64,0,0,1-4.78-16.32c-1.16-5.43-2.11-10.82-3.25-16.08-.56-2.63-1.17-5.23-1.92-7.72a31.6,31.6,0,0,0-2.84-6.89,10.83,10.83,0,0,0-2-2.54l-.54-.47-.57-.35a4.75,4.75,0,0,0-1.22-.54,2.75,2.75,0,0,0-2,.11,5.86,5.86,0,0,0-2.07,1.76,24.46,24.46,0,0,0-3.38,6.42,67.62,67.62,0,0,0-2.3,7.54c-1.29,5.17-2.2,10.51-3,15.87s-1.36,10.75-2.06,16.27c-.09.68-.2,1.44-.33,2.12l-.37,2c-.24,1.36-.51,2.71-.78,4.07-.54,2.71-1.14,5.42-1.83,8.12a103.76,103.76,0,0,1-5.28,15.89,62.27,62.27,0,0,1-8.62,14.53,45.43,45.43,0,0,1-12.9,11,48,48,0,0,1-7.7,3.56,30.64,30.64,0,0,1-8.41,1.78,22.41,22.41,0,0,1-8.64-1.08,21.46,21.46,0,0,1-7.5-4.4c-4.33-3.9-7.08-9.05-9-14.31a97.35,97.35,0,0,1-4.43-32.8,132.4,132.4,0,0,1,1.49-16.47c.79-5.45,1.83-10.85,3-16.22s2.45-10.7,3.73-16a106.51,106.51,0,0,0,3-16,27.39,27.39,0,0,0,0-3.92,8.13,8.13,0,0,0-.87-3.41,2.84,2.84,0,0,0-2.44-1.42A11.74,11.74,0,0,0,337,563a80.17,80.17,0,0,0-7.63,2.61c-2.56,1-5.15,1.94-7.79,2.81a53.52,53.52,0,0,1-16.54,3,39.07,39.07,0,0,1-16.57-3.74A39.39,39.39,0,0,1,267.24,542a39.06,39.06,0,0,1-.51-17.19A35.24,35.24,0,0,1,274,509.08a58.26,58.26,0,0,1,12.88-11.18c4.61-3.12,9.24-5.95,13.43-9.17a42.9,42.9,0,0,0,10.57-11.16,33.73,33.73,0,0,0,4.92-14.22,72,72,0,0,0-.11-15.75c-.49-5.37-1.23-10.84-1.48-16.5a50.09,50.09,0,0,1,1.86-17.32,36.72,36.72,0,0,1,1.61-4.2l1-2,1.14-2a24.29,24.29,0,0,1,6.32-6.94,18.79,18.79,0,0,1,9.13-3.54,20.77,20.77,0,0,1,4.88.06,24.6,24.6,0,0,1,4.62,1.12,29.85,29.85,0,0,1,8.1,4.33,38.93,38.93,0,0,1,6.53,6.16,41.86,41.86,0,0,1,5,7.39l1,2,.88,2.06c.52,1.33,1,2.66,1.48,4,1.85,5.29,3.25,10.66,5.19,15.33a24.53,24.53,0,0,0,1.6,3.23,10.15,10.15,0,0,0,1.88,2.4,4.63,4.63,0,0,0,2,1.1,5.7,5.7,0,0,0,2.58,0,20.18,20.18,0,0,0,6.33-2.71l1.6-1,1.58-1.1c.53-.36,1-.77,1.57-1.16l.78-.59.39-.29.3-.26a28.24,28.24,0,0,0,2.54-2.56c.86-1,1.73-2,2.59-3l5.25-6.32A97.42,97.42,0,0,1,415.8,413a31.6,31.6,0,0,1,7.84-5,16,16,0,0,1,2.41-.82l1.28-.32,1.36-.16a13.73,13.73,0,0,1,2.8,0,9.25,9.25,0,0,1,1.41.26,10.87,10.87,0,0,1,1.38.37,16.47,16.47,0,0,1,6.53,4.55,20.09,20.09,0,0,1,1.53,1.9l1.32,2,1.09,2a19.86,19.86,0,0,1,1,2l.9,2L440.2,421a48.94,48.94,0,0,0,5.44-9.73c1.55-3.52,2.9-7.23,4.29-11s2.82-7.61,4.51-11.44a54,54,0,0,1,6.39-11.19c.67-.88,1.45-1.71,2.18-2.57a11.6,11.6,0,0,1,1.21-1.2l1.27-1.16a28.7,28.7,0,0,1,5.66-3.86,22.06,22.06,0,0,1,13.94-2.31,22.93,22.93,0,0,1,12.36,6.68,29.17,29.17,0,0,1,6.87,11.74,30.85,30.85,0,0,1,1.28,6.63,23.86,23.86,0,0,1-.42,7,31,31,0,0,1-5.79,12.1,62.78,62.78,0,0,1-8.73,9.24,123.15,123.15,0,0,1-9.7,7.65c-6.62,4.77-13.42,9.09-20,13.63-3.25,2.27-6.45,4.59-9.42,7.08a35.92,35.92,0,0,0-7.56,8.2c-1.85,3-2.42,6.26-1,9.32a11.71,11.71,0,0,0,7,6.9c3.27,1.11,7.13.92,10.89.22a69.84,69.84,0,0,0,11.25-3.27c7.43-2.76,14.68-6.22,22-9.5,3.68-1.64,7.39-3.25,11.19-4.69a53.86,53.86,0,0,1,11.85-3.25,17.59,17.59,0,0,1,6.35.24,17.38,17.38,0,0,1,5.69,2.77,44.43,44.43,0,0,1,8.73,8.6,86.49,86.49,0,0,1,12.05,21,79.48,79.48,0,0,1,3.7,11.54,46.68,46.68,0,0,1,1.34,12.06A21,21,0,0,1,551.66,520,15.94,15.94,0,0,1,541.36,526.21Zm-.13-.69a15.19,15.19,0,0,0,9.8-6,20.22,20.22,0,0,0,3.24-11.18,45.81,45.81,0,0,0-1.4-11.82,71.51,71.51,0,0,0-3.8-11.34,85.21,85.21,0,0,0-12.21-20.48,40.92,40.92,0,0,0-8.56-8.08,13.47,13.47,0,0,0-10.77-2.41,51.8,51.8,0,0,0-11.26,3.41c-3.68,1.49-7.29,3.22-10.9,5-7.22,3.49-14.38,7.2-21.93,10.28a73.43,73.43,0,0,1-11.76,3.81c-4.07.87-8.5,1.34-13,0a15.16,15.16,0,0,1-6-3.48,17.79,17.79,0,0,1-4-5.6,14.49,14.49,0,0,1-1.1-3.42,13.47,13.47,0,0,1-.15-3.65,16.81,16.81,0,0,1,2.19-6.65,40.73,40.73,0,0,1,8.36-9.76,122,122,0,0,1,9.64-7.67c6.56-4.79,13.23-9.25,19.55-14s12.4-9.81,16.78-15.79a24.33,24.33,0,0,0,4.45-9.51,16.93,16.93,0,0,0,.23-5,25.24,25.24,0,0,0-1.07-5.17,22.14,22.14,0,0,0-5.23-8.86,15.79,15.79,0,0,0-8.51-4.59,14.82,14.82,0,0,0-9.4,1.68,21.53,21.53,0,0,0-4.24,3l-.95.88a7.43,7.43,0,0,0-.92.93c-.56.69-1.17,1.32-1.71,2a46.9,46.9,0,0,0-5.45,9.74c-1.54,3.53-2.89,7.24-4.26,11s-2.78,7.62-4.46,11.46a56.09,56.09,0,0,1-6.34,11.24l-3.81,5.06-2.63-5.92-.76-1.72a14.8,14.8,0,0,0-.81-1.67l-.87-1.6-1-1.44a10.2,10.2,0,0,0-4.44-3.78,7.51,7.51,0,0,0-5.35.49,24.45,24.45,0,0,0-6,3.81A95.18,95.18,0,0,0,409.6,430l-5.29,6.27c-.9,1.06-1.82,2.12-2.79,3.19a34.69,34.69,0,0,1-3.28,3.22l-.48.41-.43.32-.86.64c-.58.43-1.14.86-1.74,1.27l-1.8,1.23L391,447.76a26.89,26.89,0,0,1-8.75,3.55,12.75,12.75,0,0,1-5.56-.11,11.78,11.78,0,0,1-5.09-2.77,17,17,0,0,1-3.17-4,31.46,31.46,0,0,1-2-4.13c-2.2-5.47-3.5-10.76-5.23-15.8-.42-1.26-.87-2.5-1.34-3.72l-.72-1.72-.81-1.68a35.07,35.07,0,0,0-4.14-6.22,27.75,27.75,0,0,0-11.63-8.57,13.27,13.27,0,0,0-12.65,1.38c-3.63,2.54-6.26,7.14-7.8,11.79a44.69,44.69,0,0,0-1.72,15.15c.16,5.28.83,10.68,1.27,16.22a77.48,77.48,0,0,1-.11,17,39.46,39.46,0,0,1-6,16.45A48.3,48.3,0,0,1,303.47,493c-4.55,3.39-9.36,6.14-13.87,9.08a53.69,53.69,0,0,0-12.07,10,30.75,30.75,0,0,0-6.63,13.67,35,35,0,0,0,.14,15.38A35.44,35.44,0,0,0,277.82,555a35.73,35.73,0,0,0,27.24,13.48,50.71,50.71,0,0,0,15.69-2.57c2.58-.79,5.14-1.7,7.7-2.65a82,82,0,0,1,7.93-2.62,14,14,0,0,1,4.47-.48,5.84,5.84,0,0,1,2.45.76,5.2,5.2,0,0,1,1.84,1.89A7.65,7.65,0,0,1,346,565a14.22,14.22,0,0,1,.31,2.22,29.61,29.61,0,0,1-.09,4.28,75.14,75.14,0,0,1-1.29,8.24c-.54,2.7-1.19,5.39-1.84,8-1.3,5.32-2.6,10.63-3.77,16-2.35,10.65-4.23,21.43-4.42,32.28a107.31,107.31,0,0,0,.86,16.21l.62,4c.24,1.33.54,2.65.81,4a54.73,54.73,0,0,0,2.22,7.73c1.85,5,4.53,9.74,8.43,13.15A18.51,18.51,0,0,0,362,685.7c5.15-.43,10.12-2.58,14.67-5.28A42,42,0,0,0,388.39,670a58.45,58.45,0,0,0,7.77-13.82,100.11,100.11,0,0,0,4.71-15.36c.6-2.63,1.13-5.27,1.6-7.94.23-1.33.47-2.67.68-4l.32-2c.11-.67.18-1.27.26-1.95.57-5.36,1-10.88,1.71-16.35s1.49-11,2.73-16.46a73,73,0,0,1,2.31-8.21,28.53,28.53,0,0,1,4.15-8.09,11.57,11.57,0,0,1,4.17-3.46,8.33,8.33,0,0,1,3-.78,9.11,9.11,0,0,1,3,.3,10.49,10.49,0,0,1,2.55,1.06c.39.24.79.47,1.17.72l1,.85a16.69,16.69,0,0,1,3.13,3.85,37.3,37.3,0,0,1,3.54,8.2c.86,2.74,1.53,5.47,2.15,8.19,1.2,5.43,2.15,10.83,3.3,16.1a84,84,0,0,0,4.45,15.15,26.22,26.22,0,0,0,3.68,6.28c.38.43.75.83,1.16,1.26l1.39,1.28c1,.81,1.93,1.61,3,2.33a32.82,32.82,0,0,0,13.75,5.65,26,26,0,0,0,14.42-1.68A21.7,21.7,0,0,0,494,631.47,30.45,30.45,0,0,0,497.49,617a55.12,55.12,0,0,0-2.21-15.45c-2.85-10.24-7.78-20-12.83-29.64-2.54-4.83-5.16-9.65-7.63-14.58L473,553.55c-.58-1.21-1.17-2.4-1.81-3.6-1.27-2.39-2.6-4.78-3.92-7.19a153.81,153.81,0,0,1-7.36-14.84,60.12,60.12,0,0,1-2.7-7.93,28,28,0,0,1-1-8.45,13.93,13.93,0,0,1,3.06-8.1,16,16,0,0,1,7.18-4.67,26,26,0,0,1,8.31-1.4,27.29,27.29,0,0,1,8.28,1.35,58.51,58.51,0,0,1,14.59,7.78c4.52,3.13,8.85,6.47,13.36,9.56a66.92,66.92,0,0,0,14.26,7.85A29.43,29.43,0,0,0,541.22,525.53Z"/><path class="cls-4" d="M436.56,508.54c-.12-52.32-92.42-35.58-74,10.4C376.07,552.77,436.66,548,436.56,508.54Z"/><path class="cls-5" d="M436.06,508.55a31.92,31.92,0,0,0-.79-6.86,24.61,24.61,0,0,0-2.51-6.34,24.08,24.08,0,0,0-9.25-9,43.21,43.21,0,0,0-11.7-4.32,66.53,66.53,0,0,0-12.6-1.59,59.5,59.5,0,0,0-13.12.86,34.42,34.42,0,0,0-12.46,4.82,25.18,25.18,0,0,0-8.9,9.74,20.57,20.57,0,0,0-1.85,12.55,29.24,29.24,0,0,0,1.74,6.09c.38,1,.85,1.94,1.32,2.9s1,1.82,1.52,2.72a32.33,32.33,0,0,0,8.27,8.9c6.61,4.76,14.94,7,23.21,7.18a47.74,47.74,0,0,0,12.36-1.26A42.75,42.75,0,0,0,423,530.52a26.16,26.16,0,0,0,9.45-8.9A25,25,0,0,0,436.06,508.55Zm1,0a43,43,0,0,1-2.11,14.2,34.32,34.32,0,0,1-1.36,3.46l-.8,1.71c-.26.58-.62,1.09-.94,1.65s-.65,1.1-1,1.64l-1.14,1.55a29,29,0,0,1-2.51,3,34.18,34.18,0,0,1-13,8.46,45.91,45.91,0,0,1-15.32,2.68,44.31,44.31,0,0,1-29-10.49,35.08,35.08,0,0,1-9.49-12.58c-.47-1.23-1-2.45-1.37-3.67s-.69-2.48-.93-3.75a33.24,33.24,0,0,1-.63-7.71,29.8,29.8,0,0,1,4.38-14.45,39.36,39.36,0,0,1,10-10.74A63.14,63.14,0,0,1,384.43,476a48.71,48.71,0,0,1,14.46-3.93,39.11,39.11,0,0,1,15.22,1.36,31.43,31.43,0,0,1,13.37,7.88,30.07,30.07,0,0,1,4.68,6.15,33.79,33.79,0,0,1,2.94,6.89,44.64,44.64,0,0,1,1.51,7.08A66.43,66.43,0,0,1,437.06,508.54Z"/></svg>