<?xml version="1.0" encoding="utf-8"?>
<!-- Generator: Adobe Illustrator 21.1.0, SVG Export Plug-In . SVG Version: 6.00 Build 0)  -->
<svg version="1.1" id="Layer_1" xmlns="http://www.w3.org/2000/svg" xmlns:xlink="http://www.w3.org/1999/xlink" x="0px" y="0px"
	 width="628.4px" height="628.7px" viewBox="0 0 628.4 628.7" enable-background="new 0 0 628.4 628.7" xml:space="preserve">
<title>GavelInventory</title>
<path fill="#FECB33" d="M428.4,75.6L552.8,200c-12.5,12.7-25,25.4-37.6,38c-28.9,28.9-57.8,57.7-86.7,86.5l-0.1-0.1
	c-13.1-12.8-26.3-25.4-39.3-38.3c-28.7-28.5-57.3-57-85.9-85.5l-0.1,0c0.8-0.9,1.5-1.8,2.4-2.6c39.8-39.8,79.6-79.6,119.4-119.4
	C426.1,77.5,427.3,76.6,428.4,75.6z M473.4,154.2l0.1-0.1c18.4,18.4,36.7,36.7,55.1,55.1c3.4,3.4,6,2.4,8.8-0.6s5.5-5.7,1.8-9.8
	c-3.1-3.5-6-7.1-9.3-10.5c-21.7-22.3-43.4-44.7-65.4-66.7c-10.9-10.9-22.6-21.1-34.1-31.5c-3-2.7-8.3-1-12.1,3.2
	c-3.1,3.4-0.3,5.4,1.8,7.5C437.8,118.6,455.6,136.4,473.4,154.2L473.4,154.2z"/>
<path fill="#986500" d="M291.4,372.5c-13.1,13.4-26.4,26.8-39.4,40.4c-24,25.2-47.7,50.5-71.6,75.8c-4.7,5-9.5,9.8-14.2,14.7
	c-1.8,1.1-3.5,2.4-5.1,3.8c-17.1,17.5-33.9,35.3-51.4,52.4c-13.8,13.4-28.2,26.3-43,38.7C58,605.3,48.5,611.6,37,614
	c-13.2,2.7-23.2-6.8-20.8-20.2c0.9-4.7,2.4-9.3,4.5-13.7c8.9-18.5,22.4-33.8,36.4-48.4c21.2-22.1,43.2-43.5,64.8-65.2
	c1.4-1.6,2.6-3.3,3.7-5.1c32.9-31.1,65.7-62.1,98.6-93.2c10.7-10.2,21-20.8,31.6-31.2L291.4,372.5z"/>
<path fill="#986501" d="M228.6,114.4c34.9-35,69.7-70,104.8-104.8C344.6-1.6,362.3-3,375.9,5.3c13,7.8,19.7,23.6,16,37.8
	c-1.3,0.7-2.8,1.1-3.8,2.1c-38.7,38.6-77.3,77.3-115.9,116l-0.7,0.5c-5.3-0.3-10.6-0.6-15.9-1c-8-0.6-16.3-1.1-22.6-6.6
	c-9.4-8-9.9-18.6-7-29.8C226.8,121,227.7,117.8,228.6,114.4z M317.1,35.2c1.5-1,3-1.9,4.6-2.7c7.7-3.4,15.3-7.3,23.3-10
	c5.8-2,12.2-1.2,17.3,2.4c7.2,4.9,9.3,12.1,7.4,20.2c-1.5,6.3-4,12.4-6.2,18.8c8.2-7.2,16.1-14.5,20.6-24.7c3-6.8,3.9-13.8-0.7-20
	c-8.4-11.3-23.9-21.5-41.7-8.2C332.5,18,325.1,27.2,317.1,35.2L317.1,35.2z"/>
<path fill="#986501" d="M585.4,236.6c12.9-3.5,27.3,1.8,36.1,13.4c8.5,11.6,9.1,27.2,1.5,39.4c-1.9,2.9-4.1,5.6-6.6,8.1
	c-32.1,32.2-64.2,64.3-96.3,96.4c-2,2-4.2,3.8-6.3,5.7c-5.1,1.2-10.2,3.4-15.3,3.5c-23.1,0.3-23.9-6.8-26-22.6
	c-1.1-8.2-3.2-16.2-4.8-24.3c0.1-0.2,0.3-0.5,0.4-0.7c37.9-37.9,75.8-75.8,113.7-113.7C583.2,240.2,584.4,238.4,585.4,236.6z
	 M560.6,271.2l0.5,0.8c1.6-1.1,3.3-2.1,5-2.9c6.8-2.6,13.4-6.1,20.5-7.5c11.1-2.1,20.1,4.7,21,16c0.5,6.3-1.1,12.8-2.3,19.1
	c-0.6,3.2-2.3,6.3-3.9,10.2c4.7-4.7,9.3-8.2,12.5-12.8c3.9-5.4,6.9-11.3,9-17.5c3.4-11.1-2.5-22.7-13.7-30.1
	c-8.3-5.4-17.3-4.9-26.6,3C574.7,256.1,567.8,263.9,560.6,271.2L560.6,271.2z"/>
<path fill="#734D00" d="M585.4,236.6c-1.1,1.8-2.3,3.5-3.6,5.1c-37.9,37.9-75.7,75.8-113.7,113.7c-1-1.9-2.1-3.8-3-5.7
	c-5.1-10.4-13.1-16.9-24.6-19c38.2-38.2,76.4-76.3,114.6-114.5c1.8-1.8,3.7-3.4,5.5-5C562.4,225.4,570.5,233.8,585.4,236.6z"/>
<path fill="#734D00" d="M272.2,161.1c38.6-38.7,77.3-77.3,115.9-116c1-1,2.5-1.4,3.8-2.1c2.5,14.6,11.2,23.2,25.3,24.9
	c-1.2,1.4-2.4,2.8-3.7,4.1c-37.4,37.4-74.8,74.8-112.2,112.2c-1.3,1.3-2.7,2.5-4,3.7C294.3,173.9,288.2,162.9,272.2,161.1z"/>
<path fill="#5C3E00" d="M125.8,461.5c-1.1,1.8-2.4,3.5-3.7,5.1c-21.6,21.7-43.6,43.1-64.8,65.2c-14,14.6-27.5,29.9-36.4,48.4
	c-2.1,4.3-3.6,8.9-4.5,13.7c-2.5,13.3,7.6,22.8,20.8,20.2c11.5-2.3,21-8.7,29.6-15.9c14.8-12.3,29.2-25.2,43-38.7
	c17.5-17.1,34.3-34.9,51.4-52.4c1.6-1.4,3.3-2.7,5.1-3.8c-0.6,1.1-1.4,2.2-2.2,3.3c-14.5,15.6-29,31.2-43.6,46.8
	c-12,12.9-23.4,26.5-36.3,38.5c-18.5,17.6-41.3,29.9-66.1,35.6c-15.9,3.7-20.4-0.8-16.9-16.6c4.9-22.3,14.7-42.7,29.8-59.7
	c13.3-15,28.6-28.3,43-42.2c6.8-6.6,13.9-12.9,20.9-19.3c9.3-8.6,18.4-17.3,27.7-26C123.5,462.8,124.6,462.1,125.8,461.5z"/>
<path fill="#986500" d="M297.3,187.8c1.4-1.2,2.8-2.4,4-3.7c37.4-37.4,74.8-74.8,112.2-112.2c1.3-1.3,2.5-2.7,3.7-4.1
	c2.1-2.1,4.4-3.4,7.3-1.4c3.2,2.2,5.2,4.9,3.8,9.1c-1.1,1-2.3,2-3.3,3c-39.8,39.8-79.6,79.6-119.4,119.4c-0.8,0.8-1.6,1.7-2.4,2.6
	l-6.3-12C297.1,188.3,297.2,188.1,297.3,187.8z"/>
<path fill="#986600" d="M560.6,211.2c-1.8,1.7-3.8,3.3-5.5,5c-38.2,38.2-76.4,76.3-114.6,114.5c-0.3,0.1-0.6,0.2-0.8,0.4l-11.1-6.6
	c28.9-28.8,57.8-57.7,86.7-86.5c12.6-12.6,25.1-25.3,37.6-38c4.2-1.2,7,0.8,9.2,4.1C564,207,562.6,209.2,560.6,211.2z"/>
<path fill="#724D00" d="M255.6,320.9c4.4-8.7,10.9-10.4,21.1-5.5l36.4,36.3c2.4,4.3,3.9,8.8,1.9,13.7c-1.5,3.7-3.8,6.5-8,7.2
	C284.2,360.9,266.7,344,255.6,320.9z"/>
<path fill="#724D00" d="M345.6,320.6c3.6,10.9,2.2,16-5.5,20c-25.3-10-42.9-29.1-52.3-52.3c4.1-7.6,9.1-9,20-5.5L345.6,320.6z"/>
<path fill="#986500" d="M345.6,320.6l-37.8-37.8l19-20.2l38.8,39L345.6,320.6z"/>
<path fill="#5B3D00" d="M467.7,356.2c1.6,8.1,3.8,16.1,4.8,24.3c2.1,15.9,2.9,22.9,26,22.6c5.1-0.1,10.2-2.3,15.3-3.5
	c-9.4,12.1-27.4,16-41.9,9.1s-23-23.4-19.6-37.6L467.7,356.2z"/>
<path fill="#5B3D00" d="M228.6,114.4c-0.9,3.3-1.8,6.6-2.7,9.9c-2.9,11.1-2.4,21.7,7,29.8c6.4,5.4,14.6,5.9,22.6,6.6
	c5.3,0.4,10.6,0.6,15.9,1l-13.5,14c-12.2,3.9-28.5-3-36.1-15.2C212.3,144.9,215.1,125.8,228.6,114.4z"/>
<path fill="#986500" d="M313,351.8l-36.3-36.3l10.4-10.7l36.1,35.8c0.2,0.2,0.3,0.5,0.5,0.7L313,351.8z"/>
<path fill="#452E00" d="M258,175.6l13.5-14l0.7-0.5c15.9,1.8,22,12.8,25.1,26.7c-0.1,0.3-0.3,0.5-0.4,0.8l-12.6,11.3
	c-2-9.6-6.4-17.5-15.8-21.5C265.2,177,261.5,176.5,258,175.6z"/>
<path fill="#452E00" d="M467.7,356.2l-15.3,14.9c-0.2-15.1-9.2-22.9-22.5-27.1c1.5-1.9,3-3.8,4.4-5.7c1.8-2.4,3.6-4.8,5.4-7.2
	c0.3-0.2,0.5-0.3,0.8-0.4c11.5,2.1,19.5,8.7,24.6,19c1,1.9,2,3.8,3,5.7C468,355.7,467.9,355.9,467.7,356.2z"/>
<path fill="#5E3F01" d="M365.7,301.5l-38.9-38.9l6.8-7.5l0.9-0.8l39.6,39.5l-0.8,0.8L365.7,301.5z"/>
<path fill="#5A4006" d="M373.3,294.8l0.8-0.8c1.6,1.1,3.2,2.3,4.6,3.6c11.5,11.5,23.1,22.9,34.5,34.5c3.1,3.2,5.2,3.3,8-0.1
	c2.2-2.7,4.8-5,7.3-7.5l0.1,0.1l11.2,6.6c-1.8,2.4-3.6,4.8-5.4,7.2c-1.5,1.9-2.9,3.8-4.4,5.7c-0.9,0.4-1.8,0.8-2.7,1.2
	c-4.9,2.6-9.5,0.6-11.3-4.5c-1-3-2.5-5.8-4.7-8.2C398.7,319.8,386,307.3,373.3,294.8z"/>
<path fill="#5A4006" d="M334.5,254.4l-0.9,0.8c-13.4-13.5-26.8-27.1-40.3-40.5c-1-1-2.9-1.5-4.4-1.9c-7-1.6-9-7-4.7-12.8l12.6-11.3
	l6.3,12h0.1c-2.1,2.1-4.1,4.4-6.5,6.2c-3.7,3-3.7,5.3-0.2,8.7c11.6,11.2,22.9,22.7,34.2,34.1C332.2,251.2,333.4,252.7,334.5,254.4z"
	/>
<path fill="#462F00" d="M287.8,288.3c10.8,24,28.2,41.4,52.3,52.3c-5,3-9.7,1.8-14.1-1.4l-36.1-36.1l-0.6-0.7
	C286,298,284.7,293.4,287.8,288.3z"/>
<path fill="#432D00" d="M255.6,320.9c11.2,23.1,29.6,39.4,51.3,51.8c-5,2.9-9.3,1.6-13.3-2.1l-36.1-36.2
	C253.6,330.4,253.3,325.8,255.6,320.9z"/>
<path fill="#5C3D00" d="M289.8,303.1l36.1,36.1l-1.5,1.4l-1.3-0.1l-36.1-35.8l1.5-1.5L289.8,303.1z"/>
<path fill="#5C3D00" d="M257.6,334.4l36.1,36.2l-2.2,1.9L255.9,337L257.6,334.4z"/>
<path fill="#724D00" d="M289.8,303.1h-1.2c0.2-0.3,0.4-0.5,0.6-0.7L289.8,303.1z"/>
<path fill="#724D00" d="M323.2,340.5l1.3,0.1l-0.8,0.7C323.5,341,323.3,340.8,323.2,340.5z"/>
<path fill="#FEF3D1" d="M473.4,154.2c-17.8-17.8-35.5-35.6-53.3-53.4c-2-2.1-4.9-4.1-1.8-7.5c3.8-4.2,9.1-5.9,12.1-3.2
	c11.5,10.4,23.2,20.6,34.1,31.5c22,22,43.7,44.4,65.4,66.7c3.3,3.3,6.2,7,9.3,10.5c3.7,4.1,1,6.9-1.8,9.8s-5.4,4-8.8,0.6
	c-18.3-18.4-36.7-36.8-55.1-55.1L473.4,154.2z"/>
<path fill="#997A20" d="M334.5,254.4c-1.1-1.6-2.3-3.2-3.5-4.7c-11.3-11.4-22.6-22.9-34.2-34.1c-3.5-3.4-3.5-5.8,0.2-8.7
	c2.3-1.9,4.3-4.1,6.5-6.2c28.6,28.5,57.3,57,85.9,85.5c13,12.9,26.2,25.5,39.3,38.3c-2.4,2.5-5,4.8-7.3,7.5c-2.8,3.3-4.9,3.3-8,0.1
	c-11.3-11.7-22.9-23.1-34.5-34.5c-1.5-1.3-3-2.5-4.6-3.6L334.5,254.4z"/>
<path fill="#E9DDC7" d="M317.1,35.2c8-8,15.4-17.3,24.6-24.2C359.5-2.2,375,8,383.4,19.3c4.6,6.2,3.7,13.2,0.7,20
	c-4.5,10.2-12.4,17.5-20.6,24.7c2.1-6.4,4.7-12.5,6.2-18.8c1.9-8.1-0.2-15.3-7.4-20.2c-5-3.5-11.5-4.4-17.3-2.4
	c-8,2.7-15.6,6.5-23.3,10C320.1,33.3,318.6,34.2,317.1,35.2z"/>
<path fill="#E8DDC7" d="M560.6,271.2c7.3-7.3,14.1-15.1,21.9-21.7c9.3-7.9,18.3-8.4,26.6-3c11.3,7.4,17.1,19,13.7,30.1
	c-2.1,6.3-5.1,12.2-9,17.5c-3.2,4.6-7.8,8.1-12.5,12.8c1.6-4,3.3-7,3.9-10.2c1.2-6.3,2.8-12.8,2.3-19.1c-0.9-11.3-9.9-18.1-21-16
	c-7,1.4-13.7,4.8-20.5,7.5c-1.8,0.8-3.4,1.8-5,2.9L560.6,271.2z"/>
</svg>
