<svg xmlns="http://www.w3.org/2000/svg" viewBox="0 0 826.21 1096.88"><defs><style>.cls-1{fill:#fc9;}.cls-2{fill:#bf9973;}.cls-3{fill:#80664d;}.cls-4{fill:#ffebd6;}.cls-5{fill:#ffe0c2;}.cls-6{fill:#ffd6ad;}</style></defs><title>Hand</title><g id="Frame_4" data-name="Frame 4"><path class="cls-1" d="M792.14,956c-17.84,39.95-43.14,76.86-75.45,106.49a264.13,264.13,0,0,1-25.58,20.76c-4.08,2.9-8.26,5.65-12.57,8.2-1.37.81-4.47,3.47-6.15,3.42-1.33,0-2.68-1.6-3.65-2.37-18.2-14.51-38.12-27.22-57.59-39.93s-39.35-25.07-59.33-37.12q-15.28-9.22-30.72-18.15c-5.15-3-10.32-5.87-15.49-8.78-4.92-2.78-9.84-5.93-15.34-7.44-10.66-2.92-22.54-4.24-33.33-1.56-11,2.74-19.67,7.59-28.6,14.43-8.54,6.54-19.83,7.73-30.19,9.23-5.25.76-10.51,1.42-15.8,1.76q-4.91.31-9.83.29c-2.73,0-5.76-.71-8.4.06-4.59,1.33-8.62,3.31-13.52,3.73a33.87,33.87,0,0,1-8-.24c-2.41-.37-5-1.86-7.38-1.72-4.42.26-8.92,1.94-13.45,2.26a53.91,53.91,0,0,1-16.66-1.15,33.24,33.24,0,0,1-6.53-2.25c-1.33-.64-2.47-1.7-4-1.74s-3.28,1.37-4.69,2a38.26,38.26,0,0,1-8.91,2.26,50.61,50.61,0,0,1-15.25-.12c-2.62-.38-3.29.38-5.34,1.78a73.36,73.36,0,0,1-8,4.51,504.17,504.17,0,0,1-63.82,27c-10.59,3.7-21.89,7.91-33.29,7.12-5.77-.4-10.89-2.58-16.41-4s-11.12-1-16.77-.88c-10.26.24-19.05-2.69-26.32-10.09-6.34-6.46-10.66-14.82-13.66-23.28-3.71-10.45-5.77-21.33-9.74-31.71a165.49,165.49,0,0,1-9.21-32.1c-.78-4.65-.91-9.47-1.73-14.07-.76-4.29-5.79-4.4-9.35-6-8.92-4.11-17-10-22.24-18.46-5.75-9.23-7.05-19.75-7.83-30.38a226.48,226.48,0,0,0-5.57-34.08c-2.56-11.23-4.78-22.47-4.14-34a130.9,130.9,0,0,1,6.34-33c.66-2,1.71-3.62.56-5.59s-3.52-3.64-5-5.36a53.49,53.49,0,0,1-8.92-13.89c-4-9.68-3.47-20.15-3.16-30.4a526.73,526.73,0,0,1,6.6-71.31c.85-5,1.76-10.22,3.77-15a152.7,152.7,0,0,1,8.2-15.48c1-1.8,3.74-4.85,4-6.83.22-1.51-.76-1.94-1.9-3.11A89,89,0,0,1,13.19,598c-6.53-9.36-10.55-19.82-10.85-31.3-.3-11.31,1.87-23.05,4.46-34a96.51,96.51,0,0,1,12.75-30.16Q29,487.42,39.55,473c12.83-17.59,25.73-35.27,45.94-44.75,18.56-8.71,39.76-11.43,60.09-11.4a70,70,0,0,1,15.07,1.38c5.69,1.26,10.95,3.78,16.41,5.73,10,3.58,22.41,2.64,32.91,2.51,3.22,0,6.45-.16,9.67-.17,2.14,0,5.54.68,7.48-.28,2.78-1.38,3-7.33,3.85-10.32,2.82-10.53,4.42-22.13,9.78-31.76,9.44-17,28.63-30.27,46.93-35.84,11.27-3.43,22.09-1.55,33.57-.83,12.08.76,24.16.49,36.25.19s24-.55,35.88,1.13c11.6,1.64,23,4.59,34.34,7.43,21.34,5.33,42.66,11.77,62.65,21,19.49,9,34.7,22.13,45.23,41,10.91,19.53,16.34,41.39,21.31,63,10.75,46.77,27.45,91.3,44.84,135.94l5.71,14.64c1.53,3.92,2.22,8.44,5.82,10.89,9.45,6.45,20.35,11.18,30.63,16.14,21.3,10.28,42.9,19.93,64.52,29.53q33.25,14.76,66.69,29.12,16.36,7,32.76,14c2.27,1,4.52,2,6.83,2.86,1.72.63,4.29,1,5.63,2.31,1.5,1.49,1.25,3.8,1.45,5.82.33,3.22.67,6.45.94,9.68A460.23,460.23,0,0,1,813,892.86,344.5,344.5,0,0,1,792.14,956Z"/><path class="cls-2" d="M306.58,740.68c-4.6,8.34-10.36,17-18.88,21.74-6.12,3.42-13.61,5.26-20.34,7.11-19.89,5.47-40.3,9.18-60.63,12.51-24.17,4-48.49,6.92-72.82,9.7-16,1.83-32.19,3.68-48.35,3.73-17.15.06-33.76-2.67-48.86-11.32,12.9,2.76,25.76,4.88,39,5.23,24,.63,48.15-2.49,71.85-6.1,32.06-4.88,64.44-9.87,96.16-16.72,20.31-4.39,46.46-11,58.8-29.57,2.49-3.75,3.66-9,4.84-13.37a92,92,0,0,0,2.87-14.85,90.86,90.86,0,0,0-2.27-30.16c-4.83-20.29-15.72-37-26.35-54.56,14.54,14.88,27,32.24,32.68,52.48A85.1,85.1,0,0,1,306.58,740.68Z"/><path class="cls-3" d="M282.17,764.75c-16.19,6.94-33.6,10.4-50.79,13.88q-27.37,5.55-55,9.38-27.94,3.82-56,6.67c-18.19,1.82-36.7,3.37-54.86.47a79.55,79.55,0,0,1-26.92-9.28c-7.31-4.18-16.18-10.19-21.41-16.87,5.35,6.14,14,11.49,21.09,15.36a80,80,0,0,0,22.54,7.81c16.23,3.24,33,2.42,49.32.79,36.91-3.68,73.91-8.24,110.5-14.39C241.28,775.09,262.31,771.72,282.17,764.75Z"/><path class="cls-1" d="M230,419.13c.17-.65.36-1.34.56-2.07C230.43,417.75,230.24,418.44,230,419.13Z"/><path class="cls-1" d="M230.61,417.06c.27-1,.54-2,.79-2.93C231.13,415.17,230.86,416.14,230.61,417.06Z"/><path class="cls-1" d="M237.14,392a34.91,34.91,0,0,1,5.17-10.8c-3.18,4.71-5,10.11-6.37,15.56Z"/><path class="cls-1" d="M324.22,347.45l2.07.09Q325.25,347.51,324.22,347.45Z"/><path class="cls-1" d="M390.14,348c2.54.47,5.09.93,7.63,1.42a111.35,111.35,0,0,0-20.72-2C381.36,347.39,385.87,347.22,390.14,348Z"/><path class="cls-1" d="M524.14,401a124.68,124.68,0,0,1,7.26,10.16,83.6,83.6,0,0,0-22.21-23.42A66,66,0,0,1,524.14,401Z"/><path class="cls-1" d="M536.5,419.78q1.2,2.19,2.29,4.4C538,422.7,537.29,421.24,536.5,419.78Z"/><path class="cls-1" d="M539.51,425.66c13.75,28.33,17.71,59.2,24.63,85.34C556.32,482.33,552.46,452.6,539.51,425.66Z"/><path class="cls-1" d="M567.39,522.12c5.85,18.66,15.73,45.69,24.62,69.27C583.35,568.49,574.62,545.52,567.39,522.12Z"/><path class="cls-1" d="M607.57,631.92q-1.26-3.23-2.51-6.45Z"/><path class="cls-3" d="M206,487.14c-29.67-13.49-58.66-28.28-91.82-30.14C146.85,453.82,179.32,469.74,206,487.14Z"/><path class="cls-3" d="M173.14,439c12.05,9.79,21.07,26.37,21.42,42C189.3,465.87,181.88,452.38,173.14,439Z"/><path class="cls-2" d="M281.88,527c-5.55-13.89-23.52-21.52-36.28-26.83-12.27-5.1-25-8.75-37.66-12.57,15.39,4.47,31,8,46.41,12.49,10.61,3.07,22.11,6.43,30.95,13.36,9.52,7.46,11.71,20.3,14,31.54,3,14.71,4.06,30.7-1,45.09-4.69,13.24-9.2,26.08-18.9,36.65-10.54,11.49-24.5,16.42-39.87,16.9-16.88.53-34-2.08-50.71-4.44-18-2.54-35.86-5.61-53.92-7.42a185.75,185.75,0,0,0-30.09-.64c-9.13.56-18.2,1.14-27.34.58-17-1-34.3-5.44-48-16,.37-.45,14.57,5,16.39,5.49A125.39,125.39,0,0,0,64,624.35c12.59,1.31,25.27,1.06,37.9.63s25-1,37.52-.6c13.87.42,27.71,1.51,41.57,2.2,11,.55,22,.33,32.91,1.43,9.41,1,19,1.93,28.33.07,20.18-4,32.35-21.14,38.55-39.59C287.21,569.46,289.5,546.05,281.88,527Z"/><path class="cls-3" d="M257.14,641c-14.73,4.5-30.49,3.45-45.61,2-16.66-1.58-33.2-4-49.77-6.37-16-2.25-32.11-4.41-48.31-4.44s-31.92,2-48-1c-15.08-2.74-30.87-8.49-41.28-20.24,19,18.78,48.77,21.08,74,19.15A242.62,242.62,0,0,1,149.36,632c17.55,2.33,35,5.38,52.53,7.79C220.07,642.28,239,645.29,257.14,641Z"/><path class="cls-2" d="M304.59,789.21c-2-8.41-7.14-15.82-12.32-22.56,1.84,5.34,4.24,10.47,5.92,15.86a55.59,55.59,0,0,1,2.07,18A318.43,318.43,0,0,1,297.89,836c-.71,5.27-1.11,11.91-3.52,16.69a28.73,28.73,0,0,1-6.3,7.64c-4.85,4.45-10.79,7.45-16.82,10C254,877.5,236,882.56,219.21,891c-11,5.49-21.54,11.64-32.72,16.74a319.51,319.51,0,0,1-30.33,12c-19.71,6.66-40,11.15-60.42,15,15.79,1,30.55-1,45.89-4.6a265,265,0,0,0,52-17.72c9.1-4.3,17.71-9.52,26.88-13.69,9.75-4.43,19.75-8.26,29.7-12.21,9-3.57,18-7.18,26.39-12A49.47,49.47,0,0,0,295.78,855c5.26-9.27,7.7-19.91,9-30.4C306.17,813.1,307.25,800.59,304.59,789.21Z"/><path class="cls-3" d="M61.14,930c7,1.88,14.2,2.36,21.34,3,7.66.66,15.36,1.22,23.06,1.14,14.42-.15,28.57-3.35,42.44-7a276.77,276.77,0,0,0,41.55-14.37c13.15-5.86,25.59-13.2,39-18.61,15.1-6.12,30.71-11,45.41-18.07-12.66,7.29-26.43,12.31-39.84,18S208.12,907,195,913.32a242.69,242.69,0,0,1-40.81,15c-14.27,4-28.88,7.55-43.77,7.83a175.33,175.33,0,0,1-24.88-1.65C77.36,933.53,69,932.56,61.14,930Z"/><path class="cls-2" d="M295.9,963.14c-4.5,9.76-9.19,19.64-15.43,28.43A66.93,66.93,0,0,1,264,1007.5c-8.71,6.2-18.43,10.62-28.22,14.94Q214.17,1032,192,1040.08c-13.13,4.81-27.27,10.7-41.48,8-8.17-1.57-14.7-4.85-23.29-4.38-10.95.6-20.6-.33-29.26-7.95,5.68,1.54,11.34,3.66,17.22,4.31,9,1,18.11.33,27.11.5,6.91.13,14.13,2.14,21,1.29a67,67,0,0,0,13.13-3.54c9.56-3.26,19-7,28.4-10.59,23.69-9.14,46.87-19.34,66.53-35.75C280.9,984,290.28,974.41,295.9,963.14Z"/><path class="cls-1" d="M234.88,400.91c.29-1.16.58-2.31.88-3.45Z"/><path class="cls-1" d="M276.5,352.61c-13.5,6.63-25.91,17.07-33.2,27.17C251.57,368.18,263.74,358.82,276.5,352.61Z"/><path class="cls-1" d="M282.32,350a63.47,63.47,0,0,1,11.43-3.44A65.65,65.65,0,0,0,282.32,350Z"/><path class="cls-1" d="M293.75,346.58c1.18-.24,2.37-.43,3.57-.58C296.14,346.15,294.95,346.35,293.75,346.58Z"/><path class="cls-1" d="M304.22,345.66c6.7.12,13.31,1.41,20,1.79C317.54,347.12,310.88,345.86,304.22,345.66Z"/><path class="cls-1" d="M370.68,347.47c-9.58.16-21.27.49-32.94.36C348.72,347.93,359.7,347.61,370.68,347.47Z"/><path class="cls-1" d="M398.24,349.51l1.16.23Q397.08,349.31,398.24,349.51Z"/><path class="cls-1" d="M457.91,364.62c-1.31-.43-2.63-.84-3.94-1.25Z"/><path class="cls-1" d="M454,363.37c-16.8-5.24-33.12-9.13-45.19-11.71C424,354.88,439.12,358.69,454,363.37Z"/><path class="cls-1" d="M405.17,350.9l3.61.76Z"/><path class="cls-1" d="M474.57,370.5a186.89,186.89,0,0,1,28.12,13.15A196.5,196.5,0,0,0,474.57,370.5Z"/><path class="cls-2" d="M611.64,664.5s-35,76-76,111C535.64,775.5,598.64,734.5,611.64,664.5Z"/><path class="cls-2" d="M440.64,985.29c-6.91,3.14-11.58,9.74-18.5,12.71-5.3,2.28-11.45,3.11-17.09,4.07a201.66,201.66,0,0,1-27.43,3.11c-4.45.14-9.8-1-14,.49-7.21,2.53-14.21,4.36-21.9,3-1.64-.29-3.24-1.07-4.86-1.33-2.59-.42-5.46.77-8.15,1.2-11.16,1.8-21.65,1-32-3.51-.47-.21-1.14-1-1.64-1-1.71-.22-5.54,2.37-7.44,2.93a49.3,49.3,0,0,1-7.07,1.54,48.49,48.49,0,0,1-17.49-.47c16.73-10,25.34-28.64,33.16-45.71,4.5-9.82,7.42-19,6.26-30-1.14-10.78-5.24-21.1-10.41-30.55A139.44,139.44,0,0,0,273.88,876c7.21-3.84,14.17-8.31,18.31-15.55,6.06,18,12.29,35.72,22.27,52a145.71,145.71,0,0,0,62.17,55.69C396.72,977.65,418.61,982.88,440.64,985.29Z"/><path class="cls-2" d="M663.14,693s3,63-36,172C627.14,865,680.14,747,663.14,693Z"/><path class="cls-2" d="M632.14,679c4.56,19.42,2.76,41-2.19,60.17A111.6,111.6,0,0,1,611.14,779C626.54,747.91,633.08,713.61,632.14,679Z"/><path class="cls-2" d="M314.14,742c13.46,22.84,36.85,41.53,59.53,54.62,13.59,7.84,28.23,13.86,43.67,16.83,16.69,3.21,33.28,2.29,49.8-1.46-29.16,14.32-63.31,9.82-91.29-5a151.32,151.32,0,0,1-36.08-26.87C329.33,769.62,318.22,756.5,314.14,742Z"/><path class="cls-2" d="M531.14,856c-13.06,31.65-28.65,63.95-29,99-3.39-17.29.82-36.81,6.37-53.24A190.88,190.88,0,0,1,531.14,856Z"/><path class="cls-2" d="M29.14,714c-1,15.63-3.37,31.45,0,47C22.66,747.15,25,728.16,29.14,714Z"/><path class="cls-2" d="M55.14,720c-1,15.37-2.2,31.7,0,47-2.7-7.31-2.93-15.78-2.89-23.49A88.3,88.3,0,0,1,55.14,720Z"/><path class="cls-2" d="M45.14,711c-1.58,11.17-2,22.53-2.42,33.79-.32,8-.93,16.2-.58,24.21-2.14-9.28-1.64-19.69-1.21-29.14C41.36,730.23,42.17,720.22,45.14,711Z"/><path class="cls-2" d="M30.14,529c-1.77,21-4.44,41.81-4,63C22.45,571.53,25,549,30.14,529Z"/><path class="cls-2" d="M51.14,529c-1.73,11.44-3.32,22.9-4.47,34.42S44.23,586.55,45.14,598c-2.44-11.28-1.6-23.39-.46-34.79A190.64,190.64,0,0,1,51.14,529Z"/><path class="cls-2" d="M41.14,856a161.37,161.37,0,0,0,1.52,24.75c1.3,8.17,4.41,16.09,5.48,24.25-2.86-8-6.11-15.47-7.46-23.94A71.72,71.72,0,0,1,41.14,856Z"/><path class="cls-2" d="M53.14,860c1,16.57,4.62,32.79,8,49C54.86,894.23,50.92,876,53.14,860Z"/><path class="cls-2" d="M96.14,983c4.69,15,7.53,31,15,45-5.17-5.91-8.11-14.13-10.4-21.52A110.07,110.07,0,0,1,96.14,983Z"/><path class="cls-2" d="M111.14,983a229.8,229.8,0,0,1,7.84,22.27c1.76,5.54,3.15,11.73,6.16,16.73-4.6-4.5-6.77-12.18-8.68-18.1A154.72,154.72,0,0,1,111.14,983Z"/><path class="cls-3" d="M313,301.39h.88c11.64.18,22.89,4.6,34,7.68,23,6.4,47,8,69.42,16.78A409.29,409.29,0,0,1,480,357.47c17.14,10.45,33.94,22.42,45.52,39.12,12.72,18.34,20.16,41.47,26.07,62.81,6.42,23.19,11,46.81,18.14,69.83,7.18,23.29,16,46.12,24.71,68.85,4.32,11.21,9,22.29,13.16,33.55,2.13,5.76,2.86,9.65,8.53,12.79,4.48,2.49,9,4.91,13.55,7.23,21.94,11.15,44.4,21.21,66.86,31.26s45.21,20,67.9,29.81c11,4.76,22.07,9.45,33.09,14.22,5.77,2.5,11.47,5.19,17.38,7.34,3.5,1.27,6.25,2.28,6.74,6.47a445.31,445.31,0,0,1,2.11,71.39c-2.06,46.65-10.47,93.41-28.48,136.65-16.51,39.65-40.46,76.41-71.1,106.6a278.41,278.41,0,0,1-25.68,22.41c-4.8,3.69-9.71,7.22-14.81,10.49-2.84,1.82-7.36,6.2-10.79,6.43h-.24c-3.46,0-7.15-4.74-9.75-6.65q-6.82-5-13.73-9.85-15.41-10.85-31.17-21.19c-20.39-13.45-41.09-26.42-62-39.08q-15.26-9.25-30.68-18.23c-10-5.83-20.24-12.81-31-17.26a58.53,58.53,0,0,0-22.41-4.33A68.88,68.88,0,0,0,435.19,989c-4.74,3-8.87,6.72-14.11,8.94a62.71,62.71,0,0,1-13.14,3.68c-10.62,2-21.68,3.65-32.54,3.65q-1.44,0-2.88,0c-1.78-.05-3.58-.31-5.37-.31a13,13,0,0,0-2.48.22c-2.88.56-5.45,2.19-8.28,2.94a34.67,34.67,0,0,1-8.75,1.15,27.2,27.2,0,0,1-6.39-.72c-2.39-.58-4.2-1.27-6.38-1.27a10.77,10.77,0,0,0-2.21.23c-2.24.47-4.34,1.12-6.62,1.43a67.09,67.09,0,0,1-8.94.62,54.72,54.72,0,0,1-7.43-.49A27.8,27.8,0,0,1,302,1007c-2.12-.94-4.33-2.35-6.7-2.53l-.63,0c-4,0-8.39,2.87-12.3,3.72a34,34,0,0,1-7.24.75,56.56,56.56,0,0,1-8.43-.73,7.85,7.85,0,0,0-1.17-.09c-4,0-6.81,3.2-10.35,5.1-20.77,11.14-42.88,20.15-65.12,27.88-10.22,3.55-20.92,7.69-31.89,7.69-.66,0-1.33,0-2,0-5.69-.27-10.8-2.28-16.22-3.79a41.68,41.68,0,0,0-11.37-1.33c-1.61,0-3.25,0-4.9.1q-1,0-2,0c-8.31,0-15.83-1.84-22.52-7.24-6.48-5.23-11.11-12.47-14.5-20-4.34-9.61-6.62-20-9.75-30.08-3.38-10.84-7.73-21.25-10.2-32.37a95.75,95.75,0,0,1-2.41-15.31c-.17-3,0-7.15-2.52-9.26-3.46-2.89-9.18-3.58-13.15-5.85A50.41,50.41,0,0,1,35.45,915c-16-16.59-12.3-41.36-16.86-62.26C16,841,12.94,829.37,12.44,817.28a108,108,0,0,1,4.41-34.18c1.14-3.93,4-8.57,2.05-12.63-2.18-4.43-7-7.68-9.74-11.75-6.37-9.29-7.53-20.66-7.32-31.63A565.09,565.09,0,0,1,8,654.73c.92-6.16,1.92-12.56,4.15-18.4,2-5.14,4.81-9.95,7.49-14.73,1.28-2.28,5.69-7.11,5.39-9.77-.2-1.77-3.1-3.31-4.25-4.45a60.62,60.62,0,0,1-4.86-5.78c-7.11-9.17-12.12-19.47-13.2-31.13-1-11.06.87-22.45,3.11-33.26,2.37-11.44,6-22.17,12-32.19,5.83-9.6,12.32-18.89,18.86-28,12.74-17.81,25.77-36.87,45.68-47.17,17.78-9.2,39.36-13.14,59.63-13.14,2.49,0,5,.06,7.4.18a60.8,60.8,0,0,1,17.45,3.26c5.16,1.82,10.09,4.23,15.52,5.18a50.66,50.66,0,0,0,8.45,1.19,7.35,7.35,0,0,0,4.48-1.16c1.72-1.32,2.84-3.89,4-5.66,1.49-2.19,3-4.36,4.48-6.56,6.31-9.42,13-18.53,19.38-27.9S234.54,365.31,239.6,355c4.71-9.58,8.94-19.72,15.85-28,6.57-7.86,15.66-13.49,24.88-17.74,10.17-4.69,21.45-7.92,32.72-7.92m0-3c-10.76,0-22.19,2.76-34,8.19-11.42,5.27-19.9,11.33-25.93,18.54s-10,15.48-13.82,23.58c-.8,1.68-1.6,3.35-2.42,5l-1.64,3.35c-4.37,8.93-8.89,18.17-14.53,26.46-2.89,4.25-5.91,8.54-8.83,12.68-3.5,5-7.11,10.09-10.56,15.24-.86,1.28-1.74,2.56-2.61,3.83L196.87,418c-.41.6-.79,1.25-1.16,1.88a12.08,12.08,0,0,1-2.23,3.09,4.47,4.47,0,0,1-2.66.54,35.23,35.23,0,0,1-6.25-.83l-1.69-.32A54.63,54.63,0,0,1,172.45,419c-1.49-.58-3-1.19-4.6-1.74a63.51,63.51,0,0,0-18.3-3.43c-2.49-.12-5-.18-7.55-.18-22.54,0-44.21,4.78-61,13.47-19.68,10.18-32.58,28.24-45,45.71l-1.7,2.37c-6.33,8.85-13,18.4-19,28.22-5.76,9.49-9.71,20-12.42,33.14C.58,547.53-1.36,559.25-.31,570.73c1,11.21,5.68,22.21,13.81,32.7l.21.27a59.89,59.89,0,0,0,4.9,5.79,16.05,16.05,0,0,0,1.65,1.36,13.72,13.72,0,0,1,1.7,1.43c-.29,1.16-2.15,3.74-3.08,5A31.64,31.64,0,0,0,17,620.13l-1,1.81A100.22,100.22,0,0,0,9.3,635.26c-2.4,6.3-3.42,13.06-4.31,19A566.66,566.66,0,0,0-1.16,727c-.19,9.94.52,22.71,7.84,33.38a40.85,40.85,0,0,0,4.62,5.31,25.81,25.81,0,0,1,4.9,6.07c.94,1.91-.06,4.52-1.12,7.28-.4,1-.81,2.12-1.12,3.19a111.34,111.34,0,0,0-4.53,35.15c.42,10.27,2.68,20.25,4.87,29.9.46,2,.91,4,1.36,6.06a161.31,161.31,0,0,1,2.55,18.94c1.52,15.9,3.09,32.34,15.08,44.76a53.26,53.26,0,0,0,11.84,9.17,35.24,35.24,0,0,0,6.22,2.57c2.54.86,4.94,1.68,6.5,3,1.2,1,1.3,3.72,1.39,5.91,0,.42,0,.83.05,1.22a98.87,98.87,0,0,0,2.48,15.79,194.59,194.59,0,0,0,6.57,21.61c1.25,3.6,2.54,7.32,3.69,11,.91,2.92,1.77,5.95,2.6,8.87,2,7.16,4.13,14.57,7.28,21.55,4.1,9.08,9.26,16.17,15.35,21.09,6.69,5.4,14.44,7.91,24.41,7.91.68,0,1.38,0,2.09,0,1.47,0,3.17-.1,4.8-.1a38.49,38.49,0,0,1,10.57,1.22c1.26.35,2.54.74,3.77,1.11a53,53,0,0,0,13.1,2.78c.7,0,1.42,0,2.13,0,10.49,0,20.46-3.5,30.1-6.89l2.77-1c25.26-8.78,46.7-18,65.55-28.07a34.68,34.68,0,0,0,3.43-2.19c2-1.37,3.67-2.55,5.5-2.55a4.82,4.82,0,0,1,.72.06,59.23,59.23,0,0,0,8.87.76,36.82,36.82,0,0,0,7.88-.82,33.3,33.3,0,0,0,5.37-1.84c2.19-.89,4.46-1.81,6.3-1.81h.4a12.34,12.34,0,0,1,4,1.48c.54.27,1.1.54,1.67.8a30.69,30.69,0,0,0,8.49,2.29,57.9,57.9,0,0,0,7.84.52,70.24,70.24,0,0,0,9.34-.65A42.94,42.94,0,0,0,331,1011c.79-.19,1.54-.38,2.3-.53a7.79,7.79,0,0,1,1.6-.17,15,15,0,0,1,3.89.72c.56.15,1.15.31,1.78.46a30.12,30.12,0,0,0,7.1.81,37.76,37.76,0,0,0,9.52-1.25,30.56,30.56,0,0,0,4.13-1.51,20.65,20.65,0,0,1,3.95-1.38,10.06,10.06,0,0,1,1.91-.16c.87,0,1.78.07,2.74.15s1.67.13,2.54.16,2,0,3,0c11.53,0,23.2-1.87,33.09-3.7a66.08,66.08,0,0,0,13.76-3.86,53.57,53.57,0,0,0,10.2-6.17c1.42-1,2.88-2.06,4.35-3a66,66,0,0,1,35.11-10.4,55.33,55.33,0,0,1,21.26,4.1c7.63,3.15,15.12,7.72,22.37,12.13,2.71,1.65,5.51,3.35,8.25,4.95,9.34,5.42,19.35,11.37,30.63,18.2,22.77,13.8,43,26.56,61.89,39,11.38,7.51,21.55,14.42,31.09,21.14,4.74,3.34,9.34,6.64,13.68,9.82a28.39,28.39,0,0,1,2.2,1.93c2.53,2.36,5.68,5.3,9.32,5.3h.44c3.39-.22,6.76-2.8,9.73-5.08.93-.71,1.8-1.38,2.48-1.82,4.8-3.07,9.71-6.55,15-10.64a282.46,282.46,0,0,0,26-22.65C756.16,1028.06,781,990.86,798,950c16.79-40.33,26.45-86.65,28.71-137.67,1.16-26.23.46-49.74-2.13-71.88-.71-6-5.14-7.65-8.7-8.94-4.28-1.55-8.56-3.45-12.71-5.29-1.5-.67-3-1.33-4.51-2-5.75-2.49-11.59-5-17.25-7.42q-7.92-3.39-15.84-6.81c-25.45-11-47.65-20.75-67.87-29.79-22-9.83-44.68-20-66.73-31.2-4.23-2.15-8.63-4.5-13.45-7.18-4-2.2-4.83-4.66-6.41-9.11-.24-.67-.49-1.38-.76-2.11-2.45-6.62-5.11-13.27-7.69-19.7-1.82-4.55-3.7-9.25-5.49-13.89-8.56-22.24-17.42-45.23-24.64-68.66-4.08-13.24-7.41-27-10.62-40.21-2.35-9.7-4.78-19.72-7.49-29.53-6.11-22.07-13.55-45.06-26.49-63.72-12.36-17.82-30.4-30.2-46.42-40a411.76,411.76,0,0,0-63.11-31.84c-13.73-5.39-28.13-8.15-42.07-10.81-9.13-1.74-18.56-3.55-27.65-6.07-2.5-.7-5.08-1.48-7.57-2.24-8.73-2.66-17.77-5.41-27.17-5.55Z"/><path class="cls-1" d="M617.22,645c-2.81-1.62-5.84-3-7.11-6.1-1.41-3.43-2.56-7-3.91-10.48q-5-12.88-10-25.77c-6.75-17.45-13.37-35-19.54-52.63s-11.7-35.61-16.17-53.86c-4.32-17.65-7.8-35.54-13.73-52.75-5.34-15.5-11.47-32-20.37-45.82-9.06-14.08-22.24-24.42-36.06-33.55A401,401,0,0,0,443.86,338c-16.38-7.93-32.61-15.52-50.47-19.48s-35.94-6.3-53.53-11.31c-8.7-2.48-17-5.78-26.21-5.86a74.11,74.11,0,0,0-24.58,4.49c-14.76,5.11-30.51,14-38.65,27.82-8.54,14.5-14.37,30.46-22.89,44.94-4.62,7.86-10.27,14.85-15.52,22.26-5,7.08-9.62,14.47-14.56,21.61-5.13,7.4-10.39,14.71-15.48,22.13-4.77,7-8.11,14.52-12.38,21.75-8.58,14.53-20.2,29.34-13.68,47.07,5.08,13.8,17.11,24.54,30.3,30.51,14.27,6.46,30.92,7.74,46.25,5a303.41,303.41,0,0,0,50.59-13.75c15.54-5.63,32.23-12.61,45.25-23,6.19-4.95,11-11.84,16.15-17.78,3.81-4.39,7.74-8.66,11.41-13.17,4.46-5.47,9.71-11.45,12.2-18.15-2.84,7.6-7.84,14.06-12.39,20.69-1.2,1.75-2.33,3.55-3.51,5.31-.62.92-2.83,3.15-2.85,4.05,0,.52.77,1.52,1,2q6.71,13.11,13.48,26.19c1.15,2.24,3.08,4.63,2.71,7s-2.23,5-3.17,7.19q-2.21,5-4.37,10.11c-3.07,7.2-6.07,14.44-8.86,21.76-2.39,6.26-5.25,12.86-6.27,19.52-2.41,15.83,6.91,29.8,17.88,40.2,12.38,11.73,27.38,21.48,42,30.13,32,18.94,68.33,31.71,105.7,33.34,20.65.9,41.73-1.59,61.34-8.28,20.67-7.05,38.91-19.29,56.7-31.67C624,648.77,620.58,646.95,617.22,645Z"/><path class="cls-3" d="M228.19,548.62c6.6-.4,13.8-3,20.22-4.59,7.3-1.77,14.56-3.7,21.72-6a331.37,331.37,0,0,1-42.49,10c-.15,0,.84.72,0,.34Q227.68,548.82,228.19,548.62Z"/><path class="cls-3" d="M227.66,548.7c-28.45,3.52-67.3-8.62-73.32-40.92-3.25-17.46,10.29-31.69,17.81-46,8.29-15.84,18.9-29.93,29-44.67,11.42-16.68,22.38-33.71,31.66-51.69a92.49,92.49,0,0,1-10.58,24.51c-5.08,8.18-10.52,16.14-16,24-10.25,14.67-22.43,28.71-30.32,44.85-6.8,13.89-20.47,27.44-20.39,43.75.08,16,13.15,30.07,26.34,37.5a68,68,0,0,0,26.65,8.24,69.65,69.65,0,0,0,11.92.26C221.69,548.44,227,547.3,227.66,548.7Z"/><path class="cls-3" d="M360.41,475.42c20.32-10,36.5-26.33,44.68-47.57,5.47-14.2,7.08-29.3,7.21-44.42-1.71,24.16-12,48.94-26.6,68A116.05,116.05,0,0,1,374,464.54q-3.35,3.22-7,6.16C365.16,472.22,362.74,474.85,360.41,475.42Z"/><path class="cls-3" d="M359.5,474.92c25.79-22.49,42.35-61.43,30.08-95.22a138.93,138.93,0,0,1-.86,31.55,102.62,102.62,0,0,1-7.13,27,65.37,65.37,0,0,1-6.87,12.28c-1.93,2.69-4.51,4.93-6.26,7.69C365.12,463.5,362.47,469.39,359.5,474.92Z"/><path class="cls-3" d="M355.79,482.53c30.13-2.06,50.37-27,63.93-51.57a172.66,172.66,0,0,1-20.15,24.1,127.69,127.69,0,0,1-21.19,17.56,76.65,76.65,0,0,1-12.21,6.49,57.45,57.45,0,0,1-5.87,2.08q-1.47.43-3,.77C356.75,482.09,354.88,481.93,355.79,482.53Z"/><path class="cls-3" d="M346.67,487.19s51.47,12.81,89.48-27.26C436.15,459.93,388,492.26,346.67,487.19Z"/><path class="cls-4" d="M216.46,440.55c-22.46,9-37.43,29.74-47.57,50.8,6.36,1.1,12.76,1.93,19.08,3.29,8.91,1.92,17.47,4.25,26.63,4.81a129,129,0,0,0,45.93-5.83,37.86,37.86,0,0,0,3.93-1.3c2-.86,2.18-1.36,3.18-3.38q3-6.16,5.6-12.54,2.29-5.67,4.19-11.49c1.28-3.9,3.31-7.73,1.63-11.65-4.33-10.13-14.15-15.4-24.62-17.1C241.86,434.12,228.37,436.23,216.46,440.55Z"/><path class="cls-5" d="M288.32,453.54c.23-5.58-6-10.58-10.2-13.35a47.13,47.13,0,0,0-18.7-7c-10.42-1.68-21.08-1.82-31.38.66-13.5,3.25-25.59,10.61-36.1,19.52a201.5,201.5,0,0,0-27.28,28c-2.7,3.42-5.25,7.31.18,9.05.79.25,3.29,1.19,4.06.89s1.89-3.84,2.4-4.81q1.59-3.07,3.29-6.09a97.49,97.49,0,0,1,12.53-17.94c8.66-9.51,18.73-18.3,31.08-22.56a80.71,80.71,0,0,1,29.88-4.43c10.4.5,21.52,3.68,28,12.43,1.46,2,3.3,4.73,3.74,7.19.63,3.51-1.92,8.56-3.08,12a183.42,183.42,0,0,1-10.43,24.57c3.83-1.43,8.69-3,11.57-6.07,2.39-2.54,3.7-6.33,4.9-9.53C285.35,469.08,288,461.06,288.32,453.54Z"/><path class="cls-2" d="M361.73,473.21c-15.62,26.56-40.3,44.87-68.51,56.57a304.09,304.09,0,0,1-53.72,16.53c-15.76,3.3-32.17,4.24-47.63-1.1-18.43-6.36-39.82-24.73-37-46.34,6.32,15.72,17.15,28.61,33.93,33.32a62.21,62.21,0,0,0,14,2,194,194,0,0,0,42.57-3C286.52,524,326,504,349.81,468.59c18.35-27.26,25.56-60.26,26.27-92.74,5.4,17.4,4.41,36.44.93,54.12C374.1,444.83,369.44,460.08,361.73,473.21Z"/><path class="cls-3" d="M376.84,434.89c-4,18.44-11.12,36.5-22.38,51.78-11.54,15.65-27.21,27.64-44.3,36.67-19,10-39.61,16.63-60.36,21.9-19.45,4.94-39.67,7.57-59,.52-18.43-6.72-39.07-25.28-35.95-46.88-2.37,22.81,20.9,41,40.52,46.44,22.75,6.36,46.06-.14,68-6.62,23-6.81,45.86-15.73,65.14-30.32a120.59,120.59,0,0,0,39.59-51c10.11-24.89,15.27-55.23,8-81.52C382.26,394.88,381.06,415.59,376.84,434.89Z"/><path class="cls-6" d="M30.14,802c-6.39,16-4.81,33.63,5.47,47.58,4.82,6.55,10,12.06,18.43,11.6,9.81-.53,19.64-3.66,28.94-6.6,12.88-4.07,25.52-8.89,38-14.06,12.27-5.08,24.41-10.53,36.26-16.53,8.07-4.09,16.68-8.26,23.73-14,1.56-1.28,3.38-2.61,1-3.84-3-1.56-8.57-.46-11.71-.28-15.56.93-31,2.93-46.59,4.09-20.86,1.55-41.85,2.15-62.49-1.86-7.59-1.47-15-3.63-22.4-5.73C37.21,801.91,31.15,799.46,30.14,802Z"/><path class="cls-6" d="M48.14,651c-14.53,6.46-25.42,22.09-25.76,38.11-.11,5,.78,12.72,4.94,16.23,2.41,2,6.07,2.11,9.06,2,11.69-.53,23.44-5.16,34.29-9.14,14.55-5.34,28.84-11.38,43.18-17.26,13.24-5.43,26.52-11,40.22-15.18,1.6-.49,13.14-2.26,7.51-5.09-5.95-3-14.1-3.36-20.56-4.27-11.39-1.61-22.84-2.76-34.3-3.74-12.63-1.08-25.29-1.95-38-2.34-4.46-.14-8.92-.24-13.38-.1C53.12,650.24,50.25,650.06,48.14,651Z"/><path class="cls-6" d="M97.64,957.5c-4.15-1.19-13.26-3.88-16.21,1.11-2.26,3.82.91,9.35,2.93,12.55C89.3,979,97.92,988.28,108,987.4c12.58-1.1,25.21-5.14,37.22-8.81a399.07,399.07,0,0,0,50.93-19.19c13.68-6.33,28.64-13.63,39.25-24.64,3.39-3.52,4.44-6.94-1.5-7.11-8.6-.24-17.67,2.6-25.92,4.67-13,3.28-26,7-38.92,10.66s-26.1,7.36-39.29,10.5c-9.06,2.15-18.79,4.8-28.19,4.51A16.05,16.05,0,0,1,97.64,957.5Z"/><path class="cls-6" d="M98.14,460c9,2.81,18.22,5,27.13,8.07,5.84,2,11.63,4.69,15.57,9.64,4.76,6,6.41,14,7.56,21.34s3.57,17.81-3.75,22.72c-6.79,4.56-17.13,3.24-24.78,2.69-12.41-.89-24.74-2.11-37.18-2.58-8.7-.33-19.87,0-27.75-4.38-5.61-3.13-4.57-8.48-1.71-13.32,3-5.11,7.29-9.29,11.08-13.8a195.85,195.85,0,0,0,13-17.91C82.39,464.78,87.77,456.76,98.14,460Z"/><path class="cls-6" d="M319.49,357.32c-14.77,1.47-21.33-14.48-17.38-26.82C303.86,325,307.9,320.36,314,320a52.5,52.5,0,0,1,9.21.75c28.58,3.67,57,11.16,84.34,20.22,30.8,10.22,65.1,23.38,87.84,47.54,1.24,1.32,9.66,9.77,8.59,11.6-.67,1.14-4-.61-4.76-.94-10.94-4.45-21.47-9.93-32.34-14.55-40.5-17.2-84-29-128.33-28.42Q329,356.39,319.49,357.32Z"/><path class="cls-6" d="M632.14,679c28.3,47.17,145,88,168,82S626.14,669,632.14,679Z"/><path class="cls-6" d="M556.14,882c27.3,41.86,125,89,148,81S541.14,859,556.14,882Z"/><path class="cls-6" d="M530,489c7.37,20.57,14.45,41.24,20.94,62.11,7.58,24.36,15.36,49.4,18.41,74.82.9,7.53,1,14.68-.74,22.07-1.86,7.93-4.11,15.77-6.47,23.56-5.51,18.22-11.38,36.89-20.16,53.84-1.81,3.49-5,11-9.44,12.06-4.66,1.09-5.7-7.06-6.18-10-2.21-13.7-1.38-28.11-.8-41.89a332.32,332.32,0,0,1,3.82-39.66c2.32-14.15,6.12-27.65,4-42.1-4.4-30.1-18-58.39-26.26-87.47-3.31-11.67-6.59-24-6.63-36.2,0-4.34.15-11.37,4.58-13.84,8.06-4.48,17.86,9.27,21.1,14.71A46.16,46.16,0,0,1,530,489Z"/></g></svg>