<svg xmlns="http://www.w3.org/2000/svg" viewBox="0 0 826.21 1096.88"><defs><style>.cls-1{fill:#fc9;}.cls-2{fill:#bf9973;}.cls-3{fill:#80664d;}.cls-4{fill:#ffebd6;}.cls-5{fill:#ffe0c2;}.cls-6{fill:#ffd6ad;}</style></defs><title>Hand</title><g id="Frame_6" data-name="Frame 6"><path class="cls-1" d="M792.14,956c-17.84,39.95-43.14,76.86-75.45,106.49a264.13,264.13,0,0,1-25.58,20.76c-4.08,2.9-8.26,5.65-12.57,8.2-1.37.81-4.47,3.47-6.15,3.42-1.33,0-2.68-1.6-3.65-2.37-18.2-14.51-38.12-27.22-57.59-39.93s-39.35-25.07-59.33-37.12q-15.28-9.22-30.72-18.15c-5.15-3-10.32-5.87-15.49-8.78-4.92-2.78-9.84-5.93-15.34-7.44-10.66-2.92-22.54-4.24-33.33-1.56-11,2.74-19.67,7.59-28.6,14.43-8.54,6.54-19.83,7.73-30.19,9.23-5.25.76-10.51,1.42-15.8,1.76q-4.91.31-9.83.29c-2.73,0-5.76-.71-8.4.06-4.59,1.33-8.62,3.31-13.52,3.73a33.87,33.87,0,0,1-8-.24c-2.41-.37-5-1.86-7.38-1.72-4.42.26-8.92,1.94-13.45,2.26a53.91,53.91,0,0,1-16.66-1.15,33.24,33.24,0,0,1-6.53-2.25c-1.33-.64-2.47-1.7-4-1.74s-3.28,1.37-4.69,2a38.26,38.26,0,0,1-8.91,2.26,50.61,50.61,0,0,1-15.25-.12c-2.62-.38-3.29.38-5.34,1.78a73.36,73.36,0,0,1-8,4.51,504.17,504.17,0,0,1-63.82,27c-10.59,3.7-21.89,7.91-33.29,7.12-5.77-.4-10.89-2.58-16.41-4s-11.12-1-16.77-.88c-10.26.24-19.05-2.69-26.32-10.09-6.34-6.46-10.66-14.82-13.66-23.28-3.71-10.45-5.77-21.33-9.74-31.71a165.49,165.49,0,0,1-9.21-32.1c-.78-4.65-.91-9.47-1.73-14.07-.76-4.29-5.79-4.4-9.35-6-8.92-4.11-17-10-22.24-18.46-5.75-9.23-7.05-19.75-7.83-30.38a226.48,226.48,0,0,0-5.57-34.08c-2.56-11.23-4.78-22.47-4.14-34a130.9,130.9,0,0,1,6.34-33c.66-2,1.71-3.62.56-5.59s-3.52-3.64-5-5.36a53.49,53.49,0,0,1-8.92-13.89c-4-9.68-3.47-20.15-3.16-30.4a526.73,526.73,0,0,1,6.6-71.31c.85-5,1.76-10.22,3.77-15a152.7,152.7,0,0,1,8.2-15.48c1-1.8,3.74-4.85,4-6.83.22-1.51-.76-1.94-1.9-3.11A89,89,0,0,1,13.19,598c-6.53-9.36-10.55-19.82-10.85-31.3-.3-11.31,1.87-23.05,4.46-34a96.51,96.51,0,0,1,12.75-30.16Q29,487.42,39.55,473c12.83-17.59,25.73-35.27,45.94-44.75,18.56-8.71,39.76-11.43,60.09-11.4a70,70,0,0,1,15.07,1.38c5.69,1.26,10.95,3.78,16.41,5.73,10,3.58,22.41,2.64,32.91,2.51,3.22,0,6.45-.16,9.67-.17,2.14,0,5.54.68,7.48-.28,2.78-1.38,3-7.33,3.85-10.32,2.82-10.53,4.42-22.13,9.78-31.76,9.44-17,28.63-30.27,46.93-35.84,11.27-3.43,22.09-1.55,33.57-.83,12.08.76,24.16.49,36.25.19s24-.55,35.88,1.13c11.6,1.64,23,4.59,34.34,7.43,21.34,5.33,42.66,11.77,62.65,21,19.49,9,34.7,22.13,45.23,41,10.91,19.53,16.34,41.39,21.31,63,10.75,46.77,27.45,91.3,44.84,135.94l5.71,14.64c1.53,3.92,2.22,8.44,5.82,10.89,9.45,6.45,20.35,11.18,30.63,16.14,21.3,10.28,42.9,19.93,64.52,29.53q33.25,14.76,66.69,29.12,16.36,7,32.76,14c2.27,1,4.52,2,6.83,2.86,1.72.63,4.29,1,5.63,2.31,1.5,1.49,1.25,3.8,1.45,5.82.33,3.22.67,6.45.94,9.68A460.23,460.23,0,0,1,813,892.86,344.5,344.5,0,0,1,792.14,956Z"/><path class="cls-2" d="M306.58,740.68c-4.6,8.34-10.36,17-18.88,21.74-6.12,3.42-13.61,5.26-20.34,7.11-19.89,5.47-40.3,9.18-60.63,12.51-24.17,4-48.49,6.92-72.82,9.7-16,1.83-32.19,3.68-48.35,3.73-17.15.06-33.76-2.67-48.86-11.32,12.9,2.76,25.76,4.88,39,5.23,24,.63,48.15-2.49,71.85-6.1,32.06-4.88,64.44-9.87,96.16-16.72,20.31-4.39,46.46-11,58.8-29.57,2.49-3.75,3.66-9,4.84-13.37a92,92,0,0,0,2.87-14.85,90.86,90.86,0,0,0-2.27-30.16c-4.83-20.29-15.72-37-26.35-54.56,14.54,14.88,27,32.24,32.68,52.48A85.1,85.1,0,0,1,306.58,740.68Z"/><path class="cls-3" d="M282.17,764.75c-16.19,6.94-33.6,10.4-50.79,13.88q-27.37,5.55-55,9.38-27.94,3.82-56,6.67c-18.19,1.82-36.7,3.37-54.86.47a79.55,79.55,0,0,1-26.92-9.28c-7.31-4.18-16.18-10.19-21.41-16.87,5.35,6.14,14,11.49,21.09,15.36a80,80,0,0,0,22.54,7.81c16.23,3.24,33,2.42,49.32.79,36.91-3.68,73.91-8.24,110.5-14.39C241.28,775.09,262.31,771.72,282.17,764.75Z"/><path class="cls-1" d="M230,419.13c.17-.65.36-1.34.56-2.07C230.43,417.75,230.24,418.44,230,419.13Z"/><path class="cls-1" d="M230.61,417.06c.27-1,.54-2,.79-2.93C231.13,415.17,230.86,416.14,230.61,417.06Z"/><path class="cls-1" d="M237.14,392a34.91,34.91,0,0,1,5.17-10.8c-3.18,4.71-5,10.11-6.37,15.56Z"/><path class="cls-1" d="M324.22,347.45l2.07.09Q325.25,347.51,324.22,347.45Z"/><path class="cls-1" d="M390.14,348c2.54.47,5.09.93,7.63,1.42a111.35,111.35,0,0,0-20.72-2C381.36,347.39,385.87,347.22,390.14,348Z"/><path class="cls-1" d="M524.14,401a124.68,124.68,0,0,1,7.26,10.16,83.6,83.6,0,0,0-22.21-23.42A66,66,0,0,1,524.14,401Z"/><path class="cls-1" d="M536.5,419.78q1.2,2.19,2.29,4.4C538,422.7,537.29,421.24,536.5,419.78Z"/><path class="cls-1" d="M539.51,425.66c13.75,28.33,17.71,59.2,24.63,85.34C556.32,482.33,552.46,452.6,539.51,425.66Z"/><path class="cls-1" d="M567.39,522.12c5.85,18.66,15.73,45.69,24.62,69.27C583.35,568.49,574.62,545.52,567.39,522.12Z"/><path class="cls-1" d="M607.57,631.92q-1.26-3.23-2.51-6.45Z"/><path class="cls-3" d="M206,487.14c-29.67-13.49-58.66-28.28-91.82-30.14C146.85,453.82,179.32,469.74,206,487.14Z"/><path class="cls-3" d="M173.14,439c12.05,9.79,21.07,26.37,21.42,42C189.3,465.87,181.88,452.38,173.14,439Z"/><path class="cls-2" d="M281.88,527c-5.55-13.89-23.52-21.52-36.28-26.83-12.27-5.1-25-8.75-37.66-12.57,15.39,4.47,31,8,46.41,12.49,10.61,3.07,22.11,6.43,30.95,13.36,9.52,7.46,11.71,20.3,14,31.54,3,14.71,4.06,30.7-1,45.09-4.69,13.24-9.2,26.08-18.9,36.65-10.54,11.49-24.5,16.42-39.87,16.9-16.88.53-34-2.08-50.71-4.44-18-2.54-35.86-5.61-53.92-7.42a185.75,185.75,0,0,0-30.09-.64c-9.13.56-18.2,1.14-27.34.58-17-1-34.3-5.44-48-16,.37-.45,14.57,5,16.39,5.49A125.39,125.39,0,0,0,64,624.35c12.59,1.31,25.27,1.06,37.9.63s25-1,37.52-.6c13.87.42,27.71,1.51,41.57,2.2,11,.55,22,.33,32.91,1.43,9.41,1,19,1.93,28.33.07,20.18-4,32.35-21.14,38.55-39.59C287.21,569.46,289.5,546.05,281.88,527Z"/><path class="cls-3" d="M257.14,641c-14.73,4.5-30.49,3.45-45.61,2-16.66-1.58-33.2-4-49.77-6.37-16-2.25-32.11-4.41-48.31-4.44s-31.92,2-48-1c-15.08-2.74-30.87-8.49-41.28-20.24,19,18.78,48.77,21.08,74,19.15A242.62,242.62,0,0,1,149.36,632c17.55,2.33,35,5.38,52.53,7.79C220.07,642.28,239,645.29,257.14,641Z"/><path class="cls-2" d="M304.59,789.21c-2-8.41-7.14-15.82-12.32-22.56,1.84,5.34,4.24,10.47,5.92,15.86a55.59,55.59,0,0,1,2.07,18A318.43,318.43,0,0,1,297.89,836c-.71,5.27-1.11,11.91-3.52,16.69a28.73,28.73,0,0,1-6.3,7.64c-4.85,4.45-10.79,7.45-16.82,10C254,877.5,236,882.56,219.21,891c-11,5.49-21.54,11.64-32.72,16.74a319.51,319.51,0,0,1-30.33,12c-19.71,6.66-40,11.15-60.42,15,15.79,1,30.55-1,45.89-4.6a265,265,0,0,0,52-17.72c9.1-4.3,17.71-9.52,26.88-13.69,9.75-4.43,19.75-8.26,29.7-12.21,9-3.57,18-7.18,26.39-12A49.47,49.47,0,0,0,295.78,855c5.26-9.27,7.7-19.91,9-30.4C306.17,813.1,307.25,800.59,304.59,789.21Z"/><path class="cls-3" d="M61.14,930c7,1.88,14.2,2.36,21.34,3,7.66.66,15.36,1.22,23.06,1.14,14.42-.15,28.57-3.35,42.44-7a276.77,276.77,0,0,0,41.55-14.37c13.15-5.86,25.59-13.2,39-18.61,15.1-6.12,30.71-11,45.41-18.07-12.66,7.29-26.43,12.31-39.84,18S208.12,907,195,913.32a242.69,242.69,0,0,1-40.81,15c-14.27,4-28.88,7.55-43.77,7.83a175.33,175.33,0,0,1-24.88-1.65C77.36,933.53,69,932.56,61.14,930Z"/><path class="cls-2" d="M295.9,963.14c-4.5,9.76-9.19,19.64-15.43,28.43A66.93,66.93,0,0,1,264,1007.5c-8.71,6.2-18.43,10.62-28.22,14.94Q214.17,1032,192,1040.08c-13.13,4.81-27.27,10.7-41.48,8-8.17-1.57-14.7-4.85-23.29-4.38-10.95.6-20.6-.33-29.26-7.95,5.68,1.54,11.34,3.66,17.22,4.31,9,1,18.11.33,27.11.5,6.91.13,14.13,2.14,21,1.29a67,67,0,0,0,13.13-3.54c9.56-3.26,19-7,28.4-10.59,23.69-9.14,46.87-19.34,66.53-35.75C280.9,984,290.28,974.41,295.9,963.14Z"/><path class="cls-1" d="M234.88,400.91c.29-1.16.58-2.31.88-3.45Z"/><path class="cls-1" d="M276.5,352.61c-13.5,6.63-25.91,17.07-33.2,27.17C251.57,368.18,263.74,358.82,276.5,352.61Z"/><path class="cls-1" d="M282.32,350a63.47,63.47,0,0,1,11.43-3.44A65.65,65.65,0,0,0,282.32,350Z"/><path class="cls-1" d="M293.75,346.58c1.18-.24,2.37-.43,3.57-.58C296.14,346.15,294.95,346.35,293.75,346.58Z"/><path class="cls-1" d="M304.22,345.66c6.7.12,13.31,1.41,20,1.79C317.54,347.12,310.88,345.86,304.22,345.66Z"/><path class="cls-1" d="M370.68,347.47c-9.58.16-21.27.49-32.94.36C348.72,347.93,359.7,347.61,370.68,347.47Z"/><path class="cls-1" d="M398.24,349.51l1.16.23Q397.08,349.31,398.24,349.51Z"/><path class="cls-1" d="M457.91,364.62c-1.31-.43-2.63-.84-3.94-1.25Z"/><path class="cls-1" d="M454,363.37c-16.8-5.24-33.12-9.13-45.19-11.71C424,354.88,439.12,358.69,454,363.37Z"/><path class="cls-1" d="M405.17,350.9l3.61.76Z"/><path class="cls-1" d="M474.57,370.5a186.89,186.89,0,0,1,28.12,13.15A196.5,196.5,0,0,0,474.57,370.5Z"/><path class="cls-2" d="M611.64,664.5s-35,76-76,111C535.64,775.5,598.64,734.5,611.64,664.5Z"/><path class="cls-2" d="M440.64,985.29c-6.91,3.14-11.58,9.74-18.5,12.71-5.3,2.28-11.45,3.11-17.09,4.07a201.66,201.66,0,0,1-27.43,3.11c-4.45.14-9.8-1-14,.49-7.21,2.53-14.21,4.36-21.9,3-1.64-.29-3.24-1.07-4.86-1.33-2.59-.42-5.46.77-8.15,1.2-11.16,1.8-21.65,1-32-3.51-.47-.21-1.14-1-1.64-1-1.71-.22-5.54,2.37-7.44,2.93a49.3,49.3,0,0,1-7.07,1.54,48.49,48.49,0,0,1-17.49-.47c16.73-10,25.34-28.64,33.16-45.71,4.5-9.82,7.42-19,6.26-30-1.14-10.78-5.24-21.1-10.41-30.55A139.44,139.44,0,0,0,273.88,876c7.21-3.84,14.17-8.31,18.31-15.55,6.06,18,12.29,35.72,22.27,52a145.71,145.71,0,0,0,62.17,55.69C396.72,977.65,418.61,982.88,440.64,985.29Z"/><path class="cls-2" d="M663.14,693s3,63-36,172C627.14,865,680.14,747,663.14,693Z"/><path class="cls-2" d="M632.14,679c4.56,19.42,2.76,41-2.19,60.17A111.6,111.6,0,0,1,611.14,779C626.54,747.91,633.08,713.61,632.14,679Z"/><path class="cls-2" d="M314.14,742c13.46,22.84,36.85,41.53,59.53,54.62,13.59,7.84,28.23,13.86,43.67,16.83,16.69,3.21,33.28,2.29,49.8-1.46-29.16,14.32-63.31,9.82-91.29-5a151.32,151.32,0,0,1-36.08-26.87C329.33,769.62,318.22,756.5,314.14,742Z"/><path class="cls-2" d="M531.14,856c-13.06,31.65-28.65,63.95-29,99-3.39-17.29.82-36.81,6.37-53.24A190.88,190.88,0,0,1,531.14,856Z"/><path class="cls-2" d="M29.14,714c-1,15.63-3.37,31.45,0,47C22.66,747.15,25,728.16,29.14,714Z"/><path class="cls-2" d="M55.14,720c-1,15.37-2.2,31.7,0,47-2.7-7.31-2.93-15.78-2.89-23.49A88.3,88.3,0,0,1,55.14,720Z"/><path class="cls-2" d="M45.14,711c-1.58,11.17-2,22.53-2.42,33.79-.32,8-.93,16.2-.58,24.21-2.14-9.28-1.64-19.69-1.21-29.14C41.36,730.23,42.17,720.22,45.14,711Z"/><path class="cls-2" d="M30.14,529c-1.77,21-4.44,41.81-4,63C22.45,571.53,25,549,30.14,529Z"/><path class="cls-2" d="M51.14,529c-1.73,11.44-3.32,22.9-4.47,34.42S44.23,586.55,45.14,598c-2.44-11.28-1.6-23.39-.46-34.79A190.64,190.64,0,0,1,51.14,529Z"/><path class="cls-2" d="M41.14,856a161.37,161.37,0,0,0,1.52,24.75c1.3,8.17,4.41,16.09,5.48,24.25-2.86-8-6.11-15.47-7.46-23.94A71.72,71.72,0,0,1,41.14,856Z"/><path class="cls-2" d="M53.14,860c1,16.57,4.62,32.79,8,49C54.86,894.23,50.92,876,53.14,860Z"/><path class="cls-2" d="M96.14,983c4.69,15,7.53,31,15,45-5.17-5.91-8.11-14.13-10.4-21.52A110.07,110.07,0,0,1,96.14,983Z"/><path class="cls-2" d="M111.14,983a229.8,229.8,0,0,1,7.84,22.27c1.76,5.54,3.15,11.73,6.16,16.73-4.6-4.5-6.77-12.18-8.68-18.1A154.72,154.72,0,0,1,111.14,983Z"/><path class="cls-3" d="M323.41,273.13q3.09,0,6.16.29c11.07,1.05,20.93,6.05,30.87,10.65,20.52,9.48,42.82,14.37,63.28,24,20.92,9.87,40.51,24.11,58.68,38.3,16.62,13,33.42,27.18,44.25,45.57,5.64,9.56,8.83,20.08,12.35,30.54,3.88,11.53,8.58,22.68,11.9,34.41,6.57,23.19,11.09,46.92,18.08,70,7.13,23.54,16,46.61,24.82,69.56,4.5,11.71,9.4,23.27,13.74,35,1.57,4.27,2.16,9,6.25,11.55,4.49,2.78,9.25,5.21,14,7.62,21.57,11.06,43.69,21,65.8,30.91q34.19,15.33,68.6,30.16c11.28,4.88,22.58,9.71,33.87,14.56,5.91,2.54,11.74,5.42,17.8,7.58,4.23,1.51,7.22,2,7.8,6.86a446.09,446.09,0,0,1,2.07,72.2c-2.12,46.38-10.54,92.87-28.45,135.86-16.36,39.26-40,75.72-70.23,105.73a277.58,277.58,0,0,1-26.43,23.18c-4.83,3.71-9.79,7.28-14.92,10.57-2.76,1.77-7.62,6.24-11.25,6.24a3.92,3.92,0,0,1-.77-.07c-2.52-.51-5.24-3.34-7.21-4.88s-4-3.19-6-4.73c-4.79-3.59-9.74-7-14.66-10.39q-15.46-10.73-31.23-21c-20.43-13.36-41.17-26.25-62.08-38.85-10.19-6.14-20.46-12.14-30.74-18.12-9.52-5.54-18.75-12.4-29.49-15.4a76.85,76.85,0,0,0-20.42-2.88,58.27,58.27,0,0,0-14.37,1.71,67.82,67.82,0,0,0-15.6,5.89c-4.77,2.6-8.65,6.37-13.12,9.41-8.61,5.86-19.25,6.92-29.33,8.12-5.38.64-10.75,1.34-16.16,1.66-.61,0-1.23.05-1.85.05-3,0-6.23-.35-9.32-.35a25,25,0,0,0-4.74.39c-3,.58-5.73,2.27-8.71,3a36.84,36.84,0,0,1-7.36,1c-.56,0-1.12,0-1.68,0a26.54,26.54,0,0,1-5.47-.51c-2.3-.49-4.33-1.46-6.66-1.46a8.1,8.1,0,0,0-.91.05c-5.6.63-10.86,2.24-16.6,2.32h-.8a48,48,0,0,1-13.24-1.72c-2.8-.8-5.36-2.84-8.11-3.48a4.44,4.44,0,0,0-1-.12c-1.66,0-2.93,1-4.53,1.73a37.93,37.93,0,0,1-15.5,3h-.46c-2.81,0-5.53-.8-8.32-.89h-.29c-2.76,0-4.18,1.32-6.44,2.8-4.71,3.09-10,5.38-15.06,7.76-21.47,10.05-43.36,19.54-66.1,26.36a69.47,69.47,0,0,1-20,3.29,47.8,47.8,0,0,1-13.25-1.83c-5.48-1.57-10.84-2.87-16.57-2.91h-.48c-2.79,0-5.57.17-8.34.17a34.19,34.19,0,0,1-8-.79c-16.79-4-25.46-20.94-30.37-36-3.27-10-6.05-20.15-9.59-30.11-3.8-10.68-7.1-21.4-8.8-32.63-.6-3.94.28-11.82-3.06-14.66-2.7-2.29-7.5-3-10.64-4.62-8.64-4.52-15.94-10.92-20.58-19.58-5.38-10-5.93-21.4-6.81-32.52-.93-11.71-3.76-22.9-6.24-34.34-2.65-12.2-3.82-24.19-2.26-36.63A120.11,120.11,0,0,1,17,783.38c1.15-4,4.11-9.49,1.57-13.19-2.93-4.25-7-7.64-9.69-12.13a46.49,46.49,0,0,1-5.52-13.43C.66,733.35,1.9,721,2.62,709.54c.75-11.91,1.71-23.79,3-35.65,1.3-11.47,2.16-23.4,5.56-34.49,1.77-5.78,4.6-11,7.52-16.28q1.84-3.32,3.74-6.6c.76-1.32,2.48-3.19,2.28-4.82-.24-2-4.65-5-5.95-6.51-1.52-1.75-3-3.58-4.35-5.45A69.27,69.27,0,0,1,6.7,586.56c-4.75-10.82-5-22.43-3.5-34,1.39-10.73,3.33-21.72,7-31.94,3.89-10.91,10.62-20.83,17-30.43s13.16-18.83,20.27-27.85c6.68-8.48,13.39-17,21.9-23.7a90.5,90.5,0,0,1,24.46-13.71,127.88,127.88,0,0,1,32.77-7.09c5.64-.54,11.28-1,16.9-1a80.46,80.46,0,0,1,18.18,1.88,11.61,11.61,0,0,0,2.51.4,3.83,3.83,0,0,0,2.54-1c1.65-1.33,3-3.86,4.23-5.59q4.86-6.59,10.1-12.87c7.62-9.1,15.93-17.6,23.92-26.38,7.68-8.44,15.28-16.9,23.13-25.18,8.16-8.6,15-18.08,21.56-27.92,5.67-8.48,10.93-17.53,17.77-25.14,7.44-8.27,17.41-13.46,27.85-17a88.74,88.74,0,0,1,28.15-5m0-3a91.16,91.16,0,0,0-29.11,5.18c-12.66,4.29-22.18,10.12-29.12,17.83-5.37,6-9.77,12.78-14,19.36-1.31,2-2.66,4.11-4,6.12-5.76,8.6-12.78,18.6-21.25,27.52-6.34,6.69-12.62,13.6-18.69,20.29l-4.48,4.93c-2.53,2.78-5.13,5.58-7.66,8.28-5.45,5.86-11.09,11.92-16.34,18.18-3.41,4.07-6.85,8.45-10.21,13-.44.6-.87,1.25-1.28,1.89a15.1,15.1,0,0,1-2.41,3.14c-.37.3-.51.3-.66.3a10.41,10.41,0,0,1-1.83-.33,83.17,83.17,0,0,0-18.86-2c-6.21,0-12.45.52-17.19,1-12.8,1.23-23.77,3.61-33.54,7.27A93.32,93.32,0,0,0,67.47,436.3c-8.88,7-15.75,15.76-22.4,24.2-7.61,9.66-14.28,18.83-20.41,28l-.72,1.08c-6.27,9.41-12.74,19.15-16.61,30-4,11.31-5.92,23.34-7.11,32.56C-1.63,566.44-.44,577.75,4,587.77a71.59,71.59,0,0,0,8.11,13.76c1.47,2,3,3.88,4.49,5.63a23.29,23.29,0,0,0,2.21,2.08,24.15,24.15,0,0,1,3,2.87,12.39,12.39,0,0,1-1,1.65c-.28.41-.57.83-.82,1.26-1.3,2.24-2.56,4.48-3.77,6.65-3.18,5.74-6,11-7.76,16.85-3,9.64-4,19.83-5.09,29.68-.19,1.79-.38,3.57-.58,5.35C1.46,684.4.46,696.11-.37,709.35q-.11,1.84-.24,3.7c-.72,10.7-1.46,21.76,1,32.27a49.36,49.36,0,0,0,5.88,14.3,50.14,50.14,0,0,0,5.6,7.17,54.21,54.21,0,0,1,4.18,5.11c1.15,1.67,0,5-1,7.87-.34,1-.67,1.88-.93,2.78a123.85,123.85,0,0,0-3.94,18.94c-1.47,11.67-.73,23.63,2.3,37.64q.62,2.86,1.26,5.7c2.14,9.61,4.16,18.69,4.92,28.24l.18,2.26c.82,10.58,1.67,21.53,7,31.45,4.64,8.67,12,15.67,21.83,20.82a32.2,32.2,0,0,0,4.71,1.84c2.06.68,4.19,1.39,5.37,2.4,1.44,1.22,1.61,5.68,1.73,8.62a40.36,40.36,0,0,0,.3,4.2c1.86,12.34,5.56,23.7,8.94,33.19,2.15,6,4.06,12.29,5.91,18.33,1.17,3.83,2.39,7.8,3.66,11.7,7.09,21.78,18,34.56,32.53,38a36.49,36.49,0,0,0,8.65.87c1.43,0,2.87,0,4.25-.09s2.74-.09,4.09-.09h.45c5.1,0,10,1.15,15.77,2.8a50.45,50.45,0,0,0,14.07,1.95,72.41,72.41,0,0,0,20.82-3.42c24.2-7.25,47.2-17.47,66.51-26.51l2.08-1a103.39,103.39,0,0,0,13.34-7l1.05-.71c1.67-1.14,2.4-1.6,3.74-1.6h.19a31.63,31.63,0,0,1,3.62.41,33.81,33.81,0,0,0,4.77.48h.49a40.73,40.73,0,0,0,16.76-3.28c.48-.22.93-.46,1.32-.67a5,5,0,0,1,1.95-.78,1.45,1.45,0,0,1,.33,0,16.56,16.56,0,0,1,3.53,1.52,24,24,0,0,0,4.44,1.92,51.12,51.12,0,0,0,14.07,1.84h.84a62,62,0,0,0,10.65-1.33c2.14-.4,4.16-.77,6.25-1a5.14,5.14,0,0,1,.57,0,12.62,12.62,0,0,1,3.47.71c.81.24,1.64.49,2.56.68a29.29,29.29,0,0,0,6.09.58c.57,0,1.18,0,1.8,0a39.86,39.86,0,0,0,8-1.12,31.48,31.48,0,0,0,4.48-1.58,22.48,22.48,0,0,1,4.09-1.4,22.07,22.07,0,0,1,4.17-.34c1.46,0,3,.08,4.53.17s3.19.18,4.79.18c.72,0,1.39,0,2-.06,4.8-.28,9.6-.86,14.24-1.42l2.11-.25,1.21-.14c10.12-1.2,20.58-2.44,29.45-8.48,1.82-1.24,3.53-2.58,5.18-3.88a56.14,56.14,0,0,1,7.68-5.37,64.93,64.93,0,0,1,14.91-5.62,55.27,55.27,0,0,1,13.63-1.62A74.23,74.23,0,0,1,489.39,984c7.77,2.16,15,6.62,21.92,10.93,2.24,1.39,4.56,2.82,6.87,4.17,9.27,5.39,20,11.68,30.7,18.09,22.79,13.72,43.06,26.41,62,38.79,11.26,7.37,21.46,14.22,31.16,21l2.17,1.51c4.11,2.85,8.36,5.79,12.39,8.82,1.23.92,2.47,1.91,3.67,2.87l2.31,1.83c.41.32.88.72,1.39,1.16,1.95,1.67,4.37,3.75,7.07,4.29a7,7,0,0,0,1.36.13c3.74,0,7.6-2.86,10.7-5.16.82-.6,1.59-1.18,2.17-1.55,4.8-3.08,9.75-6.58,15.13-10.71a281.61,281.61,0,0,0,26.72-23.43c29.49-29.29,54-66.19,70.89-106.71,16.71-40.1,26.36-86.15,28.68-136.88,1.21-26.53.53-50.31-2.09-72.69-.73-6.25-4.84-7.65-8.46-8.88l-1.3-.45c-4.06-1.45-8.14-3.29-12.08-5.06-1.81-.81-3.68-1.66-5.54-2.46l-12.43-5.34c-7-3-14.29-6.13-21.43-9.22-25.49-11-47.92-20.89-68.57-30.14-21.6-9.68-43.93-19.69-65.66-30.84l-.35-.18c-4.48-2.3-9.11-4.67-13.39-7.32-2.27-1.4-3.1-4.05-4.05-7.12-.3-1-.6-1.94-1-2.92-2.55-6.91-5.33-13.84-8-20.55-1.91-4.76-3.88-9.67-5.74-14.53l0-.06c-8.67-22.55-17.63-45.87-24.73-69.29-3.79-12.52-6.91-25.48-9.93-38-2.52-10.49-5.13-21.34-8.14-31.93-2.1-7.42-4.78-14.69-7.36-21.72-1.54-4.19-3.14-8.53-4.58-12.82L540.66,418c-3.08-9.25-6.27-18.82-11.43-27.59-11.34-19.25-29.17-34-45-46.41-17.1-13.36-37.5-28.39-59.25-38.65-10.58-5-21.74-8.76-32.54-12.41-10.25-3.46-20.84-7-30.76-11.63L359,280.1c-9.14-4.26-18.58-8.66-29.17-9.66-2.1-.2-4.26-.3-6.44-.3Z"/><path class="cls-1" d="M617.22,645c-2.81-1.62-5.84-3-7.11-6.1-1.41-3.44-2.56-7-3.91-10.48q-5.17-13.26-10.32-26.52c-6.65-17.2-13.17-34.45-19.25-51.87-6.19-17.74-11.7-35.61-16.17-53.86-4.32-17.65-7.79-35.55-13.73-52.75-2.84-8.23-6.32-16.2-9-24.48-2.42-7.42-4.8-14.85-8.22-21.9-7.29-15.05-19.12-27-31.6-37.84a414.92,414.92,0,0,0-43.33-32.54c-15-10-29.88-19.27-46.88-25.47s-34.56-11.08-51.17-18.52c-7.72-3.46-15-7.45-23.49-8.8a72.73,72.73,0,0,0-24.71.87c-15.29,2.92-32.33,9.45-42.39,21.87-10.57,13.05-18.47,28.11-28.79,41.32a227.62,227.62,0,0,1-17.78,19.43c-6.26,6.33-11.92,13.34-17.95,19.9-6.27,6.83-12.67,13.54-18.92,20.4-5.68,6.24-10,13.28-15.24,19.85-10.3,13-23.77,25.91-20.14,44,2.92,14.6,13.42,27.08,25.75,34.95,13,8.26,29.07,12,44.35,11.51a297.49,297.49,0,0,0,52-6.51c16.5-3.45,34.38-8.11,49-16.81,6.82-4.06,12.5-10.22,18.44-15.41,4.38-3.82,8.85-7.52,13.11-11.49,5.16-4.8,11.19-10,14.57-16.3-4.6,8.52-12,15.11-18.25,22.34-1,1.12-4.3,3.8-4.39,5,0,.64.88,2,1.12,2.62q6,14.07,12.13,28.12c3.71,8.61,8.52,17.35,11.34,26.29,1,3.27-1.55,6.48-2.92,9.62-3.43,7.84-6.8,15.71-10,23.65-6,14.77-13.48,30.3-7.29,46.22,6.32,16.24,21.41,27.45,35.2,37.09,34.31,24,72.53,42.17,114.52,47a176.6,176.6,0,0,0,68-5c23.48-6.61,43.85-20,63.67-33.83C624,648.77,620.58,646.95,617.22,645Z"/><path class="cls-3" d="M214,507c6.6.51,14.08-1.11,20.66-1.78,7.47-.76,14.93-1.67,22.33-2.92a331.37,331.37,0,0,1-43.46,4.08c-.15,0,.73.82-.08.33Q213.5,507.18,214,507Z"/><path class="cls-3" d="M213.5,507c-28.66-.41-65.48-17.76-67-50.58-.83-17.74,14.54-30,23.94-43.16,10.38-14.55,22.82-27.06,34.84-40.28,13.6-15,26.78-30.33,38.45-46.86A92.59,92.59,0,0,1,229.87,349c-6.33,7.62-13,14.94-19.73,22.2-12.17,13.12-26,25.35-36,40.29-8.45,12.61-23.23,23.56-25.72,39.33-2.55,16.12,8.83,32.28,21.11,41.54a68.13,68.13,0,0,0,25,11.64,69,69,0,0,0,11.77,1.89C207.62,506,213,505.57,213.5,507Z"/><path class="cls-3" d="M355,452.65c21.5-7.09,39.77-21.08,50.77-41,7.36-13.32,11-28.06,13.23-43-5,23.74-18.63,46.93-35.77,63.82a116.27,116.27,0,0,1-13.1,11.14q-3.92,2.86-8.07,5.37C360,450.22,357.4,452.28,355,452.65Z"/><path class="cls-3" d="M354.2,452c28.63-18.75,50.36-55,42.84-90.2a139,139,0,0,1-5,30.62A104.24,104.24,0,0,1,381.57,418a66.46,66.46,0,0,1-8.41,11.42c-2.38,2.57-5.41,4.56-7.67,7.17C361.36,441.33,357.93,446.92,354.2,452Z"/><path class="cls-3" d="M349.49,459.06c30.13,2.09,53.6-19.86,70.4-42.32a172.86,172.86,0,0,1-23.3,21.14,127.59,127.59,0,0,1-23.42,14.49A77.13,77.13,0,0,1,360.7,457a58,58,0,0,1-6.34,1.34c-1.22.19-2.49.21-3.71.42C350.11,458.84,348.48,458.46,349.49,459.06Z"/><path class="cls-3" d="M339.81,462.43s49.23,19.74,92.37-14.75C432.18,447.68,380.07,473.12,339.81,462.43Z"/><path class="cls-4" d="M217.22,398.39c-23.48,5.86-41.15,24.32-54.08,43.8,6.63,2.12,13.32,4,19.84,6.39,8,3,15.64,6.14,24,7.84a129.15,129.15,0,0,0,44.88.85c2.47-.38,6.27-.45,8.09-2.05,3.19-2.8,5.66-8.56,7.8-12.21s4-7.11,5.81-10.76,4.79-7.79,4.14-11.7c-1.81-10.9-12-18.05-21.85-21.16C243.59,395.48,229.75,395.71,217.22,398.39Z"/><path class="cls-5" d="M286.63,421.1c1-5.5-4.52-11.3-8.28-14.62A47.13,47.13,0,0,0,260.78,397c-10.09-3.09-20.63-4.69-31.18-3.65-13.82,1.37-26.81,7-38.44,14.39a201.5,201.5,0,0,0-30.86,24c-3.14,3-6.2,6.52-1.06,9,.75.36,3.1,1.63,3.9,1.43s2.4-3.54,3-4.43q2-2.83,4.09-5.58a97.82,97.82,0,0,1,15-16.19c10.06-8.37,21.5-15.78,34.6-18.12a81.43,81.43,0,0,1,29.88,0c10.08,2,20.43,6.7,25.5,16.14,1.15,2.14,2.58,5.08,2.67,7.55.14,3.55-3.08,8.21-4.69,11.41a183.42,183.42,0,0,1-13.7,22.9c4-.89,9-1.78,12.29-4.43,2.71-2.19,4.53-5.76,6.16-8.77C281.56,436.08,285.29,428.51,286.63,421.1Z"/><path class="cls-2" d="M356.65,450.64C337.77,474.53,311.19,489.26,282,497a303.74,303.74,0,0,1-56.47,9.27c-16,1.12-32.29-.19-46.82-7.5-17.49-8.8-36.3-30-30.55-51.09,4.1,16.41,13,30.65,29,37.63a62.14,62.14,0,0,0,13.65,3.91,193.94,193.94,0,0,0,42.34,2.89c41.81-1.44,83.72-15.83,112.2-47.58,22-24.51,33.69-56.26,38.86-88.4,3,18-.63,36.7-6.49,53.73C372.79,424.23,366.08,438.69,356.65,450.64Z"/><path class="cls-3" d="M376.86,414.75c-6.53,17.72-16,34.64-29.27,48.22-13.68,14-31,23.8-49.33,30.41-20.53,7.4-42.31,11.15-64,13.44-19.56,2.07-39.53,1.6-57.27-7.93-17.19-9.24-34.85-30.35-28.84-51.18-5.4,22,14.62,43,33.06,51.23,21.37,9.58,45.07,6.62,67.47,3.29,24.23-3.6,48.62-9.26,70.17-21.33a120.59,120.59,0,0,0,46.21-45.08c13.42-23.27,22.69-52.62,19.11-79.66C387.72,375.87,383.69,396.21,376.86,414.75Z"/><path class="cls-6" d="M30.14,802c-6.39,16-4.81,33.63,5.47,47.58,4.82,6.55,10,12.06,18.43,11.6,9.81-.53,19.64-3.66,28.94-6.6,12.88-4.07,25.52-8.89,38-14.06,12.27-5.08,24.41-10.53,36.26-16.53,8.07-4.09,16.68-8.26,23.73-14,1.56-1.28,3.38-2.61,1-3.84-3-1.56-8.57-.46-11.71-.28-15.56.93-31,2.93-46.59,4.09-20.86,1.55-41.85,2.15-62.49-1.86-7.59-1.47-15-3.63-22.4-5.73C37.21,801.91,31.15,799.46,30.14,802Z"/><path class="cls-6" d="M48.14,651c-14.53,6.46-25.42,22.09-25.76,38.11-.11,5,.78,12.72,4.94,16.23,2.41,2,6.07,2.11,9.06,2,11.69-.53,23.44-5.16,34.29-9.14,14.55-5.34,28.84-11.38,43.18-17.26,13.24-5.43,26.52-11,40.22-15.18,1.6-.49,13.14-2.26,7.51-5.09-5.95-3-14.1-3.36-20.56-4.27-11.39-1.61-22.84-2.76-34.3-3.74-12.63-1.08-25.29-1.95-38-2.34-4.46-.14-8.92-.24-13.38-.1C53.12,650.24,50.25,650.06,48.14,651Z"/><path class="cls-6" d="M97.64,957.5c-4.15-1.19-13.26-3.88-16.21,1.11-2.26,3.82.91,9.35,2.93,12.55C89.3,979,97.92,988.28,108,987.4c12.58-1.1,25.21-5.14,37.22-8.81a399.07,399.07,0,0,0,50.93-19.19c13.68-6.33,28.64-13.63,39.25-24.64,3.39-3.52,4.44-6.94-1.5-7.11-8.6-.24-17.67,2.6-25.92,4.67-13,3.28-26,7-38.92,10.66s-26.1,7.36-39.29,10.5c-9.06,2.15-18.79,4.8-28.19,4.51A16.05,16.05,0,0,1,97.64,957.5Z"/><path class="cls-6" d="M98.14,460c9,2.81,18.22,5,27.13,8.07,5.84,2,11.63,4.69,15.57,9.64,4.76,6,6.41,14,7.56,21.34s3.57,17.81-3.75,22.72c-6.79,4.56-17.13,3.24-24.78,2.69-12.41-.89-24.74-2.11-37.18-2.58-8.7-.33-19.87,0-27.75-4.38-5.61-3.13-4.57-8.48-1.71-13.32,3-5.11,7.29-9.29,11.08-13.8a195.85,195.85,0,0,0,13-17.91C82.39,464.78,87.77,456.76,98.14,460Z"/><path class="cls-6" d="M316.33,325.61C303.41,325,297.63,312.33,302,301c1.74-4.49,5.17-8.65,10-9.82,3.5-.84,7.3.22,10.74,1A402.49,402.49,0,0,1,394.53,315c12.79,5.38,25.51,11.46,36.87,19.5,8,5.65,17.13,13.24,19.43,23.26,1,4.14-.69,4.63-4.27,3.16-6.62-2.72-12.85-6.5-19.34-9.55C392.53,335,354.49,327.41,316.33,325.61Z"/><path class="cls-6" d="M632.14,679c28.3,47.17,145,88,168,82S626.14,669,632.14,679Z"/><path class="cls-6" d="M556.14,882c27.3,41.86,125,89,148,81S541.14,859,556.14,882Z"/><path class="cls-6" d="M530,489c7.37,20.57,14.45,41.24,20.94,62.11,7.58,24.36,15.36,49.4,18.41,74.82.9,7.53,1,14.68-.74,22.07-1.86,7.93-4.11,15.77-6.47,23.56-5.51,18.22-11.38,36.89-20.16,53.84-1.81,3.49-5,11-9.44,12.06-4.66,1.09-5.7-7.06-6.18-10-2.21-13.7-1.38-28.11-.8-41.89a332.32,332.32,0,0,1,3.82-39.66c2.32-14.15,6.12-27.65,4-42.1-4.4-30.1-18-58.39-26.26-87.47-3.31-11.67-6.59-24-6.63-36.2,0-4.34.15-11.37,4.58-13.84,8.06-4.48,17.86,9.27,21.1,14.71A46.16,46.16,0,0,1,530,489Z"/></g></svg>