<svg xmlns="http://www.w3.org/2000/svg" viewBox="0 0 826.21 1096.88"><defs><style>.cls-1{fill:#80664d;}.cls-2{fill:#fc9;}.cls-3{fill:#bf9973;}.cls-4{fill:#ffebd6;}.cls-5{fill:#ffe0c2;}.cls-6{fill:#ffd6ad;}</style></defs><title>Hand</title><g id="Frame_2" data-name="Frame 2"><path class="cls-1" d="M303.76,331.11c7.77,0,15.54,1.49,23.27,2.51,23.89,3.13,48.2,1.37,71.89,6.27,22.79,4.72,44.76,12.79,66.24,21.61,18.48,7.58,37.43,16,52,30.09,15,14.56,23.87,34.29,30.31,53.86,7.26,22.07,11.28,45,17.36,67.39,6.26,23,14.55,45.48,23,67.81q6.45,17.11,13.12,34.13,2.95,7.57,5.9,15.14c1.69,4.33,2.79,9.58,6.56,12.64,8.3,6.74,19.5,11.31,29.09,15.88,10.08,4.8,20.32,9.24,30.49,13.83,44.76,20.23,89.78,39.82,134.94,59.11,2.17.93,4.33,1.9,6.54,2.72,1.94.72,4.95,1,6.31,2.73,1.18,1.48.93,3.78,1.07,5.54.21,2.69.57,5.37.81,8.06,1.06,11.84,1.49,23.74,1.58,35.62.37,47.05-5.45,94.47-20.21,139.26a331.16,331.16,0,0,1-62.47,111.43,281,281,0,0,1-48,44.77q-6.68,4.85-13.72,9.14c-1.86,1.13-3.77,2.55-5.71,3.52a4.11,4.11,0,0,1-1.82.52c-1.13,0-1.91-.76-3.17-1.77-9.05-7.26-18.59-13.8-28.16-20.36q-58.41-40-119.9-75.26c-9.4-5.4-18.49-12.07-28.84-15.54A70.83,70.83,0,0,0,470,978.19a61.35,61.35,0,0,0-11.58,1.06c-11.12,2.15-20,7.09-28.88,13.86-8,6.14-17.06,8.25-26.95,9.55A258.08,258.08,0,0,1,370.3,1005c-5.59,0-10,2.38-15.4,3.45a28.21,28.21,0,0,1-5.55.54,52.84,52.84,0,0,1-9.74-1.14,17.66,17.66,0,0,0-3.25-.29c-4,0-7.85,1.19-11.94,1.66a63.31,63.31,0,0,1-7.16.42,50.64,50.64,0,0,1-10.57-1.07c-3.88-.83-8.09-4.09-12.07-4.1l-.53,0c-2.47.19-5.13,1.74-7.5,2.47a43.47,43.47,0,0,1-9.32,1.89c-1.46.12-3,.22-4.46.22a24.91,24.91,0,0,1-3.14-.18c-1.62-.21-3.3-.94-4.95-.94h-.31c-2.37.14-4.15,1.9-6,3.2a57.15,57.15,0,0,1-7.36,4.14c-10.65,5.36-21.65,10-32.64,14.55-10.82,4.53-21.69,9-32.81,12.73-8.84,3-18.17,6.16-27.59,6.16a38.17,38.17,0,0,1-6.47-.54c-5.34-.92-10.28-3.35-15.63-4.24a36.35,36.35,0,0,0-6-.43c-3.28,0-6.57.28-9.86.28-.85,0-1.69,0-2.54-.06-9.61-.53-18-5.47-24.13-12.76-6.79-8.1-10.61-18-13.6-28-3.37-11.3-7-22.39-10.81-33.56a159.06,159.06,0,0,1-7.14-32.14c-.25-2.09.26-5.57-1.13-7.29-1-1.28-3.13-1.35-4.56-1.83a54.24,54.24,0,0,1-14.39-7.68A44.45,44.45,0,0,1,25,897c-3.09-10.56-2.65-21.69-4.24-32.5-3.27-22.25-10.83-43.25-7.22-66a151.65,151.65,0,0,1,3.6-16.63c1.12-4.06,4.31-8.34,1.17-12.11C11.47,761.53,5.13,754.52,3,743.58s-.87-22.7-.31-33.82c.61-12,1.67-23.89,2.92-35.8,1.2-11.43,2.08-23.45,5.56-34.46a84.47,84.47,0,0,1,6.51-14.73c1.17-2.16,2.41-4.28,3.66-6.39.91-1.54,3.5-4.31,3.47-6.18s-3-3.87-4.25-5.11a60.35,60.35,0,0,1-4.67-5.49,68.06,68.06,0,0,1-9.14-15.07c-4.17-9.84-4.91-20.25-3.93-30.78A141.74,141.74,0,0,1,9.7,522.42c3.54-10.1,9.26-19.2,15.1-28.1,6.48-9.86,13.33-19.46,20.4-28.91,6.74-9,13.58-18.2,22.14-25.58,15.46-13.32,35.74-19.16,55.63-21.63a170.32,170.32,0,0,1,20.82-1.52,85.43,85.43,0,0,1,13.62,1C168,419.41,177.14,425,187.88,426c4.66.43,9.35.55,14,.55l3.52,0c2.66,0,5.32-.08,8-.13h.15c1.17,0,2.78.22,4.24.22a6.54,6.54,0,0,0,2.45-.37c2.74-1.15,4.46-8.55,5.4-11.08,2.09-5.63,3.92-11.37,5.8-17.07,3.45-10.46,5.87-21.51,11.39-31.15,5-8.78,12.81-15.62,21-21.33,8.93-6.2,19.1-11.24,29.79-13.52a48.1,48.1,0,0,1,10.09-1m0-3A50.83,50.83,0,0,0,293,329.17c-10.27,2.19-20.65,6.9-30.87,14-10.38,7.2-17.34,14.29-21.93,22.3-4.28,7.48-6.76,15.73-9.16,23.71-.79,2.64-1.61,5.37-2.48,8l-1,3.13c-1.5,4.57-3,9.29-4.73,13.84-.22.58-.45,1.32-.71,2.17-.49,1.58-2,6.34-3.09,7.21a4.63,4.63,0,0,1-1.23.11c-.66,0-1.41-.06-2.13-.11s-1.45-.11-2.11-.11h-.2l-2.23,0c-1.91,0-3.82.07-5.74.09l-3.49,0c-5.42,0-9.79-.17-13.76-.53-5.44-.5-10.47-2.27-15.8-4.16a83.2,83.2,0,0,0-14.47-4.13,87.71,87.71,0,0,0-14.1-1.05,174.71,174.71,0,0,0-21.19,1.54c-24.6,3-43.32,10.35-57.22,22.33-8.69,7.49-15.61,16.73-22.3,25.66l-.29.39C35,474,28.29,483.54,22.3,492.67S10.51,511,6.87,521.43a144.45,144.45,0,0,0-7,34.05C-1.32,567.85,0,578.4,4,587.71a70.54,70.54,0,0,0,9.53,15.74,63.36,63.36,0,0,0,4.9,5.76c.4.4.86.79,1.35,1.2a13.24,13.24,0,0,1,2,1.91A17.32,17.32,0,0,1,20,615c-.47.64-.91,1.24-1.25,1.81-1,1.77-2.42,4.11-3.71,6.49A86.44,86.44,0,0,0,8.31,638.6c-3.15,9.94-4.22,20.54-5.25,30.79q-.22,2.14-.44,4.26C1.16,687.6.23,699-.31,709.61c-.09,1.85-.21,3.71-.32,5.59-.58,9.54-1.19,19.41.68,29,2.15,11,8.25,18.28,14.7,26L16,771.68c1.12,1.35.71,2.81-.59,6.09a32.85,32.85,0,0,0-1.17,3.3,154.8,154.8,0,0,0-3.67,17c-2.68,16.87.61,32.92,3.79,48.45,1.23,6,2.51,12.27,3.42,18.48.56,3.84.88,7.84,1.18,11.7.54,7,1.1,14.19,3.15,21.2A47.31,47.31,0,0,0,40,922.9,57.15,57.15,0,0,0,55.23,931a16.37,16.37,0,0,0,1.59.42,7.13,7.13,0,0,1,1.6.48,10.66,10.66,0,0,1,.36,3.35,22.78,22.78,0,0,0,.11,2.39,162.41,162.41,0,0,0,7.27,32.75c3.54,10.48,7.3,21.79,10.78,33.46,2.79,9.35,6.66,20.12,14.18,29.09,7,8.38,16.35,13.29,26.27,13.83.85,0,1.73.07,2.7.07,1.71,0,3.41-.07,5.06-.14s3.22-.14,4.8-.14a33.06,33.06,0,0,1,5.49.39,51.88,51.88,0,0,1,7.45,2,58.21,58.21,0,0,0,8.16,2.21,41.39,41.39,0,0,0,7,.58c9.88,0,19.33-3.19,28.46-6.28l.09,0c11.66-3.94,23.15-8.68,33-12.81l.74-.31c10.61-4.45,21.59-9,32.09-14.33l.45-.23a56.07,56.07,0,0,0,7.29-4.14c.4-.28.79-.58,1.18-.88,1.22-.92,2.27-1.72,3.25-1.78h.13a9.81,9.81,0,0,1,2.17.41,19.22,19.22,0,0,0,2.4.51,27.67,27.67,0,0,0,3.52.21c1.67,0,3.32-.12,4.71-.23a46.21,46.21,0,0,0,10-2c1-.3,1.92-.69,2.84-1.07a15.12,15.12,0,0,1,4-1.27h.3c1.65,0,3.76,1,5.79,1.91a27.58,27.58,0,0,0,5.65,2.12,53.78,53.78,0,0,0,11.2,1.13,66.56,66.56,0,0,0,7.5-.44c1.69-.19,3.31-.5,4.88-.79a37,37,0,0,1,6.72-.85,14.59,14.59,0,0,1,2.7.24,55.89,55.89,0,0,0,10.29,1.19,31.11,31.11,0,0,0,6.14-.6,60,60,0,0,0,6-1.6,30.69,30.69,0,0,1,8.86-1.79,261.78,261.78,0,0,0,32.71-2.35c9.47-1.25,19.46-3.34,28.37-10.14C441.2,988,449.46,984,459,982.2a58.3,58.3,0,0,1,11-1,67.46,67.46,0,0,1,21.22,3.41c7.25,2.44,14.09,6.65,20.7,10.72,2.48,1.53,5,3.11,7.6,4.58C561,1023.7,601.26,1049,639.27,1075c9.34,6.4,19,13,28,20.23l.41.33a7.12,7.12,0,0,0,4.63,2.1,7,7,0,0,0,3.15-.83,39.75,39.75,0,0,0,4-2.42c.67-.44,1.3-.85,1.91-1.22,4.69-2.85,9.38-6,13.93-9.28a284.45,284.45,0,0,0,48.47-45.25,336.13,336.13,0,0,0,63-112.44C820.74,884,827.59,836.86,827.19,786c-.1-13.28-.62-25-1.59-35.86-.11-1.23-.24-2.47-.38-3.67-.16-1.44-.32-2.92-.43-4.36,0-.34,0-.69,0-1.06-.05-1.76-.12-4.18-1.67-6.11s-4.08-2.67-6.07-3.21c-.58-.16-1.13-.3-1.54-.46-1.63-.6-3.21-1.29-4.89-2l-1.52-.65c-51.55-22-94.41-40.8-134.89-59.09q-4.67-2.11-9.36-4.19c-6.94-3.1-14.12-6.3-21.08-9.61-1.69-.81-3.44-1.62-5.21-2.43-8.23-3.81-16.73-7.75-23.28-13.06-2.31-1.88-3.43-5.08-4.6-8.48-.34-1-.68-2-1.06-2.93q-3-7.57-5.9-15.14c-4.19-10.77-8.68-22.35-13.11-34.1C582,556.94,573.85,534.74,567.69,512c-2.35-8.66-4.44-17.58-6.45-26.21-3.18-13.63-6.48-27.73-11-41.34-5.17-15.71-14-38.52-31.07-55.08-14.82-14.39-34.26-23.06-52.91-30.71C447,350.78,423.92,342,399.53,336.95c-13.89-2.87-28.11-3.5-41.87-4.1-10-.44-20.25-.89-30.24-2.2-1.84-.24-3.73-.52-5.55-.78a125.83,125.83,0,0,0-18.11-1.75Z"/><path class="cls-2" d="M824.19,786c.37,47.05-5.45,94.47-20.21,139.26a331.16,331.16,0,0,1-62.47,111.43,281,281,0,0,1-48,44.77q-6.68,4.85-13.72,9.14c-1.86,1.13-3.77,2.55-5.71,3.52-2.33,1.16-3.16.21-5-1.25-9.05-7.26-18.59-13.8-28.16-20.36q-58.41-40-119.9-75.26c-9.4-5.4-18.49-12.07-28.84-15.54a69.06,69.06,0,0,0-33.76-2.51c-11.12,2.15-20,7.09-28.88,13.86-8,6.14-17.06,8.25-26.95,9.55A258.07,258.07,0,0,1,370.3,1005c-5.59,0-10,2.38-15.4,3.45s-10,.39-15.29-.6-10,.78-15.19,1.37a55.24,55.24,0,0,1-17.73-.65c-4.05-.87-8.47-4.39-12.6-4.08-2.47.19-5.13,1.74-7.5,2.47a43.46,43.46,0,0,1-9.32,1.89,37.06,37.06,0,0,1-7.6,0c-1.72-.22-3.5-1-5.26-.93-2.37.14-4.15,1.9-6,3.2a57.16,57.16,0,0,1-7.36,4.14c-10.65,5.36-21.65,10-32.64,14.55-10.82,4.53-21.69,9-32.81,12.73-10.86,3.67-22.45,7.61-34.06,5.62-5.34-.92-10.28-3.35-15.63-4.24-6.1-1-12.25.11-18.37-.22-9.61-.53-18-5.47-24.13-12.76-6.79-8.1-10.61-18-13.6-28-3.37-11.3-7-22.39-10.81-33.56a159.06,159.06,0,0,1-7.14-32.14c-.25-2.09.26-5.57-1.13-7.29-1-1.28-3.13-1.35-4.56-1.83a54.24,54.24,0,0,1-14.39-7.68A44.45,44.45,0,0,1,25,897c-3.09-10.56-2.65-21.69-4.24-32.5-3.27-22.25-10.83-43.25-7.22-66a151.63,151.63,0,0,1,3.6-16.63c1.12-4.06,4.31-8.34,1.17-12.11C11.47,761.53,5.13,754.52,3,743.58s-.87-22.7-.31-33.82c.61-12,1.67-23.89,2.92-35.8,1.2-11.43,2.08-23.45,5.56-34.46a84.47,84.47,0,0,1,6.51-14.73c1.17-2.16,2.41-4.28,3.66-6.39.91-1.54,3.5-4.31,3.47-6.18s-3-3.87-4.25-5.11a60.34,60.34,0,0,1-4.67-5.49,68,68,0,0,1-9.14-15.07c-4.17-9.84-4.91-20.25-3.93-30.78A141.74,141.74,0,0,1,9.7,522.42c3.54-10.1,9.26-19.2,15.1-28.1,6.48-9.86,13.33-19.46,20.4-28.91,6.74-9,13.58-18.2,22.14-25.58,15.46-13.32,35.74-19.16,55.63-21.63,11.28-1.4,23.15-2.33,34.43-.5C168,419.41,177.14,425,187.88,426a173.11,173.11,0,0,0,17.55.53c2.66,0,5.32-.08,8-.13,1.89,0,5.06.6,6.84-.15,2.74-1.15,4.46-8.55,5.4-11.08,2.09-5.63,3.92-11.37,5.8-17.07,3.45-10.46,5.87-21.51,11.39-31.15,5-8.78,12.81-15.62,21-21.33,8.93-6.2,19.1-11.24,29.79-13.52,11.14-2.38,22.28.06,33.36,1.51,23.89,3.13,48.2,1.37,71.89,6.27,22.79,4.72,44.76,12.79,66.24,21.61,18.48,7.58,37.43,16,52,30.09,15,14.56,23.87,34.29,30.31,53.86,7.26,22.07,11.28,45,17.36,67.39,6.26,23,14.55,45.48,23,67.81q6.45,17.11,13.12,34.13,2.95,7.57,5.9,15.14c1.69,4.33,2.79,9.58,6.56,12.64,8.3,6.74,19.5,11.31,29.09,15.88,10.08,4.8,20.32,9.24,30.49,13.83,44.76,20.23,89.78,39.82,134.94,59.12,2.17.93,4.33,1.9,6.54,2.72,1.94.72,4.95,1,6.31,2.73,1.18,1.48.93,3.78,1.07,5.54.21,2.69.57,5.37.81,8.06C823.67,762.27,824.1,774.17,824.19,786Z"/><path class="cls-3" d="M306.58,740.68c-4.6,8.34-10.36,17-18.88,21.74-6.12,3.42-13.61,5.26-20.34,7.11-19.89,5.47-40.3,9.18-60.63,12.51-24.17,4-48.49,6.92-72.82,9.7-16,1.83-32.19,3.68-48.35,3.73-17.15.06-33.76-2.67-48.86-11.32,12.9,2.76,25.76,4.88,39,5.23,24,.63,48.15-2.49,71.85-6.1,32.06-4.88,64.44-9.87,96.16-16.72,20.31-4.39,46.46-11,58.8-29.57,2.49-3.75,3.66-9,4.84-13.37a92,92,0,0,0,2.87-14.85,90.86,90.86,0,0,0-2.27-30.16c-4.83-20.29-15.72-37-26.35-54.56,14.54,14.88,27,32.24,32.68,52.48A85.1,85.1,0,0,1,306.58,740.68Z"/><path class="cls-1" d="M282.17,764.75c-16.19,6.94-33.6,10.4-50.79,13.88q-27.37,5.55-55,9.38-27.94,3.82-56,6.67c-18.19,1.82-36.7,3.37-54.86.47a79.55,79.55,0,0,1-26.92-9.28c-7.31-4.18-16.18-10.19-21.41-16.87,5.35,6.14,14,11.49,21.09,15.36a80,80,0,0,0,22.54,7.81c16.23,3.24,33,2.42,49.32.79,36.91-3.68,73.91-8.24,110.5-14.39C241.28,775.09,262.31,771.72,282.17,764.75Z"/><path class="cls-2" d="M230,419.13c.17-.65.36-1.34.56-2.07C230.43,417.75,230.24,418.44,230,419.13Z"/><path class="cls-2" d="M230.61,417.06c.27-1,.54-2,.79-2.93C231.13,415.17,230.86,416.14,230.61,417.06Z"/><path class="cls-2" d="M237.14,392a34.91,34.91,0,0,1,5.17-10.8c-3.18,4.71-5,10.11-6.37,15.56Z"/><path class="cls-2" d="M324.22,347.45l2.07.09Q325.25,347.51,324.22,347.45Z"/><path class="cls-2" d="M390.14,348c2.54.47,5.09.93,7.63,1.42a111.35,111.35,0,0,0-20.72-2C381.36,347.39,385.87,347.22,390.14,348Z"/><path class="cls-2" d="M524.14,401a124.68,124.68,0,0,1,7.26,10.16,83.6,83.6,0,0,0-22.21-23.42A66,66,0,0,1,524.14,401Z"/><path class="cls-2" d="M536.5,419.78q1.2,2.19,2.29,4.4C538,422.7,537.29,421.24,536.5,419.78Z"/><path class="cls-2" d="M539.51,425.66c13.75,28.33,17.71,59.2,24.63,85.34C556.32,482.33,552.46,452.6,539.51,425.66Z"/><path class="cls-2" d="M567.39,522.12c5.85,18.66,15.73,45.69,24.62,69.27C583.35,568.49,574.62,545.52,567.39,522.12Z"/><path class="cls-2" d="M607.57,631.92q-1.26-3.23-2.51-6.45Z"/><path class="cls-1" d="M206,487.14c-29.67-13.49-58.66-28.28-91.82-30.14C146.85,453.82,179.32,469.74,206,487.14Z"/><path class="cls-1" d="M173.14,439c12.05,9.79,21.07,26.37,21.42,42C189.3,465.87,181.88,452.38,173.14,439Z"/><path class="cls-1" d="M257.14,641c-14.73,4.5-30.49,3.45-45.61,2-16.66-1.58-33.2-4-49.77-6.37-16-2.25-32.11-4.41-48.31-4.44s-31.92,2-48-1c-15.08-2.74-30.87-8.49-41.28-20.24,19,18.78,48.77,21.08,74,19.15A242.62,242.62,0,0,1,149.36,632c17.55,2.33,35,5.38,52.53,7.79C220.07,642.28,239,645.29,257.14,641Z"/><path class="cls-3" d="M281.88,527c-5.55-13.89-23.52-21.52-36.28-26.83-12.27-5.1-25-8.75-37.66-12.57,15.39,4.47,31,8,46.41,12.49,10.61,3.07,22.11,6.43,30.95,13.36,9.52,7.46,11.71,20.3,14,31.54,3,14.71,4.06,30.7-1,45.09-4.69,13.24-9.2,26.08-18.9,36.65-10.54,11.49-24.5,16.42-39.87,16.9-16.88.53-34-2.08-50.71-4.44-18-2.54-35.86-5.61-53.92-7.42a185.75,185.75,0,0,0-30.09-.64c-9.13.56-18.2,1.14-27.34.58-17-1-34.3-5.44-48-16,.37-.45,14.57,5,16.39,5.49A125.39,125.39,0,0,0,64,624.35c12.59,1.31,25.27,1.06,37.9.63s25-1,37.52-.6c13.87.42,27.71,1.51,41.57,2.2,11,.55,22,.33,32.91,1.43,9.41,1,19,1.93,28.33.07,20.18-4,32.35-21.14,38.55-39.59C287.21,569.46,289.5,546.05,281.88,527Z"/><path class="cls-3" d="M304.59,789.21c-2-8.41-7.14-15.82-12.32-22.56,1.84,5.34,4.24,10.47,5.92,15.86a55.59,55.59,0,0,1,2.07,18A318.43,318.43,0,0,1,297.89,836c-.71,5.27-1.11,11.91-3.52,16.69a28.73,28.73,0,0,1-6.3,7.64c-4.85,4.45-10.79,7.45-16.82,10C254,877.5,236,882.56,219.21,891c-11,5.49-21.54,11.64-32.72,16.74a319.51,319.51,0,0,1-30.33,12c-19.71,6.66-40,11.15-60.42,15,15.79,1,30.55-1,45.89-4.6a265,265,0,0,0,52-17.72c9.1-4.3,17.71-9.52,26.88-13.69,9.75-4.43,19.75-8.26,29.7-12.21,9-3.57,18-7.18,26.39-12A49.47,49.47,0,0,0,295.78,855c5.26-9.27,7.7-19.91,9-30.4C306.17,813.1,307.25,800.59,304.59,789.21Z"/><path class="cls-1" d="M61.14,930c7,1.88,14.2,2.36,21.34,3,7.66.66,15.36,1.22,23.06,1.14,14.42-.15,28.57-3.35,42.44-7a276.77,276.77,0,0,0,41.55-14.37c13.15-5.86,25.59-13.2,39-18.61,15.1-6.12,30.71-11,45.41-18.07-12.66,7.29-26.43,12.31-39.84,18S208.12,907,195,913.32a242.69,242.69,0,0,1-40.81,15c-14.27,4-28.88,7.55-43.77,7.83a175.33,175.33,0,0,1-24.88-1.65C77.36,933.53,69,932.56,61.14,930Z"/><path class="cls-3" d="M295.9,963.14c-4.5,9.76-9.19,19.64-15.43,28.43A66.93,66.93,0,0,1,264,1007.5c-8.71,6.2-18.43,10.62-28.22,14.94Q214.17,1032,192,1040.08c-13.13,4.81-27.27,10.7-41.48,8-8.17-1.57-14.7-4.85-23.29-4.38-10.95.6-20.6-.33-29.26-7.95,5.68,1.54,11.34,3.66,17.22,4.31,9,1,18.11.33,27.11.5,6.91.13,14.13,2.14,21,1.29a67,67,0,0,0,13.13-3.54c9.56-3.26,19-7,28.4-10.59,23.69-9.14,46.87-19.34,66.53-35.75C280.9,984,290.28,974.41,295.9,963.14Z"/><path class="cls-2" d="M234.88,400.91c.29-1.16.58-2.31.88-3.45Z"/><path class="cls-2" d="M276.5,352.61c-13.5,6.63-25.91,17.07-33.2,27.17C251.57,368.18,263.74,358.82,276.5,352.61Z"/><path class="cls-2" d="M282.32,350a63.47,63.47,0,0,1,11.43-3.44A65.65,65.65,0,0,0,282.32,350Z"/><path class="cls-2" d="M293.75,346.58c1.18-.24,2.37-.43,3.57-.58C296.14,346.15,294.95,346.35,293.75,346.58Z"/><path class="cls-2" d="M304.22,345.66c6.7.12,13.31,1.41,20,1.79C317.54,347.12,310.88,345.86,304.22,345.66Z"/><path class="cls-2" d="M370.68,347.47c-9.58.16-21.27.49-32.94.36C348.72,347.93,359.7,347.61,370.68,347.47Z"/><path class="cls-2" d="M398.24,349.51l1.16.23Q397.08,349.31,398.24,349.51Z"/><path class="cls-2" d="M457.91,364.62c-1.31-.43-2.63-.84-3.94-1.25Z"/><path class="cls-2" d="M454,363.37c-16.8-5.24-33.12-9.13-45.19-11.71C424,354.88,439.12,358.69,454,363.37Z"/><path class="cls-2" d="M405.17,350.9l3.61.76Z"/><path class="cls-2" d="M474.57,370.5a186.89,186.89,0,0,1,28.12,13.15A196.5,196.5,0,0,0,474.57,370.5Z"/><path class="cls-3" d="M611.64,664.5s-35,76-76,111C535.64,775.5,598.64,734.5,611.64,664.5Z"/><path class="cls-3" d="M440.64,985.29c-6.91,3.14-11.58,9.74-18.5,12.71-5.3,2.28-11.45,3.11-17.09,4.07a201.66,201.66,0,0,1-27.43,3.11c-4.45.14-9.8-1-14,.49-7.21,2.53-14.21,4.36-21.9,3-1.64-.29-3.24-1.07-4.86-1.33-2.59-.42-5.46.77-8.15,1.2-11.16,1.8-21.65,1-32-3.51-.47-.21-1.14-1-1.64-1-1.71-.22-5.54,2.37-7.44,2.93a49.3,49.3,0,0,1-7.07,1.54,48.49,48.49,0,0,1-17.49-.47c16.73-10,25.34-28.64,33.16-45.71,4.5-9.82,7.42-19,6.26-30-1.14-10.78-5.24-21.1-10.41-30.55A139.44,139.44,0,0,0,273.88,876c7.21-3.84,14.17-8.31,18.31-15.55,6.06,18,12.29,35.72,22.27,52a145.71,145.71,0,0,0,62.17,55.69C396.72,977.65,418.61,982.88,440.64,985.29Z"/><path class="cls-3" d="M663.14,693s3,63-36,172C627.14,865,680.14,747,663.14,693Z"/><path class="cls-3" d="M632.14,679c4.56,19.42,2.76,41-2.19,60.17A111.6,111.6,0,0,1,611.14,779C626.54,747.91,633.08,713.61,632.14,679Z"/><path class="cls-3" d="M314.14,742c13.46,22.84,36.85,41.53,59.53,54.62,13.59,7.84,28.23,13.86,43.67,16.83,16.69,3.21,33.28,2.29,49.8-1.46-29.16,14.32-63.31,9.82-91.29-5a151.32,151.32,0,0,1-36.08-26.87C329.33,769.62,318.22,756.5,314.14,742Z"/><path class="cls-3" d="M531.14,856c-13.06,31.65-28.65,63.95-29,99-3.39-17.29.82-36.81,6.37-53.24A190.88,190.88,0,0,1,531.14,856Z"/><path class="cls-3" d="M29.14,714c-1,15.63-3.37,31.45,0,47C22.66,747.15,25,728.16,29.14,714Z"/><path class="cls-3" d="M55.14,720c-1,15.37-2.2,31.7,0,47-2.7-7.31-2.93-15.78-2.89-23.49A88.3,88.3,0,0,1,55.14,720Z"/><path class="cls-3" d="M45.14,711c-1.58,11.17-2,22.53-2.42,33.79-.32,8-.93,16.2-.58,24.21-2.14-9.28-1.64-19.69-1.21-29.14C41.36,730.23,42.17,720.22,45.14,711Z"/><path class="cls-3" d="M30.14,529c-1.77,21-4.44,41.81-4,63C22.45,571.53,25,549,30.14,529Z"/><path class="cls-3" d="M51.14,529c-1.73,11.44-3.32,22.9-4.47,34.42S44.23,586.55,45.14,598c-2.44-11.28-1.6-23.39-.46-34.79A190.64,190.64,0,0,1,51.14,529Z"/><path class="cls-3" d="M41.14,856a161.37,161.37,0,0,0,1.52,24.75c1.3,8.17,4.41,16.09,5.48,24.25-2.86-8-6.11-15.47-7.46-23.94A71.72,71.72,0,0,1,41.14,856Z"/><path class="cls-3" d="M53.14,860c1,16.57,4.62,32.79,8,49C54.86,894.23,50.92,876,53.14,860Z"/><path class="cls-3" d="M96.14,983c4.69,15,7.53,31,15,45-5.17-5.91-8.11-14.13-10.4-21.52A110.07,110.07,0,0,1,96.14,983Z"/><path class="cls-3" d="M111.14,983a229.8,229.8,0,0,1,7.84,22.27c1.76,5.54,3.15,11.73,6.16,16.73-4.6-4.5-6.77-12.18-8.68-18.1A154.72,154.72,0,0,1,111.14,983Z"/><path class="cls-2" d="M617.22,645c-2.81-1.62-5.84-3-7.11-6.1-1.41-3.43-2.56-7-3.91-10.48q-5-12.88-10-25.77c-6.75-17.45-13.37-35-19.54-52.63s-11.7-35.61-16.17-53.86c-4.32-17.65-7.8-35.54-13.73-52.75-5.33-15.45-12.28-31.14-22.53-44-10.4-13-24.57-21.8-39.38-29.06a386.52,386.52,0,0,0-49.13-19.71c-17.79-5.87-35.55-11.62-54.3-13.25s-37.38-1.37-55.94-4c-9-1.26-17.66-3.39-26.77-2.21a73.72,73.72,0,0,0-23.15,7.52c-13.68,6.84-28.11,17.55-34.51,31.88-6.84,15.29-10.25,32-16.48,47.51-3.38,8.42-7.75,16.3-12.12,24.23-4.17,7.56-7.61,15.58-11.51,23.3-4.13,8.18-8.39,16.29-12.52,24.47-4,7.88-6.41,16.16-9.8,24.27-6.54,15.64-16,32-7,48.67,7,13,20.44,21.92,34.36,26,15.54,4.52,32.34,3.09,47.59-1.85a298,298,0,0,0,47.78-20.59c14.31-7.61,29.54-16.68,40.79-28.54,5.45-5.75,9.25-13.22,13.55-19.82,3.18-4.87,6.48-9.64,9.5-14.61,3.67-6,8-12.68,9.6-19.65-1.62,7.24-5.17,13.8-8.51,20.35-1.4,2.75-2.68,5.56-4.05,8.33s-2.25,3.06-.78,5.52c1.36,2.27,5.48,6.91,5.38,9.47-.07,1.72-2,4.54-2.69,6.11q-1.92,4.37-3.81,8.75c-5.28,12.28-10.59,24.66-14.64,37.41-4.17,13.13-1.34,25.67,6.74,36.7,8.23,11.23,19.69,19.31,30.92,27.25a281.09,281.09,0,0,0,44.38,25.91c29.78,13.75,62.5,21.86,95.43,20.84,18.54-.58,37.27-4,54.5-10.91,17.95-7.23,34.05-18.12,49.85-29.12C624,648.77,620.58,646.95,617.22,645Z"/><path class="cls-1" d="M247.9,587.86c6.49-1.3,13.25-4.89,19.4-7.32,7-2.75,13.91-5.65,20.7-8.87a331.43,331.43,0,0,1-40.72,15.72c-.15,0,.93.59,0,.34Q247.43,588.13,247.9,587.86Z"/><path class="cls-1" d="M247.39,588c-27.64,7.37-67.19.77-78-29.94-5.93-16.77,5.29-32.7,10.89-47.88a219.67,219.67,0,0,1,10.65-25c4.22-8.2,8.45-16.4,12.56-24.65,8.89-17.85,17.27-36,23.92-54.81a90.81,90.81,0,0,1-6.79,25c-3.89,8.81-8.18,17.45-12.55,26-8.25,16.17-18.51,32-24.24,49.25-4.91,14.82-16.8,30.44-14.15,46.74,2.48,15.2,16.66,27,30.19,32.59a68,68,0,0,0,28.49,4.9,70.58,70.58,0,0,0,12.23-1.47C241.79,588.49,246.55,586.76,247.39,588Z"/><path class="cls-1" d="M368.85,497.24c18.76-12.66,32.55-31.08,37.74-53.24,3.47-14.82,3-30,1.06-45,1.62,24.25-5.21,50.32-17.17,71.24a116.24,116.24,0,0,1-9.59,14.25q-3,3.82-6.34,7.38C373,493.56,371,496.37,368.85,497.24Z"/><path class="cls-1" d="M367.88,496.87c22.46-25.82,33.53-66.65,16.75-98.44a138.91,138.91,0,0,1,3.47,32,100.9,100.9,0,0,1-3.64,28.07,64,64,0,0,1-5.41,13.16c-1.49,2.69-3.51,5-4.73,7.82C371.87,485.12,370,491.1,367.88,496.87Z"/><path class="cls-1" d="M365.25,504.91c29.56-6.17,46.19-33.66,56.27-59.84a172.66,172.66,0,0,1-16.64,26.6A128,128,0,0,1,386.32,492a77.32,77.32,0,0,1-10.76,7.85,57.63,57.63,0,0,1-6.2,3.23c-.9.4-1.83.74-2.73,1.12C366.1,504.39,364.23,504.47,365.25,504.91Z"/><path class="cls-1" d="M356.86,510.78s52.74,5.63,84.9-39.26C441.75,471.52,398.5,510.14,356.86,510.78Z"/><path class="cls-4" d="M221.48,482.42c-21,12-33,34.58-40.16,56.84,6.45.22,12.9.17,19.35.65,8.83.66,17.4,1.79,26.28,1.17a128.58,128.58,0,0,0,44-11.43c2.28-1,5.85-2.14,7.17-4.17,2.18-3.35,2.92-9.07,3.94-12.92q1.73-6.54,3-13.2c.69-3.64,2.56-8.77.71-12.11-5.52-9.94-16.24-14.12-27.17-14.38C245.77,472.58,232.7,476.5,221.48,482.42Z"/><path class="cls-5" d="M294.45,485.44c-.51-5.31-6.93-9.29-11.18-11.45a46.34,46.34,0,0,0-19.78-4.71c-10.29-.28-20.65.91-30.34,4.52C208,483.17,190,506.88,176.35,529c-2,3.3-5.38,8.48.18,9.8,1,.23,2.92.69,3.85.4,1.42-.45,1.36-1.28,1.9-2.87q1-2.91,2.07-5.79c2.62-6.95,5.47-14,9.6-20.19,7.26-10.91,15.88-21.5,27.53-27.95a79.69,79.69,0,0,1,28.93-9.15C261,472,273,473.3,281,481.08a26.52,26.52,0,0,1,4.69,6.17c1.86,3.35,0,8.46-.71,12.11a183.7,183.7,0,0,1-7.18,26.86c3.59-1.94,8.2-4.16,10.63-7.6,2-2.84,2.8-6.78,3.55-10.11C293.64,501.24,295.17,492.94,294.45,485.44Z"/><path class="cls-3" d="M369.86,494.87c-11.79,28.35-33.63,49.84-59.86,65.28a297.28,297.28,0,0,1-52,24.15c-15.46,5.42-31.88,8.47-48.16,4.83-18.57-4.15-41.25-19.31-41.44-40.5,8.53,14.9,21.21,26.2,38.74,28.43A63.27,63.27,0,0,0,221,577a194.58,194.58,0,0,0,41.47-8.75c39.91-12.8,76.34-38.13,95-76.54,14.36-29.47,17-63.07,13.23-95.26,7.73,16.49,9.36,35.49,8.34,53.48C378.22,465.07,375.7,480.81,369.86,494.87Z"/><path class="cls-1" d="M379.57,454.84c-1.49,19.05-6.14,38.09-15.39,54.92-9.42,17.13-23.53,31.17-39.38,42.42-17.23,12.23-36.45,21.43-56,29.37-19.12,7.77-39.49,13.23-60.1,8.21-18.58-4.53-40.44-20-40.31-41.12.77,22.65,25.85,37.42,45.81,40.35,23.63,3.46,46.06-6.25,67.08-15.76,21.87-9.9,43.3-21.87,60.4-39a120.77,120.77,0,0,0,32.39-56.56c6.43-25.89,7.32-56.36-3.38-81.23C379.46,414.47,381.11,435.15,379.57,454.84Z"/><path class="cls-6" d="M30.14,802c-6.39,16-4.81,33.63,5.47,47.58,4.82,6.55,10,12.06,18.43,11.6,9.81-.53,19.64-3.66,28.94-6.6,12.88-4.07,25.52-8.89,38-14.06,12.27-5.08,24.41-10.53,36.26-16.53,8.07-4.09,16.68-8.26,23.73-14,1.56-1.28,3.38-2.61,1-3.84-3-1.56-8.57-.46-11.71-.28-15.56.93-31,2.93-46.59,4.09-20.86,1.55-41.85,2.15-62.49-1.86-7.59-1.47-15-3.63-22.4-5.73C37.21,801.91,31.15,799.46,30.14,802Z"/><path class="cls-6" d="M48.14,651c-14.53,6.46-25.42,22.09-25.76,38.11-.11,5,.78,12.72,4.94,16.23,2.41,2,6.07,2.11,9.06,2,11.69-.53,23.44-5.16,34.29-9.14,14.55-5.34,28.84-11.38,43.18-17.26,13.24-5.43,26.52-11,40.22-15.18,1.6-.49,13.14-2.26,7.51-5.09-5.95-3-14.1-3.36-20.56-4.27-11.39-1.61-22.84-2.76-34.3-3.74-12.63-1.08-25.29-1.95-38-2.34-4.46-.14-8.92-.24-13.38-.1C53.12,650.24,50.25,650.06,48.14,651Z"/><path class="cls-6" d="M97.64,957.5c-4.15-1.19-13.26-3.88-16.21,1.11-2.26,3.82.91,9.35,2.93,12.55C89.3,979,97.92,988.28,108,987.4c12.58-1.1,25.21-5.14,37.22-8.81a399.07,399.07,0,0,0,50.93-19.19c13.68-6.33,28.64-13.63,39.25-24.64,3.39-3.52,4.44-6.94-1.5-7.11-8.6-.24-17.67,2.6-25.92,4.67-13,3.28-26,7-38.92,10.66s-26.1,7.36-39.29,10.5c-9.06,2.15-18.79,4.8-28.19,4.51A16.05,16.05,0,0,1,97.64,957.5Z"/><path class="cls-6" d="M98.14,460c21.87,6.83,48.66,16.17,62.55,35.73,4.1,5.77,8.65,15.29,5.46,22.41-2.91,6.51-11.57,7.61-17.8,8-10.61.67-21.34-.63-31.89-1.7-11.71-1.19-23.36-2.11-35.13-2.61-8.35-.35-19.16-.09-26.66-4.46-5.56-3.24-4.14-8.77-1.27-13.51,3.14-5.18,7.53-9.44,11.38-14.07a199.84,199.84,0,0,0,12.48-17.31C82.39,464.78,87.76,456.76,98.14,460Z"/><path class="cls-6" d="M315,381.2c-15.51,3.44-24.15-14.14-19.76-27.21,3.47-10.32,13.07-9.63,22-9.21,30.82,1.46,61.78,6.56,91.85,13.3a404.74,404.74,0,0,1,54.19,15.72c15,5.66,30.1,12.51,42.81,22.48a74.87,74.87,0,0,1,7.58,6.77c.66.68,4.21,3.64,4,4.72-.32,1.46-3.94,0-4.89-.25-12.71-3.59-25.09-8.47-37.72-12.36-45.16-13.91-93.28-23.08-140.6-17.29Q324.62,379.09,315,381.2Z"/><path class="cls-6" d="M632.14,679c28.3,47.17,145,88,168,82S626.14,669,632.14,679Z"/><path class="cls-6" d="M556.14,882c27.3,41.86,125,89,148,81S541.14,859,556.14,882Z"/><path class="cls-6" d="M530,489c7.37,20.57,14.45,41.24,20.94,62.11,7.58,24.36,15.36,49.4,18.41,74.82.9,7.53,1,14.68-.74,22.07-1.86,7.93-4.11,15.77-6.47,23.56-5.51,18.22-11.38,36.89-20.16,53.84-1.81,3.49-5,11-9.44,12.06-4.66,1.09-5.7-7.06-6.18-10-2.21-13.7-1.38-28.11-.8-41.89a332.32,332.32,0,0,1,3.82-39.66c2.32-14.15,6.12-27.65,4-42.1-4.4-30.1-18-58.39-26.26-87.47-3.31-11.67-6.59-24-6.63-36.2,0-4.34.15-11.37,4.58-13.84,8.06-4.48,17.86,9.27,21.1,14.71A46.16,46.16,0,0,1,530,489Z"/></g></svg>