<svg xmlns="http://www.w3.org/2000/svg" viewBox="0 0 840 1096.88"><defs><style>.cls-1{fill:#fc9;}.cls-2{fill:#80664d;}.cls-3{fill:#bf9973;}.cls-4{fill:#ffebd6;}.cls-5{fill:#ffe0c2;}.cls-6{fill:#ffd6ad;}</style></defs><title>Hand</title><g id="Frame_6" data-name="Frame 6"><path class="cls-1" d="M799,956c-17.26,38.66-41.48,74.44-72.31,103.57a268.91,268.91,0,0,1-26.17,21.85q-6.73,4.91-13.83,9.26c-2.84,1.74-6.08,5.42-9.4,3.28-4.45-2.87-8.51-6.81-12.8-10q-7.22-5.32-14.63-10.37c-9.64-6.61-19.46-13-29.26-19.35q-29.94-19.51-60.54-38-15.27-9.23-30.71-18.18c-9.5-5.49-19.23-12.29-29.53-16.15-21-7.89-43.4-3.21-61.29,9.52-3.7,2.63-7.16,5.27-11.42,7a70.87,70.87,0,0,1-15.54,3.79c-11,1.7-22.37,3.47-33.58,2.95-5.43-.25-9.14.93-14.32,2.52a29.22,29.22,0,0,1-16.65.44c-5.58-1.6-9.73-.13-15.36.8a50.86,50.86,0,0,1-16.69-.14,39,39,0,0,1-7.61-2.06c-1.83-.72-3.86-2.51-5.86-2.56s-4.31,1.84-6.12,2.5a40,40,0,0,1-9,1.93,48.84,48.84,0,0,1-9.12.18c-2.1-.15-4.61-.95-6.67-.53-1.66.34-3.13,1.76-4.53,2.64-2.82,1.78-5.86,3.23-8.83,4.74-20.85,10.57-42.58,19.22-64.63,26.91-10.53,3.67-21.91,7.59-33.22,5.76-5.17-.84-10-3-15.09-4.05-5.5-1.12-11-.47-16.59-.52-22.58-.17-34.35-19.11-40.38-38.64-3.49-11.28-6.75-22.47-10.63-33.63a144.93,144.93,0,0,1-7.51-32.77c-.44-4.16-.24-8.21-4.42-10.25s-8.66-3.24-12.8-5.81c-8.6-5.34-15.44-12.93-19-22.5-3.78-10.26-3.62-21.27-5-32-1.49-11.44-4.38-22.56-6.57-33.86a104.88,104.88,0,0,1-1.1-35.49,132.82,132.82,0,0,1,3.1-15.08c1.26-4.75,5-10.57,1.27-14.76-7-7.8-12.93-15.2-14.85-25.85-2-10.85-.82-22.36-.3-33.3.56-11.95,1.46-23.88,2.79-35.76,1.29-11.49,2.32-23.64,5.6-34.76,1.54-5.23,4.17-10.05,6.84-14.78,1.09-1.94,2.14-3.92,3.35-5.79,1.09-1.68,3.19-3.65,3.47-5.71.44-3.3-5.78-7.69-7.86-10.25a70.57,70.57,0,0,1-9.3-14.56c-9.19-19.71-5-44,1.62-64,6.89-20.88,21.5-39.24,34.41-56.72,12.13-16.43,25.48-32.2,44.65-40.49,19.81-8.57,43.47-11.68,64.93-9.89,10.93.91,20.12,6.73,30.74,8.57s21.78.83,32.52.63c3.31-.06,9.42,1.5,11.9-1.36,2.25-2.6,2.21-7.46,3-10.67,2.67-10.67,4.41-21.86,10-31.48,9.63-16.46,27.15-28.63,45.11-34.37,10.92-3.49,22-2.09,33.2-1.31,12,.85,24.11.63,36.17.34s24-.63,35.91.87,23.57,4.54,35.18,7.45c22.42,5.62,45,12.17,65.79,22.37,16.76,8.21,31.1,20.47,40.88,36.45,11.67,19.08,17.42,41.15,22.45,62.74,10.67,45.8,26.39,89.9,43.38,133.68q3.14,8.1,6.31,16.2c1.61,4.14,2.61,9.2,5.16,12.87,2.72,3.91,8.6,6.41,12.67,8.61,4.89,2.63,9.91,5,14.92,7.37q33.28,15.78,66.91,30.77Q745.56,701.67,779,716q16.39,7.07,32.81,14.06c4.43,1.89,9.51,3.24,13.77,5.39s3.39,9.16,3.78,13.32a454,454,0,0,1-9.09,142.48A346.13,346.13,0,0,1,799,956Z"/><path class="cls-2" d="M313.47,740.68c-3.82,6.92-8.25,13.81-14.5,18.79-6.72,5.34-15.24,7.49-23.36,9.7a580.82,580.82,0,0,1-57.17,12.08c-19.32,3.23-38.73,5.87-58.18,8.22s-38.68,4.94-58.12,5.78c-20.18.87-40.69-.85-58.56-11.09,28,6,55.6,6.11,84,2.81s56.58-8,84.66-13c23.31-4.1,48.17-7.45,70.15-16.67,9.25-3.88,18.19-9.22,24.58-17.1,7.31-9,9.66-23.35,10.35-34.65,1.87-30.64-13.66-56.34-28.88-81.54,14.66,15,27.3,32.72,32.87,53.18A85.66,85.66,0,0,1,313.47,740.68Z"/><path class="cls-2" d="M289.06,764.75c-16.2,6.95-33.59,10.41-50.79,13.88-18.25,3.69-36.6,6.85-55,9.38q-27.94,3.83-56,6.67c-18.43,1.84-37.22,3.46-55.61.34C54.35,792.1,35.07,783.09,24,769c10.39,11.91,27,19.61,42.18,22.87,17.53,3.77,35.56,2.62,53.26.84,37.19-3.75,74.26-8.47,111.12-14.66C250.3,774.74,270.14,771.39,289.06,764.75Z"/><path class="cls-1" d="M236.94,419.13c.17-.65.36-1.34.56-2.07C237.32,417.75,237.13,418.44,236.94,419.13Z"/><path class="cls-1" d="M237.5,417.06c.27-1,.54-2,.79-2.93C238,415.17,237.75,416.14,237.5,417.06Z"/><path class="cls-1" d="M244,392a34.76,34.76,0,0,1,5.17-10.8c-3.16,4.69-5,10.13-6.37,15.56Z"/><path class="cls-1" d="M331.11,347.45l2.07.09Q332.15,347.51,331.11,347.45Z"/><path class="cls-1" d="M397,348c2.54.47,5.09.93,7.63,1.42a111.47,111.47,0,0,0-20.72-2C388.31,347.39,392.72,347.21,397,348Z"/><path class="cls-1" d="M531,401a124.68,124.68,0,0,1,7.26,10.16,83.86,83.86,0,0,0-22.21-23.42A65.81,65.81,0,0,1,531,401Z"/><path class="cls-1" d="M543.39,419.78q1.2,2.19,2.29,4.4C544.94,422.7,544.18,421.24,543.39,419.78Z"/><path class="cls-1" d="M546.4,425.66C560.15,454,564.11,484.86,571,511,563.21,482.33,559.35,452.6,546.4,425.66Z"/><path class="cls-1" d="M574.28,522.12c5.85,18.66,15.73,45.69,24.62,69.27C590.24,568.49,581.51,545.52,574.28,522.12Z"/><path class="cls-1" d="M614.46,631.92q-1.26-3.23-2.51-6.45Z"/><path class="cls-2" d="M212.85,487.14C183.18,473.65,154.19,458.87,121,457,153.74,453.82,186.22,469.74,212.85,487.14Z"/><path class="cls-2" d="M180,439c12.05,9.79,21.07,26.37,21.42,42C196.19,465.87,188.78,452.38,180,439Z"/><path class="cls-2" d="M264,641c-15,4.58-31,3.43-46.42,1.94-16.38-1.58-32.67-4-49-6.29-16.55-2.33-33.18-4.53-49.92-4.43C102.8,632.3,86.84,634,71.06,631c-14.72-2.82-29.86-8.53-40-20,19.2,19,48.52,20.95,74,19.15,34.51-2.43,68.15,4.64,102.14,9.4C225.87,642.17,245.32,645.43,264,641Z"/><path class="cls-2" d="M296.29,529.35c-6.43-16.54-13.84-33.72-26.56-46.48-15.51-15.57-36.65-18.54-57-10.88,14.84-5.6,31.7-8.12,46.79-2,13.65,5.54,23.66,17,30.7,29.62,7.32,13.12,12,27.8,15.29,42.41,3.75,16.78,4.09,34-1.35,50.5-4.44,13.45-10.27,27-20.7,37-11,10.44-25.4,14-40.19,14.09-34.31.29-68.34-8.67-102.36-12-19-1.86-37.81,1.27-56.8.07-16.94-1.07-34.17-5.46-47.79-16,.94-1.13,14.2,4.67,15.9,5.23,10.36,3.42,22,4,32.82,4.32,27,.72,53.72-3.34,80.46,2.1,13.12,2.67,26,6.17,39.38,7.35,12.76,1.12,25.83,2.95,38.64,2.92,22.05-.05,38.25-12.95,47.41-32.43C301.62,582.54,305.5,553.06,296.29,529.35Z"/><path class="cls-2" d="M311.49,789.21c-2-8.47-7.11-15.78-12.32-22.56,3.3,9.57,7.52,18.2,7.94,28.51a240.69,240.69,0,0,1-1.25,31.22c-.74,8.25-.74,18.82-4.59,26.34-4,7.88-12.75,13-20.55,16.49-18.4,8.24-38,13.37-56,22.5s-35.34,18.53-54.29,25.45c-22,8-44.8,13.25-67.75,17.61,19.72,1.26,39.14-2.46,58.06-7.73a267.25,267.25,0,0,0,53.93-21.85c17.11-9.09,35.29-15.39,53.07-23,15.85-6.74,29.39-15,37-31.07,4.37-9.28,6.2-19.44,7.35-29.56C313.23,810.87,314,799.8,311.49,789.21Z"/><path class="cls-2" d="M68,930c13.71,3.71,29.43,4.2,43.57,4.12,15-.08,29.64-3.39,44-7.26a274.89,274.89,0,0,0,40.79-14.17c12.91-5.77,25.16-12.92,38.24-18.32,15.3-6.31,31.19-11.17,46.12-18.36-12.67,7.29-26.44,12.28-39.84,18-13.11,5.62-25.5,12.69-38.31,18.94a243.56,243.56,0,0,1-40.76,15.17c-14.26,4-28.84,7.62-43.72,8a173.34,173.34,0,0,1-25.68-1.63C84.25,933.54,75.94,932.56,68,930Z"/><path class="cls-3" d="M302.79,963.14c-6.25,13.55-12.75,27.81-24,38s-25.31,16.55-39.15,22.59c-15.28,6.67-30.81,12.69-46.46,18.43-7.19,2.63-14.51,5.18-22.14,6.15S156.5,1048,149.2,1046a53.61,53.61,0,0,0-12.14-2.34c-3.86-.16-7.7.3-11.57.06-7.65-.46-14.83-2.88-20.65-8,7.08,1.92,13.8,4.18,21.19,4.65,7.71.49,15.43-.07,23.14.17,7.52.23,15,2.32,22.5,1.07,7.32-1.22,14.48-4.24,21.41-6.8,27-10,54.84-20.2,78.21-37.42C283.68,988.25,295.85,977.08,302.79,963.14Z"/><path class="cls-1" d="M241.77,400.91c.29-1.16.58-2.31.88-3.45Z"/><path class="cls-1" d="M283.39,352.61c-13.5,6.63-25.91,17.07-33.2,27.17C258.46,368.18,270.63,358.82,283.39,352.61Z"/><path class="cls-1" d="M289.21,350a63.47,63.47,0,0,1,11.43-3.44A65.65,65.65,0,0,0,289.21,350Z"/><path class="cls-1" d="M300.64,346.58c1.18-.24,2.37-.43,3.57-.58C303,346.15,301.84,346.35,300.64,346.58Z"/><path class="cls-1" d="M311.11,345.66c6.7.12,13.31,1.41,20,1.79C324.44,347.12,317.77,345.86,311.11,345.66Z"/><path class="cls-1" d="M377.57,347.47c-9.58.16-21.27.49-32.94.36C355.61,347.93,366.59,347.61,377.57,347.47Z"/><path class="cls-1" d="M405.13,349.51l1.16.23Q404,349.31,405.13,349.51Z"/><path class="cls-1" d="M464.8,364.62c-1.31-.43-2.63-.84-3.94-1.25Z"/><path class="cls-1" d="M460.86,363.37c-16.8-5.24-33.12-9.13-45.19-11.71C430.89,354.88,446,358.69,460.86,363.37Z"/><path class="cls-1" d="M412.06,350.9l3.61.76Z"/><path class="cls-1" d="M481.46,370.5a186.89,186.89,0,0,1,28.12,13.15A196.5,196.5,0,0,0,481.46,370.5Z"/><path class="cls-3" d="M618.53,664.5s-35,76-76,111C542.53,775.5,605.53,734.5,618.53,664.5Z"/><path class="cls-3" d="M447.53,985.29c-5,2.27-8.78,6.35-13.16,9.54-4.77,3.48-10.2,5-15.94,6.13-13.29,2.5-26.74,4.51-40.28,4-6.29-.24-11.58,2.42-17.66,3.54a34,34,0,0,1-9.57.46c-2.86-.29-5.6-1.73-8.46-1.73s-5.6,1.12-8.35,1.52a62.39,62.39,0,0,1-10.42.65,53.16,53.16,0,0,1-17.92-3.52c-3.12-1.21-3.77-2.33-6.93-.93a38.69,38.69,0,0,1-7.06,2.73A48.9,48.9,0,0,1,270,1008c10.31-6.19,17.73-15.92,23.56-26.26,5.73-10.15,11.58-21.38,14.53-32.69,6.87-26.38-10.49-54.14-27.35-73,7.12-3.79,14.21-8.38,18.31-15.55,8.77,26,18.81,51.37,37.22,72.24,17,19.26,38.82,33.36,63,41.92A213.89,213.89,0,0,0,447.53,985.29Z"/><path class="cls-3" d="M670,693s3,63-36,172C634,865,687,747,670,693Z"/><path class="cls-3" d="M639,679c7.74,33-.43,73-21,100C633.35,748.07,640,713.4,639,679Z"/><path class="cls-3" d="M321,742c14.15,24,37.5,42.31,61.51,55.75C410.9,813.62,442.17,819.23,474,812c-45.95,22.56-98.64-1.39-131.18-35.83C333.61,766.39,324.73,755.16,321,742Z"/><path class="cls-3" d="M538,856c-13.09,31.74-28.65,64-29,99-3.35-17.06.41-35,5.71-51.23A191.94,191.94,0,0,1,538,856Z"/><path class="cls-3" d="M36,714c-1,15.63-3.37,31.45,0,47C29.56,747.15,31.91,728.16,36,714Z"/><path class="cls-3" d="M62,720c-1.05,15.61-2.24,31.43,0,47-2.67-7.23-2.92-15.14-2.89-22.77C59.18,736.08,59.8,727.87,62,720Z"/><path class="cls-3" d="M52,711a290.19,290.19,0,0,0-2.23,29c-.39,9.66-1.19,19.38-.77,29-2.19-9.52-1.66-19.46-1.21-29.14S49,720.31,52,711Z"/><path class="cls-3" d="M37,529c-1.77,21-4.44,41.81-4,63C29.35,571.53,31.92,549,37,529Z"/><path class="cls-3" d="M58,529c-1.77,11.7-3.36,23.42-4.55,35.19C52.35,575.41,51.14,586.72,52,598c-2.42-11.17-1.65-22.76-.53-34A193.24,193.24,0,0,1,58,529Z"/><path class="cls-3" d="M48,856c0,8.26.18,16.58,1.52,24.75s4.4,16,5.48,24.25c-2.73-7.64-5.93-15.16-7.33-23.2A71.32,71.32,0,0,1,48,856Z"/><path class="cls-3" d="M60,860c1,16.57,4.62,32.79,8,49C61.76,894.23,57.82,876,60,860Z"/><path class="cls-3" d="M103,983c4.71,15.08,7.51,30.93,15,45-4.87-5.57-7.57-12.72-9.81-19.66A113,113,0,0,1,103,983Z"/><path class="cls-3" d="M118,983a210.8,210.8,0,0,1,7.36,20.77c1.93,6.12,3.3,12.68,6.64,18.23-4.56-4.46-6.43-11.08-8.32-17A165.3,165.3,0,0,1,118,983Z"/><path class="cls-1" d="M624.11,645c-3.19-1.85-5.9-3.33-7.41-6.84-1.85-4.32-3.36-8.86-4.94-13.28s-2.65-8.82-4-13.23c-5.38-17.38-8.7-35.32-13.25-52.92-4.62-17.85-11.42-34.78-17.36-52.19-6.11-17.89-11.33-36.12-18-53.81-3.18-8.4-6.86-16.6-10.6-24.77-3.66-8-6-16.35-9.31-24.51-6.24-15.61-16.85-28.27-29.12-39.55A373.37,373.37,0,0,0,467.9,331c-14.34-9.8-29-19.46-45-26.45-16.42-7.19-34-11.57-50.63-18.15-8.46-3.34-16.51-7.87-25.15-10.72-8.32-2.74-17.17-2.95-25.81-1.89-14.89,1.83-30.64,6.79-42.28,16.55-12.81,10.73-20.52,27.37-30,40.86-10.32,14.65-23.67,26.77-35.46,40.2-12.12,13.8-24.94,26.6-35.84,41.43-8.28,11.27-20.1,21.67-23.47,35.74-3.46,14.45,4.58,29.3,14.6,39.23,25.82,25.6,64,21.58,96.79,15.73,16.7-3,33.7-6.67,49.25-13.6s28-19.62,40.56-31.05c5.7-5.19,12-10.49,15.74-17.38-3.73,6.91-9.29,12.54-14.57,18.26-2,2.21-4.15,4.36-6.21,6.55-2.48,2.63-1.46,3.55-.1,6.61,3.7,8.35,7.22,16.78,10.85,25.16,3.31,7.66,7.22,15.07,10.23,22.85,1.58,4.08,2.54,6.89.62,11-1.82,3.87-3.63,7.72-5.32,11.66q-5.26,12.25-10.18,24.64c-6.28,15.89-8.67,31.28,1.17,46.3,8.14,12.43,20.75,21.27,32.81,29.56a312.25,312.25,0,0,0,41.57,24.3c29.92,14.37,62.74,23,96.08,22.28,19.74-.42,39.66-4,57.91-11.64,17.29-7.26,33-17.75,48.3-28.42C630.91,648.77,627.47,646.95,624.11,645Z"/><path class="cls-1" d="M609.19,616.18q1.26,3.88,2.59,7.74Z"/><path class="cls-2" d="M220.93,507c6.91.53,13.82-1,20.66-1.78,7.47-.83,14.92-1.66,22.33-2.92a327.79,327.79,0,0,1-43.46,4.08c-.06,0,.8.86-.08.33Z"/><path class="cls-2" d="M220.4,507c-25.95-.37-58-14-65.52-41.1-4.7-17,3.72-29.82,14.22-42.36,5.76-6.88,10.89-14.22,16.59-21.14,6.45-7.82,13.37-15.23,20.26-22.66,15.8-17.07,31.23-34.58,44.65-53.61-14.67,33.71-47.74,54.05-68.35,83.52-8.35,11.93-21.24,22.26-25.82,36.43C151.3,462,160.48,478.18,172,488.69a66,66,0,0,0,25.21,14.15,69.48,69.48,0,0,0,14.52,2.93C213.32,505.9,219.76,505.11,220.4,507Z"/><path class="cls-2" d="M361.93,452.65c16.55-5.46,31.63-15.28,42.62-28.88C417.27,408,423,388.36,425.94,368.64c-3.67,17.39-11.66,33.83-22.18,48.1a129,129,0,0,1-17.58,19.47,115.47,115.47,0,0,1-11.75,9.25C371,447.83,366.18,452,361.93,452.65Z"/><path class="cls-2" d="M361.1,452c28.85-18.89,50.37-55,42.84-90.2-.75,17.48-4.94,35.77-12.9,51.41a63.76,63.76,0,0,1-14.37,19.27C370.3,438.13,366.06,445.22,361.1,452Z"/><path class="cls-2" d="M356.39,459.06c29.93,2.08,53.7-20,70.4-42.32a166.77,166.77,0,0,1-34,28.61,100.69,100.69,0,0,1-19.58,9.85,62.7,62.7,0,0,1-10.38,2.85c-1.75.31-3.56.34-5.3.69C357.29,458.79,355.44,458.5,356.39,459.06Z"/><path class="cls-2" d="M346.71,462.43s49.23,19.74,92.37-14.75C439.08,447.68,387,473.12,346.71,462.43Z"/><path class="cls-4" d="M224.12,398.39c-23.45,5.85-41.13,24.3-54.08,43.8,7.34,2.35,14.73,4.46,21.95,7.18,6.72,2.54,13.43,5.15,20.46,6.73,15.27,3.45,30.93,3.21,46.35,1.16,2.34-.31,5.22-.3,7.32-1.52,2.45-1.42,4-4.52,5.38-6.88,3.3-5.83,6.43-11.77,9.56-17.69s4.8-10.43,1.49-16.81c-2.65-5.11-7.22-9-12.2-11.75C256.61,395,239.06,395.19,224.12,398.39Z"/><path class="cls-5" d="M285.25,406.48c-17.08-15.09-45.35-16.45-66-9.21-11.74,4.12-22.35,10.81-32.36,18.1q-6.74,4.92-13.07,10.38c-2.74,2.37-10.35,7.3-10.41,11.49,0,3.21,5.38,5.75,7.59,4,.93-.72,1.44-2.51,2.07-3.51a96.14,96.14,0,0,1,6-8,101.12,101.12,0,0,1,25.11-22.6c17.33-11,40.39-14.22,59.93-7.34A35.5,35.5,0,0,1,278,408.29c3.89,4,8.13,10.62,6.28,16.41-1.62,5-5,10.05-7.54,14.68a186.34,186.34,0,0,1-10.29,16.46c5-1.12,10.4-2,14-6.07s5.85-9.47,8.09-14.2,5.61-11.23,5.08-16.67C293.11,413.91,288.79,409.61,285.25,406.48Z"/><path class="cls-3" d="M363.54,450.64C343,476.63,313,491.48,281.24,499c-18.55,4.38-38,7.48-57,7.69-17.38.19-34.85-3.55-48.81-14.36-13.15-10.19-25-27.17-20.3-44.58,4.83,19.3,17.21,35.29,37.05,40.34,22.59,5.74,47.58,5.49,70.52,2,42.19-6.39,80.95-27.8,103.84-64.54,13.09-21,20.69-45,24.6-69.36,2.78,16.82-.16,34.09-5.3,50.16C380.76,422.06,373.83,437.61,363.54,450.64Z"/><path class="cls-2" d="M383.76,414.75c-6.85,18.59-17,36.31-31.24,50.2-14.1,13.71-31.8,23.14-50.3,29.46-20.14,6.89-41.35,10.47-62.48,12.56-20,2-41.33,1-58.9-9.87-16-9.89-31.49-29.49-25.75-49.39-5.09,20.72,12,40,28.95,49.19,22,11.95,47.88,8.88,71.58,5.33,24.68-3.7,49.51-9.48,71.34-22a122.44,122.44,0,0,0,46.41-46.85c12.82-23.12,21.26-50.6,17.74-77.23C394.62,375.9,390.59,396.19,383.76,414.75Z"/><path class="cls-6" d="M37,802a50.45,50.45,0,0,0-1.81,33c2.7,9,9,20.41,17.93,24.66,4.89,2.33,10.38,1.48,15.53.59A152.47,152.47,0,0,0,88.41,855c12.87-4.06,25.5-8.77,38-13.9,12.3-5.06,24.45-10.47,36.34-16.43,5.24-2.63,10.52-5.22,15.58-8.2a82,82,0,0,0,7.3-4.78c1.9-1.41,5.82-3.34,3.31-5.61s-10.12-.39-13.32-.18c-7,.48-13.93,1.1-20.89,1.78-13.37,1.3-26.73,2.62-40.15,3.15-15,.59-30.06.2-44.83-2.5-7.11-1.3-14.07-3.23-21-5.19C46.61,802.62,38.28,798.88,37,802Z"/><path class="cls-6" d="M55,651c-17,7.56-29.53,28.1-24.89,46.8,1,4,3,7.9,7.21,9.1,5.14,1.45,11.54,0,16.58-1.07,11.69-2.58,23-7.3,34.13-11.63,22.81-8.89,45.09-19.34,68.36-27,2-.67,15.12-2.92,13-6s-10.44-3.43-13.68-3.87q-8.76-1.18-17.55-2.24c-14.17-1.7-28.42-2.92-42.67-3.84-6.88-.44-13.77-.79-20.66-1-3.62-.11-7.25-.17-10.87-.12C61.09,650.17,57.7,649.82,55,651Z"/><path class="cls-6" d="M104.53,957.5c-6.63-1.89-20.09-3.91-16.35,7.62,2.69,8.3,10.62,17.47,18.63,20.89,5.18,2.21,10.55,1.28,15.93.35a170.46,170.46,0,0,0,18.71-4.55c12.78-3.73,25.48-7.8,37.94-12.51,11.37-4.31,22.54-9.15,33.43-14.56,9.83-4.88,19.55-10.45,27.54-18.07,1.9-1.81,6.76-5.9,3.47-8.42-1.74-1.33-5.68-.62-7.64-.46a73.6,73.6,0,0,0-10.81,1.85c-12.42,2.91-24.73,6.38-37,9.83-14.06,4-28.09,8-42.24,11.66-7,1.8-14.09,3.6-21.2,5.07C118.69,957.5,110.83,959.3,104.53,957.5Z"/><path class="cls-6" d="M105,460c17.06,5.33,40.61,7.14,47.4,26.57a77.34,77.34,0,0,1,4.16,23.08c.15,8.46-4.5,13.58-12.8,15s-17.51-.16-25.93-.83c-10.23-.81-20.46-1.67-30.72-2-8.23-.24-18,.1-25.32-4.31-8.42-5.07-1.33-14.63,3.07-19.88A327.06,327.06,0,0,0,85.13,471C89.84,464.09,95.73,457.09,105,460Z"/><path class="cls-6" d="M323.23,325.61c-21.56-1-20-37.2,1.1-34.56,12.74,1.6,25.69,5.81,37.92,9.59s24.35,8.18,36.23,13.08S422.25,324,433.16,331c8.46,5.4,17.69,11.85,22.42,21,1.14,2.19,4.58,8.93.55,9.63-2,.35-5.21-1.82-6.89-2.62-2.79-1.33-5.51-2.78-8.25-4.21a233.14,233.14,0,0,0-35.29-14.7C379.09,331.37,351.18,326.93,323.23,325.61Z"/><path class="cls-6" d="M639,679c28.3,47.17,145,88,168,82S633,669,639,679Z"/><path class="cls-6" d="M563,882c27.3,41.86,125,89,148,81S548,859,563,882Z"/><path class="cls-6" d="M536.94,489c7.18,20.05,14.09,40.21,20.45,60.54,6.24,20,12.51,40,16.42,60.55,2,10.31,3.92,21.1,2.8,31.62-1.08,10.1-4.61,20.16-7.53,29.85-5.72,19-11.93,37.62-20.9,55.32-1.73,3.4-7.61,15.22-12.41,8.92-3.75-4.92-3.42-15-3.71-20.66-1-20.25.43-41.26,3.1-61.34,1.39-10.44,3.89-20.7,5.14-31.15,1.21-10.05.23-19.62-1.89-29.48-4.24-19.77-11.71-38.62-18.25-57.69a334.5,334.5,0,0,1-9.76-33.09c-2.16-9.34-4.76-20.86-2.2-30.39,2.34-8.69,10.36-7.22,15.81-2.4A48.44,48.44,0,0,1,536.94,489Z"/><path class="cls-2" d="M329.43,273.2A64.7,64.7,0,0,1,353.71,278c10.83,4.32,21.18,9.61,32.19,13.55,21.85,7.81,43.44,14.63,63.45,26.69a402.29,402.29,0,0,1,54.79,40.3c17,14.69,30.37,31.22,37.9,52.58,3.79,10.74,8.48,20.89,12.94,31.37,4.83,11.36,8.71,23.06,12.54,34.79s7.61,23.71,11.75,35.45c3.91,11.07,8.33,21.9,11.67,33.17,6.83,23,10.89,46.68,18,69.59,1.52,4.91,3.2,9.76,4.94,14.6,1.5,4.15,2.3,9.36,5.85,12.36,4.16,3.52,10.1,5.83,14.9,8.3,21.58,11,43.69,21,65.8,30.91q34.2,15.32,68.6,30.16c11.77,5.09,23.6,10.05,35.34,15.21,5.76,2.53,11.44,5.16,17.36,7.3,3.45,1.25,6.29,2.39,6.77,6.5a445.48,445.48,0,0,1,2.07,72.2c-2.16,47.12-10.81,94.28-29.29,137.84-16.93,39.92-41.39,76.84-72.68,107a273.18,273.18,0,0,1-26.8,22.73c-4.14,3.07-8.49,5.8-12.68,8.79-2.7,1.92-6.1,5.26-9.67,5.26h-.14c-4.06-.1-8.62-5.45-11.62-7.8-4.66-3.65-9.53-7-14.4-10.4q-15.46-10.72-31.17-21.07c-20.41-13.41-41.13-26.33-62-39q-15.28-9.23-30.72-18.17c-9.63-5.6-18.92-12.51-29.53-16.16a70.53,70.53,0,0,0-22.73-3.8,63.13,63.13,0,0,0-10.57.87c-11.25,1.91-20.49,6.72-29.43,13.58s-19,9.06-30.12,10.4c-6.28.76-12.6,1.73-18.92,2l-1.36,0c-3.15,0-6.34-.39-9.51-.39a25,25,0,0,0-5,.45c-5,1-9.32,3.53-14.59,4-1,.08-2.11.13-3.17.13a26.79,26.79,0,0,1-5.47-.52c-2.09-.44-4.08-1.34-6.24-1.45l-1,0c-5.61,0-11.3,2.25-17,2.38l-1.44,0c-5,0-10.41-.62-15-2.66-2.06-.93-4.35-2.67-6.73-2.67h-.26c-2.34.13-4.6,2-6.79,2.72a37.78,37.78,0,0,1-12.25,2q-1,0-1.93,0c-2.41-.12-5-.91-7.43-.91a9.56,9.56,0,0,0-1.55.12c-2.09.34-3.65,1.62-5.38,2.73a124,124,0,0,1-15.06,7.76c-21.49,10-43.32,19.65-66.1,26.36a67.27,67.27,0,0,1-19.2,2.93,66.58,66.58,0,0,1-17-2.29,62.65,62.65,0,0,0-16.19-2l-2,0c-1.13,0-2.25.05-3.36.05a35,35,0,0,1-12.22-1.77c-17.62-6.43-24.32-26.25-29.35-42.53-3.54-11.47-7.6-22.78-11.11-34.26a147.94,147.94,0,0,1-5.4-28.69c-.5-4.8-2-7.29-6.57-9.06s-8.33-3.16-12.3-5.85a45.11,45.11,0,0,1-18-23.61c-3.41-10.69-3-22-4.62-33-1.76-12.1-5.3-23.86-7.08-35.95a102.71,102.71,0,0,1,.74-34.89c1.09-5.57,2.91-10.8,4.45-16.22s-.3-8-3.8-12.06c-7.72-8.9-12.1-18.32-13.06-30.19-.91-11.33.4-22.89,1.21-34.2.87-12.22,2.14-24.4,3.48-36.58,1.24-11.27,2.73-22.73,7.59-33.1a151,151,0,0,1,8.25-15.22c1-1.63,2.76-3.38,2.09-5.44-.44-1.35-2.19-2.62-3.17-3.52a60.38,60.38,0,0,1-16.79-26.71C8.33,570.09,9.13,558.9,10.72,548c1.71-11.71,4.15-23.54,9.24-34.31,5-10.57,11.84-20.34,18.5-29.92,6.47-9.3,13.32-18.33,20.45-27.14s14.92-17,24.56-23.09a99.15,99.15,0,0,1,31.87-12.86,164,164,0,0,1,34.14-3.75h.58a98.26,98.26,0,0,1,18.48,1.88,9.44,9.44,0,0,0,1.76.18c3.8,0,5.12-2.91,7.52-6.33,13.36-18.94,30.46-35.43,46.06-52.5,8.17-8.93,16.6-17.53,23.83-27.26,6.57-8.84,12.25-18.25,18.5-27.3s13.43-16.78,23.28-22a91.6,91.6,0,0,1,31.84-9.85,68.08,68.08,0,0,1,8.09-.49m0-7a75.44,75.44,0,0,0-8.92.54,98.4,98.4,0,0,0-34.3,10.62c-9.71,5.18-17.89,12.88-25.74,24.23-2.5,3.62-4.93,7.33-7.28,10.91-3.55,5.41-7.21,11-11.08,16.2-5.53,7.45-11.75,14.16-18.34,21.26q-2.52,2.72-5,5.45c-3.89,4.25-8,8.56-11.9,12.73-12,12.72-24.43,25.87-34.72,40.45-.38.54-.73,1.06-1.07,1.57s-.86,1.27-1.21,1.73a104.17,104.17,0,0,0-19.76-2h-.63a170.2,170.2,0,0,0-35.61,3.92A106,106,0,0,0,79.71,427.6c-9.05,5.76-17.15,13.35-26.25,24.59-7.54,9.32-14.53,18.59-20.75,27.55l-.47.67c-6.63,9.54-13.49,19.4-18.61,30.25C7.81,523,5.32,536.53,3.8,546.95c-1.57,10.76-2.68,23.44,1,35.88a67.35,67.35,0,0,0,18.73,29.85l-.1.15a157.49,157.49,0,0,0-8.63,15.93c-5.21,11.12-6.86,23-8.21,35.3C5.3,675.74,4,688.28,3.08,700.92c-.14,2-.3,4-.46,6-.75,9.52-1.53,19.37-.74,29.24,1,12.93,5.73,23.8,14.75,34.21,3,3.42,2.9,3.62,2.35,5.56-.43,1.52-.9,3.08-1.35,4.58a124.47,124.47,0,0,0-3.23,12.21A110.05,110.05,0,0,0,13.6,830c.92,6.25,2.29,12.4,3.61,18.34s2.62,11.76,3.47,17.6c.52,3.56.81,7.16,1.13,11,.62,7.57,1.27,15.39,3.75,23.17a51.92,51.92,0,0,0,20.75,27.28,60.65,60.65,0,0,0,12.77,6.22l.91.35c1.75.68,1.89.74,2.15,3.26,1.25,12.12,2.95,21.1,5.67,30,1.84,6,3.85,12.07,5.8,17.91,1.79,5.36,3.63,10.91,5.32,16.37,4.82,15.6,12.11,39.18,33.64,47a42.24,42.24,0,0,0,14.62,2.19c1.28,0,2.5,0,3.54-.05l1.82,0a55.5,55.5,0,0,1,14.42,1.81,73.36,73.36,0,0,0,18.76,2.52,74.2,74.2,0,0,0,21.18-3.21c24.28-7.14,47.35-17.54,67.08-26.73l1.43-.66a117.1,117.1,0,0,0,14.46-7.56l1-.67a11.22,11.22,0,0,1,1.72-1,2.84,2.84,0,0,1,.4,0,19.92,19.92,0,0,1,2.91.37,35.17,35.17,0,0,0,4.16.53c.76,0,1.53.06,2.29.06a44.88,44.88,0,0,0,14.55-2.4,24.81,24.81,0,0,0,3.42-1.56c.41-.21,1-.51,1.36-.68.45.2,1.11.56,1.59.82.67.36,1.43.78,2.24,1.14,4.84,2.18,10.84,3.28,17.83,3.28l1.59,0a52.47,52.47,0,0,0,9.51-1.33,38.61,38.61,0,0,1,7.29-1l.63,0a12.55,12.55,0,0,1,2.3.55c.84.25,1.8.53,2.85.75a33.46,33.46,0,0,0,6.9.67c1.18,0,2.44-.05,3.73-.16a40.23,40.23,0,0,0,10.3-2.52,41.52,41.52,0,0,1,5.14-1.55,17.93,17.93,0,0,1,3.64-.31c1.37,0,2.81.09,4.34.18s3.38.21,5.17.21c.56,0,1.12,0,1.64,0,5.24-.21,10.4-.87,15.39-1.51l4.1-.52c13-1.57,23.63-4.18,33.54-11.8,9-6.88,17.08-10.66,26.33-12.23a56.21,56.21,0,0,1,9.4-.77,63.57,63.57,0,0,1,20.45,3.42c7,2.41,13.47,6.46,20.34,10.74,2.58,1.61,5.25,3.28,7.95,4.85,12.36,7.2,21.81,12.78,30.63,18.11,22.66,13.69,42.88,26.38,61.81,38.82,10,6.59,20.18,13.45,31,21,4.73,3.28,9.58,6.64,14.07,10.16.54.42,1.29,1.11,2.08,1.83,3.38,3.09,8,7.32,13.69,7.46h.3c5.26,0,9.31-3.15,12.27-5.45.54-.42,1-.81,1.46-1.11,1.74-1.24,3.49-2.43,5.35-3.68,2.44-1.65,5-3.35,7.43-5.18a281.18,281.18,0,0,0,27.49-23.31c30.88-29.73,56.56-67.51,74.27-109.27,17.41-41.05,27.45-88.24,29.83-140.25,1.23-26.72.54-50.71-2.11-73.34-1-8.52-7.72-11-11.34-12.27-4.56-1.65-9-3.6-13.62-5.67l-3.31-1.46c-7-3.08-14.19-6.14-21.11-9.1-4.68-2-9.52-4.07-14.27-6.12-25.1-10.86-47.52-20.71-68.52-30.12-20.33-9.11-43.37-19.43-65.47-30.75-1.29-.66-2.65-1.31-4-1.93-3.53-1.68-7.19-3.42-9.61-5.47-1.16-1-1.95-3.57-2.71-6.08-.33-1.08-.67-2.2-1.08-3.32-2-5.43-3.5-10-4.84-14.3-3.66-11.79-6.57-24.11-9.39-36-2.6-11-5.29-22.37-8.59-33.48-2.31-7.79-5.14-15.41-7.87-22.77-1.3-3.52-2.65-7.15-3.91-10.73-3.19-9-6.2-18.33-9.11-27.32q-1.29-4-2.59-8c-4.12-12.61-7.92-24-12.75-35.35q-1.67-3.93-3.37-7.81c-3.42-7.87-6.65-15.3-9.41-23.14-7.27-20.64-20-38.29-39.92-55.55a409.61,409.61,0,0,0-55.76-41c-18-10.82-37.3-17.63-56-24.21q-4.34-1.53-8.7-3.08c-6.17-2.2-12.06-4.82-18.3-7.6-4.42-2-9-4-13.65-5.86a71.27,71.27,0,0,0-26.87-5.26Z"/><path class="cls-2" d="M284.63,880.5C298,909,337,932,270,1009l4,3s40-41,39-73S284.63,880.5,284.63,880.5Z"/></g></svg>