<svg xmlns="http://www.w3.org/2000/svg" viewBox="0 0 840 1096.88"><defs><style>.cls-1{fill:#fc9;}.cls-2{fill:#80664d;}.cls-3{fill:#bf9973;}.cls-4{fill:#ffebd6;}.cls-5{fill:#ffe0c2;}.cls-6{fill:#ffd6ad;}</style></defs><title>Hand</title><g id="Frame_7" data-name="Frame 7"><path class="cls-1" d="M799,956c-17.26,38.66-41.48,74.44-72.31,103.57a268.91,268.91,0,0,1-26.17,21.85q-6.73,4.91-13.83,9.26c-2.84,1.74-6.08,5.42-9.4,3.28-4.45-2.87-8.51-6.81-12.8-10q-7.22-5.32-14.63-10.37c-9.64-6.61-19.46-13-29.26-19.35q-29.94-19.51-60.54-38-15.27-9.23-30.71-18.18c-9.5-5.49-19.23-12.29-29.53-16.15-21-7.89-43.4-3.21-61.29,9.52-3.7,2.63-7.16,5.27-11.42,7a70.87,70.87,0,0,1-15.54,3.79c-11,1.7-22.37,3.47-33.58,2.95-5.43-.25-9.14.93-14.32,2.52a29.22,29.22,0,0,1-16.65.44c-5.58-1.6-9.73-.13-15.36.8a50.86,50.86,0,0,1-16.69-.14,39,39,0,0,1-7.61-2.06c-1.83-.72-3.86-2.51-5.86-2.56s-4.31,1.84-6.12,2.5a40,40,0,0,1-9,1.93,48.84,48.84,0,0,1-9.12.18c-2.1-.15-4.61-.95-6.67-.53-1.66.34-3.13,1.76-4.53,2.64-2.82,1.78-5.86,3.23-8.83,4.74-20.85,10.57-42.58,19.22-64.63,26.91-10.53,3.67-21.91,7.59-33.22,5.76-5.17-.84-10-3-15.09-4.05-5.5-1.12-11-.47-16.59-.52-22.58-.17-34.35-19.11-40.38-38.64-3.49-11.28-6.75-22.47-10.63-33.63a144.93,144.93,0,0,1-7.51-32.77c-.44-4.16-.24-8.21-4.42-10.25s-8.66-3.24-12.8-5.81c-8.6-5.34-15.44-12.93-19-22.5-3.78-10.26-3.62-21.27-5-32-1.49-11.44-4.38-22.56-6.57-33.86a104.88,104.88,0,0,1-1.1-35.49,132.82,132.82,0,0,1,3.1-15.08c1.26-4.75,5-10.57,1.27-14.76-7-7.8-12.93-15.2-14.85-25.85-2-10.85-.82-22.36-.3-33.3.56-11.95,1.46-23.88,2.79-35.76,1.29-11.49,2.32-23.64,5.6-34.76,1.54-5.23,4.17-10.05,6.84-14.78,1.09-1.94,2.14-3.92,3.35-5.79,1.09-1.68,3.19-3.65,3.47-5.71.44-3.3-5.78-7.69-7.86-10.25a70.57,70.57,0,0,1-9.3-14.56c-9.19-19.71-5-44,1.62-64,6.89-20.88,21.5-39.24,34.41-56.72,12.13-16.43,25.48-32.2,44.65-40.49,19.81-8.57,43.47-11.68,64.93-9.89,10.93.91,20.12,6.73,30.74,8.57s21.78.83,32.52.63c3.31-.06,9.42,1.5,11.9-1.36,2.25-2.6,2.21-7.46,3-10.67,2.67-10.67,4.41-21.86,10-31.48,9.63-16.46,27.15-28.63,45.11-34.37,10.92-3.49,22-2.09,33.2-1.31,12,.85,24.11.63,36.17.34s24-.63,35.91.87,23.57,4.54,35.18,7.45c22.42,5.62,45,12.17,65.79,22.37,16.76,8.21,31.1,20.47,40.88,36.45,11.67,19.08,17.42,41.15,22.45,62.74,10.67,45.8,26.39,89.9,43.38,133.68q3.14,8.1,6.31,16.2c1.61,4.14,2.61,9.2,5.16,12.87,2.72,3.91,8.6,6.41,12.67,8.61,4.89,2.63,9.91,5,14.92,7.37q33.28,15.78,66.91,30.77Q745.56,701.67,779,716q16.39,7.07,32.81,14.06c4.43,1.89,9.51,3.24,13.77,5.39s3.39,9.16,3.78,13.32a454,454,0,0,1-9.09,142.48A346.13,346.13,0,0,1,799,956Z"/><path class="cls-2" d="M313.47,740.68c-3.82,6.92-8.25,13.81-14.5,18.79-6.72,5.34-15.24,7.49-23.36,9.7a580.82,580.82,0,0,1-57.17,12.08c-19.32,3.23-38.73,5.87-58.18,8.22s-38.68,4.94-58.12,5.78c-20.18.87-40.69-.85-58.56-11.09,28,6,55.6,6.11,84,2.81s56.58-8,84.66-13c23.31-4.1,48.17-7.45,70.15-16.67,9.25-3.88,18.19-9.22,24.58-17.1,7.31-9,9.66-23.35,10.35-34.65,1.87-30.64-13.66-56.34-28.88-81.54,14.66,15,27.3,32.72,32.87,53.18A85.66,85.66,0,0,1,313.47,740.68Z"/><path class="cls-2" d="M289.06,764.75c-16.2,6.95-33.59,10.41-50.79,13.88-18.25,3.69-36.6,6.85-55,9.38q-27.94,3.83-56,6.67c-18.43,1.84-37.22,3.46-55.61.34C54.35,792.1,35.07,783.09,24,769c10.39,11.91,27,19.61,42.18,22.87,17.53,3.77,35.56,2.62,53.26.84,37.19-3.75,74.26-8.47,111.12-14.66C250.3,774.74,270.14,771.39,289.06,764.75Z"/><path class="cls-1" d="M236.94,419.13c.17-.65.36-1.34.56-2.07C237.32,417.75,237.13,418.44,236.94,419.13Z"/><path class="cls-1" d="M237.5,417.06c.27-1,.54-2,.79-2.93C238,415.17,237.75,416.14,237.5,417.06Z"/><path class="cls-1" d="M244,392a34.76,34.76,0,0,1,5.17-10.8c-3.16,4.69-5,10.13-6.37,15.56Z"/><path class="cls-1" d="M331.11,347.45l2.07.09Q332.15,347.51,331.11,347.45Z"/><path class="cls-1" d="M543.39,419.78q1.2,2.19,2.29,4.4C544.94,422.7,544.18,421.24,543.39,419.78Z"/><path class="cls-1" d="M574.28,522.12c5.85,18.66,15.73,45.69,24.62,69.27C590.24,568.49,581.51,545.52,574.28,522.12Z"/><path class="cls-1" d="M614.46,631.92q-1.26-3.23-2.51-6.45Z"/><path class="cls-2" d="M212.85,487.14C183.18,473.65,154.19,458.87,121,457,153.74,453.82,186.22,469.74,212.85,487.14Z"/><path class="cls-2" d="M180,439c12.05,9.79,21.07,26.37,21.42,42C196.19,465.87,188.78,452.38,180,439Z"/><path class="cls-2" d="M264,641c-15,4.58-31,3.43-46.42,1.94-16.38-1.58-32.67-4-49-6.29-16.55-2.33-33.18-4.53-49.92-4.43C102.8,632.3,86.84,634,71.06,631c-14.72-2.82-29.86-8.53-40-20,19.2,19,48.52,20.95,74,19.15,34.51-2.43,68.15,4.64,102.14,9.4C225.87,642.17,245.32,645.43,264,641Z"/><path class="cls-2" d="M296.29,529.35c-6.43-16.54-13.84-33.72-26.56-46.48-15.51-15.57-36.65-18.54-57-10.88,14.84-5.6,31.7-8.12,46.79-2,13.65,5.54,23.66,17,30.7,29.62,7.32,13.12,12,27.8,15.29,42.41,3.75,16.78,4.09,34-1.35,50.5-4.44,13.45-10.27,27-20.7,37-11,10.44-25.4,14-40.19,14.09-34.31.29-68.34-8.67-102.36-12-19-1.86-37.81,1.27-56.8.07-16.94-1.07-34.17-5.46-47.79-16,.94-1.13,14.2,4.67,15.9,5.23,10.36,3.42,22,4,32.82,4.32,27,.72,53.72-3.34,80.46,2.1,13.12,2.67,26,6.17,39.38,7.35,12.76,1.12,25.83,2.95,38.64,2.92,22.05-.05,38.25-12.95,47.41-32.43C301.62,582.54,305.5,553.06,296.29,529.35Z"/><path class="cls-2" d="M311.49,789.21c-2-8.47-7.11-15.78-12.32-22.56,3.3,9.57,7.52,18.2,7.94,28.51a240.69,240.69,0,0,1-1.25,31.22c-.74,8.25-.74,18.82-4.59,26.34-4,7.88-12.75,13-20.55,16.49-18.4,8.24-38,13.37-56,22.5s-35.34,18.53-54.29,25.45c-22,8-44.8,13.25-67.75,17.61,19.72,1.26,39.14-2.46,58.06-7.73a267.25,267.25,0,0,0,53.93-21.85c17.11-9.09,35.29-15.39,53.07-23,15.85-6.74,29.39-15,37-31.07,4.37-9.28,6.2-19.44,7.35-29.56C313.23,810.87,314,799.8,311.49,789.21Z"/><path class="cls-2" d="M68,930c13.71,3.71,29.43,4.2,43.57,4.12,15-.08,29.64-3.39,44-7.26a274.89,274.89,0,0,0,40.79-14.17c12.91-5.77,25.16-12.92,38.24-18.32,15.3-6.31,31.19-11.17,46.12-18.36-12.67,7.29-26.44,12.28-39.84,18-13.11,5.62-25.5,12.69-38.31,18.94a243.56,243.56,0,0,1-40.76,15.17c-14.26,4-28.84,7.62-43.72,8a173.34,173.34,0,0,1-25.68-1.63C84.25,933.54,75.94,932.56,68,930Z"/><path class="cls-3" d="M302.79,963.14c-6.25,13.55-12.75,27.81-24,38s-25.31,16.55-39.15,22.59c-15.28,6.67-30.81,12.69-46.46,18.43-7.19,2.63-14.51,5.18-22.14,6.15S156.5,1048,149.2,1046a53.61,53.61,0,0,0-12.14-2.34c-3.86-.16-7.7.3-11.57.06-7.65-.46-14.83-2.88-20.65-8,7.08,1.92,13.8,4.18,21.19,4.65,7.71.49,15.43-.07,23.14.17,7.52.23,15,2.32,22.5,1.07,7.32-1.22,14.48-4.24,21.41-6.8,27-10,54.84-20.2,78.21-37.42C283.68,988.25,295.85,977.08,302.79,963.14Z"/><path class="cls-3" d="M618.53,664.5s-35,76-76,111C542.53,775.5,605.53,734.5,618.53,664.5Z"/><path class="cls-3" d="M447.53,985.29c-5,2.27-8.78,6.35-13.16,9.54-4.77,3.48-10.2,5-15.94,6.13-13.29,2.5-26.74,4.51-40.28,4-6.29-.24-11.58,2.42-17.66,3.54a34,34,0,0,1-9.57.46c-2.86-.29-5.6-1.73-8.46-1.73s-5.6,1.12-8.35,1.52a62.39,62.39,0,0,1-10.42.65,53.16,53.16,0,0,1-17.92-3.52c-3.12-1.21-3.77-2.33-6.93-.93a38.69,38.69,0,0,1-7.06,2.73A48.9,48.9,0,0,1,270,1008c10.31-6.19,17.73-15.92,23.56-26.26,5.73-10.15,11.58-21.38,14.53-32.69,6.87-26.38-10.49-54.14-27.35-73,7.12-3.79,14.21-8.38,18.31-15.55,8.77,26,18.81,51.37,37.22,72.24,17,19.26,38.82,33.36,63,41.92A213.89,213.89,0,0,0,447.53,985.29Z"/><path class="cls-3" d="M670,693s3,63-36,172C634,865,687,747,670,693Z"/><path class="cls-3" d="M639,679c7.74,33-.43,73-21,100C633.35,748.07,640,713.4,639,679Z"/><path class="cls-3" d="M321,742c14.15,24,37.5,42.31,61.51,55.75C410.9,813.62,442.17,819.23,474,812c-45.95,22.56-98.64-1.39-131.18-35.83C333.61,766.39,324.73,755.16,321,742Z"/><path class="cls-3" d="M538,856c-13.09,31.74-28.65,64-29,99-3.35-17.06.41-35,5.71-51.23A191.94,191.94,0,0,1,538,856Z"/><path class="cls-3" d="M36,714c-1,15.63-3.37,31.45,0,47C29.56,747.15,31.91,728.16,36,714Z"/><path class="cls-3" d="M62,720c-1.05,15.61-2.24,31.43,0,47-2.67-7.23-2.92-15.14-2.89-22.77C59.18,736.08,59.8,727.87,62,720Z"/><path class="cls-3" d="M52,711a290.19,290.19,0,0,0-2.23,29c-.39,9.66-1.19,19.38-.77,29-2.19-9.52-1.66-19.46-1.21-29.14S49,720.31,52,711Z"/><path class="cls-3" d="M37,529c-1.77,21-4.44,41.81-4,63C29.35,571.53,31.92,549,37,529Z"/><path class="cls-3" d="M58,529c-1.77,11.7-3.36,23.42-4.55,35.19C52.35,575.41,51.14,586.72,52,598c-2.42-11.17-1.65-22.76-.53-34A193.24,193.24,0,0,1,58,529Z"/><path class="cls-3" d="M48,856c0,8.26.18,16.58,1.52,24.75s4.4,16,5.48,24.25c-2.73-7.64-5.93-15.16-7.33-23.2A71.32,71.32,0,0,1,48,856Z"/><path class="cls-3" d="M60,860c1,16.57,4.62,32.79,8,49C61.76,894.23,57.82,876,60,860Z"/><path class="cls-3" d="M103,983c4.71,15.08,7.51,30.93,15,45-4.87-5.57-7.57-12.72-9.81-19.66A113,113,0,0,1,103,983Z"/><path class="cls-3" d="M118,983a210.8,210.8,0,0,1,7.36,20.77c1.93,6.12,3.3,12.68,6.64,18.23-4.56-4.46-6.43-11.08-8.32-17A165.3,165.3,0,0,1,118,983Z"/><path class="cls-1" d="M613.59,660.16c-12.41-31.85-18.45-65.66-24.47-99.17-3.17-17.61-5.1-35.38-7-53.17-.92-8.85-1.89-17.69-3.35-26.47S575,463.9,573,455.16c-3.45-15.24-5.83-30.79-13-44.85-7.74-15.12-18.82-28.68-29.52-41.77s-22.07-25.75-34-37.77c-11.46-11.51-24.37-20.91-38.17-29.42-7.29-4.5-14.66-8.83-21.79-13.59s-13.39-9.94-20.08-15c-12.34-9.32-26.72-13.14-42.08-13s-31.53,3.25-43.8,13.17c-12.74,10.3-23.68,22.63-36.67,32.68-13.81,10.68-29.16,19.64-43.63,29.41C236,344.63,222,353.83,209,364.92c-11.64,9.9-27.15,18.21-29.7,34.73-2.15,13.91,3.18,28.9,11.83,39.71C212.28,465.79,249.61,469,281,470.41c16.65.72,33.81.43,50.22-2.83,8.17-1.62,15.32-5,22.53-9.06,7.52-4.24,15.27-8,22.77-12.28,6.08-3.45,12.59-6.85,17.29-12.15-4.44,5-9.85,9-15.36,12.71-2.57,1.74-5.18,3.41-7.77,5.11-1.63,1.07-4.55,2.17-4.89,4.1-.42,2.39,1.63,6,2.3,8.3l3.48,11.92,6.28,21.45,6.29,21.49c1.5,5.11,5.22,10.93,3,16.23s-5.8,10.39-8.34,15.66c-3.18,6.6-6.22,13.27-9.32,19.91-6.86,14.65-14.11,29.31-18.24,45l88.87,15,141.38,23.8Z"/><path class="cls-2" d="M232.5,463.38c6.4,2,13.24,2.13,19.85,2.93,7.68.93,15.34,1.88,23.07,2.37a327.79,327.79,0,0,1-43.23-6c-.05,0,.58,1-.15.3Z"/><path class="cls-2" d="M232,463.26c-27-6.78-57.33-30.3-54.1-61.15,1.65-15.78,13.93-24.76,25.71-33.61,6.95-5.22,13.32-11.13,20.23-16.4,7.83-6,16.26-11.2,24.42-16.72,18.92-12.79,37.59-26.06,54.71-41.21-20.58,27.5-53.9,40-80.12,60.92-6.28,5-12.06,10.45-18.59,15.16-6.28,4.53-12.82,9-17.74,15.11-11.18,13.81-7.74,32.31,1,46.46a65.16,65.16,0,0,0,20.76,20.74,73.18,73.18,0,0,0,14.88,7.23C224.7,460.33,231.8,461.23,232,463.26Z"/><path class="cls-2" d="M382.23,442.84c18-1.57,35.63-8.11,49.73-19.59,15.12-12.32,24.77-29.59,31.87-47.46-7.55,16-19.06,30.17-32.53,41.63a129,129,0,0,1-21.86,15.09,115,115,0,0,1-13.48,6.25C392.07,440.25,386.48,443.18,382.23,442.84Z"/><path class="cls-2" d="M381.56,442c32.42-11.76,61.66-42,62.42-77.94-4.71,16.71-12.9,33.39-24.08,46.73-5.24,6.25-11.27,11.81-18.49,15.66C393.82,430.55,388,436.49,381.56,442Z"/><path class="cls-2" d="M375.36,447.8c28.65,8.9,56.86-7.12,78.24-25a166.77,166.77,0,0,1-39.64,20,100.69,100.69,0,0,1-21.32,5.09,62.7,62.7,0,0,1-10.76.39c-1.78-.1-3.55-.49-5.32-.55C376.29,447.75,374.56,447,375.36,447.8Z"/><path class="cls-2" d="M365.16,448.86s43.38,30.52,93.28,6.87C458.45,455.74,401.88,468.51,365.16,448.86Z"/><path class="cls-4" d="M260.57,358.37c-24.17.3-45.61,14.2-62.7,30.2,6.6,4,13.3,7.71,19.69,12,5.89,4,11.76,8,18.16,11.16,13.45,6.61,28.14,10,43,11.71,2.82.32,6.36,1.19,9.16.37s4.89-3.61,6.86-5.52c5.31-5.18,10.08-10.76,14.9-16.39,4.1-4.79,6.14-7.79,4.29-14.27a31.22,31.22,0,0,0-9.56-14.84C292.63,362.53,275.75,358.69,260.57,358.37Z"/><path class="cls-5" d="M318.2,380.29c-12.92-18.29-39.59-26.16-61-24.27-12,1.05-23.65,4.63-34.71,9.27-5.09,2.13-10.06,4.51-15,7-4.22,2.18-11.21,4.57-14.18,8.48-2.31,3,1.68,8.22,5.21,7.14,1.39-.42,3.21-2.91,4.31-3.87,2.34-2,4.72-4.06,7.15-6a98,98,0,0,1,29.84-16c20.69-7,48.14-4,64.84,11.08a29.1,29.1,0,0,1,8.52,12.74c1.86,5.92,1.68,10.27-2.41,15A229.83,229.83,0,0,1,288.57,424c5.27.06,10.76.38,15.24-2.88s8.39-8.52,11.81-12.95c3.06-4,7.48-9.28,7.89-14.46C323.89,388.92,320.86,384.05,318.2,380.29Z"/><path class="cls-3" d="M384.26,441.26c-27.83,22-62.84,28.76-97.59,28-32.75-.68-73.81-3.55-95.71-31.48C180.88,425,173.61,406,182,390.51c.28,21.13,9.63,39.53,29.09,48.91,20.52,9.89,43.81,15.29,66.45,17.07,43.38,3.41,86.56-9.31,117.27-41,16.57-17.08,28.87-37.94,37.91-59.86-1.17,17-8,33.2-16.74,47.69C407.54,417.45,397.24,431,384.26,441.26Z"/><path class="cls-2" d="M412.17,411c-10.72,16.19-24.31,30.83-40.93,41.07-17.4,10.71-37.58,16-57.79,17.83-22.28,2.07-45,.58-67.07-2.87-18.84-2.94-37.93-9.31-51.47-23.36-12.81-13.3-22.82-35.45-12.87-53.13-9.77,19.11,2.58,41.77,17,54.66,17.22,15.35,40.87,19.06,63,21.05,26,2.34,52.64,3.05,78-4.09a122.13,122.13,0,0,0,57.72-35.55c17.65-19.57,32.22-44.3,34.9-70.95C431.67,375.65,423.09,394.48,412.17,411Z"/><path class="cls-6" d="M37,802a50.45,50.45,0,0,0-1.81,33c2.7,9,9,20.41,17.93,24.66,4.89,2.33,10.38,1.48,15.53.59A152.47,152.47,0,0,0,88.41,855c12.87-4.06,25.5-8.77,38-13.9,12.3-5.06,24.45-10.47,36.34-16.43,5.24-2.63,10.52-5.22,15.58-8.2a82,82,0,0,0,7.3-4.78c1.9-1.41,5.82-3.34,3.31-5.61s-10.12-.39-13.32-.18c-7,.48-13.93,1.1-20.89,1.78-13.37,1.3-26.73,2.62-40.15,3.15-15,.59-30.06.2-44.83-2.5-7.11-1.3-14.07-3.23-21-5.19C46.61,802.62,38.28,798.88,37,802Z"/><path class="cls-6" d="M55,651c-17,7.56-29.53,28.1-24.89,46.8,1,4,3,7.9,7.21,9.1,5.14,1.45,11.54,0,16.58-1.07,11.69-2.58,23-7.3,34.13-11.63,22.81-8.89,45.09-19.34,68.36-27,2-.67,15.12-2.92,13-6s-10.44-3.43-13.68-3.87q-8.76-1.18-17.55-2.24c-14.17-1.7-28.42-2.92-42.67-3.84-6.88-.44-13.77-.79-20.66-1-3.62-.11-7.25-.17-10.87-.12C61.09,650.17,57.7,649.82,55,651Z"/><path class="cls-6" d="M104.53,957.5c-6.63-1.89-20.09-3.91-16.35,7.62,2.69,8.3,10.62,17.47,18.63,20.89,5.18,2.21,10.55,1.28,15.93.35a170.46,170.46,0,0,0,18.71-4.55c12.78-3.73,25.48-7.8,37.94-12.51,11.37-4.31,22.54-9.15,33.43-14.56,9.83-4.88,19.55-10.45,27.54-18.07,1.9-1.81,6.76-5.9,3.47-8.42-1.74-1.33-5.68-.62-7.64-.46a73.6,73.6,0,0,0-10.81,1.85c-12.42,2.91-24.73,6.38-37,9.83-14.06,4-28.09,8-42.24,11.66-7,1.8-14.09,3.6-21.2,5.07C118.69,957.5,110.83,959.3,104.53,957.5Z"/><path class="cls-6" d="M105,460c17.06,5.33,40.61,7.14,47.4,26.57a77.34,77.34,0,0,1,4.16,23.08c.15,8.46-4.5,13.58-12.8,15s-17.51-.16-25.93-.83c-10.23-.81-20.46-1.67-30.72-2-8.23-.24-18,.1-25.32-4.31-8.42-5.07-1.33-14.63,3.07-19.88A327.06,327.06,0,0,0,85.13,471C89.84,464.09,95.73,457.09,105,460Z"/><path class="cls-6" d="M350.92,305.87c-11.63-2.77-12.44-14.36-6.46-23.06,3.56-5.18,9.2-9.34,15.71-9.25,8,.12,17,4,24.52,6.45,13.24,4.3,27.52,10.22,36.14,21.71,4.63,6.17,7.79,14.76,7,22.57-.82,8-11.25,3.43-15.82,1.89C391.57,319.32,372,310.9,350.92,305.87Z"/><path class="cls-6" d="M639,679c28.3,47.17,145,88,168,82S633,669,639,679Z"/><path class="cls-6" d="M563,882c27.3,41.86,125,89,148,81S548,859,563,882Z"/><path class="cls-6" d="M553.22,487.65c4.59,20.77,9.11,41.56,13.12,62.45s8.17,42,10,63.23c.92,10.42,1.47,20.87-.23,31.24-1.66,10.13-4.84,19.93-7.88,29.7-5.8,18.6-11.59,37.24-21.08,54.36-1.89,3.41-7.12,13-11.56,7.11-3.51-4.66-3.1-14.11-3.42-19.54-1.21-20.7.19-42.12,2.76-62.68,2.51-20,8.19-39.31,6.52-59.69-1.7-20.79-6.6-41.12-10.7-61.52-2.25-11.22-4.21-22.49-5.45-33.88-1.07-9.88-2.24-21.6,1.5-31.1,3.3-8.35,11.07-6.18,16-.66A48.24,48.24,0,0,1,553.22,487.65Z"/><path class="cls-2" d="M374.83,258.72c11.32,0,22.73,2.1,32.52,7.76,6.86,4,12.77,9.37,19.13,14,6.55,4.82,13.38,9.26,20.29,13.55,13.51,8.37,27.26,16.3,39.29,26.78,12.23,10.66,23.08,22.88,33.71,35.1a453.39,453.39,0,0,1,31.06,39.82c8.79,12.72,15.37,26.54,18.63,41.7,3.55,16.49,7.87,33.1,10.26,49.8,4.7,32.87,4.78,65.89,16.42,97.41,5.86,15.87,13.06,31.42,18.26,47.51,1.19,3.68,2.21,7.55,5.32,10.09,2.69,2.2,6.16,3.73,9.2,5.38,7.44,4,15.05,7.75,22.68,11.43,31.39,15.16,63.35,29.09,95.29,43q24.26,10.6,48.6,21c7.23,3.1,14.42,6.62,21.86,9.18,4.38,1.51,10.51,2.91,11.16,8.44a419.33,419.33,0,0,1,2.59,46.93c.26,60.33-9.78,121.51-35.77,176.32A328.26,328.26,0,0,1,747,1038.36a289.85,289.85,0,0,1-31.81,31.52c-5.87,5-12,9.62-18.21,14.11-3.16,2.27-6.28,4.59-9.57,6.66-2.16,1.36-5.47,3.94-8.19,3.94H679c-2.89-.17-5.57-3.64-7.69-5.3-2.79-2.17-5.68-4.21-8.55-6.27q-9.64-6.91-19.45-13.6-19.64-13.42-39.73-26.18c-27.17-17.36-54.85-33.81-82.7-50-12.53-7.3-25-14-39.8-14.82q-1.92-.11-3.83-.11A62.37,62.37,0,0,0,441.3,989.5c-5.91,4.13-11.36,8.2-18.38,10.29-6.85,2-14.12,3-21.19,3.88a157.42,157.42,0,0,1-20,1.15l-3.6,0h-.31c-7.26,0-13.16,3.71-20.31,4.32-.65.05-1.28.08-1.9.08a37.47,37.47,0,0,1-9.21-1.45,15.89,15.89,0,0,0-3.87-.48,26,26,0,0,0-6,.85,55,55,0,0,1-12.59,1.47,51.37,51.37,0,0,1-10.35-1c-3.48-.72-6.26-2.52-9.58-3.56a8.6,8.6,0,0,0-2.6-.41,15.82,15.82,0,0,0-6.08,1.65,33.44,33.44,0,0,1-13.34,2.49c-2.4,0-4.85-.17-7.38-.41q-.58-.05-1.14-.05c-6.59,0-12,5.35-17.74,8.21-6.94,3.46-14.1,6.46-21.21,9.53-14.74,6.36-29.6,12.64-44.89,17.56-7.3,2.35-14.83,4.3-22.53,4.64-.54,0-1.07,0-1.6,0-7.27,0-13.83-2.16-21-3.41-13.9-2.42-27.73,1-39.4-8.88-10-8.49-15.16-21.38-18.56-33.72-2.06-7.48-4-14.92-6.7-22.19s-5.54-14.42-7.38-22a166.28,166.28,0,0,1-3.54-22.63c-.73-7.12-6.59-7.63-12.16-10.5C45,918.87,35.66,909.86,31.92,896.87c-4-14-3.14-29.14-6.26-43.44-3.38-15.53-7.55-30.64-6.2-46.7a126.66,126.66,0,0,1,4.07-22.9c.88-3.18,3-6.51,3.07-9.84,0-3-1.75-4.67-3.72-6.69C11.85,756,8.7,742.38,8.59,727c-.11-15.95,1.84-32,3.25-47.86,1.36-15.3,2.46-31.76,8.71-46a87.25,87.25,0,0,1,5-9.87c1.81-3,4.28-6,5.31-9.4.91-3-.93-4.1-2.87-6.08a75.24,75.24,0,0,1-6.23-7.23A61.5,61.5,0,0,1,9.12,561a121,121,0,0,1,9.71-43.85c5.52-12.74,13.64-24.07,21.38-35.52,14.18-21,29.73-43,53.46-53.9,13.54-6.2,28.35-9,43.11-10.16,5-.4,10-.75,15.06-.75,2.75,0,5.5.11,8.24.38,7.39.73,14.42,3.15,21.3,5.83-2.94-7.44-4.48-15.73-3.11-23.69,2.28-13.26,13.45-21.74,23.47-29.41,6.66-5.1,12.8-10.83,19.41-16s13.55-9.46,20.41-14c14.28-9.54,28.71-19,42.78-28.82,12.92-9,24.42-19.92,35.85-30.72,5.78-5.46,11.64-11.06,18.86-14.59,7.06-3.46,14.9-5.13,22.66-6.13a103.17,103.17,0,0,1,13.14-.87m0-7a110.42,110.42,0,0,0-14,.93c-10.17,1.31-18.07,3.47-24.84,6.79-8.05,3.95-14.28,9.84-20.31,15.53l-.28.26-.08.07c-11.07,10.46-22.52,21.28-35,30-10.6,7.41-21.61,14.73-32.26,21.81L237.66,334q-2.43,1.63-4.89,3.23c-5.29,3.47-10.76,7.07-15.95,11.12-3.23,2.53-6.35,5.18-9.37,7.75-3.4,2.89-6.6,5.62-10,8.2l-.21.16c-10.32,7.91-23.17,17.75-25.9,33.62a45.47,45.47,0,0,0-.1,14.06,64.55,64.55,0,0,0-10.5-2c-2.81-.28-5.73-.41-8.92-.41-5.36,0-10.65.38-15.61.78-17.85,1.41-32.73,4.94-45.47,10.77-24.46,11.2-40,32.14-56.35,56.34l-2.65,3.91c-7,10.26-14.2,20.86-19.35,32.76A128,128,0,0,0,2.12,560.8a68.24,68.24,0,0,0,14.12,44,82.51,82.51,0,0,0,6.81,7.9l.57.57a39,39,0,0,1-2.21,3.6c-.6.9-1.21,1.83-1.8,2.81a94.57,94.57,0,0,0-5.46,10.66c-6.31,14.37-7.68,30.06-9,45.24l-.26,2.93c-.29,3.2-.59,6.41-.9,9.62C2.76,700.84,1.5,714,1.59,727.05c.14,19.82,5.16,33.74,16.28,45.15l.34.35a20,20,0,0,1,1.38,1.5,17.61,17.61,0,0,1-1.23,3.58A37.22,37.22,0,0,0,16.78,782a133,133,0,0,0-4.3,24.17c-1.26,15,1.91,29,5,42.63.46,2,.92,4.09,1.37,6.15a151.27,151.27,0,0,1,2.44,18.65c.74,8.27,1.51,16.83,3.93,25.23,4,13.83,13.53,24.71,28.37,32.35,1.48.76,2.91,1.36,4.18,1.89,4.07,1.7,4.09,1.88,4.22,3.11a174,174,0,0,0,3.7,23.57,178.93,178.93,0,0,0,7,21l.68,1.8c2.23,5.91,3.87,11.93,5.61,18.31l.9,3.28c3,11,8.46,26.77,20.78,37.2,9.95,8.42,21.14,8.94,31,9.4a93.43,93.43,0,0,1,11.7,1c2.07.36,4.1.81,6.24,1.28,5,1.1,10.17,2.24,15.95,2.24.64,0,1.28,0,1.91,0,9.19-.41,17.85-2.87,24.36-5,15.49-5,30.37-11.27,45.52-17.8l2.79-1.2c6.18-2.65,12.57-5.4,18.77-8.49a62.29,62.29,0,0,0,5.91-3.49c3.19-2,6.2-4,8.71-4l.48,0c3.24.31,5.72.44,8,.44a40.19,40.19,0,0,0,16-3,12.44,12.44,0,0,1,3.38-1.11,1.61,1.61,0,0,1,.51.09,33.13,33.13,0,0,1,3.25,1.3,34.06,34.06,0,0,0,7,2.44,58.39,58.39,0,0,0,11.77,1.18,61.85,61.85,0,0,0,14.2-1.66,19.22,19.22,0,0,1,4.41-.66,8.87,8.87,0,0,1,2.19.27,43.56,43.56,0,0,0,10.9,1.66c.83,0,1.67,0,2.49-.11a50.34,50.34,0,0,0,10.75-2.42c3.26-1,6.08-1.87,9-1.87H378l3.7,0a164.62,164.62,0,0,0,20.87-1.2c6.94-.88,14.81-1.88,22.3-4.11s13.43-6.36,19.08-10.34l1.32-.92a55.37,55.37,0,0,1,31.92-10c1.13,0,2.28,0,3.42.1,13.22.77,24.9,7,36.69,13.88,24.53,14.29,53.51,31.4,82.46,49.9,14.54,9.29,27.48,17.82,39.55,26.07,7,4.75,13.27,9.17,19.32,13.5l1.27.91c2.46,1.76,4.79,3.43,7.05,5.19.31.25.83.73,1.33,1.21,2.23,2.11,5.61,5.29,10.26,5.56l.64,0c4.38,0,8.13-2.5,10.87-4.33l1.06-.7c2.89-1.82,5.61-3.78,8.24-5.69l1.68-1.21c7-5,13.06-9.73,18.65-14.45a297.81,297.81,0,0,0,32.57-32.28A334.83,334.83,0,0,0,801.66,967c24.47-51.62,36.74-112,36.44-179.35a424.73,424.73,0,0,0-2.64-47.72c-1.1-9.41-9.84-12.27-14.54-13.81l-1.3-.43c-5-1.72-9.89-3.9-15.06-6.21-2.06-.92-4.19-1.87-6.31-2.78-18.71-8-34.14-14.7-48.56-21l-2-.88c-30.69-13.4-62.42-27.26-93-42-7.24-3.5-14.93-7.25-22.39-11.29-.77-.42-1.56-.82-2.36-1.24a34.19,34.19,0,0,1-5.74-3.4c-1.24-1-2-3.27-2.79-5.89l-.3-.94c-3.21-9.94-7.18-19.71-11-29.16-2.48-6.11-5-12.42-7.34-18.63-8-21.75-10.33-44.09-12.77-67.74-1-9.23-1.93-18.78-3.29-28.24-1.77-12.39-4.59-24.75-7.31-36.71-1-4.46-2.07-9.07-3-13.57-3.25-15.1-9.88-30-19.71-44.2a461.55,461.55,0,0,0-31.54-40.43c-11-12.66-21.94-24.92-34.39-35.78-10.79-9.4-22.87-16.81-34.56-24l-5.65-3.47c-7.93-4.91-14.23-9.12-19.83-13.24-2-1.48-4-3-6-4.66a115.24,115.24,0,0,0-13.74-9.81c-10-5.77-22.1-8.7-36-8.7Z"/><path class="cls-2" d="M284.63,880.5C298,909,337,932,270,1009l4,3s40-41,39-73S284.63,880.5,284.63,880.5Z"/></g></svg>