<svg xmlns="http://www.w3.org/2000/svg" viewBox="0 0 840 1096.88"><defs><style>.cls-1{fill:#fc9;}.cls-2{fill:#80664d;}.cls-3{fill:#bf9973;}.cls-4{fill:#ffebd6;}.cls-5{fill:#ffe0c2;}.cls-6{fill:#ffd6ad;}</style></defs><title>Hand</title><g id="Frame_5" data-name="Frame 5"><path class="cls-1" d="M799,956c-17.26,38.66-41.48,74.44-72.31,103.57a268.91,268.91,0,0,1-26.17,21.85q-6.73,4.91-13.83,9.26c-2.84,1.74-6.08,5.42-9.4,3.28-4.45-2.87-8.51-6.81-12.8-10q-7.22-5.32-14.63-10.37c-9.64-6.61-19.46-13-29.26-19.35q-29.94-19.51-60.54-38-15.27-9.23-30.71-18.18c-9.5-5.49-19.23-12.29-29.53-16.15-21-7.89-43.4-3.21-61.29,9.52-3.7,2.63-7.16,5.27-11.42,7a70.87,70.87,0,0,1-15.54,3.79c-11,1.7-22.37,3.47-33.58,2.95-5.43-.25-9.14.93-14.32,2.52a29.22,29.22,0,0,1-16.65.44c-5.58-1.6-9.73-.13-15.36.8a50.86,50.86,0,0,1-16.69-.14,39,39,0,0,1-7.61-2.06c-1.83-.72-3.86-2.51-5.86-2.56s-4.31,1.84-6.12,2.5a40,40,0,0,1-9,1.93,48.84,48.84,0,0,1-9.12.18c-2.1-.15-4.61-.95-6.67-.53-1.66.34-3.13,1.76-4.53,2.64-2.82,1.78-5.86,3.23-8.83,4.74-20.85,10.57-42.58,19.22-64.63,26.91-10.53,3.67-21.91,7.59-33.22,5.76-5.17-.84-10-3-15.09-4.05-5.5-1.12-11-.47-16.59-.52-22.58-.17-34.35-19.11-40.38-38.64-3.49-11.28-6.75-22.47-10.63-33.63a144.93,144.93,0,0,1-7.51-32.77c-.44-4.16-.24-8.21-4.42-10.25s-8.66-3.24-12.8-5.81c-8.6-5.34-15.44-12.93-19-22.5-3.78-10.26-3.62-21.27-5-32-1.49-11.44-4.38-22.56-6.57-33.86a104.88,104.88,0,0,1-1.1-35.49,132.82,132.82,0,0,1,3.1-15.08c1.26-4.75,5-10.57,1.27-14.76-7-7.8-12.93-15.2-14.85-25.85-2-10.85-.82-22.36-.3-33.3.56-11.95,1.46-23.88,2.79-35.76,1.29-11.49,2.32-23.64,5.6-34.76,1.54-5.23,4.17-10.05,6.84-14.78,1.09-1.94,2.14-3.92,3.35-5.79,1.09-1.68,3.19-3.65,3.47-5.71.44-3.3-5.78-7.69-7.86-10.25a70.57,70.57,0,0,1-9.3-14.56c-9.19-19.71-5-44,1.62-64,6.89-20.88,21.5-39.24,34.41-56.72,12.13-16.43,25.48-32.2,44.65-40.49,19.81-8.57,43.47-11.68,64.93-9.89,10.93.91,20.12,6.73,30.74,8.57s21.78.83,32.52.63c3.31-.06,9.42,1.5,11.9-1.36,2.25-2.6,2.21-7.46,3-10.67,2.67-10.67,4.41-21.86,10-31.48,9.63-16.46,27.15-28.63,45.11-34.37,10.92-3.49,22-2.09,33.2-1.31,12,.85,24.11.63,36.17.34s24-.63,35.91.87,23.57,4.54,35.18,7.45c22.42,5.62,45,12.17,65.79,22.37,16.76,8.21,31.1,20.47,40.88,36.45,11.67,19.08,17.42,41.15,22.45,62.74,10.67,45.8,26.39,89.9,43.38,133.68q3.14,8.1,6.31,16.2c1.61,4.14,2.61,9.2,5.16,12.87,2.72,3.91,8.6,6.41,12.67,8.61,4.89,2.63,9.91,5,14.92,7.37q33.28,15.78,66.91,30.77Q745.56,701.67,779,716q16.39,7.07,32.81,14.06c4.43,1.89,9.51,3.24,13.77,5.39s3.39,9.16,3.78,13.32a454,454,0,0,1-9.09,142.48A346.13,346.13,0,0,1,799,956Z"/><path class="cls-2" d="M313.47,740.68c-3.82,6.92-8.25,13.81-14.5,18.79-6.72,5.34-15.24,7.49-23.36,9.7a580.82,580.82,0,0,1-57.17,12.08c-19.32,3.23-38.73,5.87-58.18,8.22s-38.68,4.94-58.12,5.78c-20.18.87-40.69-.85-58.56-11.09,28,6,55.6,6.11,84,2.81s56.58-8,84.66-13c23.31-4.1,48.17-7.45,70.15-16.67,9.25-3.88,18.19-9.22,24.58-17.1,7.31-9,9.66-23.35,10.35-34.65,1.87-30.64-13.66-56.34-28.88-81.54,14.66,15,27.3,32.72,32.87,53.18A85.66,85.66,0,0,1,313.47,740.68Z"/><path class="cls-2" d="M289.06,764.75c-16.2,6.95-33.59,10.41-50.79,13.88-18.25,3.69-36.6,6.85-55,9.38q-27.94,3.83-56,6.67c-18.43,1.84-37.22,3.46-55.61.34C54.35,792.1,35.07,783.09,24,769c10.39,11.91,27,19.61,42.18,22.87,17.53,3.77,35.56,2.62,53.26.84,37.19-3.75,74.26-8.47,111.12-14.66C250.3,774.74,270.14,771.39,289.06,764.75Z"/><path class="cls-1" d="M236.94,419.13c.17-.65.36-1.34.56-2.07C237.32,417.75,237.13,418.44,236.94,419.13Z"/><path class="cls-1" d="M237.5,417.06c.27-1,.54-2,.79-2.93C238,415.17,237.75,416.14,237.5,417.06Z"/><path class="cls-1" d="M244,392a34.76,34.76,0,0,1,5.17-10.8c-3.16,4.69-5,10.13-6.37,15.56Z"/><path class="cls-1" d="M331.11,347.45l2.07.09Q332.15,347.51,331.11,347.45Z"/><path class="cls-1" d="M397,348c2.54.47,5.09.93,7.63,1.42a111.47,111.47,0,0,0-20.72-2C388.31,347.39,392.72,347.21,397,348Z"/><path class="cls-1" d="M531,401a124.68,124.68,0,0,1,7.26,10.16,83.86,83.86,0,0,0-22.21-23.42A65.81,65.81,0,0,1,531,401Z"/><path class="cls-1" d="M543.39,419.78q1.2,2.19,2.29,4.4C544.94,422.7,544.18,421.24,543.39,419.78Z"/><path class="cls-1" d="M546.4,425.66C560.15,454,564.11,484.86,571,511,563.21,482.33,559.35,452.6,546.4,425.66Z"/><path class="cls-1" d="M574.28,522.12c5.85,18.66,15.73,45.69,24.62,69.27C590.24,568.49,581.51,545.52,574.28,522.12Z"/><path class="cls-1" d="M614.46,631.92q-1.26-3.23-2.51-6.45Z"/><path class="cls-2" d="M212.85,487.14C183.18,473.65,154.19,458.87,121,457,153.74,453.82,186.22,469.74,212.85,487.14Z"/><path class="cls-2" d="M180,439c12.05,9.79,21.07,26.37,21.42,42C196.19,465.87,188.78,452.38,180,439Z"/><path class="cls-2" d="M264,641c-15,4.58-31,3.43-46.42,1.94-16.38-1.58-32.67-4-49-6.29-16.55-2.33-33.18-4.53-49.92-4.43C102.8,632.3,86.84,634,71.06,631c-14.72-2.82-29.86-8.53-40-20,19.2,19,48.52,20.95,74,19.15,34.51-2.43,68.15,4.64,102.14,9.4C225.87,642.17,245.32,645.43,264,641Z"/><path class="cls-2" d="M296.29,529.35c-6.43-16.54-13.84-33.72-26.56-46.48-15.51-15.57-36.65-18.54-57-10.88,14.84-5.6,31.7-8.12,46.79-2,13.65,5.54,23.66,17,30.7,29.62,7.32,13.12,12,27.8,15.29,42.41,3.75,16.78,4.09,34-1.35,50.5-4.44,13.45-10.27,27-20.7,37-11,10.44-25.4,14-40.19,14.09-34.31.29-68.34-8.67-102.36-12-19-1.86-37.81,1.27-56.8.07-16.94-1.07-34.17-5.46-47.79-16,.94-1.13,14.2,4.67,15.9,5.23,10.36,3.42,22,4,32.82,4.32,27,.72,53.72-3.34,80.46,2.1,13.12,2.67,26,6.17,39.38,7.35,12.76,1.12,25.83,2.95,38.64,2.92,22.05-.05,38.25-12.95,47.41-32.43C301.62,582.54,305.5,553.06,296.29,529.35Z"/><path class="cls-2" d="M311.49,789.21c-2-8.47-7.11-15.78-12.32-22.56,3.3,9.57,7.52,18.2,7.94,28.51a240.69,240.69,0,0,1-1.25,31.22c-.74,8.25-.74,18.82-4.59,26.34-4,7.88-12.75,13-20.55,16.49-18.4,8.24-38,13.37-56,22.5s-35.34,18.53-54.29,25.45c-22,8-44.8,13.25-67.75,17.61,19.72,1.26,39.14-2.46,58.06-7.73a267.25,267.25,0,0,0,53.93-21.85c17.11-9.09,35.29-15.39,53.07-23,15.85-6.74,29.39-15,37-31.07,4.37-9.28,6.2-19.44,7.35-29.56C313.23,810.87,314,799.8,311.49,789.21Z"/><path class="cls-2" d="M68,930c13.71,3.71,29.43,4.2,43.57,4.12,15-.08,29.64-3.39,44-7.26a274.89,274.89,0,0,0,40.79-14.17c12.91-5.77,25.16-12.92,38.24-18.32,15.3-6.31,31.19-11.17,46.12-18.36-12.67,7.29-26.44,12.28-39.84,18-13.11,5.62-25.5,12.69-38.31,18.94a243.56,243.56,0,0,1-40.76,15.17c-14.26,4-28.84,7.62-43.72,8a173.34,173.34,0,0,1-25.68-1.63C84.25,933.54,75.94,932.56,68,930Z"/><path class="cls-3" d="M302.79,963.14c-6.25,13.55-12.75,27.81-24,38s-25.31,16.55-39.15,22.59c-15.28,6.67-30.81,12.69-46.46,18.43-7.19,2.63-14.51,5.18-22.14,6.15S156.5,1048,149.2,1046a53.61,53.61,0,0,0-12.14-2.34c-3.86-.16-7.7.3-11.57.06-7.65-.46-14.83-2.88-20.65-8,7.08,1.92,13.8,4.18,21.19,4.65,7.71.49,15.43-.07,23.14.17,7.52.23,15,2.32,22.5,1.07,7.32-1.22,14.48-4.24,21.41-6.8,27-10,54.84-20.2,78.21-37.42C283.68,988.25,295.85,977.08,302.79,963.14Z"/><path class="cls-1" d="M241.77,400.91c.29-1.16.58-2.31.88-3.45Z"/><path class="cls-1" d="M283.39,352.61c-13.5,6.63-25.91,17.07-33.2,27.17C258.46,368.18,270.63,358.82,283.39,352.61Z"/><path class="cls-1" d="M289.21,350a63.47,63.47,0,0,1,11.43-3.44A65.65,65.65,0,0,0,289.21,350Z"/><path class="cls-1" d="M300.64,346.58c1.18-.24,2.37-.43,3.57-.58C303,346.15,301.84,346.35,300.64,346.58Z"/><path class="cls-1" d="M311.11,345.66c6.7.12,13.31,1.41,20,1.79C324.44,347.12,317.77,345.86,311.11,345.66Z"/><path class="cls-1" d="M377.57,347.47c-9.58.16-21.27.49-32.94.36C355.61,347.93,366.59,347.61,377.57,347.47Z"/><path class="cls-1" d="M405.13,349.51l1.16.23Q404,349.31,405.13,349.51Z"/><path class="cls-1" d="M464.8,364.62c-1.31-.43-2.63-.84-3.94-1.25Z"/><path class="cls-1" d="M460.86,363.37c-16.8-5.24-33.12-9.13-45.19-11.71C430.89,354.88,446,358.69,460.86,363.37Z"/><path class="cls-1" d="M412.06,350.9l3.61.76Z"/><path class="cls-1" d="M481.46,370.5a186.89,186.89,0,0,1,28.12,13.15A196.5,196.5,0,0,0,481.46,370.5Z"/><path class="cls-3" d="M618.53,664.5s-35,76-76,111C542.53,775.5,605.53,734.5,618.53,664.5Z"/><path class="cls-3" d="M447.53,985.29c-5,2.27-8.78,6.35-13.16,9.54-4.77,3.48-10.2,5-15.94,6.13-13.29,2.5-26.74,4.51-40.28,4-6.29-.24-11.58,2.42-17.66,3.54a34,34,0,0,1-9.57.46c-2.86-.29-5.6-1.73-8.46-1.73s-5.6,1.12-8.35,1.52a62.39,62.39,0,0,1-10.42.65,53.16,53.16,0,0,1-17.92-3.52c-3.12-1.21-3.77-2.33-6.93-.93a38.69,38.69,0,0,1-7.06,2.73A48.9,48.9,0,0,1,270,1008c10.31-6.19,17.73-15.92,23.56-26.26,5.73-10.15,11.58-21.38,14.53-32.69,6.87-26.38-10.49-54.14-27.35-73,7.12-3.79,14.21-8.38,18.31-15.55,8.77,26,18.81,51.37,37.22,72.24,17,19.26,38.82,33.36,63,41.92A213.89,213.89,0,0,0,447.53,985.29Z"/><path class="cls-3" d="M670,693s3,63-36,172C634,865,687,747,670,693Z"/><path class="cls-3" d="M639,679c7.74,33-.43,73-21,100C633.35,748.07,640,713.4,639,679Z"/><path class="cls-3" d="M321,742c14.15,24,37.5,42.31,61.51,55.75C410.9,813.62,442.17,819.23,474,812c-45.95,22.56-98.64-1.39-131.18-35.83C333.61,766.39,324.73,755.16,321,742Z"/><path class="cls-3" d="M538,856c-13.09,31.74-28.65,64-29,99-3.35-17.06.41-35,5.71-51.23A191.94,191.94,0,0,1,538,856Z"/><path class="cls-3" d="M36,714c-1,15.63-3.37,31.45,0,47C29.56,747.15,31.91,728.16,36,714Z"/><path class="cls-3" d="M62,720c-1.05,15.61-2.24,31.43,0,47-2.67-7.23-2.92-15.14-2.89-22.77C59.18,736.08,59.8,727.87,62,720Z"/><path class="cls-3" d="M52,711a290.19,290.19,0,0,0-2.23,29c-.39,9.66-1.19,19.38-.77,29-2.19-9.52-1.66-19.46-1.21-29.14S49,720.31,52,711Z"/><path class="cls-3" d="M37,529c-1.77,21-4.44,41.81-4,63C29.35,571.53,31.92,549,37,529Z"/><path class="cls-3" d="M58,529c-1.77,11.7-3.36,23.42-4.55,35.19C52.35,575.41,51.14,586.72,52,598c-2.42-11.17-1.65-22.76-.53-34A193.24,193.24,0,0,1,58,529Z"/><path class="cls-3" d="M48,856c0,8.26.18,16.58,1.52,24.75s4.4,16,5.48,24.25c-2.73-7.64-5.93-15.16-7.33-23.2A71.32,71.32,0,0,1,48,856Z"/><path class="cls-3" d="M60,860c1,16.57,4.62,32.79,8,49C61.76,894.23,57.82,876,60,860Z"/><path class="cls-3" d="M103,983c4.71,15.08,7.51,30.93,15,45-4.87-5.57-7.57-12.72-9.81-19.66A113,113,0,0,1,103,983Z"/><path class="cls-3" d="M118,983a210.8,210.8,0,0,1,7.36,20.77c1.93,6.12,3.3,12.68,6.64,18.23-4.56-4.46-6.43-11.08-8.32-17A165.3,165.3,0,0,1,118,983Z"/><path class="cls-2" d="M322.86,288.54a59.1,59.1,0,0,1,12.64,1.34c11,2.4,21.44,7,32.27,10,22.66,6.33,45.41,11,66.77,21.29,20.37,9.77,39.68,22.1,58.27,34.89,16.92,11.64,33,25.06,42.82,43.48,5.36,10.09,9.48,20.87,14.21,31.27,4.84,10.66,9.27,21.42,13.05,32.51,7.87,23,15.49,46.07,23.66,69,8,22.37,12,45.74,18.12,68.64,3,11.14,6.9,21.91,10.56,32.83,1.62,4.82,3.26,8,7.8,10.59s9.11,5,13.75,7.38c21.62,11,43.78,20.92,65.92,30.83q34.2,15.31,68.61,30.13c11,4.76,22.09,9.41,33.08,14.23,5.76,2.53,11.44,5.16,17.36,7.3,3.46,1.25,6.28,2.37,6.77,6.5a443.23,443.23,0,0,1,2.15,70.56c-2,46.95-10.4,94-28.52,137.5-16.36,39.28-40,75.71-70.23,105.73a277.4,277.4,0,0,1-27.08,23.68c-4.61,3.52-9.33,6.93-14.23,10-2.78,1.76-7.58,6.24-11.32,6.24a4.2,4.2,0,0,1-.81-.08c-2.28-.45-4.19-2.51-5.93-3.9-2.4-1.91-4.79-3.83-7.24-5.67-4.36-3.28-8.86-6.37-13.34-9.48q-14.79-10.27-29.84-20.14c-20.17-13.25-40.65-26-61.31-38.52-10.41-6.3-20.9-12.46-31.42-18.59-9.24-5.38-18.14-11.87-28.19-15.67a65.17,65.17,0,0,0-62.89,9.26c-8.7,6.67-17.76,9.52-28.55,11-6.14.82-12.33,1.64-18.51,2.11-1.08.08-2.17.11-3.27.11-3.14,0-6.31-.25-9.44-.25a37.15,37.15,0,0,0-5.09.31c-5,.69-9.4,3.37-14.49,4a39.68,39.68,0,0,1-4.62.3,24.27,24.27,0,0,1-4.09-.32c-2.13-.36-4.11-1.35-6.25-1.63a13.67,13.67,0,0,0-1.82-.12c-4.69,0-9.91,2.06-14.53,2.33-1.35.08-2.72.12-4.09.12a42.2,42.2,0,0,1-12.06-1.55c-3.71-1.11-6.65-3.22-10.18-3.22a9.17,9.17,0,0,0-3.12.56c-5.21,1.86-9.92,3.47-15.55,3.56h-.38c-2.89,0-5.6-.47-8.27-.47a13.42,13.42,0,0,0-7,1.74c-4.79,2.77-9.57,5.45-14.58,7.82-21.4,10.12-43.3,19.67-66,26.54a74.64,74.64,0,0,1-21.62,3.62,50.56,50.56,0,0,1-13-1.66c-5.92-1.56-11.58-3-17.72-3h-.49c-2.37,0-4.74.15-7.09.15a34.66,34.66,0,0,1-8.58-.89c-17.47-4.41-25.72-22.83-30.71-38.42-3.75-11.71-7.5-23.41-11.32-35.1a149,149,0,0,1-7.25-33.88c-.5-5.93-3.18-6.71-8.34-8.56a46.35,46.35,0,0,1-11.35-6.24,44.93,44.93,0,0,1-17.17-24.42c-3-10.67-2.78-22-4.48-32.86-1.88-12.06-5.29-23.85-7-35.94a102.09,102.09,0,0,1,1.25-34.92c1.06-5.07,3-9.67,4.38-14.62,1.1-4,.83-6.66-2.07-9.62-7.74-7.88-12.94-17.34-14.52-28.36s-.34-22.52.38-33.62c.76-11.76,1.91-23.48,3.12-35.21,1.2-11.54,2.19-23.55,6.28-34.5a107.67,107.67,0,0,1,7.25-14.76c1.52-2.71,6.27-7.52,4.74-10.86-.93-2-3.64-3.73-5.13-5.41a83.32,83.32,0,0,1-5.68-7.24,62.59,62.59,0,0,1-7.62-14c-4-10.72-3.84-22-2.46-33.19s3.62-22.81,8-33.32C22.66,507,29.32,497.18,35.8,487.6q9.38-13.87,19.89-27c12.37-15.39,26.68-29,45.52-35.89,10.86-4,22.28-6,33.76-7.08,4.72-.46,9.47-.76,14.22-.76a84.73,84.73,0,0,1,20.71,2.35,73.34,73.34,0,0,1,10.51,3.37c1.36.57,2.78,1.64,4.23,1.87a3.66,3.66,0,0,0,.57,0c3.67,0,6.53-5.54,8.55-8.07,7.42-9.29,14.42-18.91,21.88-28.16s15.17-18.42,21.77-28.39c6.36-9.62,12-19.68,17.65-29.72,5.07-9,10.62-17.57,18.73-24.18a79.89,79.89,0,0,1,29.11-14.58,74.62,74.62,0,0,1,20-2.89m0-7A81.84,81.84,0,0,0,301,284.69a86.14,86.14,0,0,0-31.66,15.9c-9.23,7.53-15.26,17-20.41,26.18l-.31.55c-5.39,9.59-11,19.51-17.08,28.74-5.35,8.09-11.37,15.52-17.75,23.38l-3.63,4.49c-3.92,4.87-7.76,9.89-11.47,14.75-3.39,4.44-6.9,9-10.43,13.44-.58.72-1.11,1.49-1.68,2.31s-1.22,1.76-1.87,2.54c-.48-.26-1-.53-1.62-.78a79.09,79.09,0,0,0-11.52-3.7,91.1,91.1,0,0,0-22.41-2.56c-4.57,0-9.45.26-14.9.8-14.08,1.38-25.35,3.76-35.49,7.48C76,426.57,60.15,443.93,50.24,456.26c-7,8.74-13.84,18-20.23,27.42-6.67,9.86-13.54,20-18.26,31.37-4,9.64-6.69,20.8-8.47,35.14C2,560.28,1.23,573.55,6.13,586.69a69,69,0,0,0,8.46,15.62,90.65,90.65,0,0,0,6.16,7.85,27.47,27.47,0,0,0,2.57,2.46l.52.46c-.49.78-1.14,1.69-1.56,2.28a32.56,32.56,0,0,0-2,3,113,113,0,0,0-7.7,15.73c-4.11,11-5.29,22.58-6.43,33.76l-.25,2.47c-1.17,11.32-2.37,23.45-3.14,35.47-.11,1.68-.23,3.36-.35,5-.7,9.78-1.42,19.89,0,30,1.72,12,7.26,22.91,16.46,32.27a3,3,0,0,1,.65.83,5.24,5.24,0,0,1-.33,2c-.5,1.8-1.09,3.57-1.72,5.45a84.37,84.37,0,0,0-2.77,9.61,109.39,109.39,0,0,0-1.33,37.3c.92,6.72,2.36,13.33,3.75,19.71,1.17,5.37,2.38,10.93,3.22,16.36.6,3.85.95,7.75,1.31,11.87.63,7.13,1.29,14.49,3.35,21.81a51.91,51.91,0,0,0,19.81,28.2,52.65,52.65,0,0,0,13.1,7.16l.45.16a30.66,30.66,0,0,1,3.1,1.21,7.5,7.5,0,0,1,.18,1.18,155.63,155.63,0,0,0,7.57,35.47c3.9,11.94,7.84,24.22,11.31,35.06,5.09,15.91,14.33,37.68,35.67,43.07a41.63,41.63,0,0,0,10.29,1.11c1.44,0,2.86,0,4.23-.08,1,0,2-.06,2.95-.07H134c5.21,0,10.3,1.23,15.93,2.72a57.91,57.91,0,0,0,14.79,1.9,80.45,80.45,0,0,0,23.65-3.92c24.59-7.44,47.65-17.78,67-26.91,5.34-2.53,10.41-5.38,15.1-8.09a6.48,6.48,0,0,1,3.53-.79c1,0,2.16.1,3.37.2,1.46.13,3.12.27,4.9.27h.49c7-.1,12.74-2.15,17.8-4a2.19,2.19,0,0,1,.77-.15A12.13,12.13,0,0,1,305,1013a41.28,41.28,0,0,0,4.52,1.71,48.6,48.6,0,0,0,14.06,1.85c1.42,0,2.94,0,4.49-.13a48.15,48.15,0,0,0,7.79-1.29,32.27,32.27,0,0,1,6.34-1,6.74,6.74,0,0,1,.89.05,15,15,0,0,1,2.12.58,28.09,28.09,0,0,0,3.89,1,31.36,31.36,0,0,0,5.27.42,46.31,46.31,0,0,0,5.44-.34,41.11,41.11,0,0,0,9-2.37,30.84,30.84,0,0,1,5.64-1.62,29.91,29.91,0,0,1,4.13-.24c1.43,0,2.89.06,4.44.12s3.29.13,5,.13c1.38,0,2.62,0,3.8-.13,6.46-.49,12.79-1.34,18.9-2.15,13.22-1.76,23.05-5.57,31.89-12.35A58.17,58.17,0,0,1,498.72,989c6.61,2.5,12.77,6.33,19.28,10.38,2.56,1.59,5.2,3.23,7.87,4.79,12.67,7.38,22.33,13.09,31.32,18.53,22.41,13.55,42.39,26.1,61.08,38.38,10.1,6.63,20.09,13.38,29.69,20l1.77,1.23c3.77,2.62,7.68,5.32,11.35,8.09,2.2,1.65,4.43,3.43,6.58,5.14l.51.41c.31.24.62.52.94.8,1.86,1.6,4.4,3.79,8,4.5a11.23,11.23,0,0,0,2.16.21c5.13,0,9.74-3.42,13.1-5.92.77-.57,1.5-1.11,2-1.41,4.55-2.88,9.22-6.18,14.73-10.38a285.43,285.43,0,0,0,27.76-24.27c29.87-29.67,54.68-67,71.76-108s26.82-88,29.06-139.89a447.19,447.19,0,0,0-2.19-71.68c-1-8.52-7.72-11-11.34-12.26-4.54-1.64-8.92-3.58-13.56-5.64l-3.37-1.49c-6.66-2.92-13.44-5.82-20-8.62q-6.56-2.8-13.11-5.62c-25.24-10.9-47.66-20.75-68.52-30.09l-.25-.11c-21.62-9.68-44-19.68-65.36-30.57-3.74-1.9-8.64-4.44-13.41-7.2-2.43-1.41-3.3-2.67-4.67-6.75q-1.28-3.81-2.58-7.61c-2.77-8.1-5.64-16.47-7.84-24.79-2-7.64-3.86-15.5-5.65-23.11-3.55-15.19-7.23-30.9-12.64-46.08-5.7-16-11.24-32.36-16.6-48.18q-3.51-10.36-7-20.72c-3.58-10.46-7.93-21.3-13.3-33.14-1.54-3.4-3.06-6.93-4.53-10.34-3-7-6.16-14.33-9.87-21.32-11.11-20.92-29.9-35.55-45-46-15.73-10.82-36.67-24.63-59.21-35.44-17.3-8.3-35.54-13.11-53.18-17.76-4.83-1.27-9.83-2.59-14.73-4-4.32-1.21-8.54-2.67-13-4.21A173.76,173.76,0,0,0,337,283a66.37,66.37,0,0,0-14.13-1.5Z"/><path class="cls-1" d="M625.55,645.81c-2.4-1.35-5.22-2.6-7.09-4.69-2.59-2.89-3.54-7.75-4.84-11.3-2.76-7.53-5.29-15.08-7.39-22.82-4.86-17.9-8.13-36.18-13-54.06s-12.41-34.55-18.29-52-10.5-35.14-17.26-52.17c-3.24-8.15-7.24-15.95-10.79-24s-6.34-16.07-10.35-23.72c-7.41-14.16-18.67-25.71-31.12-35.54a373.09,373.09,0,0,0-45.11-30.06c-14.94-8.62-30-17.45-46.46-22.88-17.57-5.8-35.86-9-53.47-14.7-8.4-2.71-16.43-6.71-25.09-8.57s-17.36-1.16-25.85.58c-15.47,3.18-31.61,9.91-42.32,21.92-5.42,6.08-9.09,13.42-13,20.49-4.44,8-9,16-13.82,23.79-9.16,14.7-21.25,27.79-31.89,41.44-10.4,13.35-21.14,26.14-30.17,40.49-8.42,13.38-22.37,27.07-21.82,44,.48,15,11.39,28.24,23.19,36.42,28.8,20,66.23,11.89,97.48,3.14,15.77-4.42,31.5-9.5,45.82-17.61a75.33,75.33,0,0,0,18.52-14.94c5.84-6.31,12.07-12.24,17.95-18.51,4.94-5.27,10.34-10.64,13.32-17.34-3.08,6.83-7.91,12.59-12.52,18.41-1.83,2.31-3.78,4.51-5.64,6.79-2.45,3-2.61,3.43-.95,6.71,4,7.8,7.6,15.81,11.4,23.71l5.1,10.59c1.36,2.83,3.88,6.19,3.05,9.46-.91,3.57-3.14,7.16-4.62,10.53q-2.56,5.87-5.06,11.77c-3.4,8.1-6.66,16.28-9.52,24.59-2.65,7.7-4.46,15.49-2.72,23.62,1.56,7.29,5.39,13.89,10,19.65,9.71,12.06,22.74,20.9,35.56,29.33a287.58,287.58,0,0,0,41.72,23.11c29.9,13.22,62.67,20.63,95.46,18.89,18.76-1,37.53-4.9,54.75-12.52,16.38-7.25,30.85-17.46,45.69-27.34C631.4,649,628.45,647.46,625.55,645.81Z"/><path class="cls-2" d="M227.67,529.85c6.93,0,13.71-2,20.47-3.31,7.38-1.38,14.75-2.77,22.05-4.58a327.79,327.79,0,0,1-43,7.3c-.06,0,.86.8-.05.33Z"/><path class="cls-2" d="M227.14,529.89c-25.64,1.55-58.11-9.33-68.07-35.24-2.76-7.17-3.62-15-1.47-22.41,2.3-8,7.22-14.84,12-21.49,5.29-7.38,9.93-15.17,15.17-22.59,5.85-8.28,12.2-16.18,18.51-24.11,14.48-18.2,28.57-36.81,40.54-56.79-12.12,34.7-43.58,57.46-61.95,88.38C174.27,448.42,161.66,460,158.57,475c-3.29,15.91,7.05,30.94,19.05,40.31a66,66,0,0,0,26.08,12.14,69.48,69.48,0,0,0,14.7,1.84C220,529.28,226.36,528,227.14,529.89Z"/><path class="cls-2" d="M364.24,465.11c16.1-6.68,30.41-17.59,40.35-32,11.51-16.64,15.79-36.69,17.22-56.57-2.5,18.6-9.86,36.51-20.16,52.13a126.2,126.2,0,0,1-17.81,21.57C378.65,455.25,371.49,463.41,364.24,465.11Z"/><path class="cls-2" d="M363.36,464.55c27.36-21,46.13-58.62,36-93.14.55,17.36-2.22,35.73-8.86,51.83-3,7.36-7,14.59-12.64,20.29C371.72,449.77,367.93,457.18,363.36,464.55Z"/><path class="cls-2" d="M359.18,471.91c30-.16,52.06-23.94,67.05-47.45a167.39,167.39,0,0,1-31,30.52,104.17,104.17,0,0,1-18.07,11.16A67.45,67.45,0,0,1,367,470C365.81,470.37,359.32,472,359.18,471.91Z"/><path class="cls-2" d="M349.78,476s50.56,16,91-21.58C440.79,454.41,390.72,483.66,349.78,476Z"/><path class="cls-4" d="M222.76,421.26c-22.95,7.58-39.21,27.29-50.67,47.71,7,1.68,14.12,3.12,21.07,5.13,7.29,2.11,14.55,4.4,22.06,5.55,14.77,2.27,30.15,1.31,44.71-1.85,2.62-.57,6.06-.88,8.42-2.23s3.44-4.52,4.67-6.79a210,210,0,0,0,9.06-19.36c2.76-6.64,3.67-11.1-.61-17.37a29.89,29.89,0,0,0-12.53-10.11C254.76,415.51,237.32,417,222.76,421.26Z"/><path class="cls-5" d="M284.33,424.78c-6.47-4.91-14.17-7.45-22.07-8.93-8.24-1.54-15.89-1-24.15-1-20.74,2.53-38.3,14.81-53.63,28.24q-5.66,5-10.94,10.33c-2.29,2.34-9,7.63-8.42,11.42.36,2.28,5.27,4.91,7.27,3.88,1.18-.61,1.68-3.06,2.29-4.18,1-1.88,2.24-3.69,3.4-5.49,10.44-16.15,25.64-31.65,44.4-37.64,15.5-5,35.77-6.21,50.24,2.44a28.18,28.18,0,0,1,10.45,10.91c2.76,5.13,1.68,8.76-.6,13.79-4.15,9.14-8.18,18.21-13.31,26.86,4.91-1.49,10.22-2.81,13.49-7.09s5.14-9.88,7-14.77,4.74-11.62,3.81-17C292.72,431.6,288.1,427.63,284.33,424.78Z"/><path class="cls-3" d="M365.69,463c-18.49,27.35-47.28,44.43-78.25,54.24-18.45,5.84-37.93,10.52-57.26,12.05-17.36,1.37-35.07-1.24-49.71-11.18-13.55-9.21-26.26-25.1-22.89-42.5,6.27,18.94,19.84,34,40.08,37.48,23.19,4,48.32,1.88,71.14-3.44,40.84-9.52,77.31-33.31,97.37-70.81,11.87-22.18,17.83-47.15,19.95-72.09,4.07,16.78,2.34,34.46-1.71,51.07C380.57,433.63,374.86,449.41,365.69,463Z"/><path class="cls-2" d="M383.18,425.69c-5.44,19-14.2,37.46-27.41,52.37-12.95,14.62-29.75,25.3-47.58,33-19.66,8.46-40.72,13.67-61.76,17.34-20.34,3.55-42.27,4.09-60.86-6.2-16.1-8.91-32.1-26.81-28-46.58-3.43,20.44,14,37.87,30.87,46.1,22.89,11.15,48.94,6.34,72.68,1,24.17-5.48,48.31-12.87,69.15-26.67a122.29,122.29,0,0,0,43.32-49.66c11.46-24.31,18.12-52.86,12.53-79.6C391.11,386.14,388.61,406.67,383.18,425.69Z"/><path class="cls-6" d="M37,802a50.45,50.45,0,0,0-1.81,33c2.7,9,9,20.41,17.93,24.66,4.89,2.33,10.38,1.48,15.53.59A152.47,152.47,0,0,0,88.41,855c12.87-4.06,25.5-8.77,38-13.9,12.3-5.06,24.45-10.47,36.34-16.43,5.24-2.63,10.52-5.22,15.58-8.2a82,82,0,0,0,7.3-4.78c1.9-1.41,5.82-3.34,3.31-5.61s-10.12-.39-13.32-.18c-7,.48-13.93,1.1-20.89,1.78-13.37,1.3-26.73,2.62-40.15,3.15-15,.59-30.06.2-44.83-2.5-7.11-1.3-14.07-3.23-21-5.19C46.61,802.62,38.28,798.88,37,802Z"/><path class="cls-6" d="M55,651c-17,7.56-29.53,28.1-24.89,46.8,1,4,3,7.9,7.21,9.1,5.14,1.45,11.54,0,16.58-1.07,11.69-2.58,23-7.3,34.13-11.63,22.81-8.89,45.09-19.34,68.36-27,2-.67,15.12-2.92,13-6s-10.44-3.43-13.68-3.87q-8.76-1.18-17.55-2.24c-14.17-1.7-28.42-2.92-42.67-3.84-6.88-.44-13.77-.79-20.66-1-3.62-.11-7.25-.17-10.87-.12C61.09,650.17,57.7,649.82,55,651Z"/><path class="cls-6" d="M104.53,957.5c-6.63-1.89-20.09-3.91-16.35,7.62,2.69,8.3,10.62,17.47,18.63,20.89,5.18,2.21,10.55,1.28,15.93.35a170.46,170.46,0,0,0,18.71-4.55c12.78-3.73,25.48-7.8,37.94-12.51,11.37-4.31,22.54-9.15,33.43-14.56,9.83-4.88,19.55-10.45,27.54-18.07,1.9-1.81,6.76-5.9,3.47-8.42-1.74-1.33-5.68-.62-7.64-.46a73.6,73.6,0,0,0-10.81,1.85c-12.42,2.91-24.73,6.38-37,9.83-14.06,4-28.09,8-42.24,11.66-7,1.8-14.09,3.6-21.2,5.07C118.69,957.5,110.83,959.3,104.53,957.5Z"/><path class="cls-6" d="M105,460c17.06,5.33,40.61,7.14,47.4,26.57a77.34,77.34,0,0,1,4.16,23.08c.15,8.46-4.5,13.58-12.8,15s-17.51-.16-25.93-.83c-10.23-.81-20.46-1.67-30.72-2-8.23-.24-18,.1-25.32-4.31-8.42-5.07-1.33-14.63,3.07-19.88A327.06,327.06,0,0,0,85.13,471C89.84,464.09,95.73,457.09,105,460Z"/><path class="cls-6" d="M329.82,344.32c-10.92.3-17.34-9.37-17.12-19.5.12-5.34,1.92-11.25,6-14.94,5.37-4.91,13-2.75,19.43-1.77A352.33,352.33,0,0,1,423.56,333c22.58,9.72,45.33,22.71,59.79,43.18,1,1.44,7.09,8.64,4.43,9.76-1.15.48-4.71-2-5.79-2.57q-5.19-2.58-10.34-5.23a326.93,326.93,0,0,0-41.53-18A282.49,282.49,0,0,0,329.82,344.32Z"/><path class="cls-6" d="M639,679c28.3,47.17,145,88,168,82S633,669,639,679Z"/><path class="cls-6" d="M563,882c27.3,41.86,125,89,148,81S548,859,563,882Z"/><path class="cls-6" d="M536.94,489c7.18,20.05,14.09,40.21,20.45,60.54,6.24,20,12.51,40,16.42,60.55,2,10.31,3.92,21.1,2.8,31.62-1.08,10.1-4.61,20.16-7.53,29.85-5.72,19-11.93,37.62-20.9,55.32-1.73,3.4-7.61,15.22-12.41,8.92-3.75-4.92-3.42-15-3.71-20.66-1-20.25.43-41.26,3.1-61.34,1.39-10.44,3.89-20.7,5.14-31.15,1.21-10.05.23-19.62-1.89-29.48-4.24-19.77-11.71-38.62-18.25-57.69a334.5,334.5,0,0,1-9.76-33.09c-2.16-9.34-4.76-20.86-2.2-30.39,2.34-8.69,10.36-7.22,15.81-2.4A48.44,48.44,0,0,1,536.94,489Z"/><path class="cls-2" d="M284.63,880.5C298,909,337,932,270,1009l4,3s40-41,39-73S284.63,880.5,284.63,880.5Z"/></g></svg>