<svg xmlns="http://www.w3.org/2000/svg" viewBox="0 0 840 1096.88"><defs><style>.cls-1{fill:#fc9;}.cls-2{fill:#80664d;}.cls-3{fill:#bf9973;}.cls-4{fill:#ffebd6;}.cls-5{fill:#ffe0c2;}.cls-6{fill:#ffd6ad;}</style></defs><title>Hand</title><g id="Frame_9" data-name="Frame 9"><path class="cls-1" d="M390.68,552.3c1.35-1.65.49-6.12.45-8.05-.07-3.5-.27-7-.47-10.48-.46-8.17-1.06-16.33-1.72-24.49q-2-24.31-4.25-48.59c-.25-2.71-5.33-64.23-6.28-64.21,11.74.74,23.75,2.41,35.42.07-8.87,1.79-18.11.1-26.89-1.42-9.21-1.59-18.58-2.36-27.73-4.27-17.77-3.69-33.49-14.77-47.72-25.56a288.25,288.25,0,0,1-38.72-34.92C262.05,318.63,253,304.85,250,289c-2.45-12.69-1.57-26.78,4.11-38.53,6.75-14,19.47-20.07,34.56-20.75,9.4-.42,18.72-.08,28.13-.83,9.55-.76,19,0,28.57.55,19.91,1.12,40,2.32,59.93,2.67,19.52.35,38.95-4.53,58.4-3.72,16.92.7,33.3,9.93,45.63,21.08,6.36,5.74,11.95,12.35,15.46,20.22s5.27,16.38,7.79,24.59c5.68,18.53,13.42,36.4,19.66,54.75A228,228,0,0,0,563,376.37c4.1,8.35,4.55,17.28,5.81,26.42q4.22,30.6,7.67,61.3,3.4,30.16,6.12,60.4c1.62,18.1,5.7,37.64-4,54.19-16.94,28.77-58.13,33.26-88.12,31.84a172.21,172.21,0,0,1-53.77-11.16c-13.8-5.33-27.77-12.8-37.06-24.65C394.61,568.27,391.15,560.53,390.68,552.3Z"/><path class="cls-2" d="M267.35,322.85c3.88,5.48,9.29,9.67,14.09,14.29,5.57,5.37,11.12,10.73,17,15.77a327.79,327.79,0,0,1-30.9-30.82c0-.05-.16,1.16-.3.15Z"/><path class="cls-2" d="M267,322.45c-16.62-20.59-26.71-55-9.24-78,10.18-13.45,25.08-14.8,40.8-14.74,8.6,0,17.14-.64,25.73-.7,10.26-.07,20.52.5,30.76,1,23.43,1.23,47,2,70.38.12-36.43,10.58-74.52-2.05-111.56,1.15-14.48,1.25-30.87-2.61-44.24,4.65s-19.09,24.12-19.5,38.63a66.3,66.3,0,0,0,5.3,27.41,71.4,71.4,0,0,0,7.21,13.28C263.51,316.48,268,320.8,267,322.45Z"/><path class="cls-2" d="M399.29,396.56c15.8,9.88,34.37,15.27,53.06,14.2,18.92-1.08,36.48-8.92,52.46-18.65-16.76,8.82-36.53,13.14-55.37,13.79a120.93,120.93,0,0,1-28.38-2.31A132.45,132.45,0,0,1,407.74,400C405.33,399.25,400.81,398.82,399.29,396.56Z"/><path class="cls-2" d="M399.23,395.52c33,10.12,74.51,3.59,96.76-24.68a129.72,129.72,0,0,1-44.92,22.24c-8.28,2.16-17,3.29-25.57,2.27C416.59,394.29,408.18,395,399.23,395.52Z"/><path class="cls-2" d="M489,440.74a383.65,383.65,0,0,1-52.7-17.34c-15.85-6.67-33.82-14.49-45.57-27.48,1.07,3.74,5.05,6.65,7.71,9.26a123.75,123.75,0,0,0,11.56,10,158.41,158.41,0,0,0,26.77,16.4C452.1,439.05,471.93,447.52,489,440.74Z"/><path class="cls-3" d="M401.86,396.52c-37.89.92-71.39-17-99.93-40.45-25.45-20.92-54.33-48-52.27-83.78.85-14.83,6.82-31.42,21.25-38-6.26,8.54-10.95,18.47-12,29.1-1.14,11.55,2.54,22,8.2,31.86a196.87,196.87,0,0,0,41.34,50.08c31.25,27.27,71.38,42.89,113.11,37.61,25.05-3.17,48.93-12.8,70.57-25.59-10.61,12.24-24.86,20.79-39.66,27C436.52,391.08,419.26,396.08,401.86,396.52Z"/><path class="cls-2" d="M442.38,389.13c-21,7.42-43.68,10.9-65.75,7-20.76-3.64-39.93-13.21-57.17-25.06a265.87,265.87,0,0,1-48-42.11c-12.44-14-22.18-31.18-22.76-50.34-.5-16.77,5.53-37.08,22.17-44.36-17.19,8.35-22,30-20.27,47.45,2.25,22.91,17.18,41,33.32,56.27,18.09,17.06,37.59,33.45,60.13,44.31,24.27,11.69,51.65,15.82,78.16,10.55,25.63-5.09,51.87-16,69.89-35.53C479.21,372.66,461,382.53,442.38,389.13Z"/><path class="cls-4" d="M355.57,246c-24.36-6.65-50.2-4-74.75.1,8.31,8.68,15.64,18.87,25.55,25.81s21.86,13,33.53,15.74c5.5,1.31,11.82-.75,17.23-1.82,5.91-1.17,11.82-2.43,17.7-3.73,4.65-1,9.45-2.66,11.93-7.07,2.84-5,.68-10.21-2.83-14.21C376.83,252.78,365.56,249,355.57,246Z"/><path class="cls-5" d="M394.41,269.53c-2.87-9-13.61-15.66-21.69-19.48-9.47-4.48-19.94-6.88-30.28-8.29A242.09,242.09,0,0,0,310.34,240c-5.17,0-10.35.06-15.52.1-3.95,0-11-1-14.74.87-4.24,2.19,1.25,5.29,4.09,5,4.75-.46,9.5-1.8,14.28-2.35a195.9,195.9,0,0,1,31.14-1.4c18.14.8,40.94,5,54.15,18.68,8.15,8.46,3.3,17.94-7,20.83-11.14,3.12-22.94,4.94-34.35,6.73,5.94,1.74,11.46,3,17.67,2.08a165.22,165.22,0,0,0,17.25-3.88C386,284.35,398.14,281.27,394.41,269.53Z"/><path class="cls-1" d="M828.51,740.76c-.42-3.59-2.16-4.77-5.32-6-5.13-1.93-10.13-4.09-15.15-6.28-10.68-4.65-21.42-9.18-32.11-13.8q-31.84-13.74-63.55-27.8c-21.11-9.39-42.21-18.82-63-28.91-8.89-4.31-18.23-8.38-26.74-13.42a14.4,14.4,0,0,1-7-8.66c-1.67-4.9-3.41-9.73-5.3-14.56-8.21-21.05-15.82-42.26-23.63-63.46-1.64-4.46-3.14-9.22-6.16-13A137.65,137.65,0,0,0,570,534a139.59,139.59,0,0,0-24.78-19.76c-9.09-5.62-18.94-9.64-28.64-14-10.21-4.64-20-10.19-30-15.22-19.66-9.89-39.82-18.89-60.84-25.49C404,452.62,381.9,446.44,360,440c-21.65-6.33-43.52-12.92-66-15.26-22.95-2.38-45.94.44-68.88,1.44-11.11.48-22.67.94-33.72-.6-10.27-1.43-19.42-6.8-29.82-8.08-20.11-2.47-43.07.63-62,7.75-18.39,6.91-31.93,19.8-43.74,35.14s-24,31.17-33,48.31-14.08,37.7-13.32,57a59,59,0,0,0,7.76,27.84,80.88,80.88,0,0,0,8.46,11.64c2.74,3.17,7.39,5.18,4.7,9.62-5.24,8.65-10.59,17.61-13.17,27.48-2.78,10.61-4,21.8-5.16,32.68-1.17,11.07-1.9,22.18-2.45,33.3-.54,10.88-1.81,22.08-.16,32.91,1.46,9.63,6.26,17.42,12.43,24.77,2.94,3.5,5.37,5.52,4,10.33s-3,9.55-4.05,14.52a105,105,0,0,0-2,33.9c1.25,11,4.44,21.67,6.6,32.51,4,19.89.66,41.79,15.78,57.69a49.08,49.08,0,0,0,10.91,8.47c3.92,2.29,8.53,3.23,12.35,5.45s3.49,7.46,3.88,11.45a126.28,126.28,0,0,0,2.84,16.75c2.46,10.37,6.78,20.05,10.12,30.14,2.71,8.2,4.46,16.67,7.45,24.78,6.14,16.67,17.23,31,36.32,31.46,4.59.11,9.2-.22,13.78.19,5.67.51,10.77,2.86,16.27,4.12,10.78,2.48,21.73-.19,32-3.54,20.68-6.73,41-15.53,60.76-24.5a158.88,158.88,0,0,0,14.49-7.26c4.19-2.44,5.91-4.89,11-4a43.27,43.27,0,0,0,15-.25c4.1-.75,9.48-4.39,13.58-3.41,5,1.19,9.24,3.77,14.5,4.42a53,53,0,0,0,15.93-.4c2.31-.43,4.57-1.14,6.92-1.38,2.78-.29,5,.56,7.69,1.12a35.23,35.23,0,0,0,16-.6c2.18-.57,4.15-1.6,6.28-2.27a24.25,24.25,0,0,1,7.81-.69,142.87,142.87,0,0,0,16.61-.46c9.94-1,20.57-2.05,30.09-5.22,9.19-3.06,16.11-10.19,24.71-14.49a59.49,59.49,0,0,1,29.85-6.54,69.69,69.69,0,0,1,30.22,8.21c9.26,5.07,18.24,10.76,27.37,16.07,38.75,22.54,76.8,46.38,113.62,71.95,8.88,6.16,17.37,12.92,26.2,19.11,3.43,2.4,6-.6,9.24-2.52,4.5-2.68,8.88-5.58,13.15-8.62a274.17,274.17,0,0,0,46.12-42.16,330,330,0,0,0,61.92-104.58c15.05-41.06,22-84.76,23.54-128.37A441.84,441.84,0,0,0,828.51,740.76Z"/><path class="cls-2" d="M461.43,228.26a53.25,53.25,0,0,1,10.92,1c16.56,3.45,32,13.79,43.1,26.4,12.71,14.5,14.89,32.87,21,50.46,3.19,9.14,7,18,10.34,27.12,3.48,9.4,6.11,19.19,10,28.41,3.54,8.33,8.17,16.05,10,25,1.91,9.12,2.29,18.54,3.52,27.76,5.42,40.44,10.63,80.93,13.07,121.67.58,9.68,1.76,18.73,5,27.91,3.36,9.54,7.05,19,10.66,28.41q5.27,13.79,10.66,27.55c1.9,4.86,3.87,9.7,5.63,14.62,1.36,3.79,2.84,6.55,6.09,9,6.47,4.93,14.26,7.83,21.53,11.34,9,4.31,17.91,8.6,26.93,12.79,18.06,8.37,36.24,16.47,54.45,24.5q27.9,12.31,55.92,24.37c9.16,3.95,18.36,7.83,27.5,11.81,4.53,2,9.11,3.77,13.7,5.61,3.45,1.39,6.46,2.58,6.94,6.69a426.67,426.67,0,0,1,2.58,52.66C830.62,859.28,817.19,926,785,983.95a313.77,313.77,0,0,1-59.12,76.41,288.46,288.46,0,0,1-38.25,29.77c-2.29,1.52-4.86,4-7.7,4.38a4.93,4.93,0,0,1-.59,0c-2.52,0-4.73-1.91-6.61-3.42q-9.07-7.27-18.48-14.07c-28.95-20.84-59.4-39.76-89.9-58.22-15.25-9.23-30.71-18.07-46.09-27.08-13.25-7.76-26.59-13.4-41.9-13.4q-2.07,0-4.18.14a60.61,60.61,0,0,0-23.58,6.29c-6.58,3.36-11.77,8.7-18.22,12.23-13.77,7.53-32.22,7.61-47.5,7.95l-1.72,0h-2.5a32.23,32.23,0,0,0-7.8.71c-3.53.88-6.8,2.41-10.42,3a32,32,0,0,1-5.38.47,27.48,27.48,0,0,1-7-.89,24.11,24.11,0,0,0-6.22-.86,27.67,27.67,0,0,0-5.67.65,62.49,62.49,0,0,1-12.65,1.39,45.11,45.11,0,0,1-11.7-1.48c-3.42-.91-6.91-3.22-10.5-3.22a7.81,7.81,0,0,0-1.4.12c-3.5.63-6.74,2.48-10.26,3.21a45.8,45.8,0,0,1-9.22,1c-.8,0-1.6,0-2.39-.08-2.22-.15-4.14-.74-6.09-.74a7.68,7.68,0,0,0-3.72.91c-3.51,1.85-6.55,4.42-10.12,6.25-3.74,1.91-7.58,3.62-11.43,5.29-16.12,7-32.28,14-48.8,20-7.94,2.89-16,6-24.4,7.38a36.82,36.82,0,0,1-6,.49c-6,0-11.75-1.42-17.85-3-8.41-2.23-16.3-1.47-24.86-1.8a31.43,31.43,0,0,1-20.63-8.69c-11.23-10.42-15.34-25.5-19.38-39.73-4.45-15.67-11.57-30.73-14.42-46.83a98.88,98.88,0,0,1-1.09-12.24c-.17-3.25-.7-6.09-3.92-7.49-6.58-2.87-12.66-4.88-18.37-9.55-11.6-9.47-16.06-23-17.59-37.45-.87-8.22-1.61-16.33-3.19-24.46-1.65-8.45-3.65-16.84-5-25.35a117.12,117.12,0,0,1,3.26-50.48c.9-3.23,3-7.18,1.47-10.49-1.39-3-4.71-5.27-6.72-7.83A46.46,46.46,0,0,1,9.5,740.75c-2.43-17-.08-35.2,1.47-52.23,1.47-16.22,2.14-33,7.11-48.59a84,84,0,0,1,10.69-21.32c1.79-2.67,3.73-5.49,1.73-8.54-1.68-2.56-4.66-4.46-6.62-6.85-10.2-12.4-14.95-27.61-14.44-43.59s3.82-32.74,11.06-47.13c7.7-15.31,18.16-29.13,28.4-42.8,9.19-12.27,18.32-25.14,30.94-34.16,13.3-9.51,29.36-14.32,45.38-16.7A169.43,169.43,0,0,1,150,416.66a74.43,74.43,0,0,1,24.88,3.84c4.14,1.46,8.1,3.48,12.4,4.46a66.23,66.23,0,0,0,11.91,1.25c4.49.2,9,.27,13.5.27s9.21-.07,13.81-.16c16.51-.31,33-2.37,49.47-2.37q2.41,0,4.81.06c35.37.93,69.15,12.92,102.65,23.09-.47-4.89-2.81-50.32-5-50.64,7.27.46,14.62,1.28,21.93,1.28a68.63,68.63,0,0,0,13.21-1.15l.26-.05-.26.05a39.65,39.65,0,0,1-7.57.68c-6.94,0-13.93-1.47-20.73-2.47-9.94-1.46-20.12-2.51-29.88-4.93-8.84-2.19-16.88-6.88-24.64-11.51-16-9.55-30.4-21.52-44-34.16-12.69-11.76-25.16-24.54-32.14-40.63-6.89-15.87-8.29-34.68-1.25-50.75,3.29-7.51,8.48-14.47,15.8-18.42s15.9-4.51,24.12-4.75c10.08-.3,20.15-.82,30.23-1.1q1.61,0,3.22,0c8.93,0,17.85.94,26.76,1.39,9.75.48,19.5.75,29.24,1.37,8.39.53,16.78,1.3,25.19,1.3q2.13,0,4.26-.07c10.24-.35,20.45-1.46,30.62-2.68a158.24,158.24,0,0,1,18.68-1.57m-83,168.21h0m83-175.21a147.5,147.5,0,0,0-17.75,1.41l-1.76.21c-9.1,1.09-19.67,2.28-30,2.63-1.29,0-2.64.07-4,.07-6.2,0-12.32-.43-18.81-.89l-5.93-.4c-6.13-.39-12.32-.65-18.32-.89-3.62-.15-7.36-.3-11-.48-3-.15-6.14-.36-9.15-.57-5.85-.4-11.89-.82-18-.82-1.16,0-2.31,0-3.41,0-5.28.15-10.62.36-15.79.57-4.74.19-9.64.39-14.45.53-9,.27-18.57.92-27.23,5.59-8,4.32-14.55,11.85-18.9,21.77-7.41,16.92-7,37.46,1.24,56.34,7.44,17.14,20.64,30.79,33.81,43,16.91,15.67,30.86,26.47,45.22,35,7.31,4.36,16.41,9.78,26.55,12.29a186,186,0,0,0,18.72,3.41c1.17,5.29,2.64,27.15,3.3,37.34l-3.35-1C343,427.28,312.66,417.86,280.93,417c-1.62,0-3.3-.06-5-.06-9.16,0-18.34.62-27.21,1.22-7.36.5-15,1-22.39,1.15-5.08.1-9.35.16-13.67.16-4.88,0-9.2-.09-13.19-.26a60.92,60.92,0,0,1-10.65-1.08,47.88,47.88,0,0,1-7-2.45c-1.48-.6-3-1.22-4.62-1.79A80.79,80.79,0,0,0,150,409.66a178.2,178.2,0,0,0-25.77,2.25c-19.82,2.94-35.66,8.81-48.42,17.93-12.6,9-21.7,21.21-30.49,33l-2,2.65-.92,1.22c-10,13.38-20.38,27.22-28.13,42.63C7.11,523.53,3,540.84,2.44,559.41c-.58,18.13,5,34.82,16,48.26a35.12,35.12,0,0,0,3.64,3.67c.67.61,1.36,1.23,1.88,1.79-.29.48-.67,1.05-1,1.49l-.07.11a90,90,0,0,0-11.55,23.09C7,651.67,5.81,666.1,4.66,680.06c-.22,2.62-.43,5.23-.67,7.82-.2,2.19-.41,4.41-.63,6.63-1.49,15.52-3,31.56-.8,47.22a53.46,53.46,0,0,0,11.1,25.69,37.14,37.14,0,0,0,3.26,3.51,20,20,0,0,1,2.52,2.77,18.54,18.54,0,0,1-.92,3.24c-.29.84-.59,1.7-.84,2.6A124.58,124.58,0,0,0,14.25,833c.9,5.65,2.08,11.26,3.22,16.68.61,2.92,1.25,5.95,1.83,8.9,1.32,6.77,2,13.52,2.77,20.65q.17,1.6.34,3.21c2,18.94,8.6,32.72,20.13,42.13,5.43,4.44,11,6.78,16.45,9,1,.43,2.07.86,3.12,1.32a14.28,14.28,0,0,1,.16,1.63l.06,1.22a94.21,94.21,0,0,0,1.13,11.86c1.86,10.49,5.39,20.45,8.81,30.08,2.12,6,4.13,11.64,5.78,17.44l.23.82c4.07,14.33,8.68,30.57,21.12,42.13a38.18,38.18,0,0,0,25.13,10.56c2.39.09,4.69.1,6.93.11,5.71,0,11.1.05,16.41,1.46,6.75,1.79,12.88,3.27,19.64,3.27a43.49,43.49,0,0,0,7.16-.58c8.3-1.37,16.09-4.22,23.63-7l2-.74c16.43-6,32.65-12.92,49.2-20.12,4.43-1.92,8.13-3.59,11.83-5.48a57.9,57.9,0,0,0,6-3.64,49.72,49.72,0,0,1,4.25-2.65.73.73,0,0,1,.45-.1,15.37,15.37,0,0,1,2.08.27,34.88,34.88,0,0,0,3.55.46c.93.06,1.89.09,2.85.09a52.47,52.47,0,0,0,10.64-1.14,40.19,40.19,0,0,0,6-1.87,26,26,0,0,1,4.1-1.3h.15a14.8,14.8,0,0,1,4,1.3,37.52,37.52,0,0,0,4.67,1.68,52.36,52.36,0,0,0,13.5,1.72,68.9,68.9,0,0,0,14.07-1.54,20.86,20.86,0,0,1,4.26-.5,17.32,17.32,0,0,1,4.45.63,34.67,34.67,0,0,0,8.75,1.12,39.2,39.2,0,0,0,6.55-.57,46.62,46.62,0,0,0,7.15-2c1.33-.45,2.59-.87,3.79-1.17a26.74,26.74,0,0,1,6.11-.5h2.5l1.88,0,1.9,0c15.19-.32,34.1-.72,48.81-8.76a78.53,78.53,0,0,0,9.5-6.42,60.87,60.87,0,0,1,8.54-5.72,53.33,53.33,0,0,1,20.86-5.54c1.24-.08,2.49-.12,3.72-.12,12,0,23.47,3.72,38.36,12.44q6.81,4,13.63,7.95c10.65,6.2,21.67,12.6,32.37,19.08,29.31,17.74,60.44,37,89.43,57.91,6,4.34,12.15,9,18.19,13.85l.31.25c2.33,1.87,5.84,4.71,10.68,4.71a12,12,0,0,0,1.44-.09c4-.49,7.07-2.79,9.31-4.47.53-.39,1-.76,1.42-1,15.75-10.5,28.2-20.18,39.17-30.49a320,320,0,0,0,60.45-78.12c15.76-28.39,27.75-60.06,35.63-94.12a458.19,458.19,0,0,0,11.33-99.76,431.68,431.68,0,0,0-2.63-53.52c-1-8.22-7.4-10.81-11.24-12.35l-2.71-1.08c-3.58-1.43-7.29-2.91-10.85-4.46-5.61-2.45-11.32-4.89-16.84-7.25l-10.69-4.58c-19.9-8.58-38.18-16.54-55.87-24.34C710,678.25,691.48,670,672.94,661.42c-8.47-3.93-16.85-7.93-26.83-12.74-1.82-.88-3.67-1.72-5.45-2.53-5.44-2.47-10.58-4.81-14.87-8.07-1.75-1.34-2.63-2.69-3.74-5.81-1.4-3.9-2.92-7.77-4.4-11.51l-1.3-3.3c-3.6-9.19-7.18-18.44-10.64-27.49l-2.16-5.64c-2.84-7.4-5.78-15-8.44-22.6-3.24-9.2-4.15-18.31-4.61-26-2.44-40.67-7.6-81-13.12-122.18-.43-3.2-.75-6.4-1.09-9.78a173.88,173.88,0,0,0-2.53-18.49c-1.5-7.15-4.44-13.36-7.28-19.36-1.13-2.39-2.2-4.64-3.18-6.95-2.24-5.27-4-10.72-5.92-16.48-1.25-3.81-2.55-7.75-4-11.62s-3-7.76-4.44-11.52c-2-5.07-4.05-10.31-5.86-15.48-1.56-4.47-2.9-9.15-4.2-13.67-3.84-13.4-7.81-27.25-18.18-39.09-12.84-14.66-30-25.1-46.94-28.64a59.91,59.91,0,0,0-12.35-1.19Z"/><path class="cls-2" d="M313.47,740.68c-3.82,6.92-8.25,13.81-14.5,18.79-6.72,5.34-15.24,7.49-23.36,9.7a580.82,580.82,0,0,1-57.17,12.08c-19.32,3.23-38.73,5.87-58.18,8.22s-38.68,4.94-58.12,5.78c-20.18.87-40.69-.85-58.56-11.09,28,6,55.6,6.11,84,2.81s56.58-8,84.66-13c23.31-4.1,48.17-7.45,70.15-16.67,9.25-3.88,18.19-9.22,24.58-17.1,7.31-9,9.66-23.35,10.35-34.65,1.87-30.64-13.66-56.34-28.88-81.54,14.66,15,27.3,32.72,32.87,53.18A85.66,85.66,0,0,1,313.47,740.68Z"/><path class="cls-2" d="M289.06,764.75c-16.2,6.95-33.59,10.41-50.79,13.88-18.25,3.69-36.6,6.85-55,9.38q-27.94,3.83-56,6.67c-18.43,1.84-37.22,3.46-55.61.34C54.35,792.1,35.07,783.09,24,769c10.39,11.91,27,19.61,42.18,22.87,17.53,3.77,35.56,2.62,53.26.84,37.19-3.75,74.26-8.47,111.12-14.66C250.3,774.74,270.14,771.39,289.06,764.75Z"/><path class="cls-1" d="M614.46,631.92q-1.26-3.23-2.51-6.45Z"/><path class="cls-2" d="M212.85,487.14C183.18,473.65,154.19,458.87,121,457,153.74,453.82,186.22,469.74,212.85,487.14Z"/><path class="cls-2" d="M180,439c12.05,9.79,21.07,26.37,21.42,42C196.19,465.87,188.78,452.38,180,439Z"/><path class="cls-2" d="M264,641c-15,4.58-31,3.43-46.42,1.94-16.38-1.58-32.67-4-49-6.29-16.55-2.33-33.18-4.53-49.92-4.43C102.8,632.3,86.84,634,71.06,631c-14.72-2.82-29.86-8.53-40-20,19.2,19,48.52,20.95,74,19.15,34.51-2.43,68.15,4.64,102.14,9.4C225.87,642.17,245.32,645.43,264,641Z"/><path class="cls-2" d="M296.29,529.35c-6.43-16.54-13.84-33.72-26.56-46.48-15.51-15.57-36.65-18.54-57-10.88,14.84-5.6,31.7-8.12,46.79-2,13.65,5.54,23.66,17,30.7,29.62,7.32,13.12,12,27.8,15.29,42.41,3.75,16.78,4.09,34-1.35,50.5-4.44,13.45-10.27,27-20.7,37-11,10.44-25.4,14-40.19,14.09-34.31.29-68.34-8.67-102.36-12-19-1.86-37.81,1.27-56.8.07-16.94-1.07-34.17-5.46-47.79-16,.94-1.13,14.2,4.67,15.9,5.23,10.36,3.42,22,4,32.82,4.32,27,.72,53.72-3.34,80.46,2.1,13.12,2.67,26,6.17,39.38,7.35,12.76,1.12,25.83,2.95,38.64,2.92,22.05-.05,38.25-12.95,47.41-32.43C301.62,582.54,305.5,553.06,296.29,529.35Z"/><path class="cls-2" d="M311.49,789.21c-2-8.47-7.11-15.78-12.32-22.56,3.3,9.57,7.52,18.2,7.94,28.51a240.69,240.69,0,0,1-1.25,31.22c-.74,8.25-.74,18.82-4.59,26.34-4,7.88-12.75,13-20.55,16.49-18.4,8.24-38,13.37-56,22.5s-35.34,18.53-54.29,25.45c-22,8-44.8,13.25-67.75,17.61,19.72,1.26,39.14-2.46,58.06-7.73a267.25,267.25,0,0,0,53.93-21.85c17.11-9.09,35.29-15.39,53.07-23,15.85-6.74,29.39-15,37-31.07,4.37-9.28,6.2-19.44,7.35-29.56C313.23,810.87,314,799.8,311.49,789.21Z"/><path class="cls-2" d="M68,930c13.71,3.71,29.43,4.2,43.57,4.12,15-.08,29.64-3.39,44-7.26a274.89,274.89,0,0,0,40.79-14.17c12.91-5.77,25.16-12.92,38.24-18.32,15.3-6.31,31.19-11.17,46.12-18.36-12.67,7.29-26.44,12.28-39.84,18-13.11,5.62-25.5,12.69-38.31,18.94a243.56,243.56,0,0,1-40.76,15.17c-14.26,4-28.84,7.62-43.72,8a173.34,173.34,0,0,1-25.68-1.63C84.25,933.54,75.94,932.56,68,930Z"/><path class="cls-3" d="M302.79,963.14c-6.25,13.55-12.75,27.81-24,38s-25.31,16.55-39.15,22.59c-15.28,6.67-30.81,12.69-46.46,18.43-7.19,2.63-14.51,5.18-22.14,6.15S156.5,1048,149.2,1046a53.61,53.61,0,0,0-12.14-2.34c-3.86-.16-7.7.3-11.57.06-7.65-.46-14.83-2.88-20.65-8,7.08,1.92,13.8,4.18,21.19,4.65,7.71.49,15.43-.07,23.14.17,7.52.23,15,2.32,22.5,1.07,7.32-1.22,14.48-4.24,21.41-6.8,27-10,54.84-20.2,78.21-37.42C283.68,988.25,295.85,977.08,302.79,963.14Z"/><path class="cls-3" d="M618.53,664.5s-35,76-76,111C542.53,775.5,605.53,734.5,618.53,664.5Z"/><path class="cls-3" d="M447.53,985.29c-5,2.27-8.78,6.35-13.16,9.54-4.77,3.48-10.2,5-15.94,6.13-13.29,2.5-26.74,4.51-40.28,4-6.29-.24-11.58,2.42-17.66,3.54a34,34,0,0,1-9.57.46c-2.86-.29-5.6-1.73-8.46-1.73s-5.6,1.12-8.35,1.52a62.39,62.39,0,0,1-10.42.65,53.16,53.16,0,0,1-17.92-3.52c-3.12-1.21-3.77-2.33-6.93-.93a38.69,38.69,0,0,1-7.06,2.73A48.9,48.9,0,0,1,270,1008c10.31-6.19,17.73-15.92,23.56-26.26,5.73-10.15,11.58-21.38,14.53-32.69,6.87-26.38-10.49-54.14-27.35-73,7.12-3.79,14.21-8.38,18.31-15.55,8.77,26,18.81,51.37,37.22,72.24,17,19.26,38.82,33.36,63,41.92A213.89,213.89,0,0,0,447.53,985.29Z"/><path class="cls-3" d="M670,693s3,63-36,172C634,865,687,747,670,693Z"/><path class="cls-3" d="M639,679c7.74,33-.43,73-21,100C633.35,748.07,640,713.4,639,679Z"/><path class="cls-3" d="M321,742c14.15,24,37.5,42.31,61.51,55.75C410.9,813.62,442.17,819.23,474,812c-45.95,22.56-98.64-1.39-131.18-35.83C333.61,766.39,324.73,755.16,321,742Z"/><path class="cls-3" d="M538,856c-13.09,31.74-28.65,64-29,99-3.35-17.06.41-35,5.71-51.23A191.94,191.94,0,0,1,538,856Z"/><path class="cls-3" d="M36,714c-1,15.63-3.37,31.45,0,47C29.56,747.15,31.91,728.16,36,714Z"/><path class="cls-3" d="M62,720c-1.05,15.61-2.24,31.43,0,47-2.67-7.23-2.92-15.14-2.89-22.77C59.18,736.08,59.8,727.87,62,720Z"/><path class="cls-3" d="M52,711a290.19,290.19,0,0,0-2.23,29c-.39,9.66-1.19,19.38-.77,29-2.19-9.52-1.66-19.46-1.21-29.14S49,720.31,52,711Z"/><path class="cls-3" d="M37,529c-1.77,21-4.44,41.81-4,63C29.35,571.53,31.92,549,37,529Z"/><path class="cls-3" d="M58,529c-1.77,11.7-3.36,23.42-4.55,35.19C52.35,575.41,51.14,586.72,52,598c-2.42-11.17-1.65-22.76-.53-34A193.24,193.24,0,0,1,58,529Z"/><path class="cls-3" d="M48,856c0,8.26.18,16.58,1.52,24.75s4.4,16,5.48,24.25c-2.73-7.64-5.93-15.16-7.33-23.2A71.32,71.32,0,0,1,48,856Z"/><path class="cls-3" d="M60,860c1,16.57,4.62,32.79,8,49C61.76,894.23,57.82,876,60,860Z"/><path class="cls-3" d="M103,983c4.71,15.08,7.51,30.93,15,45-4.87-5.57-7.57-12.72-9.81-19.66A113,113,0,0,1,103,983Z"/><path class="cls-3" d="M118,983a210.8,210.8,0,0,1,7.36,20.77c1.93,6.12,3.3,12.68,6.64,18.23-4.56-4.46-6.43-11.08-8.32-17A165.3,165.3,0,0,1,118,983Z"/><path class="cls-6" d="M37,802a50.45,50.45,0,0,0-1.81,33c2.7,9,9,20.41,17.93,24.66,4.89,2.33,10.38,1.48,15.53.59A152.47,152.47,0,0,0,88.41,855c12.87-4.06,25.5-8.77,38-13.9,12.3-5.06,24.45-10.47,36.34-16.43,5.24-2.63,10.52-5.22,15.58-8.2a82,82,0,0,0,7.3-4.78c1.9-1.41,5.82-3.34,3.31-5.61s-10.12-.39-13.32-.18c-7,.48-13.93,1.1-20.89,1.78-13.37,1.3-26.73,2.62-40.15,3.15-15,.59-30.06.2-44.83-2.5-7.11-1.3-14.07-3.23-21-5.19C46.61,802.62,38.28,798.88,37,802Z"/><path class="cls-6" d="M55,651c-17,7.56-29.53,28.1-24.89,46.8,1,4,3,7.9,7.21,9.1,5.14,1.45,11.54,0,16.58-1.07,11.69-2.58,23-7.3,34.13-11.63,22.81-8.89,45.09-19.34,68.36-27,2-.67,15.12-2.92,13-6s-10.44-3.43-13.68-3.87q-8.76-1.18-17.55-2.24c-14.17-1.7-28.42-2.92-42.67-3.84-6.88-.44-13.77-.79-20.66-1-3.62-.11-7.25-.17-10.87-.12C61.09,650.17,57.7,649.82,55,651Z"/><path class="cls-6" d="M104.53,957.5c-6.63-1.89-20.09-3.91-16.35,7.62,2.69,8.3,10.62,17.47,18.63,20.89,5.18,2.21,10.55,1.28,15.93.35a170.46,170.46,0,0,0,18.71-4.55c12.78-3.73,25.48-7.8,37.94-12.51,11.37-4.31,22.54-9.15,33.43-14.56,9.83-4.88,19.55-10.45,27.54-18.07,1.9-1.81,6.76-5.9,3.47-8.42-1.74-1.33-5.68-.62-7.64-.46a73.6,73.6,0,0,0-10.81,1.85c-12.42,2.91-24.73,6.38-37,9.83-14.06,4-28.09,8-42.24,11.66-7,1.8-14.09,3.6-21.2,5.07C118.69,957.5,110.83,959.3,104.53,957.5Z"/><path class="cls-6" d="M105,460c17.06,5.33,40.61,7.14,47.4,26.57a77.34,77.34,0,0,1,4.16,23.08c.15,8.46-4.5,13.58-12.8,15s-17.51-.16-25.93-.83c-10.23-.81-20.46-1.67-30.72-2-8.23-.24-18,.1-25.32-4.31-8.42-5.07-1.33-14.63,3.07-19.88A327.06,327.06,0,0,0,85.13,471C89.84,464.09,95.73,457.09,105,460Z"/><path class="cls-6" d="M437,248.06c-15.8-18.32,83.8-10.06,64.8,37.94C496.57,299.15,471.12,287.65,437,248.06Z"/><path class="cls-6" d="M639,679c28.3,47.17,145,88,168,82S633,669,639,679Z"/><path class="cls-6" d="M563,882c27.3,41.86,125,89,148,81S548,859,563,882Z"/><path class="cls-6" d="M593.43,630c-5.64,28-43.6,156-44.33,56C548.78,642,599.07,602,593.43,630Z"/><path class="cls-2" d="M284.63,880.5C298,909,337,932,270,1009l4,3s40-41,39-73S284.63,880.5,284.63,880.5Z"/></g></svg>