<svg xmlns="http://www.w3.org/2000/svg" viewBox="0 0 826.21 1096.88"><defs><style>.cls-1{fill:#80664d;}.cls-2{fill:#fc9;}.cls-3{fill:#bf9973;}.cls-4{fill:#ffebd6;}.cls-5{fill:#ffe0c2;}.cls-6{fill:#ffd6ad;}</style></defs><title>Hand</title><g id="Frame_8" data-name="Frame 8"><path class="cls-1" d="M417.36,251.57a89.47,89.47,0,0,1,34.26,7.16A58.55,58.55,0,0,1,471,271.47c6,6.09,10.78,13.19,16.51,19.49,11.43,12.59,24.29,23.77,35.7,36.38,11.08,12.23,19.4,26.56,27.64,40.78a429.59,429.59,0,0,1,23.18,45.7c6.8,15.83,13.24,32.18,15.56,49.36,1.18,8.74,1.26,17.57,2.15,26.34.91,8.92,2.11,17.77,2.41,26.75.62,18.34-.61,36.68-.55,55,0,8.59-.52,17.82,1.17,26.28,1.58,7.91,5.43,15.16,8.19,22.69,1.44,3.91,2.72,7.87,4.19,11.77,1.22,3.24,2.34,7.17,4.87,9.64s6.32,4,9.39,5.69c3.79,2.07,7.65,4,11.52,6,32.32,16.23,65.53,30.6,98.64,45.12q24.77,10.86,49.62,21.52,12.58,5.41,25.18,10.77c3.93,1.67,8.59,2.81,12.27,4.94,2.08,1.21,2.67,2.71,2.95,5.07a424,424,0,0,1,2.59,49.32c0,62.52-11.35,125.9-39.75,182a322.76,322.76,0,0,1-52.94,75.79,277,277,0,0,1-35.4,31.74c-6,4.5-12.31,8.56-18.53,12.74-1.69,1.13-3.29,2.23-5,2.23a4.49,4.49,0,0,1-2.5-.8c-2.56-1.67-4.86-4-7.35-5.81-27-19.65-54.9-37.94-83.23-55.56q-21.69-13.5-43.68-26.51-10.57-6.24-21.23-12.31c-6.68-3.79-13.29-8.13-20.41-11.05A62.1,62.1,0,0,0,470.7,978a64.66,64.66,0,0,0-22.08,3.85c-7.17,2.62-12.77,6.59-18.79,11.15a44.78,44.78,0,0,1-19.56,8.24c-7.84,1.47-15.82,2.61-23.77,3.34-3.29.3-6.61.57-9.92.57-1.07,0-2.15,0-3.22-.09-1.64-.1-3.24-.22-4.83-.22a18.33,18.33,0,0,0-5.26.67c-5.65,1.66-10.72,3.6-16.32,3.6a23.46,23.46,0,0,1-5.46-.64,29.47,29.47,0,0,0-7.06-1,27,27,0,0,0-4.3.38c-3.49.56-7,1.19-10.5,1.46q-1.8.14-3.61.14a46.41,46.41,0,0,1-9.7-1c-3.48-.74-6-2.42-9.22-3.67a6.24,6.24,0,0,0-2.29-.45c-2.05,0-3.8,1.09-5.93,2a33.27,33.27,0,0,1-9.58,2.28,28.59,28.59,0,0,1-3.36.19c-2.88,0-5.66-.37-8.62-.63-.48,0-.93-.06-1.36-.06-2.65,0-4.43.82-6.87,2.48-6.34,4.31-13.47,7.44-20.46,10.57-15.21,6.81-30.59,13.37-46.27,19-11.33,4.1-22.46,8.12-34.11,8.12a47.08,47.08,0,0,1-12-1.53,83.08,83.08,0,0,0-22-3h-1.32c-7.12,0-13.83-.75-20.08-4.55-12.05-7.34-18.41-21.19-22.33-34.19-2.29-7.59-4-15.33-6.68-22.81-2.81-7.88-6-15.58-8.09-23.71a148.49,148.49,0,0,1-4.06-23.84c-.27-3.21-.57-4.68-3.69-6.07-3.29-1.46-6.68-2.46-9.85-4.21-11-6.05-19.71-15.8-23.27-28-2.17-7.44-2.45-15.25-3-22.93a175.56,175.56,0,0,0-4.21-25.35c-3.59-15.81-6.49-31.84-4.24-48.07,1.15-8.28,3.35-16.21,5.59-24.24,1.69-6.07-4.37-9.65-7.69-14.14-9.36-12.67-9.56-27.45-9-42.57q1-25.17,4-50.19c1-8.22,1.89-16.51,3.62-24.61,1.62-7.6,4.9-14.26,8.71-21,1.77-3.11,7.62-9.19,5.75-12.74-1.14-2.15-3.93-3.68-5.56-5.49a74.77,74.77,0,0,1-6.61-8.68c-8.91-13.43-10.92-28.22-9-44,1.9-15.21,5.05-31.15,12.86-44.51,7.94-13.6,17.26-26.63,26.67-39.23,8.79-11.76,17.82-23.74,29.71-32.57,12.27-9.12,27-14.09,42-16.69a167,167,0,0,1,28.27-2.87,77.4,77.4,0,0,1,19.73,2.32c7.53,2,14.51,5.44,22.24,6.71a98.57,98.57,0,0,0,16,1.1c2.22,0,4.45,0,6.66-.09,7.76-.18,15.55-.12,23.3-.59,8.47-.51,16.9-1.52,25.38-1.81a81.25,81.25,0,0,1-19.71-12.88c-10.84-9.42-19.11-22.18-22.24-36.29-2.81-12.62-1.48-27.48,8-37.08,5.43-5.47,12.57-8.94,19.49-12.1,7.83-3.57,15.32-7.78,23-11.56,15.39-7.54,31.78-12.66,47.66-19,8.57-3.42,17.29-6.43,25.87-9.84,7.66-3,14.82-7.1,22-11,7.84-4.28,15.66-8.59,23.41-13,6.77-3.88,13.72-7.46,21.48-8.8a72.14,72.14,0,0,1,12.25-1m0-3a75.37,75.37,0,0,0-12.76,1.07c-8.59,1.48-16.1,5.5-22.47,9.16-8,4.59-15.95,9-23.36,13L356.6,273a177.89,177.89,0,0,1-19.53,9.69c-4.16,1.65-8.44,3.24-12.58,4.78-4.36,1.62-8.88,3.3-13.29,5.06-5.29,2.11-10.75,4.13-16,6.08-10.56,3.9-21.48,7.94-31.85,13-3.13,1.54-6.27,3.16-9.3,4.73-4.45,2.31-9.05,4.69-13.67,6.8-7.47,3.41-14.66,7-20.38,12.71-9.05,9.12-12.36,24-8.84,39.84,3.15,14.18,11.39,27.64,23.2,37.9a92,92,0,0,0,11,8.26l-4.65.38c-3.37.28-6.85.58-10.27.79-5.26.32-10.66.39-15.89.46-2.39,0-4.86.07-7.3.12-1.94,0-4.23.09-6.59.09a95.09,95.09,0,0,1-15.52-1.06,75.32,75.32,0,0,1-12.8-3.7c-3-1-6-2.12-9.16-3a79.53,79.53,0,0,0-20.5-2.42,172.53,172.53,0,0,0-28.79,2.91c-17.38,3-31.94,8.82-43.26,17.23-12.43,9.24-21.94,22-30.33,33.18-8.57,11.47-18.47,25.14-26.86,39.52C5,521,1.92,538.49.23,552.08c-2.25,18,.84,33.07,9.43,46a77.2,77.2,0,0,0,6.88,9,23,23,0,0,0,2.56,2.33A11.05,11.05,0,0,1,21.67,612s.18.52-.58,2.08A35,35,0,0,1,18,618.82,36.21,36.21,0,0,0,16,621.88c-3.64,6.41-7.26,13.5-9,21.84-1.58,7.4-2.48,15-3.36,22.3l-.31,2.58c-2,16.31-3.31,33.28-4,50.43-.63,15.78-.37,31.06,9.54,44.47a39.89,39.89,0,0,0,3.24,3.7c3,3.2,4.73,5.15,4,7.85-2.2,7.9-4.48,16.06-5.67,24.64-2.4,17.35,1,34.47,4.28,49.15a174.15,174.15,0,0,1,4.14,24.92c.09,1.12.17,2.24.25,3.36.47,6.65,1,13.52,2.91,20.18,3.64,12.45,12.41,23,24.7,29.77a52.44,52.44,0,0,0,6.46,2.85c1.26.49,2.44.95,3.62,1.47,1.61.72,1.68.75,1.92,3.58a151.74,151.74,0,0,0,4.14,24.33,172.94,172.94,0,0,0,5.91,17.82c.75,2,1.53,4.1,2.26,6.15,1.63,4.58,2.95,9.4,4.21,14.06.77,2.82,1.56,5.73,2.42,8.6,5.34,17.71,13.07,29.45,23.64,35.89,7.22,4.39,15,5,21.64,5h1.32a79.88,79.88,0,0,1,21.29,2.91,49.73,49.73,0,0,0,12.78,1.63c12.18,0,23.85-4.22,35.13-8.3,17.2-6.22,33.87-13.48,46.48-19.12l.82-.37c6.78-3,13.78-6.16,20.1-10.46,2.23-1.52,3.39-2,5.18-2,.34,0,.7,0,1.1.05l2.15.21c2.18.22,4.43.44,6.74.44a31.42,31.42,0,0,0,3.71-.21,36.22,36.22,0,0,0,10.45-2.51c.48-.21.94-.43,1.39-.64a8.66,8.66,0,0,1,3.33-1.14,3.3,3.3,0,0,1,1.2.25c1,.41,2,.86,3,1.35a29.38,29.38,0,0,0,6.63,2.46,49.48,49.48,0,0,0,10.32,1.08c1.27,0,2.56,0,3.83-.15,3.05-.23,6.06-.72,9-1.2l1.78-.29a24,24,0,0,1,3.83-.34,26.84,26.84,0,0,1,6.37.93,26.31,26.31,0,0,0,6.15.72c5.06,0,9.52-1.38,14.24-2.83l2.93-.89a15.35,15.35,0,0,1,4.41-.55c1.17,0,2.37.08,3.64.16l1,.06c1.08.06,2.23.1,3.4.1,3.59,0,7.14-.3,10.19-.58,7.82-.72,15.91-1.86,24-3.38,8.35-1.57,15-4.36,20.82-8.8s11.11-8.2,18-10.72A62,62,0,0,1,470.7,981,59.38,59.38,0,0,1,493,985.31a119.2,119.2,0,0,1,14.93,7.9c1.68,1,3.41,2,5.13,3,6.68,3.79,13.61,7.81,21.18,12.28,14,8.24,28.23,16.9,43.62,26.47,32.5,20.22,58.89,37.84,83,55.44,1,.72,2,1.55,3,2.43a45.68,45.68,0,0,0,4.47,3.48,7.49,7.49,0,0,0,4.14,1.29c2.62,0,4.74-1.43,6.62-2.69l.07,0,4.08-2.73c4.82-3.22,9.81-6.54,14.58-10.1a280.79,280.79,0,0,0,35.79-32.09,324.94,324.94,0,0,0,53.44-76.49,360.49,360.49,0,0,0,30.78-89.34,462.68,462.68,0,0,0,9.29-94,425.58,425.58,0,0,0-2.61-49.67c-.31-2.65-1.06-5.37-4.42-7.32a47.72,47.72,0,0,0-8.18-3.45c-1.57-.55-3-1.07-4.42-1.65-7.71-3.28-15.95-6.8-25.17-10.77-17.71-7.61-33.93-14.65-49.6-21.51l-7.41-3.25c-30.11-13.19-61.24-26.82-91.08-41.81-3.9-2-7.71-3.88-11.42-5.91-.78-.43-1.6-.84-2.4-1.25a26.2,26.2,0,0,1-6.33-4c-1.65-1.61-2.63-4.34-3.59-7-.19-.54-.38-1.06-.58-1.57-.8-2.12-1.56-4.31-2.3-6.43-.61-1.74-1.23-3.54-1.88-5.32-.91-2.48-1.94-4.93-2.93-7.31-2.12-5.07-4.12-9.85-5.13-14.93-1.29-6.45-1.21-13.54-1.14-20.41,0-1.74,0-3.54,0-5.29,0-7.45.17-15,.36-22.4.28-10.71.56-21.78.19-32.71-.23-6.86-1-13.71-1.72-20.34-.24-2.2-.49-4.4-.71-6.61-.37-3.66-.61-7.43-.83-11.08-.31-5-.64-10.23-1.33-15.36-2.44-18.08-9.42-35.36-15.77-50.15a429.51,429.51,0,0,0-23.34-46c-8.2-14.14-16.67-28.77-28-41.29-5.8-6.4-12-12.52-18.08-18.43s-12-11.76-17.63-18c-2.46-2.71-4.83-5.67-7.11-8.52-3-3.71-6-7.55-9.47-11.06A61.57,61.57,0,0,0,452.78,256a92.47,92.47,0,0,0-35.42-7.4Z"/><path class="cls-2" d="M821.62,740.76c-.59-5-3-5-7.35-6.68-5.41-2.06-10.7-4.53-16-6.8q-16.16-6.9-32.28-13.87-31.82-13.74-63.49-27.82c-21.1-9.4-42.2-18.86-62.95-29-5.1-2.5-10.2-5-15.23-7.67-3.83-2-10.2-4.4-13.06-7.82-2.14-2.55-3.06-7.6-4.26-10.67l-6.45-16.56c-4.17-10.72-8.32-21.45-12.37-32.22s-7.26-21.95-11.79-32.43c-1.77-4.09-5.89-7.61-9-10.84-3.53-3.71-7.18-7.31-11-10.7a129.31,129.31,0,0,0-25.89-17.9c-9.94-5.17-20.51-9-30.42-14.26-9.66-5.11-19.36-10.15-29.2-14.91-19.2-9.31-39-17.55-59.51-23.37-21.6-6.12-43-12.81-64.59-19-19.94-5.75-40.61-11.63-61.33-13.58-27.83-2.63-55.83,2.24-83.68,1.9-5.29-.06-10.59-.26-15.86-.74-5.45-.5-10.15-2.29-15.2-4.25-10.24-4-20.29-4.93-31.21-4.51-19.35.75-39,3.63-56.47,12.47-19.35,9.81-32,27.69-44.43,44.86-12.74,17.59-26.12,35.43-31.43,56.78s-8.32,44.14,4,63.71a86.13,86.13,0,0,0,9.61,12.53c1,1.1,2.92,2.28,3.62,3.55,1.09,2-.34,3-1.56,5.06-5.45,9.36-10.93,18.51-13.11,29.23C5.17,667.34,3.54,690.51,2.52,713c-.46,10.26-1.53,21.11.61,31.24,2.22,10.55,8.51,17.91,15.4,25.79,2.67,3.06-.4,8.18-1.33,11.69a165.59,165.59,0,0,0-3.63,16.73,97.24,97.24,0,0,0,.36,32.81c1.94,10.76,5,21.29,6.74,32.09s1.06,22,4,32.55a44.46,44.46,0,0,0,15.49,23.36,61.75,61.75,0,0,0,12.62,7.45c3.54,1.59,7.9,1.54,8.72,5.75.89,4.56,1,9.44,1.73,14.07A145.9,145.9,0,0,0,66.87,963c2.94,10.19,7.58,19.77,10.32,30,4.56,17,9.76,36.94,26.12,46.59,10,5.9,20.24,2.94,31.09,4.18,5.14.59,9.85,2.82,14.86,4a42.74,42.74,0,0,0,16.71.36c10.81-1.79,21.47-6,31.68-9.85,10.42-4,20.69-8.34,30.94-12.7,9.89-4.21,20-8.44,29.28-13.86,1.73-1,3.67-3.11,5.6-3.62s5,.75,7,.85a51.38,51.38,0,0,0,16.55-1.8c3.34-.94,6.44-3.69,9.76-2.2a45.59,45.59,0,0,0,13.88,4.23,62.48,62.48,0,0,0,13.9-.07c4.42-.48,9.37-2.77,13.6-1.39a32.19,32.19,0,0,0,13.91,1.18,38.55,38.55,0,0,0,7.28-1.6c2.47-.81,4.58-2.23,7.22-2.32,5.25-.17,10.52.33,15.81,0,5.8-.37,11.58-1.13,17.33-2,9.92-1.49,20.49-2.75,28.66-9,8.73-6.68,17.07-11.44,27.83-14.23s21.94-1.52,32.7,1c10.42,2.45,20.21,9.68,29.42,15,40,22.89,79.25,47.23,117.32,73.18q14.28,9.74,28.24,19.94c1.65,1.21,3.3,2.42,4.9,3.69.74.59,2.29,2.31,3.39,2.38s2.94-1.42,3.82-1.93c2.59-1.51,5.18-3,7.7-4.65,17.62-11.3,33.62-25.33,48-40.54a328.61,328.61,0,0,0,67.12-107.69c16.16-42.25,23.64-87.66,25.18-132.75A443.28,443.28,0,0,0,821.62,740.76Z"/><path class="cls-3" d="M306.58,740.68c-4.6,8.34-10.36,17-18.88,21.74-6.12,3.42-13.61,5.26-20.34,7.11-19.89,5.47-40.3,9.18-60.63,12.51-24.17,4-48.49,6.92-72.82,9.7-16,1.83-32.19,3.68-48.35,3.73-17.15.06-33.76-2.67-48.86-11.32,12.9,2.76,25.76,4.88,39,5.23,24,.63,48.15-2.49,71.85-6.1,32.06-4.88,64.44-9.87,96.16-16.72,20.31-4.39,46.46-11,58.8-29.57,2.49-3.75,3.66-9,4.84-13.37a92,92,0,0,0,2.87-14.85,90.86,90.86,0,0,0-2.27-30.16c-4.83-20.29-15.72-37-26.35-54.56,14.54,14.88,27,32.24,32.68,52.48A85.1,85.1,0,0,1,306.58,740.68Z"/><path class="cls-1" d="M282.17,764.75c-16.19,6.94-33.6,10.4-50.79,13.88q-27.37,5.55-55,9.38-27.94,3.82-56,6.67c-18.19,1.82-36.7,3.37-54.86.47a79.55,79.55,0,0,1-26.92-9.28c-7.31-4.18-16.18-10.19-21.41-16.87,5.35,6.14,14,11.49,21.09,15.36a80,80,0,0,0,22.54,7.81c16.23,3.24,33,2.42,49.32.79,36.91-3.68,73.91-8.24,110.5-14.39C241.28,775.09,262.31,771.72,282.17,764.75Z"/><path class="cls-2" d="M607.57,631.92q-1.26-3.23-2.51-6.45Z"/><path class="cls-1" d="M206,487.14c-29.67-13.49-58.66-28.28-91.82-30.14C146.85,453.82,179.32,469.74,206,487.14Z"/><path class="cls-1" d="M173.14,439c12.05,9.79,21.07,26.37,21.42,42C189.3,465.87,181.88,452.38,173.14,439Z"/><path class="cls-3" d="M289.39,529.35c-9.6-24.7-23.67-55.34-52.65-60.9-10.38-2-21.07-.15-30.86,3.54,13-4.91,27.44-7.5,41.11-3.89,10.36,2.74,19.31,9,26.29,17,12.75,14.65,19.77,34.43,24.45,53,4.61,18.33,5.67,36.39-.42,54.43-5.11,15.14-11.39,29.85-24.27,40.09-15.1,12-34.55,11.8-52.84,10.2-21.35-1.87-42.47-5.41-63.68-8.39-11.71-1.65-23.52-3.3-35.35-3.72-11.44-.41-22.83,1.17-34.26,1.23-20.08.1-41.19-3.71-57.43-16.26.32-.38,16,5.41,17.83,5.85A130.89,130.89,0,0,0,67,624.63c13.37,1.14,26.8.65,40.19.16,12.88-.47,26-1.35,38.79.35s25.3,5.18,38,7.66c11,2.16,21.92,2.26,33,3.35,9.84,1,19.76,2.3,29.61.71,21.84-3.53,34.86-21.82,41.47-41.55C294.86,574.91,297.35,549.82,289.39,529.35Z"/><path class="cls-1" d="M257.14,641c-14.73,4.5-30.49,3.45-45.61,2-16.66-1.58-33.2-4-49.77-6.37-16-2.25-32.11-4.41-48.31-4.44s-31.92,2-48-1c-15.08-2.74-30.87-8.49-41.28-20.24,19,18.78,48.77,21.08,74,19.15A242.62,242.62,0,0,1,149.36,632c17.55,2.33,35,5.38,52.53,7.79C220.07,642.28,239,645.29,257.14,641Z"/><path class="cls-3" d="M304.59,789.21c-2-8.41-7.14-15.82-12.32-22.56,1.84,5.34,4.24,10.47,5.92,15.86a55.59,55.59,0,0,1,2.07,18A318.43,318.43,0,0,1,297.89,836c-.71,5.27-1.11,11.91-3.52,16.69a28.73,28.73,0,0,1-6.3,7.64c-4.85,4.45-10.79,7.45-16.82,10C254,877.5,236,882.56,219.21,891c-11,5.49-21.54,11.64-32.72,16.74a319.51,319.51,0,0,1-30.33,12c-19.71,6.66-40,11.15-60.42,15,15.79,1,30.55-1,45.89-4.6a265,265,0,0,0,52-17.72c9.1-4.3,17.71-9.52,26.88-13.69,9.75-4.43,19.75-8.26,29.7-12.21,9-3.57,18-7.18,26.39-12A49.47,49.47,0,0,0,295.78,855c5.26-9.27,7.7-19.91,9-30.4C306.17,813.1,307.25,800.59,304.59,789.21Z"/><path class="cls-1" d="M61.14,930c7,1.88,14.2,2.36,21.34,3,7.66.66,15.36,1.22,23.06,1.14,14.42-.15,28.57-3.35,42.44-7a276.77,276.77,0,0,0,41.55-14.37c13.15-5.86,25.59-13.2,39-18.61,15.1-6.12,30.71-11,45.41-18.07-12.66,7.29-26.43,12.31-39.84,18S208.12,907,195,913.32a242.69,242.69,0,0,1-40.81,15c-14.27,4-28.88,7.55-43.77,7.83a175.33,175.33,0,0,1-24.88-1.65C77.36,933.53,69,932.56,61.14,930Z"/><path class="cls-3" d="M295.9,963.14c-4.5,9.76-9.19,19.64-15.43,28.43A66.93,66.93,0,0,1,264,1007.5c-8.71,6.2-18.43,10.62-28.22,14.94Q214.17,1032,192,1040.08c-13.13,4.81-27.27,10.7-41.48,8-8.17-1.57-14.7-4.85-23.29-4.38-10.95.6-20.6-.33-29.26-7.95,5.68,1.54,11.34,3.66,17.22,4.31,9,1,18.11.33,27.11.5,6.91.13,14.13,2.14,21,1.29a67,67,0,0,0,13.13-3.54c9.56-3.26,19-7,28.4-10.59,23.69-9.14,46.87-19.34,66.53-35.75C280.9,984,290.28,974.41,295.9,963.14Z"/><path class="cls-3" d="M611.64,664.5s-35,76-76,111C535.64,775.5,598.64,734.5,611.64,664.5Z"/><path class="cls-3" d="M440.64,985.29c-6.91,3.14-11.58,9.74-18.5,12.71-5.3,2.28-11.45,3.11-17.09,4.07a201.66,201.66,0,0,1-27.43,3.11c-4.45.14-9.8-1-14,.49-7.21,2.53-14.21,4.36-21.9,3-1.64-.29-3.24-1.07-4.86-1.33-2.59-.42-5.46.77-8.15,1.2-11.16,1.8-21.65,1-32-3.51-.47-.21-1.14-1-1.64-1-1.71-.22-5.54,2.37-7.44,2.93a49.3,49.3,0,0,1-7.07,1.54,48.49,48.49,0,0,1-17.49-.47c16.73-10,25.34-28.64,33.16-45.71,4.5-9.82,7.42-19,6.26-30-1.14-10.78-5.24-21.1-10.41-30.55A139.44,139.44,0,0,0,273.88,876c7.21-3.84,14.17-8.31,18.31-15.55,6.06,18,12.29,35.72,22.27,52a145.71,145.71,0,0,0,62.17,55.69C396.72,977.65,418.61,982.88,440.64,985.29Z"/><path class="cls-3" d="M663.14,693s3,63-36,172C627.14,865,680.14,747,663.14,693Z"/><path class="cls-3" d="M632.14,679c4.56,19.42,2.76,41-2.19,60.17A111.6,111.6,0,0,1,611.14,779C626.54,747.91,633.08,713.61,632.14,679Z"/><path class="cls-3" d="M314.14,742c13.46,22.84,36.85,41.53,59.53,54.62,13.59,7.84,28.23,13.86,43.67,16.83,16.69,3.21,33.28,2.29,49.8-1.46-29.16,14.32-63.31,9.82-91.29-5a151.32,151.32,0,0,1-36.08-26.87C329.33,769.62,318.22,756.5,314.14,742Z"/><path class="cls-3" d="M531.14,856c-13.06,31.65-28.65,63.95-29,99-3.39-17.29.82-36.81,6.37-53.24A190.88,190.88,0,0,1,531.14,856Z"/><path class="cls-3" d="M29.14,714c-1,15.63-3.37,31.45,0,47C22.66,747.15,25,728.16,29.14,714Z"/><path class="cls-3" d="M55.14,720c-1,15.37-2.2,31.7,0,47-2.7-7.31-2.93-15.78-2.89-23.49A88.3,88.3,0,0,1,55.14,720Z"/><path class="cls-3" d="M45.14,711c-1.58,11.17-2,22.53-2.42,33.79-.32,8-.93,16.2-.58,24.21-2.14-9.28-1.64-19.69-1.21-29.14C41.36,730.23,42.17,720.22,45.14,711Z"/><path class="cls-3" d="M30.14,529c-1.77,21-4.44,41.81-4,63C22.45,571.53,25,549,30.14,529Z"/><path class="cls-3" d="M51.14,529c-1.73,11.44-3.32,22.9-4.47,34.42S44.23,586.55,45.14,598c-2.44-11.28-1.6-23.39-.46-34.79A190.64,190.64,0,0,1,51.14,529Z"/><path class="cls-3" d="M41.14,856a161.37,161.37,0,0,0,1.52,24.75c1.3,8.17,4.41,16.09,5.48,24.25-2.86-8-6.11-15.47-7.46-23.94A71.72,71.72,0,0,1,41.14,856Z"/><path class="cls-3" d="M53.14,860c1,16.57,4.62,32.79,8,49C54.86,894.23,50.92,876,53.14,860Z"/><path class="cls-3" d="M96.14,983c4.69,15,7.53,31,15,45-5.17-5.91-8.11-14.13-10.4-21.52A110.07,110.07,0,0,1,96.14,983Z"/><path class="cls-3" d="M111.14,983a229.8,229.8,0,0,1,7.84,22.27c1.76,5.54,3.15,11.73,6.16,16.73-4.6-4.5-6.77-12.18-8.68-18.1A154.72,154.72,0,0,1,111.14,983Z"/><path class="cls-2" d="M597.56,644.23a907.16,907.16,0,0,1-3.4-103.88c.42-17.32-.78-34.05-2.45-51.26-1.51-15.44-2.05-30.2-6.45-45.22-8.93-30.48-24.31-58.89-40.44-86.07a195.06,195.06,0,0,0-29-38.29c-11.56-11.71-23.7-22.82-34.3-35.45-4.77-5.69-9-11.81-14.76-16.57s-12.82-8.13-19.92-10.6c-14-4.87-30.64-7.1-45.16-3.59-7.69,1.86-14.85,6-21.84,9.62-6.35,3.27-12.62,6.83-18.87,10.2-7.32,4-14.26,8-22,11.07-7.37,2.92-14.89,5.32-22.22,8.34-15.43,6.37-31.27,11.77-46.62,18.31-7.28,3.1-13.88,7.44-21.07,10.72s-14.43,6.17-20.91,10.57c-26.08,17.74-14.94,56.13,3.7,75,9.64,9.76,21.48,16.27,34.11,21.33a309.68,309.68,0,0,0,48.16,15,201.21,201.21,0,0,0,24.86,4c7.6.71,15.64,1.45,23.15-.12,12.45-2.61,25-6.18,37.21-10,6.31-2,13.42-3.91,18.85-7.8-5.21,3.72-11.18,6.11-17.1,8.41-3,1.18-6.1,2.35-9.11,3.63-1.13.48-5.73,1.65-6.12,2.44-.79,1.61.89,6.92,1.11,8.62q2.94,22.75,5.89,45.5,2.62,20.22,5.24,40.43c.51,4,.07,4.22-2.37,7.67C390.87,553,386.4,560,382,567c-6.28,9.91-12.42,19.92-18.32,30.06-4.35,7.48-9,15.07-12.27,23.12"/><path class="cls-1" d="M254.31,422.31c5.7,3.36,13.14,5.19,19.33,7.49,7,2.61,14.14,5.07,21.34,7.2a331.37,331.37,0,0,1-40.82-15.45c-.12-.09.29,1.06-.21.26Q253.77,422.19,254.31,422.31Z"/><path class="cls-1" d="M404.87,435.48c22.42,3.09,45-1.44,63.63-14.49,12.47-8.72,22.25-20.35,30.8-32.81-15,19.16-37.48,34-60.37,41.64a116.21,116.21,0,0,1-16.61,4.2q-4.61.81-9.27,1.23C410.67,435.48,407.12,436.31,404.87,435.48Z"/><path class="cls-1" d="M404.39,434.56c34-4.24,69.44-27.28,78.15-62.16a138.92,138.92,0,0,1-18.33,25.66,103,103,0,0,1-20.75,18.25,66.08,66.08,0,0,1-12.4,6.36c-3.23,1.22-6.77,1.66-9.89,3C415.43,428.23,409.94,431.63,404.39,434.56Z"/><path class="cls-1" d="M397.07,438.8c26.14,15.13,56.87,5.74,81.84-7a172.86,172.86,0,0,1-30.22,8.74,127.59,127.59,0,0,1-27.41,2.71A77.13,77.13,0,0,1,408,441.86a58,58,0,0,1-6.29-1.59c-1.18-.37-2.33-.91-3.51-1.25C397.72,438.87,396.42,437.82,397.07,438.8Z"/><path class="cls-1" d="M386.89,437.57S422.42,477,476.33,465C476.33,465,418.34,464.87,386.89,437.57Z"/><path class="cls-4" d="M306.16,313.19c-25.54-.32-49.37,13.73-69,28.66,5.59,4.08,11.35,7.87,16.64,12.36,5.84,5,11.51,9.62,18.32,13.22A110.22,110.22,0,0,0,310.9,379c2.28.26,5.21,1,7.49.61,3.45-.53,7.62-5,10.4-7.25a254.4,254.4,0,0,0,19.66-17.58c2.79-2.77,3.57-5,3.84-9a23.06,23.06,0,0,0-.92-8.33,25.88,25.88,0,0,0-8.7-12.21C332.7,317.09,318.77,313.78,306.16,313.19Z"/><path class="cls-5" d="M359.54,352.86c3.24-4.89,1-12.27-1.43-17a36.55,36.55,0,0,0-12.42-13.53A64.68,64.68,0,0,0,320,311.52c-26.82-4.55-54.94,7.42-78.76,18.51-2.81,1.31-10.43,4-8.08,8.26a8.46,8.46,0,0,0,2,2,5,5,0,0,0,1.34,1.06c1.53.45,2.84-1.17,4.31-2.25a224.53,224.53,0,0,1,19.68-12.91c22.43-13,51.22-18,75-5.68,9.37,4.85,17.24,13.07,16.92,24.24-.11,3.76-.67,6.78-3.35,9.45q-4.55,4.53-9.31,8.84a245.27,245.27,0,0,1-20.42,16.56c4.36.17,9.64.52,13.71-1.39,3.54-1.65,6.64-4.53,9.52-7.1C348.55,365.71,355,359.68,359.54,352.86Z"/><path class="cls-3" d="M407.2,434.39c-29,13.88-61,14.69-92.08,7.87-9.73-2.14-19.16-5.19-28.76-7.79-8.54-2.32-17.06-4.44-25.21-7.94-14.57-6.25-28.36-15-37.41-28.35-10.69-15.77-17.52-43.11-3.46-59.1-3.34,15.63-1.36,31.92,8.4,44.95a58.56,58.56,0,0,0,12,11.62,191.52,191.52,0,0,0,36.11,21.12c38.2,17.41,82.34,23.33,122.14,7.54,30.9-12.25,55.67-35.79,74.62-62.63-5.24,17.45-16.7,32.69-29.46,45.4C433.3,417.76,420.93,427.81,407.2,434.39Z"/><path class="cls-1" d="M215.13,381.09c5.8,18.89,20.95,32.61,38.2,41.19,18.94,9.42,40.9,15.1,61.6,19.07,22.42,4.3,45.68,5.55,68.08.47,18.54-4.21,35.82-13.94,50.29-26.08,17.15-14.39,33-32.55,40.2-54.06-5.78,20.18-19.31,37.35-34.52,51.4-13.7,12.66-29.7,23.22-47.48,29.14-21.18,7.06-44,7-65.89,3.84a280,280,0,0,1-67.7-19,87.48,87.48,0,0,1-25.5-16.28,69.94,69.94,0,0,1-10.4-12,62.4,62.4,0,0,1-3.92-6.6c-.88-1.72-2.94-4.79-2.95-6.77"/><path class="cls-6" d="M30.14,802c-6.39,16-4.81,33.63,5.47,47.58,4.82,6.55,10,12.06,18.43,11.6,9.81-.53,19.64-3.66,28.94-6.6,12.88-4.07,25.52-8.89,38-14.06,12.27-5.08,24.41-10.53,36.26-16.53,8.07-4.09,16.68-8.26,23.73-14,1.56-1.28,3.38-2.61,1-3.84-3-1.56-8.57-.46-11.71-.28-15.56.93-31,2.93-46.59,4.09-20.86,1.55-41.85,2.15-62.49-1.86-7.59-1.47-15-3.63-22.4-5.73C37.21,801.91,31.15,799.46,30.14,802Z"/><path class="cls-6" d="M48.14,651c-14.53,6.46-25.42,22.09-25.76,38.11-.11,5,.78,12.72,4.94,16.23,2.41,2,6.07,2.11,9.06,2,11.69-.53,23.44-5.16,34.29-9.14,14.55-5.34,28.84-11.38,43.18-17.26,13.24-5.43,26.52-11,40.22-15.18,1.6-.49,13.14-2.26,7.51-5.09-5.95-3-14.1-3.36-20.56-4.27-11.39-1.61-22.84-2.76-34.3-3.74-12.63-1.08-25.29-1.95-38-2.34-4.46-.14-8.92-.24-13.38-.1C53.12,650.24,50.25,650.06,48.14,651Z"/><path class="cls-6" d="M97.64,957.5c-4.15-1.19-13.26-3.88-16.21,1.11-2.26,3.82.91,9.35,2.93,12.55C89.3,979,97.92,988.28,108,987.4c12.58-1.1,25.21-5.14,37.22-8.81a399.07,399.07,0,0,0,50.93-19.19c13.68-6.33,28.64-13.63,39.25-24.64,3.39-3.52,4.44-6.94-1.5-7.11-8.6-.24-17.67,2.6-25.92,4.67-13,3.28-26,7-38.92,10.66s-26.1,7.36-39.29,10.5c-9.06,2.15-18.79,4.8-28.19,4.51A16.05,16.05,0,0,1,97.64,957.5Z"/><path class="cls-6" d="M98.14,460c9,2.81,18.22,5,27.13,8.07,5.84,2,11.63,4.69,15.57,9.64,4.76,6,6.41,14,7.56,21.34s3.57,17.81-3.75,22.72c-6.79,4.56-17.13,3.24-24.78,2.69-12.41-.89-24.74-2.11-37.18-2.58-8.7-.33-19.87,0-27.75-4.38-5.61-3.13-4.57-8.48-1.71-13.32,3-5.11,7.29-9.29,11.08-13.8a195.85,195.85,0,0,0,13-17.91C82.39,464.78,87.77,456.76,98.14,460Z"/><path class="cls-6" d="M389.49,287.73c-13.93-7.9,2.66-16.51,11.05-18.63,6.59-1.67,13.95-2.38,20.59-.63,5.51,1.45,10.4,5.49,15.39,8.16,5.2,2.79,10.68,5.64,14.49,10.28,4.33,5.28,5.31,12.05,4.62,18.68a47.78,47.78,0,0,1-3,13.22,6.32,6.32,0,0,1-2.32,3.19c-2.83,1.69-6.64-.45-9.16-1.78-6.59-3.5-12.68-8-18.88-12.16C411.55,300.93,400.67,294.07,389.49,287.73Z"/><path class="cls-6" d="M632.14,679c28.3,47.17,145,88,168,82S626.14,669,632.14,679Z"/><path class="cls-6" d="M556.14,882c27.3,41.86,125,89,148,81S541.14,859,556.14,882Z"/><path class="cls-6" d="M566.36,537.27c1.47,24.9,4.84,49.66,5.27,74.63a172.91,172.91,0,0,1-6.18,48.86c-4,14.76-8.46,29.42-13.72,43.77a207.41,207.41,0,0,1-8,19.33c-2,4.1-4.2,8.9-7.66,12-8.06,7.24-9.64-12.25-10-16.19-2-21.37-.39-42.68,3.48-63.72,4.34-23.58,7.85-46.78,7.82-70.84,0-21.48-1.27-45.13,5.48-65.89,1.74-5.37,6.07-14.49,12.81-9.33,5.92,4.53,8.55,13.73,9.87,20.67A52,52,0,0,1,566.36,537.27Z"/></g></svg>