<svg xmlns="http://www.w3.org/2000/svg" viewBox="0 0 826.21 1096.88"><defs><style>.cls-1{fill:#fc9;}.cls-2{fill:#80664d;}.cls-3{fill:#bf9973;}.cls-4{fill:#ffd6ad;}</style></defs><title>Hand</title><g id="Frame_12" data-name="Frame 12"><path class="cls-1" d="M821.62,740.76c-.59-5-3-5-7.35-6.68-5.41-2.06-10.7-4.53-16-6.8q-16.16-6.9-32.28-13.87-31.82-13.74-63.49-27.82c-21.1-9.4-42.2-18.86-62.95-29-5.1-2.5-10.2-5-15.23-7.67-3.83-2-10.2-4.4-13.06-7.82-2.14-2.55-3.06-7.6-4.26-10.67l-6.45-16.56c-4.17-10.72-8.32-21.45-12.37-32.22s-7.26-21.95-11.79-32.43c-1.77-4.09-5.89-7.61-9-10.84-3.53-3.71-7.18-7.31-11-10.7a129.31,129.31,0,0,0-25.89-17.9c-9.94-5.17-20.51-9-30.42-14.26-9.66-5.11-19.36-10.15-29.2-14.91-19.2-9.31-39-17.55-59.51-23.37-21.6-6.12-43-12.81-64.59-19-19.94-5.75-40.61-11.63-61.33-13.58-27.83-2.63-55.83,2.24-83.68,1.9-5.29-.06-10.59-.26-15.86-.74-5.45-.5-10.15-2.29-15.2-4.25-10.24-4-20.29-4.93-31.21-4.51-19.35.75-39,3.63-56.47,12.47-19.35,9.81-32,27.69-44.43,44.86-12.74,17.59-26.12,35.43-31.43,56.78s-8.32,44.14,4,63.71a86.13,86.13,0,0,0,9.61,12.53c1,1.1,2.92,2.28,3.62,3.55,1.09,2-.34,3-1.56,5.06-5.45,9.36-10.93,18.51-13.11,29.23C5.17,667.34,3.54,690.51,2.52,713c-.46,10.26-1.53,21.11.61,31.24,2.22,10.55,8.51,17.91,15.4,25.79,2.67,3.06-.4,8.18-1.33,11.69a165.59,165.59,0,0,0-3.63,16.73,97.24,97.24,0,0,0,.36,32.81c1.94,10.76,5,21.29,6.74,32.09s1.06,22,4,32.55a44.46,44.46,0,0,0,15.49,23.36,61.75,61.75,0,0,0,12.62,7.45c3.54,1.59,7.9,1.54,8.72,5.75.89,4.56,1,9.44,1.73,14.07A145.9,145.9,0,0,0,66.87,963c2.94,10.19,7.58,19.77,10.32,30,4.56,17,9.76,36.94,26.12,46.59,10,5.9,20.24,2.94,31.09,4.18,5.14.59,9.85,2.82,14.86,4a42.74,42.74,0,0,0,16.71.36c10.81-1.79,21.47-6,31.68-9.85,10.42-4,20.69-8.34,30.94-12.7,9.89-4.21,20-8.44,29.28-13.86,1.73-1,3.67-3.11,5.6-3.62s5,.75,7,.85a51.38,51.38,0,0,0,16.55-1.8c3.34-.94,6.44-3.69,9.76-2.2a45.59,45.59,0,0,0,13.88,4.23,62.48,62.48,0,0,0,13.9-.07c4.42-.48,9.37-2.77,13.6-1.39a32.19,32.19,0,0,0,13.91,1.18,38.55,38.55,0,0,0,7.28-1.6c2.47-.81,4.58-2.23,7.22-2.32,5.25-.17,10.52.33,15.81,0,5.8-.37,11.58-1.13,17.33-2,9.92-1.49,20.49-2.75,28.66-9,8.73-6.68,17.07-11.44,27.83-14.23s21.94-1.52,32.7,1c10.42,2.45,20.21,9.68,29.42,15,40,22.89,79.25,47.23,117.32,73.18q14.28,9.74,28.24,19.94c1.65,1.21,3.3,2.42,4.9,3.69.74.59,2.29,2.31,3.39,2.38s2.94-1.42,3.82-1.93c2.59-1.51,5.18-3,7.7-4.65,17.62-11.3,33.62-25.33,48-40.54a328.61,328.61,0,0,0,67.12-107.69c16.16-42.25,23.64-87.66,25.18-132.75A443.28,443.28,0,0,0,821.62,740.76Z"/><path class="cls-2" d="M475.2,167.37a51.82,51.82,0,0,1,25.59,6.39c10.2,5.77,15.12,15.12,17.55,26.29,1.34,6.15,2,12.43,2.87,18.66.91,6.56,2.54,13,3.47,19.52,1.92,13.51,2.08,27.3,3.08,40.9s1.56,27,3,40.48c.67,6.26,4.25,11.75,6.64,17.48q3.76,9,7,18.28c4.56,13,8.42,26.23,11.76,39.59a695.53,695.53,0,0,1,15,82.65c1.73,13.83,3.15,27.7,4.37,41.58,1.18,13.53.43,28.49,4.87,41.42,8.69,25.29,19.06,50,28.37,75.09,2.16,5.82,6.27,8.17,11.53,11.09,5.78,3.2,11.74,6.09,17.67,9,12.25,6,24.65,11.75,37.07,17.41,25.85,11.79,51.85,23.23,77.91,34.55q19.3,8.38,38.65,16.66c6.18,2.64,12.33,5.37,18.54,7.91,4.91,2,10.8,2.4,11.51,8.43,3.19,27.23,3.34,54.76,1.52,82.1-3.42,51.28-15.18,102.34-38.3,148.44-23,45.86-57.21,88.54-100.56,116.6-2.69,1.74-5.47,3.35-8.19,5.06-1.35.84-2.47,1.73-3.87,1.73a3.69,3.69,0,0,1-1.24-.22c-1.77-.62-3.19-2.62-4.62-3.79-2.49-2-5.22-3.84-7.83-5.73q-16.49-11.91-33.44-23.16-34.9-23.32-70.92-44.93-17.84-10.77-35.9-21.16c-11.46-6.56-22.46-14.24-35.75-16.32a79.54,79.54,0,0,0-12.29-1,64.67,64.67,0,0,0-25.23,5c-5.8,2.41-10.61,5.91-15.56,9.7a44.29,44.29,0,0,1-16.28,7.7,139.36,139.36,0,0,1-35,4.3h-2c-1.59,0-3.19-.08-4.78-.08a37.69,37.69,0,0,0-5,.28c-3.17.42-6,1.77-9,2.59a36.53,36.53,0,0,1-9.49,1.29,30.39,30.39,0,0,1-7.88-1,17.57,17.57,0,0,0-4.6-.58c-4.42,0-8.71,1.37-13.34,1.72-1.67.12-3.35.19-5,.19a47.94,47.94,0,0,1-14.49-2.06c-2.36-.75-5-2.86-7.4-3.08l-.44,0c-2.58,0-5.71,1.88-8.07,2.6a44.19,44.19,0,0,1-17.91,1.71,29.44,29.44,0,0,0-3.12-.23,8.47,8.47,0,0,0-4.94,1.48c-2.44,1.56-4.88,3-7.44,4.39-6,3.16-12.28,5.91-18.5,8.67-12.61,5.59-25.39,10.74-38.22,15.8-11.72,4.62-24.46,10-37.31,10l-1.58,0c-6.5-.23-12.33-2.54-18.59-4a51.25,51.25,0,0,0-11.42-1c-1.87,0-3.74,0-5.62,0h-1.83c-25.62-.39-36.08-25.2-41.75-46.44-3.45-12.9-9.09-25.08-12.44-38a153.84,153.84,0,0,1-3.67-19.55c-.61-4.9.75-9.65-4.91-11.37a50.33,50.33,0,0,1-26-18.33c-7.51-10.47-8.46-23.1-9.45-35.52-1.08-13.39-4.47-26.14-7.17-39.24a104,104,0,0,1-.6-39.93A197,197,0,0,1,18.92,776c1.6-5.58-2.52-7.72-5.84-11.8-8.16-10-11.16-21.34-11.16-34.11,0-13.72,1-27.56,2.23-41.22,1.13-12.76,2.17-25.73,4.32-38.36,2.12-12.43,7.41-22.6,13.94-33.21.82-1.33,2.7-3.92,2.38-5.57s-3.5-3.7-4.61-4.92A79.3,79.3,0,0,1,9.55,592c-12-21.78-7.45-50.18,1.15-72.48,4.45-11.54,11.66-21.76,18.57-31.93,7.59-11.17,15.57-22.08,24.05-32.58,7.41-9.18,15.73-17.61,26-23.56,11.32-6.56,24.18-10.28,37-12.36a168.44,168.44,0,0,1,26.74-2.47,98.72,98.72,0,0,1,12.33.74c6.31.79,12.21,3,18.12,5.25a58.57,58.57,0,0,0,17.78,3.51c4.39.26,8.78.36,13.17.36,21.45,0,42.87-2.55,64.33-2.55,1.72,0,3.44,0,5.15.05,27.46.56,54.79,8.79,80.93,16.56,6.55,1.95,13.15,3.8,19.64,5.93,1.35.44,3.74,1.91,5.39,1.91a2.09,2.09,0,0,0,.62-.09c1.86-.58,2.22-4.24,2.71-5.77,1.89-6,3.65-12,5.12-18.1.76-3.15,1.91-6.51,2.19-9.74.27-3-1.28-5.12-2.89-7.56C373.59,385.72,367.83,358.4,367,333a176.73,176.73,0,0,1,14.76-76.2c13.69-31.45,33.5-67.45,65.68-83.06a64.34,64.34,0,0,1,27.76-6.41m0-3a67,67,0,0,0-29.07,6.71c-34.45,16.71-54.81,56.26-67.12,84.56a180.58,180.58,0,0,0-15,77.49c.69,20.87,4.93,50.95,21.21,75.68l.34.51c1.46,2.21,2.22,3.44,2.07,5.14a39.3,39.3,0,0,1-1.39,6.51c-.25.92-.51,1.86-.73,2.79-1.31,5.42-2.92,11.11-5.07,17.91-.14.44-.25.94-.37,1.47a17.57,17.57,0,0,1-.6,2.17,21.09,21.09,0,0,1-2-.85,18.85,18.85,0,0,0-1.9-.8c-4.9-1.61-9.91-3.08-14.76-4.5l-5-1.46-1.11-.33C328.54,429.61,301.52,421.59,274,421c-1.69,0-3.44-.05-5.22-.05-10.82,0-21.77.65-32.35,1.28s-21.34,1.27-32,1.27c-4.62,0-8.87-.12-13-.36a55.57,55.57,0,0,1-16.89-3.32c-5.62-2.14-12-4.56-18.81-5.42a102.22,102.22,0,0,0-12.7-.76,169.2,169.2,0,0,0-27.22,2.51c-15,2.43-27.48,6.59-38.06,12.72C68.54,434.28,60,442,51,453.17,42.79,463.32,34.87,474,26.79,486L25.37,488c-6.49,9.53-13.2,19.38-17.47,30.45-6.51,16.87-15.29,49.05-1,75a82.11,82.11,0,0,0,11,15.3,18.11,18.11,0,0,0,1.81,1.64,17.4,17.4,0,0,1,2,1.86A15.68,15.68,0,0,1,20.26,615l-.41.65C12.8,627.15,7.66,637.36,5.51,650c-2,11.71-3.06,23.78-4.08,35.46l-.28,3.14C0,701.75-1.09,715.91-1.09,730.05c0,14.65,3.76,26.09,11.84,36,.83,1,1.71,1.93,2.48,2.73,2.65,2.75,3.52,3.83,2.8,6.35a201.48,201.48,0,0,0-4.86,19.75,106.76,106.76,0,0,0,.61,41.06c.65,3.15,1.35,6.33,2,9.4,2.21,10,4.29,19.5,5.09,29.48l0,.36c1,12.6,2.06,25.62,10,36.67a53.53,53.53,0,0,0,27.53,19.45c2.2.67,2.42,1.5,2.57,5.48,0,1.08.08,2.2.23,3.38A157.33,157.33,0,0,0,63,960.09c1.74,6.72,4.11,13.29,6.4,19.65,2.16,6,4.39,12.17,6,18.37,3.76,14.07,8.17,24.25,13.87,32,7.95,10.84,18.28,16.44,30.73,16.63h1.88l2.84,0,2.78,0a48.8,48.8,0,0,1,10.76.92c1.87.42,3.75.94,5.58,1.45a57.8,57.8,0,0,0,13.57,2.58c.56,0,1.12,0,1.68,0,12.7,0,25.31-5,36.44-9.4l2-.78c12.28-4.85,25.43-10.12,38.34-15.85l.73-.33c5.93-2.63,12.06-5.35,17.94-8.43,2.34-1.23,4.78-2.66,7.67-4.52a5.52,5.52,0,0,1,3.31-1,26.79,26.79,0,0,1,2.8.22,47.19,47.19,0,0,0,19.11-1.82,30.1,30.1,0,0,0,2.9-1.11,13.91,13.91,0,0,1,4.3-1.35h.17a11.17,11.17,0,0,1,3.3,1.37,21.4,21.4,0,0,0,3.47,1.58,51,51,0,0,0,15.39,2.2c1.69,0,3.46-.07,5.26-.2a61.34,61.34,0,0,0,6.23-.88,40,40,0,0,1,6.89-.83,14.57,14.57,0,0,1,3.83.48,33.4,33.4,0,0,0,8.66,1.11,39.41,39.41,0,0,0,10.28-1.4c1.21-.33,2.36-.72,3.47-1.1a27.59,27.59,0,0,1,5.18-1.42,34.13,34.13,0,0,1,4.62-.26c1,0,1.94,0,2.91,0l1.83,0h2.06a142.52,142.52,0,0,0,35.77-4.4,46.91,46.91,0,0,0,17.33-8.21c4.91-3.75,9.42-7,14.89-9.31a61.68,61.68,0,0,1,24.08-4.81,76,76,0,0,1,11.83,1c10.51,1.64,19.48,7,29,12.59,1.88,1.11,3.82,2.26,5.75,3.37,11.09,6.35,22.82,13.26,35.85,21.12,25.55,15.42,48.71,30.1,70.8,44.86,12.26,8.19,23.17,15.75,33.35,23.1l2.31,1.64c1.81,1.28,3.69,2.6,5.38,4,.34.28.75.69,1.18,1.12a12,12,0,0,0,4.34,3.17,6.71,6.71,0,0,0,2.23.39,8.86,8.86,0,0,0,4.91-1.84l.55-.35c1.13-.71,2.27-1.4,3.4-2.09,1.58-1,3.22-2,4.82-3a268,268,0,0,0,58.57-52.21,331.61,331.61,0,0,0,43-65.57c21.91-43.69,34.9-94,38.61-149.59,2-29.8,1.49-56.83-1.53-82.65-.78-6.68-6.34-8.49-10.4-9.82-1-.34-2-.66-3-1-4.31-1.76-8.67-3.65-12.89-5.48l-5.6-2.42c-13.31-5.7-26.3-11.3-38.63-16.65-30.71-13.33-55.45-24.3-77.86-34.52-11.87-5.41-24.58-11.27-37-17.37l-1.89-.93c-5.19-2.55-10.55-5.18-15.65-8-5.34-3-8.44-4.86-10.17-9.51-3.59-9.65-7.39-19.41-11.07-28.84-5.88-15.08-12-30.67-17.28-46.18-3.08-9-3.56-19.26-4-29.2-.18-3.8-.36-7.74-.69-11.51-1.31-15-2.74-28.59-4.38-41.69-3.87-30.86-8.79-58-15-83-3.61-14.4-7.48-27.44-11.84-39.86-2.24-6.39-4.62-12.6-7.05-18.44-.71-1.71-1.52-3.39-2.31-5-1.9-3.94-3.7-7.67-4.12-11.63-1-9-1.54-18.17-2.1-27.07-.28-4.37-.56-8.88-.89-13.32s-.56-8.86-.79-13.2c-.49-9.16-1-18.64-2.31-27.91-.47-3.31-1.12-6.61-1.74-9.79s-1.27-6.48-1.72-9.72c-.2-1.44-.39-2.89-.58-4.34-.63-4.77-1.28-9.7-2.33-14.55-2.92-13.44-9.14-22.68-19-28.26a55,55,0,0,0-27.07-6.78Z"/><path class="cls-3" d="M306.58,740.68c-4.6,8.34-10.36,17-18.88,21.74-6.12,3.42-13.61,5.26-20.34,7.11-19.89,5.47-40.3,9.18-60.63,12.51-24.17,4-48.49,6.92-72.82,9.7-16,1.83-32.19,3.68-48.35,3.73-17.15.06-33.76-2.67-48.86-11.32,12.9,2.76,25.76,4.88,39,5.23,24,.63,48.15-2.49,71.85-6.1,32.06-4.88,64.44-9.87,96.16-16.72,20.31-4.39,46.46-11,58.8-29.57,2.49-3.75,3.66-9,4.84-13.37a92,92,0,0,0,2.87-14.85,90.86,90.86,0,0,0-2.27-30.16c-4.83-20.29-15.72-37-26.35-54.56,14.54,14.88,27,32.24,32.68,52.48A85.1,85.1,0,0,1,306.58,740.68Z"/><path class="cls-2" d="M282.17,764.75c-16.19,6.94-33.6,10.4-50.79,13.88q-27.37,5.55-55,9.38-27.94,3.82-56,6.67c-18.19,1.82-36.7,3.37-54.86.47a79.55,79.55,0,0,1-26.92-9.28c-7.31-4.18-16.18-10.19-21.41-16.87,5.35,6.14,14,11.49,21.09,15.36a80,80,0,0,0,22.54,7.81c16.23,3.24,33,2.42,49.32.79,36.91-3.68,73.91-8.24,110.5-14.39C241.28,775.09,262.31,771.72,282.17,764.75Z"/><path class="cls-1" d="M607.57,631.92q-1.26-3.23-2.51-6.45Z"/><path class="cls-2" d="M206,487.14c-29.67-13.49-58.66-28.28-91.82-30.14C146.85,453.82,179.32,469.74,206,487.14Z"/><path class="cls-2" d="M173.14,439c12.05,9.79,21.07,26.37,21.42,42C189.3,465.87,181.88,452.38,173.14,439Z"/><path class="cls-2" d="M257.14,641c-14.73,4.5-30.49,3.45-45.61,2-16.66-1.58-33.2-4-49.77-6.37-16-2.25-32.11-4.41-48.31-4.44s-31.92,2-48-1c-15.08-2.74-30.87-8.49-41.28-20.24,19,18.78,48.77,21.08,74,19.15A242.62,242.62,0,0,1,149.36,632c17.55,2.33,35,5.38,52.53,7.79C220.07,642.28,239,645.29,257.14,641Z"/><path class="cls-3" d="M289.39,529.35c-9.6-24.7-23.67-55.34-52.65-60.9-10.38-2-21.07-.15-30.86,3.54,13-4.91,27.44-7.5,41.11-3.89,10.36,2.74,19.31,9,26.29,17,12.75,14.65,19.77,34.43,24.45,53,4.61,18.33,5.67,36.39-.42,54.43-5.11,15.14-11.39,29.85-24.27,40.09-15.1,12-34.55,11.8-52.84,10.2-21.35-1.87-42.47-5.41-63.68-8.39-11.71-1.65-23.52-3.3-35.35-3.72-11.44-.41-22.83,1.17-34.26,1.23-20.08.1-41.19-3.71-57.43-16.26.32-.38,16,5.41,17.83,5.85A130.89,130.89,0,0,0,67,624.63c13.37,1.14,26.8.65,40.19.16,12.88-.47,26-1.35,38.79.35s25.3,5.18,38,7.66c11,2.16,21.92,2.26,33,3.35,9.84,1,19.76,2.3,29.61.71,21.84-3.53,34.86-21.82,41.47-41.55C294.86,574.91,297.35,549.82,289.39,529.35Z"/><path class="cls-3" d="M304.59,789.21c-2-8.41-7.14-15.82-12.32-22.56,1.84,5.34,4.24,10.47,5.92,15.86a55.59,55.59,0,0,1,2.07,18A318.43,318.43,0,0,1,297.89,836c-.71,5.27-1.11,11.91-3.52,16.69a28.73,28.73,0,0,1-6.3,7.64c-4.85,4.45-10.79,7.45-16.82,10C254,877.5,236,882.56,219.21,891c-11,5.49-21.54,11.64-32.72,16.74a319.51,319.51,0,0,1-30.33,12c-19.71,6.66-40,11.15-60.42,15,15.79,1,30.55-1,45.89-4.6a265,265,0,0,0,52-17.72c9.1-4.3,17.71-9.52,26.88-13.69,9.75-4.43,19.75-8.26,29.7-12.21,9-3.57,18-7.18,26.39-12A49.47,49.47,0,0,0,295.78,855c5.26-9.27,7.7-19.91,9-30.4C306.17,813.1,307.25,800.59,304.59,789.21Z"/><path class="cls-2" d="M61.14,930c7,1.88,14.2,2.36,21.34,3,7.66.66,15.36,1.22,23.06,1.14,14.42-.15,28.57-3.35,42.44-7a276.77,276.77,0,0,0,41.55-14.37c13.15-5.86,25.59-13.2,39-18.61,15.1-6.12,30.71-11,45.41-18.07-12.66,7.29-26.43,12.31-39.84,18S208.12,907,195,913.32a242.69,242.69,0,0,1-40.81,15c-14.27,4-28.88,7.55-43.77,7.83a175.33,175.33,0,0,1-24.88-1.65C77.36,933.53,69,932.56,61.14,930Z"/><path class="cls-3" d="M295.9,963.14c-4.5,9.76-9.19,19.64-15.43,28.43A66.93,66.93,0,0,1,264,1007.5c-8.71,6.2-18.43,10.62-28.22,14.94Q214.17,1032,192,1040.08c-13.13,4.81-27.27,10.7-41.48,8-8.17-1.57-14.7-4.85-23.29-4.38-10.95.6-20.6-.33-29.26-7.95,5.68,1.54,11.34,3.66,17.22,4.31,9,1,18.11.33,27.11.5,6.91.13,14.13,2.14,21,1.29a67,67,0,0,0,13.13-3.54c9.56-3.26,19-7,28.4-10.59,23.69-9.14,46.87-19.34,66.53-35.75C280.9,984,290.28,974.41,295.9,963.14Z"/><path class="cls-3" d="M611.64,664.5s-35,76-76,111C535.64,775.5,598.64,734.5,611.64,664.5Z"/><path class="cls-3" d="M440.64,985.29c-6.91,3.14-11.58,9.74-18.5,12.71-5.3,2.28-11.45,3.11-17.09,4.07a201.66,201.66,0,0,1-27.43,3.11c-4.45.14-9.8-1-14,.49-7.21,2.53-14.21,4.36-21.9,3-1.64-.29-3.24-1.07-4.86-1.33-2.59-.42-5.46.77-8.15,1.2-11.16,1.8-21.65,1-32-3.51-.47-.21-1.14-1-1.64-1-1.71-.22-5.54,2.37-7.44,2.93a49.3,49.3,0,0,1-7.07,1.54,48.49,48.49,0,0,1-17.49-.47c16.73-10,25.34-28.64,33.16-45.71,4.5-9.82,7.42-19,6.26-30-1.14-10.78-5.24-21.1-10.41-30.55A139.44,139.44,0,0,0,273.88,876c7.21-3.84,14.17-8.31,18.31-15.55,6.06,18,12.29,35.72,22.27,52a145.71,145.71,0,0,0,62.17,55.69C396.72,977.65,418.61,982.88,440.64,985.29Z"/><path class="cls-3" d="M663.14,693s3,63-36,172C627.14,865,680.14,747,663.14,693Z"/><path class="cls-3" d="M632.14,679c4.56,19.42,2.76,41-2.19,60.17A111.6,111.6,0,0,1,611.14,779C626.54,747.91,633.08,713.61,632.14,679Z"/><path class="cls-3" d="M314.14,742c13.46,22.84,36.85,41.53,59.53,54.62,13.59,7.84,28.23,13.86,43.67,16.83,16.69,3.21,33.28,2.29,49.8-1.46-29.16,14.32-63.31,9.82-91.29-5a151.32,151.32,0,0,1-36.08-26.87C329.33,769.62,318.22,756.5,314.14,742Z"/><path class="cls-3" d="M531.14,856c-13.06,31.65-28.65,63.95-29,99-3.39-17.29.82-36.81,6.37-53.24A190.88,190.88,0,0,1,531.14,856Z"/><path class="cls-3" d="M29.14,714c-1,15.63-3.37,31.45,0,47C22.66,747.15,25,728.16,29.14,714Z"/><path class="cls-3" d="M55.14,720c-1,15.37-2.2,31.7,0,47-2.7-7.31-2.93-15.78-2.89-23.49A88.3,88.3,0,0,1,55.14,720Z"/><path class="cls-3" d="M45.14,711c-1.58,11.17-2,22.53-2.42,33.79-.32,8-.93,16.2-.58,24.21-2.14-9.28-1.64-19.69-1.21-29.14C41.36,730.23,42.17,720.22,45.14,711Z"/><path class="cls-3" d="M30.14,529c-1.77,21-4.44,41.81-4,63C22.45,571.53,25,549,30.14,529Z"/><path class="cls-3" d="M51.14,529c-1.73,11.44-3.32,22.9-4.47,34.42S44.23,586.55,45.14,598c-2.44-11.28-1.6-23.39-.46-34.79A190.64,190.64,0,0,1,51.14,529Z"/><path class="cls-3" d="M41.14,856a161.37,161.37,0,0,0,1.52,24.75c1.3,8.17,4.41,16.09,5.48,24.25-2.86-8-6.11-15.47-7.46-23.94A71.72,71.72,0,0,1,41.14,856Z"/><path class="cls-3" d="M53.14,860c1,16.57,4.62,32.79,8,49C54.86,894.23,50.92,876,53.14,860Z"/><path class="cls-3" d="M96.14,983c4.69,15,7.53,31,15,45-5.17-5.91-8.11-14.13-10.4-21.52A110.07,110.07,0,0,1,96.14,983Z"/><path class="cls-3" d="M111.14,983a229.8,229.8,0,0,1,7.84,22.27c1.76,5.54,3.15,11.73,6.16,16.73-4.6-4.5-6.77-12.18-8.68-18.1A154.72,154.72,0,0,1,111.14,983Z"/><path class="cls-1" d="M577.88,550c-2.83-36.41-5.94-72.73-12.1-108.76a565.12,565.12,0,0,0-16.39-70.62c-3.54-11.53-7.55-22.92-12.21-34-2.41-5.76-5.55-11.1-6.28-17.33-.88-7.4-.92-14.8-1.39-22.23-.93-14.61-2.63-29.2-3.67-43.81s-4.15-28.71-6.05-43.24c-1.68-12.84-4.21-26.2-15.5-34.12-10.75-7.54-24.6-9.23-37.35-7.58-26.15,3.39-45,22.71-59.92,42.93-8.16,11.09-14.77,23.64-20.8,36-5.86,12-11.32,24.72-14.41,37.77-9.19,38.77-6.63,83.28,13.45,118.37,1.49,2.6,3.48,5,4.84,7.67,1.07,2.09.3,4.27-.17,6.64-.88,4.38-1.95,8.71-3.12,13-2.64,9.68-5.8,19.21-9.17,28.66-6,16.92-12.79,33.6-20.05,50-1.72,3.88-4.2,7.87-5.49,11.91-1,3.1.52,7.34,1.64,10.38,3.5,9.52,10.6,17.4,18.23,23.86,20.55,17.39,47.19,27.76,72.92,34.62,26.82,7.16,55.78,11.15,83.45,7.17,19.5-2.8,42.26-11.06,48.21-32A43.55,43.55,0,0,0,577.88,550Z"/><path class="cls-3" d="M371.68,369c8,19.6,43.07,51.55,95,56,0,0-52.88,12.89-76-12C377.68,399,371.68,369,371.68,369Z"/><path class="cls-2" d="M385.51,408.66c15.26,15,33.87,23.75,53.21,23.32,12.93-.28,25.11-4.45,36.74-10-9.24,3.6-19.41,5-29.29,5.37a98.94,98.94,0,0,1-29-3.29,95.6,95.6,0,0,1-16.14-6q-4.19-2-8.23-4.4C391.06,412.67,386.43,410.73,385.51,408.66Z"/><path class="cls-4" d="M30.14,802c-6.39,16-4.81,33.63,5.47,47.58,4.82,6.55,10,12.06,18.43,11.6,9.81-.53,19.64-3.66,28.94-6.6,12.88-4.07,25.52-8.89,38-14.06,12.27-5.08,24.41-10.53,36.26-16.53,8.07-4.09,16.68-8.26,23.73-14,1.56-1.28,3.38-2.61,1-3.84-3-1.56-8.57-.46-11.71-.28-15.56.93-31,2.93-46.59,4.09-20.86,1.55-41.85,2.15-62.49-1.86-7.59-1.47-15-3.63-22.4-5.73C37.21,801.91,31.15,799.46,30.14,802Z"/><path class="cls-4" d="M48.14,651c-14.53,6.46-25.42,22.09-25.76,38.11-.11,5,.78,12.72,4.94,16.23,2.41,2,6.07,2.11,9.06,2,11.69-.53,23.44-5.16,34.29-9.14,14.55-5.34,28.84-11.38,43.18-17.26,13.24-5.43,26.52-11,40.22-15.18,1.6-.49,13.14-2.26,7.51-5.09-5.95-3-14.1-3.36-20.56-4.27-11.39-1.61-22.84-2.76-34.3-3.74-12.63-1.08-25.29-1.95-38-2.34-4.46-.14-8.92-.24-13.38-.1C53.12,650.24,50.25,650.06,48.14,651Z"/><path class="cls-4" d="M97.64,957.5c-4.15-1.19-13.26-3.88-16.21,1.11-2.26,3.82.91,9.35,2.93,12.55C89.3,979,97.92,988.28,108,987.4c12.58-1.1,25.21-5.14,37.22-8.81a399.07,399.07,0,0,0,50.93-19.19c13.68-6.33,28.64-13.63,39.25-24.64,3.39-3.52,4.44-6.94-1.5-7.11-8.6-.24-17.67,2.6-25.92,4.67-13,3.28-26,7-38.92,10.66s-26.1,7.36-39.29,10.5c-9.06,2.15-18.79,4.8-28.19,4.51A16.05,16.05,0,0,1,97.64,957.5Z"/><path class="cls-4" d="M98.14,460c9,2.81,18.22,5,27.13,8.07,5.84,2,11.63,4.69,15.57,9.64,4.76,6,6.41,14,7.56,21.34s3.57,17.81-3.75,22.72c-6.79,4.56-17.13,3.24-24.78,2.69-12.41-.89-24.74-2.11-37.18-2.58-8.7-.33-19.87,0-27.75-4.38-5.61-3.13-4.57-8.48-1.71-13.32,3-5.11,7.29-9.29,11.08-13.8a195.85,195.85,0,0,0,13-17.91C82.39,464.78,87.77,456.76,98.14,460Z"/><path class="cls-4" d="M632.14,679c28.3,47.17,145,88,168,82S626.14,669,632.14,679Z"/><path class="cls-4" d="M556.14,882c27.3,41.86,125,89,148,81S541.14,859,556.14,882Z"/><path class="cls-4" d="M442.68,564c-74,114-125,307.35-125,38C317.68,538.43,465,529.53,442.68,564Z"/><path class="cls-4" d="M438.68,191c-12.29,7.14-43,60-8,53S481.68,166,438.68,191Z"/></g></svg>