<svg xmlns="http://www.w3.org/2000/svg" viewBox="0 0 840 1096.88"><defs><style>.cls-1{fill:#fc9;}.cls-2{fill:#80664d;}.cls-3{fill:#bf9973;}.cls-4{fill:#ffebd6;}.cls-5{fill:#ffe0c2;}.cls-6{fill:#ffd6ad;}</style></defs><title>Hand</title><g id="Frame_8" data-name="Frame 8"><path class="cls-1" d="M828.51,740.76c-.42-3.59-2.16-4.77-5.32-6-5.13-1.93-10.13-4.09-15.15-6.28-10.68-4.65-21.42-9.18-32.11-13.8q-31.84-13.74-63.55-27.8c-21.11-9.39-42.21-18.82-63-28.91-8.89-4.31-18.23-8.38-26.74-13.42a14.4,14.4,0,0,1-7-8.66c-1.67-4.9-3.41-9.73-5.3-14.56-8.21-21.05-15.82-42.26-23.63-63.46-1.64-4.46-3.14-9.22-6.16-13A137.65,137.65,0,0,0,570,534a139.59,139.59,0,0,0-24.78-19.76c-9.09-5.62-18.94-9.64-28.64-14-10.21-4.64-20-10.19-30-15.22-19.66-9.89-39.82-18.89-60.84-25.49C404,452.62,381.9,446.44,360,440c-21.65-6.33-43.52-12.92-66-15.26-22.95-2.38-45.94.44-68.88,1.44-11.11.48-22.67.94-33.72-.6-10.27-1.43-19.42-6.8-29.82-8.08-20.11-2.47-43.07.63-62,7.75-18.39,6.91-31.93,19.8-43.74,35.14s-24,31.17-33,48.31-14.08,37.7-13.32,57a59,59,0,0,0,7.76,27.84,80.88,80.88,0,0,0,8.46,11.64c2.74,3.17,7.39,5.18,4.7,9.62-5.24,8.65-10.59,17.61-13.17,27.48-2.78,10.61-4,21.8-5.16,32.68-1.17,11.07-1.9,22.18-2.45,33.3-.54,10.88-1.81,22.08-.16,32.91,1.46,9.63,6.26,17.42,12.43,24.77,2.94,3.5,5.37,5.52,4,10.33s-3,9.55-4.05,14.52a105,105,0,0,0-2,33.9c1.25,11,4.44,21.67,6.6,32.51,4,19.89.66,41.79,15.78,57.69a49.08,49.08,0,0,0,10.91,8.47c3.92,2.29,8.53,3.23,12.35,5.45s3.49,7.46,3.88,11.45a126.28,126.28,0,0,0,2.84,16.75c2.46,10.37,6.78,20.05,10.12,30.14,2.71,8.2,4.46,16.67,7.45,24.78,6.14,16.67,17.23,31,36.32,31.46,4.59.11,9.2-.22,13.78.19,5.67.51,10.77,2.86,16.27,4.12,10.78,2.48,21.73-.19,32-3.54,20.68-6.73,41-15.53,60.76-24.5a158.88,158.88,0,0,0,14.49-7.26c4.19-2.44,5.91-4.89,11-4a43.27,43.27,0,0,0,15-.25c4.1-.75,9.48-4.39,13.58-3.41,5,1.19,9.24,3.77,14.5,4.42a53,53,0,0,0,15.93-.4c2.31-.43,4.57-1.14,6.92-1.38,2.78-.29,5,.56,7.69,1.12a35.23,35.23,0,0,0,16-.6c2.18-.57,4.15-1.6,6.28-2.27a24.25,24.25,0,0,1,7.81-.69,142.87,142.87,0,0,0,16.61-.46c9.94-1,20.57-2.05,30.09-5.22,9.19-3.06,16.11-10.19,24.71-14.49a59.49,59.49,0,0,1,29.85-6.54,69.69,69.69,0,0,1,30.22,8.21c9.26,5.07,18.24,10.76,27.37,16.07,38.75,22.54,76.8,46.38,113.62,71.95,8.88,6.16,17.37,12.92,26.2,19.11,3.43,2.4,6-.6,9.24-2.52,4.5-2.68,8.88-5.58,13.15-8.62a274.17,274.17,0,0,0,46.12-42.16,330,330,0,0,0,61.92-104.58c15.05-41.06,22-84.76,23.54-128.37A441.84,441.84,0,0,0,828.51,740.76Z"/><path class="cls-2" d="M313.47,740.68c-3.82,6.92-8.25,13.81-14.5,18.79-6.72,5.34-15.24,7.49-23.36,9.7a580.82,580.82,0,0,1-57.17,12.08c-19.32,3.23-38.73,5.87-58.18,8.22s-38.68,4.94-58.12,5.78c-20.18.87-40.69-.85-58.56-11.09,28,6,55.6,6.11,84,2.81s56.58-8,84.66-13c23.31-4.1,48.17-7.45,70.15-16.67,9.25-3.88,18.19-9.22,24.58-17.1,7.31-9,9.66-23.35,10.35-34.65,1.87-30.64-13.66-56.34-28.88-81.54,14.66,15,27.3,32.72,32.87,53.18A85.66,85.66,0,0,1,313.47,740.68Z"/><path class="cls-2" d="M289.06,764.75c-16.2,6.95-33.59,10.41-50.79,13.88-18.25,3.69-36.6,6.85-55,9.38q-27.94,3.83-56,6.67c-18.43,1.84-37.22,3.46-55.61.34C54.35,792.1,35.07,783.09,24,769c10.39,11.91,27,19.61,42.18,22.87,17.53,3.77,35.56,2.62,53.26.84,37.19-3.75,74.26-8.47,111.12-14.66C250.3,774.74,270.14,771.39,289.06,764.75Z"/><path class="cls-2" d="M212.85,487.14C183.18,473.65,154.19,458.87,121,457,153.74,453.82,186.22,469.74,212.85,487.14Z"/><path class="cls-2" d="M180,439c12.05,9.79,21.07,26.37,21.42,42C196.19,465.87,188.78,452.38,180,439Z"/><path class="cls-2" d="M264,641c-15,4.58-31,3.43-46.42,1.94-16.38-1.58-32.67-4-49-6.29-16.55-2.33-33.18-4.53-49.92-4.43C102.8,632.3,86.84,634,71.06,631c-14.72-2.82-29.86-8.53-40-20,19.2,19,48.52,20.95,74,19.15,34.51-2.43,68.15,4.64,102.14,9.4C225.87,642.17,245.32,645.43,264,641Z"/><path class="cls-2" d="M296.29,529.35c-6.43-16.54-13.84-33.72-26.56-46.48-15.51-15.57-36.65-18.54-57-10.88,14.84-5.6,31.7-8.12,46.79-2,13.65,5.54,23.66,17,30.7,29.62,7.32,13.12,12,27.8,15.29,42.41,3.75,16.78,4.09,34-1.35,50.5-4.44,13.45-10.27,27-20.7,37-11,10.44-25.4,14-40.19,14.09-34.31.29-68.34-8.67-102.36-12-19-1.86-37.81,1.27-56.8.07-16.94-1.07-34.17-5.46-47.79-16,.94-1.13,14.2,4.67,15.9,5.23,10.36,3.42,22,4,32.82,4.32,27,.72,53.72-3.34,80.46,2.1,13.12,2.67,26,6.17,39.38,7.35,12.76,1.12,25.83,2.95,38.64,2.92,22.05-.05,38.25-12.95,47.41-32.43C301.62,582.54,305.5,553.06,296.29,529.35Z"/><path class="cls-2" d="M311.49,789.21c-2-8.47-7.11-15.78-12.32-22.56,3.3,9.57,7.52,18.2,7.94,28.51a240.69,240.69,0,0,1-1.25,31.22c-.74,8.25-.74,18.82-4.59,26.34-4,7.88-12.75,13-20.55,16.49-18.4,8.24-38,13.37-56,22.5s-35.34,18.53-54.29,25.45c-22,8-44.8,13.25-67.75,17.61,19.72,1.26,39.14-2.46,58.06-7.73a267.25,267.25,0,0,0,53.93-21.85c17.11-9.09,35.29-15.39,53.07-23,15.85-6.74,29.39-15,37-31.07,4.37-9.28,6.2-19.44,7.35-29.56C313.23,810.87,314,799.8,311.49,789.21Z"/><path class="cls-2" d="M68,930c13.71,3.71,29.43,4.2,43.57,4.12,15-.08,29.64-3.39,44-7.26a274.89,274.89,0,0,0,40.79-14.17c12.91-5.77,25.16-12.92,38.24-18.32,15.3-6.31,31.19-11.17,46.12-18.36-12.67,7.29-26.44,12.28-39.84,18-13.11,5.62-25.5,12.69-38.31,18.94a243.56,243.56,0,0,1-40.76,15.17c-14.26,4-28.84,7.62-43.72,8a173.34,173.34,0,0,1-25.68-1.63C84.25,933.54,75.94,932.56,68,930Z"/><path class="cls-3" d="M302.79,963.14c-6.25,13.55-12.75,27.81-24,38s-25.31,16.55-39.15,22.59c-15.28,6.67-30.81,12.69-46.46,18.43-7.19,2.63-14.51,5.18-22.14,6.15S156.5,1048,149.2,1046a53.61,53.61,0,0,0-12.14-2.34c-3.86-.16-7.7.3-11.57.06-7.65-.46-14.83-2.88-20.65-8,7.08,1.92,13.8,4.18,21.19,4.65,7.71.49,15.43-.07,23.14.17,7.52.23,15,2.32,22.5,1.07,7.32-1.22,14.48-4.24,21.41-6.8,27-10,54.84-20.2,78.21-37.42C283.68,988.25,295.85,977.08,302.79,963.14Z"/><path class="cls-3" d="M618.53,664.5s-35,76-76,111C542.53,775.5,605.53,734.5,618.53,664.5Z"/><path class="cls-3" d="M447.53,985.29c-5,2.27-8.78,6.35-13.16,9.54-4.77,3.48-10.2,5-15.94,6.13-13.29,2.5-26.74,4.51-40.28,4-6.29-.24-11.58,2.42-17.66,3.54a34,34,0,0,1-9.57.46c-2.86-.29-5.6-1.73-8.46-1.73s-5.6,1.12-8.35,1.52a62.39,62.39,0,0,1-10.42.65,53.16,53.16,0,0,1-17.92-3.52c-3.12-1.21-3.77-2.33-6.93-.93a38.69,38.69,0,0,1-7.06,2.73A48.9,48.9,0,0,1,270,1008c10.31-6.19,17.73-15.92,23.56-26.26,5.73-10.15,11.58-21.38,14.53-32.69,6.87-26.38-10.49-54.14-27.35-73,7.12-3.79,14.21-8.38,18.31-15.55,8.77,26,18.81,51.37,37.22,72.24,17,19.26,38.82,33.36,63,41.92A213.89,213.89,0,0,0,447.53,985.29Z"/><path class="cls-3" d="M670,693s3,63-36,172C634,865,687,747,670,693Z"/><path class="cls-3" d="M639,679c7.74,33-.43,73-21,100C633.35,748.07,640,713.4,639,679Z"/><path class="cls-3" d="M321,742c14.15,24,37.5,42.31,61.51,55.75C410.9,813.62,442.17,819.23,474,812c-45.95,22.56-98.64-1.39-131.18-35.83C333.61,766.39,324.73,755.16,321,742Z"/><path class="cls-3" d="M538,856c-13.09,31.74-28.65,64-29,99-3.35-17.06.41-35,5.71-51.23A191.94,191.94,0,0,1,538,856Z"/><path class="cls-3" d="M36,714c-1,15.63-3.37,31.45,0,47C29.56,747.15,31.91,728.16,36,714Z"/><path class="cls-3" d="M62,720c-1.05,15.61-2.24,31.43,0,47-2.67-7.23-2.92-15.14-2.89-22.77C59.18,736.08,59.8,727.87,62,720Z"/><path class="cls-3" d="M52,711a290.19,290.19,0,0,0-2.23,29c-.39,9.66-1.19,19.38-.77,29-2.19-9.52-1.66-19.46-1.21-29.14S49,720.31,52,711Z"/><path class="cls-3" d="M37,529c-1.77,21-4.44,41.81-4,63C29.35,571.53,31.92,549,37,529Z"/><path class="cls-3" d="M58,529c-1.77,11.7-3.36,23.42-4.55,35.19C52.35,575.41,51.14,586.72,52,598c-2.42-11.17-1.65-22.76-.53-34A193.24,193.24,0,0,1,58,529Z"/><path class="cls-3" d="M48,856c0,8.26.18,16.58,1.52,24.75s4.4,16,5.48,24.25c-2.73-7.64-5.93-15.16-7.33-23.2A71.32,71.32,0,0,1,48,856Z"/><path class="cls-3" d="M60,860c1,16.57,4.62,32.79,8,49C61.76,894.23,57.82,876,60,860Z"/><path class="cls-3" d="M103,983c4.71,15.08,7.51,30.93,15,45-4.87-5.57-7.57-12.72-9.81-19.66A113,113,0,0,1,103,983Z"/><path class="cls-3" d="M118,983a210.8,210.8,0,0,1,7.36,20.77c1.93,6.12,3.3,12.68,6.64,18.23-4.56-4.46-6.43-11.08-8.32-17A165.3,165.3,0,0,1,118,983Z"/><path class="cls-1" d="M604.46,644.23l-78.89-7.71L397.21,624l-38.94-3.81c5.9-14.63,15.13-28.26,23.38-41.65q6.22-10.09,12.65-20c2.11-3.26,4.26-6.51,6.46-9.71,1.5-2.17,3.84-4.54,4.3-7.24.49-2.9-.62-6.59-1-9.45l-1.68-12.94q-1.57-12.14-3.15-24.28c-2-15.68-3.86-31.4-6.46-47-.57-3.43-.46-4.11,2.69-5.24,2.84-1,5.63-2.06,8.44-3.17,6.84-2.7,13.91-5.12,20.05-9.25-5,3.28-10.92,5-16.62,6.72-7.27,2.24-14.56,4.43-21.92,6.38s-14.79,4.21-22.3,4.74c-7.81.55-15.84-.37-23.58-1.37A258.93,258.93,0,0,1,292,435.47c-14.23-4.67-28.74-9.93-41.23-18.35-21.65-14.6-40.93-47.37-26.74-73.17,7.58-13.79,23.41-17.91,36.46-24.67,6.94-3.59,13.66-7.33,20.9-10.31,7.72-3.17,15.54-6.11,23.34-9.07,8-3,15.94-6.36,24-9.4,7.6-2.88,15.39-5.33,22.76-8.79,14.74-6.91,28.62-15.62,43.16-22.94,14.83-7.46,30.5-8.67,46.68-5.32,13.84,2.87,27.72,8.41,37.45,19,5.08,5.52,9.46,11.65,14.49,17.23,4.71,5.23,9.66,10.23,14.65,15.19,11.29,11.21,22.63,22.15,32,35,8.84,12.1,16.33,25.25,23.53,38.38,7.36,13.42,10.42,29.61,14.39,44.31,4.38,16.27,8.07,32.67,9.71,49.47,1.66,17,3.64,34.1,4.37,51.19.35,8.19.33,16.39.75,24.58A201.19,201.19,0,0,0,596,572.53c1.4,7.93,2.67,15.92,4.89,23.68,2,7,1.19,15.45,1.64,22.73Q603.31,631.6,604.46,644.23Z"/><path class="cls-2" d="M261.2,422.31c5.78,3.4,12.44,5,18.71,7.26,7.28,2.61,14.54,5.23,22,7.43a327.78,327.78,0,0,1-40.82-15.45s.33,1.13-.21.26Z"/><path class="cls-2" d="M411.76,435.48c18.54,2.55,37.77-.18,54.42-8.89s29.46-23,40-38.4c-11.05,14.14-25.63,25.47-41.54,33.68a128.37,128.37,0,0,1-24.8,9.77,115.05,115.05,0,0,1-15.27,3.1C420.94,435.23,415.33,436.8,411.76,435.48Z"/><path class="cls-2" d="M411.29,434.56c34.22-4.28,69.44-27.26,78.15-62.16a129.53,129.53,0,0,1-32,38.79c-6.4,5.13-13.69,9.81-21.6,12.17C426.92,426,419.5,430.22,411.29,434.56Z"/><path class="cls-2" d="M404,438.8c26,15,57,5.67,81.84-7a166,166,0,0,1-43.85,10.83,98.88,98.88,0,0,1-21.89.07,60.63,60.63,0,0,1-10.62-2.15c-1.44-.44-2.83-1.1-4.29-1.48C404.89,439,403.36,437.88,404,438.8Z"/><path class="cls-2" d="M393.79,437.57S429.32,477,483.22,465C483.22,465,425.24,464.87,393.79,437.57Z"/><path class="cls-4" d="M313.05,313.19c-25.72-.33-49.19,13.6-69,28.66,5.78,4.22,11.7,8.21,17.19,12.82a111.07,111.07,0,0,0,15.89,11.71c12.5,7.17,26.53,10.68,40.7,12.59,2.72.37,5.76,1.21,8.45.37s5.19-3.33,7.35-5.21c5.38-4.68,10.94-9.13,16.16-14,4.57-4.27,9-7.76,9.43-14.37a23.34,23.34,0,0,0-6.38-17.51C343,317.59,327,313.85,313.05,313.19Z"/><path class="cls-5" d="M365,335.82c-5.08-10.1-15.77-16.76-26-20.85-11.33-4.55-23.72-5.24-35.73-3.65-12.5,1.65-24.59,5.64-36.23,10.37-5.72,2.32-11.36,4.85-17,7.45-3,1.4-7.85,2.68-9.77,5.62s1.79,7.53,4.94,6.21c2.77-1.15,5.68-4.23,8.15-5.92,10.43-7.15,21.33-13.64,33.45-17.49,20.52-6.52,48.24-6.54,64.68,9.54,6.76,6.61,11.48,19.42,4.13,27.32-8.81,9.46-19.29,17.4-29.53,25.2,5.6.22,11.07.43,16-2.65s9.46-7.69,13.69-11.81c4.06-3.95,9.68-8.89,11.6-14.37C369.14,345.94,367.2,340.18,365,335.82Z"/><path class="cls-3" d="M414.09,434.39c-34.53,16.53-72.91,13.78-108.77,3.5-17.64-5.06-35.53-9-51.44-18.53-13.43-8-24.15-19.36-30-34s-7.87-33.64,3.25-46.28c-4.71,22.05,2.35,42.87,20.36,56.57,17.69,13.46,38.45,23.56,59.66,30.11,42.57,13.14,88.34,9.54,125.63-15.9,18.77-12.8,34.51-29.68,47.57-48.18-4.8,16-14.7,29.93-26.06,41.92C442.72,415.82,429.38,427.06,414.09,434.39Z"/><path class="cls-2" d="M222,381.09c12.25,39.91,60.89,52.54,96.9,59.69,22.31,4.43,45.39,6.2,67.85,1.7,20.31-4.07,38.76-14.27,54.45-27.61,16.84-14.31,32-32,39.17-53.2-5.54,19.35-18.15,35.85-32.55,49.55-15.29,14.55-33.47,26.55-53.91,32.37-22,6.25-45.28,5.28-67.59,1.5-22.08-3.75-44.51-10-64.85-19.47a83.3,83.3,0,0,1-28.21-21.06,78.94,78.94,0,0,1-9.27-14.1C222.19,387.06,222,384.81,222,381.09Z"/><path class="cls-6" d="M37,802a50.45,50.45,0,0,0-1.81,33c2.7,9,9,20.41,17.93,24.66,4.89,2.33,10.38,1.48,15.53.59A152.47,152.47,0,0,0,88.41,855c12.87-4.06,25.5-8.77,38-13.9,12.3-5.06,24.45-10.47,36.34-16.43,5.24-2.63,10.52-5.22,15.58-8.2a82,82,0,0,0,7.3-4.78c1.9-1.41,5.82-3.34,3.31-5.61s-10.12-.39-13.32-.18c-7,.48-13.93,1.1-20.89,1.78-13.37,1.3-26.73,2.62-40.15,3.15-15,.59-30.06.2-44.83-2.5-7.11-1.3-14.07-3.23-21-5.19C46.61,802.62,38.28,798.88,37,802Z"/><path class="cls-6" d="M55,651c-17,7.56-29.53,28.1-24.89,46.8,1,4,3,7.9,7.21,9.1,5.14,1.45,11.54,0,16.58-1.07,11.69-2.58,23-7.3,34.13-11.63,22.81-8.89,45.09-19.34,68.36-27,2-.67,15.12-2.92,13-6s-10.44-3.43-13.68-3.87q-8.76-1.18-17.55-2.24c-14.17-1.7-28.42-2.92-42.67-3.84-6.88-.44-13.77-.79-20.66-1-3.62-.11-7.25-.17-10.87-.12C61.09,650.17,57.7,649.82,55,651Z"/><path class="cls-6" d="M104.53,957.5c-6.63-1.89-20.09-3.91-16.35,7.62,2.69,8.3,10.62,17.47,18.63,20.89,5.18,2.21,10.55,1.28,15.93.35a170.46,170.46,0,0,0,18.71-4.55c12.78-3.73,25.48-7.8,37.94-12.51,11.37-4.31,22.54-9.15,33.43-14.56,9.83-4.88,19.55-10.45,27.54-18.07,1.9-1.81,6.76-5.9,3.47-8.42-1.74-1.33-5.68-.62-7.64-.46a73.6,73.6,0,0,0-10.81,1.85c-12.42,2.91-24.73,6.38-37,9.83-14.06,4-28.09,8-42.24,11.66-7,1.8-14.09,3.6-21.2,5.07C118.69,957.5,110.83,959.3,104.53,957.5Z"/><path class="cls-6" d="M105,460c17.06,5.33,40.61,7.14,47.4,26.57a77.34,77.34,0,0,1,4.16,23.08c.15,8.46-4.5,13.58-12.8,15s-17.51-.16-25.93-.83c-10.23-.81-20.46-1.67-30.72-2-8.23-.24-18,.1-25.32-4.31-8.42-5.07-1.33-14.63,3.07-19.88A327.06,327.06,0,0,0,85.13,471C89.84,464.09,95.73,457.09,105,460Z"/><path class="cls-6" d="M396.38,287.73c-11.37-6.45-.82-14.28,6.94-17.3a44.65,44.65,0,0,1,18.87-2.9c7.12.49,12.42,3.83,18.35,7.43,5.62,3.41,11.92,6,16.46,10.91s6,11.27,5.68,17.73c-.24,4.95-.83,14.14-4.71,17.78-4.52,4.23-13.84-3.28-17.65-5.76C425.74,306.16,411.52,296.31,396.38,287.73Z"/><path class="cls-6" d="M639,679c28.3,47.17,145,88,168,82S633,669,639,679Z"/><path class="cls-6" d="M563,882c27.3,41.86,125,89,148,81S548,859,563,882Z"/><path class="cls-6" d="M573.25,537.27c2.11,35.7,9,72,2.65,107.62-3.1,17.37-8.54,34.49-14.27,51.15-2.89,8.41-5.93,16.82-9.64,24.91-2.12,4.62-5.64,15-11.37,16.37-13.31,3.08-6.87-64.35-6.06-70,2.53-17.72,6.3-35.18,8.12-53,1.76-17.25,1.3-34.41,1.47-51.71a189.34,189.34,0,0,1,2.09-28.82c1.17-7.12,2.54-15.67,6.85-21.7,4.64-6.5,10.47-2.59,13.92,3C571,521.48,572.81,529.81,573.25,537.27Z"/><path class="cls-2" d="M424.5,251.54a87.34,87.34,0,0,1,37.24,8.64c15.4,7.38,23.57,21.05,34.84,33.13,12.2,13.08,26,24.69,37.42,38.52,10.76,13.08,19.21,28.06,27.47,42.8,8.79,15.7,12.67,33.74,17.25,51a326.39,326.39,0,0,1,9.76,56.16c1.63,19.06,3.51,37.91,3.95,57a235.47,235.47,0,0,0,8.07,55.92,177.28,177.28,0,0,0,7.35,20.32c3,7.26,4.87,15.1,8.34,22.13,2.73,5.54,8.27,8.64,13.57,11.39,7.08,3.68,14.42,6.88,21.6,10.36,34.17,16.56,69.06,31.61,103.87,46.76q24,10.43,48,20.68c3.81,1.63,7.63,3.22,11.48,4.75S823,734,826,737c2.67,2.71,2.82,6.17,3.18,9.75q.66,6.6,1.08,13.23c.59,9.16.84,18.34.87,27.51.23,65.77-11.84,132.33-42.94,190.79a319.77,319.77,0,0,1-54.91,75,262.06,262.06,0,0,1-38.2,32.06c-2.73,1.86-5.48,3.69-8.22,5.53-2.31,1.55-4.55,3.51-7.19,3.51a5.62,5.62,0,0,1-2.07-.41c-3.19-1.25-5.79-4.33-8.52-6.36-3.45-2.56-7-5-10.48-7.52-27.54-19.48-55.94-37.71-84.68-55.35q-21.9-13.45-44.14-26.35c-13.39-7.74-26.6-17.1-42.19-19.5a66,66,0,0,0-10.05-.77,60.68,60.68,0,0,0-31.8,8.68c-5,3.1-9.42,7.19-14.65,9.93-6.56,3.44-13.82,4.71-21,5.86-7,1.11-14,2-21,2.45-.82.05-1.65.07-2.48.07-3.08,0-6.24-.29-9.35-.29a29.38,29.38,0,0,0-5.9.51c-6.05,1.24-11.56,3.85-17.73,3.85a20.91,20.91,0,0,1-2.43-.14c-2.72-.32-5.33-1.21-8.07-1.41-.5,0-1-.05-1.49-.05a48.89,48.89,0,0,0-7.64.86,72.85,72.85,0,0,1-11.4,1,43.59,43.59,0,0,1-8-.71,34.41,34.41,0,0,1-8-2.84,11.42,11.42,0,0,0-4.75-1.21,12.37,12.37,0,0,0-4.94,1.25,36,36,0,0,1-11.32,2.81c-.57,0-1.15.07-1.72.07-3.17,0-6.41-.62-9.55-.62a13.68,13.68,0,0,0-6.66,1.47c-6.45,3.47-12.51,7.27-19.23,10.3s-13.61,6.06-20.47,9c-14.29,6.07-28.86,12.15-43.8,16.43a69.44,69.44,0,0,1-19,3,47.23,47.23,0,0,1-6-.37c-7.91-1-15.39-3.59-23.43-4-11.59-.64-22.05-.44-31.26-8.66C92.21,1024.43,88.17,1008,84,993c-4.27-15.36-11-29.75-13.79-45.54-.7-4-1.2-8-1.6-12-.33-3.25-.63-5.29-3.76-6.85-6.6-3.29-12.91-5.37-18.65-10.26-11.67-9.94-15.79-23.06-17-37.84C28,865,24.5,850.32,21.77,835.07c-2.69-15-3.09-29.89.29-44.83,1.35-6,6.12-15,2.7-20.75-1.31-2.2-3.3-3.91-5-5.81a38.67,38.67,0,0,1-6.49-10.44c-6.48-15.06-4.36-32.8-3.38-48.71A534.58,534.58,0,0,1,15.5,651.1a73.3,73.3,0,0,1,5-18,85.18,85.18,0,0,1,5-9.71c1.67-2.75,4-5.16,5.28-8.12,2.56-5.78-3.78-8.42-7-12.36a65.86,65.86,0,0,1-9.5-15.25c-6.09-14-5.31-29.09-2.92-43.88,2.31-14.36,6.6-27.64,14.17-40.09,8.18-13.47,17.53-26.18,27-38.77C61.75,452.6,71.7,440.46,85,432.34c12-7.37,25.69-11.17,39.53-13.42a156.66,156.66,0,0,1,25-2.37,76.44,76.44,0,0,1,20.91,2.67c7.09,2,13.84,5.15,21.15,6.4a93.07,93.07,0,0,0,15.67,1.1c2.34,0,4.67,0,7-.09,16.29-.32,32.42-1.78,48.68-2.4-27.09-10.85-51.57-45.34-40.94-74.93,6.11-17,25.11-22.41,39.7-30,16.75-8.67,34.14-15,51.73-21.76,17.33-6.62,34.68-12.73,51-21.65,8.28-4.53,16.55-9.07,24.75-13.75,7.7-4.39,15.48-8.48,24.35-9.82a73.63,73.63,0,0,1,11-.81m0-7h0a80.85,80.85,0,0,0-12,.89c-10.15,1.53-18.79,6.11-26.77,10.66-8.27,4.72-16.71,9.35-24.64,13.69-13.6,7.44-27.81,12.8-42.84,18.48L310.91,291l-5,1.9c-15.71,6-31.95,12.16-47.47,20.19-2.66,1.38-5.5,2.69-8.49,4.08-13.43,6.21-28.65,13.26-34.57,29.73-9.12,25.36,4.09,54,24.79,71.5-8.58.52-17.41,1-26.08,1.2-2.33,0-4.6.09-6.86.09a85,85,0,0,1-14.5-1,76.68,76.68,0,0,1-12.14-3.53c-2.66-.93-5.41-1.89-8.27-2.7a82.75,82.75,0,0,0-22.82-2.93A160,160,0,0,0,123.38,412c-17.27,2.81-30.63,7.37-42.05,14.36-14.7,9-25.47,22.42-34.42,34.3-9.15,12.16-18.8,25.21-27.39,39.34C12,512.42,7,526.36,4.42,542.63,2.11,557,.7,573.95,7.83,590.41a73,73,0,0,0,10.5,16.89,32.83,32.83,0,0,0,3.83,3.82c.6.53,1.43,1.26,1.93,1.81a28.71,28.71,0,0,1-2.15,3.22c-.81,1.11-1.66,2.27-2.46,3.58a91.2,91.2,0,0,0-5.4,10.51A78.92,78.92,0,0,0,8.59,650a537,537,0,0,0-5.67,54.14c-.1,1.69-.22,3.4-.34,5.12C1.56,724.12.4,741,6.86,756a45.63,45.63,0,0,0,7.69,12.32c.59.67,1.18,1.28,1.75,1.87a18.52,18.52,0,0,1,2.45,2.87c.92,1.55-.94,7.23-1.84,10-.65,2-1.26,3.83-1.68,5.68-3.33,14.73-3.45,30.3-.35,47.6.72,4,1.5,8.05,2.25,11.95,2.16,11.2,4.21,21.78,5.09,32.85,1,12,4,29.5,19.42,42.61,5,4.26,10.2,6.63,15.23,8.92,1.51.69,3.07,1.4,4.59,2.15.07.47.13,1.09.17,1.41.49,4.8,1,8.76,1.67,12.48,1.81,10.24,5.15,19.83,8.38,29.11,1.95,5.59,4,11.37,5.55,17.09l.63,2.28c4.11,14.85,8.76,31.67,21.82,43.33,10.28,9.17,21.67,9.73,32.68,10.28l2.85.15a79.74,79.74,0,0,1,12.42,2c3.37.73,6.84,1.49,10.5,2a54.48,54.48,0,0,0,6.88.43,75.91,75.91,0,0,0,20.94-3.26c14.94-4.27,29-10.1,44.62-16.72,6.62-2.82,13.36-5.77,20.61-9,4.81-2.17,9.26-4.69,13.56-7.12,2-1.13,4.06-2.3,6.1-3.39a6.91,6.91,0,0,1,3.34-.64c1.23,0,2.62.13,4.08.28,1.74.17,3.54.34,5.47.34.81,0,1.57,0,2.32-.09a42.69,42.69,0,0,0,13.49-3.36,6.92,6.92,0,0,1,2.17-.68,5.63,5.63,0,0,1,1.88.6l.14.06a40,40,0,0,0,9.44,3.28,50.25,50.25,0,0,0,9.28.82,79,79,0,0,0,12.5-1.12l.87-.14a37.4,37.4,0,0,1,5.68-.64c.33,0,.66,0,1,0a27.15,27.15,0,0,1,3.44.6c1.3.28,2.77.6,4.34.78a28.1,28.1,0,0,0,3.24.19c5,0,9.48-1.32,13.44-2.48,2-.58,3.84-1.13,5.69-1.51a22.39,22.39,0,0,1,4.5-.37c1.39,0,2.84.07,4.37.14s3.28.15,5,.15c1.05,0,2,0,2.93-.09,6.6-.43,13.68-1.26,21.66-2.53,8.37-1.33,15.89-2.75,23.2-6.58a71.57,71.57,0,0,0,9.39-6.2c2-1.45,3.8-2.82,5.69-4A53.41,53.41,0,0,1,477.48,985a59.13,59.13,0,0,1,9,.69c11.57,1.79,21.89,8,32.81,14.53,2.27,1.36,4.62,2.77,7,4.12,13.84,8,28.23,16.59,44,26.26,33,20.26,59.8,37.77,84.3,55.1l.7.5c3.19,2.26,6.49,4.59,9.65,6.93.66.49,1.43,1.17,2.24,1.88a27.09,27.09,0,0,0,7.89,5.36,12.63,12.63,0,0,0,4.63.89c4.4,0,7.66-2.29,10-4l1.05-.73,1.65-1.1c2.17-1.45,4.42-3,6.63-4.46a269.82,269.82,0,0,0,39.23-32.91,326.08,326.08,0,0,0,56.12-76.61c29.3-55.08,44-120.38,43.76-194.1,0-10.12-.33-19.25-.89-27.93-.3-4.75-.66-9.16-1.1-13.48l-.07-.71c-.37-3.78-.87-9-5.09-13.26-3.51-3.57-8.11-5.29-11.81-6.67l-1.87-.71c-3.4-1.34-7.09-2.87-11.3-4.67-14.28-6.12-31.15-13.35-48-20.67l-6.95-3c-31.9-13.87-64.89-28.22-96.66-43.62-2.71-1.31-5.47-2.6-8.14-3.84-4.41-2.06-9-4.18-13.28-6.42-4.74-2.47-8.81-4.79-10.52-8.28a100.38,100.38,0,0,1-4.7-12.2c-1.05-3.11-2.14-6.33-3.43-9.49A171.63,171.63,0,0,1,607.24,593a229,229,0,0,1-7.82-54.23c-.37-16.39-1.81-32.77-3.2-48.61q-.39-4.43-.77-8.87a332.26,332.26,0,0,0-10-57.35q-1-3.59-1.88-7.22c-3.94-15.32-8-31.15-16-45.46-7.88-14.08-16.81-30-28.17-43.83-7.09-8.61-15.09-16.39-22.82-23.91-5-4.84-10.13-9.85-14.88-14.94-2.82-3-5.53-6.26-8.15-9.39-7.89-9.43-16-19.18-28.78-25.28a93.89,93.89,0,0,0-40.27-9.33Z"/><path class="cls-2" d="M284.63,880.5C298,909,337,932,270,1009l4,3s40-41,39-73S284.63,880.5,284.63,880.5Z"/></g></svg>