<svg xmlns="http://www.w3.org/2000/svg" viewBox="0 0 840 1096.88"><defs><style>.cls-1{fill:#fc9;}.cls-2{fill:#80664d;}.cls-3{fill:#bf9973;}.cls-4{fill:#ffebd6;}.cls-5{fill:#ffe0c2;}.cls-6{fill:#ffd6ad;}</style></defs><title>Hand</title><g id="Frame_3" data-name="Frame 3"><path class="cls-1" d="M799,956c-17.26,38.66-41.48,74.44-72.31,103.57a268.91,268.91,0,0,1-26.17,21.85q-6.73,4.91-13.83,9.26c-2.84,1.74-6.08,5.42-9.4,3.28-4.45-2.87-8.51-6.81-12.8-10q-7.22-5.32-14.63-10.37c-9.64-6.61-19.46-13-29.26-19.35q-29.94-19.51-60.54-38-15.27-9.23-30.71-18.18c-9.5-5.49-19.23-12.29-29.53-16.15-21-7.89-43.4-3.21-61.29,9.52-3.7,2.63-7.16,5.27-11.42,7a70.87,70.87,0,0,1-15.54,3.79c-11,1.7-22.37,3.47-33.58,2.95-5.43-.25-9.14.93-14.32,2.52a29.22,29.22,0,0,1-16.65.44c-5.58-1.6-9.73-.13-15.36.8a50.86,50.86,0,0,1-16.69-.14,39,39,0,0,1-7.61-2.06c-1.83-.72-3.86-2.51-5.86-2.56s-4.31,1.84-6.12,2.5a40,40,0,0,1-9,1.93,48.84,48.84,0,0,1-9.12.18c-2.1-.15-4.61-.95-6.67-.53-1.66.34-3.13,1.76-4.53,2.64-2.82,1.78-5.86,3.23-8.83,4.74-20.85,10.57-42.58,19.22-64.63,26.91-10.53,3.67-21.91,7.59-33.22,5.76-5.17-.84-10-3-15.09-4.05-5.5-1.12-11-.47-16.59-.52-22.58-.17-34.35-19.11-40.38-38.64-3.49-11.28-6.75-22.47-10.63-33.63a144.93,144.93,0,0,1-7.51-32.77c-.44-4.16-.24-8.21-4.42-10.25s-8.66-3.24-12.8-5.81c-8.6-5.34-15.44-12.93-19-22.5-3.78-10.26-3.62-21.27-5-32-1.49-11.44-4.38-22.56-6.57-33.86a104.88,104.88,0,0,1-1.1-35.49,132.82,132.82,0,0,1,3.1-15.08c1.26-4.75,5-10.57,1.27-14.76-7-7.8-12.93-15.2-14.85-25.85-2-10.85-.82-22.36-.3-33.3.56-11.95,1.46-23.88,2.79-35.76,1.29-11.49,2.32-23.64,5.6-34.76,1.54-5.23,4.17-10.05,6.84-14.78,1.09-1.94,2.14-3.92,3.35-5.79,1.09-1.68,3.19-3.65,3.47-5.71.44-3.3-5.78-7.69-7.86-10.25a70.57,70.57,0,0,1-9.3-14.56c-9.19-19.71-5-44,1.62-64,6.89-20.88,21.5-39.24,34.41-56.72,12.13-16.43,25.48-32.2,44.65-40.49,19.81-8.57,43.47-11.68,64.93-9.89,10.93.91,20.12,6.73,30.74,8.57s21.78.83,32.52.63c3.31-.06,9.42,1.5,11.9-1.36,2.25-2.6,2.21-7.46,3-10.67,2.67-10.67,4.41-21.86,10-31.48,9.63-16.46,27.15-28.63,45.11-34.37,10.92-3.49,22-2.09,33.2-1.31,12,.85,24.11.63,36.17.34s24-.63,35.91.87,23.57,4.54,35.18,7.45c22.42,5.62,45,12.17,65.79,22.37,16.76,8.21,31.1,20.47,40.88,36.45,11.67,19.08,17.42,41.15,22.45,62.74,10.67,45.8,26.39,89.9,43.38,133.68q3.14,8.1,6.31,16.2c1.61,4.14,2.61,9.2,5.16,12.87,2.72,3.91,8.6,6.41,12.67,8.61,4.89,2.63,9.91,5,14.92,7.37q33.28,15.78,66.91,30.77Q745.56,701.67,779,716q16.39,7.07,32.81,14.06c4.43,1.89,9.51,3.24,13.77,5.39s3.39,9.16,3.78,13.32a454,454,0,0,1-9.09,142.48A346.13,346.13,0,0,1,799,956Z"/><path class="cls-2" d="M313.47,740.68c-3.82,6.92-8.25,13.81-14.5,18.79-6.72,5.34-15.24,7.49-23.36,9.7a580.82,580.82,0,0,1-57.17,12.08c-19.32,3.23-38.73,5.87-58.18,8.22s-38.68,4.94-58.12,5.78c-20.18.87-40.69-.85-58.56-11.09,28,6,55.6,6.11,84,2.81s56.58-8,84.66-13c23.31-4.1,48.17-7.45,70.15-16.67,9.25-3.88,18.19-9.22,24.58-17.1,7.31-9,9.66-23.35,10.35-34.65,1.87-30.64-13.66-56.34-28.88-81.54,14.66,15,27.3,32.72,32.87,53.18A85.66,85.66,0,0,1,313.47,740.68Z"/><path class="cls-2" d="M289.06,764.75c-16.2,6.95-33.59,10.41-50.79,13.88-18.25,3.69-36.6,6.85-55,9.38q-27.94,3.83-56,6.67c-18.43,1.84-37.22,3.46-55.61.34C54.35,792.1,35.07,783.09,24,769c10.39,11.91,27,19.61,42.18,22.87,17.53,3.77,35.56,2.62,53.26.84,37.19-3.75,74.26-8.47,111.12-14.66C250.3,774.74,270.14,771.39,289.06,764.75Z"/><path class="cls-1" d="M236.94,419.13c.17-.65.36-1.34.56-2.07C237.32,417.75,237.13,418.44,236.94,419.13Z"/><path class="cls-1" d="M237.5,417.06c.27-1,.54-2,.79-2.93C238,415.17,237.75,416.14,237.5,417.06Z"/><path class="cls-1" d="M244,392a34.76,34.76,0,0,1,5.17-10.8c-3.16,4.69-5,10.13-6.37,15.56Z"/><path class="cls-1" d="M331.11,347.45l2.07.09Q332.15,347.51,331.11,347.45Z"/><path class="cls-1" d="M397,348c2.54.47,5.09.93,7.63,1.42a111.47,111.47,0,0,0-20.72-2C388.31,347.39,392.72,347.21,397,348Z"/><path class="cls-1" d="M531,401a124.68,124.68,0,0,1,7.26,10.16,83.86,83.86,0,0,0-22.21-23.42A65.81,65.81,0,0,1,531,401Z"/><path class="cls-1" d="M543.39,419.78q1.2,2.19,2.29,4.4C544.94,422.7,544.18,421.24,543.39,419.78Z"/><path class="cls-1" d="M546.4,425.66C560.15,454,564.11,484.86,571,511,563.21,482.33,559.35,452.6,546.4,425.66Z"/><path class="cls-1" d="M574.28,522.12c5.85,18.66,15.73,45.69,24.62,69.27C590.24,568.49,581.51,545.52,574.28,522.12Z"/><path class="cls-1" d="M614.46,631.92q-1.26-3.23-2.51-6.45Z"/><path class="cls-2" d="M212.85,487.14C183.18,473.65,154.19,458.87,121,457,153.74,453.82,186.22,469.74,212.85,487.14Z"/><path class="cls-2" d="M180,439c12.05,9.79,21.07,26.37,21.42,42C196.19,465.87,188.78,452.38,180,439Z"/><path class="cls-2" d="M264,641c-15,4.58-31,3.43-46.42,1.94-16.38-1.58-32.67-4-49-6.29-16.55-2.33-33.18-4.53-49.92-4.43C102.8,632.3,86.84,634,71.06,631c-14.72-2.82-29.86-8.53-40-20,19.2,19,48.52,20.95,74,19.15,34.51-2.43,68.15,4.64,102.14,9.4C225.87,642.17,245.32,645.43,264,641Z"/><path class="cls-2" d="M296.29,529.35c-6.43-16.54-13.84-33.72-26.56-46.48-15.51-15.57-36.65-18.54-57-10.88,14.84-5.6,31.7-8.12,46.79-2,13.65,5.54,23.66,17,30.7,29.62,7.32,13.12,12,27.8,15.29,42.41,3.75,16.78,4.09,34-1.35,50.5-4.44,13.45-10.27,27-20.7,37-11,10.44-25.4,14-40.19,14.09-34.31.29-68.34-8.67-102.36-12-19-1.86-37.81,1.27-56.8.07-16.94-1.07-34.17-5.46-47.79-16,.94-1.13,14.2,4.67,15.9,5.23,10.36,3.42,22,4,32.82,4.32,27,.72,53.72-3.34,80.46,2.1,13.12,2.67,26,6.17,39.38,7.35,12.76,1.12,25.83,2.95,38.64,2.92,22.05-.05,38.25-12.95,47.41-32.43C301.62,582.54,305.5,553.06,296.29,529.35Z"/><path class="cls-2" d="M311.49,789.21c-2-8.47-7.11-15.78-12.32-22.56,3.3,9.57,7.52,18.2,7.94,28.51a240.69,240.69,0,0,1-1.25,31.22c-.74,8.25-.74,18.82-4.59,26.34-4,7.88-12.75,13-20.55,16.49-18.4,8.24-38,13.37-56,22.5s-35.34,18.53-54.29,25.45c-22,8-44.8,13.25-67.75,17.61,19.72,1.26,39.14-2.46,58.06-7.73a267.25,267.25,0,0,0,53.93-21.85c17.11-9.09,35.29-15.39,53.07-23,15.85-6.74,29.39-15,37-31.07,4.37-9.28,6.2-19.44,7.35-29.56C313.23,810.87,314,799.8,311.49,789.21Z"/><path class="cls-2" d="M68,930c13.71,3.71,29.43,4.2,43.57,4.12,15-.08,29.64-3.39,44-7.26a274.89,274.89,0,0,0,40.79-14.17c12.91-5.77,25.16-12.92,38.24-18.32,15.3-6.31,31.19-11.17,46.12-18.36-12.67,7.29-26.44,12.28-39.84,18-13.11,5.62-25.5,12.69-38.31,18.94a243.56,243.56,0,0,1-40.76,15.17c-14.26,4-28.84,7.62-43.72,8a173.34,173.34,0,0,1-25.68-1.63C84.25,933.54,75.94,932.56,68,930Z"/><path class="cls-3" d="M302.79,963.14c-6.25,13.55-12.75,27.81-24,38s-25.31,16.55-39.15,22.59c-15.28,6.67-30.81,12.69-46.46,18.43-7.19,2.63-14.51,5.18-22.14,6.15S156.5,1048,149.2,1046a53.61,53.61,0,0,0-12.14-2.34c-3.86-.16-7.7.3-11.57.06-7.65-.46-14.83-2.88-20.65-8,7.08,1.92,13.8,4.18,21.19,4.65,7.71.49,15.43-.07,23.14.17,7.52.23,15,2.32,22.5,1.07,7.32-1.22,14.48-4.24,21.41-6.8,27-10,54.84-20.2,78.21-37.42C283.68,988.25,295.85,977.08,302.79,963.14Z"/><path class="cls-1" d="M241.77,400.91c.29-1.16.58-2.31.88-3.45Z"/><path class="cls-1" d="M283.39,352.61c-13.5,6.63-25.91,17.07-33.2,27.17C258.46,368.18,270.63,358.82,283.39,352.61Z"/><path class="cls-1" d="M289.21,350a63.47,63.47,0,0,1,11.43-3.44A65.65,65.65,0,0,0,289.21,350Z"/><path class="cls-1" d="M300.64,346.58c1.18-.24,2.37-.43,3.57-.58C303,346.15,301.84,346.35,300.64,346.58Z"/><path class="cls-1" d="M311.11,345.66c6.7.12,13.31,1.41,20,1.79C324.44,347.12,317.77,345.86,311.11,345.66Z"/><path class="cls-1" d="M377.57,347.47c-9.58.16-21.27.49-32.94.36C355.61,347.93,366.59,347.61,377.57,347.47Z"/><path class="cls-1" d="M405.13,349.51l1.16.23Q404,349.31,405.13,349.51Z"/><path class="cls-1" d="M464.8,364.62c-1.31-.43-2.63-.84-3.94-1.25Z"/><path class="cls-1" d="M460.86,363.37c-16.8-5.24-33.12-9.13-45.19-11.71C430.89,354.88,446,358.69,460.86,363.37Z"/><path class="cls-1" d="M412.06,350.9l3.61.76Z"/><path class="cls-1" d="M481.46,370.5a186.89,186.89,0,0,1,28.12,13.15A196.5,196.5,0,0,0,481.46,370.5Z"/><path class="cls-3" d="M618.53,664.5s-35,76-76,111C542.53,775.5,605.53,734.5,618.53,664.5Z"/><path class="cls-3" d="M447.53,985.29c-5,2.27-8.78,6.35-13.16,9.54-4.77,3.48-10.2,5-15.94,6.13-13.29,2.5-26.74,4.51-40.28,4-6.29-.24-11.58,2.42-17.66,3.54a34,34,0,0,1-9.57.46c-2.86-.29-5.6-1.73-8.46-1.73s-5.6,1.12-8.35,1.52a62.39,62.39,0,0,1-10.42.65,53.16,53.16,0,0,1-17.92-3.52c-3.12-1.21-3.77-2.33-6.93-.93a38.69,38.69,0,0,1-7.06,2.73A48.9,48.9,0,0,1,270,1008c10.31-6.19,17.73-15.92,23.56-26.26,5.73-10.15,11.58-21.38,14.53-32.69,6.87-26.38-10.49-54.14-27.35-73,7.12-3.79,14.21-8.38,18.31-15.55,8.77,26,18.81,51.37,37.22,72.24,17,19.26,38.82,33.36,63,41.92A213.89,213.89,0,0,0,447.53,985.29Z"/><path class="cls-3" d="M670,693s3,63-36,172C634,865,687,747,670,693Z"/><path class="cls-3" d="M639,679c7.74,33-.43,73-21,100C633.35,748.07,640,713.4,639,679Z"/><path class="cls-3" d="M321,742c14.15,24,37.5,42.31,61.51,55.75C410.9,813.62,442.17,819.23,474,812c-45.95,22.56-98.64-1.39-131.18-35.83C333.61,766.39,324.73,755.16,321,742Z"/><path class="cls-3" d="M538,856c-13.09,31.74-28.65,64-29,99-3.35-17.06.41-35,5.71-51.23A191.94,191.94,0,0,1,538,856Z"/><path class="cls-3" d="M36,714c-1,15.63-3.37,31.45,0,47C29.56,747.15,31.91,728.16,36,714Z"/><path class="cls-3" d="M62,720c-1.05,15.61-2.24,31.43,0,47-2.67-7.23-2.92-15.14-2.89-22.77C59.18,736.08,59.8,727.87,62,720Z"/><path class="cls-3" d="M52,711a290.19,290.19,0,0,0-2.23,29c-.39,9.66-1.19,19.38-.77,29-2.19-9.52-1.66-19.46-1.21-29.14S49,720.31,52,711Z"/><path class="cls-3" d="M37,529c-1.77,21-4.44,41.81-4,63C29.35,571.53,31.92,549,37,529Z"/><path class="cls-3" d="M58,529c-1.77,11.7-3.36,23.42-4.55,35.19C52.35,575.41,51.14,586.72,52,598c-2.42-11.17-1.65-22.76-.53-34A193.24,193.24,0,0,1,58,529Z"/><path class="cls-3" d="M48,856c0,8.26.18,16.58,1.52,24.75s4.4,16,5.48,24.25c-2.73-7.64-5.93-15.16-7.33-23.2A71.32,71.32,0,0,1,48,856Z"/><path class="cls-3" d="M60,860c1,16.57,4.62,32.79,8,49C61.76,894.23,57.82,876,60,860Z"/><path class="cls-3" d="M103,983c4.71,15.08,7.51,30.93,15,45-4.87-5.57-7.57-12.72-9.81-19.66A113,113,0,0,1,103,983Z"/><path class="cls-3" d="M118,983a210.8,210.8,0,0,1,7.36,20.77c1.93,6.12,3.3,12.68,6.64,18.23-4.56-4.46-6.43-11.08-8.32-17A165.3,165.3,0,0,1,118,983Z"/><path class="cls-1" d="M624.12,645c-2.62-1.52-5.25-2.83-6.83-5.54-1.91-3.28-2.84-7.51-4.2-11-3.22-8.4-6.55-16.77-9.79-25.16-6.73-17.4-13.35-34.85-19.5-52.47-5.7-16.33-10.89-32.85-15.18-49.61-3.88-15.17-6.91-30.56-11.19-45.63-4.52-15.93-10.39-31.87-18.51-46.33-8.33-14.84-19.82-26.32-34-35.62-14-9.17-29.16-16.68-44.43-23.43-16.71-7.38-33.89-14.54-51.58-19.22s-36-5.58-54-8.16c-18.34-2.63-36-9.61-54.53-4.77-14.8,3.86-29.84,11.72-40.41,22.9-12.19,12.9-16.63,31.88-23.36,47.86-6.67,15.82-16.63,29.57-25,44.45S193.1,462.28,186,477.81c-3.4,7.44-6.93,14.75-10.69,22s-7.29,14.63-8.11,22.71c-1.67,16.38,10.37,30.65,23.58,38.71,30.91,18.86,67.73,6.5,98.53-6.1,15.64-6.4,31.43-13.6,45-23.76,13-9.73,22-24.11,31.48-37.14,4.37-6,9.21-12.2,11.71-19.28-2.19,6.65-6,12.58-9.57,18.56-1.77,3-3.45,6-5.22,9-1.94,3.3.07,5,1.86,8.24s3.33,6.26,5.23,9.23c1.3,2,3.69,4.41,3.93,6.92s-1.77,4.73-2.77,6.78c-1.7,3.48-3.12,7.14-4.64,10.71-3.2,7.47-6.26,15-9.24,22.57-2.82,7.16-5.68,14.51-6.38,22.24-1.32,14.74,7,27.41,17.24,37.21,10.86,10.39,23.73,19,36.45,27a268.63,268.63,0,0,0,42.12,21.5c29.19,11.67,60.81,17.72,92.28,15.2a153.91,153.91,0,0,0,52.79-13.52c15.25-7.1,28.83-16.74,42.76-26C630.91,648.77,627.47,646.95,624.12,645Z"/><path class="cls-2" d="M244.27,568.58c6.87-.9,13.32-3.83,19.86-6,7.14-2.34,14.26-4.68,21.26-7.43a327.79,327.79,0,0,1-41.7,12.89c-.06,0,1,.68,0,.34Z"/><path class="cls-2" d="M243.75,568.69c-16.36,3.18-34.15,1.91-49.22-5.57-12.92-6.41-24.92-18.21-27.32-33-2.56-15.74,8.18-29.33,14.45-42.78,7.49-16.05,16.37-31,25.41-46.18,10.72-18,20.89-36.47,29.22-55.74-7.51,36.23-36,63-50.08,96.37-5.88,14-17.55,27.44-17.72,43.21s11.89,28.54,24.68,35.92a66,66,0,0,0,27,8.35,71.59,71.59,0,0,0,15.2-.15C236.87,569,242.76,567,243.75,568.69Z"/><path class="cls-2" d="M371.15,486.47c14.89-8.62,27.54-21.13,35.52-36.44,9.46-18.14,11.14-38.78,9.93-58.9,0,18.42-4.81,36.79-12.69,53.38a127.23,127.23,0,0,1-14.07,23.12,114.32,114.32,0,0,1-9.11,10.45C378.16,480.7,374.74,485.32,371.15,486.47Z"/><path class="cls-2" d="M370.21,486c24.37-24.4,38-64.17,23.47-97.06,2.82,17.1,2.48,35.63-2,52.44-2,7.68-5,15.4-9.8,21.82C376.72,470.27,373.78,478.11,370.21,486Z"/><path class="cls-2" d="M367,493.88c29.72-4.09,48.47-30.57,60.24-55.84a166.75,166.75,0,0,1-27.16,34.73,101.75,101.75,0,0,1-17,13.64,66,66,0,0,1-9.12,4.81C372.85,491.71,367.11,493.92,367,493.88Z"/><path class="cls-2" d="M358.25,499.16s52.23,9.24,87.39-33.34C445.64,465.82,399.84,501.38,358.25,499.16Z"/><path class="cls-4" d="M225.15,461.57c-21.75,10.52-35.29,32.21-44,53.94,7.47.77,14.95,1.3,22.38,2.44,7.22,1.1,14.45,2.37,21.78,2.5A124.81,124.81,0,0,0,269,512.89c2.55-.91,5.73-1.64,8-3.15,2.55-1.69,3.26-5.18,4.28-7.89A220,220,0,0,0,288,480.24c.85-3.2,1.92-6.34.73-9.6a21.12,21.12,0,0,0-5.21-7.37,31.33,31.33,0,0,0-14.24-7.57C254.77,452,238.57,455.63,225.15,461.57Z"/><path class="cls-5" d="M286.64,457c-10.83-6.17-24.33-6.92-36.48-5.68a73.53,73.53,0,0,0-33.67,12.52c-9.46,6.37-17.61,14.49-25.18,23-4.06,4.56-7.93,9.29-11.56,14.2-1.82,2.46-7.59,8.42-5.79,12,1.17,2.32,6.52,3.61,8,1.42.84-1.26,1.06-3.18,1.64-4.61,1.14-2.77,2.47-5.49,3.82-8.17a101.71,101.71,0,0,1,19.42-26.79c14.72-14.6,36.65-22.7,57.44-20.07a35.36,35.36,0,0,1,16.1,5.78c4.44,3.15,9.65,8.54,9.07,14.38-.55,5.57-3,11.66-4.69,17a171.89,171.89,0,0,1-6.4,17.25c5.07-2.3,10.27-4.42,12.88-9.68s3.88-11.29,5.08-16.85c1-4.74,2.72-11.39.73-16C295.17,462.22,290.58,459.22,286.64,457Z"/><path class="cls-3" d="M372.32,484.18c-15,30-41.71,50.69-71.57,64.56-17.57,8.17-36.3,15.33-55.34,19.18-17.7,3.58-36.12,2.74-52.13-6.22-13.55-7.58-26.6-21.08-25.61-37.72,8.84,18.24,24.66,31.35,45.49,31.94,22.86.64,46.55-4.41,67.93-12.3,39.06-14.41,72.35-42.2,87.79-81.52,9.45-24.07,12.26-50.34,11.06-76,6.08,15.69,6.8,33,5.14,49.55S379.81,469.14,372.32,484.18Z"/><path class="cls-2" d="M384.76,444.91c-3,20.51-9.77,40.79-21.87,57.79-11.37,16-27,28.45-43.84,38.17-18.59,10.7-39,18.7-59.57,24.76-20.07,5.93-42.05,8.39-61.61-.68-15.68-7.28-31.59-22.21-30.19-41-.69,19.87,17.46,34.57,34.47,40.91,24.46,9.1,50.28,1,73.62-7.58,22.81-8.38,45.38-18.56,64.1-34.34a122.6,122.6,0,0,0,37.85-55.54c8.41-25.81,11.37-55.34,2.23-81.36C387.43,404.66,387.65,425.34,384.76,444.91Z"/><path class="cls-6" d="M37,802a50.45,50.45,0,0,0-1.81,33c2.7,9,9,20.41,17.93,24.66,4.89,2.33,10.38,1.48,15.53.59A152.47,152.47,0,0,0,88.41,855c12.87-4.06,25.5-8.77,38-13.9,12.3-5.06,24.45-10.47,36.34-16.43,5.24-2.63,10.52-5.22,15.58-8.2a82,82,0,0,0,7.3-4.78c1.9-1.41,5.82-3.34,3.31-5.61s-10.12-.39-13.32-.18c-7,.48-13.93,1.1-20.89,1.78-13.37,1.3-26.73,2.62-40.15,3.15-15,.59-30.06.2-44.83-2.5-7.11-1.3-14.07-3.23-21-5.19C46.61,802.62,38.28,798.88,37,802Z"/><path class="cls-6" d="M55,651c-17,7.56-29.53,28.1-24.89,46.8,1,4,3,7.9,7.21,9.1,5.14,1.45,11.54,0,16.58-1.07,11.69-2.58,23-7.3,34.13-11.63,22.81-8.89,45.09-19.34,68.36-27,2-.67,15.12-2.92,13-6s-10.44-3.43-13.68-3.87q-8.76-1.18-17.55-2.24c-14.17-1.7-28.42-2.92-42.67-3.84-6.88-.44-13.77-.79-20.66-1-3.62-.11-7.25-.17-10.87-.12C61.09,650.17,57.7,649.82,55,651Z"/><path class="cls-6" d="M104.53,957.5c-6.63-1.89-20.09-3.91-16.35,7.62,2.69,8.3,10.62,17.47,18.63,20.89,5.18,2.21,10.55,1.28,15.93.35a170.46,170.46,0,0,0,18.71-4.55c12.78-3.73,25.48-7.8,37.94-12.51,11.37-4.31,22.54-9.15,33.43-14.56,9.83-4.88,19.55-10.45,27.54-18.07,1.9-1.81,6.76-5.9,3.47-8.42-1.74-1.33-5.68-.62-7.64-.46a73.6,73.6,0,0,0-10.81,1.85c-12.42,2.91-24.73,6.38-37,9.83-14.06,4-28.09,8-42.24,11.66-7,1.8-14.09,3.6-21.2,5.07C118.69,957.5,110.83,959.3,104.53,957.5Z"/><path class="cls-6" d="M105,460c10.76,3.36,21.62,6.47,32.17,10.47,8.29,3.15,17,6.61,23.68,12.57,7.07,6.29,9.82,14.87,7.16,24-2.32,8-7.84,14.45-15.91,17-9.53,3-20.15,1.41-29.86.34-10.71-1.18-21.45-1.77-32.2-2.4-8.45-.49-18.6.13-26.48-3.46-9.28-4.23-5.26-12.49-.47-18.75,3.28-4.29,7.1-8.12,10.46-12.34,3.82-4.79,7.18-9.92,10.59-15C89.09,465.14,95,456.87,105,460Z"/><path class="cls-6" d="M323.43,371.07c-11.87,2-19.77-8.65-19.88-19.59-.06-5.48,1.65-11.86,6.51-15s11.5-2.25,17-1.72c36,3.47,71.65,11.6,106.15,22.24,31.23,9.63,64.93,21.89,87.81,46.21.7.74,4,3.4,3.44,4.61-.77,1.73-6-.89-7.12-1.28-8.25-2.89-16.31-6.27-24.42-9.49a477.49,477.49,0,0,0-50.34-16.8C404,369.74,363.13,364.34,323.43,371.07Z"/><path class="cls-6" d="M639,679c28.3,47.17,145,88,168,82S633,669,639,679Z"/><path class="cls-6" d="M563,882c27.3,41.86,125,89,148,81S548,859,563,882Z"/><path class="cls-6" d="M536.94,489c7.18,20.05,14.09,40.21,20.45,60.54,6.24,20,12.51,40,16.42,60.55,2,10.31,3.92,21.1,2.8,31.62-1.08,10.1-4.61,20.16-7.53,29.85-5.72,19-11.93,37.62-20.9,55.32-1.73,3.4-7.61,15.22-12.41,8.92-3.75-4.92-3.42-15-3.71-20.66-1-20.25.43-41.26,3.1-61.34,1.39-10.44,3.89-20.7,5.14-31.15,1.21-10.05.23-19.62-1.89-29.48-4.24-19.77-11.71-38.62-18.25-57.69a334.5,334.5,0,0,1-9.76-33.09c-2.16-9.34-4.76-20.86-2.2-30.39,2.34-8.69,10.36-7.22,15.81-2.4A48.44,48.44,0,0,1,536.94,489Z"/><path class="cls-2" d="M316,316.06q2.27,0,4.55.19c11.69,1,23.07,4.6,34.61,6.57,12.36,2.11,24.92,2.87,37.32,4.71a172.93,172.93,0,0,1,33.38,8.62c22.3,8.05,44.29,17.48,65,29,17.82,9.92,34.38,22.27,45.47,39.69,11.59,18.2,18.15,39.12,23.57,59.84,6.11,23.33,11.07,47,18.44,69.94,7.44,23.22,16.19,46,25,68.72,4.29,11,8,22.61,13,33.33,3.55,7.69,12,11.09,19.14,14.49,21.87,10.34,43.61,20.85,65.69,30.74q34.23,15.32,68.66,30.17c11.23,4.86,22.5,9.64,33.73,14.5,5.59,2.42,11.12,5,16.82,7.18,3.67,1.4,7.63,2.44,8.16,7a443.86,443.86,0,0,1,2.18,69.84c-1.93,46.86-10.24,93.79-28.17,137.28-16.32,39.61-40.11,76.38-70.56,106.61a268.67,268.67,0,0,1-25.54,22.37q-6.44,4.95-13.17,9.49-3.68,2.48-7.45,4.83c-1.68,1-3.85,3-5.79,3.35a3.7,3.7,0,0,1-.73.07c-2,0-3.37-1.64-4.88-2.89-2.32-1.93-4.74-3.71-7.19-5.48q-7-5-14-10-15.09-10.55-30.5-20.63c-20.36-13.38-41-26.29-61.87-38.89-10.37-6.27-20.85-12.34-31.23-18.6-9.57-5.77-19.19-12.17-29.74-16a64.68,64.68,0,0,0-22.18-3.89,63.84,63.84,0,0,0-35.58,10.64c-4.64,3.12-8.8,7-14,9.25-4.62,2-9.69,2.89-14.64,3.76a224.18,224.18,0,0,1-36.73,3.06c-5.39.06-9.72,2.49-14.9,3.49a26.16,26.16,0,0,1-5,.46,95.83,95.83,0,0,1-11.23-1.14,21.59,21.59,0,0,0-2.54-.14c-4.86,0-9.73,1.43-14.56,1.75q-2.25.15-4.5.15a53.34,53.34,0,0,1-11.26-1.14c-4.11-.89-7.61-3.75-11.58-3.75a8,8,0,0,0-2.41.37c-5,1.57-9.35,3.49-14.67,3.84-.36,0-.73,0-1.11,0-2.92,0-6.19-.64-9.23-.64a11.62,11.62,0,0,0-5,.93c-4.65,2.19-9.05,5.3-13.7,7.62-21.26,10.66-43.51,19.36-66,27-7.71,2.63-15.66,4.9-23.71,4.9a38.17,38.17,0,0,1-9.63-1.19c-5.89-1.53-11.29-3.67-17.44-3.88-.65,0-1.29,0-1.94,0-2.62,0-5.24.14-7.86.14a41.53,41.53,0,0,1-5.64-.33c-17.12-2.34-27.66-17-33.41-32.12-4.1-10.76-6.82-22.06-10.42-33s-7.25-21.71-9.14-33.12a66.86,66.86,0,0,1-1-8.2c-.08-1.93.15-4.15-.8-5.92-2-3.79-7.73-4.24-11.31-5.79a46,46,0,0,1-21.06-19.12c-5.2-9.29-6-20-6.87-30.43-1-12-3.62-23.55-6.15-35.25s-4.24-23.68-3.07-35.71a97.86,97.86,0,0,1,3.41-18.63c1.13-3.74,3.2-7.35,3.58-11.28.48-4.95-3.86-7.33-6.63-10.74a50.3,50.3,0,0,1-8.15-13.66c-4.13-10.83-3.21-22.76-2.61-34.09,1.21-23,1.45-46.27,6.72-68.84a86.61,86.61,0,0,1,12.59-29.44c3.15-4.58,4-6.13-.28-10.17a66,66,0,0,1-9.34-11.66C6.58,577.54,8,555,13.24,534.15c5.37-21.55,17-39.4,30.13-57,13-17.46,25.3-36.3,45-46.81,17.72-9.46,38.65-13.76,58.75-13.76q2.08,0,4.15.06a67.93,67.93,0,0,1,17.12,2.28c5,1.45,9.77,3.49,14.74,5a65.74,65.74,0,0,0,15.95,2.43c2.92.13,6.48.65,9.8.65a19.16,19.16,0,0,0,4.43-.44c4.66-1.12,7.3-8.39,9.53-12.1,2.79-4.66,5.5-9.37,8-14.19,5.54-10.71,10-22,14.56-33.12,4-9.64,8.26-19.2,15.55-26.86,7.51-7.88,17.21-13.77,27.18-18,8.79-3.72,18.27-6.18,27.85-6.18m0-7c-9.73,0-20,2.26-30.57,6.73-12,5.09-22,11.69-29.52,19.61-8.08,8.47-12.63,18.56-17,29l-2.12,5.16c-3.76,9.16-7.64,18.62-12.19,27.42-2.11,4.09-4.58,8.48-7.78,13.81-.59,1-1.14,2-1.71,3.16-.84,1.63-2.57,5-3.65,5.77a13.46,13.46,0,0,1-2.59.2c-1.67,0-3.57-.17-5.41-.34-1.35-.12-2.75-.25-4.07-.31a58.55,58.55,0,0,1-14.27-2.14c-2.23-.66-4.45-1.46-6.8-2.3-2.56-.92-5.22-1.87-8-2.67a74.8,74.8,0,0,0-18.87-2.55c-1.44,0-2.91-.06-4.35-.06-22.71,0-44.16,5-62.05,14.59C66.12,434.24,53.85,451,42,467.19q-2.12,2.89-4.24,5.75c-14.87,20-25.89,37.79-31.3,59.52-7,28.12-4.84,50.24,6.62,67.64A71,71,0,0,0,23.44,613l.05.05-.73,1.07A93.13,93.13,0,0,0,9.13,645.92c-4.56,19.53-5.47,39.52-6.35,58.86-.17,3.68-.34,7.49-.54,11.21l-.1,1.85c-.6,11-1.27,23.48,3.16,35.11a56.63,56.63,0,0,0,9.26,15.58,38.1,38.1,0,0,0,2.89,3.09,14.1,14.1,0,0,1,2.22,2.51s0,0,0,.06A22.52,22.52,0,0,1,18,779.63c-.56,1.42-1.14,2.89-1.62,4.49a104.27,104.27,0,0,0-3.68,20c-1.38,14.11,1,27.65,3.19,37.87l.41,1.91c2.41,11.11,4.68,21.6,5.61,32.45l.07.88c.88,10.32,1.87,22,7.66,32.37A53.21,53.21,0,0,0,54,931.71a36.39,36.39,0,0,0,4.19,1.44,22.6,22.6,0,0,1,3.64,1.3c0,.4,0,1,0,1.39s0,1,0,1.45A72.31,72.31,0,0,0,63,946.34c1.87,11.34,5.41,22.06,8.82,32.43l.57,1.74c1.37,4.16,2.64,8.5,3.88,12.7,2,6.77,4.05,13.78,6.65,20.6,8.09,21.25,21.94,34.23,39,36.57a47.93,47.93,0,0,0,6.59.4c1.4,0,2.78,0,4.12-.07s2.52-.07,3.74-.07c.57,0,1.14,0,1.7,0,3.67.12,7.16,1.15,11.2,2.33,1.52.44,3.09.9,4.73,1.33a45.4,45.4,0,0,0,11.39,1.42c9.25,0,17.94-2.54,26-5.28,25.74-8.79,47.61-17.76,66.87-27.41,2.38-1.19,4.62-2.52,6.79-3.81,2.35-1.39,4.56-2.71,6.75-3.74a5,5,0,0,1,2-.26c1.17,0,2.54.14,4,.29a50.67,50.67,0,0,0,5.24.35c.54,0,1.07,0,1.57,0a49.1,49.1,0,0,0,13.1-3.08c1.05-.36,2.14-.73,3.21-1.07a1,1,0,0,1,.31,0,13.13,13.13,0,0,1,3.75,1.32,31.47,31.47,0,0,0,6.35,2.27,60.62,60.62,0,0,0,12.74,1.3c1.61,0,3.29-.06,5-.17,2.44-.16,4.76-.55,7-.92a45.14,45.14,0,0,1,7.09-.82,14.52,14.52,0,0,1,1.72.1c1,.12,2,.25,3,.39a66,66,0,0,0,9.08.8,33,33,0,0,0,6.36-.59,55.87,55.87,0,0,0,6.52-1.78,24.8,24.8,0,0,1,7.12-1.58,229,229,0,0,0,37.87-3.16l.48-.08c5.17-.91,10.52-1.85,15.77-4.16a55.91,55.91,0,0,0,11-6.93c1.4-1,2.71-2,4-2.93a58,58,0,0,1,51.45-6c8.21,3,16.19,7.89,23.9,12.62,1.55.95,3.09,1.89,4.63,2.82,5.08,3.06,10.25,6.12,15.25,9.08,5.25,3.1,10.68,6.31,16,9.51,22.72,13.74,42.88,26.42,61.65,38.75,11.05,7.27,21,14,30.34,20.52,4.57,3.19,9.26,6.53,13.93,9.91,2.25,1.63,4.63,3.37,6.82,5.19l.64.56c1.66,1.48,4.44,3.95,8.71,3.95a10.75,10.75,0,0,0,2.11-.21,18.49,18.49,0,0,0,7-3.49c.44-.31.85-.6,1.14-.79,2.55-1.59,5.12-3.26,7.65-5,4.55-3.07,9.1-6.35,13.52-9.74a276.63,276.63,0,0,0,26.2-22.95C767,1029.54,792,991.88,809,950.55c16.91-41,26.56-88,28.69-139.66a448,448,0,0,0-2.22-70.94c-1-8.41-8-11-11.71-12.38l-.91-.34c-3.88-1.48-7.65-3.15-11.64-4.92-1.63-.72-3.25-1.44-4.88-2.15q-8.53-3.69-17.08-7.34-8.33-3.57-16.66-7.16C747.68,694.89,725.25,685,704,675.52c-16.84-7.54-33.79-15.59-50.18-23.38l-15.38-7.29-1.76-.83c-6.08-2.84-11.82-5.51-14-10.26-3.18-6.89-5.92-14.4-8.58-21.65-1.36-3.71-2.76-7.55-4.22-11.28-8.94-23-17.57-45.5-24.89-68.32-4.91-15.32-8.83-31.32-12.62-46.79-1.83-7.47-3.72-15.19-5.71-22.78-5.42-20.68-12.13-42.48-24.44-61.83-10.32-16.21-25.56-29.57-48-42-19.4-10.8-41-20.45-66.05-29.49a178.48,178.48,0,0,0-34.73-9c-5.63-.83-11.31-1.45-16.81-2.05-6.73-.73-13.68-1.49-20.36-2.63-4.23-.72-8.42-1.67-12.85-2.68a162.93,162.93,0,0,0-22.35-4c-1.68-.14-3.41-.21-5.13-.21Z"/><path class="cls-2" d="M284.63,880.5C298,909,337,932,270,1009l4,3s40-41,39-73S284.63,880.5,284.63,880.5Z"/></g></svg>