<svg xmlns="http://www.w3.org/2000/svg" viewBox="0 0 826.21 1096.88"><defs><style>.cls-1{fill:#fc9;}.cls-2{fill:#bf9973;}.cls-3{fill:#80664d;}.cls-4{fill:none;stroke:#80664d;stroke-miterlimit:10;stroke-width:3px;}.cls-5{fill:#ffebd6;}.cls-6{fill:#ffe0c2;}.cls-7{fill:#ffd6ad;}</style></defs><title>Hand</title><g id="Frame_7" data-name="Frame 7"><path class="cls-1" d="M792.14,956c-17.84,39.95-43.14,76.86-75.45,106.49a264.13,264.13,0,0,1-25.58,20.76c-4.08,2.9-8.26,5.65-12.57,8.2-1.37.81-4.47,3.47-6.15,3.42-1.33,0-2.68-1.6-3.65-2.37-18.2-14.51-38.12-27.22-57.59-39.93s-39.35-25.07-59.33-37.12q-15.28-9.22-30.72-18.15c-5.15-3-10.32-5.87-15.49-8.78-4.92-2.78-9.84-5.93-15.34-7.44-10.66-2.92-22.54-4.24-33.33-1.56-11,2.74-19.67,7.59-28.6,14.43-8.54,6.54-19.83,7.73-30.19,9.23-5.25.76-10.51,1.42-15.8,1.76q-4.91.31-9.83.29c-2.73,0-5.76-.71-8.4.06-4.59,1.33-8.62,3.31-13.52,3.73a33.87,33.87,0,0,1-8-.24c-2.41-.37-5-1.86-7.38-1.72-4.42.26-8.92,1.94-13.45,2.26a53.91,53.91,0,0,1-16.66-1.15,33.24,33.24,0,0,1-6.53-2.25c-1.33-.64-2.47-1.7-4-1.74s-3.28,1.37-4.69,2a38.26,38.26,0,0,1-8.91,2.26,50.61,50.61,0,0,1-15.25-.12c-2.62-.38-3.29.38-5.34,1.78a73.36,73.36,0,0,1-8,4.51,504.17,504.17,0,0,1-63.82,27c-10.59,3.7-21.89,7.91-33.29,7.12-5.77-.4-10.89-2.58-16.41-4s-11.12-1-16.77-.88c-10.26.24-19.05-2.69-26.32-10.09-6.34-6.46-10.66-14.82-13.66-23.28-3.71-10.45-5.77-21.33-9.74-31.71a165.49,165.49,0,0,1-9.21-32.1c-.78-4.65-.91-9.47-1.73-14.07-.76-4.29-5.79-4.4-9.35-6-8.92-4.11-17-10-22.24-18.46-5.75-9.23-7.05-19.75-7.83-30.38a226.48,226.48,0,0,0-5.57-34.08c-2.56-11.23-4.78-22.47-4.14-34a130.9,130.9,0,0,1,6.34-33c.66-2,1.71-3.62.56-5.59s-3.52-3.64-5-5.36a53.49,53.49,0,0,1-8.92-13.89c-4-9.68-3.47-20.15-3.16-30.4a526.73,526.73,0,0,1,6.6-71.31c.85-5,1.76-10.22,3.77-15a152.7,152.7,0,0,1,8.2-15.48c1-1.8,3.74-4.85,4-6.83.22-1.51-.76-1.94-1.9-3.11A89,89,0,0,1,13.19,598c-6.53-9.36-10.55-19.82-10.85-31.3-.3-11.31,1.87-23.05,4.46-34a96.51,96.51,0,0,1,12.75-30.16Q29,487.42,39.55,473c12.83-17.59,25.73-35.27,45.94-44.75,18.56-8.71,39.76-11.43,60.09-11.4a70,70,0,0,1,15.07,1.38c5.69,1.26,10.95,3.78,16.41,5.73,10,3.58,22.41,2.64,32.91,2.51,3.22,0,6.45-.16,9.67-.17,2.14,0,5.54.68,7.48-.28,2.78-1.38,3-7.33,3.85-10.32,2.82-10.53,4.42-22.13,9.78-31.76,9.44-17,28.63-30.27,46.93-35.84,11.27-3.43,22.09-1.55,33.57-.83,12.08.76,24.16.49,36.25.19s24-.55,35.88,1.13c11.6,1.64,23,4.59,34.34,7.43,21.34,5.33,42.66,11.77,62.65,21,19.49,9,34.7,22.13,45.23,41,10.91,19.53,16.34,41.39,21.31,63,10.75,46.77,27.45,91.3,44.84,135.94l5.71,14.64c1.53,3.92,2.22,8.44,5.82,10.89,9.45,6.45,20.35,11.18,30.63,16.14,21.3,10.28,42.9,19.93,64.52,29.53q33.25,14.76,66.69,29.12,16.36,7,32.76,14c2.27,1,4.52,2,6.83,2.86,1.72.63,4.29,1,5.63,2.31,1.5,1.49,1.25,3.8,1.45,5.82.33,3.22.67,6.45.94,9.68A460.23,460.23,0,0,1,813,892.86,344.5,344.5,0,0,1,792.14,956Z"/><path class="cls-2" d="M306.58,740.68c-4.6,8.34-10.36,17-18.88,21.74-6.12,3.42-13.61,5.26-20.34,7.11-19.89,5.47-40.3,9.18-60.63,12.51-24.17,4-48.49,6.92-72.82,9.7-16,1.83-32.19,3.68-48.35,3.73-17.15.06-33.76-2.67-48.86-11.32,12.9,2.76,25.76,4.88,39,5.23,24,.63,48.15-2.49,71.85-6.1,32.06-4.88,64.44-9.87,96.16-16.72,20.31-4.39,46.46-11,58.8-29.57,2.49-3.75,3.66-9,4.84-13.37a92,92,0,0,0,2.87-14.85,90.86,90.86,0,0,0-2.27-30.16c-4.83-20.29-15.72-37-26.35-54.56,14.54,14.88,27,32.24,32.68,52.48A85.1,85.1,0,0,1,306.58,740.68Z"/><path class="cls-3" d="M282.17,764.75c-16.19,6.94-33.6,10.4-50.79,13.88q-27.37,5.55-55,9.38-27.94,3.82-56,6.67c-18.19,1.82-36.7,3.37-54.86.47a79.55,79.55,0,0,1-26.92-9.28c-7.31-4.18-16.18-10.19-21.41-16.87,5.35,6.14,14,11.49,21.09,15.36a80,80,0,0,0,22.54,7.81c16.23,3.24,33,2.42,49.32.79,36.91-3.68,73.91-8.24,110.5-14.39C241.28,775.09,262.31,771.72,282.17,764.75Z"/><path class="cls-1" d="M230,419.13c.17-.65.36-1.34.56-2.07C230.43,417.75,230.24,418.44,230,419.13Z"/><path class="cls-1" d="M230.61,417.06c.27-1,.54-2,.79-2.93C231.13,415.17,230.86,416.14,230.61,417.06Z"/><path class="cls-1" d="M237.14,392a34.91,34.91,0,0,1,5.17-10.8c-3.18,4.71-5,10.11-6.37,15.56Z"/><path class="cls-1" d="M324.22,347.45l2.07.09Q325.25,347.51,324.22,347.45Z"/><path class="cls-1" d="M536.5,419.78q1.2,2.19,2.29,4.4C538,422.7,537.29,421.24,536.5,419.78Z"/><path class="cls-1" d="M567.39,522.12c5.85,18.66,15.73,45.69,24.62,69.27C583.35,568.49,574.62,545.52,567.39,522.12Z"/><path class="cls-1" d="M607.57,631.92q-1.26-3.23-2.51-6.45Z"/><path class="cls-3" d="M206,487.14c-29.67-13.49-58.66-28.28-91.82-30.14C146.85,453.82,179.32,469.74,206,487.14Z"/><path class="cls-3" d="M173.14,439c12.05,9.79,21.07,26.37,21.42,42C189.3,465.87,181.88,452.38,173.14,439Z"/><path class="cls-2" d="M281.88,527c-5.45-13.63-10.82-28.23-21.84-38.47C244.39,474,223.36,477.93,205.88,487c21.18-11,49.6-19.34,68.72-.1,12.35,12.43,17.74,31.38,22.25,47.85,4.79,17.48,7.61,37.13,1.63,54.68-5.37,15.77-11.27,31.4-24.48,42.42-14.83,12.38-34.07,12.63-52.4,11.1-21.29-1.78-42.34-5.28-63.47-8.28-11.71-1.66-23.49-3.29-35.31-3.88-12-.6-23.93,1.1-35.92,1.15-20.08.09-41.19-3.71-57.43-16.26.37-.45,14.57,5,16.39,5.49A125.39,125.39,0,0,0,64,624.35c12.59,1.31,25.27,1.06,37.9.63s25-1,37.52-.6c13.87.42,27.71,1.51,41.57,2.2,11,.55,22,.33,32.91,1.43,9.41,1,19,1.93,28.33.07,20.18-4,32.35-21.14,38.55-39.59C287.21,569.46,289.5,546.05,281.88,527Z"/><path class="cls-3" d="M257.14,641c-14.73,4.5-30.49,3.45-45.61,2-16.66-1.58-33.2-4-49.77-6.37-16-2.25-32.11-4.41-48.31-4.44s-31.92,2-48-1c-15.08-2.74-30.87-8.49-41.28-20.24,19,18.78,48.77,21.08,74,19.15A242.62,242.62,0,0,1,149.36,632c17.55,2.33,35,5.38,52.53,7.79C220.07,642.28,239,645.29,257.14,641Z"/><path class="cls-2" d="M304.59,789.21c-2-8.41-7.14-15.82-12.32-22.56,1.84,5.34,4.24,10.47,5.92,15.86a55.59,55.59,0,0,1,2.07,18A318.43,318.43,0,0,1,297.89,836c-.71,5.27-1.11,11.91-3.52,16.69a28.73,28.73,0,0,1-6.3,7.64c-4.85,4.45-10.79,7.45-16.82,10C254,877.5,236,882.56,219.21,891c-11,5.49-21.54,11.64-32.72,16.74a319.51,319.51,0,0,1-30.33,12c-19.71,6.66-40,11.15-60.42,15,15.79,1,30.55-1,45.89-4.6a265,265,0,0,0,52-17.72c9.1-4.3,17.71-9.52,26.88-13.69,9.75-4.43,19.75-8.26,29.7-12.21,9-3.57,18-7.18,26.39-12A49.47,49.47,0,0,0,295.78,855c5.26-9.27,7.7-19.91,9-30.4C306.17,813.1,307.25,800.59,304.59,789.21Z"/><path class="cls-3" d="M61.14,930c7,1.88,14.2,2.36,21.34,3,7.66.66,15.36,1.22,23.06,1.14,14.42-.15,28.57-3.35,42.44-7a276.77,276.77,0,0,0,41.55-14.37c13.15-5.86,25.59-13.2,39-18.61,15.1-6.12,30.71-11,45.41-18.07-12.66,7.29-26.43,12.31-39.84,18S208.12,907,195,913.32a242.69,242.69,0,0,1-40.81,15c-14.27,4-28.88,7.55-43.77,7.83a175.33,175.33,0,0,1-24.88-1.65C77.36,933.53,69,932.56,61.14,930Z"/><path class="cls-2" d="M295.9,963.14c-4.5,9.76-9.19,19.64-15.43,28.43A66.93,66.93,0,0,1,264,1007.5c-8.71,6.2-18.43,10.62-28.22,14.94Q214.17,1032,192,1040.08c-13.13,4.81-27.27,10.7-41.48,8-8.17-1.57-14.7-4.85-23.29-4.38-10.95.6-20.6-.33-29.26-7.95,5.68,1.54,11.34,3.66,17.22,4.31,9,1,18.11.33,27.11.5,6.91.13,14.13,2.14,21,1.29a67,67,0,0,0,13.13-3.54c9.56-3.26,19-7,28.4-10.59,23.69-9.14,46.87-19.34,66.53-35.75C280.9,984,290.28,974.41,295.9,963.14Z"/><path class="cls-2" d="M611.64,664.5s-35,76-76,111C535.64,775.5,598.64,734.5,611.64,664.5Z"/><path class="cls-2" d="M440.64,985.29c-6.91,3.14-11.58,9.74-18.5,12.71-5.3,2.28-11.45,3.11-17.09,4.07a201.66,201.66,0,0,1-27.43,3.11c-4.45.14-9.8-1-14,.49-7.21,2.53-14.21,4.36-21.9,3-1.64-.29-3.24-1.07-4.86-1.33-2.59-.42-5.46.77-8.15,1.2-11.16,1.8-21.65,1-32-3.51-.47-.21-1.14-1-1.64-1-1.71-.22-5.54,2.37-7.44,2.93a49.3,49.3,0,0,1-7.07,1.54,48.49,48.49,0,0,1-17.49-.47c16.73-10,25.34-28.64,33.16-45.71,4.5-9.82,7.42-19,6.26-30-1.14-10.78-5.24-21.1-10.41-30.55A139.44,139.44,0,0,0,273.88,876c7.21-3.84,14.17-8.31,18.31-15.55,6.06,18,12.29,35.72,22.27,52a145.71,145.71,0,0,0,62.17,55.69C396.72,977.65,418.61,982.88,440.64,985.29Z"/><path class="cls-2" d="M663.14,693s3,63-36,172C627.14,865,680.14,747,663.14,693Z"/><path class="cls-2" d="M632.14,679c4.56,19.42,2.76,41-2.19,60.17A111.6,111.6,0,0,1,611.14,779C626.54,747.91,633.08,713.61,632.14,679Z"/><path class="cls-2" d="M314.14,742c13.46,22.84,36.85,41.53,59.53,54.62,13.59,7.84,28.23,13.86,43.67,16.83,16.69,3.21,33.28,2.29,49.8-1.46-29.16,14.32-63.31,9.82-91.29-5a151.32,151.32,0,0,1-36.08-26.87C329.33,769.62,318.22,756.5,314.14,742Z"/><path class="cls-2" d="M531.14,856c-13.06,31.65-28.65,63.95-29,99-3.39-17.29.82-36.81,6.37-53.24A190.88,190.88,0,0,1,531.14,856Z"/><path class="cls-2" d="M29.14,714c-1,15.63-3.37,31.45,0,47C22.66,747.15,25,728.16,29.14,714Z"/><path class="cls-2" d="M55.14,720c-1,15.37-2.2,31.7,0,47-2.7-7.31-2.93-15.78-2.89-23.49A88.3,88.3,0,0,1,55.14,720Z"/><path class="cls-2" d="M45.14,711c-1.58,11.17-2,22.53-2.42,33.79-.32,8-.93,16.2-.58,24.21-2.14-9.28-1.64-19.69-1.21-29.14C41.36,730.23,42.17,720.22,45.14,711Z"/><path class="cls-2" d="M30.14,529c-1.77,21-4.44,41.81-4,63C22.45,571.53,25,549,30.14,529Z"/><path class="cls-2" d="M51.14,529c-1.73,11.44-3.32,22.9-4.47,34.42S44.23,586.55,45.14,598c-2.44-11.28-1.6-23.39-.46-34.79A190.64,190.64,0,0,1,51.14,529Z"/><path class="cls-2" d="M41.14,856a161.37,161.37,0,0,0,1.52,24.75c1.3,8.17,4.41,16.09,5.48,24.25-2.86-8-6.11-15.47-7.46-23.94A71.72,71.72,0,0,1,41.14,856Z"/><path class="cls-2" d="M53.14,860c1,16.57,4.62,32.79,8,49C54.86,894.23,50.92,876,53.14,860Z"/><path class="cls-2" d="M96.14,983c4.69,15,7.53,31,15,45-5.17-5.91-8.11-14.13-10.4-21.52A110.07,110.07,0,0,1,96.14,983Z"/><path class="cls-2" d="M111.14,983a229.8,229.8,0,0,1,7.84,22.27c1.76,5.54,3.15,11.73,6.16,16.73-4.6-4.5-6.77-12.18-8.68-18.1A154.72,154.72,0,0,1,111.14,983Z"/><path class="cls-4" d="M821.62,740.76c-.75-6.44-8.66-7.23-13.73-9.38q-11.88-5-23.73-10.14-24.39-10.47-48.72-21.1c-32.17-14.08-64.36-28.14-95.92-43.56-7.54-3.68-15-7.44-22.31-11.58-2.66-1.51-5.37-2.84-6.93-5.6-1.79-3.18-2.59-7.1-3.9-10.5-6.28-16.26-12.89-32.42-18.81-48.82-11.11-30.75-10.27-63.9-15.19-95.85-1.29-8.35-3.32-16.49-5.28-24.7s-3.28-16.84-5.23-25.2c-3.55-15.24-10.91-28.92-20-41.53A505.55,505.55,0,0,0,510.26,353c-11-12.43-22.23-25-35.14-35.53-12.51-10.22-26.8-17.9-40.36-26.58-6.87-4.4-13.63-9-20.06-14-6.2-4.86-12.19-9.91-19.53-13-14-5.87-29.94-6.08-44.69-3.59-7.74,1.3-15.52,3.44-22.22,7.64-6.36,4-11.71,9.39-17.15,14.49C299,293.7,287,304.94,273.06,314s-27.78,18.85-41.79,28.12c-6.82,4.51-13.76,8.92-20,14.21-5.65,4.78-11.15,9.61-17.06,14.06-9.9,7.46-20.63,16-22.83,28.93-1.35,7.93.19,16.29,3.11,23.69-6.9-2.69-13.88-5.15-21.3-5.83-7.73-.71-15.58-.22-23.3.38-15,1.15-30.11,4.08-43.8,10.47C59.4,440.49,42.91,467.59,26.9,491.1c-8.18,12-15.43,24.15-19.3,38.26-3.81,13.9-6.73,28.87-4.8,43.31,1.81,13.57,9.3,26,18.82,35.63,2.11,2.13,3.48,2.68,2.4,5.6-1.43,3.85-4.41,7.6-6.38,11.23-3.34,6.16-6.27,12.49-7.8,19.36C6.38,660,5.19,676,3.89,691.82,2.63,707,.79,722.39,2.19,737.64a45.75,45.75,0,0,0,6.2,19.9,57.6,57.6,0,0,0,6.41,8.57c1.95,2.15,4.87,4.05,4.94,7.23.07,3-1.9,6.24-2.72,9.08-1.08,3.74-1.88,7.59-2.62,11.4a102.63,102.63,0,0,0-2.09,24.29c.71,15.17,5.82,29.61,8.23,44.51,2.25,13.93.93,28.84,7.38,41.81,5.7,11.48,16.34,18.29,27.77,23.23,2.24,1,4.71,1.48,5.59,3.93,1.11,3.06.74,7.3,1.24,10.55a160.67,160.67,0,0,0,4.74,22.16c2.19,7.28,5.31,14.23,7.76,21.42,2.51,7.37,4,15,6.4,22.45,3.91,12,10.36,24.43,21.47,31.14,6.13,3.7,13,4.51,20,4.41a73.7,73.7,0,0,1,21.93,2.74c14.94,4.28,29.58,0,43.77-4.93,15.24-5.34,30.11-11.7,44.92-18.13,6.83-3,13.72-6,20.24-9.55,3-1.67,6.15-4.59,9.53-5.49,3.14-.83,6.92.63,10.14.62a48.61,48.61,0,0,0,10.5-1.14c3.3-.74,6.95-3.23,10.23-3.43,3-.18,6.48,2.5,9.38,3.33a47.23,47.23,0,0,0,11.09,1.71,66.82,66.82,0,0,0,10.55-.46c3.41-.4,6.9-1.9,10.32-1.91,3.15,0,6.16,1.52,9.27,1.91a31.56,31.56,0,0,0,11.59-.92c3-.79,5.77-2.51,8.86-3,3.87-.63,8.12-.13,12-.16a161.77,161.77,0,0,0,23.9-2.17c7.05-1.11,14.38-2.18,20.9-5.23,6-2.79,10.78-7.39,16.43-10.71,12.5-7.35,25.75-9.74,40.06-8.06,15.31,1.8,27.33,9.85,40.42,17.34,27.94,16,55.42,32.82,82.5,50.22q20.31,13.05,40.21,26.74,9.7,6.7,19.24,13.63c2.35,1.71,4.6,3.42,6.79,5.33s3.68,3.37,6.52,2.08c5.93-2.69,11.69-7.17,17-10.93,6.3-4.47,12.37-9.27,18.24-14.29a290.63,290.63,0,0,0,32.11-32.24,329.18,329.18,0,0,0,47.48-74c25.53-54.46,35.4-115.15,35.13-175A419.83,419.83,0,0,0,821.62,740.76Z"/><path class="cls-1" d="M606.69,660.16C594,627.64,588,592.91,581.81,558.69c-3.23-17.94-5-36-6.89-54.16-1-9.08-2.05-18.16-3.69-27.15-1.57-8.56-4.07-16.88-5.84-25.4-3.31-16-6.12-31.31-14.48-45.59s-18.9-27.56-29.33-40.23A506.72,506.72,0,0,0,486.74,328C474.23,315.65,460,306.49,445,297.47c-7.7-4.62-15.27-9.42-22.57-14.66-6.43-4.61-12.28-10.11-19-14.27-13.82-8.55-31.64-9.94-47.44-8-7.87,1-15.89,2.73-23,6.26-7.55,3.73-13.6,9.81-19.69,15.5-11.53,10.77-22.93,21.84-36.27,30.37-14.38,9.19-28.37,18.83-42.56,28.34-7.18,4.81-14.62,9.39-21.42,14.75-6.62,5.22-12.71,11-19.46,16.09-6,4.52-12.07,9.13-16.35,15.39s-5.67,13.9-5.06,21.52a56.19,56.19,0,0,0,19.31,38.1c10.58,9.39,24.24,15.57,38.06,18.31a303.47,303.47,0,0,0,52,5.44,219.53,219.53,0,0,0,26.73-.94c8.07-.81,16.95-1.69,24.65-4.38,7.43-2.6,14.23-7.13,21.16-10.76,5.24-2.74,10.51-5.39,15.64-8.34,5.93-3.4,12.7-7,17.29-12.15-7.14,8-17.21,13.83-26.05,19.75-2.48,1.66-2.09.9-1.84,3a33.64,33.64,0,0,0,1.48,5.08q5.8,19.87,11.62,39.73l5.8,19.8c.91,3.13,3.18,7.55,3.17,10.84,0,3.12-3.92,8.05-5.35,10.93-3.78,7.57-7.38,15.22-10.92,22.91-7.38,16.06-16,32.69-20.49,49.86"/><path class="cls-3" d="M225.6,463.38c6.3,2,14,2.15,20.51,3,7.44,1,14.91,1.81,22.4,2.29a331.37,331.37,0,0,1-43.23-6c-.13-.06.52,1-.15.3Q225.05,463.39,225.6,463.38Z"/><path class="cls-3" d="M225.08,463.26c-27.89-7-59.67-32.37-53.58-64.72,3.22-17.14,20.57-25.52,32.63-35.91A207.37,207.37,0,0,1,224.3,346.8c7.87-5.26,15.75-10.51,23.56-15.86,16.67-11.43,33-23.36,48.18-36.77-22.59,30.19-60.74,42.42-87.86,67.55C197,372,180.11,379.19,174.4,394.23s1.61,33.13,11.41,44.84a68.1,68.1,0,0,0,21.52,16.87,69.37,69.37,0,0,0,11,4.54C219.62,460.87,225,461.74,225.08,463.26Z"/><path class="cls-3" d="M375.33,442.84c22.55-2,43.55-11.38,58.84-28.24,10.22-11.27,17.18-24.78,22.76-38.82-10.36,22-29,41.52-49.67,54A116.21,116.21,0,0,1,392,437.55q-4.44,1.86-9,3.34C380.71,441.64,377.7,443,375.33,442.84Z"/><path class="cls-3" d="M374.66,442c32.17-11.67,61.66-42,62.42-77.94a139,139,0,0,1-11.92,28.61,104.79,104.79,0,0,1-15.66,22.05,67.36,67.36,0,0,1-10.93,9.4c-2.94,2-6.4,3.25-9.24,5.27C384.16,433.14,379.5,437.9,374.66,442Z"/><path class="cls-3" d="M368.46,447.8c28.85,9,56.72-7,78.24-25A172.86,172.86,0,0,1,419.17,438,127.59,127.59,0,0,1,393,446.73a77.13,77.13,0,0,1-13.19,1.62,58,58,0,0,1-6.48-.15c-1.23-.1-2.47-.37-3.7-.44C369.12,447.73,367.62,447,368.46,447.8Z"/><path class="cls-3" d="M358.27,448.86s43.38,30.52,93.28,6.87C451.55,455.74,395,468.51,358.27,448.86Z"/><path class="cls-5" d="M253.67,358.37c-24.2.3-45.63,14.21-62.7,30.2,6,3.58,12.05,6.91,17.84,10.78,7,4.68,13.67,9.47,21.35,13a128.84,128.84,0,0,0,41.62,11.06c2.56.25,5.6.82,8.16.53,1.92-.22,2.46-.6,4-2q2.81-2.58,5.5-5.28,4.86-4.86,9.35-10.08,2-2.32,3.92-4.7c1.36-1.68,4-4,4.7-6.06,1.58-4.63-1.41-12-3.78-15.84a35.63,35.63,0,0,0-11.67-11.25C280.74,361.73,266.79,358.64,253.67,358.37Z"/><path class="cls-6" d="M316,396.42c2.23-5.13-1.8-12-4.7-16.13a46.7,46.7,0,0,0-14.53-13c-8.86-5.24-18.5-9.23-28.72-10.77-26.56-4-53.79,8-76.46,20.72-3.38,1.9-8.81,4.8-4.6,8.65a10,10,0,0,0,2.92,2.06c1.51.48,1.24.48,2.75-.91s3-2.74,4.6-4.07C203,378,209,373.08,215.75,369.59c12.4-6.43,26-11.85,40.25-11.14a81.66,81.66,0,0,1,29.36,6.8c9.47,4.27,18.59,11.34,21.29,21.84.6,2.34,1.4,5.83.78,8.23-.89,3.43-5.34,7.39-7.65,10.12A183.24,183.24,0,0,1,281.67,424c4.08.05,9.19.34,13-1.48,3.14-1.51,5.74-4.57,8-7.12C307.62,409.84,313,403.32,316,396.42Z"/><path class="cls-2" d="M377.36,441.26c-24.56,19.46-54.75,27.52-85.77,28.06a295.13,295.13,0,0,1-56.72-4.37c-15.72-2.82-31.07-8.16-43.19-19-14.22-12.67-26.64-36.87-16.53-55.48.22,16.6,5.41,32.3,18.89,42.77a61,61,0,0,0,12.92,7.4,193.49,193.49,0,0,0,40.22,12.51c41,8.29,85.19,4,120.3-20.25,27.17-18.8,45.94-47.1,58.4-77.29-1.24,18.18-9,35.58-18.66,50.81C399.14,419.26,389.29,431.8,377.36,441.26Z"/><path class="cls-3" d="M405.28,411c-10.2,15.41-23,29.33-38.48,39.51-17,11.16-36.94,16.87-57,19.06-22.38,2.44-45.3,1-67.55-2.14-18.66-2.62-37-8-51.29-20.94s-26.28-37.3-15.77-56c-10.55,20.62,4.91,46.12,21.53,58.3,18.88,13.84,42.76,16.15,65.36,18,25.08,2,50.81,1.81,75-5.79a120.36,120.36,0,0,0,54.39-34.94c17.15-19.26,31.81-44.38,34.43-70.43C424.78,375.62,416.18,394.5,405.28,411Z"/><path class="cls-7" d="M30.14,802c-6.39,16-4.81,33.63,5.47,47.58,4.82,6.55,10,12.06,18.43,11.6,9.81-.53,19.64-3.66,28.94-6.6,12.88-4.07,25.52-8.89,38-14.06,12.27-5.08,24.41-10.53,36.26-16.53,8.07-4.09,16.68-8.26,23.73-14,1.56-1.28,3.38-2.61,1-3.84-3-1.56-8.57-.46-11.71-.28-15.56.93-31,2.93-46.59,4.09-20.86,1.55-41.85,2.15-62.49-1.86-7.59-1.47-15-3.63-22.4-5.73C37.21,801.91,31.15,799.46,30.14,802Z"/><path class="cls-7" d="M48.14,651c-14.53,6.46-25.42,22.09-25.76,38.11-.11,5,.78,12.72,4.94,16.23,2.41,2,6.07,2.11,9.06,2,11.69-.53,23.44-5.16,34.29-9.14,14.55-5.34,28.84-11.38,43.18-17.26,13.24-5.43,26.52-11,40.22-15.18,1.6-.49,13.14-2.26,7.51-5.09-5.95-3-14.1-3.36-20.56-4.27-11.39-1.61-22.84-2.76-34.3-3.74-12.63-1.08-25.29-1.95-38-2.34-4.46-.14-8.92-.24-13.38-.1C53.12,650.24,50.25,650.06,48.14,651Z"/><path class="cls-7" d="M97.64,957.5c-4.15-1.19-13.26-3.88-16.21,1.11-2.26,3.82.91,9.35,2.93,12.55C89.3,979,97.92,988.28,108,987.4c12.58-1.1,25.21-5.14,37.22-8.81a399.07,399.07,0,0,0,50.93-19.19c13.68-6.33,28.64-13.63,39.25-24.64,3.39-3.52,4.44-6.94-1.5-7.11-8.6-.24-17.67,2.6-25.92,4.67-13,3.28-26,7-38.92,10.66s-26.1,7.36-39.29,10.5c-9.06,2.15-18.79,4.8-28.19,4.51A16.05,16.05,0,0,1,97.64,957.5Z"/><path class="cls-7" d="M98.14,460c9,2.81,18.22,5,27.13,8.07,5.84,2,11.63,4.69,15.57,9.64,4.76,6,6.41,14,7.56,21.34s3.57,17.81-3.75,22.72c-6.79,4.56-17.13,3.24-24.78,2.69-12.41-.89-24.74-2.11-37.18-2.58-8.7-.33-19.87,0-27.75-4.38-5.61-3.13-4.57-8.48-1.71-13.32,3-5.11,7.29-9.29,11.08-13.8a195.85,195.85,0,0,0,13-17.91C82.39,464.78,87.77,456.76,98.14,460Z"/><path class="cls-7" d="M344,305.87c-17.08-4.07-10.42-23.56,1.09-30.17,6.19-3.55,11.4-2,17.75-.16s13,3.69,19.35,6c14.17,5.06,29.66,12.83,35.91,27.44a35,35,0,0,1,2.71,12c.1,2,.44,4.77-.95,6.44-2.31,2.78-7.41,1-10.22.22-8.68-2.52-17-6.25-25.49-9.38A349.33,349.33,0,0,0,344,305.87Z"/><path class="cls-7" d="M632.14,679c28.3,47.17,145,88,168,82S626.14,669,632.14,679Z"/><path class="cls-7" d="M556.14,882c27.3,41.86,125,89,148,81S541.14,859,556.14,882Z"/><path class="cls-7" d="M546.32,487.65c4.83,21.84,9.57,43.69,13.74,65.66,4.75,25.08,9.78,50.77,10.34,76.36.34,15.86-4.84,31.1-9.5,46.09-5.48,17.65-11.19,36.07-20.28,52.26-1.53,2.73-5,10-9.12,9.56-4.66-.48-5.17-10.24-5.52-13.39-1.68-14.87-.86-30.18-.09-45.08a316.93,316.93,0,0,1,3.81-36.73c2.46-14.44,6-28.18,5.27-43-1.66-31.52-11.44-62-15.56-93.15-1.43-10.84-2.78-22.4-.91-33.29.68-3.93,2.05-9.92,6.54-11.2,8.54-2.44,16,11.67,18.59,17.6A46.09,46.09,0,0,1,546.32,487.65Z"/></g></svg>