<svg xmlns="http://www.w3.org/2000/svg" viewBox="0 0 840 1096.88"><defs><style>.cls-1{fill:#fc9;}.cls-2{fill:#80664d;}.cls-3{fill:#bf9973;}.cls-4{fill:#ffd6ad;}</style></defs><title>Hand</title><g id="Frame_11" data-name="Frame 11"><path class="cls-1" d="M828.51,740.76c-.42-3.59-2.16-4.77-5.32-6-5.13-1.93-10.13-4.09-15.15-6.28-10.68-4.65-21.42-9.18-32.11-13.8q-31.84-13.74-63.55-27.8c-21.11-9.39-42.21-18.82-63-28.91-8.89-4.31-18.23-8.38-26.74-13.42a14.4,14.4,0,0,1-7-8.66c-1.67-4.9-3.41-9.73-5.3-14.56-8.21-21.05-15.82-42.26-23.63-63.46-1.64-4.46-3.14-9.22-6.16-13A137.65,137.65,0,0,0,570,534a139.59,139.59,0,0,0-24.78-19.76c-9.09-5.62-18.94-9.64-28.64-14-10.21-4.64-20-10.19-30-15.22-19.66-9.89-39.82-18.89-60.84-25.49C404,452.62,381.9,446.44,360,440c-21.65-6.33-43.52-12.92-66-15.26-22.95-2.38-45.94.44-68.88,1.44-11.11.48-22.67.94-33.72-.6-10.27-1.43-19.42-6.8-29.82-8.08-20.11-2.47-43.07.63-62,7.75-18.39,6.91-31.93,19.8-43.74,35.14s-24,31.17-33,48.31-14.08,37.7-13.32,57a59,59,0,0,0,7.76,27.84,80.88,80.88,0,0,0,8.46,11.64c2.74,3.17,7.39,5.18,4.7,9.62-5.24,8.65-10.59,17.61-13.17,27.48-2.78,10.61-4,21.8-5.16,32.68-1.17,11.07-1.9,22.18-2.45,33.3-.54,10.88-1.81,22.08-.16,32.91,1.46,9.63,6.26,17.42,12.43,24.77,2.94,3.5,5.37,5.52,4,10.33s-3,9.55-4.05,14.52a105,105,0,0,0-2,33.9c1.25,11,4.44,21.67,6.6,32.51,4,19.89.66,41.79,15.78,57.69a49.08,49.08,0,0,0,10.91,8.47c3.92,2.29,8.53,3.23,12.35,5.45s3.49,7.46,3.88,11.45a126.28,126.28,0,0,0,2.84,16.75c2.46,10.37,6.78,20.05,10.12,30.14,2.71,8.2,4.46,16.67,7.45,24.78,6.14,16.67,17.23,31,36.32,31.46,4.59.11,9.2-.22,13.78.19,5.67.51,10.77,2.86,16.27,4.12,10.78,2.48,21.73-.19,32-3.54,20.68-6.73,41-15.53,60.76-24.5a158.88,158.88,0,0,0,14.49-7.26c4.19-2.44,5.91-4.89,11-4a43.27,43.27,0,0,0,15-.25c4.1-.75,9.48-4.39,13.58-3.41,5,1.19,9.24,3.77,14.5,4.42a53,53,0,0,0,15.93-.4c2.31-.43,4.57-1.14,6.92-1.38,2.78-.29,5,.56,7.69,1.12a35.23,35.23,0,0,0,16-.6c2.18-.57,4.15-1.6,6.28-2.27a24.25,24.25,0,0,1,7.81-.69,142.87,142.87,0,0,0,16.61-.46c9.94-1,20.57-2.05,30.09-5.22,9.19-3.06,16.11-10.19,24.71-14.49a59.49,59.49,0,0,1,29.85-6.54,69.69,69.69,0,0,1,30.22,8.21c9.26,5.07,18.24,10.76,27.37,16.07,38.75,22.54,76.8,46.38,113.62,71.95,8.88,6.16,17.37,12.92,26.2,19.11,3.43,2.4,6-.6,9.24-2.52,4.5-2.68,8.88-5.58,13.15-8.62a274.17,274.17,0,0,0,46.12-42.16,330,330,0,0,0,61.92-104.58c15.05-41.06,22-84.76,23.54-128.37A441.84,441.84,0,0,0,828.51,740.76Z"/><path class="cls-2" d="M394.46,143.37a33.94,33.94,0,0,1,20.36,6.42c10,7.34,16.86,19.07,24.16,28.89,16.38,22,29.26,45.9,44,69a251.1,251.1,0,0,0,23.44,30.77c8.24,9.34,16.74,18.6,23.36,29.2,14.08,22.59,22.89,49.42,30,74.91,7.64,27.49,12.9,55.62,16.79,83.88,2,14.32,3.59,28.68,4.94,43.07,1.3,13.85,1.37,28,3.28,41.8.92,6.61,3.61,13,5.85,19.28,2.42,6.74,5,13.43,7.61,20.09,5.15,13.08,10.54,26.07,15.49,39.23,2,5.31,3.43,10.27,8.22,13.71,5.25,3.77,11.43,6.51,17.18,9.39,12.87,6.44,25.9,12.56,39,18.55,26.4,12.06,53,23.75,79.59,35.32q19.92,8.66,39.89,17.21c6.46,2.76,12.84,5.72,19.34,8.37,4.29,1.75,10.9,2.75,11.56,8.33,3.25,27.78,3.33,55.89,1.41,83.77C826.24,877.91,813.41,931,788.12,978.4c-22.83,42.77-54.93,81.24-95.34,108.41-3.63,2.44-7.62,6.75-11.93,7.79a5.19,5.19,0,0,1-1.22.15c-2.12,0-3.52-1.49-5.18-3a80.61,80.61,0,0,0-7.17-5.49q-17.61-12.63-35.59-24.69c-23.93-16-48.32-31.27-73-46.12-12.06-7.27-24.25-14.33-36.33-21.57-10.65-6.39-21.63-12.59-34.08-14.55a73,73,0,0,0-11.33-.9,61.66,61.66,0,0,0-26.37,5.69c-6,2.82-11.05,6.95-16.53,10.59s-11.54,5.42-17.9,6.65a189.61,189.61,0,0,1-20.91,2.83c-7.09.57-14.47,0-21.49.93-5.82.81-11.11,3.84-17.06,3.84l-.72,0c-3.46-.15-6.81-1.15-10.24-1.53a18,18,0,0,0-1.94-.1,44.31,44.31,0,0,0-7.71,1,71.65,71.65,0,0,1-12.32,1.21,42.7,42.7,0,0,1-7.8-.68,50.56,50.56,0,0,1-9-2.7c-1.95-.76-3.58-1.63-5.43-1.63a6,6,0,0,0-2.11.39c-6.09,2.24-11.55,4-18.18,4h-.1c-2.87,0-5.71-.78-8.55-.78h-.44c-3,.09-5,1.85-7.37,3.42-11.47,7.58-25.32,12.81-38,18.07s-25.53,10.07-38.52,14.47c-6.62,2.24-13.44,4.23-20.46,4.61q-.91.05-1.81,0c-6.4,0-12.22-1.84-18.4-3.54-11.71-3.23-24.15.55-35.43-4.7-16.48-7.68-22.4-27.12-27.07-43.21-3.19-11-6.92-21.74-10.39-32.64A142.65,142.65,0,0,1,69.86,945a69.67,69.67,0,0,1-1.15-10.27c0-2.21,0-4-2-5.4s-4.83-1.61-7-2.55a57.67,57.67,0,0,1-7.63-4A49.28,49.28,0,0,1,40,912.23c-8.12-9.93-10.1-22.24-11.23-34.66-1.27-13.94-4.07-27.19-6.84-40.88-2.7-13.33-3.54-26.59-1.37-40.07a101.65,101.65,0,0,1,5-19.25c1.22-3.3,1.44-5.61-1-8.38-1.68-1.92-3.54-3.59-5.14-5.61-8.36-10.6-11-22.49-10.72-35.79C9,713.73,9.89,699.76,11,685.94c1.11-13.52,2.31-27.38,5.51-40.6a79.79,79.79,0,0,1,7-18.63c1.6-3,3.35-6,5.08-8.95,1-1.69,3.13-4.12,2.62-6.21s-3.86-4.48-5.31-6.13a76,76,0,0,1-5.52-7,63.69,63.69,0,0,1-7.91-15.45c-8.06-23.45-1.32-51.18,9.58-72.58,6.14-12,14.19-23.23,22.08-34.18,7.65-10.61,15.31-21.59,24.43-31C85.69,427.5,110,419.51,134,417.3c4.83-.44,9.78-.77,14.73-.77a73.88,73.88,0,0,1,23.19,3.27c6.39,2.11,12.55,4.69,19.23,5.81a96.47,96.47,0,0,0,15.86,1.1q1.84,0,3.69,0c20.53-.32,41.1-2.5,61.64-2.5a216.72,216.72,0,0,1,22.53,1.08c28.16,2.94,55.79,11.7,82.73,20.08,2.11.66,6.06,3,8.79,3a2.66,2.66,0,0,0,2.23-.94c1.44-1.85,1.82-5.55,2.5-7.77q1.4-4.56,2.66-9.17c1.7-6.24,3-12.52,4.18-18.88.71-3.78,2.52-9.38-.14-12.75-1.72-2.19-5-3.4-7.24-5.13-2.58-2-5.06-4.22-7.47-6.45a168.85,168.85,0,0,1-13-13.46,207.94,207.94,0,0,1-22.35-31.53c-6.52-11.22-12.17-22.89-15.6-35.44A157,157,0,0,1,327,267.93c-.41-24.68,1.71-51.35,9.77-74.81,7.46-21.71,23.23-42,46.26-48.18a43.89,43.89,0,0,1,11.42-1.56m0-7a50.86,50.86,0,0,0-13.25,1.81c-12.21,3.3-23.08,10.14-32.33,20.34a93.69,93.69,0,0,0-18.73,32.33c-7.23,21-10.64,47-10.15,77.2a164.63,164.63,0,0,0,5.41,40.59c3.2,11.69,8.38,23.48,16.3,37.11a215.44,215.44,0,0,0,23.1,32.59,176.63,176.63,0,0,0,13.5,14c2.91,2.69,5.42,4.86,7.9,6.81a31.16,31.16,0,0,0,3.64,2.37,20.77,20.77,0,0,1,2.3,1.47c.19,1.09-.41,3.87-.7,5.24-.15.7-.3,1.38-.41,2-1,5.48-2.31,11.94-4.05,18.32-.79,2.89-1.66,5.9-2.6,9-.28.9-.49,1.84-.69,2.75l-.81-.35a31.56,31.56,0,0,0-3.25-1.29l-2-.63c-26.51-8.26-53.92-16.8-82.07-19.74a222.76,222.76,0,0,0-23.26-1.11c-11.28,0-22.66.65-33.66,1.28-9.23.53-18.78,1.08-28.09,1.22q-1.79,0-3.58,0a88.06,88.06,0,0,1-14.71-1A80.38,80.38,0,0,1,179,414.85c-1.59-.56-3.24-1.14-4.91-1.69a80.24,80.24,0,0,0-25.39-3.62c-4.58,0-9.46.25-15.37.79-29.27,2.69-53.4,13-69.78,30-8.69,9-16,19.19-23.12,29.06l-2,2.73c-8,11.09-16.24,22.55-22.63,35.09-6.61,13-20.8,46.52-10,78a70.67,70.67,0,0,0,8.78,17.16,83.33,83.33,0,0,0,6,7.69,29.16,29.16,0,0,0,2.24,2.19l.59.54c-.3.46-.62.93-.91,1.43l-.19.33c-1.69,2.87-3.43,5.83-5,8.9A87.31,87.31,0,0,0,9.73,643.7c-3.42,14.14-4.62,28.77-5.68,41.67-1.39,16.9-2.11,29.88-2.34,42.1-.31,16.51,3.58,29.3,12.22,40.25a51.3,51.3,0,0,0,3.47,3.87c.68.7,1.32,1.36,1.89,2l.09.1a11.4,11.4,0,0,1-.39,1.22,109,109,0,0,0-5.36,20.57c-2.14,13.31-1.68,27.24,1.42,42.57l.56,2.76c2.58,12.73,5,24.75,6.17,37.37,1.13,12.44,3.15,26.69,12.78,38.46a56.14,56.14,0,0,0,13.8,12,64.79,64.79,0,0,0,8.56,4.52,27.22,27.22,0,0,0,3.74,1.23l1,.29v.13A76.08,76.08,0,0,0,63,946.14a149.1,149.1,0,0,0,5.1,20.65c1.18,3.71,2.41,7.46,3.59,11.08,2.29,7,4.66,14.24,6.74,21.39,4.71,16.22,11.17,38.43,30.84,47.6,7.71,3.59,15.67,3.7,22.68,3.8,4.93.07,9.59.13,13.84,1.3l1.91.53c5.73,1.6,11.66,3.26,18.35,3.26.73,0,1.47,0,2.2-.06,8-.44,15.46-2.65,22.32-5,13.52-4.58,26.63-9.5,39-14.63l5.2-2.14c11.54-4.73,23.47-9.63,33.95-16.55l1.23-.84a8.58,8.58,0,0,1,2.48-1.43h.23a26.25,26.25,0,0,1,3.3.32,37.73,37.73,0,0,0,5.25.46h.16c7.89-.05,14.37-2.16,20.32-4.35.37.11,1,.38,1.51.58l1.31.53a56.84,56.84,0,0,0,10.3,3.06,49.92,49.92,0,0,0,9.07.8,78.33,78.33,0,0,0,13.52-1.31l1.24-.22a30.64,30.64,0,0,1,5.26-.67,10.89,10.89,0,0,1,1.19.06c1.18.13,2.45.37,3.79.62a47.5,47.5,0,0,0,6.91.94l1,0a39.13,39.13,0,0,0,11.94-2.33,39.69,39.69,0,0,1,6.09-1.58,89.43,89.43,0,0,1,11.4-.57c3.15,0,6.41-.06,9.68-.32a197.51,197.51,0,0,0,21.68-2.93c5.83-1.13,13.42-3,20.44-7.7,1.64-1.09,3.23-2.21,4.76-3.29a74.07,74.07,0,0,1,10.87-6.79,54.52,54.52,0,0,1,23.39-5,66.13,66.13,0,0,1,10.25.82c11.05,1.74,21.24,7.44,31.56,13.64,5.71,3.43,11.54,6.86,17.17,10.19,6.29,3.71,12.8,7.55,19.15,11.38,26.72,16.1,50.5,31.13,72.69,45.94,11.19,7.47,22.77,15.51,35.4,24.56l.94.67a63.22,63.22,0,0,1,5.62,4.32l.44.4c1.79,1.64,4.79,4.39,9.43,4.39a12.21,12.21,0,0,0,2.87-.35c4.5-1.09,8.06-4,11.21-6.49,1.09-.87,2.11-1.7,3-2.29,39.19-26.35,72.94-64.7,97.61-110.92,24.24-45.42,38.58-98.14,42.62-156.69,2.12-30.8,1.65-58.62-1.44-85.06-1-8.92-9.23-11.71-13.63-13.2-.83-.28-1.62-.55-2.23-.8-3.91-1.59-7.88-3.35-11.72-5-2.45-1.08-5-2.2-7.5-3.28-13.4-5.74-26.81-11.52-39.86-17.19-32.12-14-56.63-24.83-79.47-35.26-14.91-6.81-27.23-12.67-38.77-18.44l-3.33-1.64a91.22,91.22,0,0,1-12.9-7.17c-2.44-1.75-3.49-4.37-5.14-8.84l-.61-1.64c-3.25-8.62-6.72-17.28-10.08-25.65-1.8-4.48-3.66-9.12-5.45-13.68-3-7.74-5.44-14.06-7.53-19.89-.4-1.1-.81-2.22-1.22-3.33-1.87-5.06-3.64-9.84-4.29-14.55-1.11-8-1.59-16.38-2.06-24.51-.32-5.56-.65-11.32-1.18-17-1.43-15.3-3.06-29.49-5-43.37-4.35-31.62-9.91-59.36-17-84.8-6.79-24.43-15.75-52.64-30.78-76.74-6.27-10.06-14.07-18.86-21.61-27.38l-2.43-2.75a243.63,243.63,0,0,1-22.79-29.91c-5-7.77-9.83-15.79-14.52-23.55-9.23-15.25-18.77-31-29.78-45.83-1.57-2.12-3.12-4.31-4.75-6.64-6-8.52-12.19-17.34-20.89-23.72a41.06,41.06,0,0,0-24.5-7.78Z"/><path class="cls-2" d="M313.47,740.68c-3.82,6.92-8.25,13.81-14.5,18.79-6.72,5.34-15.24,7.49-23.36,9.7a580.82,580.82,0,0,1-57.17,12.08c-19.32,3.23-38.73,5.87-58.18,8.22s-38.68,4.94-58.12,5.78c-20.18.87-40.69-.85-58.56-11.09,28,6,55.6,6.11,84,2.81s56.58-8,84.66-13c23.31-4.1,48.17-7.45,70.15-16.67,9.25-3.88,18.19-9.22,24.58-17.1,7.31-9,9.66-23.35,10.35-34.65,1.87-30.64-13.66-56.34-28.88-81.54,14.66,15,27.3,32.72,32.87,53.18A85.66,85.66,0,0,1,313.47,740.68Z"/><path class="cls-2" d="M289.06,764.75c-16.2,6.95-33.59,10.41-50.79,13.88-18.25,3.69-36.6,6.85-55,9.38q-27.94,3.83-56,6.67c-18.43,1.84-37.22,3.46-55.61.34C54.35,792.1,35.07,783.09,24,769c10.39,11.91,27,19.61,42.18,22.87,17.53,3.77,35.56,2.62,53.26.84,37.19-3.75,74.26-8.47,111.12-14.66C250.3,774.74,270.14,771.39,289.06,764.75Z"/><path class="cls-1" d="M236.94,419.13c.17-.65.36-1.34.56-2.07C237.32,417.75,237.13,418.44,236.94,419.13Z"/><path class="cls-1" d="M614.46,631.92q-1.26-3.23-2.51-6.45Z"/><path class="cls-2" d="M212.85,487.14C183.18,473.65,154.19,458.87,121,457,153.74,453.82,186.22,469.74,212.85,487.14Z"/><path class="cls-2" d="M180,439c12.05,9.79,21.07,26.37,21.42,42C196.19,465.87,188.78,452.38,180,439Z"/><path class="cls-2" d="M264,641c-15,4.58-31,3.43-46.42,1.94-16.38-1.58-32.67-4-49-6.29-16.55-2.33-33.18-4.53-49.92-4.43C102.8,632.3,86.84,634,71.06,631c-14.72-2.82-29.86-8.53-40-20,19.2,19,48.52,20.95,74,19.15,34.51-2.43,68.15,4.64,102.14,9.4C225.87,642.17,245.32,645.43,264,641Z"/><path class="cls-2" d="M296.29,529.35c-6.43-16.54-13.84-33.72-26.56-46.48-15.51-15.57-36.65-18.54-57-10.88,14.84-5.6,31.7-8.12,46.79-2,13.65,5.54,23.66,17,30.7,29.62,7.32,13.12,12,27.8,15.29,42.41,3.75,16.78,4.09,34-1.35,50.5-4.44,13.45-10.27,27-20.7,37-11,10.44-25.4,14-40.19,14.09-34.31.29-68.34-8.67-102.36-12-19-1.86-37.81,1.27-56.8.07-16.94-1.07-34.17-5.46-47.79-16,.94-1.13,14.2,4.67,15.9,5.23,10.36,3.42,22,4,32.82,4.32,27,.72,53.72-3.34,80.46,2.1,13.12,2.67,26,6.17,39.38,7.35,12.76,1.12,25.83,2.95,38.64,2.92,22.05-.05,38.25-12.95,47.41-32.43C301.62,582.54,305.5,553.06,296.29,529.35Z"/><path class="cls-2" d="M311.49,789.21c-2-8.47-7.11-15.78-12.32-22.56,3.3,9.57,7.52,18.2,7.94,28.51a240.69,240.69,0,0,1-1.25,31.22c-.74,8.25-.74,18.82-4.59,26.34-4,7.88-12.75,13-20.55,16.49-18.4,8.24-38,13.37-56,22.5s-35.34,18.53-54.29,25.45c-22,8-44.8,13.25-67.75,17.61,19.72,1.26,39.14-2.46,58.06-7.73a267.25,267.25,0,0,0,53.93-21.85c17.11-9.09,35.29-15.39,53.07-23,15.85-6.74,29.39-15,37-31.07,4.37-9.28,6.2-19.44,7.35-29.56C313.23,810.87,314,799.8,311.49,789.21Z"/><path class="cls-2" d="M68,930c13.71,3.71,29.43,4.2,43.57,4.12,15-.08,29.64-3.39,44-7.26a274.89,274.89,0,0,0,40.79-14.17c12.91-5.77,25.16-12.92,38.24-18.32,15.3-6.31,31.19-11.17,46.12-18.36-12.67,7.29-26.44,12.28-39.84,18-13.11,5.62-25.5,12.69-38.31,18.94a243.56,243.56,0,0,1-40.76,15.17c-14.26,4-28.84,7.62-43.72,8a173.34,173.34,0,0,1-25.68-1.63C84.25,933.54,75.94,932.56,68,930Z"/><path class="cls-3" d="M302.79,963.14c-6.25,13.55-12.75,27.81-24,38s-25.31,16.55-39.15,22.59c-15.28,6.67-30.81,12.69-46.46,18.43-7.19,2.63-14.51,5.18-22.14,6.15S156.5,1048,149.2,1046a53.61,53.61,0,0,0-12.14-2.34c-3.86-.16-7.7.3-11.57.06-7.65-.46-14.83-2.88-20.65-8,7.08,1.92,13.8,4.18,21.19,4.65,7.71.49,15.43-.07,23.14.17,7.52.23,15,2.32,22.5,1.07,7.32-1.22,14.48-4.24,21.41-6.8,27-10,54.84-20.2,78.21-37.42C283.68,988.25,295.85,977.08,302.79,963.14Z"/><path class="cls-3" d="M618.53,664.5s-35,76-76,111C542.53,775.5,605.53,734.5,618.53,664.5Z"/><path class="cls-3" d="M447.53,985.29c-5,2.27-8.78,6.35-13.16,9.54-4.77,3.48-10.2,5-15.94,6.13-13.29,2.5-26.74,4.51-40.28,4-6.29-.24-11.58,2.42-17.66,3.54a34,34,0,0,1-9.57.46c-2.86-.29-5.6-1.73-8.46-1.73s-5.6,1.12-8.35,1.52a62.39,62.39,0,0,1-10.42.65,53.16,53.16,0,0,1-17.92-3.52c-3.12-1.21-3.77-2.33-6.93-.93a38.69,38.69,0,0,1-7.06,2.73A48.9,48.9,0,0,1,270,1008c10.31-6.19,17.73-15.92,23.56-26.26,5.73-10.15,11.58-21.38,14.53-32.69,6.87-26.38-10.49-54.14-27.35-73,7.12-3.79,14.21-8.38,18.31-15.55,8.77,26,18.81,51.37,37.22,72.24,17,19.26,38.82,33.36,63,41.92A213.89,213.89,0,0,0,447.53,985.29Z"/><path class="cls-3" d="M670,693s3,63-36,172C634,865,687,747,670,693Z"/><path class="cls-3" d="M639,679c7.74,33-.43,73-21,100C633.35,748.07,640,713.4,639,679Z"/><path class="cls-3" d="M321,742c14.15,24,37.5,42.31,61.51,55.75C410.9,813.62,442.17,819.23,474,812c-45.95,22.56-98.64-1.39-131.18-35.83C333.61,766.39,324.73,755.16,321,742Z"/><path class="cls-3" d="M538,856c-13.09,31.74-28.65,64-29,99-3.35-17.06.41-35,5.71-51.23A191.94,191.94,0,0,1,538,856Z"/><path class="cls-3" d="M36,714c-1,15.63-3.37,31.45,0,47C29.56,747.15,31.91,728.16,36,714Z"/><path class="cls-3" d="M62,720c-1.05,15.61-2.24,31.43,0,47-2.67-7.23-2.92-15.14-2.89-22.77C59.18,736.08,59.8,727.87,62,720Z"/><path class="cls-3" d="M52,711a290.19,290.19,0,0,0-2.23,29c-.39,9.66-1.19,19.38-.77,29-2.19-9.52-1.66-19.46-1.21-29.14S49,720.31,52,711Z"/><path class="cls-3" d="M37,529c-1.77,21-4.44,41.81-4,63C29.35,571.53,31.92,549,37,529Z"/><path class="cls-3" d="M58,529c-1.77,11.7-3.36,23.42-4.55,35.19C52.35,575.41,51.14,586.72,52,598c-2.42-11.17-1.65-22.76-.53-34A193.24,193.24,0,0,1,58,529Z"/><path class="cls-3" d="M48,856c0,8.26.18,16.58,1.52,24.75s4.4,16,5.48,24.25c-2.73-7.64-5.93-15.16-7.33-23.2A71.32,71.32,0,0,1,48,856Z"/><path class="cls-3" d="M60,860c1,16.57,4.62,32.79,8,49C61.76,894.23,57.82,876,60,860Z"/><path class="cls-3" d="M103,983c4.71,15.08,7.51,30.93,15,45-4.87-5.57-7.57-12.72-9.81-19.66A113,113,0,0,1,103,983Z"/><path class="cls-3" d="M118,983a210.8,210.8,0,0,1,7.36,20.77c1.93,6.12,3.3,12.68,6.64,18.23-4.56-4.46-6.43-11.08-8.32-17A165.3,165.3,0,0,1,118,983Z"/><path class="cls-1" d="M398.57,399c1,11.1-2.26,22.25-5.19,32.85-3,10.94-6.69,21.68-10.6,32.33q-6,16.22-12.69,32.15c-2.14,5.09-4.44,10.08-6.78,15.09-2.21,4.72-5.26,9.68-4.34,15.07,3.31,19.4,24.11,33.92,39.93,42.83,18.72,10.54,39.52,17.81,60.38,22.74,21.51,5.08,44.16,8,66.27,6.37,18.17-1.33,39.75-5.92,51.69-21,6.77-8.56,8-18.89,7.38-29.48-.74-11.85-1.77-23.7-2.84-35.52-2-21.62-4.36-43.21-7.73-64.67-7.59-48.37-19.81-98-44.47-140.72-22.42,15.66-43.43,33.37-65.17,50-10.86,8.28-21.8,16.46-33.05,24.18-5.58,3.83-11.23,7.57-17,11.12C411,394.32,402.84,400.58,398.57,399Z"/><path class="cls-1" d="M439.27,415.05a120.94,120.94,0,0,0,41.19-1.24,109.61,109.61,0,0,0,19-5.84c5.85-2.39,8.47-5.58,12.33-10.53,7.73-9.89,16.48-18.34,20.43-30.59a87.75,87.75,0,0,0,2.81-39.6c-1.82-12.2-6.72-22.17-14.4-31.73-7.85-9.78-16.49-18.91-24.23-28.8-8.18-10.46-14.26-22.16-21.47-33.27-7.1-10.94-13.73-22.12-20.56-33.23-6.53-10.62-14.6-20.05-21.78-30.22-6.64-9.39-13.88-20.05-25.11-24.23-20.63-7.68-43.65,5.09-56.48,20.95-15.29,18.9-19.11,42.82-21.84,66.28-3.14,27-3.89,55.09,5.14,81.1,3.85,11.1,9.84,21.28,15.95,31.27a236.73,236.73,0,0,0,18.86,26.91c13.64,16.61,30.55,30.89,51,38.19A91.11,91.11,0,0,0,439.27,415.05Z"/><path class="cls-2" d="M336.78,196.1c-2.27,6.32-2.62,13.15-3.66,19.73-1.21,7.64-2.44,15.26-3.22,23a327.78,327.78,0,0,1,7.61-43c0-.05-1,.54-.3-.16Z"/><path class="cls-2" d="M336.91,195.59c7.77-26.73,32.37-56.15,63.07-51.81,15.94,2.25,24.48,15.17,33,27.41,4.85,7,10.41,13.41,15.32,20.35,5.7,8,10.59,16.66,15.81,25,12.08,19.38,24.65,38.53,39.16,56.19-27.06-21.86-38.29-56.19-58.68-83.34-4.65-6.2-9.62-12-13.93-18.45-4.15-6.22-8.28-12.66-13.9-17.68-13.43-12-32.25-9.28-46.87-1a65.18,65.18,0,0,0-21.4,19.93,73.87,73.87,0,0,0-7.5,13.91C340.38,187.69,338.95,195.49,336.91,195.59Z"/><path class="cls-4" d="M365.29,191.14c6.73,10,32.67-5.65,23.36-30.12C385.18,151.89,351.71,171.07,365.29,191.14Z"/><path class="cls-3" d="M329.25,249.66c-.71,30.47,3.51,61.26,16.55,89.05,11.4,24.31,30,44.25,52.36,58.95,13.75,9.05,29.12,16.34,45.61,18.34a197.65,197.65,0,0,1-34.92-22.09c-11.29-8.71-22.36-17.67-31.76-28.44a193,193,0,0,1-38.49-67.37C333.49,282.27,331.5,266.07,329.25,249.66Z"/><path class="cls-2" d="M388.19,391.66c-16-12-30-26.7-39.67-44.26a167.12,167.12,0,0,1-19.31-61.48c-2.61-23-1.8-46.47,1.26-69.42C333,197.6,338.72,178.3,352,164s36-25.86,54.85-15.8c-20.66-10-44.5,4.84-57,21.18-14.21,18.62-16.95,42.77-18.31,65.42-1.63,27.23-1.31,55,6.9,81.29,7.22,23.11,19.09,44.71,36.42,61.78,18.82,18.54,42.38,34,68.91,38.1C423.28,413.79,404.48,403.85,388.19,391.66Z"/><path class="cls-2" d="M403.14,403.56c13.76,11.51,30.64,19.26,48.55,21.16,19.57,2.07,38.77-3.36,56.58-11.08-18.21,6.59-38.94,8.1-58.09,5.91a120.16,120.16,0,0,1-27.74-6.5c-3.95-1.45-7.71-3.22-11.54-4.95C408.56,407,404.35,406.06,403.14,403.56Z"/><path class="cls-4" d="M37,802a50.45,50.45,0,0,0-1.81,33c2.7,9,9,20.41,17.93,24.66,4.89,2.33,10.38,1.48,15.53.59A152.47,152.47,0,0,0,88.41,855c12.87-4.06,25.5-8.77,38-13.9,12.3-5.06,24.45-10.47,36.34-16.43,5.24-2.63,10.52-5.22,15.58-8.2a82,82,0,0,0,7.3-4.78c1.9-1.41,5.82-3.34,3.31-5.61s-10.12-.39-13.32-.18c-7,.48-13.93,1.1-20.89,1.78-13.37,1.3-26.73,2.62-40.15,3.15-15,.59-30.06.2-44.83-2.5-7.11-1.3-14.07-3.23-21-5.19C46.61,802.62,38.28,798.88,37,802Z"/><path class="cls-4" d="M55,651c-17,7.56-29.53,28.1-24.89,46.8,1,4,3,7.9,7.21,9.1,5.14,1.45,11.54,0,16.58-1.07,11.69-2.58,23-7.3,34.13-11.63,22.81-8.89,45.09-19.34,68.36-27,2-.67,15.12-2.92,13-6s-10.44-3.43-13.68-3.87q-8.76-1.18-17.55-2.24c-14.17-1.7-28.42-2.92-42.67-3.84-6.88-.44-13.77-.79-20.66-1-3.62-.11-7.25-.17-10.87-.12C61.09,650.17,57.7,649.82,55,651Z"/><path class="cls-4" d="M104.53,957.5c-6.63-1.89-20.09-3.91-16.35,7.62,2.69,8.3,10.62,17.47,18.63,20.89,5.18,2.21,10.55,1.28,15.93.35a170.46,170.46,0,0,0,18.71-4.55c12.78-3.73,25.48-7.8,37.94-12.51,11.37-4.31,22.54-9.15,33.43-14.56,9.83-4.88,19.55-10.45,27.54-18.07,1.9-1.81,6.76-5.9,3.47-8.42-1.74-1.33-5.68-.62-7.64-.46a73.6,73.6,0,0,0-10.81,1.85c-12.42,2.91-24.73,6.38-37,9.83-14.06,4-28.09,8-42.24,11.66-7,1.8-14.09,3.6-21.2,5.07C118.69,957.5,110.83,959.3,104.53,957.5Z"/><path class="cls-4" d="M105,460c17.06,5.33,40.61,7.14,47.4,26.57a77.34,77.34,0,0,1,4.16,23.08c.15,8.46-4.5,13.58-12.8,15s-17.51-.16-25.93-.83c-10.23-.81-20.46-1.67-30.72-2-8.23-.24-18,.1-25.32-4.31-8.42-5.07-1.33-14.63,3.07-19.88A327.06,327.06,0,0,0,85.13,471C89.84,464.09,95.73,457.09,105,460Z"/><path class="cls-4" d="M639,679c28.3,47.17,145,88,168,82S633,669,639,679Z"/><path class="cls-4" d="M563,882c27.3,41.86,125,89,148,81S548,859,563,882Z"/><path class="cls-4" d="M392.32,526.7c-7.93,40.32-62.55,224.41-65.73,80C325.19,543.1,400.25,486.38,392.32,526.7Z"/><path class="cls-2" d="M284.63,880.5C298,909,337,932,270,1009l4,3s40-41,39-73S284.63,880.5,284.63,880.5Z"/></g></svg>