<svg xmlns="http://www.w3.org/2000/svg" viewBox="0 0 826.21 1096.88"><defs><style>.cls-1{fill:#fc9;}.cls-2{fill:#bf9973;}.cls-3{fill:#80664d;}.cls-4{fill:#ffebd6;}.cls-5{fill:#ffe0c2;}.cls-6{fill:#ffd6ad;}</style></defs><title>Hand</title><g id="Frame_3" data-name="Frame 3"><path class="cls-1" d="M792.14,956c-17.84,39.95-43.14,76.86-75.45,106.49a264.13,264.13,0,0,1-25.58,20.76c-4.08,2.9-8.26,5.65-12.57,8.2-1.37.81-4.47,3.47-6.15,3.42-1.33,0-2.68-1.6-3.65-2.37-18.2-14.51-38.12-27.22-57.59-39.93s-39.35-25.07-59.33-37.12q-15.28-9.22-30.72-18.15c-5.15-3-10.32-5.87-15.49-8.78-4.92-2.78-9.84-5.93-15.34-7.44-10.66-2.92-22.54-4.24-33.33-1.56-11,2.74-19.67,7.59-28.6,14.43-8.54,6.54-19.83,7.73-30.19,9.23-5.25.76-10.51,1.42-15.8,1.76q-4.91.31-9.83.29c-2.73,0-5.76-.71-8.4.06-4.59,1.33-8.62,3.31-13.52,3.73a33.87,33.87,0,0,1-8-.24c-2.41-.37-5-1.86-7.38-1.72-4.42.26-8.92,1.94-13.45,2.26a53.91,53.91,0,0,1-16.66-1.15,33.24,33.24,0,0,1-6.53-2.25c-1.33-.64-2.47-1.7-4-1.74s-3.28,1.37-4.69,2a38.26,38.26,0,0,1-8.91,2.26,50.61,50.61,0,0,1-15.25-.12c-2.62-.38-3.29.38-5.34,1.78a73.36,73.36,0,0,1-8,4.51,504.17,504.17,0,0,1-63.82,27c-10.59,3.7-21.89,7.91-33.29,7.12-5.77-.4-10.89-2.58-16.41-4s-11.12-1-16.77-.88c-10.26.24-19.05-2.69-26.32-10.09-6.34-6.46-10.66-14.82-13.66-23.28-3.71-10.45-5.77-21.33-9.74-31.71a165.49,165.49,0,0,1-9.21-32.1c-.78-4.65-.91-9.47-1.73-14.07-.76-4.29-5.79-4.4-9.35-6-8.92-4.11-17-10-22.24-18.46-5.75-9.23-7.05-19.75-7.83-30.38a226.48,226.48,0,0,0-5.57-34.08c-2.56-11.23-4.78-22.47-4.14-34a130.9,130.9,0,0,1,6.34-33c.66-2,1.71-3.62.56-5.59s-3.52-3.64-5-5.36a53.49,53.49,0,0,1-8.92-13.89c-4-9.68-3.47-20.15-3.16-30.4a526.73,526.73,0,0,1,6.6-71.31c.85-5,1.76-10.22,3.77-15a152.7,152.7,0,0,1,8.2-15.48c1-1.8,3.74-4.85,4-6.83.22-1.51-.76-1.94-1.9-3.11A89,89,0,0,1,13.19,598c-6.53-9.36-10.55-19.82-10.85-31.3-.3-11.31,1.87-23.05,4.46-34a96.51,96.51,0,0,1,12.75-30.16Q29,487.42,39.55,473c12.83-17.59,25.73-35.27,45.94-44.75,18.56-8.71,39.76-11.43,60.09-11.4a70,70,0,0,1,15.07,1.38c5.69,1.26,10.95,3.78,16.41,5.73,10,3.58,22.41,2.64,32.91,2.51,3.22,0,6.45-.16,9.67-.17,2.14,0,5.54.68,7.48-.28,2.78-1.38,3-7.33,3.85-10.32,2.82-10.53,4.42-22.13,9.78-31.76,9.44-17,28.63-30.27,46.93-35.84,11.27-3.43,22.09-1.55,33.57-.83,12.08.76,24.16.49,36.25.19s24-.55,35.88,1.13c11.6,1.64,23,4.59,34.34,7.43,21.34,5.33,42.66,11.77,62.65,21,19.49,9,34.7,22.13,45.23,41,10.91,19.53,16.34,41.39,21.31,63,10.75,46.77,27.45,91.3,44.84,135.94l5.71,14.64c1.53,3.92,2.22,8.44,5.82,10.89,9.45,6.45,20.35,11.18,30.63,16.14,21.3,10.28,42.9,19.93,64.52,29.53q33.25,14.76,66.69,29.12,16.36,7,32.76,14c2.27,1,4.52,2,6.83,2.86,1.72.63,4.29,1,5.63,2.31,1.5,1.49,1.25,3.8,1.45,5.82.33,3.22.67,6.45.94,9.68A460.23,460.23,0,0,1,813,892.86,344.5,344.5,0,0,1,792.14,956Z"/><path class="cls-2" d="M306.58,740.68c-4.6,8.34-10.36,17-18.88,21.74-6.12,3.42-13.61,5.26-20.34,7.11-19.89,5.47-40.3,9.18-60.63,12.51-24.17,4-48.49,6.92-72.82,9.7-16,1.83-32.19,3.68-48.35,3.73-17.15.06-33.76-2.67-48.86-11.32,12.9,2.76,25.76,4.88,39,5.23,24,.63,48.15-2.49,71.85-6.1,32.06-4.88,64.44-9.87,96.16-16.72,20.31-4.39,46.46-11,58.8-29.57,2.49-3.75,3.66-9,4.84-13.37a92,92,0,0,0,2.87-14.85,90.86,90.86,0,0,0-2.27-30.16c-4.83-20.29-15.72-37-26.35-54.56,14.54,14.88,27,32.24,32.68,52.48A85.1,85.1,0,0,1,306.58,740.68Z"/><path class="cls-3" d="M282.17,764.75c-16.19,6.94-33.6,10.4-50.79,13.88q-27.37,5.55-55,9.38-27.94,3.82-56,6.67c-18.19,1.82-36.7,3.37-54.86.47a79.55,79.55,0,0,1-26.92-9.28c-7.31-4.18-16.18-10.19-21.41-16.87,5.35,6.14,14,11.49,21.09,15.36a80,80,0,0,0,22.54,7.81c16.23,3.24,33,2.42,49.32.79,36.91-3.68,73.91-8.24,110.5-14.39C241.28,775.09,262.31,771.72,282.17,764.75Z"/><path class="cls-1" d="M230,419.13c.17-.65.36-1.34.56-2.07C230.43,417.75,230.24,418.44,230,419.13Z"/><path class="cls-1" d="M230.61,417.06c.27-1,.54-2,.79-2.93C231.13,415.17,230.86,416.14,230.61,417.06Z"/><path class="cls-1" d="M237.14,392a34.91,34.91,0,0,1,5.17-10.8c-3.18,4.71-5,10.11-6.37,15.56Z"/><path class="cls-1" d="M324.22,347.45l2.07.09Q325.25,347.51,324.22,347.45Z"/><path class="cls-1" d="M390.14,348c2.54.47,5.09.93,7.63,1.42a111.35,111.35,0,0,0-20.72-2C381.36,347.39,385.87,347.22,390.14,348Z"/><path class="cls-1" d="M524.14,401a124.68,124.68,0,0,1,7.26,10.16,83.6,83.6,0,0,0-22.21-23.42A66,66,0,0,1,524.14,401Z"/><path class="cls-1" d="M536.5,419.78q1.2,2.19,2.29,4.4C538,422.7,537.29,421.24,536.5,419.78Z"/><path class="cls-1" d="M539.51,425.66c13.75,28.33,17.71,59.2,24.63,85.34C556.32,482.33,552.46,452.6,539.51,425.66Z"/><path class="cls-1" d="M567.39,522.12c5.85,18.66,15.73,45.69,24.62,69.27C583.35,568.49,574.62,545.52,567.39,522.12Z"/><path class="cls-1" d="M607.57,631.92q-1.26-3.23-2.51-6.45Z"/><path class="cls-3" d="M206,487.14c-29.67-13.49-58.66-28.28-91.82-30.14C146.85,453.82,179.32,469.74,206,487.14Z"/><path class="cls-3" d="M173.14,439c12.05,9.79,21.07,26.37,21.42,42C189.3,465.87,181.88,452.38,173.14,439Z"/><path class="cls-2" d="M281.88,527c-5.55-13.89-23.52-21.52-36.28-26.83-12.27-5.1-25-8.75-37.66-12.57,15.39,4.47,31,8,46.41,12.49,10.61,3.07,22.11,6.43,30.95,13.36,9.52,7.46,11.71,20.3,14,31.54,3,14.71,4.06,30.7-1,45.09-4.69,13.24-9.2,26.08-18.9,36.65-10.54,11.49-24.5,16.42-39.87,16.9-16.88.53-34-2.08-50.71-4.44-18-2.54-35.86-5.61-53.92-7.42a185.75,185.75,0,0,0-30.09-.64c-9.13.56-18.2,1.14-27.34.58-17-1-34.3-5.44-48-16,.37-.45,14.57,5,16.39,5.49A125.39,125.39,0,0,0,64,624.35c12.59,1.31,25.27,1.06,37.9.63s25-1,37.52-.6c13.87.42,27.71,1.51,41.57,2.2,11,.55,22,.33,32.91,1.43,9.41,1,19,1.93,28.33.07,20.18-4,32.35-21.14,38.55-39.59C287.21,569.46,289.5,546.05,281.88,527Z"/><path class="cls-3" d="M257.14,641c-14.73,4.5-30.49,3.45-45.61,2-16.66-1.58-33.2-4-49.77-6.37-16-2.25-32.11-4.41-48.31-4.44s-31.92,2-48-1c-15.08-2.74-30.87-8.49-41.28-20.24,19,18.78,48.77,21.08,74,19.15A242.62,242.62,0,0,1,149.36,632c17.55,2.33,35,5.38,52.53,7.79C220.07,642.28,239,645.29,257.14,641Z"/><path class="cls-2" d="M304.59,789.21c-2-8.41-7.14-15.82-12.32-22.56,1.84,5.34,4.24,10.47,5.92,15.86a55.59,55.59,0,0,1,2.07,18A318.43,318.43,0,0,1,297.89,836c-.71,5.27-1.11,11.91-3.52,16.69a28.73,28.73,0,0,1-6.3,7.64c-4.85,4.45-10.79,7.45-16.82,10C254,877.5,236,882.56,219.21,891c-11,5.49-21.54,11.64-32.72,16.74a319.51,319.51,0,0,1-30.33,12c-19.71,6.66-40,11.15-60.42,15,15.79,1,30.55-1,45.89-4.6a265,265,0,0,0,52-17.72c9.1-4.3,17.71-9.52,26.88-13.69,9.75-4.43,19.75-8.26,29.7-12.21,9-3.57,18-7.18,26.39-12A49.47,49.47,0,0,0,295.78,855c5.26-9.27,7.7-19.91,9-30.4C306.17,813.1,307.25,800.59,304.59,789.21Z"/><path class="cls-3" d="M61.14,930c7,1.88,14.2,2.36,21.34,3,7.66.66,15.36,1.22,23.06,1.14,14.42-.15,28.57-3.35,42.44-7a276.77,276.77,0,0,0,41.55-14.37c13.15-5.86,25.59-13.2,39-18.61,15.1-6.12,30.71-11,45.41-18.07-12.66,7.29-26.43,12.31-39.84,18S208.12,907,195,913.32a242.69,242.69,0,0,1-40.81,15c-14.27,4-28.88,7.55-43.77,7.83a175.33,175.33,0,0,1-24.88-1.65C77.36,933.53,69,932.56,61.14,930Z"/><path class="cls-2" d="M295.9,963.14c-4.5,9.76-9.19,19.64-15.43,28.43A66.93,66.93,0,0,1,264,1007.5c-8.71,6.2-18.43,10.62-28.22,14.94Q214.17,1032,192,1040.08c-13.13,4.81-27.27,10.7-41.48,8-8.17-1.57-14.7-4.85-23.29-4.38-10.95.6-20.6-.33-29.26-7.95,5.68,1.54,11.34,3.66,17.22,4.31,9,1,18.11.33,27.11.5,6.91.13,14.13,2.14,21,1.29a67,67,0,0,0,13.13-3.54c9.56-3.26,19-7,28.4-10.59,23.69-9.14,46.87-19.34,66.53-35.75C280.9,984,290.28,974.41,295.9,963.14Z"/><path class="cls-1" d="M234.88,400.91c.29-1.16.58-2.31.88-3.45Z"/><path class="cls-1" d="M276.5,352.61c-13.5,6.63-25.91,17.07-33.2,27.17C251.57,368.18,263.74,358.82,276.5,352.61Z"/><path class="cls-1" d="M282.32,350a63.47,63.47,0,0,1,11.43-3.44A65.65,65.65,0,0,0,282.32,350Z"/><path class="cls-1" d="M293.75,346.58c1.18-.24,2.37-.43,3.57-.58C296.14,346.15,294.95,346.35,293.75,346.58Z"/><path class="cls-1" d="M304.22,345.66c6.7.12,13.31,1.41,20,1.79C317.54,347.12,310.88,345.86,304.22,345.66Z"/><path class="cls-1" d="M370.68,347.47c-9.58.16-21.27.49-32.94.36C348.72,347.93,359.7,347.61,370.68,347.47Z"/><path class="cls-1" d="M398.24,349.51l1.16.23Q397.08,349.31,398.24,349.51Z"/><path class="cls-1" d="M457.91,364.62c-1.31-.43-2.63-.84-3.94-1.25Z"/><path class="cls-1" d="M454,363.37c-16.8-5.24-33.12-9.13-45.19-11.71C424,354.88,439.12,358.69,454,363.37Z"/><path class="cls-1" d="M405.17,350.9l3.61.76Z"/><path class="cls-1" d="M474.57,370.5a186.89,186.89,0,0,1,28.12,13.15A196.5,196.5,0,0,0,474.57,370.5Z"/><path class="cls-2" d="M611.64,664.5s-35,76-76,111C535.64,775.5,598.64,734.5,611.64,664.5Z"/><path class="cls-2" d="M440.64,985.29c-6.91,3.14-11.58,9.74-18.5,12.71-5.3,2.28-11.45,3.11-17.09,4.07a201.66,201.66,0,0,1-27.43,3.11c-4.45.14-9.8-1-14,.49-7.21,2.53-14.21,4.36-21.9,3-1.64-.29-3.24-1.07-4.86-1.33-2.59-.42-5.46.77-8.15,1.2-11.16,1.8-21.65,1-32-3.51-.47-.21-1.14-1-1.64-1-1.71-.22-5.54,2.37-7.44,2.93a49.3,49.3,0,0,1-7.07,1.54,48.49,48.49,0,0,1-17.49-.47c16.73-10,25.34-28.64,33.16-45.71,4.5-9.82,7.42-19,6.26-30-1.14-10.78-5.24-21.1-10.41-30.55A139.44,139.44,0,0,0,273.88,876c7.21-3.84,14.17-8.31,18.31-15.55,6.06,18,12.29,35.72,22.27,52a145.71,145.71,0,0,0,62.17,55.69C396.72,977.65,418.61,982.88,440.64,985.29Z"/><path class="cls-2" d="M663.14,693s3,63-36,172C627.14,865,680.14,747,663.14,693Z"/><path class="cls-2" d="M632.14,679c4.56,19.42,2.76,41-2.19,60.17A111.6,111.6,0,0,1,611.14,779C626.54,747.91,633.08,713.61,632.14,679Z"/><path class="cls-2" d="M314.14,742c13.46,22.84,36.85,41.53,59.53,54.62,13.59,7.84,28.23,13.86,43.67,16.83,16.69,3.21,33.28,2.29,49.8-1.46-29.16,14.32-63.31,9.82-91.29-5a151.32,151.32,0,0,1-36.08-26.87C329.33,769.62,318.22,756.5,314.14,742Z"/><path class="cls-2" d="M531.14,856c-13.06,31.65-28.65,63.95-29,99-3.39-17.29.82-36.81,6.37-53.24A190.88,190.88,0,0,1,531.14,856Z"/><path class="cls-2" d="M29.14,714c-1,15.63-3.37,31.45,0,47C22.66,747.15,25,728.16,29.14,714Z"/><path class="cls-2" d="M55.14,720c-1,15.37-2.2,31.7,0,47-2.7-7.31-2.93-15.78-2.89-23.49A88.3,88.3,0,0,1,55.14,720Z"/><path class="cls-2" d="M45.14,711c-1.58,11.17-2,22.53-2.42,33.79-.32,8-.93,16.2-.58,24.21-2.14-9.28-1.64-19.69-1.21-29.14C41.36,730.23,42.17,720.22,45.14,711Z"/><path class="cls-2" d="M30.14,529c-1.77,21-4.44,41.81-4,63C22.45,571.53,25,549,30.14,529Z"/><path class="cls-2" d="M51.14,529c-1.73,11.44-3.32,22.9-4.47,34.42S44.23,586.55,45.14,598c-2.44-11.28-1.6-23.39-.46-34.79A190.64,190.64,0,0,1,51.14,529Z"/><path class="cls-2" d="M41.14,856a161.37,161.37,0,0,0,1.52,24.75c1.3,8.17,4.41,16.09,5.48,24.25-2.86-8-6.11-15.47-7.46-23.94A71.72,71.72,0,0,1,41.14,856Z"/><path class="cls-2" d="M53.14,860c1,16.57,4.62,32.79,8,49C54.86,894.23,50.92,876,53.14,860Z"/><path class="cls-2" d="M96.14,983c4.69,15,7.53,31,15,45-5.17-5.91-8.11-14.13-10.4-21.52A110.07,110.07,0,0,1,96.14,983Z"/><path class="cls-2" d="M111.14,983a229.8,229.8,0,0,1,7.84,22.27c1.76,5.54,3.15,11.73,6.16,16.73-4.6-4.5-6.77-12.18-8.68-18.1A154.72,154.72,0,0,1,111.14,983Z"/><path class="cls-3" d="M309.05,316.06a53.55,53.55,0,0,1,7.6.53c11.67,1.67,23.07,5,34.75,6.73,11.89,1.76,23.89,2.61,35.76,4.45a171.17,171.17,0,0,1,33.23,8.91c21.32,7.88,42.41,16.87,62.35,27.82,17.19,9.44,33.51,20.95,44.7,37.36C539.78,420,547,442.12,552.57,463.14c6.16,23.32,11,46.93,18.35,69.94,7.38,23.22,16.15,46,24.93,68.73,4.36,11.28,9,22.45,13.14,33.82,3.36,9.25,14.29,12.81,22.5,17,21.6,10.89,43.69,20.79,65.77,30.67q33.49,15,67.18,29.49c11.23,4.86,22.5,9.64,33.73,14.5,5.54,2.4,11,5,16.7,7,3.51,1.28,6.25,2.26,6.74,6.47a444.39,444.39,0,0,1,2.18,69.84c-1.88,45.89-9.89,91.88-27.08,134.61-15.79,39.27-38.92,75.8-68.52,106.12a263.9,263.9,0,0,1-53.08,42.17,6.13,6.13,0,0,1-2.92,1.19,4.24,4.24,0,0,1-2.58-1.23c-1.79-1.44-3.44-3-5.31-4.34q-6.63-4.84-13.33-9.58-14.68-10.38-29.69-20.3c-20.1-13.34-40.52-26.19-61.12-38.73q-15.25-9.28-30.64-18.31c-10.05-5.88-19.87-12.32-30.34-17.45a64.71,64.71,0,0,0-28.47-6.56,64,64,0,0,0-34.37,9.9c-4.69,3-8.77,6.87-13.76,9.38-4.48,2.25-9.5,3.21-14.39,4.11a193.9,193.9,0,0,1-35.32,3.37h-3.22a19.18,19.18,0,0,0-6.78.93,58.5,58.5,0,0,1-6.42,2.24,32.34,32.34,0,0,1-7.61.9,40.93,40.93,0,0,1-8.65-1,18.72,18.72,0,0,0-4-.41c-3.85,0-7.4,1.06-11.56,1.5a72.71,72.71,0,0,1-7.71.43,51.8,51.8,0,0,1-9.07-.76,32.27,32.27,0,0,1-8-2.27c-2-.92-3.29-2.2-5.2-2.2a5,5,0,0,0-1.52.25c-4.41,1.42-8.16,3.36-12.92,4a48.94,48.94,0,0,1-6.37.41q-2.18,0-4.35-.17c-1.43-.11-3-.52-4.5-.52a6.14,6.14,0,0,0-1.4.15c-1.64.38-3,1.65-4.42,2.52-2.62,1.64-5.43,3-8.18,4.42-20.77,10.64-42.48,19.22-64.46,27-8.93,3.14-18.44,6.51-28,6.51a37.81,37.81,0,0,1-5.3-.36c-5.43-.77-10.45-3.06-15.8-4.15a39,39,0,0,0-7.82-.66c-2.75,0-5.5.15-8.26.15h-.52c-22.25-.16-34.06-18.61-40.15-37.88-3.56-11.26-6.68-22.52-10.6-33.67A154.86,154.86,0,0,1,62.12,939c-.43-3.62.66-8-2.95-10.13-3.4-2-7.57-2.54-11.09-4.47-8.27-4.51-15.49-11-19.86-19.41-5.16-10-5.51-21.22-6.5-32.15-1-11.49-3.82-22.67-6.24-33.93s-3.91-22.67-2.74-34.18a112.38,112.38,0,0,1,3.41-18.63c1.12-4,4.64-10.32,3.39-14.41-.73-2.39-4-4.6-5.53-6.49s-3-3.79-4.36-5.79a42.7,42.7,0,0,1-6.39-14.58c-2.41-10.8-1.16-22.29-.7-33.24,1-23.08,1.8-47.62,8-70A77.75,77.75,0,0,1,17,626.07c1.15-2.17,2.36-4.3,3.61-6.42,1.09-1.86,3.84-4.83,4.12-7s-2.64-4-4-5.42a73.61,73.61,0,0,1-4.8-5.66,66.61,66.61,0,0,1-8.51-13.72c-8.52-19.14-4.72-41.2.8-60.61,6.1-21.44,21.12-40.51,34.24-58.14,6.53-8.78,13-17.72,20.79-25.46a81.2,81.2,0,0,1,27.27-17.57,135.84,135.84,0,0,1,50-9.56c4.26,0,8.49.21,12.66.62,10.45,1,19.62,6.7,29.93,8.28,6,.92,12.13.92,18.17,1,1.22,0,2.34.11,3.36.11,2.26,0,4.08-.43,5.61-2.92,6-9.78,11.92-19.37,16.78-29.82,4.78-10.28,8.95-20.83,13.32-31.29,3.81-9.11,8.42-17.54,15.7-24.36a87.15,87.15,0,0,1,27.78-17.06,69.92,69.92,0,0,1,25.22-5.11m0-3a72.73,72.73,0,0,0-26.31,5.32A89.91,89.91,0,0,0,254,336c-8.44,7.92-13.21,17.73-16.41,25.39q-1.67,4-3.31,8c-3.16,7.66-6.43,15.58-10,23.2C219.5,403,213.5,412.7,207.7,422.12c-.8,1.3-1.4,1.49-3.05,1.49-.5,0-1.06,0-1.65-.05l-1.65-.06-2.17,0a118.61,118.61,0,0,1-15.61-1,73.39,73.39,0,0,1-13.47-3.88c-5.27-1.88-10.72-3.83-16.62-4.42-4.23-.42-8.59-.64-13-.64a138.35,138.35,0,0,0-51.15,9.78A84.13,84.13,0,0,0,61.1,441.56c-7.41,7.38-13.69,15.84-19.76,24L40,467.35l-2.88,3.86C24.93,487.54,11.1,506,5.3,526.46c-5.18,18.21-9.94,41.8-.65,62.65a69.19,69.19,0,0,0,8.88,14.35c1.31,1.67,3.06,3.86,5,5.89.43.45.92.87,1.4,1.28a10.18,10.18,0,0,1,1.78,1.79,17.47,17.47,0,0,1-2.16,3.44c-.58.8-1.14,1.56-1.55,2.27-1.48,2.53-2.65,4.61-3.67,6.54a79.53,79.53,0,0,0-6.66,16.16c-6,21.9-7,45.4-8,68.14l-.11,2.54c-.08,1.88-.18,3.82-.29,5.7-.51,9.34-1,19,1.05,28.32a45.75,45.75,0,0,0,6.83,15.6c1.29,1.92,2.77,3.89,4.53,6a26,26,0,0,0,2.21,2.26c1.06,1,2.51,2.37,2.76,3.2.6,2-.89,5.83-2,8.66-.56,1.44-1.08,2.81-1.43,4.06a115.37,115.37,0,0,0-3.51,19.13c-1,10.23-.16,21.39,2.79,35.11q.63,2.92,1.28,5.84c2,9,4.06,18.41,4.91,27.73.12,1.29.22,2.59.33,3.88.82,9.86,1.67,20.06,6.49,29.37,4.32,8.35,11.61,15.49,21.09,20.67a34.56,34.56,0,0,0,5.91,2.37,26.91,26.91,0,0,1,5.11,2.06c1.09.64,1.28,1.71,1.33,4.84a29.59,29.59,0,0,0,.15,3.06,156.59,156.59,0,0,0,8.09,33.83c2.56,7.27,4.82,14.75,7,22,1.15,3.79,2.34,7.72,3.56,11.59,8.22,26,23.08,39.83,43,40h.54c1.42,0,2.84,0,4.22-.08s2.71-.07,4-.07a35.56,35.56,0,0,1,7.22.6,68,68,0,0,1,6.67,1.84,58.8,58.8,0,0,0,9.31,2.34,41,41,0,0,0,5.72.39c10.07,0,19.65-3.37,28.92-6.64l.12,0c26-9.15,46.57-17.76,64.83-27.12l1.26-.64c2.36-1.2,4.81-2.44,7.14-3.9.45-.28.88-.58,1.29-.88a8,8,0,0,1,2.22-1.27,3.22,3.22,0,0,1,.71-.07,15.49,15.49,0,0,1,2.24.25c.66.1,1.34.21,2,.26,1.54.12,3.09.18,4.59.18a52.15,52.15,0,0,0,6.76-.43,42,42,0,0,0,9.59-2.72c1.25-.47,2.55-1,3.86-1.38a2,2,0,0,1,.61-.11,4.79,4.79,0,0,1,2,.88c.55.32,1.18.69,1.91,1a35,35,0,0,0,8.74,2.51,55.05,55.05,0,0,0,9.59.8,75.07,75.07,0,0,0,8-.45c1.73-.18,3.33-.46,4.88-.73a37.33,37.33,0,0,1,6.36-.75,15.72,15.72,0,0,1,3.35.35,43.81,43.81,0,0,0,9.29,1.06,35.17,35.17,0,0,0,8.32-1,37.87,37.87,0,0,0,5-1.66l1.77-.67a16.26,16.26,0,0,1,5.75-.75h3.22a196.7,196.7,0,0,0,35.86-3.42c4.8-.88,10.23-1.88,15.2-4.38a59,59,0,0,0,8.82-5.82c1.77-1.33,3.44-2.58,5.21-3.71a60.86,60.86,0,0,1,32.75-9.44,62,62,0,0,1,27.15,6.26c7.28,3.57,14.42,7.89,21.32,12.06,2.88,1.75,5.87,3.55,8.83,5.28,9.42,5.51,19.43,11.49,30.6,18.29,22.35,13.61,42.31,26.25,61,38.67,10.81,7.18,20.5,13.8,29.62,20.25,4.3,3,8.77,6.26,13.29,9.56,1.09.79,2.1,1.66,3.18,2.57.65.55,1.32,1.12,2,1.68a7.1,7.1,0,0,0,4.46,1.89,8.64,8.64,0,0,0,4.46-1.62,268,268,0,0,0,53.69-42.64c29-29.73,52.93-66.77,69.15-107.1,16.06-39.92,25.24-85.54,27.29-135.61a444.64,444.64,0,0,0-2.19-70.31c-.71-6-4.94-7.57-8.68-8.93-4.14-1.5-8.26-3.33-12.24-5.09l-4.31-1.89c-5.83-2.53-11.78-5.07-17.52-7.53q-8.11-3.47-16.21-7c-25.73-11.12-47.07-20.49-67.15-29.47-21.52-9.63-43.78-19.59-65.64-30.61-1.41-.71-2.91-1.41-4.37-2.09-7-3.28-14.29-6.67-16.66-13.21-2.67-7.34-5.59-14.7-8.42-21.82-1.57-3.95-3.19-8-4.74-12.06-8.12-21-17.32-44.83-24.87-68.56-4.76-15-8.56-30.53-12.23-45.57-1.94-7.95-3.95-16.17-6.08-24.24-5-18.78-12.36-42.83-25.55-62.2-12.87-18.88-32.26-30.9-45.73-38.3-18-9.89-38.54-19.05-62.75-28a173.37,173.37,0,0,0-33.81-9.07c-6.25-1-12.6-1.67-18.74-2.35-5.6-.62-11.39-1.26-17-2.1s-11.38-2.08-16.92-3.29c-5.81-1.27-11.81-2.58-17.84-3.44a56.78,56.78,0,0,0-8-.56Z"/><path class="cls-1" d="M617.22,645c-2.81-1.62-5.84-3-7.11-6.1-1.41-3.44-2.56-7-3.91-10.48q-5.17-13.26-10.32-26.52c-6.65-17.2-13.17-34.45-19.25-51.87-6.19-17.74-11.7-35.61-16.17-53.86-4.32-17.65-7.79-35.55-13.73-52.75-5.34-15.46-11.9-31.56-21.49-44.91-9.76-13.58-23.45-23.15-37.81-31.36a396.78,396.78,0,0,0-48.63-23.21c-17.12-6.91-34.08-13.5-52.43-16.27s-36.83-3.87-55-7.78c-8.86-1.91-17.34-4.51-26.51-3.83a75,75,0,0,0-23.51,6.14c-14.1,6-29.08,15.77-36.27,29.77-7.68,14.94-12.32,31.3-19.72,46.34A227.62,227.62,0,0,1,212,420.95c-4.83,7.48-8.94,15.49-13.49,23.15-4.74,8-9.63,15.85-14.34,23.84-4.28,7.27-7.09,15-10.86,22.55-7.43,14.81-18,30.22-10.7,47.22,5.88,13.77,18.82,23.88,32.61,29,14.67,5.47,31.39,5.6,46.49,1.86a303.8,303.8,0,0,0,49.53-17.19c15.12-6.68,31.29-14.79,43.56-26.07,5.84-5.37,10.14-12.56,14.89-18.85,3.5-4.64,7.12-9.17,10.48-13.93,4.07-5.76,8.9-12.1,10.93-18.94-2.16,7.27-6.28,13.69-10.14,20.14-1.74,2.91-3.33,5.9-5.08,8.8-1.45,2.4-1.59,2-.43,4.14q3.42,6.16,6.87,12.31c1.11,2,4.53,6,4.64,8.32.08,1.69-2.14,4.85-2.83,6.41q-2,4.62-4,9.25c-2.92,6.8-5.78,13.62-8.48,20.51-5,12.62-10.69,25.52-6.45,39.19,4.31,13.89,15.73,24.5,26.94,33.09a307.43,307.43,0,0,0,42.87,27.68c31.13,16.48,65.93,27,101.33,27.23,19.36.12,39-2.75,57.26-9.43,19.56-7.17,36.94-18.86,53.93-30.69C624,648.77,620.58,646.95,617.22,645Z"/><path class="cls-3" d="M237.37,568.58c6.56-.86,13.56-4,19.86-6,7.16-2.27,14.27-4.69,21.26-7.43a331.37,331.37,0,0,1-41.7,12.89c-.15,0,.88.66,0,.34Q236.88,568.82,237.37,568.58Z"/><path class="cls-3" d="M236.85,568.69c-15.57,3-32.4,2-47-4.52-13.44-6-26.15-17.81-29.3-32.68-3.59-16.92,9-31.8,15.24-46.42,6.92-16.17,16.65-30.73,25.55-45.87,10.25-17.42,20-35.17,28-53.74a90.83,90.83,0,0,1-8.49,24.47c-4.61,8.76-9.63,17.31-14.73,25.79-9.34,15.54-20.65,30.57-27.43,47.47-5.78,14.41-18.63,28.64-17,45.06,1.51,15.65,15.33,28.52,28.81,34.95a68.1,68.1,0,0,0,27.15,6.39A70.61,70.61,0,0,0,230,569C231.23,568.78,236.1,567.39,236.85,568.69Z"/><path class="cls-3" d="M364.26,486.47c19.59-11.34,34.61-28.77,41.31-50.52,4.48-14.55,5.05-29.72,4.14-44.81-.05,24.35-8.68,49.93-22.1,70a116.15,116.15,0,0,1-10.72,13.72q-3,3.28-6.23,6.32C368.94,482.81,366.53,485.74,364.26,486.47Z"/><path class="cls-3" d="M363.31,486c24.18-24.21,38-64.19,23.47-97.06A138.83,138.83,0,0,1,388.06,421,102,102,0,0,1,382.81,448a65.24,65.24,0,0,1-6.17,12.95c-1.74,2.77-4.11,5.13-5.62,8C368.12,474.43,365.87,480.37,363.31,486Z"/><path class="cls-3" d="M360.14,493.88c29.92-4.12,48.4-30.41,60.24-55.84a172.56,172.56,0,0,1-18.44,25.41,128.65,128.65,0,0,1-19.5,18.65A78.18,78.18,0,0,1,371,489.4a57.93,57.93,0,0,1-6.52,2.87c-.95.35-1.91.63-2.86,1C361,493.41,359.16,493.36,360.14,493.88Z"/><path class="cls-3" d="M351.36,499.16s52.23,9.24,87.39-33.34C438.75,465.82,392.95,501.38,351.36,499.16Z"/><path class="cls-4" d="M218.25,461.57c-21.78,10.54-35.3,32.24-44,53.94,6.42.66,12.86,1.05,19.26,2,8.88,1.28,17.47,3,26.49,3a129,129,0,0,0,45.71-8.93,28.67,28.67,0,0,0,4.37-1.8c1.79-1.08,2-2.06,2.81-4.11q2.44-6,4.44-12.18t3.58-12.49c1-3.83,2.5-7.35.65-11-5.08-10-15.51-14.53-26.22-15.41C242.8,453.51,229.71,456.5,218.25,461.57Z"/><path class="cls-5" d="M290.84,469.59c-.15-5.59-6.74-10.14-11.09-12.61a47.13,47.13,0,0,0-19.14-5.68c-10.51-1-21.15-.37-31.26,2.81-13.24,4.17-24.81,12.34-34.68,22a201.5,201.5,0,0,0-25.29,29.82c-2.46,3.59-4.73,7.65.8,9,.81.2,3.37,1,4.11.61s1.63-4,2.06-5q1.37-3.18,2.87-6.3a97.49,97.49,0,0,1,11.27-18.76c8-10.09,17.43-19.54,29.45-24.64a80.71,80.71,0,0,1,29.5-6.48c10.41-.21,21.72,2.19,28.75,10.48,1.59,1.88,3.62,4.49,4.23,6.92.86,3.46-1.32,8.67-2.25,12.14a183.42,183.42,0,0,1-8.72,25.22c3.72-1.68,8.46-3.59,11.13-6.85,2.21-2.7,3.26-6.57,4.23-9.84C288.94,485.3,291,477.12,290.84,469.59Z"/><path class="cls-2" d="M365.42,484.18c-13.76,27.57-37.13,47.53-64.46,61.15a297.32,297.32,0,0,1-53.25,20.4c-15.7,4.31-32.18,6.24-48.09,1.6C181.27,562,159.51,545.25,160.78,524c7.6,15.68,19.7,27.88,37.33,31.15a63.78,63.78,0,0,0,13.1.78A194.53,194.53,0,0,0,253.45,550c40.48-10,78.35-32.65,99.66-69.42,16.51-28.49,21.47-62,19.95-94.49,6.59,17,6.9,36,4.65,53.92C375.81,455,372.21,470.55,365.42,484.18Z"/><path class="cls-3" d="M377.86,444.91c-2.76,18.68-8.59,37.18-18.77,53.19-10.44,16.4-25.25,29.44-41.68,39.62C299.16,549,279,557,258.69,563.72c-19.28,6.34-39.56,10.36-59.51,4.37-18.6-5.59-40-22.61-38.4-44.1-.78,22.36,22.7,38.75,42.17,43.23,23.09,5.31,45.93-2.51,67.39-10.44,22.52-8.32,44.78-18.58,63.19-34.27,16.94-14.43,29.75-32.57,36.85-53.74,8.62-25.71,11.79-56.73,2.67-82.7C380.53,404.63,380.75,425.37,377.86,444.91Z"/><path class="cls-6" d="M30.14,802c-6.39,16-4.81,33.63,5.47,47.58,4.82,6.55,10,12.06,18.43,11.6,9.81-.53,19.64-3.66,28.94-6.6,12.88-4.07,25.52-8.89,38-14.06,12.27-5.08,24.41-10.53,36.26-16.53,8.07-4.09,16.68-8.26,23.73-14,1.56-1.28,3.38-2.61,1-3.84-3-1.56-8.57-.46-11.71-.28-15.56.93-31,2.93-46.59,4.09-20.86,1.55-41.85,2.15-62.49-1.86-7.59-1.47-15-3.63-22.4-5.73C37.21,801.91,31.15,799.46,30.14,802Z"/><path class="cls-6" d="M48.14,651c-14.53,6.46-25.42,22.09-25.76,38.11-.11,5,.78,12.72,4.94,16.23,2.41,2,6.07,2.11,9.06,2,11.69-.53,23.44-5.16,34.29-9.14,14.55-5.34,28.84-11.38,43.18-17.26,13.24-5.43,26.52-11,40.22-15.18,1.6-.49,13.14-2.26,7.51-5.09-5.95-3-14.1-3.36-20.56-4.27-11.39-1.61-22.84-2.76-34.3-3.74-12.63-1.08-25.29-1.95-38-2.34-4.46-.14-8.92-.24-13.38-.1C53.12,650.24,50.25,650.06,48.14,651Z"/><path class="cls-6" d="M97.64,957.5c-4.15-1.19-13.26-3.88-16.21,1.11-2.26,3.82.91,9.35,2.93,12.55C89.3,979,97.92,988.28,108,987.4c12.58-1.1,25.21-5.14,37.22-8.81a399.07,399.07,0,0,0,50.93-19.19c13.68-6.33,28.64-13.63,39.25-24.64,3.39-3.52,4.44-6.94-1.5-7.11-8.6-.24-17.67,2.6-25.92,4.67-13,3.28-26,7-38.92,10.66s-26.1,7.36-39.29,10.5c-9.06,2.15-18.79,4.8-28.19,4.51A16.05,16.05,0,0,1,97.64,957.5Z"/><path class="cls-6" d="M98.14,460c11.78,3.68,23.7,7.07,35.17,11.64,8.69,3.46,18.25,7.72,24.3,15.17,5.79,7.13,5.7,16,2.11,24.2-3.39,7.72-9.64,12.42-17.89,13.89-9.67,1.72-19.85.2-29.51-.82-12.42-1.32-24.8-1.71-37.24-2.57C68.39,521,58.36,521,53,516.2c-4.49-4-1.22-10,1.52-14,3.59-5.27,8.23-9.73,12.18-14.72,4.13-5.21,7.74-10.77,11.45-16.28C83.09,463.81,88.39,457,98.14,460Z"/><path class="cls-6" d="M316.54,371.07C301,373.7,293.33,356.14,298,343.33c3.78-10.34,13.17-9.42,22.16-8.56,30.69,3,61.36,9.61,91,17.83a406.47,406.47,0,0,1,53.55,18.46c14.79,6.42,29.57,14,41.81,24.68a75,75,0,0,1,7.26,7.17c.62.71,4,3.86,3.74,4.93-.39,1.44-3.93-.18-4.87-.5-12.52-4.23-24.63-9.72-37-14.24-44.4-16.16-92-27.75-139.55-24.35C329.55,369.21,323,370,316.54,371.07Z"/><path class="cls-6" d="M632.14,679c28.3,47.17,145,88,168,82S626.14,669,632.14,679Z"/><path class="cls-6" d="M556.14,882c27.3,41.86,125,89,148,81S541.14,859,556.14,882Z"/><path class="cls-6" d="M530,489c7.37,20.57,14.45,41.24,20.94,62.11,7.58,24.36,15.36,49.4,18.41,74.82.9,7.53,1,14.68-.74,22.07-1.86,7.93-4.11,15.77-6.47,23.56-5.51,18.22-11.38,36.89-20.16,53.84-1.81,3.49-5,11-9.44,12.06-4.66,1.09-5.7-7.06-6.18-10-2.21-13.7-1.38-28.11-.8-41.89a332.32,332.32,0,0,1,3.82-39.66c2.32-14.15,6.12-27.65,4-42.1-4.4-30.1-18-58.39-26.26-87.47-3.31-11.67-6.59-24-6.63-36.2,0-4.34.15-11.37,4.58-13.84,8.06-4.48,17.86,9.27,21.1,14.71A46.16,46.16,0,0,1,530,489Z"/></g></svg>