<svg xmlns="http://www.w3.org/2000/svg" viewBox="0 0 840 1096.88"><defs><style>.cls-1{fill:#fc9;}.cls-2{fill:#80664d;}.cls-3{fill:#bf9973;}.cls-4{fill:#ffebd6;}.cls-5{fill:#ffe0c2;}.cls-6{fill:#ffd6ad;}</style></defs><title>Hand</title><g id="Frame_10" data-name="Frame 10"><path class="cls-1" d="M828.51,740.76c-.42-3.59-2.16-4.77-5.32-6-5.13-1.93-10.13-4.09-15.15-6.28-10.68-4.65-21.42-9.18-32.11-13.8q-31.84-13.74-63.55-27.8c-21.11-9.39-42.21-18.82-63-28.91-8.89-4.31-18.23-8.38-26.74-13.42a14.4,14.4,0,0,1-7-8.66c-1.67-4.9-3.41-9.73-5.3-14.56-8.21-21.05-15.82-42.26-23.63-63.46-1.64-4.46-3.14-9.22-6.16-13A137.65,137.65,0,0,0,570,534a139.59,139.59,0,0,0-24.78-19.76c-9.09-5.62-18.94-9.64-28.64-14-10.21-4.64-20-10.19-30-15.22-19.66-9.89-39.82-18.89-60.84-25.49C404,452.62,381.9,446.44,360,440c-21.65-6.33-43.52-12.92-66-15.26-22.95-2.38-45.94.44-68.88,1.44-11.11.48-22.67.94-33.72-.6-10.27-1.43-19.42-6.8-29.82-8.08-20.11-2.47-43.07.63-62,7.75-18.39,6.91-31.93,19.8-43.74,35.14s-24,31.17-33,48.31-14.08,37.7-13.32,57a59,59,0,0,0,7.76,27.84,80.88,80.88,0,0,0,8.46,11.64c2.74,3.17,7.39,5.18,4.7,9.62-5.24,8.65-10.59,17.61-13.17,27.48-2.78,10.61-4,21.8-5.16,32.68-1.17,11.07-1.9,22.18-2.45,33.3-.54,10.88-1.81,22.08-.16,32.91,1.46,9.63,6.26,17.42,12.43,24.77,2.94,3.5,5.37,5.52,4,10.33s-3,9.55-4.05,14.52a105,105,0,0,0-2,33.9c1.25,11,4.44,21.67,6.6,32.51,4,19.89.66,41.79,15.78,57.69a49.08,49.08,0,0,0,10.91,8.47c3.92,2.29,8.53,3.23,12.35,5.45s3.49,7.46,3.88,11.45a126.28,126.28,0,0,0,2.84,16.75c2.46,10.37,6.78,20.05,10.12,30.14,2.71,8.2,4.46,16.67,7.45,24.78,6.14,16.67,17.23,31,36.32,31.46,4.59.11,9.2-.22,13.78.19,5.67.51,10.77,2.86,16.27,4.12,10.78,2.48,21.73-.19,32-3.54,20.68-6.73,41-15.53,60.76-24.5a158.88,158.88,0,0,0,14.49-7.26c4.19-2.44,5.91-4.89,11-4a43.27,43.27,0,0,0,15-.25c4.1-.75,9.48-4.39,13.58-3.41,5,1.19,9.24,3.77,14.5,4.42a53,53,0,0,0,15.93-.4c2.31-.43,4.57-1.14,6.92-1.38,2.78-.29,5,.56,7.69,1.12a35.23,35.23,0,0,0,16-.6c2.18-.57,4.15-1.6,6.28-2.27a24.25,24.25,0,0,1,7.81-.69,142.87,142.87,0,0,0,16.61-.46c9.94-1,20.57-2.05,30.09-5.22,9.19-3.06,16.11-10.19,24.71-14.49a59.49,59.49,0,0,1,29.85-6.54,69.69,69.69,0,0,1,30.22,8.21c9.26,5.07,18.24,10.76,27.37,16.07,38.75,22.54,76.8,46.38,113.62,71.95,8.88,6.16,17.37,12.92,26.2,19.11,3.43,2.4,6-.6,9.24-2.52,4.5-2.68,8.88-5.58,13.15-8.62a274.17,274.17,0,0,0,46.12-42.16,330,330,0,0,0,61.92-104.58c15.05-41.06,22-84.76,23.54-128.37A441.84,441.84,0,0,0,828.51,740.76Z"/><path class="cls-2" d="M313.47,740.68c-3.82,6.92-8.25,13.81-14.5,18.79-6.72,5.34-15.24,7.49-23.36,9.7a580.82,580.82,0,0,1-57.17,12.08c-19.32,3.23-38.73,5.87-58.18,8.22s-38.68,4.94-58.12,5.78c-20.18.87-40.69-.85-58.56-11.09,28,6,55.6,6.11,84,2.81s56.58-8,84.66-13c23.31-4.1,48.17-7.45,70.15-16.67,9.25-3.88,18.19-9.22,24.58-17.1,7.31-9,9.66-23.35,10.35-34.65,1.87-30.64-13.66-56.34-28.88-81.54,14.66,15,27.3,32.72,32.87,53.18A85.66,85.66,0,0,1,313.47,740.68Z"/><path class="cls-2" d="M289.06,764.75c-16.2,6.95-33.59,10.41-50.79,13.88-18.25,3.69-36.6,6.85-55,9.38q-27.94,3.83-56,6.67c-18.43,1.84-37.22,3.46-55.61.34C54.35,792.1,35.07,783.09,24,769c10.39,11.91,27,19.61,42.18,22.87,17.53,3.77,35.56,2.62,53.26.84,37.19-3.75,74.26-8.47,111.12-14.66C250.3,774.74,270.14,771.39,289.06,764.75Z"/><path class="cls-1" d="M614.46,631.92q-1.26-3.23-2.51-6.45Z"/><path class="cls-2" d="M212.85,487.14C183.18,473.65,154.19,458.87,121,457,153.74,453.82,186.22,469.74,212.85,487.14Z"/><path class="cls-2" d="M180,439c12.05,9.79,21.07,26.37,21.42,42C196.19,465.87,188.78,452.38,180,439Z"/><path class="cls-2" d="M264,641c-15,4.58-31,3.43-46.42,1.94-16.38-1.58-32.67-4-49-6.29-16.55-2.33-33.18-4.53-49.92-4.43C102.8,632.3,86.84,634,71.06,631c-14.72-2.82-29.86-8.53-40-20,19.2,19,48.52,20.95,74,19.15,34.51-2.43,68.15,4.64,102.14,9.4C225.87,642.17,245.32,645.43,264,641Z"/><path class="cls-2" d="M296.29,529.35c-6.43-16.54-13.84-33.72-26.56-46.48-15.51-15.57-36.65-18.54-57-10.88,14.84-5.6,31.7-8.12,46.79-2,13.65,5.54,23.66,17,30.7,29.62,7.32,13.12,12,27.8,15.29,42.41,3.75,16.78,4.09,34-1.35,50.5-4.44,13.45-10.27,27-20.7,37-11,10.44-25.4,14-40.19,14.09-34.31.29-68.34-8.67-102.36-12-19-1.86-37.81,1.27-56.8.07-16.94-1.07-34.17-5.46-47.79-16,.94-1.13,14.2,4.67,15.9,5.23,10.36,3.42,22,4,32.82,4.32,27,.72,53.72-3.34,80.46,2.1,13.12,2.67,26,6.17,39.38,7.35,12.76,1.12,25.83,2.95,38.64,2.92,22.05-.05,38.25-12.95,47.41-32.43C301.62,582.54,305.5,553.06,296.29,529.35Z"/><path class="cls-2" d="M311.49,789.21c-2-8.47-7.11-15.78-12.32-22.56,3.3,9.57,7.52,18.2,7.94,28.51a240.69,240.69,0,0,1-1.25,31.22c-.74,8.25-.74,18.82-4.59,26.34-4,7.88-12.75,13-20.55,16.49-18.4,8.24-38,13.37-56,22.5s-35.34,18.53-54.29,25.45c-22,8-44.8,13.25-67.75,17.61,19.72,1.26,39.14-2.46,58.06-7.73a267.25,267.25,0,0,0,53.93-21.85c17.11-9.09,35.29-15.39,53.07-23,15.85-6.74,29.39-15,37-31.07,4.37-9.28,6.2-19.44,7.35-29.56C313.23,810.87,314,799.8,311.49,789.21Z"/><path class="cls-2" d="M68,930c13.71,3.71,29.43,4.2,43.57,4.12,15-.08,29.64-3.39,44-7.26a274.89,274.89,0,0,0,40.79-14.17c12.91-5.77,25.16-12.92,38.24-18.32,15.3-6.31,31.19-11.17,46.12-18.36-12.67,7.29-26.44,12.28-39.84,18-13.11,5.62-25.5,12.69-38.31,18.94a243.56,243.56,0,0,1-40.76,15.17c-14.26,4-28.84,7.62-43.72,8a173.34,173.34,0,0,1-25.68-1.63C84.25,933.54,75.94,932.56,68,930Z"/><path class="cls-3" d="M302.79,963.14c-6.25,13.55-12.75,27.81-24,38s-25.31,16.55-39.15,22.59c-15.28,6.67-30.81,12.69-46.46,18.43-7.19,2.63-14.51,5.18-22.14,6.15S156.5,1048,149.2,1046a53.61,53.61,0,0,0-12.14-2.34c-3.86-.16-7.7.3-11.57.06-7.65-.46-14.83-2.88-20.65-8,7.08,1.92,13.8,4.18,21.19,4.65,7.71.49,15.43-.07,23.14.17,7.52.23,15,2.32,22.5,1.07,7.32-1.22,14.48-4.24,21.41-6.8,27-10,54.84-20.2,78.21-37.42C283.68,988.25,295.85,977.08,302.79,963.14Z"/><path class="cls-3" d="M618.53,664.5s-35,76-76,111C542.53,775.5,605.53,734.5,618.53,664.5Z"/><path class="cls-3" d="M447.53,985.29c-5,2.27-8.78,6.35-13.16,9.54-4.77,3.48-10.2,5-15.94,6.13-13.29,2.5-26.74,4.51-40.28,4-6.29-.24-11.58,2.42-17.66,3.54a34,34,0,0,1-9.57.46c-2.86-.29-5.6-1.73-8.46-1.73s-5.6,1.12-8.35,1.52a62.39,62.39,0,0,1-10.42.65,53.16,53.16,0,0,1-17.92-3.52c-3.12-1.21-3.77-2.33-6.93-.93a38.69,38.69,0,0,1-7.06,2.73A48.9,48.9,0,0,1,270,1008c10.31-6.19,17.73-15.92,23.56-26.26,5.73-10.15,11.58-21.38,14.53-32.69,6.87-26.38-10.49-54.14-27.35-73,7.12-3.79,14.21-8.38,18.31-15.55,8.77,26,18.81,51.37,37.22,72.24,17,19.26,38.82,33.36,63,41.92A213.89,213.89,0,0,0,447.53,985.29Z"/><path class="cls-3" d="M670,693s3,63-36,172C634,865,687,747,670,693Z"/><path class="cls-3" d="M639,679c7.74,33-.43,73-21,100C633.35,748.07,640,713.4,639,679Z"/><path class="cls-3" d="M321,742c14.15,24,37.5,42.31,61.51,55.75C410.9,813.62,442.17,819.23,474,812c-45.95,22.56-98.64-1.39-131.18-35.83C333.61,766.39,324.73,755.16,321,742Z"/><path class="cls-3" d="M538,856c-13.09,31.74-28.65,64-29,99-3.35-17.06.41-35,5.71-51.23A191.94,191.94,0,0,1,538,856Z"/><path class="cls-3" d="M36,714c-1,15.63-3.37,31.45,0,47C29.56,747.15,31.91,728.16,36,714Z"/><path class="cls-3" d="M62,720c-1.05,15.61-2.24,31.43,0,47-2.67-7.23-2.92-15.14-2.89-22.77C59.18,736.08,59.8,727.87,62,720Z"/><path class="cls-3" d="M52,711a290.19,290.19,0,0,0-2.23,29c-.39,9.66-1.19,19.38-.77,29-2.19-9.52-1.66-19.46-1.21-29.14S49,720.31,52,711Z"/><path class="cls-3" d="M37,529c-1.77,21-4.44,41.81-4,63C29.35,571.53,31.92,549,37,529Z"/><path class="cls-3" d="M58,529c-1.77,11.7-3.36,23.42-4.55,35.19C52.35,575.41,51.14,586.72,52,598c-2.42-11.17-1.65-22.76-.53-34A193.24,193.24,0,0,1,58,529Z"/><path class="cls-3" d="M48,856c0,8.26.18,16.58,1.52,24.75s4.4,16,5.48,24.25c-2.73-7.64-5.93-15.16-7.33-23.2A71.32,71.32,0,0,1,48,856Z"/><path class="cls-3" d="M60,860c1,16.57,4.62,32.79,8,49C61.76,894.23,57.82,876,60,860Z"/><path class="cls-3" d="M103,983c4.71,15.08,7.51,30.93,15,45-4.87-5.57-7.57-12.72-9.81-19.66A113,113,0,0,1,103,983Z"/><path class="cls-3" d="M118,983a210.8,210.8,0,0,1,7.36,20.77c1.93,6.12,3.3,12.68,6.64,18.23-4.56-4.46-6.43-11.08-8.32-17A165.3,165.3,0,0,1,118,983Z"/><path class="cls-1" d="M398.57,399c1,11.1-2.26,22.25-5.19,32.85-3,10.94-6.69,21.68-10.6,32.33q-6,16.22-12.69,32.15c-2.14,5.09-4.44,10.08-6.78,15.09-2.21,4.72-5.26,9.68-4.34,15.07,3.31,19.4,24.11,33.92,39.93,42.83,18.72,10.54,39.52,17.81,60.38,22.74,21.51,5.08,44.16,8,66.27,6.37,18.17-1.33,39.75-5.92,51.69-21,6.77-8.56,8-18.89,7.38-29.48-.74-11.85-1.77-23.7-2.84-35.52-2-21.62-4.36-43.21-7.73-64.67-7.59-48.37-19.81-98-44.47-140.72-22.42,15.66-43.43,33.37-65.17,50-10.86,8.28-21.8,16.46-33.05,24.18-5.58,3.83-11.23,7.57-17,11.12C411,394.32,402.84,400.58,398.57,399Z"/><path class="cls-1" d="M471.1,400.66A121.89,121.89,0,0,0,504,382.92a124.83,124.83,0,0,0,13.39-12.07c3.77-3.86,7.6-7.77,8.79-13.21,2.66-12.16,6.58-25.18,5.68-37.73-.89-12.26-5.79-24.35-12.12-34.77-5.53-9.1-12.51-17.24-21.57-23-10.5-6.64-23-10.28-34.41-14.92-23.94-9.71-45.83-24.2-68-37.38-11.28-6.71-22.36-13.05-34.41-18.29-11.51-5-22.07-12.73-34.74-14.6-22.42-3.31-40,16.75-46.43,36.15-7.49,22.47-2.31,45,5.3,66.66,8.27,23.57,18.24,47.67,34,67.34s37.95,33,60.33,43.84,47.46,18,72.45,14.44A90.78,90.78,0,0,0,471.1,400.66Z"/><path class="cls-2" d="M278.94,254c.94,6.86,3.91,13.3,6.09,19.82,2.38,7.13,4.77,14.23,7.56,21.21a327.79,327.79,0,0,1-13.14-41.62c0-.06-.68,1-.34,0Z"/><path class="cls-2" d="M278.82,253.44c-3.28-16.35-2.12-34.14,5.27-49.25,6.33-13,18.06-25,32.8-27.51,15.73-2.66,29.38,8,42.86,14.19,16.1,7.39,31.07,16.18,46.33,25.13,18.1,10.61,36.6,20.67,55.91,28.89-36.28-7.29-63.2-35.66-96.67-49.5-14-5.79-27.55-17.38-43.32-17.46S293.54,190,286.24,202.81a66,66,0,0,0-8.19,27,71.59,71.59,0,0,0,.25,15.2C278.49,246.57,280.52,252.45,278.82,253.44Z"/><path class="cls-3" d="M446.94,397.21c-32.45-2.61-64.3-13.33-90-33.59a164.35,164.35,0,0,1-34.46-36.85c-4.94-7.3-8.42-15.35-12.82-23s-9.16-14.74-13-22.62a205,205,0,0,1-18-59.31c-4,21,2.43,42.18,9.42,61.78,6.55,18.37,14.62,36.41,25.5,52.65,18.72,27.93,46.52,49.87,79,59.15,21.52,6.14,45.48,9.08,67.23,2.44Q453.38,397.72,446.94,397.21Z"/><path class="cls-2" d="M400.79,398.38C381,394,362,386,346,373.39a160.07,160.07,0,0,1-38.85-44.69c-10.65-18.18-18.55-37.9-24.74-58-5.95-19.32-9.09-40.7-1.49-60,6.67-17,22.21-34.92,42.11-33.55-20.79-.6-35.87,19.23-41.56,37.26-7.66,24.27.8,49.74,9.44,72.52,8.47,22.34,18.75,44.3,34.34,62.62,14.53,17.07,32.46,31.51,53.29,40.11,25.3,10.44,54.41,15.56,81.25,8.29C440.74,404,420.11,402.7,400.79,398.38Z"/><path class="cls-4" d="M396.28,220.51c-21.07-13.45-44.24-23.16-67.48-32.16,8.21,10.06,16,20.3,26.16,28.51s20.61,14.86,32.88,19.77c5.61,2.24,11.13,4.66,16.87,6.56,3.17,1,13.4,5.25,16.11,1.43,2.46-3.47-4-8.36-6.15-10.23A161.36,161.36,0,0,0,396.28,220.51Z"/><path class="cls-5" d="M426,244.73c-3.78-7.8-13.18-14.11-20.1-18.9a262.44,262.44,0,0,0-25-15.14c-8.68-4.68-17.54-9-26.45-13.23q-7-3.33-14-6.61c-1.93-.9-3.85-1.82-5.79-2.69-1.17-.52-4.2-2.39-5.62-2.41-4.34,0,2.44,3.53,3.7,4.09,3.47,1.55,7.09,2.82,10.61,4.25,9.43,3.85,18.8,7.88,28,12.36,15.77,7.71,32.31,16.81,44.85,29.32,1.9,1.9,7.11,6.7,4,9.44s-10.5-.24-13.74-1.51c-10.06-3.92-20.21-7.64-30.25-11.62a128.68,128.68,0,0,0,29.67,13.82C408.86,246.95,431.06,255.17,426,244.73Z"/><path class="cls-2" d="M403.22,403.57c14.8,10.65,32.54,17.18,50.84,17.58,19.37.42,37.81-6.34,54.75-15.21-17.07,7.63-36.79,10.66-55.39,10.21a121.47,121.47,0,0,1-28.3-4,127.85,127.85,0,0,1-13.46-4.5C409.25,406.72,404.62,406,403.22,403.57Z"/><path class="cls-2" d="M403.23,402.53c32.25,12.22,74.12,8.38,98.15-18.38a129.72,129.72,0,0,1-46.26,19.29c-8.4,1.62-17.21,2.19-25.67.62C420.63,402.42,412.2,402.54,403.23,402.53Z"/><path class="cls-6" d="M37,802a50.45,50.45,0,0,0-1.81,33c2.7,9,9,20.41,17.93,24.66,4.89,2.33,10.38,1.48,15.53.59A152.47,152.47,0,0,0,88.41,855c12.87-4.06,25.5-8.77,38-13.9,12.3-5.06,24.45-10.47,36.34-16.43,5.24-2.63,10.52-5.22,15.58-8.2a82,82,0,0,0,7.3-4.78c1.9-1.41,5.82-3.34,3.31-5.61s-10.12-.39-13.32-.18c-7,.48-13.93,1.1-20.89,1.78-13.37,1.3-26.73,2.62-40.15,3.15-15,.59-30.06.2-44.83-2.5-7.11-1.3-14.07-3.23-21-5.19C46.61,802.62,38.28,798.88,37,802Z"/><path class="cls-6" d="M55,651c-17,7.56-29.53,28.1-24.89,46.8,1,4,3,7.9,7.21,9.1,5.14,1.45,11.54,0,16.58-1.07,11.69-2.58,23-7.3,34.13-11.63,22.81-8.89,45.09-19.34,68.36-27,2-.67,15.12-2.92,13-6s-10.44-3.43-13.68-3.87q-8.76-1.18-17.55-2.24c-14.17-1.7-28.42-2.92-42.67-3.84-6.88-.44-13.77-.79-20.66-1-3.62-.11-7.25-.17-10.87-.12C61.09,650.17,57.7,649.82,55,651Z"/><path class="cls-6" d="M104.53,957.5c-6.63-1.89-20.09-3.91-16.35,7.62,2.69,8.3,10.62,17.47,18.63,20.89,5.18,2.21,10.55,1.28,15.93.35a170.46,170.46,0,0,0,18.71-4.55c12.78-3.73,25.48-7.8,37.94-12.51,11.37-4.31,22.54-9.15,33.43-14.56,9.83-4.88,19.55-10.45,27.54-18.07,1.9-1.81,6.76-5.9,3.47-8.42-1.74-1.33-5.68-.62-7.64-.46a73.6,73.6,0,0,0-10.81,1.85c-12.42,2.91-24.73,6.38-37,9.83-14.06,4-28.09,8-42.24,11.66-7,1.8-14.09,3.6-21.2,5.07C118.69,957.5,110.83,959.3,104.53,957.5Z"/><path class="cls-6" d="M105,460c17.06,5.33,40.61,7.14,47.4,26.57a77.34,77.34,0,0,1,4.16,23.08c.15,8.46-4.5,13.58-12.8,15s-17.51-.16-25.93-.83c-10.23-.81-20.46-1.67-30.72-2-8.23-.24-18,.1-25.32-4.31-8.42-5.07-1.33-14.63,3.07-19.88A327.06,327.06,0,0,0,85.13,471C89.84,464.09,95.73,457.09,105,460Z"/><path class="cls-6" d="M452.68,261.26C441.5,239.82,521.57,271,507.06,306,501.65,319.1,476.84,307.62,452.68,261.26Z"/><path class="cls-6" d="M639,679c28.3,47.17,145,88,168,82S633,669,639,679Z"/><path class="cls-6" d="M563,882c27.3,41.86,125,89,148,81S548,859,563,882Z"/><path class="cls-6" d="M380.43,569c-5.64,28-43.6,156-44.33,56C335.78,581,386.07,541,380.43,569Z"/><path class="cls-2" d="M321.69,176.52c14.47,0,27.58,9.66,40.38,15.38,17.44,7.79,33.65,17.82,50,27.55,16.15,9.58,32,19.9,49.48,26.92,14.83,5.95,31.29,9.89,43.62,20.62,14.47,12.59,19.45,30.4,28.08,46.76,17.62,33.39,28.09,69.86,35.51,106.73,8,39.79,12.76,80.4,15.42,120.89.29,4.47.2,9,1.11,13.42s2.94,8.75,4.58,13c3.54,9.2,6.88,18.48,10.4,27.68,3.68,9.6,7.53,19.14,11.15,28.76,2.41,6.39,3.65,14.05,9.1,18.72,6.5,5.57,15.62,8.7,23.26,12.33,8.51,4,17,8.19,25.52,12.15,18.58,8.63,37.3,16.94,56,25.21s37.26,16.32,55.94,24.36c8.79,3.79,17.61,7.53,26.4,11.34,4.93,2.14,9.92,4.06,14.88,6.11,3.12,1.29,5.47,2.61,5.9,6.25a430.28,430.28,0,0,1,2.56,55c-.8,68.31-15.77,137.46-50.92,196.6a315.15,315.15,0,0,1-64.25,76.95,229.6,229.6,0,0,1-20.06,15.78c-4.35,3-10.64,8.71-16.34,8.71a7.51,7.51,0,0,1-4.54-1.48c-14.73-10.74-29.37-21.49-44.56-31.63q-46.31-30.91-94.54-58.84c-14.74-8.55-29.59-19.72-46.66-22.79a66.15,66.15,0,0,0-11.7-1c-12.3,0-24.78,3.4-34.7,10.54-6.56,4.72-12.42,9.44-20.39,11.59-8.48,2.29-17.56,3.2-26.26,4.17a135.56,135.56,0,0,1-14.34.91h-.15c-2,0-4-.17-6-.17a19.83,19.83,0,0,0-4.33.41c-4.26.95-8,2.91-12.46,3.41a24.11,24.11,0,0,1-2.71.15,43,43,0,0,1-8.54-1.06,24.62,24.62,0,0,0-4.89-.46c-6.46,0-12.89,2.08-19.47,2.08l-1.13,0a37.56,37.56,0,0,1-12.45-2.19c-2.92-1.18-5.37-3-8.48-3a8.18,8.18,0,0,0-1.29.1c-3.85.61-7.18,3.06-11.08,3.76a46.28,46.28,0,0,1-8.16.76,38.42,38.42,0,0,1-4-.21,43.1,43.1,0,0,0-4.46-.47,7.92,7.92,0,0,0-2.36.33c-1.88.58-3.66,2-5.37,2.95q-5.41,3.05-11,5.8a524,524,0,0,1-50.21,21.33c-8.25,3.06-16.61,6.25-25.18,8.29a45.72,45.72,0,0,1-10.73,1.29,59.55,59.55,0,0,1-15.26-2.22c-9-2.37-17.23-2-26.44-2.38a31.89,31.89,0,0,1-19.27-6.75c-11.58-9.21-16.46-23.85-20.35-37.54C81.1,982.16,73.4,965.74,70.3,948c-.74-4.26-1.24-8.5-1.57-12.81-.25-3.28-1.06-5.4-4.13-6.88s-6.42-2.12-9.46-3.75a50.6,50.6,0,0,1-8.37-5.6c-11.54-9.54-16-22.86-17.42-37.33-.89-8.88-1.52-17.66-3.3-26.43-1.82-8.94-4.09-17.78-5.28-26.84a114.1,114.1,0,0,1-.46-27.6,111.9,111.9,0,0,1,2.55-14.06c.93-3.82,2.67-7.66,3.3-11.52.59-3.62-1.29-5.67-3.56-8.26a68.51,68.51,0,0,1-6.86-9.05C11.47,750.91,9.62,743,8.94,735,7.47,717.7,10,699.72,11.5,682.47s2.61-36.16,10.31-52.08a83.71,83.71,0,0,1,6-10.87c1.62-2.36,4.58-5.45,3.28-8.55-1.17-2.77-5.09-5.3-7-7.64A76.14,76.14,0,0,1,18,594.67c-8.39-14-9.67-28.81-7.83-44.7,1.89-16.26,6.44-31.59,14.81-45.7C34,489.12,44.75,475,55.41,461c10-13.17,21.16-25.09,36.28-32.37,15.56-7.49,33.17-10.54,50.3-11.49,2.28-.13,4.56-.2,6.84-.2a80.08,80.08,0,0,1,19.77,2.26c8.6,2.18,16.77,5.53,25.63,6.57a169.33,169.33,0,0,0,19.69,1.06c11.79,0,23.62-.93,35.31-1.76,8.55-.61,17.09-1,25.62-1a185.11,185.11,0,0,1,30.82,2.36c18.18,3.06,36,8.29,53.68,13.5,8.31,2.45,16.57,5.07,24.83,7.68a10,10,0,0,0,2.73.61c1.32,0,1.91-.88,2.88-3.2,1.34-3.22,1.84-6.81,2.77-10.17,2.28-8.16,4.71-16.5,5.58-25,.13-1.26,0-10.68,1.14-10.68h0a189.57,189.57,0,0,1-25.72-11.29c-16.06-8.41-31.83-18.14-44.87-30.86-12.61-12.31-21.85-27.53-29.48-43.29-8.4-17.34-15.59-35.68-20-54.47-4.07-17.53-4.18-36.21,3.54-52.78,6.34-13.6,18.09-26.78,33.55-29.45a31.4,31.4,0,0,1,5.35-.45m0-7a38.61,38.61,0,0,0-6.54.56c-15.76,2.72-30.22,15.2-38.7,33.39-7.57,16.24-9,36.06-4,57.32,4.11,17.69,10.81,36,20.48,55.94,9.46,19.52,19.27,33.9,30.89,45.25C339,376.84,357.63,387.39,370.31,394a203.88,203.88,0,0,0,21,9.63c-.07,1.44-.11,2.88-.13,4,0,.55,0,1.23,0,1.47-.76,7.31-2.87,14.86-4.91,22.16l-.44,1.56c-.37,1.32-.66,2.61-.95,3.86s-.53,2.33-.83,3.39c-7.42-2.35-15.09-4.76-22.71-7-17.54-5.17-35.67-10.52-54.5-13.69a191.41,191.41,0,0,0-32-2.45c-7.64,0-15.93.34-26.11,1.06l-3.31.24c-10.36.74-21.08,1.51-31.51,1.51a161.62,161.62,0,0,1-18.87-1c-5.22-.61-10.33-2.17-15.73-3.82-2.9-.89-5.91-1.8-9-2.59a86.6,86.6,0,0,0-21.49-2.47c-2.32,0-4.69.07-7.23.21-21,1.16-38.34,5.14-52.95,12.17-17.64,8.49-30,22.86-38.81,34.43C39.24,470.65,28.29,485,19,500.7,10.54,515,5.39,530.83,3.26,549.17,1,568.89,3.76,584.49,12,598.28a83.47,83.47,0,0,0,6.65,9.46,32.21,32.21,0,0,0,3.47,3.5c.51.47,1.24,1.13,1.8,1.69-.29.43-.64.9-.9,1.25s-.7,1-1,1.39a90.5,90.5,0,0,0-6.56,11.78c-7.78,16.09-9.33,34.76-10.7,51.24q-.14,1.65-.28,3.29c-.3,3.51-.65,7.15-1,10.66-1.37,14.1-2.79,28.68-1.57,43,.88,10.32,3.43,18.8,7.81,25.91a73.79,73.79,0,0,0,7.55,10l.16.18a17,17,0,0,1,1.78,2.24s0,.07,0,.12a39.18,39.18,0,0,1-1.58,5.65c-.56,1.7-1.15,3.47-1.6,5.34a118.09,118.09,0,0,0-2.71,14.94,121.47,121.47,0,0,0,.48,29.3c.88,6.68,2.31,13.2,3.69,19.51.56,2.56,1.14,5.22,1.67,7.81a198.75,198.75,0,0,1,2.74,21q.22,2.35.46,4.71c1.87,18.74,8.39,32.49,19.93,42a57.72,57.72,0,0,0,9.53,6.37A40.11,40.11,0,0,0,58,933.21a34.22,34.22,0,0,1,3.59,1.37l0,0a9.65,9.65,0,0,1,.13,1.08c.37,4.82.91,9.22,1.65,13.47,2,11.64,5.9,22.63,9.64,33.27,2.18,6.2,4.44,12.61,6.24,18.94,4.1,14.4,9.57,30.64,22.73,41.11a39,39,0,0,0,23.36,8.27c1.86.07,3.67.11,5.42.15,7,.17,13,.31,19.5,2a66.12,66.12,0,0,0,17,2.45,52.53,52.53,0,0,0,12.35-1.48,211.81,211.81,0,0,0,24.54-8l1.45-.54a529.63,529.63,0,0,0,50.88-21.62c4.06-2,7.76-4,11.32-6,.69-.39,1.31-.78,1.91-1.17a14.69,14.69,0,0,1,2.08-1.19,1.28,1.28,0,0,1,.3,0,16.54,16.54,0,0,1,2,.21c.58.08,1.17.16,1.76.23a45.67,45.67,0,0,0,4.78.25,53.4,53.4,0,0,0,9.39-.87,31.19,31.19,0,0,0,7-2.34,19,19,0,0,1,3.94-1.4l.19,0a10.07,10.07,0,0,1,3,1.16c.85.41,1.81.88,2.87,1.31,5.22,2.1,10.95,2.54,14.8,2.69l1.4,0a67.81,67.81,0,0,0,10.93-1.13,55.67,55.67,0,0,1,8.54-.94,17.59,17.59,0,0,1,3.51.32,48.82,48.82,0,0,0,9.92,1.2,31.3,31.3,0,0,0,3.49-.19,41.78,41.78,0,0,0,8.82-2.22,44.76,44.76,0,0,1,4.38-1.31,13,13,0,0,1,2.81-.24c.86,0,1.77,0,2.73.08s2.15.09,3.28.09h.19a142.38,142.38,0,0,0,15.07-1l1.58-.18c8.48-.94,17.25-1.9,25.73-4.19s14.55-6.77,20.55-11.14l2.11-1.53c8.25-5.94,19.12-9.22,30.61-9.22A59.2,59.2,0,0,1,488,986c12.14,2.19,23.66,9.29,34.8,16.16,3.14,1.93,6.38,3.94,9.59,5.8,32.23,18.69,63.91,38.41,94.17,58.6,14,9.37,27.91,19.49,41.33,29.28l3,2.18a14.41,14.41,0,0,0,8.66,2.82c6.93,0,13-4.5,17.82-8.12.91-.68,1.77-1.32,2.5-1.83a233.39,233.39,0,0,0,20.67-16.26A322,322,0,0,0,786.17,996c17.23-29,30.39-61.53,39.12-96.75a452.19,452.19,0,0,0,12.78-103.34,435.38,435.38,0,0,0-2.61-55.94c-.95-8.09-7.42-10.77-10.18-11.91-1.83-.76-3.66-1.5-5.5-2.23-3.06-1.23-6.23-2.51-9.27-3.83-5.17-2.24-10.42-4.49-15.51-6.67l-10.9-4.68c-20-8.6-38.25-16.56-55.88-24.34-20.85-9.2-38.34-17-55.92-25.15-5.5-2.56-11.08-5.24-16.48-7.83l-9-4.3c-2-.93-4-1.83-6-2.69-5.71-2.5-11.61-5.09-15.73-8.63-2.67-2.29-4-6.48-5.43-10.92-.52-1.62-1.05-3.3-1.68-5-2.07-5.49-4.24-11-6.33-16.38-1.6-4.07-3.25-8.28-4.83-12.42-1.69-4.4-3.36-8.91-5-13.28-1.76-4.73-3.57-9.61-5.42-14.42-.41-1.07-.84-2.14-1.28-3.21a52.43,52.43,0,0,1-3-8.74,54.15,54.15,0,0,1-.79-8.54c-.05-1.28-.11-2.6-.2-3.93-2.94-44.6-8-84.44-15.55-121.81-8.9-44.19-20.39-78.7-36.18-108.62-2.21-4.19-4.24-8.62-6.2-12.91-5.76-12.6-11.72-25.63-23.48-35.86-10.38-9-22.91-13.53-35-17.89-3.68-1.32-7.16-2.57-10.58-3.95-13.87-5.56-27.1-13.55-39.9-21.27-2.82-1.7-5.73-3.46-8.61-5.17l-6-3.59c-14.29-8.52-29.06-17.33-44.73-24.33-3.22-1.44-6.48-3.15-9.95-5-9.82-5.16-21-11-33.29-11Z"/><path class="cls-2" d="M284.63,880.5C298,909,337,932,270,1009l4,3s40-41,39-73S284.63,880.5,284.63,880.5Z"/></g></svg>