<svg id="Frame_1" data-name="Frame 1" xmlns="http://www.w3.org/2000/svg" viewBox="0 0 840 1096.88"><defs><style>.cls-1{fill:#fc9;}.cls-2{fill:#80664d;}.cls-3{fill:#bf9973;}.cls-4{fill:#ffd6ad;}.cls-5{fill:#ffebd6;}.cls-6{fill:#ffe0c2;}</style></defs><title>Hand</title><path class="cls-1" d="M799,956c-17.26,38.66-41.48,74.44-72.31,103.57a268.91,268.91,0,0,1-26.17,21.85q-6.73,4.91-13.83,9.26c-2.84,1.74-6.08,5.42-9.4,3.28-4.45-2.87-8.51-6.81-12.8-10q-7.22-5.32-14.63-10.37c-9.64-6.61-19.46-13-29.26-19.35q-29.94-19.51-60.54-38-15.27-9.23-30.71-18.18c-9.5-5.49-19.23-12.29-29.53-16.15-21-7.89-43.4-3.21-61.29,9.52-3.7,2.63-7.16,5.27-11.42,7a70.87,70.87,0,0,1-15.54,3.79c-11,1.7-22.37,3.47-33.58,2.95-5.43-.25-9.14.93-14.32,2.52a29.22,29.22,0,0,1-16.65.44c-5.58-1.6-9.73-.13-15.36.8a50.86,50.86,0,0,1-16.69-.14,39,39,0,0,1-7.61-2.06c-1.83-.72-3.86-2.51-5.86-2.56s-4.31,1.84-6.12,2.5a40,40,0,0,1-9,1.93,48.84,48.84,0,0,1-9.12.18c-2.1-.15-4.61-.95-6.67-.53-1.66.34-3.13,1.76-4.53,2.64-2.82,1.78-5.86,3.23-8.83,4.74-20.85,10.57-42.58,19.22-64.63,26.91-10.53,3.67-21.91,7.59-33.22,5.76-5.17-.84-10-3-15.09-4.05-5.5-1.12-11-.47-16.59-.52-22.58-.17-34.35-19.11-40.38-38.64-3.49-11.28-6.75-22.47-10.63-33.63a144.93,144.93,0,0,1-7.51-32.77c-.44-4.16-.24-8.21-4.42-10.25s-8.66-3.24-12.8-5.81c-8.6-5.34-15.44-12.93-19-22.5-3.78-10.26-3.62-21.27-5-32-1.49-11.44-4.38-22.56-6.57-33.86a104.88,104.88,0,0,1-1.1-35.49,132.82,132.82,0,0,1,3.1-15.08c1.26-4.75,5-10.57,1.27-14.76-7-7.8-12.93-15.2-14.85-25.85-2-10.85-.82-22.36-.3-33.3.56-11.95,1.46-23.88,2.79-35.76,1.29-11.49,2.32-23.64,5.6-34.76,1.54-5.23,4.17-10.05,6.84-14.78,1.09-1.94,2.14-3.92,3.35-5.79,1.09-1.68,3.19-3.65,3.47-5.71.44-3.3-5.78-7.69-7.86-10.25a70.57,70.57,0,0,1-9.3-14.56c-9.19-19.71-5-44,1.62-64,6.89-20.88,21.5-39.24,34.41-56.72,12.13-16.43,25.48-32.2,44.65-40.49,19.81-8.57,43.47-11.68,64.93-9.89,10.93.91,20.12,6.73,30.74,8.57s21.78.83,32.52.63c3.31-.06,9.42,1.5,11.9-1.36,2.25-2.6,2.21-7.46,3-10.67,2.67-10.67,4.41-21.86,10-31.48,9.63-16.46,27.15-28.63,45.11-34.37,10.92-3.49,22-2.09,33.2-1.31,12,.85,24.11.63,36.17.34s24-.63,35.91.87,23.57,4.54,35.18,7.45c22.42,5.62,45,12.17,65.79,22.37,16.76,8.21,31.1,20.47,40.88,36.45,11.67,19.08,17.42,41.15,22.45,62.74,10.67,45.8,26.39,89.9,43.38,133.68q3.14,8.1,6.31,16.2c1.61,4.14,2.61,9.2,5.16,12.87,2.72,3.91,8.6,6.41,12.67,8.61,4.89,2.63,9.91,5,14.92,7.37q33.28,15.78,66.91,30.77Q745.56,701.67,779,716q16.39,7.07,32.81,14.06c4.43,1.89,9.51,3.24,13.77,5.39s3.39,9.16,3.78,13.32a454,454,0,0,1-9.09,142.48A346.13,346.13,0,0,1,799,956Z"/><path class="cls-2" d="M313.47,740.68c-3.82,6.92-8.25,13.81-14.5,18.79-6.72,5.34-15.24,7.49-23.36,9.7a580.82,580.82,0,0,1-57.17,12.08c-19.32,3.23-38.73,5.87-58.18,8.22s-38.68,4.94-58.12,5.78c-20.18.87-40.69-.85-58.56-11.09,28,6,55.6,6.11,84,2.81s56.58-8,84.66-13c23.31-4.1,48.17-7.45,70.15-16.67,9.25-3.88,18.19-9.22,24.58-17.1,7.31-9,9.66-23.35,10.35-34.65,1.87-30.64-13.66-56.34-28.88-81.54,14.66,15,27.3,32.72,32.87,53.18A85.66,85.66,0,0,1,313.47,740.68Z"/><path class="cls-2" d="M289.06,764.75c-16.2,6.95-33.59,10.41-50.79,13.88-18.25,3.69-36.6,6.85-55,9.38q-27.94,3.83-56,6.67c-18.43,1.84-37.22,3.46-55.61.34C54.35,792.1,35.07,783.09,24,769c10.39,11.91,27,19.61,42.18,22.87,17.53,3.77,35.56,2.62,53.26.84,37.19-3.75,74.26-8.47,111.12-14.66C250.3,774.74,270.14,771.39,289.06,764.75Z"/><path class="cls-1" d="M236.94,419.13c.17-.65.36-1.34.56-2.07C237.32,417.75,237.13,418.44,236.94,419.13Z"/><path class="cls-1" d="M237.5,417.06c.27-1,.54-2,.79-2.93C238,415.17,237.75,416.14,237.5,417.06Z"/><path class="cls-2" d="M212.85,487.14C183.18,473.65,154.19,458.87,121,457,153.74,453.82,186.22,469.74,212.85,487.14Z"/><path class="cls-2" d="M180,439c12.05,9.79,21.07,26.37,21.42,42C196.19,465.87,188.78,452.38,180,439Z"/><path class="cls-2" d="M264,641c-15,4.58-31,3.43-46.42,1.94-16.38-1.58-32.67-4-49-6.29-16.55-2.33-33.18-4.53-49.92-4.43C102.8,632.3,86.84,634,71.06,631c-14.72-2.82-29.86-8.53-40-20,19.2,19,48.52,20.95,74,19.15,34.51-2.43,68.15,4.64,102.14,9.4C225.87,642.17,245.32,645.43,264,641Z"/><path class="cls-2" d="M296.29,529.35c-6.43-16.54-13.84-33.72-26.56-46.48-15.51-15.57-36.65-18.54-57-10.88,14.84-5.6,31.7-8.12,46.79-2,13.65,5.54,23.66,17,30.7,29.62,7.32,13.12,12,27.8,15.29,42.41,3.75,16.78,4.09,34-1.35,50.5-4.44,13.45-10.27,27-20.7,37-11,10.44-25.4,14-40.19,14.09-34.31.29-68.34-8.67-102.36-12-19-1.86-37.81,1.27-56.8.07-16.94-1.07-34.17-5.46-47.79-16,.94-1.13,14.2,4.67,15.9,5.23,10.36,3.42,22,4,32.82,4.32,27,.72,53.72-3.34,80.46,2.1,13.12,2.67,26,6.17,39.38,7.35,12.76,1.12,25.83,2.95,38.64,2.92,22.05-.05,38.25-12.95,47.41-32.43C301.62,582.54,305.5,553.06,296.29,529.35Z"/><path class="cls-1" d="M244,392a34.76,34.76,0,0,1,5.17-10.8c-3.16,4.69-5,10.13-6.37,15.56Z"/><path class="cls-1" d="M331.11,347.45l2.07.09Q332.15,347.51,331.11,347.45Z"/><path class="cls-1" d="M397,348c2.54.47,5.09.93,7.63,1.42a111.47,111.47,0,0,0-20.72-2C388.31,347.39,392.72,347.21,397,348Z"/><path class="cls-1" d="M531,401a124.68,124.68,0,0,1,7.26,10.16,83.86,83.86,0,0,0-22.21-23.42A65.81,65.81,0,0,1,531,401Z"/><path class="cls-1" d="M543.39,419.78q1.2,2.19,2.29,4.4C544.94,422.7,544.18,421.24,543.39,419.78Z"/><path class="cls-1" d="M546.4,425.66C560.15,454,564.11,484.86,571,511,563.21,482.33,559.35,452.6,546.4,425.66Z"/><path class="cls-1" d="M574.28,522.12c5.85,18.66,15.73,45.69,24.62,69.27C590.24,568.49,581.51,545.52,574.28,522.12Z"/><path class="cls-1" d="M614.46,631.92q-1.26-3.23-2.51-6.45Z"/><path class="cls-2" d="M311.49,789.21c-2-8.47-7.11-15.78-12.32-22.56,3.3,9.57,7.52,18.2,7.94,28.51a240.69,240.69,0,0,1-1.25,31.22c-.74,8.25-.74,18.82-4.59,26.34-4,7.88-12.75,13-20.55,16.49-18.4,8.24-38,13.37-56,22.5s-35.34,18.53-54.29,25.45c-22,8-44.8,13.25-67.75,17.61,19.72,1.26,39.14-2.46,58.06-7.73a267.25,267.25,0,0,0,53.93-21.85c17.11-9.09,35.29-15.39,53.07-23,15.85-6.74,29.39-15,37-31.07,4.37-9.28,6.2-19.44,7.35-29.56C313.23,810.87,314,799.8,311.49,789.21Z"/><path class="cls-2" d="M68,930c13.71,3.71,29.43,4.2,43.57,4.12,15-.08,29.64-3.39,44-7.26a274.89,274.89,0,0,0,40.79-14.17c12.91-5.77,25.16-12.92,38.24-18.32,15.3-6.31,31.19-11.17,46.12-18.36-12.67,7.29-26.44,12.28-39.84,18-13.11,5.62-25.5,12.69-38.31,18.94a243.56,243.56,0,0,1-40.76,15.17c-14.26,4-28.84,7.62-43.72,8a173.34,173.34,0,0,1-25.68-1.63C84.25,933.54,75.94,932.56,68,930Z"/><path class="cls-3" d="M302.79,963.14c-6.25,13.55-12.75,27.81-24,38s-25.31,16.55-39.15,22.59c-15.28,6.67-30.81,12.69-46.46,18.43-7.19,2.63-14.51,5.18-22.14,6.15S156.5,1048,149.2,1046a53.61,53.61,0,0,0-12.14-2.34c-3.86-.16-7.7.3-11.57.06-7.65-.46-14.83-2.88-20.65-8,7.08,1.92,13.8,4.18,21.19,4.65,7.71.49,15.43-.07,23.14.17,7.52.23,15,2.32,22.5,1.07,7.32-1.22,14.48-4.24,21.41-6.8,27-10,54.84-20.2,78.21-37.42C283.68,988.25,295.85,977.08,302.79,963.14Z"/><path class="cls-1" d="M241.77,400.91c.29-1.16.58-2.31.88-3.45Z"/><path class="cls-1" d="M283.39,352.61c-13.5,6.63-25.91,17.07-33.2,27.17C258.46,368.18,270.63,358.82,283.39,352.61Z"/><path class="cls-1" d="M289.21,350a63.47,63.47,0,0,1,11.43-3.44A65.65,65.65,0,0,0,289.21,350Z"/><path class="cls-1" d="M300.64,346.58c1.18-.24,2.37-.43,3.57-.58C303,346.15,301.84,346.35,300.64,346.58Z"/><path class="cls-1" d="M311.11,345.66c6.7.12,13.31,1.41,20,1.79C324.44,347.12,317.77,345.86,311.11,345.66Z"/><path class="cls-1" d="M377.57,347.47c-9.58.16-21.27.49-32.94.36C355.61,347.93,366.59,347.61,377.57,347.47Z"/><path class="cls-1" d="M405.13,349.51l1.16.23Q404,349.31,405.13,349.51Z"/><path class="cls-1" d="M464.8,364.62c-1.31-.43-2.63-.84-3.94-1.25Z"/><path class="cls-1" d="M460.86,363.37c-16.8-5.24-33.12-9.13-45.19-11.71C430.89,354.88,446,358.69,460.86,363.37Z"/><path class="cls-1" d="M412.06,350.9l3.61.76Z"/><path class="cls-1" d="M481.46,370.5a186.89,186.89,0,0,1,28.12,13.15A196.5,196.5,0,0,0,481.46,370.5Z"/><path class="cls-3" d="M618.53,664.5s-35,76-76,111C542.53,775.5,605.53,734.5,618.53,664.5Z"/><path class="cls-3" d="M447.53,985.29c-5,2.27-8.78,6.35-13.16,9.54-4.77,3.48-10.2,5-15.94,6.13-13.29,2.5-26.74,4.51-40.28,4-6.29-.24-11.58,2.42-17.66,3.54a34,34,0,0,1-9.57.46c-2.86-.29-5.6-1.73-8.46-1.73s-5.6,1.12-8.35,1.52a62.39,62.39,0,0,1-10.42.65,53.16,53.16,0,0,1-17.92-3.52c-3.12-1.21-3.77-2.33-6.93-.93a38.69,38.69,0,0,1-7.06,2.73A48.9,48.9,0,0,1,270,1008c10.31-6.19,17.73-15.92,23.56-26.26,5.73-10.15,11.58-21.38,14.53-32.69,6.87-26.38-10.49-54.14-27.35-73,7.12-3.79,14.21-8.38,18.31-15.55,8.77,26,18.81,51.37,37.22,72.24,17,19.26,38.82,33.36,63,41.92A213.89,213.89,0,0,0,447.53,985.29Z"/><path class="cls-3" d="M670,693s3,63-36,172C634,865,687,747,670,693Z"/><path class="cls-3" d="M639,679c7.74,33-.43,73-21,100C633.35,748.07,640,713.4,639,679Z"/><path class="cls-3" d="M321,742c14.15,24,37.5,42.31,61.51,55.75C410.9,813.62,442.17,819.23,474,812c-45.95,22.56-98.64-1.39-131.18-35.83C333.61,766.39,324.73,755.16,321,742Z"/><path class="cls-3" d="M538,856c-13.09,31.74-28.65,64-29,99-3.35-17.06.41-35,5.71-51.23A191.94,191.94,0,0,1,538,856Z"/><path class="cls-3" d="M36,714c-1,15.63-3.37,31.45,0,47C29.56,747.15,31.91,728.16,36,714Z"/><path class="cls-3" d="M62,720c-1.05,15.61-2.24,31.43,0,47-2.67-7.23-2.92-15.14-2.89-22.77C59.18,736.08,59.8,727.87,62,720Z"/><path class="cls-3" d="M52,711a290.19,290.19,0,0,0-2.23,29c-.39,9.66-1.19,19.38-.77,29-2.19-9.52-1.66-19.46-1.21-29.14S49,720.31,52,711Z"/><path class="cls-3" d="M37,529c-1.77,21-4.44,41.81-4,63C29.35,571.53,31.92,549,37,529Z"/><path class="cls-3" d="M58,529c-1.77,11.7-3.36,23.42-4.55,35.19C52.35,575.41,51.14,586.72,52,598c-2.42-11.17-1.65-22.76-.53-34A193.24,193.24,0,0,1,58,529Z"/><path class="cls-3" d="M48,856c0,8.26.18,16.58,1.52,24.75s4.4,16,5.48,24.25c-2.73-7.64-5.93-15.16-7.33-23.2A71.32,71.32,0,0,1,48,856Z"/><path class="cls-3" d="M60,860c1,16.57,4.62,32.79,8,49C61.76,894.23,57.82,876,60,860Z"/><path class="cls-3" d="M103,983c4.71,15.08,7.51,30.93,15,45-4.87-5.57-7.57-12.72-9.81-19.66A113,113,0,0,1,103,983Z"/><path class="cls-3" d="M118,983a210.8,210.8,0,0,1,7.36,20.77c1.93,6.12,3.3,12.68,6.64,18.23-4.56-4.46-6.43-11.08-8.32-17A165.3,165.3,0,0,1,118,983Z"/><path class="cls-2" d="M309.71,346.24c5.59,0,11.22.55,16.88,1,6.34.45,12.69.6,19,.6,5.71,0,11.42-.12,17.12-.26,5-.12,10.08-.25,15.11-.25a165.46,165.46,0,0,1,20.79,1.12c11.9,1.51,23.57,4.54,35.18,7.45,22.42,5.62,45,12.17,65.79,22.37,16.76,8.21,31.1,20.47,40.88,36.45,11.67,19.08,17.42,41.15,22.45,62.74,10.67,45.8,26.39,89.9,43.38,133.68q3.14,8.1,6.31,16.2c1.61,4.14,2.61,9.2,5.16,12.87,2.72,3.91,8.6,6.41,12.67,8.61,4.89,2.63,9.91,5,14.92,7.37q33.28,15.78,66.91,30.77Q745.56,701.67,779,716q16.39,7.07,32.81,14.06c4.43,1.89,9.51,3.24,13.77,5.39s3.39,9.16,3.78,13.32a454,454,0,0,1-9.09,142.48A346.13,346.13,0,0,1,799,956c-17.26,38.66-41.48,74.44-72.31,103.57a268.92,268.92,0,0,1-26.17,21.85q-6.73,4.91-13.83,9.26c-2.23,1.37-4.71,3.93-7.28,3.93a3.84,3.84,0,0,1-2.13-.65c-4.45-2.87-8.51-6.81-12.8-10q-7.22-5.32-14.63-10.37c-9.64-6.61-19.46-13-29.26-19.35q-29.94-19.51-60.54-38-15.27-9.23-30.71-18.18c-9.5-5.49-19.23-12.29-29.53-16.15a60.47,60.47,0,0,0-21.3-3.87c-14.17,0-28.07,4.91-40,13.39-3.7,2.63-7.16,5.27-11.42,7a70.87,70.87,0,0,1-15.54,3.79c-9.7,1.49-19.63,3-29.5,3q-2,0-4.08-.09-.74,0-1.44,0c-4.68,0-8.17,1.11-12.88,2.55a31.75,31.75,0,0,1-9.31,1.45,26.57,26.57,0,0,1-7.34-1,18,18,0,0,0-5-.71c-3.37,0-6.51.88-10.33,1.51a48.1,48.1,0,0,1-7.79.62,52.61,52.61,0,0,1-8.9-.76,39,39,0,0,1-7.61-2.06c-1.83-.72-3.86-2.51-5.86-2.56h-.08c-2,0-4.25,1.85-6,2.5a40,40,0,0,1-9,1.93,47.62,47.62,0,0,1-5.48.31q-1.82,0-3.64-.13c-1.67-.12-3.59-.65-5.35-.65a6.6,6.6,0,0,0-1.32.12c-1.66.34-3.13,1.76-4.53,2.64-2.82,1.78-5.86,3.23-8.83,4.74-20.85,10.57-42.58,19.22-64.63,26.91-8.69,3-18,6.23-27.28,6.23a37.12,37.12,0,0,1-5.93-.46c-5.17-.83-10-3-15.09-4.05a39.09,39.09,0,0,0-7.82-.66c-2.74,0-5.48.15-8.23.15h-.54c-22.58-.17-34.35-19.11-40.38-38.64-3.49-11.28-6.75-22.47-10.63-33.63a144.94,144.94,0,0,1-7.51-32.77c-.44-4.16-.24-8.21-4.42-10.25s-8.66-3.24-12.8-5.81c-8.6-5.34-15.44-12.93-19-22.5-3.78-10.26-3.62-21.27-5-32-1.49-11.44-4.38-22.56-6.57-33.86a104.88,104.88,0,0,1-1.1-35.49,132.81,132.81,0,0,1,3.1-15.08c1.26-4.75,5-10.57,1.27-14.76-7-7.8-12.93-15.2-14.85-25.85-2-10.85-.82-22.36-.3-33.3.56-11.95,1.46-23.88,2.79-35.76,1.29-11.49,2.32-23.64,5.6-34.76,1.54-5.23,4.17-10.05,6.84-14.78,1.09-1.94,2.14-3.93,3.35-5.79,1.09-1.68,3.19-3.65,3.47-5.71.44-3.3-5.78-7.69-7.86-10.25a70.57,70.57,0,0,1-9.3-14.56c-9.19-19.71-5-44,1.62-64,6.89-20.88,21.5-39.24,34.41-56.72,12.13-16.43,25.48-32.2,44.65-40.49,16.22-7,35-10.38,53.09-10.38,4,0,8,.16,11.84.49,10.93.91,20.12,6.73,30.74,8.57a86.32,86.32,0,0,0,14.77,1.09c5.94,0,11.9-.35,17.75-.46h.19c1.7,0,4.07.37,6.3.37s4.21-.35,5.41-1.73c2.25-2.6,2.21-7.46,3-10.67,2.67-10.67,4.41-21.86,10-31.48,9.63-16.46,27.15-28.63,45.11-34.37a53,53,0,0,1,16.32-2.26m0-7a59.21,59.21,0,0,0-18.45,2.59c-20.86,6.66-39.18,20.68-49,37.5-5.05,8.64-7.22,18-9.31,27.07-.48,2.07-1,4.2-1.48,6.25-.32,1.27-.51,2.56-.7,3.81-.14.94-.35,2.35-.6,3.28h-.33c-.89,0-1.95-.09-3-.18s-2.24-.19-3.33-.19h-.32c-2.45,0-4.93.13-7.33.21-3.39.12-6.9.24-10.29.24a78.74,78.74,0,0,1-13.57-1,74.74,74.74,0,0,1-12.51-3.76c-5.84-2.12-11.88-4.31-18.85-4.9-4.08-.34-8.26-.51-12.43-.51-19.71,0-39.55,3.89-55.87,11-21.62,9.35-35.85,27-47.5,42.76L41,468.61C28.67,485.12,16,502.2,9.41,522.08.18,550-.26,573.28,8.1,591.19a77.79,77.79,0,0,0,10.21,16,35.59,35.59,0,0,0,3.18,3.26c.64.6,1.61,1.52,2.36,2.32l-.07.09c-.48.61-1,1.31-1.52,2.07-1,1.6-1.93,3.21-2.79,4.76l-.78,1.4c-2.95,5.22-5.74,10.4-7.46,16.24C8.17,647.71,7,658.57,5.85,669.08q-.23,2.13-.47,4.24c-1.3,11.57-2.22,23.41-2.82,36.21-.08,1.75-.18,3.51-.28,5.29-.54,9.68-1.1,19.69.69,29.59,2.25,12.48,9,20.91,16.37,29.11a21.06,21.06,0,0,1-1.3,4.37c-.48,1.31-1,2.66-1.36,4.09a140.33,140.33,0,0,0-3.26,15.88,111.69,111.69,0,0,0,1.16,37.82c.75,3.86,1.58,7.72,2.39,11.46,1.63,7.54,3.16,14.65,4.11,22,.37,2.88.63,5.77.9,8.83.71,8.08,1.45,16.42,4.48,24.66,3.9,10.58,11.45,19.58,21.84,26a54.12,54.12,0,0,0,8.83,4.19c1.6.64,3.12,1.24,4.56,1.94a19.63,19.63,0,0,1,.42,3.1c0,.53.09,1.07.15,1.6a151.32,151.32,0,0,0,7.86,34.34c2.91,8.37,5.54,17,8.08,25.32q1.23,4,2.47,8.07c11.06,35.8,31.68,43.45,47,43.57h.59c1.47,0,2.91,0,4.31-.08s2.65-.07,3.92-.07a31.89,31.89,0,0,1,6.43.52,63.33,63.33,0,0,1,6.21,1.73,64.39,64.39,0,0,0,9.15,2.37,44.34,44.34,0,0,0,7.05.55c10.61,0,20.69-3.52,29.59-6.62,25.19-8.78,46.61-17.71,65.49-27.28l1.43-.72c2.61-1.31,5.32-2.67,8-4.34.6-.38,1.14-.77,1.61-1.12l.78-.55c.46,0,1.12.14,1.72.24.86.14,1.83.3,2.85.37,1.38.1,2.78.15,4.14.15a54.82,54.82,0,0,0,6.29-.36,46.71,46.71,0,0,0,10.62-2.3,21.67,21.67,0,0,0,3-1.45l.57-.31.45.26a21.52,21.52,0,0,0,3,1.51,45.58,45.58,0,0,0,9,2.44,59.6,59.6,0,0,0,10.09.86,55.16,55.16,0,0,0,8.93-.71c1.22-.2,2.33-.42,3.4-.62a31.91,31.91,0,0,1,5.79-.79,11,11,0,0,1,3.11.44,33.61,33.61,0,0,0,9.27,1.28,38.69,38.69,0,0,0,11.36-1.76l.31-.09c4.21-1.29,7-2.15,10.51-2.15l1.12,0c1.43.07,2.91.1,4.4.1,10.3,0,20.44-1.56,30.25-3.07l.32,0a77.62,77.62,0,0,0,17.07-4.2,54.64,54.64,0,0,0,11.77-7l1.12-.8c11.11-7.91,23.54-12.09,35.93-12.09a53.53,53.53,0,0,1,18.85,3.42c7,2.61,14,6.89,20.76,11,2.53,1.54,5.15,3.14,7.73,4.63,9.35,5.39,19.35,11.32,30.59,18.1,20.57,12.43,40.87,25.16,60.33,37.85l2.79,1.82c8.69,5.66,17.67,11.51,26.33,17.45,5.31,3.64,10,7,14.43,10.24,1.59,1.17,3.19,2.5,4.88,3.9a87.14,87.14,0,0,0,8.28,6.31,10.91,10.91,0,0,0,5.92,1.77c4.16,0,7.27-2.3,9.53-4,.54-.4,1-.78,1.41-1,4.94-3,9.75-6.26,14.29-9.57a277,277,0,0,0,26.85-22.42c30.59-28.91,55.45-64.51,73.89-105.8a354.16,354.16,0,0,0,21.67-66,458.31,458.31,0,0,0,9.23-144.68c-.06-.62-.08-1.48-.1-2.39-.12-4.83-.32-12.91-7.51-16.53a76.21,76.21,0,0,0-8.84-3.56c-1.9-.67-3.7-1.31-5.33-2-10.55-4.49-21.58-9.22-32.79-14.05-23.95-10.32-45.73-19.84-66.6-29.11-21.45-9.53-43.29-19.57-66.75-30.69l-.64-.3c-4.64-2.2-9.44-4.48-14-6.91-.73-.39-1.51-.79-2.32-1.21-2.81-1.44-6.66-3.41-7.92-5.23a28.54,28.54,0,0,1-2.84-6.91c-.47-1.48-1-3-1.55-4.5l-.77-2q-2.77-7.1-5.53-14.21c-15.05-38.79-31.94-84.89-43.09-132.74C564.69,454,558.7,431,546.49,411c-10.08-16.48-25.22-30-43.77-39.09C480.5,361,456.3,354.26,435.55,349.06l-2.18-.55c-10.94-2.75-22.25-5.59-33.82-7.06a170.89,170.89,0,0,0-21.67-1.18c-4.72,0-9.48.11-14.08.22l-1.2,0c-5.42.13-11.2.25-17,.25-6.95,0-13-.19-18.55-.58l-3.72-.28c-4.44-.34-9-.69-13.65-.69Z"/><path class="cls-4" d="M37,802a50.45,50.45,0,0,0-1.81,33c2.7,9,9,20.41,17.93,24.66,4.89,2.33,10.38,1.48,15.53.59A152.47,152.47,0,0,0,88.41,855c12.87-4.06,25.5-8.77,38-13.9,12.3-5.06,24.45-10.47,36.34-16.43,5.24-2.63,10.52-5.22,15.58-8.2a82,82,0,0,0,7.3-4.78c1.9-1.41,5.82-3.34,3.31-5.61s-10.12-.39-13.32-.18c-7,.48-13.93,1.1-20.89,1.78-13.37,1.3-26.73,2.62-40.15,3.15-15,.59-30.06.2-44.83-2.5-7.11-1.3-14.07-3.23-21-5.19C46.61,802.62,38.28,798.88,37,802Z"/><path class="cls-4" d="M55,651c-17,7.56-29.53,28.1-24.89,46.8,1,4,3,7.9,7.21,9.1,5.14,1.45,11.54,0,16.58-1.07,11.69-2.58,23-7.3,34.13-11.63,22.81-8.89,45.09-19.34,68.36-27,2-.67,15.12-2.92,13-6s-10.44-3.43-13.68-3.87q-8.76-1.18-17.55-2.24c-14.17-1.7-28.42-2.92-42.67-3.84-6.88-.44-13.77-.79-20.66-1-3.62-.11-7.25-.17-10.87-.12C61.09,650.17,57.7,649.82,55,651Z"/><path class="cls-4" d="M104.53,957.5c-6.63-1.89-20.09-3.91-16.35,7.62,2.69,8.3,10.62,17.47,18.63,20.89,5.18,2.21,10.55,1.28,15.93.35a170.46,170.46,0,0,0,18.71-4.55c12.78-3.73,25.48-7.8,37.94-12.51,11.37-4.31,22.54-9.15,33.43-14.56,9.83-4.88,19.55-10.45,27.54-18.07,1.9-1.81,6.76-5.9,3.47-8.42-1.74-1.33-5.68-.62-7.64-.46a73.6,73.6,0,0,0-10.81,1.85c-12.42,2.91-24.73,6.38-37,9.83-14.06,4-28.09,8-42.24,11.66-7,1.8-14.09,3.6-21.2,5.07C118.69,957.5,110.83,959.3,104.53,957.5Z"/><path class="cls-4" d="M105,460c21.64,6.76,44.19,14.93,62.89,28.06,7.79,5.47,16.15,12.73,19.38,22,3.49,10-3.6,15.8-12.84,17.19-23.28,3.52-47.21-2.65-70.35-4.6-11.55-1-23.34-.24-34.74-2.68-3.59-.77-8.13-1.87-10.39-5.06-2.93-4.13-.08-9.23,2.39-12.85,3.53-5.16,8.09-9.65,12-14.55s7.34-9.78,10.7-14.91C88.9,465.21,95,456.86,105,460Z"/><path class="cls-4" d="M321,389c-12,3.15-20.93-7.43-21.63-18.61-.34-5.41,1-11.7,5.69-15,4.48-3.14,10.5-2.92,15.72-2.89,36.1.27,72.29,5.09,107.57,12.58,32.17,6.82,67.59,16,92.57,38.61.84.76,4.11,2.92,3.45,4.28s-5.22-.38-6.31-.66c-8.73-2.22-17.31-4.91-25.94-7.48a476.75,476.75,0,0,0-51.64-12.26C401.21,380.52,360,378.77,321,389Z"/><path class="cls-4" d="M639,679c28.3,47.17,145,88,168,82S633,669,639,679Z"/><path class="cls-4" d="M563,882c27.3,41.86,125,89,148,81S548,859,563,882Z"/><path class="cls-4" d="M536.94,489c7.18,20.05,14.09,40.21,20.45,60.54,6.24,20,12.51,40,16.42,60.55,2,10.31,3.92,21.1,2.8,31.62-1.08,10.1-4.61,20.16-7.53,29.85-5.72,19-11.93,37.62-20.9,55.32-1.73,3.4-7.61,15.22-12.41,8.92-3.75-4.92-3.42-15-3.71-20.66-1-20.25.43-41.26,3.1-61.34,1.39-10.44,3.89-20.7,5.14-31.15,1.21-10.05.23-19.62-1.89-29.48-4.24-19.77-11.71-38.62-18.25-57.69a334.5,334.5,0,0,1-9.76-33.09c-2.16-9.34-4.76-20.86-2.2-30.39,2.34-8.69,10.36-7.22,15.81-2.4A48.44,48.44,0,0,1,536.94,489Z"/><path class="cls-1" d="M624.11,645c-3.22-1.86-5.9-3.35-7.42-6.89s-2.76-7.5-4.2-11.21c-3.54-9.11-7.1-18.21-10.62-27.33-6.85-17.78-13.6-35.61-19.76-53.64-5.94-17.37-11.22-35-15.5-52.82-3.78-15.77-7-31.68-12.11-47.1-5-15.06-11.62-29.84-21.55-42.31s-23.54-21.15-38-27.67c-15.94-7.16-32.69-12.58-49.53-17.17-15.67-4.27-31.56-8.51-47.71-10.48-17.84-2.18-35.9-.62-53.81-.62-16.68,0-34.25-4.44-50.47.7-15.5,4.91-30.83,15.26-40.84,28.1s-12.26,29.86-16.25,45.38a217.65,217.65,0,0,1-6.78,22.78c-3.34,8.86-7.74,17.23-11.34,26-6.74,16.41-14.72,32.72-20.28,49.56-2.53,7.67-4.66,15.45-7.4,23-3,8.21-6.2,16.63-6.52,25.45-.65,17.41,13.18,30.73,28,37.4,32.85,14.75,67.69-2.05,96.33-18.63,14.81-8.57,29.69-17.93,42-29.93,11.78-11.51,18.84-27.1,26.51-41.49,3.52-6.6,7.45-13.39,9-20.78-2.11,12.1-8.09,23.18-13,34.29-6.06,13.7-12,27.48-17.4,41.44-5.08,13.05-7.14,25.93-.37,38.8,6.19,11.76,16.84,20.76,27.31,28.59C428.72,673.15,487,696.49,545.7,689.39a152.18,152.18,0,0,0,48.41-14c14.28-6.95,27.09-16.07,40.26-24.85C630.91,648.77,627.47,646.95,624.11,645Z"/><path class="cls-2" d="M266.63,606.38c6.68-1.83,12.67-5.62,18.85-8.63,6.75-3.29,13.49-6.59,20-10.27A327.79,327.79,0,0,1,266,605.95c-.06,0,1,.54,0,.33Z"/><path class="cls-2" d="M266.13,606.56c-15.94,5.45-33.94,6.61-50,1.06-13.33-4.6-26.32-14.38-30.9-28.2-5.21-15.72,4.26-31.35,8.62-46,5-16.83,12-32.66,18.8-48.81,8-19.1,15.47-38.52,21-58.5-2.49,37-27,67.95-36.6,103-4.18,15.29-14.72,31.12-10.9,47.54,3.34,14.36,16.6,24.45,29.72,29.54A70.77,70.77,0,0,0,258.66,608C260.11,607.55,265,605,266.13,606.56Z"/><path class="cls-2" d="M381.07,507.66c13.49-10.52,24.26-24.54,30.1-40.69,7-19.34,5.84-40.12,1.86-60,2.51,18.38-.08,38-5.64,55.6a122.09,122.09,0,0,1-10.63,24.27,114.27,114.27,0,0,1-7.52,11.41C387,501.31,384.41,505.72,381.07,507.66Z"/><path class="cls-2" d="M380.08,507.36c20.8-27.51,28.89-68.77,10-99.36,5.11,16.46,7.3,34.72,5.29,51.87-1,8.14-3,16.38-6.88,23.64C384.38,491.06,382.49,499.15,380.08,507.36Z"/><path class="cls-2" d="M378,515.56c28.88-8.13,43.83-36.92,52-63.56a166.14,166.14,0,0,1-22.67,38.79,100.53,100.53,0,0,1-14.66,15.35,65.45,65.45,0,0,1-8.34,5.94C383.29,512.72,378.05,515.58,378,515.56Z"/><path class="cls-2" d="M370,522s53,2,82-45C452,477,411.53,518.5,370,522Z"/><path class="cls-5" d="M233,503c-20.11,13.4-30.54,36.74-36.16,59.46,8.37-.29,16.68-.75,25.06-.6,8,.14,16,.11,24-1.24,14.84-2.51,28.16-8.24,41.6-14.76,5.83-2.83,6.36-7.11,7.32-13.11,1.08-6.76,2.3-13.49,3.32-20.26.93-6.15-.31-10.78-5.21-14.87-4.15-3.47-9.52-5.32-14.8-6.18C262.57,488.9,246.09,494.92,233,503Z"/><path class="cls-6" d="M306,501c-1.69-10.09-18.9-13.54-26.87-14a76.32,76.32,0,0,0-38.52,8.23c-20.28,10.58-34.27,30.11-45.24,49.6-2.14,3.81-5.83,8.69-6.48,13.13-.56,3.89,5.46,6.71,8.05,3.78.87-1,1-3.66,1.36-4.88.92-3.27,1.89-6.53,3-9.76a85.69,85.69,0,0,1,7.71-17c6.11-10.27,13.47-20.11,23.52-26.81A75.09,75.09,0,0,1,267.63,491c6.32-.49,12.91.1,18.73,2.76,5.58,2.55,12.11,7.66,12.13,14.32,0,5.33-1.32,11-2.2,16.26-1,6.23-2.52,12.33-4.06,18.45,2.86-1.81,5.92-3.54,8.27-6,2.82-3,3.71-6.71,4.36-10.66C306.22,517.92,307.42,509.3,306,501Z"/><path class="cls-3" d="M381.91,505.23c-11,32.49-35.42,56.87-63.83,74.9-16.19,10.27-33.6,19.81-51.83,25.93-16.67,5.6-34.62,7-51.22.45-14.36-5.68-29.09-17.28-30.38-33.81,11.21,16.79,28.63,27.67,49.28,25.42,22.77-2.48,45.58-10.72,65.72-21.48,36-19.25,65-50.54,75.31-90.69,6.64-25.76,5.92-53,1.07-79,8,14.32,11.09,30.84,11.83,47.07C388.64,471.18,387.41,488.9,381.91,505.23Z"/><path class="cls-2" d="M388.85,464.63c-.2,21.7-4.48,43.7-15.13,62.79-9.85,17.65-24.42,32.18-40.59,44.11A277.44,277.44,0,0,1,277.6,603c-18.49,7.87-39.14,12.19-58.73,5.74-16.05-5.28-33.07-17.76-34.22-36,2,19.25,21.08,31.24,38.31,35.47,24.66,6.06,48.66-4.27,70.13-15.56,21.94-11.54,43.52-24.6,60.53-42.9a122.92,122.92,0,0,0,31.48-62.58c4.58-26.51,3.44-55.82-9.07-80.13C386,424.38,389,444.85,388.85,464.63Z"/><path class="cls-2" d="M284.63,880.5C298,909,337,932,270,1009l4,3s40-41,39-73S284.63,880.5,284.63,880.5Z"/></svg>