<svg xmlns="http://www.w3.org/2000/svg" viewBox="0 0 840 1096.88"><defs><style>.cls-1{fill:#fc9;}.cls-2{fill:#80664d;}.cls-3{fill:#bf9973;}.cls-4{fill:#ffd6ad;}</style></defs><title>Hand</title><g id="Frame_12" data-name="Frame 12"><path class="cls-1" d="M828.51,740.76c-.42-3.59-2.16-4.77-5.32-6-5.13-1.93-10.13-4.09-15.15-6.28-10.68-4.65-21.42-9.18-32.11-13.8q-31.84-13.74-63.55-27.8c-21.11-9.39-42.21-18.82-63-28.91-8.89-4.31-18.23-8.38-26.74-13.42a14.4,14.4,0,0,1-7-8.66c-1.67-4.9-3.41-9.73-5.3-14.56-8.21-21.05-15.82-42.26-23.63-63.46-1.64-4.46-3.14-9.22-6.16-13A137.65,137.65,0,0,0,570,534a139.59,139.59,0,0,0-24.78-19.76c-9.09-5.62-18.94-9.64-28.64-14-10.21-4.64-20-10.19-30-15.22-19.66-9.89-39.82-18.89-60.84-25.49C404,452.62,381.9,446.44,360,440c-21.65-6.33-43.52-12.92-66-15.26-22.95-2.38-45.94.44-68.88,1.44-11.11.48-22.67.94-33.72-.6-10.27-1.43-19.42-6.8-29.82-8.08-20.11-2.47-43.07.63-62,7.75-18.39,6.91-31.93,19.8-43.74,35.14s-24,31.17-33,48.31-14.08,37.7-13.32,57a59,59,0,0,0,7.76,27.84,80.88,80.88,0,0,0,8.46,11.64c2.74,3.17,7.39,5.18,4.7,9.62-5.24,8.65-10.59,17.61-13.17,27.48-2.78,10.61-4,21.8-5.16,32.68-1.17,11.07-1.9,22.18-2.45,33.3-.54,10.88-1.81,22.08-.16,32.91,1.46,9.63,6.26,17.42,12.43,24.77,2.94,3.5,5.37,5.52,4,10.33s-3,9.55-4.05,14.52a105,105,0,0,0-2,33.9c1.25,11,4.44,21.67,6.6,32.51,4,19.89.66,41.79,15.78,57.69a49.08,49.08,0,0,0,10.91,8.47c3.92,2.29,8.53,3.23,12.35,5.45s3.49,7.46,3.88,11.45a126.28,126.28,0,0,0,2.84,16.75c2.46,10.37,6.78,20.05,10.12,30.14,2.71,8.2,4.46,16.67,7.45,24.78,6.14,16.67,17.23,31,36.32,31.46,4.59.11,9.2-.22,13.78.19,5.67.51,10.77,2.86,16.27,4.12,10.78,2.48,21.73-.19,32-3.54,20.68-6.73,41-15.53,60.76-24.5a158.88,158.88,0,0,0,14.49-7.26c4.19-2.44,5.91-4.89,11-4a43.27,43.27,0,0,0,15-.25c4.1-.75,9.48-4.39,13.58-3.41,5,1.19,9.24,3.77,14.5,4.42a53,53,0,0,0,15.93-.4c2.31-.43,4.57-1.14,6.92-1.38,2.78-.29,5,.56,7.69,1.12a35.23,35.23,0,0,0,16-.6c2.18-.57,4.15-1.6,6.28-2.27a24.25,24.25,0,0,1,7.81-.69,142.87,142.87,0,0,0,16.61-.46c9.94-1,20.57-2.05,30.09-5.22,9.19-3.06,16.11-10.19,24.71-14.49a59.49,59.49,0,0,1,29.85-6.54,69.69,69.69,0,0,1,30.22,8.21c9.26,5.07,18.24,10.76,27.37,16.07,38.75,22.54,76.8,46.38,113.62,71.95,8.88,6.16,17.37,12.92,26.2,19.11,3.43,2.4,6-.6,9.24-2.52,4.5-2.68,8.88-5.58,13.15-8.62a274.17,274.17,0,0,0,46.12-42.16,330,330,0,0,0,61.92-104.58c15.05-41.06,22-84.76,23.54-128.37A441.84,441.84,0,0,0,828.51,740.76Z"/><path class="cls-2" d="M483,167.29c10.5,0,20.79,2.82,29.16,9.54,8.15,6.54,11.8,16.34,13.65,26.32,1.24,6.66,1.8,13.42,3,20.09s2.6,13.18,3.36,19.87c1.57,13.83,1.93,27.81,2.85,41.69.47,7,.87,14.05,1.39,21.08.49,6.62.46,13.72,2.79,20,2.27,6.12,5.42,11.92,7.8,18q3.67,9.4,6.8,19c4.31,13.13,8,26.47,11.11,39.92a731.76,731.76,0,0,1,14,82.26c1.62,13.77,3.23,27.62,3.95,41.47.7,13.38,1.51,26,6,38.7,4.63,13.14,9.66,26.13,14.72,39.11,2.58,6.62,5.16,13.23,7.7,19.86,2.09,5.45,3.47,12.26,7.47,16.68,3.45,3.81,8.63,6.08,13.1,8.41,5.73,3,11.56,5.81,17.38,8.63,12.78,6.19,25.69,12.1,38.62,18,25.6,11.61,51.34,22.91,77.14,34.09,12.56,5.44,25.15,10.82,37.72,16.25,5.65,2.44,11.27,5.07,17.09,7.08,3.9,1.34,8.13,2.71,8.68,7.42,3.19,27.23,3.35,54.76,1.52,82.1C826.54,875,814.39,927,790.5,973.73c-21.47,42-51.72,80.43-90.26,108-5.16,3.69-10.5,7.05-15.89,10.39-1.74,1.07-3.37,2.46-5.29,2.46a4.19,4.19,0,0,1-1.69-.37c-2.15-.93-3.87-3.38-5.74-4.81-10.85-8.26-22.26-15.89-33.55-23.53-23-15.53-46.4-30.41-70.09-44.83q-17.48-10.64-35.17-20.94c-10.76-6.24-21.45-13.59-33.15-18a63,63,0,0,0-22-3.82,68.65,68.65,0,0,0-14.45,1.54,58.33,58.33,0,0,0-17.66,6.79c-5.24,3.14-9.73,7.4-15.14,10.25-11.12,5.85-25,7.35-37.33,8-1.13.06-2.28.08-3.43.08-3,0-6-.14-9-.14a46.75,46.75,0,0,0-8.12.59c-6.09,1.08-11.43,3.75-17.78,3.76h0c-3.28,0-6.24-.82-9.45-1.33a19,19,0,0,0-3-.23,39.7,39.7,0,0,0-6.62.7,73.77,73.77,0,0,1-12.36,1.16,50.48,50.48,0,0,1-6.56-.42,31.56,31.56,0,0,1-9.48-2.52c-2-.93-3.77-2.18-6-2.18h-.37c-2.61.16-5,1.77-7.49,2.57a41.81,41.81,0,0,1-8.87,1.77c-.66.06-1.34.09-2,.09-2.7,0-5.52-.4-8.24-.4a13.66,13.66,0,0,0-6.84,1.49c-5.51,3.09-10.86,6.21-16.62,8.87-12.85,5.94-25.94,11.37-39.08,16.63-12.33,4.93-24.87,10.78-38.11,12.74a37.2,37.2,0,0,1-5.47.39c-11.34,0-21.79-4.72-33.33-4.79-10.34-.06-19.67-.36-28.18-7-7.17-5.55-12-13.6-15.52-21.81-4.09-9.51-6.24-19.64-9.61-29.4-4.38-12.64-9.05-25-11.32-38.23-.52-3-1-6.07-1.25-9.13-.14-2,.08-4.25-.66-6.15-1.69-4.34-8.43-5-12.2-6.9-10.59-5.34-19.29-14.24-23.22-25.53-4-11.61-3.55-24.16-5.49-36.18-2.22-13.68-6.47-27.06-7.65-40.9-1.16-13.55.7-26.84,4.2-39.92,1.51-5.62,3.69-9.94-.52-14.72-3.67-4.18-7.07-8.19-9.52-13.25C8.66,743.79,8.6,732,9,720.16,9.43,706,10.73,691.78,12,677.63c1.19-12.89,2-26.42,6.36-38.71A99.6,99.6,0,0,1,26,622.75c2-3.43,7.64-9.19,4.41-12.94-1.64-1.9-3.72-3.36-5.36-5.31a80.74,80.74,0,0,1-5.9-7.92,59.4,59.4,0,0,1-7.3-15.5c-3.32-11.16-3.34-23.09-1.6-34.53a117.74,117.74,0,0,1,10-33.1c5.6-11.65,13.37-22.32,20.78-32.87,14.4-20.51,29.63-42.69,53.26-53.2,11.86-5.28,24.66-7.88,37.49-9.48a148.45,148.45,0,0,1,18.31-1.3,72.74,72.74,0,0,1,22.2,3.11c6.41,2,12.42,4.73,19.13,5.74a135.09,135.09,0,0,0,20,1.06h0c14.33,0,28.62-1.15,42.92-1.9,6.88-.36,13.77-.64,20.65-.64a185.52,185.52,0,0,1,20.83,1.07,274.62,274.62,0,0,1,40.69,8.26c13,3.51,25.95,7.37,38.83,11.3,2.91.89,5.69,1.9,8.52,3a8.12,8.12,0,0,0,2.7.75,2.5,2.5,0,0,0,1.95-.94c1.27-1.42,1.5-4.57,2-6.33.91-3,1.83-6,2.67-9,1.53-5.48,4.71-12.85,4.18-18.58-.45-4.93-5.27-9.89-7.56-14.15a130.6,130.6,0,0,1-12.32-34.72,177.58,177.58,0,0,1,.52-75.74c5.15-22.71,15-44.57,26.79-64.62,10.75-18.34,24.45-35.88,42.92-47a70.24,70.24,0,0,1,35.19-10m0-7a76.65,76.65,0,0,0-38.8,11c-17,10.2-31.84,26.37-45.36,49.42s-22.78,45.45-27.58,66.61a185,185,0,0,0-.54,78.74,137.74,137.74,0,0,0,13,36.57,53.21,53.21,0,0,0,3.16,5c1.46,2.11,3.45,5,3.59,6.52.26,2.88-1.28,7.62-2.52,11.43-.53,1.61-1,3.14-1.44,4.63-.74,2.66-1.57,5.39-2.37,8l-.26.84c-.1.33-.19.65-.26,1-1.9-.7-4-1.42-6.2-2.1-11.42-3.49-25-7.57-39.05-11.37-16.24-4.39-29.5-7.07-41.73-8.46A191.72,191.72,0,0,0,275.08,417c-7.62,0-15.24.35-21,.65-3.69.19-7.43.42-11,.63-10.35.62-21.06,1.26-31.51,1.26a128.18,128.18,0,0,1-19-1A67.83,67.83,0,0,1,180.1,415c-1.83-.65-3.73-1.32-5.68-1.95a79.09,79.09,0,0,0-24.33-3.44A153.32,153.32,0,0,0,130.91,411c-16,2-28.58,5.19-39.47,10-24.93,11.09-41.05,34.07-55.29,54.35l-.85,1.22-2,2.82c-6.89,9.78-14,19.9-19.38,31A125.32,125.32,0,0,0,3.36,545.5C1.26,559.34,1.87,572,5.17,583.08a66.63,66.63,0,0,0,8.14,17.33,88.11,88.11,0,0,0,6.41,8.6,35.06,35.06,0,0,0,3.4,3.4l.84.77c-.55,1-1.44,2.24-2,3-.74,1-1.43,2-2,3.06a105,105,0,0,0-8.16,17.31c-4.2,11.85-5.3,24.33-6.37,36.4q-.18,2-.36,4C3.77,691,2.44,705.49,2,719.93c-.4,12.4-.29,25.53,5.63,37.78,2.78,5.76,6.43,10.12,10.56,14.83.89,1,1.07,1.22-.29,5.85-.23.79-.47,1.61-.7,2.45-4.1,15.29-5.54,29.14-4.41,42.33.75,8.8,2.66,17.33,4.5,25.58,1.22,5.45,2.37,10.6,3.22,15.85.64,4,1,8,1.38,12.26.73,8.23,1.5,16.73,4.41,25.09,4.37,12.54,13.84,23,26.68,29.48a35.21,35.21,0,0,0,4.84,1.87,23.43,23.43,0,0,1,4,1.6c0,.44.06,1.21.07,1.76s0,1.34.08,2.08c.25,3.47.83,6.84,1.33,9.81C65.4,960.65,69.38,972,73.23,983q.85,2.43,1.7,4.88c1.25,3.61,2.32,7.26,3.45,11.11a162.65,162.65,0,0,0,6.35,18.76c4.73,11,10.51,19,17.66,24.58,10.71,8.29,22.75,8.36,32.43,8.42,5,0,10,1.11,15.25,2.25,5.74,1.25,11.68,2.54,18.12,2.54a43.87,43.87,0,0,0,6.49-.47c11.87-1.76,22.88-6.28,33.54-10.66,2.05-.84,4.1-1.69,6.14-2.5,15.94-6.37,28.09-11.54,39.42-16.77,5.19-2.4,10.05-5.14,14.76-7.79l2.36-1.33a7.16,7.16,0,0,1,3.42-.6c1.11,0,2.34.09,3.64.18,1.48.11,3,.22,4.6.22,1,0,1.84,0,2.69-.12a48.68,48.68,0,0,0,10.37-2.09,33.69,33.69,0,0,0,3.22-1.29,16.42,16.42,0,0,1,2.41-.93,15.63,15.63,0,0,1,1.59.76c.48.25,1,.5,1.46.73a38.8,38.8,0,0,0,11.57,3.13,57.78,57.78,0,0,0,7.47.47,80.68,80.68,0,0,0,13.53-1.26,33.72,33.72,0,0,1,5.45-.6,11.94,11.94,0,0,1,1.9.14c.81.13,1.62.29,2.48.45a41.8,41.8,0,0,0,8.07,1,45.78,45.78,0,0,0,13-2.35,58.19,58.19,0,0,1,6-1.52,39.29,39.29,0,0,1,6.9-.48c1.41,0,2.83,0,4.34.07s3.07.07,4.64.07c1.4,0,2.64,0,3.81-.09,12.92-.69,27.8-2.27,40.22-8.8a71.73,71.73,0,0,0,9.38-6.2c2.1-1.55,4.08-3,6.11-4.24a51.14,51.14,0,0,1,15.54-6,61.51,61.51,0,0,1,13-1.38,56.25,56.25,0,0,1,19.51,3.37c8.25,3.09,16.33,8,24.15,12.72,2.59,1.57,5.28,3.2,7.94,4.75,11.07,6.43,22.53,13.25,35,20.86,25.37,15.44,48.21,30,69.81,44.65l2.31,1.56c10.31,7,21,14.16,30.92,21.73a18.19,18.19,0,0,1,1.38,1.29,19,19,0,0,0,5.82,4.36,11.18,11.18,0,0,0,4.48.95,14.48,14.48,0,0,0,8.15-3l.82-.53c5.24-3.24,10.81-6.73,16.28-10.65,37-26.5,69-64.71,92.42-110.5,22.9-44.78,36.45-96.46,40.28-153.59,2-30,1.5-57.29-1.55-83.38-1.06-9-8.91-11.7-13.13-13.15l-.23-.08c-4.25-1.46-8.4-3.29-12.79-5.22l-3.81-1.67-16.74-7.2c-6.88-3-14-6-21-9-30.38-13.16-54.85-24-77-34-11.69-5.3-25.27-11.5-38.46-17.89l-.39-.19c-5.55-2.69-11.29-5.48-16.81-8.35L633,642c-3.44-1.74-7-3.55-9.06-5.83s-3.27-6.08-4.51-9.83c-.51-1.53-1-3.12-1.62-4.66-2.21-5.76-4.48-11.6-6.68-17.25l-1-2.65c-5.36-13.77-10.17-26.2-14.64-38.89-4-11.42-4.86-22.43-5.61-36.74s-2.47-29-4-41.92a736.21,736.21,0,0,0-14.12-83.05c-3.43-14.6-7.12-27.85-11.28-40.5-2.19-6.68-4.52-13.19-6.93-19.36-1.19-3.06-2.55-6-3.86-8.84-1.44-3.12-2.79-6.07-3.91-9.07-1.54-4.14-1.83-9.06-2.13-14.26-.08-1.28-.15-2.56-.24-3.82-.33-4.42-.61-8.95-.89-13.32q-.24-3.86-.5-7.71c-.29-4.38-.53-8.87-.76-13.21-.5-9.43-1-19.18-2.12-28.8-.58-5.14-1.53-10.17-2.44-15-.33-1.76-.66-3.52-1-5.29-.54-3.05-.95-6.11-1.38-9.36-.46-3.52-.94-7.15-1.62-10.79-2.58-13.87-7.86-23.85-16.15-30.5-9-7.25-20.63-11.08-33.54-11.08Z"/><path class="cls-2" d="M313.47,740.68c-3.82,6.92-8.25,13.81-14.5,18.79-6.72,5.34-15.24,7.49-23.36,9.7a580.82,580.82,0,0,1-57.17,12.08c-19.32,3.23-38.73,5.87-58.18,8.22s-38.68,4.94-58.12,5.78c-20.18.87-40.69-.85-58.56-11.09,28,6,55.6,6.11,84,2.81s56.58-8,84.66-13c23.31-4.1,48.17-7.45,70.15-16.67,9.25-3.88,18.19-9.22,24.58-17.1,7.31-9,9.66-23.35,10.35-34.65,1.87-30.64-13.66-56.34-28.88-81.54,14.66,15,27.3,32.72,32.87,53.18A85.66,85.66,0,0,1,313.47,740.68Z"/><path class="cls-2" d="M289.06,764.75c-16.2,6.95-33.59,10.41-50.79,13.88-18.25,3.69-36.6,6.85-55,9.38q-27.94,3.83-56,6.67c-18.43,1.84-37.22,3.46-55.61.34C54.35,792.1,35.07,783.09,24,769c10.39,11.91,27,19.61,42.18,22.87,17.53,3.77,35.56,2.62,53.26.84,37.19-3.75,74.26-8.47,111.12-14.66C250.3,774.74,270.14,771.39,289.06,764.75Z"/><path class="cls-1" d="M614.46,631.92q-1.26-3.23-2.51-6.45Z"/><path class="cls-2" d="M212.85,487.14C183.18,473.65,154.19,458.87,121,457,153.74,453.82,186.22,469.74,212.85,487.14Z"/><path class="cls-2" d="M180,439c12.05,9.79,21.07,26.37,21.42,42C196.19,465.87,188.78,452.38,180,439Z"/><path class="cls-2" d="M264,641c-15,4.58-31,3.43-46.42,1.94-16.38-1.58-32.67-4-49-6.29-16.55-2.33-33.18-4.53-49.92-4.43C102.8,632.3,86.84,634,71.06,631c-14.72-2.82-29.86-8.53-40-20,19.2,19,48.52,20.95,74,19.15,34.51-2.43,68.15,4.64,102.14,9.4C225.87,642.17,245.32,645.43,264,641Z"/><path class="cls-2" d="M296.29,529.35c-6.43-16.54-13.84-33.72-26.56-46.48-15.51-15.57-36.65-18.54-57-10.88,14.84-5.6,31.7-8.12,46.79-2,13.65,5.54,23.66,17,30.7,29.62,7.32,13.12,12,27.8,15.29,42.41,3.75,16.78,4.09,34-1.35,50.5-4.44,13.45-10.27,27-20.7,37-11,10.44-25.4,14-40.19,14.09-34.31.29-68.34-8.67-102.36-12-19-1.86-37.81,1.27-56.8.07-16.94-1.07-34.17-5.46-47.79-16,.94-1.13,14.2,4.67,15.9,5.23,10.36,3.42,22,4,32.82,4.32,27,.72,53.72-3.34,80.46,2.1,13.12,2.67,26,6.17,39.38,7.35,12.76,1.12,25.83,2.95,38.64,2.92,22.05-.05,38.25-12.95,47.41-32.43C301.62,582.54,305.5,553.06,296.29,529.35Z"/><path class="cls-2" d="M311.49,789.21c-2-8.47-7.11-15.78-12.32-22.56,3.3,9.57,7.52,18.2,7.94,28.51a240.69,240.69,0,0,1-1.25,31.22c-.74,8.25-.74,18.82-4.59,26.34-4,7.88-12.75,13-20.55,16.49-18.4,8.24-38,13.37-56,22.5s-35.34,18.53-54.29,25.45c-22,8-44.8,13.25-67.75,17.61,19.72,1.26,39.14-2.46,58.06-7.73a267.25,267.25,0,0,0,53.93-21.85c17.11-9.09,35.29-15.39,53.07-23,15.85-6.74,29.39-15,37-31.07,4.37-9.28,6.2-19.44,7.35-29.56C313.23,810.87,314,799.8,311.49,789.21Z"/><path class="cls-2" d="M68,930c13.71,3.71,29.43,4.2,43.57,4.12,15-.08,29.64-3.39,44-7.26a274.89,274.89,0,0,0,40.79-14.17c12.91-5.77,25.16-12.92,38.24-18.32,15.3-6.31,31.19-11.17,46.12-18.36-12.67,7.29-26.44,12.28-39.84,18-13.11,5.62-25.5,12.69-38.31,18.94a243.56,243.56,0,0,1-40.76,15.17c-14.26,4-28.84,7.62-43.72,8a173.34,173.34,0,0,1-25.68-1.63C84.25,933.54,75.94,932.56,68,930Z"/><path class="cls-3" d="M302.79,963.14c-6.25,13.55-12.75,27.81-24,38s-25.31,16.55-39.15,22.59c-15.28,6.67-30.81,12.69-46.46,18.43-7.19,2.63-14.51,5.18-22.14,6.15S156.5,1048,149.2,1046a53.61,53.61,0,0,0-12.14-2.34c-3.86-.16-7.7.3-11.57.06-7.65-.46-14.83-2.88-20.65-8,7.08,1.92,13.8,4.18,21.19,4.65,7.71.49,15.43-.07,23.14.17,7.52.23,15,2.32,22.5,1.07,7.32-1.22,14.48-4.24,21.41-6.8,27-10,54.84-20.2,78.21-37.42C283.68,988.25,295.85,977.08,302.79,963.14Z"/><path class="cls-3" d="M618.53,664.5s-35,76-76,111C542.53,775.5,605.53,734.5,618.53,664.5Z"/><path class="cls-3" d="M447.53,985.29c-5,2.27-8.78,6.35-13.16,9.54-4.77,3.48-10.2,5-15.94,6.13-13.29,2.5-26.74,4.51-40.28,4-6.29-.24-11.58,2.42-17.66,3.54a34,34,0,0,1-9.57.46c-2.86-.29-5.6-1.73-8.46-1.73s-5.6,1.12-8.35,1.52a62.39,62.39,0,0,1-10.42.65,53.16,53.16,0,0,1-17.92-3.52c-3.12-1.21-3.77-2.33-6.93-.93a38.69,38.69,0,0,1-7.06,2.73A48.9,48.9,0,0,1,270,1008c10.31-6.19,17.73-15.92,23.56-26.26,5.73-10.15,11.58-21.38,14.53-32.69,6.87-26.38-10.49-54.14-27.35-73,7.12-3.79,14.21-8.38,18.31-15.55,8.77,26,18.81,51.37,37.22,72.24,17,19.26,38.82,33.36,63,41.92A213.89,213.89,0,0,0,447.53,985.29Z"/><path class="cls-3" d="M670,693s3,63-36,172C634,865,687,747,670,693Z"/><path class="cls-3" d="M639,679c7.74,33-.43,73-21,100C633.35,748.07,640,713.4,639,679Z"/><path class="cls-3" d="M321,742c14.15,24,37.5,42.31,61.51,55.75C410.9,813.62,442.17,819.23,474,812c-45.95,22.56-98.64-1.39-131.18-35.83C333.61,766.39,324.73,755.16,321,742Z"/><path class="cls-3" d="M538,856c-13.09,31.74-28.65,64-29,99-3.35-17.06.41-35,5.71-51.23A191.94,191.94,0,0,1,538,856Z"/><path class="cls-3" d="M36,714c-1,15.63-3.37,31.45,0,47C29.56,747.15,31.91,728.16,36,714Z"/><path class="cls-3" d="M62,720c-1.05,15.61-2.24,31.43,0,47-2.67-7.23-2.92-15.14-2.89-22.77C59.18,736.08,59.8,727.87,62,720Z"/><path class="cls-3" d="M52,711a290.19,290.19,0,0,0-2.23,29c-.39,9.66-1.19,19.38-.77,29-2.19-9.52-1.66-19.46-1.21-29.14S49,720.31,52,711Z"/><path class="cls-3" d="M37,529c-1.77,21-4.44,41.81-4,63C29.35,571.53,31.92,549,37,529Z"/><path class="cls-3" d="M58,529c-1.77,11.7-3.36,23.42-4.55,35.19C52.35,575.41,51.14,586.72,52,598c-2.42-11.17-1.65-22.76-.53-34A193.24,193.24,0,0,1,58,529Z"/><path class="cls-3" d="M48,856c0,8.26.18,16.58,1.52,24.75s4.4,16,5.48,24.25c-2.73-7.64-5.93-15.16-7.33-23.2A71.32,71.32,0,0,1,48,856Z"/><path class="cls-3" d="M60,860c1,16.57,4.62,32.79,8,49C61.76,894.23,57.82,876,60,860Z"/><path class="cls-3" d="M103,983c4.71,15.08,7.51,30.93,15,45-4.87-5.57-7.57-12.72-9.81-19.66A113,113,0,0,1,103,983Z"/><path class="cls-3" d="M118,983a210.8,210.8,0,0,1,7.36,20.77c1.93,6.12,3.3,12.68,6.64,18.23-4.56-4.46-6.43-11.08-8.32-17A165.3,165.3,0,0,1,118,983Z"/><path class="cls-1" d="M584.78,550c-3.2-41.2-6.89-82.41-14.69-123a533.44,533.44,0,0,0-14.26-57.85c-3-9.51-6.24-18.93-10-28.17-3.58-8.9-7.76-16.73-8.53-26.45-1.57-19.87-3-39.77-4.48-59.65-.77-10.24-2.34-20.33-4-30.45-1.4-8.58-2.17-17.35-4.12-25.83-1.65-7.16-4.44-14.22-9.73-19.49-5.93-5.91-14.29-9.19-22.43-10.56-15.92-2.69-32.29,1.25-45.82,9.85C417.42,197,398.9,231.57,386,262.8c-13.42,32.57-16.16,70.43-7.92,104.68A141.65,141.65,0,0,0,386,391a121.88,121.88,0,0,0,5.5,11.1c2.23,4,6.5,7.94,5.92,12.75-1.14,9.39-4.45,18.95-7.29,27.93-2.9,9.17-6.13,18.24-9.52,27.24q-5.47,14.52-11.56,28.8c-1.87,4.39-3.68,8.82-5.79,13.09-1.93,3.92-4.88,8.16-4.52,12.7,1.33,16.49,17.75,30,30.3,38.57,14.8,10.13,31.47,17.27,48.49,22.72a270.82,270.82,0,0,0,55.67,11.93c17.44,1.73,35.6,1.6,52.69-2.66,13-3.24,26.51-9.43,33.76-21.27C584,566.79,585.43,558.31,584.78,550Z"/><path class="cls-3" d="M378.57,369c5.77,14.08,18.75,25.37,31,33.68a135.14,135.14,0,0,0,64,22.32,127,127,0,0,1-40.23,2.89c-10.2-.94-20.66-3.45-29.23-9.29-9.25-6.31-14.6-16.37-18.62-26.54A140.31,140.31,0,0,1,378.57,369Z"/><path class="cls-2" d="M392.41,408.66c11.36,11.14,25.62,19.77,41.46,22.45,16.82,2.85,33.38-1.93,48.5-9.12-15.27,5.95-33.1,6.76-49.16,4.06a96,96,0,0,1-23.82-7.27c-3.67-1.67-7.12-3.68-10.65-5.61C396.72,412.08,393.41,410.92,392.41,408.66Z"/><path class="cls-4" d="M37,802a50.45,50.45,0,0,0-1.81,33c2.7,9,9,20.41,17.93,24.66,4.89,2.33,10.38,1.48,15.53.59A152.47,152.47,0,0,0,88.41,855c12.87-4.06,25.5-8.77,38-13.9,12.3-5.06,24.45-10.47,36.34-16.43,5.24-2.63,10.52-5.22,15.58-8.2a82,82,0,0,0,7.3-4.78c1.9-1.41,5.82-3.34,3.31-5.61s-10.12-.39-13.32-.18c-7,.48-13.93,1.1-20.89,1.78-13.37,1.3-26.73,2.62-40.15,3.15-15,.59-30.06.2-44.83-2.5-7.11-1.3-14.07-3.23-21-5.19C46.61,802.62,38.28,798.88,37,802Z"/><path class="cls-4" d="M55,651c-17,7.56-29.53,28.1-24.89,46.8,1,4,3,7.9,7.21,9.1,5.14,1.45,11.54,0,16.58-1.07,11.69-2.58,23-7.3,34.13-11.63,22.81-8.89,45.09-19.34,68.36-27,2-.67,15.12-2.92,13-6s-10.44-3.43-13.68-3.87q-8.76-1.18-17.55-2.24c-14.17-1.7-28.42-2.92-42.67-3.84-6.88-.44-13.77-.79-20.66-1-3.62-.11-7.25-.17-10.87-.12C61.09,650.17,57.7,649.82,55,651Z"/><path class="cls-4" d="M104.53,957.5c-6.63-1.89-20.09-3.91-16.35,7.62,2.69,8.3,10.62,17.47,18.63,20.89,5.18,2.21,10.55,1.28,15.93.35a170.46,170.46,0,0,0,18.71-4.55c12.78-3.73,25.48-7.8,37.94-12.51,11.37-4.31,22.54-9.15,33.43-14.56,9.83-4.88,19.55-10.45,27.54-18.07,1.9-1.81,6.76-5.9,3.47-8.42-1.74-1.33-5.68-.62-7.64-.46a73.6,73.6,0,0,0-10.81,1.85c-12.42,2.91-24.73,6.38-37,9.83-14.06,4-28.09,8-42.24,11.66-7,1.8-14.09,3.6-21.2,5.07C118.69,957.5,110.83,959.3,104.53,957.5Z"/><path class="cls-4" d="M105,460c17.06,5.33,40.61,7.14,47.4,26.57a77.34,77.34,0,0,1,4.16,23.08c.15,8.46-4.5,13.58-12.8,15s-17.51-.16-25.93-.83c-10.23-.81-20.46-1.67-30.72-2-8.23-.24-18,.1-25.32-4.31-8.42-5.07-1.33-14.63,3.07-19.88A327.06,327.06,0,0,0,85.13,471C89.84,464.09,95.73,457.09,105,460Z"/><path class="cls-4" d="M639,679c28.3,47.17,145,88,168,82S633,669,639,679Z"/><path class="cls-4" d="M563,882c27.3,41.86,125,89,148,81S548,859,563,882Z"/><path class="cls-4" d="M398.88,560.24c-21,134.29-83.08,192.93-68.85,39.55C335.9,536.5,409.68,491,398.88,560.24Z"/><path class="cls-4" d="M445.57,191c-12.29,7.14-43,60-8,53S488.57,166,445.57,191Z"/><path class="cls-2" d="M284.63,880.5C298,909,337,932,270,1009l4,3s40-41,39-73S284.63,880.5,284.63,880.5Z"/></g></svg>