<svg xmlns="http://www.w3.org/2000/svg" viewBox="0 0 826.21 1096.88"><defs><style>.cls-1{fill:#fc9;}.cls-2{fill:#bf9973;}.cls-3{fill:#80664d;}.cls-4{fill:#ffebd6;}.cls-5{fill:#ffe0c2;}.cls-6{fill:#ffd6ad;}</style></defs><title>Hand</title><g id="Frame_5" data-name="Frame 5"><path class="cls-1" d="M792.14,956c-17.84,39.95-43.14,76.86-75.45,106.49a264.13,264.13,0,0,1-25.58,20.76c-4.08,2.9-8.26,5.65-12.57,8.2-1.37.81-4.47,3.47-6.15,3.42-1.33,0-2.68-1.6-3.65-2.37-18.2-14.51-38.12-27.22-57.59-39.93s-39.35-25.07-59.33-37.12q-15.28-9.22-30.72-18.15c-5.15-3-10.32-5.87-15.49-8.78-4.92-2.78-9.84-5.93-15.34-7.44-10.66-2.92-22.54-4.24-33.33-1.56-11,2.74-19.67,7.59-28.6,14.43-8.54,6.54-19.83,7.73-30.19,9.23-5.25.76-10.51,1.42-15.8,1.76q-4.91.31-9.83.29c-2.73,0-5.76-.71-8.4.06-4.59,1.33-8.62,3.31-13.52,3.73a33.87,33.87,0,0,1-8-.24c-2.41-.37-5-1.86-7.38-1.72-4.42.26-8.92,1.94-13.45,2.26a53.91,53.91,0,0,1-16.66-1.15,33.24,33.24,0,0,1-6.53-2.25c-1.33-.64-2.47-1.7-4-1.74s-3.28,1.37-4.69,2a38.26,38.26,0,0,1-8.91,2.26,50.61,50.61,0,0,1-15.25-.12c-2.62-.38-3.29.38-5.34,1.78a73.36,73.36,0,0,1-8,4.51,504.17,504.17,0,0,1-63.82,27c-10.59,3.7-21.89,7.91-33.29,7.12-5.77-.4-10.89-2.58-16.41-4s-11.12-1-16.77-.88c-10.26.24-19.05-2.69-26.32-10.09-6.34-6.46-10.66-14.82-13.66-23.28-3.71-10.45-5.77-21.33-9.74-31.71a165.49,165.49,0,0,1-9.21-32.1c-.78-4.65-.91-9.47-1.73-14.07-.76-4.29-5.79-4.4-9.35-6-8.92-4.11-17-10-22.24-18.46-5.75-9.23-7.05-19.75-7.83-30.38a226.48,226.48,0,0,0-5.57-34.08c-2.56-11.23-4.78-22.47-4.14-34a130.9,130.9,0,0,1,6.34-33c.66-2,1.71-3.62.56-5.59s-3.52-3.64-5-5.36a53.49,53.49,0,0,1-8.92-13.89c-4-9.68-3.47-20.15-3.16-30.4a526.73,526.73,0,0,1,6.6-71.31c.85-5,1.76-10.22,3.77-15a152.7,152.7,0,0,1,8.2-15.48c1-1.8,3.74-4.85,4-6.83.22-1.51-.76-1.94-1.9-3.11A89,89,0,0,1,13.19,598c-6.53-9.36-10.55-19.82-10.85-31.3-.3-11.31,1.87-23.05,4.46-34a96.51,96.51,0,0,1,12.75-30.16Q29,487.42,39.55,473c12.83-17.59,25.73-35.27,45.94-44.75,18.56-8.71,39.76-11.43,60.09-11.4a70,70,0,0,1,15.07,1.38c5.69,1.26,10.95,3.78,16.41,5.73,10,3.58,22.41,2.64,32.91,2.51,3.22,0,6.45-.16,9.67-.17,2.14,0,5.54.68,7.48-.28,2.78-1.38,3-7.33,3.85-10.32,2.82-10.53,4.42-22.13,9.78-31.76,9.44-17,28.63-30.27,46.93-35.84,11.27-3.43,22.09-1.55,33.57-.83,12.08.76,24.16.49,36.25.19s24-.55,35.88,1.13c11.6,1.64,23,4.59,34.34,7.43,21.34,5.33,42.66,11.77,62.65,21,19.49,9,34.7,22.13,45.23,41,10.91,19.53,16.34,41.39,21.31,63,10.75,46.77,27.45,91.3,44.84,135.94l5.71,14.64c1.53,3.92,2.22,8.44,5.82,10.89,9.45,6.45,20.35,11.18,30.63,16.14,21.3,10.28,42.9,19.93,64.52,29.53q33.25,14.76,66.69,29.12,16.36,7,32.76,14c2.27,1,4.52,2,6.83,2.86,1.72.63,4.29,1,5.63,2.31,1.5,1.49,1.25,3.8,1.45,5.82.33,3.22.67,6.45.94,9.68A460.23,460.23,0,0,1,813,892.86,344.5,344.5,0,0,1,792.14,956Z"/><path class="cls-2" d="M306.58,740.68c-4.6,8.34-10.36,17-18.88,21.74-6.12,3.42-13.61,5.26-20.34,7.11-19.89,5.47-40.3,9.18-60.63,12.51-24.17,4-48.49,6.92-72.82,9.7-16,1.83-32.19,3.68-48.35,3.73-17.15.06-33.76-2.67-48.86-11.32,12.9,2.76,25.76,4.88,39,5.23,24,.63,48.15-2.49,71.85-6.1,32.06-4.88,64.44-9.87,96.16-16.72,20.31-4.39,46.46-11,58.8-29.57,2.49-3.75,3.66-9,4.84-13.37a92,92,0,0,0,2.87-14.85,90.86,90.86,0,0,0-2.27-30.16c-4.83-20.29-15.72-37-26.35-54.56,14.54,14.88,27,32.24,32.68,52.48A85.1,85.1,0,0,1,306.58,740.68Z"/><path class="cls-3" d="M282.17,764.75c-16.19,6.94-33.6,10.4-50.79,13.88q-27.37,5.55-55,9.38-27.94,3.82-56,6.67c-18.19,1.82-36.7,3.37-54.86.47a79.55,79.55,0,0,1-26.92-9.28c-7.31-4.18-16.18-10.19-21.41-16.87,5.35,6.14,14,11.49,21.09,15.36a80,80,0,0,0,22.54,7.81c16.23,3.24,33,2.42,49.32.79,36.91-3.68,73.91-8.24,110.5-14.39C241.28,775.09,262.31,771.72,282.17,764.75Z"/><path class="cls-1" d="M230,419.13c.17-.65.36-1.34.56-2.07C230.43,417.75,230.24,418.44,230,419.13Z"/><path class="cls-1" d="M230.61,417.06c.27-1,.54-2,.79-2.93C231.13,415.17,230.86,416.14,230.61,417.06Z"/><path class="cls-1" d="M237.14,392a34.91,34.91,0,0,1,5.17-10.8c-3.18,4.71-5,10.11-6.37,15.56Z"/><path class="cls-1" d="M324.22,347.45l2.07.09Q325.25,347.51,324.22,347.45Z"/><path class="cls-1" d="M390.14,348c2.54.47,5.09.93,7.63,1.42a111.35,111.35,0,0,0-20.72-2C381.36,347.39,385.87,347.22,390.14,348Z"/><path class="cls-1" d="M524.14,401a124.68,124.68,0,0,1,7.26,10.16,83.6,83.6,0,0,0-22.21-23.42A66,66,0,0,1,524.14,401Z"/><path class="cls-1" d="M536.5,419.78q1.2,2.19,2.29,4.4C538,422.7,537.29,421.24,536.5,419.78Z"/><path class="cls-1" d="M539.51,425.66c13.75,28.33,17.71,59.2,24.63,85.34C556.32,482.33,552.46,452.6,539.51,425.66Z"/><path class="cls-1" d="M567.39,522.12c5.85,18.66,15.73,45.69,24.62,69.27C583.35,568.49,574.62,545.52,567.39,522.12Z"/><path class="cls-1" d="M607.57,631.92q-1.26-3.23-2.51-6.45Z"/><path class="cls-3" d="M206,487.14c-29.67-13.49-58.66-28.28-91.82-30.14C146.85,453.82,179.32,469.74,206,487.14Z"/><path class="cls-3" d="M173.14,439c12.05,9.79,21.07,26.37,21.42,42C189.3,465.87,181.88,452.38,173.14,439Z"/><path class="cls-2" d="M281.88,527c-5.55-13.89-23.52-21.52-36.28-26.83-12.27-5.1-25-8.75-37.66-12.57,15.39,4.47,31,8,46.41,12.49,10.61,3.07,22.11,6.43,30.95,13.36,9.52,7.46,11.71,20.3,14,31.54,3,14.71,4.06,30.7-1,45.09-4.69,13.24-9.2,26.08-18.9,36.65-10.54,11.49-24.5,16.42-39.87,16.9-16.88.53-34-2.08-50.71-4.44-18-2.54-35.86-5.61-53.92-7.42a185.75,185.75,0,0,0-30.09-.64c-9.13.56-18.2,1.14-27.34.58-17-1-34.3-5.44-48-16,.37-.45,14.57,5,16.39,5.49A125.39,125.39,0,0,0,64,624.35c12.59,1.31,25.27,1.06,37.9.63s25-1,37.52-.6c13.87.42,27.71,1.51,41.57,2.2,11,.55,22,.33,32.91,1.43,9.41,1,19,1.93,28.33.07,20.18-4,32.35-21.14,38.55-39.59C287.21,569.46,289.5,546.05,281.88,527Z"/><path class="cls-3" d="M257.14,641c-14.73,4.5-30.49,3.45-45.61,2-16.66-1.58-33.2-4-49.77-6.37-16-2.25-32.11-4.41-48.31-4.44s-31.92,2-48-1c-15.08-2.74-30.87-8.49-41.28-20.24,19,18.78,48.77,21.08,74,19.15A242.62,242.62,0,0,1,149.36,632c17.55,2.33,35,5.38,52.53,7.79C220.07,642.28,239,645.29,257.14,641Z"/><path class="cls-2" d="M304.59,789.21c-2-8.41-7.14-15.82-12.32-22.56,1.84,5.34,4.24,10.47,5.92,15.86a55.59,55.59,0,0,1,2.07,18A318.43,318.43,0,0,1,297.89,836c-.71,5.27-1.11,11.91-3.52,16.69a28.73,28.73,0,0,1-6.3,7.64c-4.85,4.45-10.79,7.45-16.82,10C254,877.5,236,882.56,219.21,891c-11,5.49-21.54,11.64-32.72,16.74a319.51,319.51,0,0,1-30.33,12c-19.71,6.66-40,11.15-60.42,15,15.79,1,30.55-1,45.89-4.6a265,265,0,0,0,52-17.72c9.1-4.3,17.71-9.52,26.88-13.69,9.75-4.43,19.75-8.26,29.7-12.21,9-3.57,18-7.18,26.39-12A49.47,49.47,0,0,0,295.78,855c5.26-9.27,7.7-19.91,9-30.4C306.17,813.1,307.25,800.59,304.59,789.21Z"/><path class="cls-3" d="M61.14,930c7,1.88,14.2,2.36,21.34,3,7.66.66,15.36,1.22,23.06,1.14,14.42-.15,28.57-3.35,42.44-7a276.77,276.77,0,0,0,41.55-14.37c13.15-5.86,25.59-13.2,39-18.61,15.1-6.12,30.71-11,45.41-18.07-12.66,7.29-26.43,12.31-39.84,18S208.12,907,195,913.32a242.69,242.69,0,0,1-40.81,15c-14.27,4-28.88,7.55-43.77,7.83a175.33,175.33,0,0,1-24.88-1.65C77.36,933.53,69,932.56,61.14,930Z"/><path class="cls-2" d="M295.9,963.14c-4.5,9.76-9.19,19.64-15.43,28.43A66.93,66.93,0,0,1,264,1007.5c-8.71,6.2-18.43,10.62-28.22,14.94Q214.17,1032,192,1040.08c-13.13,4.81-27.27,10.7-41.48,8-8.17-1.57-14.7-4.85-23.29-4.38-10.95.6-20.6-.33-29.26-7.95,5.68,1.54,11.34,3.66,17.22,4.31,9,1,18.11.33,27.11.5,6.91.13,14.13,2.14,21,1.29a67,67,0,0,0,13.13-3.54c9.56-3.26,19-7,28.4-10.59,23.69-9.14,46.87-19.34,66.53-35.75C280.9,984,290.28,974.41,295.9,963.14Z"/><path class="cls-1" d="M234.88,400.91c.29-1.16.58-2.31.88-3.45Z"/><path class="cls-1" d="M276.5,352.61c-13.5,6.63-25.91,17.07-33.2,27.17C251.57,368.18,263.74,358.82,276.5,352.61Z"/><path class="cls-1" d="M282.32,350a63.47,63.47,0,0,1,11.43-3.44A65.65,65.65,0,0,0,282.32,350Z"/><path class="cls-1" d="M293.75,346.58c1.18-.24,2.37-.43,3.57-.58C296.14,346.15,294.95,346.35,293.75,346.58Z"/><path class="cls-1" d="M304.22,345.66c6.7.12,13.31,1.41,20,1.79C317.54,347.12,310.88,345.86,304.22,345.66Z"/><path class="cls-1" d="M370.68,347.47c-9.58.16-21.27.49-32.94.36C348.72,347.93,359.7,347.61,370.68,347.47Z"/><path class="cls-1" d="M398.24,349.51l1.16.23Q397.08,349.31,398.24,349.51Z"/><path class="cls-1" d="M457.91,364.62c-1.31-.43-2.63-.84-3.94-1.25Z"/><path class="cls-1" d="M454,363.37c-16.8-5.24-33.12-9.13-45.19-11.71C424,354.88,439.12,358.69,454,363.37Z"/><path class="cls-1" d="M405.17,350.9l3.61.76Z"/><path class="cls-1" d="M474.57,370.5a186.89,186.89,0,0,1,28.12,13.15A196.5,196.5,0,0,0,474.57,370.5Z"/><path class="cls-2" d="M611.64,664.5s-35,76-76,111C535.64,775.5,598.64,734.5,611.64,664.5Z"/><path class="cls-2" d="M440.64,985.29c-6.91,3.14-11.58,9.74-18.5,12.71-5.3,2.28-11.45,3.11-17.09,4.07a201.66,201.66,0,0,1-27.43,3.11c-4.45.14-9.8-1-14,.49-7.21,2.53-14.21,4.36-21.9,3-1.64-.29-3.24-1.07-4.86-1.33-2.59-.42-5.46.77-8.15,1.2-11.16,1.8-21.65,1-32-3.51-.47-.21-1.14-1-1.64-1-1.71-.22-5.54,2.37-7.44,2.93a49.3,49.3,0,0,1-7.07,1.54,48.49,48.49,0,0,1-17.49-.47c16.73-10,25.34-28.64,33.16-45.71,4.5-9.82,7.42-19,6.26-30-1.14-10.78-5.24-21.1-10.41-30.55A139.44,139.44,0,0,0,273.88,876c7.21-3.84,14.17-8.31,18.31-15.55,6.06,18,12.29,35.72,22.27,52a145.71,145.71,0,0,0,62.17,55.69C396.72,977.65,418.61,982.88,440.64,985.29Z"/><path class="cls-2" d="M663.14,693s3,63-36,172C627.14,865,680.14,747,663.14,693Z"/><path class="cls-2" d="M632.14,679c4.56,19.42,2.76,41-2.19,60.17A111.6,111.6,0,0,1,611.14,779C626.54,747.91,633.08,713.61,632.14,679Z"/><path class="cls-2" d="M314.14,742c13.46,22.84,36.85,41.53,59.53,54.62,13.59,7.84,28.23,13.86,43.67,16.83,16.69,3.21,33.28,2.29,49.8-1.46-29.16,14.32-63.31,9.82-91.29-5a151.32,151.32,0,0,1-36.08-26.87C329.33,769.62,318.22,756.5,314.14,742Z"/><path class="cls-2" d="M531.14,856c-13.06,31.65-28.65,63.95-29,99-3.39-17.29.82-36.81,6.37-53.24A190.88,190.88,0,0,1,531.14,856Z"/><path class="cls-2" d="M29.14,714c-1,15.63-3.37,31.45,0,47C22.66,747.15,25,728.16,29.14,714Z"/><path class="cls-2" d="M55.14,720c-1,15.37-2.2,31.7,0,47-2.7-7.31-2.93-15.78-2.89-23.49A88.3,88.3,0,0,1,55.14,720Z"/><path class="cls-2" d="M45.14,711c-1.58,11.17-2,22.53-2.42,33.79-.32,8-.93,16.2-.58,24.21-2.14-9.28-1.64-19.69-1.21-29.14C41.36,730.23,42.17,720.22,45.14,711Z"/><path class="cls-2" d="M30.14,529c-1.77,21-4.44,41.81-4,63C22.45,571.53,25,549,30.14,529Z"/><path class="cls-2" d="M51.14,529c-1.73,11.44-3.32,22.9-4.47,34.42S44.23,586.55,45.14,598c-2.44-11.28-1.6-23.39-.46-34.79A190.64,190.64,0,0,1,51.14,529Z"/><path class="cls-2" d="M41.14,856a161.37,161.37,0,0,0,1.52,24.75c1.3,8.17,4.41,16.09,5.48,24.25-2.86-8-6.11-15.47-7.46-23.94A71.72,71.72,0,0,1,41.14,856Z"/><path class="cls-2" d="M53.14,860c1,16.57,4.62,32.79,8,49C54.86,894.23,50.92,876,53.14,860Z"/><path class="cls-2" d="M96.14,983c4.69,15,7.53,31,15,45-5.17-5.91-8.11-14.13-10.4-21.52A110.07,110.07,0,0,1,96.14,983Z"/><path class="cls-2" d="M111.14,983a229.8,229.8,0,0,1,7.84,22.27c1.76,5.54,3.15,11.73,6.16,16.73-4.6-4.5-6.77-12.18-8.68-18.1A154.72,154.72,0,0,1,111.14,983Z"/><path class="cls-3" d="M316,288.43c10,0,18.95,2.86,28.47,6.3,22.59,8.18,46.71,11.53,69.05,20.29,21.43,8.4,41.88,21,61.12,33.56,18.69,12.16,38.64,25.9,50.71,45.09,6.2,9.85,10.13,20.86,15,31.4S550,446.2,553.86,457.2c8.13,23,14.71,46.43,23.58,69.2s13.42,46.3,19.14,69.88a344.34,344.34,0,0,0,11,35.28c1.78,5,2.38,9.29,7.21,12.06q6.75,3.86,13.66,7.42c21.59,11,43.72,21,65.84,30.88q34.2,15.33,68.62,30.16c11,4.77,22.08,9.49,33.11,14.24,5.91,2.54,11.75,5.42,17.8,7.58,4.23,1.51,7.22,2,7.8,6.86a445.76,445.76,0,0,1,2.07,72.2c-2.13,46.38-10.53,92.87-28.45,135.86-16.36,39.26-40,75.72-70.23,105.73a277.94,277.94,0,0,1-25.81,22.7c-4.63,3.58-9.38,7-14.28,10.23-2.41,1.58-4.91,3-7.33,4.58-1.48,1-3.06,2.45-4.93,2.49h-.08c-2.49,0-5-2.59-6.93-4-2.44-1.86-4.79-3.83-7.24-5.67-4.57-3.42-9.29-6.66-14-9.92q-15.12-10.51-30.53-20.58c-20.42-13.38-41.15-26.29-62.06-38.9-10.65-6.42-21.38-12.7-32.13-19-9.14-5.31-18-11.79-28.14-15A73,73,0,0,0,470,978.19a59.6,59.6,0,0,0-13,1.38,69.39,69.39,0,0,0-15.8,5.56c-4.9,2.46-8.87,6.07-13.27,9.26-8.57,6.21-19,7.59-29.22,8.81-5.3.63-10.59,1.34-15.91,1.71-1.06.07-2.13.1-3.2.1-3,0-6-.21-9-.21-1.33,0-2.65,0-4,.16-2.79.26-5.2,1.72-7.84,2.55a36.21,36.21,0,0,1-8,1.55c-1,.08-2.1.13-3.15.13a28.65,28.65,0,0,1-4.2-.29c-2.53-.38-5-1.71-7.52-1.75h-.14c-2.62,0-5.33,1.15-7.9,1.56-2.33.37-4.68.64-7,.77q-1.84.11-3.68.11a49.35,49.35,0,0,1-11.86-1.36c-3.89-1-7.11-3.6-10.7-3.6a7.26,7.26,0,0,0-3.22.76,38.39,38.39,0,0,1-15.55,3.56h-.65c-3,0-5.8-.68-8.56-.68a10.53,10.53,0,0,0-5.79,1.52,137.16,137.16,0,0,1-13.83,7.56c-21.42,10.13-43.24,19.61-65.87,26.73-7.67,2.41-15.42,4.29-23.27,4.29a44.12,44.12,0,0,1-11.39-1.45c-5.56-1.47-10.87-3.13-16.68-3.34-.59,0-1.18,0-1.77,0-2.86,0-5.72.21-8.57.21a37.87,37.87,0,0,1-4.86-.28c-17.71-2.29-27.4-19.15-32.7-34.48-3.34-9.68-5.81-19.61-9.25-29.28C68.65,968.82,65,958,63.07,946.49q-.83-4.92-1.3-9.89c-.17-1.86,0-4.21-1.06-5.87-1.73-2.73-6.47-3.28-9.2-4.55-9.07-4.23-17-10.49-22.15-19.17-5.61-9.48-6.69-20.26-7.51-31C20.92,863.69,18.38,852,15.72,840c-2.58-11.62-4.1-23.08-3-35a112.69,112.69,0,0,1,3.37-18.75c1.08-4,4.61-10.64,3.36-14.63-.67-2.14-3.39-4-4.81-5.69a65.67,65.67,0,0,1-4.37-5.64A47.3,47.3,0,0,1,4,747.19C.74,736.2,1.79,724,2.43,712.74,3.11,700.85,4,689,5.31,677.14c1.26-11.6,2.16-23.59,5.12-34.91a67.9,67.9,0,0,1,6.13-15.12q2.16-4,4.41-8c.93-1.63,3.22-4.35,3.58-6.19.45-2.32-1.8-3.61-3.36-5.19a67.58,67.58,0,0,1-5-5.8,74.82,74.82,0,0,1-8.29-12.89c-5-10-6.19-20.77-5.21-31.82a159.42,159.42,0,0,1,6.56-33.86c3.37-10.58,9.37-20,15.36-29.26C31.1,484,38.13,474.29,45.51,464.82c12.85-16.52,26.09-30.9,45.88-38.93a119.79,119.79,0,0,1,30.35-7.5,169.38,169.38,0,0,1,20.74-1.49A88.88,88.88,0,0,1,156.81,418a84.51,84.51,0,0,1,16.69,4.65c1.3.5,3.93,2.1,5.46,2.1l.31,0c1.31-.24,2.68-2.22,3.47-3.18,7.25-8.75,14.11-18,21.06-27,7.11-9.22,14.84-18,21.69-27.4a315,315,0,0,0,17.85-28.39c5.32-9.22,10.14-19.25,17.46-27.08A69.61,69.61,0,0,1,283.38,296a87.06,87.06,0,0,1,28.73-7.4q2-.15,3.87-.14m0-3c-1.36,0-2.74.05-4.1.15a90.27,90.27,0,0,0-29.74,7.65,72.19,72.19,0,0,0-23.54,16.39c-6.09,6.51-10.46,14.37-14.68,22-1,1.87-2.12,3.81-3.19,5.66a312.66,312.66,0,0,1-17.68,28.12c-4,5.44-8.33,10.79-12.54,16-3,3.7-6.13,7.52-9.1,11.37q-2.62,3.39-5.22,6.81c-5.1,6.67-10.37,13.58-15.77,20.09l-.44.55a14.75,14.75,0,0,1-1.32,1.51,22.68,22.68,0,0,1-2.42-1.06c-.61-.29-1.18-.57-1.68-.77A86.9,86.9,0,0,0,157.3,415a91.14,91.14,0,0,0-14.83-1.12,168.72,168.72,0,0,0-21.1,1.51,121.79,121.79,0,0,0-31.11,7.7C70.72,431,57.29,444.77,43.14,463c-7.93,10.2-14.82,19.86-21.07,29.53-5.68,8.8-12.13,18.78-15.69,30A161,161,0,0,0-.31,557c-1.13,12.74.67,23.68,5.51,33.42a77.13,77.13,0,0,0,8.61,13.41,69.3,69.3,0,0,0,5.24,6.05c.39.4.79.75,1.18,1.1a7.83,7.83,0,0,1,1.37,1.41,16.1,16.1,0,0,1-1.92,3.26c-.49.72-1,1.39-1.31,2-1.53,2.69-3,5.39-4.45,8a71.06,71.06,0,0,0-6.39,15.78c-2.55,9.76-3.61,20-4.63,29.87q-.28,2.75-.57,5.47C1.11,688,.17,699.69-.56,712.57q-.07,1.29-.15,2.6C-1.36,726.1-2,737.39,1.14,748.05a50.18,50.18,0,0,0,6.7,14,68.41,68.41,0,0,0,4.57,5.9,25.58,25.58,0,0,0,1.82,1.85,10.46,10.46,0,0,1,2.4,2.79c.6,1.91-.91,6-2,8.9-.54,1.45-1.05,2.82-1.39,4a115.81,115.81,0,0,0-3.46,19.25c-1,10.77-.11,21.85,3,35.93,2.52,11.36,5.12,23.12,6.07,35.51.91,11.9,2.13,22.55,7.92,32.33,5.1,8.63,13,15.48,23.47,20.36a27.38,27.38,0,0,0,3.26,1.18c1.81.57,4.06,1.28,4.68,2.26a7.77,7.77,0,0,1,.51,3.08c0,.5,0,1,.09,1.46.31,3.31.75,6.71,1.33,10.11,2,11.88,5.84,23.19,9.6,33.76,1.78,5,3.34,10.2,4.84,15.23,1.38,4.6,2.8,9.36,4.41,14,7.55,21.87,19.71,34.48,35.15,36.48a40.34,40.34,0,0,0,5.24.3c1.48,0,3-.05,4.39-.11s2.8-.1,4.18-.1c.55,0,1.11,0,1.66,0,4.69.17,9.1,1.37,13.78,2.63l2.24.6a47.41,47.41,0,0,0,12.15,1.55c9,0,17.63-2.37,24.18-4.43,25-7.87,48.54-18.5,66.25-26.88a139.86,139.86,0,0,0,14.13-7.73,7.55,7.55,0,0,1,4.2-1.07,32.86,32.86,0,0,1,3.78.31,39.73,39.73,0,0,0,4.78.37h.76a41.12,41.12,0,0,0,16.75-3.86,4.26,4.26,0,0,1,1.91-.46,12.86,12.86,0,0,1,4.88,1.58,28.73,28.73,0,0,0,5.09,1.94,52.49,52.49,0,0,0,12.58,1.45c1.25,0,2.55,0,3.85-.11,2.36-.14,4.83-.41,7.33-.81a33.65,33.65,0,0,0,3.31-.75,17.33,17.33,0,0,1,4.12-.76h.1a13.21,13.21,0,0,1,3.47.79,23.42,23.42,0,0,0,3.66.93,31.74,31.74,0,0,0,4.64.32c1.08,0,2.22,0,3.39-.14a39.27,39.27,0,0,0,8.66-1.68c1-.33,2-.72,2.93-1.1a15.66,15.66,0,0,1,4.28-1.32c1.09-.1,2.3-.15,3.68-.15s2.88.05,4.41.1,3.08.11,4.64.11c1.24,0,2.36,0,3.4-.11,4.4-.3,8.81-.84,13.07-1.36l3-.36c9.93-1.18,21.19-2.53,30.62-9.36,1.3-.94,2.57-1.93,3.8-2.88a56.52,56.52,0,0,1,9.05-6.13,66.78,66.78,0,0,1,15.11-5.32,56.51,56.51,0,0,1,12.37-1.3,69.87,69.87,0,0,1,20.68,3.18c7.3,2.29,14.11,6.51,20.69,10.58,2.23,1.38,4.53,2.8,6.84,4.14,10.26,6,21.25,12.39,32.09,18.93,22.79,13.75,43.06,26.45,62,38.84,11,7.23,21,13.94,30.47,20.53l1.84,1.28c4,2.77,8.12,5.64,12.06,8.58,1.28,1,2.58,2,3.83,3s2.24,1.79,3.4,2.67c.34.26.7.56,1.08.87,2,1.68,4.58,3.77,7.67,3.77h.16a10.14,10.14,0,0,0,5.62-2.37c.3-.21.58-.42.87-.6,1.13-.73,2.32-1.46,3.47-2.16s2.59-1.58,3.87-2.42c4.62-3,9.36-6.41,14.47-10.37a282.09,282.09,0,0,0,26.09-22.95c29.49-29.29,54-66.19,70.89-106.71,16.7-40.08,26.35-86.13,28.68-136.88,1.22-26.51.53-50.28-2.09-72.69-.73-6.25-4.84-7.65-8.46-8.88l-1.3-.45c-4.06-1.45-8.14-3.29-12.08-5.06-1.81-.81-3.69-1.66-5.54-2.46l-12.37-5.31q-10.37-4.45-20.74-8.92c-25.72-11.13-48.16-21-68.59-30.14-21.6-9.68-43.94-19.69-65.7-30.81-4.35-2.23-8.78-4.63-13.53-7.35-3-1.72-3.8-4.18-5-7.91-.27-.82-.54-1.67-.86-2.56a346,346,0,0,1-10.9-35c-1.16-4.79-2.3-9.67-3.39-14.39-4.3-18.49-8.75-37.62-15.86-55.88-5.28-13.55-9.83-27.61-14.24-41.2-3-9.16-6-18.63-9.31-27.91-4-11.32-8.91-22-13.66-32.39-1.36-3-2.69-6.06-4-9-3.26-7.61-6.63-15.47-11.19-22.71-12.2-19.39-32.19-33.36-51.61-46-18.05-11.75-39.2-25-61.67-33.84-12-4.7-24.61-7.9-36.82-11-10.72-2.72-21.81-5.52-32.31-9.33-9.43-3.42-18.79-6.48-29.49-6.48Z"/><path class="cls-1" d="M617.22,645c-2.84-1.64-5.81-3-7.11-6.1-1.51-3.62-2.75-7.42-4.14-11.09a235.38,235.38,0,0,1-7.48-24c-4.41-16.88-7.61-34.06-12.18-50.91-4.68-17.25-12-33.51-17.76-50.4-5.93-17.35-10.67-35.1-17.21-52.24-3.23-8.47-7.34-16.46-11.05-24.72-3.26-7.26-5.94-14.77-9.4-21.94-7.47-15.48-19-27.49-32.37-38a373.6,373.6,0,0,0-45.11-30.06c-15.37-8.85-30.93-18-47.92-23.35-17.65-5.58-35.92-8.92-53.51-14.72-8.1-2.67-15.92-6.56-24.32-8.23s-16.9-1-25.11.74c-15.51,3.2-32.76,10.56-43.18,22.91-5.71,6.77-9.58,15.13-14,22.76-3.87,6.7-7.63,13.42-11.67,20A171.9,171.9,0,0,1,217,377.81c-5.62,6.52-10.63,13.56-16,20.34-6,7.6-12,15.1-18,22.66-5.27,6.62-9.33,13.64-13.88,20.73-8.94,13.91-22.86,27.76-19,45.78,3.19,14.84,14.7,27.09,27.61,34.39,29.52,16.71,66.67,7.35,97.22-1.4,16.33-4.67,33.13-10.77,47.41-20.15,6.65-4.37,11.91-11.06,17.43-16.71,4.2-4.3,8.56-8.42,12.64-12.84,4.79-5.18,10.41-10.82,13.32-17.34-3.54,7.9-9.41,14.32-14.63,21.11-.82,1.07-5.91,6.43-5.95,7.75,0,.62.87,1.82,1.12,2.34q6.55,13.66,13.13,27.3l6.07,12.62c1.67,3.47,1,4-.71,7.75-6.23,14.15-12.45,28.37-17.55,43-2.48,7.11-4.49,14-3.45,21.58,1.07,7.87,4.81,15.07,9.63,21.29,10.38,13.38,25.36,23.18,39.37,32.36,32.78,21.5,70.52,36.58,109.81,39.74a173.09,173.09,0,0,0,64-6.5c22.36-6.79,41.91-19.8,60.91-33C624,648.77,620.58,646.95,617.22,645Z"/><path class="cls-3" d="M220.78,529.85c6.62,0,14-2.16,20.47-3.31,7.39-1.31,14.76-2.77,22.05-4.58a331.37,331.37,0,0,1-43,7.3c-.15,0,.79.77-.05.33Q220.25,530,220.78,529.85Z"/><path class="cls-3" d="M220.25,529.89c-28.61,1.73-66.63-12.83-70.6-45.45-2.15-17.63,12.27-31,20.66-44.82,9.27-15.28,20.74-28.69,31.74-42.76,12.45-15.93,24.45-32.24,34.85-49.59a92.59,92.59,0,0,1-12.1,23.8c-5.74,8.07-11.85,15.87-18,23.61-11.16,14-24.07,27.22-32.93,42.86-7.48,13.21-21.41,25.22-22.72,41.14-1.34,16.26,11.21,31.53,24.14,39.85a68.13,68.13,0,0,0,25.83,9.74,69,69,0,0,0,11.88,1C214.31,529.26,219.65,528.46,220.25,529.89Z"/><path class="cls-3" d="M357.34,465.11c20.91-8.68,38.09-24,47.58-44.67,6.35-13.83,8.91-28.8,10-43.88-3.22,24-15,48-30.76,66.13a116,116,0,0,1-12.76,12.57C367.68,458.38,362.1,464,357.34,465.11Z"/><path class="cls-3" d="M356.46,464.55c27.15-20.83,46.12-58.65,36-93.14a139.09,139.09,0,0,1-2.84,31.39,103.36,103.36,0,0,1-8.55,26,66.23,66.23,0,0,1-7.67,12.08c-2.12,2.62-4.87,4.73-6.85,7.39C362.78,453.33,359.79,459.19,356.46,464.55Z"/><path class="cls-3" d="M352.29,471.91c30.2-.16,52-23.79,67.05-47.45a172.72,172.72,0,0,1-21.65,22.81,128,128,0,0,1-22,16.06A77.33,77.33,0,0,1,363.19,469a57.87,57.87,0,0,1-6.16,1.78q-1.54.35-3.11.61C353.3,471.53,351.44,471.24,352.29,471.91Z"/><path class="cls-3" d="M342.89,476s50.56,16,91-21.58C433.9,454.41,383.82,483.66,342.89,476Z"/><path class="cls-4" d="M215.87,421.26c-23,7.59-39.23,27.32-50.67,47.71,6.52,1.56,13.09,2.84,19.55,4.69,8.66,2.48,17,5.23,26,6.32a129.07,129.07,0,0,0,45.41-2.88q2-.48,4-1c2.33-.65,2.62-1.2,3.82-3.3q3.42-6,6.38-12.16,2.64-5.52,4.91-11.2c1.52-3.79,3.78-7.5,2.38-11.48-3.73-10.57-13.47-16.47-24-18.76C241.26,416.49,227.88,417.74,215.87,421.26Z"/><path class="cls-5" d="M286.77,438.74c.58-5.56-5.35-10.93-9.34-14a47.13,47.13,0,0,0-18.23-8.14c-10.29-2.33-20.92-3.15-31.36-1.31-13.68,2.4-26.21,9-37.26,17.22a201.5,201.5,0,0,0-29,26.24c-2.91,3.24-5.7,7-.39,9,.77.3,3.21,1.39,4,1.14s2.13-3.71,2.69-4.65q1.78-3,3.67-5.87a97.82,97.82,0,0,1,13.78-17.26c9.41-9.1,20.27-17.34,33.15-20.65a81.43,81.43,0,0,1,29.79-2.26c10.2,1.23,20.87,5.16,26.63,14.19,1.31,2,2.95,4.87,3.23,7.33.4,3.53-2.46,8.42-3.83,11.73a183.42,183.42,0,0,1-12,23.86c3.91-1.18,8.86-2.45,11.93-5.33,2.54-2.38,4.09-6.09,5.49-9.2C282.83,454.06,286,446.23,286.77,438.74Z"/><path class="cls-2" d="M358.8,463c-17.31,25.61-43.21,42.35-72.2,52.25a306.24,306.24,0,0,1-54.39,13c-16.27,2.37-33.11,2.18-48.43-4.5-17.61-7.68-37.15-27.15-33.08-48.17C156,491.68,166,505.23,182.47,511a62,62,0,0,0,13.72,2.85,193.74,193.74,0,0,0,42.56-.26c41.51-4.55,82.14-22,108.19-55.63,20.19-26.1,29.53-58.72,32.3-91.22,4.3,17.71,2.11,36.65-2.47,54.07C372.92,435.44,367.32,450.37,358.8,463Z"/><path class="cls-3" d="M376.28,425.69c-5.19,18.16-13.39,35.73-25.59,50.27-12.5,14.89-28.89,25.87-46.52,33.81-19.57,8.81-40.58,14.1-61.61,18.06-19.62,3.69-39.87,5.05-58.65-3.07-18.09-7.82-37.69-27.7-33.2-49.17-3.8,22.62,18.26,42.18,37.52,48.89,22.32,7.78,46,2.76,68.26-2.34,23.39-5.35,46.76-12.81,66.92-26.16a120.69,120.69,0,0,0,42.72-48.4c11.66-24.23,18.71-54.15,13.13-80.86C384.21,386.11,381.71,406.7,376.28,425.69Z"/><path class="cls-6" d="M30.14,802c-6.39,16-4.81,33.63,5.47,47.58,4.82,6.55,10,12.06,18.43,11.6,9.81-.53,19.64-3.66,28.94-6.6,12.88-4.07,25.52-8.89,38-14.06,12.27-5.08,24.41-10.53,36.26-16.53,8.07-4.09,16.68-8.26,23.73-14,1.56-1.28,3.38-2.61,1-3.84-3-1.56-8.57-.46-11.71-.28-15.56.93-31,2.93-46.59,4.09-20.86,1.55-41.85,2.15-62.49-1.86-7.59-1.47-15-3.63-22.4-5.73C37.21,801.91,31.15,799.46,30.14,802Z"/><path class="cls-6" d="M48.14,651c-14.53,6.46-25.42,22.09-25.76,38.11-.11,5,.78,12.72,4.94,16.23,2.41,2,6.07,2.11,9.06,2,11.69-.53,23.44-5.16,34.29-9.14,14.55-5.34,28.84-11.38,43.18-17.26,13.24-5.43,26.52-11,40.22-15.18,1.6-.49,13.14-2.26,7.51-5.09-5.95-3-14.1-3.36-20.56-4.27-11.39-1.61-22.84-2.76-34.3-3.74-12.63-1.08-25.29-1.95-38-2.34-4.46-.14-8.92-.24-13.38-.1C53.12,650.24,50.25,650.06,48.14,651Z"/><path class="cls-6" d="M97.64,957.5c-4.15-1.19-13.26-3.88-16.21,1.11-2.26,3.82.91,9.35,2.93,12.55C89.3,979,97.92,988.28,108,987.4c12.58-1.1,25.21-5.14,37.22-8.81a399.07,399.07,0,0,0,50.93-19.19c13.68-6.33,28.64-13.63,39.25-24.64,3.39-3.52,4.44-6.94-1.5-7.11-8.6-.24-17.67,2.6-25.92,4.67-13,3.28-26,7-38.92,10.66s-26.1,7.36-39.29,10.5c-9.06,2.15-18.79,4.8-28.19,4.51A16.05,16.05,0,0,1,97.64,957.5Z"/><path class="cls-6" d="M98.14,460c9,2.81,18.22,5,27.13,8.07,5.84,2,11.63,4.69,15.57,9.64,4.76,6,6.41,14,7.56,21.34s3.57,17.81-3.75,22.72c-6.79,4.56-17.13,3.24-24.78,2.69-12.41-.89-24.74-2.11-37.18-2.58-8.7-.33-19.87,0-27.75-4.38-5.61-3.13-4.57-8.48-1.71-13.32,3-5.11,7.29-9.29,11.08-13.8a195.85,195.85,0,0,0,13-17.91C82.39,464.78,87.77,456.76,98.14,460Z"/><path class="cls-6" d="M322.93,344.32c-13.6.38-19.37-13.4-16.36-25.11,1.27-4.93,4.22-10,9.26-11.82,3.37-1.2,7.18-.43,10.64,0,25.76,3.51,51.44,10.57,75.71,19.75,28.23,10.67,59.59,25.85,76.39,52.16.52.82,4.32,5.49,2.83,6.5-.92.62-4.17-1.41-4.92-1.78-8.81-4.27-17.38-9-26.29-13.07-34.36-15.71-71.45-25.15-109.26-26.57Q331.94,344.07,322.93,344.32Z"/><path class="cls-6" d="M632.14,679c28.3,47.17,145,88,168,82S626.14,669,632.14,679Z"/><path class="cls-6" d="M556.14,882c27.3,41.86,125,89,148,81S541.14,859,556.14,882Z"/><path class="cls-6" d="M530,489c7.37,20.57,14.45,41.24,20.94,62.11,7.58,24.36,15.36,49.4,18.41,74.82.9,7.53,1,14.68-.74,22.07-1.86,7.93-4.11,15.77-6.47,23.56-5.51,18.22-11.38,36.89-20.16,53.84-1.81,3.49-5,11-9.44,12.06-4.66,1.09-5.7-7.06-6.18-10-2.21-13.7-1.38-28.11-.8-41.89a332.32,332.32,0,0,1,3.82-39.66c2.32-14.15,6.12-27.65,4-42.1-4.4-30.1-18-58.39-26.26-87.47-3.31-11.67-6.59-24-6.63-36.2,0-4.34.15-11.37,4.58-13.84,8.06-4.48,17.86,9.27,21.1,14.71A46.16,46.16,0,0,1,530,489Z"/></g></svg>