<svg xmlns="http://www.w3.org/2000/svg" viewBox="0 0 826.21 1096.88"><defs><style>.cls-1{fill:#fc9;}.cls-2{fill:#80664d;}.cls-3{fill:#bf9973;}.cls-4{fill:#ffebd6;}.cls-5{fill:#ffe0c2;}.cls-6{fill:#ffd6ad;}</style></defs><title>Hand</title><g id="Frame_9" data-name="Frame 9"><path class="cls-1" d="M383.78,552.3c.87-1.07.47-3.87.48-5.1,0-3.93-.2-7.87-.41-11.8-.68-12.53-1.7-25-2.75-37.54-2.32-27.55-5-55.07-7.7-82.58-.1-1-1.66-18.81-1.89-18.8,11.47.73,24.07,2.35,35.42.07-10,2-21.82-.62-31.77-2.25s-20.62-2.25-30.23-5.34c-10.94-3.52-21.58-10.51-31-16.93a269.28,269.28,0,0,1-28.76-22.91c-17.21-15.55-34.56-32.19-41-55.25-5.55-20-2.06-49.15,18.35-59.76,11-5.7,24.32-4.22,36.23-4.43,6.37-.11,12.65-1.14,19-1.15,6.88,0,13.77.57,20.64,1,13,.73,26.06.84,39,1.67,13.66.87,26.53,1.65,40.2.35,11.24-1.07,22.7-2.37,34-3,12.25-.71,23.29,3.06,33.88,9a88.15,88.15,0,0,1,26.25,22.1c7.49,9.55,9.61,20.35,12.92,31.72,3.52,12.1,8.13,23.81,12.72,35.53s8,23.61,12.49,35.26c1.69,4.4,3.59,8.7,5.56,13,1.2,2.62,3,5.36,3.65,8.15.64,2.58.8,5.39,1.17,8q7.7,53.71,13,107.74,1.89,18.93,3.49,37.89c.68,8.06,1.86,16.27.84,24.36a45.73,45.73,0,0,1-12.37,25.94c-15.05,15.74-38.46,21.38-59.43,23a175.77,175.77,0,0,1-72.76-9.6c-18.13-6.54-38.56-17.5-46.47-36.19A36.38,36.38,0,0,1,383.78,552.3Z"/><path class="cls-2" d="M260.45,322.85c3.83,5.4,9.85,10.12,14.57,14.75,5.35,5.26,10.82,10.42,16.52,15.31a331.43,331.43,0,0,1-30.9-30.82c-.07-.13-.17,1.09-.3.15Q260,322.53,260.45,322.85Z"/><path class="cls-2" d="M260.11,322.45c-18.06-22.38-28.21-61.87-3.78-84,13-11.78,32.1-7.9,48.08-9,17.94-1.26,35.58.24,53.53,1,20.19.9,40.44,1.22,60.61-.37C382.16,240.67,344,227.5,307,231.26c-16.42,1.67-36.37-3.67-49.84,8.63-10.53,9.61-14.54,25.66-13.85,39.46a71.93,71.93,0,0,0,13.35,37.15C257.36,317.47,260.89,321.2,260.11,322.45Z"/><path class="cls-2" d="M392.39,396.56c19.19,12,41.63,17.12,64,12.86,14.95-2.85,28.63-9.45,41.54-17.31-10.35,5.45-22,8.92-33.4,11.2a132,132,0,0,1-34.26,2.41,116.92,116.92,0,0,1-19.86-3q-5.2-1.25-10.27-3C398.14,399.09,393.55,398.28,392.39,396.56Z"/><path class="cls-2" d="M392.33,395.52c32.71,10,74.53,3.56,96.76-24.68a138.79,138.79,0,0,1-28.47,16.44A98.86,98.86,0,0,1,433,395.22a62.31,62.31,0,0,1-14.4.13c-2.83-.32-5.42-1.08-8.25-1C404.34,394.6,398.33,395.14,392.33,395.52Z"/><path class="cls-2" d="M482.09,440.74c-26.2-6.79-52.85-15.71-76.57-28.86-7.8-4.33-15.67-9.29-21.7-16,.89,3.09,5,6.52,7.2,8.75a112.32,112.32,0,0,0,10.85,9.56,156.51,156.51,0,0,0,27.45,17.08c14.89,7.29,36.16,16,52.78,9.43"/><path class="cls-3" d="M395,396.52c-31.36.76-60.38-11-85.5-29.29A297,297,0,0,1,267.22,330c-10.86-11.66-20-25.06-23.29-40.92-3.91-18.71.63-45.94,20.08-54.79-10.19,13.91-15.36,30.16-10.19,47.13a63.68,63.68,0,0,0,5.64,12.5,194.91,194.91,0,0,0,25.08,34.59c27.78,31,65.48,53.83,107.88,55.43,32.9,1.24,64.79-10,92.81-26.6-11.93,13.77-28.63,23-45.48,29.34C425.59,392.05,410.18,396.14,395,396.52Z"/><path class="cls-2" d="M435.48,389.13c-18.21,6.45-37.74,10-57.08,8.19-20.41-1.85-39.72-9.77-57-20.47-18.73-11.57-35.77-26.28-51.2-41.93-14-14.15-25.62-30.93-28-51.18-2.06-17.87,3.77-41.57,21.8-49.45-19.89,9.66-23.54,37.62-18.65,56.78,5.94,23.24,23.71,40,40.95,55.39,18,16.09,37.58,31,60.21,39.94a121.36,121.36,0,0,0,69.6,6.32c25-5.16,51.5-16.31,69.12-35.37C472.33,372.63,454.11,382.53,435.48,389.13Z"/><path class="cls-4" d="M348.68,246c-24.14-6.59-50.43-4-74.75.1,3.73,3.9,7.66,7.56,11,11.8a66.6,66.6,0,0,0,11.54,11.83c8.58,6.6,18.54,11.43,28.63,15.23q3.27,1.23,6.59,2.31a15.36,15.36,0,0,0,8.43.39q10.89-1.82,21.65-4.32c6.06-1.4,13.45-1.82,17.33-7.17a10.1,10.1,0,0,0,.91-11C374.58,254.63,359.26,249.21,348.68,246Z"/><path class="cls-5" d="M382.89,282.47c4.93-2.13,6.1-8.28,4.62-12.95-1.35-4.25-4.57-7.5-7.82-10.4a60.35,60.35,0,0,0-19-11.25c-23.13-8.73-49.19-8-73.52-7.79a106.23,106.23,0,0,0-10.82.41c-1.09.12-3.69.15-4.42,1.2s-.29,1.42.2,2.35c2,3.8,7.74,1.11,11.12.63,26.89-3.83,56.74-5.08,81.54,7.79,7.56,3.93,21.25,12.68,14.88,22.91-4,6.34-12.67,6.82-19.42,8.36q-12.32,2.8-24.81,4.72c4.24,1.24,8.8,2.66,13.26,2.52a62.89,62.89,0,0,0,11.68-1.92C367.91,287.36,375.8,285.54,382.89,282.47Z"/><path class="cls-1" d="M821.62,740.76c-.59-5-3-5-7.35-6.68-5.41-2.06-10.7-4.53-16-6.8q-16.16-6.9-32.28-13.87-31.82-13.74-63.49-27.82c-21.1-9.4-42.2-18.86-62.95-29-5.1-2.5-10.2-5-15.23-7.67-3.83-2-10.2-4.4-13.06-7.82-2.14-2.55-3.06-7.6-4.26-10.67l-6.45-16.56c-4.17-10.72-8.32-21.45-12.37-32.22s-7.26-21.95-11.79-32.43c-1.77-4.09-5.89-7.61-9-10.84-3.53-3.71-7.18-7.31-11-10.7a129.31,129.31,0,0,0-25.89-17.9c-9.94-5.17-20.51-9-30.42-14.26-9.66-5.11-19.36-10.15-29.2-14.91-19.2-9.31-39-17.55-59.51-23.37-21.6-6.12-43-12.81-64.59-19-19.94-5.75-40.61-11.63-61.33-13.58-27.83-2.63-55.83,2.24-83.68,1.9-5.29-.06-10.59-.26-15.86-.74-5.45-.5-10.15-2.29-15.2-4.25-10.24-4-20.29-4.93-31.21-4.51-19.35.75-39,3.63-56.47,12.47-19.35,9.81-32,27.69-44.43,44.86-12.74,17.59-26.12,35.43-31.43,56.78s-8.32,44.14,4,63.71a86.13,86.13,0,0,0,9.61,12.53c1,1.1,2.92,2.28,3.62,3.55,1.09,2-.34,3-1.56,5.06-5.45,9.36-10.93,18.51-13.11,29.23C5.17,667.34,3.54,690.51,2.52,713c-.46,10.26-1.53,21.11.61,31.24,2.22,10.55,8.51,17.91,15.4,25.79,2.67,3.06-.4,8.18-1.33,11.69a165.59,165.59,0,0,0-3.63,16.73,97.24,97.24,0,0,0,.36,32.81c1.94,10.76,5,21.29,6.74,32.09s1.06,22,4,32.55a44.46,44.46,0,0,0,15.49,23.36,61.75,61.75,0,0,0,12.62,7.45c3.54,1.59,7.9,1.54,8.72,5.75.89,4.56,1,9.44,1.73,14.07A145.9,145.9,0,0,0,66.87,963c2.94,10.19,7.58,19.77,10.32,30,4.56,17,9.76,36.94,26.12,46.59,10,5.9,20.24,2.94,31.09,4.18,5.14.59,9.85,2.82,14.86,4a42.74,42.74,0,0,0,16.71.36c10.81-1.79,21.47-6,31.68-9.85,10.42-4,20.69-8.34,30.94-12.7,9.89-4.21,20-8.44,29.28-13.86,1.73-1,3.67-3.11,5.6-3.62s5,.75,7,.85a51.38,51.38,0,0,0,16.55-1.8c3.34-.94,6.44-3.69,9.76-2.2a45.59,45.59,0,0,0,13.88,4.23,62.48,62.48,0,0,0,13.9-.07c4.42-.48,9.37-2.77,13.6-1.39a32.19,32.19,0,0,0,13.91,1.18,38.55,38.55,0,0,0,7.28-1.6c2.47-.81,4.58-2.23,7.22-2.32,5.25-.17,10.52.33,15.81,0,5.8-.37,11.58-1.13,17.33-2,9.92-1.49,20.49-2.75,28.66-9,8.73-6.68,17.07-11.44,27.83-14.23s21.94-1.52,32.7,1c10.42,2.45,20.21,9.68,29.42,15,40,22.89,79.25,47.23,117.32,73.18q14.28,9.74,28.24,19.94c1.65,1.21,3.3,2.42,4.9,3.69.74.59,2.29,2.31,3.39,2.38s2.94-1.42,3.82-1.93c2.59-1.51,5.18-3,7.7-4.65,17.62-11.3,33.62-25.33,48-40.54a328.61,328.61,0,0,0,67.12-107.69c16.16-42.25,23.64-87.66,25.18-132.75A443.28,443.28,0,0,0,821.62,740.76Z"/><path class="cls-2" d="M454.57,228.22a52.71,52.71,0,0,1,8.87.7c16.09,2.74,32.16,13,43.27,24.76a63.17,63.17,0,0,1,12.75,19.38c3.53,8.65,5.28,18.08,8.09,27,3.08,9.76,7,19.22,10.68,28.75s6.77,19.1,10.09,28.7c3,8.53,8.14,16.34,10.63,25,2.57,8.88,2.8,18.77,4,27.91,5.46,40.69,10.93,81.75,13.44,122.75.56,9.15.86,18.33,3.84,27.08,3.34,9.83,7.15,19.52,10.84,29.22s7.45,19.39,11.22,29.07c1.8,4.62,3.65,9.22,5.41,13.85,1.29,3.39,2.09,7.19,4.9,9.68,6.4,5.68,15.91,9.26,23.54,13q13.76,6.71,27.66,13.13c18.8,8.71,37.75,17.12,56.71,25.49q27.92,12.31,56,24.35c9.39,4,18.81,8,28.17,12.13,4.23,1.86,8.61,3.33,12.84,5.17a6,6,0,0,1,4.11,5.51,427.67,427.67,0,0,1,2.58,52.66c-.45,65.18-13.57,131.07-45,188.62a314,314,0,0,1-58,76.28c-12.17,11.65-25.37,22.52-39.74,31.37-2.16,1.33-6.3,4.91-9.13,4.91a3,3,0,0,1-.49,0c-3.17-.53-7.09-4.54-9.59-6.44-7-5.31-13.94-10.53-21.16-15.51-29.5-20.36-59.83-39.52-90.56-58-14.8-8.89-29.83-17.37-44.69-26.16a70.14,70.14,0,0,0-36-10.13,69.14,69.14,0,0,0-9.66.68,57.37,57.37,0,0,0-22.36,8c-6.24,3.9-11.4,9.42-18.47,11.91-16.19,5.69-34.5,6-51.42,6.19-4.13.06-7.6,2-11.53,3a35.3,35.3,0,0,1-8.61,1.11,27.85,27.85,0,0,1-3-.16c-3.2-.35-6.15-1.88-9.38-1.88l-.71,0c-4.16.3-8.18,1.75-12.36,2.09q-2.56.21-5.07.21a44.9,44.9,0,0,1-19.24-4,7.7,7.7,0,0,0-3.3-.78c-2.16,0-4.11,1-6.58,1.89a40.82,40.82,0,0,1-10.86,2.28c-1.41.11-2.86.19-4.3.19a29.87,29.87,0,0,1-3.3-.17c-1.52-.17-3.13-.83-4.68-.83l-.43,0c-3.19.28-6.42,3.58-9.15,5.13-7.29,4.12-15.14,7.3-22.8,10.63-16.16,7-32.46,13.79-49.14,19.51-7.68,2.64-15.85,5.35-24.07,5.35l-1.07,0c-8.32-.24-15.88-4-24.06-4.89a47.68,47.68,0,0,0-5-.23c-3.09,0-6.19.2-9.28.2a34.07,34.07,0,0,1-10.55-1.37,35.08,35.08,0,0,1-15.77-11.14c-10-11.89-13-26.74-17.32-41.23-4.9-16.42-12.51-31.71-13.87-49.09-.24-3,.33-7.69-1.45-10.34-1.4-2.07-4.65-2.32-6.81-3.16a52.25,52.25,0,0,1-17.22-11c-11.5-11.07-13.92-25.28-15-40.57-1.27-17.31-6.76-33.77-8.64-51-1.84-16.82.74-32.73,5.78-48.74,1.3-4.12,0-5.81-2.93-8.69a53.68,53.68,0,0,1-7.26-9.17c-4.53-7.08-6.48-15.05-6.83-23.4-.73-17.47,1-35.37,2.57-52.75,1.55-16.76,2.61-34.93,9.66-50.43a80.88,80.88,0,0,1,6-10.81c1.42-2.17,4.2-5.45,4.31-8.17.13-2.88-3.73-5.11-5.62-7.21a71.33,71.33,0,0,1-6.52-8.47C4.12,584.32,1.58,570.3,2.79,555.3,4,540.12,7.14,524.76,14.28,511.18c8-15.21,18.38-29,28.65-42.73,9.16-12.24,18.39-25,31.16-33.72,13.24-9.08,29.2-13.75,44.95-16a171.07,171.07,0,0,1,24.06-2,75.55,75.55,0,0,1,24.11,3.54c3.95,1.32,7.69,3.23,11.71,4.36a53.4,53.4,0,0,0,11.69,1.54c4.62.25,9.24.31,13.85.31,4.21,0,8.42-.06,12.63-.09,17.4-.14,34.67-2.41,52.09-2.41h2.3c35.87.43,71,12.82,105,23.14-.46-4.82-3.58-50.44-5-50.64,7.26.46,14.63,1.27,21.95,1.27a68.63,68.63,0,0,0,13.21-1.15l.25,0-.25,0a38.82,38.82,0,0,1-7.41.67c-6.45,0-13-1.28-19.27-2.21-9.78-1.44-19.64-2.78-29.35-4.68-9.19-1.8-17.48-6.54-25.5-11.23-16.13-9.42-30.6-21.34-44.3-34-12.56-11.57-25-24-32.31-39.65-7.28-15.5-9.28-34.11-3.1-50.32,2.74-7.19,7.07-14,13.32-18.61,7-5.2,15.74-6.51,24.29-6.83,9.86-.37,19.62-.3,29.47-1,2.34-.17,4.68-.24,7-.24,7.92,0,15.87.78,23.75,1.22,10.3.56,20.61.83,30.91,1.44,8.81.53,17.63,1.42,26.46,1.42q1.87,0,3.74-.06c9.95-.31,20-1.37,29.84-2.52,6.7-.78,13.53-1.81,20.32-1.81M371.51,396.47h0m83.06-171.25a139.31,139.31,0,0,0-16.88,1.37l-3.79.46c-9,1-19.45,2.18-29.59,2.5-1.18,0-2.4.06-3.65.06-6.16,0-12.47-.45-18.57-.89-2.53-.18-5.14-.37-7.72-.52-5.57-.33-11.23-.57-16.7-.79-4.67-.19-9.49-.39-14.22-.65-2.4-.13-4.87-.3-7.25-.46-5.45-.37-11.08-.76-16.66-.76-2.58,0-4.95.08-7.24.24-6.25.45-12.6.59-18.74.72-3.47.08-7.06.15-10.62.29-7.8.29-17.81,1.4-26,7.41-6.13,4.52-11.09,11.43-14.35,20-6.13,16.1-5,35.3,3.19,52.67,7.78,16.56,21.11,29.63,33,40.58,16.75,15.43,30.58,26,44.82,34.35,7.73,4.52,16.49,9.63,26.43,11.58,7.05,1.38,14.25,2.48,21.3,3.51l-.27,2.62a2.79,2.79,0,0,1-2.2-1.63c1,3.06,3.21,31.45,4,42.14l.23,3-8.36-2.58c-30.18-9.35-61.39-19-93.28-19.4h-2.33c-9.08,0-18.23.62-27.07,1.21-8.21.55-16.71,1.13-25,1.19l-3.77,0c-2.9,0-5.9.06-8.84.06-5.36,0-9.71-.1-13.7-.31a50.47,50.47,0,0,1-11-1.43,60.5,60.5,0,0,1-6.38-2.33c-1.67-.68-3.4-1.39-5.19-2a78,78,0,0,0-25.06-3.7,176,176,0,0,0-24.49,2.06C100,418.42,84.48,424,72.39,432.26,59.78,440.91,50.61,453.17,41.74,465l-1.21,1.62-.38.51c-10.08,13.47-20.51,27.39-28.52,42.62C5.13,522.14,1.26,536.95-.2,555.06c-1.36,16.84,2,31.12,10.15,43.65a74.58,74.58,0,0,0,6.79,8.83,25.4,25.4,0,0,0,2.17,2.06c.88.77,2.71,2.38,2.68,3-.06,1.29-1.69,3.61-2.78,5.14-.38.54-.74,1-1.05,1.52a83.42,83.42,0,0,0-6.17,11.21c-6.64,14.59-8.1,31-9.52,46.91q-.2,2.26-.4,4.49l-.11,1.17c-1.57,17.06-3.2,34.7-2.48,52,.41,9.71,2.79,17.85,7.3,24.89A56.63,56.63,0,0,0,14,769.62c2.64,2.62,3,3.16,2.18,5.66-5.75,18.29-7.63,34.16-5.9,50,.88,8.07,2.56,16,4.18,23.75,1.86,8.84,3.78,18,4.45,27.11,1,14.14,3.2,30.25,16,42.52a55.38,55.38,0,0,0,18.21,11.59,23.38,23.38,0,0,0,2.27.71c1.22.34,2.75.75,3.14,1.33.82,1.22.84,3.91.86,6.07,0,1,0,1.93.09,2.82,1,12.43,5.06,23.87,9,34.94,1.72,4.82,3.5,9.8,5,14.78.68,2.27,1.33,4.59,2,6.84,3.47,12.27,7.05,25,15.93,35.47,5.05,6,10.82,10,17.14,12.06a37.34,37.34,0,0,0,11.46,1.52c1.59,0,3.18-.05,4.72-.1s3.05-.1,4.55-.1a44.14,44.14,0,0,1,4.69.22,64.52,64.52,0,0,1,10.35,2.27c4.43,1.22,9,2.49,13.93,2.63l1.15,0c9,0,17.89-3.05,25-5.51,17.86-6.13,35-13.35,49.36-19.6l3.8-1.64a196.85,196.85,0,0,0,19.28-9.13,32.68,32.68,0,0,0,3-2c1.67-1.21,3.56-2.59,4.9-2.71H265a9.78,9.78,0,0,1,2,.36,18.43,18.43,0,0,0,2.33.46,32.58,32.58,0,0,0,3.64.19c1.34,0,2.78-.06,4.53-.2a43.54,43.54,0,0,0,11.65-2.45l1.57-.6a11.94,11.94,0,0,1,4-1.11,4.75,4.75,0,0,1,2,.5,47.69,47.69,0,0,0,20.5,4.31c1.71,0,3.5-.07,5.32-.22a49.48,49.48,0,0,0,6.5-1.1,42.79,42.79,0,0,1,5.84-1l.49,0a17.23,17.23,0,0,1,4.46.86,27.87,27.87,0,0,0,4.59,1,30.89,30.89,0,0,0,3.32.17,38.44,38.44,0,0,0,9.35-1.21c1.47-.38,2.85-.86,4.17-1.33a21.29,21.29,0,0,1,6.66-1.59c16.71-.23,35.65-.48,52.37-6.36,5-1.77,9.06-4.85,13-7.82,2.07-1.58,4-3.07,6.1-4.37A54.62,54.62,0,0,1,460.59,982a65.83,65.83,0,0,1,43.68,9.06c6.41,3.79,13,7.59,19.29,11.26,8.35,4.84,17,9.84,25.38,14.89,33.88,20.34,63.45,39.27,90.4,57.87,7.51,5.18,14.86,10.71,21,15.43.54.41,1.2,1,1.89,1.56,2.58,2.19,5.79,4.92,9,5.46a6,6,0,0,0,1,.08c3.11,0,6.38-2.32,9-4.19.65-.46,1.26-.9,1.7-1.17,13.33-8.21,26.49-18.6,40.24-31.76a315.85,315.85,0,0,0,58.58-77,358.68,358.68,0,0,0,34.43-92.22,454.26,454.26,0,0,0,11-97.82,429,429,0,0,0-2.6-53,9,9,0,0,0-5.89-7.92c-2.1-.91-4.24-1.74-6.32-2.53s-4.39-1.69-6.51-2.62c-6.3-2.78-12.74-5.53-19-8.19l-9.23-4c-20.46-8.81-38.76-16.77-55.93-24.34-21.14-9.32-38.86-17.21-56.66-25.46-10.1-4.68-19.13-9-27.6-13.1-1.72-.84-3.49-1.65-5.37-2.51-6.32-2.9-12.85-5.89-17.5-10-1.65-1.46-2.45-3.81-3.3-6.29-.25-.73-.51-1.48-.79-2.22-1.12-2.94-2.29-5.9-3.42-8.77q-1-2.55-2-5.1c-4.2-10.78-7.71-19.85-11.22-29l-2.07-5.43c-3-7.74-6-15.75-8.73-23.69-2.58-7.6-3-15.5-3.54-23.86q-.07-1.22-.15-2.44c-2.56-41.78-8.35-84.91-13.46-123-.37-2.74-.64-5.5-.93-8.42-.65-6.63-1.33-13.49-3.19-19.92A90.32,90.32,0,0,0,556,367.53a102.71,102.71,0,0,1-4.83-11c-.93-2.68-1.83-5.35-2.74-8-2.31-6.83-4.7-13.89-7.39-20.77q-1-2.52-2-5c-3-7.66-6.13-15.58-8.64-23.52-1-3.29-2-6.74-2.84-10.08a139.73,139.73,0,0,0-5.34-17.14,65.91,65.91,0,0,0-13.35-20.31c-12.71-13.43-29.51-23-44.94-25.65a55.35,55.35,0,0,0-9.38-.74Z"/><path class="cls-3" d="M306.58,740.68c-4.6,8.34-10.36,17-18.88,21.74-6.12,3.42-13.61,5.26-20.34,7.11-19.89,5.47-40.3,9.18-60.63,12.51-24.17,4-48.49,6.92-72.82,9.7-16,1.83-32.19,3.68-48.35,3.73-17.15.06-33.76-2.67-48.86-11.32,12.9,2.76,25.76,4.88,39,5.23,24,.63,48.15-2.49,71.85-6.1,32.06-4.88,64.44-9.87,96.16-16.72,20.31-4.39,46.46-11,58.8-29.57,2.49-3.75,3.66-9,4.84-13.37a92,92,0,0,0,2.87-14.85,90.86,90.86,0,0,0-2.27-30.16c-4.83-20.29-15.72-37-26.35-54.56,14.54,14.88,27,32.24,32.68,52.48A85.1,85.1,0,0,1,306.58,740.68Z"/><path class="cls-2" d="M282.17,764.75c-16.19,6.94-33.6,10.4-50.79,13.88q-27.37,5.55-55,9.38-27.94,3.82-56,6.67c-18.19,1.82-36.7,3.37-54.86.47a79.55,79.55,0,0,1-26.92-9.28c-7.31-4.18-16.18-10.19-21.41-16.87,5.35,6.14,14,11.49,21.09,15.36a80,80,0,0,0,22.54,7.81c16.23,3.24,33,2.42,49.32.79,36.91-3.68,73.91-8.24,110.5-14.39C241.28,775.09,262.31,771.72,282.17,764.75Z"/><path class="cls-1" d="M607.57,631.92q-1.26-3.23-2.51-6.45Z"/><path class="cls-2" d="M206,487.14c-29.67-13.49-58.66-28.28-91.82-30.14C146.85,453.82,179.32,469.74,206,487.14Z"/><path class="cls-2" d="M173.14,439c12.05,9.79,21.07,26.37,21.42,42C189.3,465.87,181.88,452.38,173.14,439Z"/><path class="cls-2" d="M257.14,641c-14.73,4.5-30.49,3.45-45.61,2-16.66-1.58-33.2-4-49.77-6.37-16-2.25-32.11-4.41-48.31-4.44s-31.92,2-48-1c-15.08-2.74-30.87-8.49-41.28-20.24,19,18.78,48.77,21.08,74,19.15A242.62,242.62,0,0,1,149.36,632c17.55,2.33,35,5.38,52.53,7.79C220.07,642.28,239,645.29,257.14,641Z"/><path class="cls-3" d="M289.39,529.35c-9.6-24.7-23.67-55.34-52.65-60.9-10.38-2-21.07-.15-30.86,3.54,13-4.91,27.44-7.5,41.11-3.89,10.36,2.74,19.31,9,26.29,17,12.75,14.65,19.77,34.43,24.45,53,4.61,18.33,5.67,36.39-.42,54.43-5.11,15.14-11.39,29.85-24.27,40.09-15.1,12-34.55,11.8-52.84,10.2-21.35-1.87-42.47-5.41-63.68-8.39-11.71-1.65-23.52-3.3-35.35-3.72-11.44-.41-22.83,1.17-34.26,1.23-20.08.1-41.19-3.71-57.43-16.26.32-.38,16,5.41,17.83,5.85A130.89,130.89,0,0,0,67,624.63c13.37,1.14,26.8.65,40.19.16,12.88-.47,26-1.35,38.79.35s25.3,5.18,38,7.66c11,2.16,21.92,2.26,33,3.35,9.84,1,19.76,2.3,29.61.71,21.84-3.53,34.86-21.82,41.47-41.55C294.86,574.91,297.35,549.82,289.39,529.35Z"/><path class="cls-3" d="M304.59,789.21c-2-8.41-7.14-15.82-12.32-22.56,1.84,5.34,4.24,10.47,5.92,15.86a55.59,55.59,0,0,1,2.07,18A318.43,318.43,0,0,1,297.89,836c-.71,5.27-1.11,11.91-3.52,16.69a28.73,28.73,0,0,1-6.3,7.64c-4.85,4.45-10.79,7.45-16.82,10C254,877.5,236,882.56,219.21,891c-11,5.49-21.54,11.64-32.72,16.74a319.51,319.51,0,0,1-30.33,12c-19.71,6.66-40,11.15-60.42,15,15.79,1,30.55-1,45.89-4.6a265,265,0,0,0,52-17.72c9.1-4.3,17.71-9.52,26.88-13.69,9.75-4.43,19.75-8.26,29.7-12.21,9-3.57,18-7.18,26.39-12A49.47,49.47,0,0,0,295.78,855c5.26-9.27,7.7-19.91,9-30.4C306.17,813.1,307.25,800.59,304.59,789.21Z"/><path class="cls-2" d="M61.14,930c7,1.88,14.2,2.36,21.34,3,7.66.66,15.36,1.22,23.06,1.14,14.42-.15,28.57-3.35,42.44-7a276.77,276.77,0,0,0,41.55-14.37c13.15-5.86,25.59-13.2,39-18.61,15.1-6.12,30.71-11,45.41-18.07-12.66,7.29-26.43,12.31-39.84,18S208.12,907,195,913.32a242.69,242.69,0,0,1-40.81,15c-14.27,4-28.88,7.55-43.77,7.83a175.33,175.33,0,0,1-24.88-1.65C77.36,933.53,69,932.56,61.14,930Z"/><path class="cls-3" d="M295.9,963.14c-4.5,9.76-9.19,19.64-15.43,28.43A66.93,66.93,0,0,1,264,1007.5c-8.71,6.2-18.43,10.62-28.22,14.94Q214.17,1032,192,1040.08c-13.13,4.81-27.27,10.7-41.48,8-8.17-1.57-14.7-4.85-23.29-4.38-10.95.6-20.6-.33-29.26-7.95,5.68,1.54,11.34,3.66,17.22,4.31,9,1,18.11.33,27.11.5,6.91.13,14.13,2.14,21,1.29a67,67,0,0,0,13.13-3.54c9.56-3.26,19-7,28.4-10.59,23.69-9.14,46.87-19.34,66.53-35.75C280.9,984,290.28,974.41,295.9,963.14Z"/><path class="cls-3" d="M611.64,664.5s-35,76-76,111C535.64,775.5,598.64,734.5,611.64,664.5Z"/><path class="cls-3" d="M440.64,985.29c-6.91,3.14-11.58,9.74-18.5,12.71-5.3,2.28-11.45,3.11-17.09,4.07a201.66,201.66,0,0,1-27.43,3.11c-4.45.14-9.8-1-14,.49-7.21,2.53-14.21,4.36-21.9,3-1.64-.29-3.24-1.07-4.86-1.33-2.59-.42-5.46.77-8.15,1.2-11.16,1.8-21.65,1-32-3.51-.47-.21-1.14-1-1.64-1-1.71-.22-5.54,2.37-7.44,2.93a49.3,49.3,0,0,1-7.07,1.54,48.49,48.49,0,0,1-17.49-.47c16.73-10,25.34-28.64,33.16-45.71,4.5-9.82,7.42-19,6.26-30-1.14-10.78-5.24-21.1-10.41-30.55A139.44,139.44,0,0,0,273.88,876c7.21-3.84,14.17-8.31,18.31-15.55,6.06,18,12.29,35.72,22.27,52a145.71,145.71,0,0,0,62.17,55.69C396.72,977.65,418.61,982.88,440.64,985.29Z"/><path class="cls-3" d="M663.14,693s3,63-36,172C627.14,865,680.14,747,663.14,693Z"/><path class="cls-3" d="M632.14,679c4.56,19.42,2.76,41-2.19,60.17A111.6,111.6,0,0,1,611.14,779C626.54,747.91,633.08,713.61,632.14,679Z"/><path class="cls-3" d="M314.14,742c13.46,22.84,36.85,41.53,59.53,54.62,13.59,7.84,28.23,13.86,43.67,16.83,16.69,3.21,33.28,2.29,49.8-1.46-29.16,14.32-63.31,9.82-91.29-5a151.32,151.32,0,0,1-36.08-26.87C329.33,769.62,318.22,756.5,314.14,742Z"/><path class="cls-3" d="M531.14,856c-13.06,31.65-28.65,63.95-29,99-3.39-17.29.82-36.81,6.37-53.24A190.88,190.88,0,0,1,531.14,856Z"/><path class="cls-3" d="M29.14,714c-1,15.63-3.37,31.45,0,47C22.66,747.15,25,728.16,29.14,714Z"/><path class="cls-3" d="M55.14,720c-1,15.37-2.2,31.7,0,47-2.7-7.31-2.93-15.78-2.89-23.49A88.3,88.3,0,0,1,55.14,720Z"/><path class="cls-3" d="M45.14,711c-1.58,11.17-2,22.53-2.42,33.79-.32,8-.93,16.2-.58,24.21-2.14-9.28-1.64-19.69-1.21-29.14C41.36,730.23,42.17,720.22,45.14,711Z"/><path class="cls-3" d="M30.14,529c-1.77,21-4.44,41.81-4,63C22.45,571.53,25,549,30.14,529Z"/><path class="cls-3" d="M51.14,529c-1.73,11.44-3.32,22.9-4.47,34.42S44.23,586.55,45.14,598c-2.44-11.28-1.6-23.39-.46-34.79A190.64,190.64,0,0,1,51.14,529Z"/><path class="cls-3" d="M41.14,856a161.37,161.37,0,0,0,1.52,24.75c1.3,8.17,4.41,16.09,5.48,24.25-2.86-8-6.11-15.47-7.46-23.94A71.72,71.72,0,0,1,41.14,856Z"/><path class="cls-3" d="M53.14,860c1,16.57,4.62,32.79,8,49C54.86,894.23,50.92,876,53.14,860Z"/><path class="cls-3" d="M96.14,983c4.69,15,7.53,31,15,45-5.17-5.91-8.11-14.13-10.4-21.52A110.07,110.07,0,0,1,96.14,983Z"/><path class="cls-3" d="M111.14,983a229.8,229.8,0,0,1,7.84,22.27c1.76,5.54,3.15,11.73,6.16,16.73-4.6-4.5-6.77-12.18-8.68-18.1A154.72,154.72,0,0,1,111.14,983Z"/><path class="cls-6" d="M30.14,802c-6.39,16-4.81,33.63,5.47,47.58,4.82,6.55,10,12.06,18.43,11.6,9.81-.53,19.64-3.66,28.94-6.6,12.88-4.07,25.52-8.89,38-14.06,12.27-5.08,24.41-10.53,36.26-16.53,8.07-4.09,16.68-8.26,23.73-14,1.56-1.28,3.38-2.61,1-3.84-3-1.56-8.57-.46-11.71-.28-15.56.93-31,2.93-46.59,4.09-20.86,1.55-41.85,2.15-62.49-1.86-7.59-1.47-15-3.63-22.4-5.73C37.21,801.91,31.15,799.46,30.14,802Z"/><path class="cls-6" d="M48.14,651c-14.53,6.46-25.42,22.09-25.76,38.11-.11,5,.78,12.72,4.94,16.23,2.41,2,6.07,2.11,9.06,2,11.69-.53,23.44-5.16,34.29-9.14,14.55-5.34,28.84-11.38,43.18-17.26,13.24-5.43,26.52-11,40.22-15.18,1.6-.49,13.14-2.26,7.51-5.09-5.95-3-14.1-3.36-20.56-4.27-11.39-1.61-22.84-2.76-34.3-3.74-12.63-1.08-25.29-1.95-38-2.34-4.46-.14-8.92-.24-13.38-.1C53.12,650.24,50.25,650.06,48.14,651Z"/><path class="cls-6" d="M97.64,957.5c-4.15-1.19-13.26-3.88-16.21,1.11-2.26,3.82.91,9.35,2.93,12.55C89.3,979,97.92,988.28,108,987.4c12.58-1.1,25.21-5.14,37.22-8.81a399.07,399.07,0,0,0,50.93-19.19c13.68-6.33,28.64-13.63,39.25-24.64,3.39-3.52,4.44-6.94-1.5-7.11-8.6-.24-17.67,2.6-25.92,4.67-13,3.28-26,7-38.92,10.66s-26.1,7.36-39.29,10.5c-9.06,2.15-18.79,4.8-28.19,4.51A16.05,16.05,0,0,1,97.64,957.5Z"/><path class="cls-6" d="M98.14,460c9,2.81,18.22,5,27.13,8.07,5.84,2,11.63,4.69,15.57,9.64,4.76,6,6.41,14,7.56,21.34s3.57,17.81-3.75,22.72c-6.79,4.56-17.13,3.24-24.78,2.69-12.41-.89-24.74-2.11-37.18-2.58-8.7-.33-19.87,0-27.75-4.38-5.61-3.13-4.57-8.48-1.71-13.32,3-5.11,7.29-9.29,11.08-13.8a195.85,195.85,0,0,0,13-17.91C82.39,464.78,87.77,456.76,98.14,460Z"/><path class="cls-6" d="M430.09,248.06c-15.8-18.32,83.8-10.06,64.8,37.94C489.68,299.15,464.23,287.65,430.09,248.06Z"/><path class="cls-6" d="M632.14,679c28.3,47.17,145,88,168,82S626.14,669,632.14,679Z"/><path class="cls-6" d="M556.14,882c27.3,41.86,125,89,148,81S541.14,859,556.14,882Z"/><path class="cls-6" d="M586.53,630c-5.64,28-43.6,156-44.33,56C541.88,642,592.18,602,586.53,630Z"/></g></svg>