<svg xmlns="http://www.w3.org/2000/svg" viewBox="0 0 840 1096.88"><defs><style>.cls-1{fill:#fc9;}.cls-2{fill:#80664d;}.cls-3{fill:#bf9973;}.cls-4{fill:#ffebd6;}.cls-5{fill:#ffe0c2;}.cls-6{fill:#ffd6ad;}</style></defs><title>Hand</title><g id="Frame_2" data-name="Frame 2"><path class="cls-1" d="M831.08,786c.37,47.06-5.44,94.46-20.21,139.26a331.21,331.21,0,0,1-62.47,111.43,280.29,280.29,0,0,1-48,44.77c-4.46,3.24-9.07,6.2-13.72,9.14-1.83,1.15-3.68,2.76-5.71,3.52-2.83,1.05-4.08-.54-6.22-2.24-9.09-7.2-18.68-13.74-28.25-20.29-39.4-27-80.15-51.42-121.12-75.85-9.34-5.57-18.37-11.82-28.94-14.87a67.51,67.51,0,0,0-31.11-1.68c-9.79,1.88-18.65,6.39-26.66,12.21-8.84,6.42-17.64,9.62-28.46,11.11q-8.39,1.16-16.84,1.77c-6.3.46-12.9,0-19.14.88-4.79.68-9.24,2.81-14,3.49-6.28.89-12.13-1.44-18.32-1.11-10.73.56-21.16,4.21-31.7-.2-4.66-1.95-7.93-3.73-13-1.87a50.15,50.15,0,0,1-16.06,3.52c-5.08.15-9.46-2.35-14,.74a101.72,101.72,0,0,1-13.58,7.67c-11,5.27-22.21,9.91-33.44,14.56-11.06,4.58-22.22,8.93-33.63,12.57-11.18,3.57-22.31,5.69-33.77,2.17-4.81-1.48-9.41-3-14.5-3.2-5.89-.19-11.8.81-17.65-.26-9.54-1.74-17.4-7.92-22.89-15.71-6.2-8.8-9.26-19.05-12.38-29.22-3.43-11.2-7.46-22.22-10.85-33.44a156.11,156.11,0,0,1-4.06-16.78q-.71-3.86-1.25-7.75c-.37-2.69,0-6-.74-8.57-1.1-3.7-6.33-3.87-9.48-5.29a54.94,54.94,0,0,1-14.25-9.3c-17.12-15.54-14.32-38.08-18-58.88-2-11.17-4.77-22.21-6.21-33.48a100.51,100.51,0,0,1,1.4-34c1.1-5.2,3.19-10.08,4.38-15.19,1.24-5.31-3.4-8.67-6.4-12.47C13.35,755,9.65,746.51,8.9,736c-.82-11.38.4-23,1.16-34.37.79-11.75,2-23.46,3.21-35.17,1.14-11,2.54-22.14,6.82-32.44a111.19,111.19,0,0,1,7.39-14.36c1.88-3.14,5.82-6.38,2.92-9.9s-6.56-6.6-9.39-10.49a62.55,62.55,0,0,1-8.2-14.84c-4-10.7-3.94-22.07-2.6-33.26s3.65-22.57,8-33S29,498.27,35.27,489c6.5-9.62,13.35-19,20.36-28.26,6.47-8.53,13.29-16.94,21.84-23.5,16.76-12.86,38-17.64,58.61-19.71,11.2-1.12,22.93-1.59,33.87,1.46,10.65,3,20,7,31.2,7.45,5.58.23,11.18.13,16.76,0,3.91-.07,8.74,1.51,11.21-2.23,1.75-2.64,2.41-6.08,3.42-9,1.95-5.69,3.94-11.35,5.8-17.07,3.26-10,5.63-20.54,10.69-29.89,5-9.17,12.74-16.27,21.18-22.2,8.75-6.14,18.5-11.15,29-13.6,11.6-2.72,23.17-.31,34.75,1.2,23.35,3,47.13,1.45,70.31,6s45.37,12.73,67.09,21.62c19.17,7.84,38.85,16.45,53.68,31.37,14.44,14.52,23,33.68,29.32,52.88,7.42,22.59,11.47,46.08,17.79,69,6.5,23.57,15.06,46.5,23.71,69.35,4.31,11.37,8.71,22.71,13.12,34,1.93,5,3.93,9.9,5.74,14.91,1.74,4.84,3.48,8.41,7.69,11.49,8.22,6,17.8,9.92,27,14.24,10.59,5,21.33,9.7,32,14.51,44.69,20.17,89.67,39.68,134.74,59,2.95,1.26,9.58,2.33,11.55,4.89,1.19,1.55,1,3.71,1.07,5.54.18,2.69.56,5.37.81,8.06C830.61,762.26,831,774.17,831.08,786Z"/><path class="cls-2" d="M313.47,740.68c-3.82,6.92-8.25,13.81-14.5,18.79-6.72,5.34-15.24,7.49-23.36,9.7a580.82,580.82,0,0,1-57.17,12.08c-19.32,3.23-38.73,5.87-58.18,8.22s-38.68,4.94-58.12,5.78c-20.18.87-40.69-.85-58.56-11.09,28,6,55.6,6.11,84,2.81s56.58-8,84.66-13c23.31-4.1,48.17-7.45,70.15-16.67,9.25-3.88,18.19-9.22,24.58-17.1,7.31-9,9.66-23.35,10.35-34.65,1.87-30.64-13.66-56.34-28.88-81.54,14.66,15,27.3,32.72,32.87,53.18A85.66,85.66,0,0,1,313.47,740.68Z"/><path class="cls-2" d="M289.06,764.75c-16.2,6.95-33.59,10.41-50.79,13.88-18.25,3.69-36.6,6.85-55,9.38q-27.94,3.83-56,6.67c-18.43,1.84-37.22,3.46-55.61.34C54.35,792.1,35.07,783.09,24,769c10.39,11.91,27,19.61,42.18,22.87,17.53,3.77,35.56,2.62,53.26.84,37.19-3.75,74.26-8.47,111.12-14.66C250.3,774.74,270.14,771.39,289.06,764.75Z"/><path class="cls-1" d="M236.94,419.13c.17-.65.36-1.34.56-2.07C237.32,417.75,237.13,418.44,236.94,419.13Z"/><path class="cls-1" d="M237.5,417.06c.27-1,.54-2,.79-2.93C238,415.17,237.75,416.14,237.5,417.06Z"/><path class="cls-1" d="M244,392a34.76,34.76,0,0,1,5.17-10.8c-3.16,4.69-5,10.13-6.37,15.56Z"/><path class="cls-1" d="M331.11,347.45l2.07.09Q332.15,347.51,331.11,347.45Z"/><path class="cls-1" d="M397,348c2.54.47,5.09.93,7.63,1.42a111.47,111.47,0,0,0-20.72-2C388.31,347.39,392.72,347.21,397,348Z"/><path class="cls-1" d="M531,401a124.68,124.68,0,0,1,7.26,10.16,83.86,83.86,0,0,0-22.21-23.42A65.81,65.81,0,0,1,531,401Z"/><path class="cls-1" d="M543.39,419.78q1.2,2.19,2.29,4.4C544.94,422.7,544.18,421.24,543.39,419.78Z"/><path class="cls-1" d="M546.4,425.66C560.15,454,564.11,484.86,571,511,563.21,482.33,559.35,452.6,546.4,425.66Z"/><path class="cls-1" d="M574.28,522.12c5.85,18.66,15.73,45.69,24.62,69.27C590.24,568.49,581.51,545.52,574.28,522.12Z"/><path class="cls-1" d="M614.46,631.92q-1.26-3.23-2.51-6.45Z"/><path class="cls-2" d="M212.85,487.14C183.18,473.65,154.19,458.87,121,457,153.74,453.82,186.22,469.74,212.85,487.14Z"/><path class="cls-2" d="M180,439c12.05,9.79,21.07,26.37,21.42,42C196.19,465.87,188.78,452.38,180,439Z"/><path class="cls-2" d="M264,641c-15,4.58-31,3.43-46.42,1.94-16.38-1.58-32.67-4-49-6.29-16.55-2.33-33.18-4.53-49.92-4.43C102.8,632.3,86.84,634,71.06,631c-14.72-2.82-29.86-8.53-40-20,19.2,19,48.52,20.95,74,19.15,34.51-2.43,68.15,4.64,102.14,9.4C225.87,642.17,245.32,645.43,264,641Z"/><path class="cls-2" d="M296.29,529.35c-6.43-16.54-13.84-33.72-26.56-46.48-15.51-15.57-36.65-18.54-57-10.88,14.84-5.6,31.7-8.12,46.79-2,13.65,5.54,23.66,17,30.7,29.62,7.32,13.12,12,27.8,15.29,42.41,3.75,16.78,4.09,34-1.35,50.5-4.44,13.45-10.27,27-20.7,37-11,10.44-25.4,14-40.19,14.09-34.31.29-68.34-8.67-102.36-12-19-1.86-37.81,1.27-56.8.07-16.94-1.07-34.17-5.46-47.79-16,.94-1.13,14.2,4.67,15.9,5.23,10.36,3.42,22,4,32.82,4.32,27,.72,53.72-3.34,80.46,2.1,13.12,2.67,26,6.17,39.38,7.35,12.76,1.12,25.83,2.95,38.64,2.92,22.05-.05,38.25-12.95,47.41-32.43C301.62,582.54,305.5,553.06,296.29,529.35Z"/><path class="cls-2" d="M311.49,789.21c-2-8.47-7.11-15.78-12.32-22.56,3.3,9.57,7.52,18.2,7.94,28.51a240.69,240.69,0,0,1-1.25,31.22c-.74,8.25-.74,18.82-4.59,26.34-4,7.88-12.75,13-20.55,16.49-18.4,8.24-38,13.37-56,22.5s-35.34,18.53-54.29,25.45c-22,8-44.8,13.25-67.75,17.61,19.72,1.26,39.14-2.46,58.06-7.73a267.25,267.25,0,0,0,53.93-21.85c17.11-9.09,35.29-15.39,53.07-23,15.85-6.74,29.39-15,37-31.07,4.37-9.28,6.2-19.44,7.35-29.56C313.23,810.87,314,799.8,311.49,789.21Z"/><path class="cls-2" d="M68,930c13.71,3.71,29.43,4.2,43.57,4.12,15-.08,29.64-3.39,44-7.26a274.89,274.89,0,0,0,40.79-14.17c12.91-5.77,25.16-12.92,38.24-18.32,15.3-6.31,31.19-11.17,46.12-18.36-12.67,7.29-26.44,12.28-39.84,18-13.11,5.62-25.5,12.69-38.31,18.94a243.56,243.56,0,0,1-40.76,15.17c-14.26,4-28.84,7.62-43.72,8a173.34,173.34,0,0,1-25.68-1.63C84.25,933.54,75.94,932.56,68,930Z"/><path class="cls-3" d="M302.79,963.14c-6.25,13.55-12.75,27.81-24,38s-25.31,16.55-39.15,22.59c-15.28,6.67-30.81,12.69-46.46,18.43-7.19,2.63-14.51,5.18-22.14,6.15S156.5,1048,149.2,1046a53.61,53.61,0,0,0-12.14-2.34c-3.86-.16-7.7.3-11.57.06-7.65-.46-14.83-2.88-20.65-8,7.08,1.92,13.8,4.18,21.19,4.65,7.71.49,15.43-.07,23.14.17,7.52.23,15,2.32,22.5,1.07,7.32-1.22,14.48-4.24,21.41-6.8,27-10,54.84-20.2,78.21-37.42C283.68,988.25,295.85,977.08,302.79,963.14Z"/><path class="cls-1" d="M241.77,400.91c.29-1.16.58-2.31.88-3.45Z"/><path class="cls-1" d="M283.39,352.61c-13.5,6.63-25.91,17.07-33.2,27.17C258.46,368.18,270.63,358.82,283.39,352.61Z"/><path class="cls-1" d="M289.21,350a63.47,63.47,0,0,1,11.43-3.44A65.65,65.65,0,0,0,289.21,350Z"/><path class="cls-1" d="M300.64,346.58c1.18-.24,2.37-.43,3.57-.58C303,346.15,301.84,346.35,300.64,346.58Z"/><path class="cls-1" d="M311.11,345.66c6.7.12,13.31,1.41,20,1.79C324.44,347.12,317.77,345.86,311.11,345.66Z"/><path class="cls-1" d="M377.57,347.47c-9.58.16-21.27.49-32.94.36C355.61,347.93,366.59,347.61,377.57,347.47Z"/><path class="cls-1" d="M405.13,349.51l1.16.23Q404,349.31,405.13,349.51Z"/><path class="cls-1" d="M464.8,364.62c-1.31-.43-2.63-.84-3.94-1.25Z"/><path class="cls-1" d="M460.86,363.37c-16.8-5.24-33.12-9.13-45.19-11.71C430.89,354.88,446,358.69,460.86,363.37Z"/><path class="cls-1" d="M412.06,350.9l3.61.76Z"/><path class="cls-1" d="M481.46,370.5a186.89,186.89,0,0,1,28.12,13.15A196.5,196.5,0,0,0,481.46,370.5Z"/><path class="cls-3" d="M618.53,664.5s-35,76-76,111C542.53,775.5,605.53,734.5,618.53,664.5Z"/><path class="cls-3" d="M447.53,985.29c-5,2.27-8.78,6.35-13.16,9.54-4.77,3.48-10.2,5-15.94,6.13-13.29,2.5-26.74,4.51-40.28,4-6.29-.24-11.58,2.42-17.66,3.54a34,34,0,0,1-9.57.46c-2.86-.29-5.6-1.73-8.46-1.73s-5.6,1.12-8.35,1.52a62.39,62.39,0,0,1-10.42.65,53.16,53.16,0,0,1-17.92-3.52c-3.12-1.21-3.77-2.33-6.93-.93a38.69,38.69,0,0,1-7.06,2.73A48.9,48.9,0,0,1,270,1008c10.31-6.19,17.73-15.92,23.56-26.26,5.73-10.15,11.58-21.38,14.53-32.69,6.87-26.38-10.49-54.14-27.35-73,7.12-3.79,14.21-8.38,18.31-15.55,8.77,26,18.81,51.37,37.22,72.24,17,19.26,38.82,33.36,63,41.92A213.89,213.89,0,0,0,447.53,985.29Z"/><path class="cls-3" d="M670,693s3,63-36,172C634,865,687,747,670,693Z"/><path class="cls-3" d="M639,679c7.74,33-.43,73-21,100C633.35,748.07,640,713.4,639,679Z"/><path class="cls-3" d="M321,742c14.15,24,37.5,42.31,61.51,55.75C410.9,813.62,442.17,819.23,474,812c-45.95,22.56-98.64-1.39-131.18-35.83C333.61,766.39,324.73,755.16,321,742Z"/><path class="cls-3" d="M538,856c-13.09,31.74-28.65,64-29,99-3.35-17.06.41-35,5.71-51.23A191.94,191.94,0,0,1,538,856Z"/><path class="cls-3" d="M36,714c-1,15.63-3.37,31.45,0,47C29.56,747.15,31.91,728.16,36,714Z"/><path class="cls-3" d="M62,720c-1.05,15.61-2.24,31.43,0,47-2.67-7.23-2.92-15.14-2.89-22.77C59.18,736.08,59.8,727.87,62,720Z"/><path class="cls-3" d="M52,711a290.19,290.19,0,0,0-2.23,29c-.39,9.66-1.19,19.38-.77,29-2.19-9.52-1.66-19.46-1.21-29.14S49,720.31,52,711Z"/><path class="cls-3" d="M37,529c-1.77,21-4.44,41.81-4,63C29.35,571.53,31.92,549,37,529Z"/><path class="cls-3" d="M58,529c-1.77,11.7-3.36,23.42-4.55,35.19C52.35,575.41,51.14,586.72,52,598c-2.42-11.17-1.65-22.76-.53-34A193.24,193.24,0,0,1,58,529Z"/><path class="cls-3" d="M48,856c0,8.26.18,16.58,1.52,24.75s4.4,16,5.48,24.25c-2.73-7.64-5.93-15.16-7.33-23.2A71.32,71.32,0,0,1,48,856Z"/><path class="cls-3" d="M60,860c1,16.57,4.62,32.79,8,49C61.76,894.23,57.82,876,60,860Z"/><path class="cls-3" d="M103,983c4.71,15.08,7.51,30.93,15,45-4.87-5.57-7.57-12.72-9.81-19.66A113,113,0,0,1,103,983Z"/><path class="cls-3" d="M118,983a210.8,210.8,0,0,1,7.36,20.77c1.93,6.12,3.3,12.68,6.64,18.23-4.56-4.46-6.43-11.08-8.32-17A165.3,165.3,0,0,1,118,983Z"/><path class="cls-1" d="M624.11,645c-3.59-2.06-6.11-3.64-7.72-7.61-1.4-3.46-2.55-7-3.91-10.5q-4.95-12.72-9.89-25.44c-6.49-16.81-12.87-33.67-18.82-50.68S572.45,516.49,568.06,499c-4.2-16.74-7.48-33.71-12.65-50.19-4.63-14.76-10.59-29.43-19.19-42.35-9.25-13.92-22-24.06-36.55-32-15.81-8.63-32.7-15.4-49.7-21.3s-34.48-11.81-52.38-14.62c-18.59-2.91-37.59-2.23-56.29-4.06-8.77-.86-17.42-2.85-26.2-3.47-8.61-.61-17,1.19-25,4.3-14.41,5.62-28.88,14.89-37.84,27.71-10,14.27-12.87,33.18-18.64,49.33-5.61,15.72-14.59,29.9-21.74,44.92S196,486.77,190.06,502.4c-2.8,7.43-5.82,14.7-8.94,22-3.35,7.85-6.55,16.17-6.33,24.84.43,16.64,14.61,29.71,28.77,36.28,32.3,15,68.1-.47,97.48-15.26,14.87-7.48,29.81-15.69,42.32-26.8,6.34-5.63,11-12,15.44-19.25,4.13-6.78,8.71-13.26,12.87-20,3.68-6,7.73-12.06,9.63-18.89-1.72,6.72-5.07,12.83-8.17,19-1.73,3.43-6.72,10.11-4.84,13.87,2.1,4.21,6.77,7,4.5,12.11-3,6.78-6.2,13.49-9.1,20.34-3.14,7.4-6.18,14.85-8.86,22.44-2.46,7-4.62,13.85-4.13,21.33,1,14.37,10.29,26.09,20.74,35.23,22.37,19.57,49.66,35.43,77.3,46.17,28.57,11.1,59.4,16.76,90.05,14.33a153.82,153.82,0,0,0,52.6-13.42c15.29-7.09,29.09-16.67,43-26.13C630.91,648.77,627.47,646.95,624.11,645Z"/><path class="cls-2" d="M254.8,587.86c6.79-1.36,13-4.74,19.4-7.32,7-2.82,13.91-5.65,20.7-8.87a327.79,327.79,0,0,1-40.72,15.72c-.06,0,1,.61,0,.34Z"/><path class="cls-2" d="M254.29,588c-24.16,6.44-56.55,2.7-72.27-18.92-4.45-6.12-7.48-13.48-7.45-21.12,0-8.9,3.67-17.32,7.24-25.31,3.8-8.51,6.92-17.25,10.55-25.82,4-9.44,8.95-18.45,13.59-27.58,10.5-20.67,20.58-41.64,28.31-63.53-5,36.91-31.68,66.41-43.79,100.88-5.09,14.49-16,28.72-14.12,44.82,1.71,14.68,14,26,26.63,32.2a66.16,66.16,0,0,0,28.4,6.64,67.87,67.87,0,0,0,15.31-1.36C248.17,588.59,253.22,586.41,254.29,588Z"/><path class="cls-2" d="M375.75,497.24c14.18-9.57,25.89-22.82,32.82-38.52,8.3-18.81,8.58-39.62,6-59.7,1.23,18.34-2.26,37-9,54a127,127,0,0,1-12.75,24.52,114.07,114.07,0,0,1-8.6,11.23C382,491.41,379.06,495.89,375.75,497.24Z"/><path class="cls-2" d="M374.78,496.87c22.64-26,33.54-66.63,16.75-98.44,4,17.09,5,35.9,1.51,53.17a64.82,64.82,0,0,1-8.47,22.29C380,481,377.71,489,374.78,496.87Z"/><path class="cls-2" d="M372.15,504.91c29.37-6.12,46.26-33.82,56.27-59.84a166.74,166.74,0,0,1-24.89,36.71,101,101,0,0,1-16.12,14.78,65.53,65.53,0,0,1-8.62,5.29C377.68,502.41,372.2,504.93,372.15,504.91Z"/><path class="cls-2" d="M363.75,510.78s52.74,5.63,84.9-39.26C448.65,471.52,405.39,510.14,363.75,510.78Z"/><path class="cls-4" d="M228.38,482.42c-21,12-33,34.55-40.16,56.84,7.84.27,15.65.32,23.47,1s15.76,1.37,23.67.72c14.79-1.2,28.88-5.45,42.44-11.32,2.16-.93,4.9-1.71,6.58-3.45,2-2.08,2.65-5.57,3.3-8.27,1.56-6.55,3-13.12,4.45-19.71,1.47-6.8,1.58-11.08-3.51-16.34a29.77,29.77,0,0,0-14.82-8C258.63,470.39,241.79,475.34,228.38,482.42Z"/><path class="cls-5" d="M301.34,485.44c-1-10.18-17.92-14.81-25.85-15.78A76.63,76.63,0,0,0,238,474.6c-22.5,9.2-38.62,29.23-51.42,49.13-1.93,3-6.25,7.88-6.2,11.72,0,3.49,6,5.18,8.18,2.76,1.23-1.38,1.63-4.79,2.29-6.57,1.08-2.93,2.21-5.84,3.43-8.72a87.55,87.55,0,0,1,9.06-16.18c6.87-9.78,15-18.91,25.67-24.66a75.66,75.66,0,0,1,34.8-9.21c10.46-.07,25.9,4,29.29,15.63.81,2.78-.1,5.85-.7,8.57-.79,3.54-1.44,7.1-2.28,10.63-1.49,6.27-3.37,12.41-5.41,18.52,3.25-1.75,6.7-3.39,9.31-6.06,2.77-2.83,3.73-6.65,4.59-10.4C300.45,501.85,302.13,493.59,301.34,485.44Z"/><path class="cls-3" d="M376.75,494.87c-13,31.31-38.7,53.88-67.92,69.85-17.14,9.37-35.57,17.9-54.53,22.84-17.12,4.46-35.16,4.52-51.32-3.28-13.84-6.68-27.52-19.17-27.66-35.65,10.18,17.78,26.95,29.65,48,28.72,22.63-1,45.64-7.57,66.26-16.78,37.83-16.91,69.15-46.66,82-86.69,8-24.89,9.07-51.58,6.07-77.41,7,15,9,31.92,8.55,48.35C385.73,461.76,383.29,479.13,376.75,494.87Z"/><path class="cls-2" d="M386.47,454.84c-1.65,21.12-7.2,42.28-18.57,60.32-10.65,16.88-25.81,30.43-42.42,41.26a279.57,279.57,0,0,1-57,27.92c-19.19,7-40.44,10.62-60.07,3.17-16.2-6.15-33.23-20-33.11-38.87.66,19.54,19.15,32.8,36.22,38.13,24,7.51,48.45-1,70.46-10.76,22.73-10.06,45.2-21.6,63.49-38.73A122.82,122.82,0,0,0,381,477.69c6.56-26.28,7.5-55.94-3.38-81.23C386.37,414.5,388,435.12,386.47,454.84Z"/><path class="cls-6" d="M37,802a50.45,50.45,0,0,0-1.81,33c2.7,9,9,20.41,17.93,24.66,4.89,2.33,10.38,1.48,15.53.59A152.47,152.47,0,0,0,88.41,855c12.87-4.06,25.5-8.77,38-13.9,12.3-5.06,24.45-10.47,36.34-16.43,5.24-2.63,10.52-5.22,15.58-8.2a82,82,0,0,0,7.3-4.78c1.9-1.41,5.82-3.34,3.31-5.61s-10.12-.39-13.32-.18c-7,.48-13.93,1.1-20.89,1.78-13.37,1.3-26.73,2.62-40.15,3.15-15,.59-30.06.2-44.83-2.5-7.11-1.3-14.07-3.23-21-5.19C46.61,802.62,38.28,798.88,37,802Z"/><path class="cls-6" d="M55,651c-17,7.56-29.53,28.1-24.89,46.8,1,4,3,7.9,7.21,9.1,5.14,1.45,11.54,0,16.58-1.07,11.69-2.58,23-7.3,34.13-11.63,22.81-8.89,45.09-19.34,68.36-27,2-.67,15.12-2.92,13-6s-10.44-3.43-13.68-3.87q-8.76-1.18-17.55-2.24c-14.17-1.7-28.42-2.92-42.67-3.84-6.88-.44-13.77-.79-20.66-1-3.62-.11-7.25-.17-10.87-.12C61.09,650.17,57.7,649.82,55,651Z"/><path class="cls-6" d="M104.53,957.5c-6.63-1.89-20.09-3.91-16.35,7.62,2.69,8.3,10.62,17.47,18.63,20.89,5.18,2.21,10.55,1.28,15.93.35a170.46,170.46,0,0,0,18.71-4.55c12.78-3.73,25.48-7.8,37.94-12.51,11.37-4.31,22.54-9.15,33.43-14.56,9.83-4.88,19.55-10.45,27.54-18.07,1.9-1.81,6.76-5.9,3.47-8.42-1.74-1.33-5.68-.62-7.64-.46a73.6,73.6,0,0,0-10.81,1.85c-12.42,2.91-24.73,6.38-37,9.83-14.06,4-28.09,8-42.24,11.66-7,1.8-14.09,3.6-21.2,5.07C118.69,957.5,110.83,959.3,104.53,957.5Z"/><path class="cls-6" d="M105,460c17.42,5.44,35.41,11.53,50,22.86,9.81,7.62,31.66,34.14,10.37,41.58-9.07,3.17-20,2.05-29.31,1.27-12-1-23.87-2.43-35.85-3.22-10.34-.68-21.43.1-31.55-2.37-3.53-.86-8.36-2.26-10.17-5.76-2-3.87.42-8.42,2.54-11.67,3.06-4.68,7.07-8.62,10.64-12.89a187.31,187.31,0,0,0,11.63-16C88.4,466.13,94.4,456.68,105,460Z"/><path class="cls-6" d="M321.88,381.2c-11.9,2.64-20.37-7.9-20.87-18.93-.24-5.4,1.2-11.72,5.85-15s10.88-2.77,16.21-2.53c36.07,1.66,72,7.88,107,16.71,31.91,8.05,66.53,18.61,90.78,41.93.73.7,4.13,3.18,3.65,4.42-.68,1.77-6.06-.59-7.17-.92-8.38-2.47-16.6-5.44-24.87-8.25a477.49,477.49,0,0,0-51.12-14.24C402.32,375.82,361.18,372.48,321.88,381.2Z"/><path class="cls-6" d="M639,679c28.3,47.17,145,88,168,82S633,669,639,679Z"/><path class="cls-6" d="M563,882c27.3,41.86,125,89,148,81S548,859,563,882Z"/><path class="cls-6" d="M536.94,489c7.18,20.05,14.09,40.21,20.45,60.54,6.24,20,12.51,40,16.42,60.55,2,10.31,3.92,21.1,2.8,31.62-1.08,10.1-4.61,20.16-7.53,29.85-5.72,19-11.93,37.62-20.9,55.32-1.73,3.4-7.61,15.22-12.41,8.92-3.75-4.92-3.42-15-3.71-20.66-1-20.25.43-41.26,3.1-61.34,1.39-10.44,3.89-20.7,5.14-31.15,1.21-10.05.23-19.62-1.89-29.48-4.24-19.77-11.71-38.62-18.25-57.69a334.5,334.5,0,0,1-9.76-33.09c-2.16-9.34-4.76-20.86-2.2-30.39,2.34-8.69,10.36-7.22,15.81-2.4A48.44,48.44,0,0,1,536.94,489Z"/><path class="cls-2" d="M310.6,331.18c7.78,0,15.55,1.42,23.32,2.43,23.35,3,47.13,1.45,70.31,6s45.37,12.73,67.09,21.62c19.17,7.84,38.85,16.45,53.68,31.37,14.44,14.52,23,33.68,29.32,52.88,7.42,22.59,11.47,46.08,17.79,69,6.5,23.57,15.06,46.5,23.71,69.35,4.31,11.37,8.71,22.71,13.12,34,1.93,5,3.93,9.9,5.74,14.91,1.74,4.84,3.48,8.41,7.69,11.49,8.22,6,17.8,9.92,27,14.24,10.59,5,21.33,9.7,32,14.51,44.69,20.17,89.67,39.68,134.74,59,2.95,1.26,9.58,2.33,11.55,4.89,1.19,1.55.95,3.71,1.07,5.54.18,2.69.56,5.37.81,8.06,1.1,11.83,1.49,23.74,1.58,35.62.37,47.06-5.44,94.46-20.21,139.26a331.21,331.21,0,0,1-62.47,111.43,280.28,280.28,0,0,1-48,44.77c-4.46,3.24-9.07,6.2-13.72,9.14-1.83,1.15-3.68,2.76-5.71,3.52a4.8,4.8,0,0,1-1.68.34c-1.75,0-2.87-1.26-4.54-2.58-9.09-7.2-18.68-13.74-28.25-20.29-39.4-27-80.15-51.42-121.12-75.85-9.34-5.57-18.37-11.82-28.94-14.87a70.18,70.18,0,0,0-19.36-2.77,62.36,62.36,0,0,0-11.74,1.09c-9.79,1.88-18.65,6.39-26.66,12.21-8.84,6.42-17.64,9.62-28.46,11.11q-8.39,1.16-16.84,1.77c-6.3.46-12.9,0-19.14.88-4.79.68-9.24,2.81-14,3.49a21.55,21.55,0,0,1-3,.2c-4.75,0-9.33-1.35-14.07-1.35q-.61,0-1.22,0c-6.8.35-13.47,1.95-20.13,1.95a29.34,29.34,0,0,1-11.57-2.15c-3.27-1.37-5.86-2.66-8.87-2.66a11.86,11.86,0,0,0-4.14.78,50.16,50.16,0,0,1-16.06,3.52h-.45c-2.94,0-5.65-.82-8.3-.82a8.82,8.82,0,0,0-5.22,1.55,101.74,101.74,0,0,1-13.58,7.67c-11,5.27-22.21,9.91-33.44,14.56-11.06,4.58-22.22,8.93-33.63,12.57-7.15,2.29-14.28,4-21.49,4a41.56,41.56,0,0,1-12.28-1.8c-4.81-1.48-9.41-3-14.5-3.2l-1.64,0c-3.22,0-6.44.27-9.65.27a35.22,35.22,0,0,1-6.36-.5c-9.54-1.74-17.4-7.92-22.89-15.71-6.2-8.8-9.26-19.05-12.38-29.22-3.43-11.2-7.46-22.22-10.85-33.44a156.11,156.11,0,0,1-4.06-16.78q-.71-3.86-1.25-7.75c-.37-2.69,0-6-.74-8.57-1.1-3.7-6.33-3.87-9.48-5.29a55,55,0,0,1-14.25-9.3c-17.12-15.54-14.32-38.08-18-58.88-2-11.17-4.77-22.21-6.21-33.48a100.51,100.51,0,0,1,1.4-34c1.1-5.2,3.19-10.08,4.38-15.19,1.24-5.31-3.4-8.67-6.4-12.47C13.35,755,9.65,746.51,8.9,736c-.82-11.38.4-23,1.16-34.37.79-11.75,2-23.46,3.21-35.17,1.14-11,2.54-22.14,6.82-32.44a111.19,111.19,0,0,1,7.39-14.36c1.88-3.14,5.82-6.38,2.92-9.9s-6.56-6.6-9.39-10.49a62.55,62.55,0,0,1-8.2-14.84c-4-10.7-3.94-22.07-2.6-33.26s3.65-22.57,8-33S29,498.27,35.27,489c6.5-9.62,13.35-19,20.36-28.26,6.47-8.53,13.29-16.94,21.84-23.5,16.76-12.86,38-17.64,58.61-19.71,4.91-.49,9.91-.86,14.91-.86a70.29,70.29,0,0,1,19,2.32c10.65,3,20,7,31.2,7.45,2.53.1,5.05.14,7.58.14,3.06,0,6.12-.05,9.18-.11h.26c1.69,0,3.54.27,5.28.27,2.24,0,4.31-.45,5.67-2.51,1.75-2.64,2.41-6.08,3.42-9,1.95-5.69,3.94-11.35,5.8-17.07,3.26-10,5.63-20.54,10.69-29.89,5-9.17,12.74-16.27,21.18-22.2,8.75-6.14,18.5-11.15,29-13.6a49.76,49.76,0,0,1,11.43-1.23m0-7a56.45,56.45,0,0,0-13,1.42c-10.42,2.44-21,7.39-31.38,14.69-10.87,7.63-18.49,15.68-23.32,24.6-4.13,7.63-6.55,15.74-8.89,23.58-.74,2.47-1.5,5-2.3,7.47-1.37,4.24-2.86,8.55-4.3,12.72l-1.46,4.24c-.32.94-.6,1.88-.87,2.78a27.6,27.6,0,0,1-1.41,4h-.19c-.61,0-1.36-.06-2.15-.12-1-.07-2-.16-3.14-.16h-.39c-2.8.05-6,.11-9.06.11-2.7,0-5.09,0-7.3-.13-7.38-.3-14.14-2.43-21.29-4.68-2.67-.84-5.43-1.71-8.31-2.52A76.75,76.75,0,0,0,151,409.65a155.66,155.66,0,0,0-15.61.89c-17.1,1.71-42.16,5.76-62.17,21.12-9.56,7.34-17,16.66-23.15,24.82C42.16,466.89,35.43,476.23,29.47,485c-6.09,9-13,19.23-17.69,30.4-4.09,9.76-6.88,21.17-8.53,34.89-1.11,9.26-2,23.13,3,36.54a68.92,68.92,0,0,0,9.1,16.51,63,63,0,0,0,6,6.84c.84.87,1.66,1.72,2.43,2.56l-.46.63c-.58.78-1.23,1.67-1.82,2.64a117.62,117.62,0,0,0-7.85,15.27c-4.61,11.09-6.09,22.6-7.32,34.4-1.13,10.89-2.41,23.23-3.23,35.43-.13,2-.28,4-.43,6-.71,9.57-1.44,19.46-.73,29.33.83,11.52,4.78,21.4,12.43,31.09.77,1,1.57,1.86,2.34,2.71,1.22,1.35,2.89,3.2,2.74,3.83-.49,2.12-1.19,4.28-1.93,6.56A86,86,0,0,0,15,789.45a107.2,107.2,0,0,0-1.5,36.3c.94,7.34,2.42,14.59,3.86,21.59.82,4,1.68,8.17,2.4,12.23.86,4.82,1.35,9.72,1.86,14.91,1.68,16.9,3.42,34.38,18.34,47.93a62.15,62.15,0,0,0,16.08,10.5,28.8,28.8,0,0,0,4,1.35c.55.16,1.28.36,1.84.56.06.7.08,1.56.09,2.3a36.7,36.7,0,0,0,.26,4.21c.37,2.72.81,5.43,1.3,8.08a163.74,163.74,0,0,0,4.24,17.53c1.78,5.9,3.76,11.79,5.67,17.5,1.75,5.23,3.56,10.64,5.19,16l.19.63c3.17,10.34,6.45,21,13.16,30.57,7.08,10,16.79,16.64,27.35,18.57a41.64,41.64,0,0,0,7.61.62c1.75,0,3.46-.07,5.11-.14s3.08-.13,4.54-.13l1.41,0c3.7.12,7.26,1.22,11.38,2.5l1.3.4a48.2,48.2,0,0,0,14.34,2.11c7,0,14.3-1.33,23.62-4.31,10.08-3.22,20.62-7.16,34.18-12.77l1.08-.45c10.79-4.46,21.94-9.08,32.72-14.27a107.15,107.15,0,0,0,14.5-8.2,1.88,1.88,0,0,1,1.27-.33,22.22,22.22,0,0,1,2.9.32,35.47,35.47,0,0,0,5.4.5h.65a57,57,0,0,0,18.27-3.94,4.84,4.84,0,0,1,1.73-.36c1.2,0,2.76.67,4.92,1.59l1.25.53a36.29,36.29,0,0,0,14.27,2.69,90.87,90.87,0,0,0,12.13-1.06c2.91-.39,5.65-.76,8.37-.9l.85,0a43.57,43.57,0,0,1,6,.6,54.84,54.84,0,0,0,8,.75,28.33,28.33,0,0,0,4-.27,52.6,52.6,0,0,0,8.09-2,41.66,41.66,0,0,1,6-1.51,83,83,0,0,1,10.45-.56c2.68,0,5.44-.07,8.22-.27,5.84-.43,11.65-1,17.28-1.82,12.43-1.71,22.18-5.53,31.62-12.38,8.09-5.87,15.9-9.47,23.87-11a55.46,55.46,0,0,1,10.43-1,62.84,62.84,0,0,1,17.42,2.5c7.82,2.26,14.9,6.59,22.38,11.17,1.6,1,3.26,2,4.91,3,43.56,26,82.71,49.59,120.76,75.62l.52.36c9.14,6.25,18.6,12.72,27.33,19.64l.72.59c1.67,1.39,4.2,3.5,8.17,3.5a11.8,11.8,0,0,0,4.13-.78,24.65,24.65,0,0,0,5.58-3.19c.51-.36,1-.71,1.42-1,5.29-3.33,9.71-6.21,14.11-9.4a287.71,287.71,0,0,0,49.16-45.88,340.32,340.32,0,0,0,63.8-113.79c14-42.6,21-90.21,20.56-141.51-.11-14.07-.62-25.58-1.61-36.22-.1-1.09-.22-2.18-.35-3.28-.18-1.6-.35-3.11-.45-4.59,0-.28,0-.57,0-.86a13.68,13.68,0,0,0-2.48-8.49c-2.75-3.57-7.44-5-11.58-6.17-1-.31-2.23-.66-2.76-.88-37.18-15.94-86.07-37-134.61-58.94l-9.17-4.11c-7.48-3.35-15.22-6.81-22.73-10.35-1.7-.8-3.42-1.59-5.14-2.38-7.47-3.43-14.53-6.68-20.67-11.17-2.65-1.94-3.75-4.1-5.24-8.21-1.38-3.84-2.88-7.65-4.33-11.34l-1.46-3.74c-4-10.28-8.65-22.24-13.1-34-9.15-24.16-17.24-46-23.51-68.73-2.5-9.06-4.69-18.44-6.81-27.51-3.21-13.75-6.54-28-11.08-41.78-5.15-15.68-14-38.51-31-55.63-15.48-15.56-35.32-24.45-56-32.91-21.1-8.63-44-17.28-68.41-22-13.68-2.65-27.53-3.27-40.93-3.86-9.84-.44-20-.89-29.81-2.16-1.71-.22-3.42-.47-5.13-.71a135.54,135.54,0,0,0-19.1-1.78Z"/><path class="cls-2" d="M284.63,880.5C298,909,337,932,270,1009l4,3s40-41,39-73S284.63,880.5,284.63,880.5Z"/></g></svg>