<svg id="Frame_1" data-name="Frame 1" xmlns="http://www.w3.org/2000/svg" viewBox="0 0 826.21 1096.88"><defs><style>.cls-1,.cls-4{fill:#fc9;}.cls-2{fill:#bf9973;}.cls-3{fill:#80664d;}.cls-4{opacity:0.46;}.cls-5{fill:#ffebd6;}.cls-6{fill:#ffe0c2;}.cls-7{fill:#ffd6ad;}</style></defs><title>Hand</title><path class="cls-1" d="M792.14,956c-17.84,39.95-43.14,76.86-75.45,106.49a264.13,264.13,0,0,1-25.58,20.76c-4.08,2.9-8.26,5.65-12.57,8.2-1.37.81-4.47,3.47-6.15,3.42-1.33,0-2.68-1.6-3.65-2.37-18.2-14.51-38.12-27.22-57.59-39.93s-39.35-25.07-59.33-37.12q-15.28-9.22-30.72-18.15c-5.15-3-10.32-5.87-15.49-8.78-4.92-2.78-9.84-5.93-15.34-7.44-10.66-2.92-22.54-4.24-33.33-1.56-11,2.74-19.67,7.59-28.6,14.43-8.54,6.54-19.83,7.73-30.19,9.23-5.25.76-10.51,1.42-15.8,1.76q-4.91.31-9.83.29c-2.73,0-5.76-.71-8.4.06-4.59,1.33-8.62,3.31-13.52,3.73a33.87,33.87,0,0,1-8-.24c-2.41-.37-5-1.86-7.38-1.72-4.42.26-8.92,1.94-13.45,2.26a53.91,53.91,0,0,1-16.66-1.15,33.24,33.24,0,0,1-6.53-2.25c-1.33-.64-2.47-1.7-4-1.74s-3.28,1.37-4.69,2a38.26,38.26,0,0,1-8.91,2.26,50.61,50.61,0,0,1-15.25-.12c-2.62-.38-3.29.38-5.34,1.78a73.36,73.36,0,0,1-8,4.51,504.17,504.17,0,0,1-63.82,27c-10.59,3.7-21.89,7.91-33.29,7.12-5.77-.4-10.89-2.58-16.41-4s-11.12-1-16.77-.88c-10.26.24-19.05-2.69-26.32-10.09-6.34-6.46-10.66-14.82-13.66-23.28-3.71-10.45-5.77-21.33-9.74-31.71a165.49,165.49,0,0,1-9.21-32.1c-.78-4.65-.91-9.47-1.73-14.07-.76-4.29-5.79-4.4-9.35-6-8.92-4.11-17-10-22.24-18.46-5.75-9.23-7.05-19.75-7.83-30.38a226.48,226.48,0,0,0-5.57-34.08c-2.56-11.23-4.78-22.47-4.14-34a130.9,130.9,0,0,1,6.34-33c.66-2,1.71-3.62.56-5.59s-3.52-3.64-5-5.36a53.49,53.49,0,0,1-8.92-13.89c-4-9.68-3.47-20.15-3.16-30.4a526.73,526.73,0,0,1,6.6-71.31c.85-5,1.76-10.22,3.77-15a152.7,152.7,0,0,1,8.2-15.48c1-1.8,3.74-4.85,4-6.83.22-1.51-.76-1.94-1.9-3.11A89,89,0,0,1,13.19,598c-6.53-9.36-10.55-19.82-10.85-31.3-.3-11.31,1.87-23.05,4.46-34a96.51,96.51,0,0,1,12.75-30.16Q29,487.42,39.55,473c12.83-17.59,25.73-35.27,45.94-44.75,18.56-8.71,39.76-11.43,60.09-11.4a70,70,0,0,1,15.07,1.38c5.69,1.26,10.95,3.78,16.41,5.73,10,3.58,22.41,2.64,32.91,2.51,3.22,0,6.45-.16,9.67-.17,2.14,0,5.54.68,7.48-.28,2.78-1.38,3-7.33,3.85-10.32,2.82-10.53,4.42-22.13,9.78-31.76,9.44-17,28.63-30.27,46.93-35.84,11.27-3.43,22.09-1.55,33.57-.83,12.08.76,24.16.49,36.25.19s24-.55,35.88,1.13c11.6,1.64,23,4.59,34.34,7.43,21.34,5.33,42.66,11.77,62.65,21,19.49,9,34.7,22.13,45.23,41,10.91,19.53,16.34,41.39,21.31,63,10.75,46.77,27.45,91.3,44.84,135.94l5.71,14.64c1.53,3.92,2.22,8.44,5.82,10.89,9.45,6.45,20.35,11.18,30.63,16.14,21.3,10.28,42.9,19.93,64.52,29.53q33.25,14.76,66.69,29.12,16.36,7,32.76,14c2.27,1,4.52,2,6.83,2.86,1.72.63,4.29,1,5.63,2.31,1.5,1.49,1.25,3.8,1.45,5.82.33,3.22.67,6.45.94,9.68A460.23,460.23,0,0,1,813,892.86,344.5,344.5,0,0,1,792.14,956Z"/><path class="cls-2" d="M306.58,740.68c-4.6,8.34-10.36,17-18.88,21.74-6.12,3.42-13.61,5.26-20.34,7.11-19.89,5.47-40.3,9.18-60.63,12.51-24.17,4-48.49,6.92-72.82,9.7-16,1.83-32.19,3.68-48.35,3.73-17.15.06-33.76-2.67-48.86-11.32,12.9,2.76,25.76,4.88,39,5.23,24,.63,48.15-2.49,71.85-6.1,32.06-4.88,64.44-9.87,96.16-16.72,20.31-4.39,46.46-11,58.8-29.57,2.49-3.75,3.66-9,4.84-13.37a92,92,0,0,0,2.87-14.85,90.86,90.86,0,0,0-2.27-30.16c-4.83-20.29-15.72-37-26.35-54.56,14.54,14.88,27,32.24,32.68,52.48A85.1,85.1,0,0,1,306.58,740.68Z"/><path class="cls-3" d="M282.17,764.75c-16.19,6.94-33.6,10.4-50.79,13.88q-27.37,5.55-55,9.38-27.94,3.82-56,6.67c-18.19,1.82-36.7,3.37-54.86.47a79.55,79.55,0,0,1-26.92-9.28c-7.31-4.18-16.18-10.19-21.41-16.87,5.35,6.14,14,11.49,21.09,15.36a80,80,0,0,0,22.54,7.81c16.23,3.24,33,2.42,49.32.79,36.91-3.68,73.91-8.24,110.5-14.39C241.28,775.09,262.31,771.72,282.17,764.75Z"/><path class="cls-1" d="M230,419.13c.17-.65.36-1.34.56-2.07C230.43,417.75,230.24,418.44,230,419.13Z"/><path class="cls-1" d="M230.61,417.06c.27-1,.54-2,.79-2.93C231.13,415.17,230.86,416.14,230.61,417.06Z"/><path class="cls-1" d="M237.14,392a34.91,34.91,0,0,1,5.17-10.8c-3.18,4.71-5,10.11-6.37,15.56Z"/><path class="cls-1" d="M324.22,347.45l2.07.09Q325.25,347.51,324.22,347.45Z"/><path class="cls-1" d="M390.14,348c2.54.47,5.09.93,7.63,1.42a111.35,111.35,0,0,0-20.72-2C381.36,347.39,385.87,347.22,390.14,348Z"/><path class="cls-1" d="M524.14,401a124.68,124.68,0,0,1,7.26,10.16,83.6,83.6,0,0,0-22.21-23.42A66,66,0,0,1,524.14,401Z"/><path class="cls-1" d="M536.5,419.78q1.2,2.19,2.29,4.4C538,422.7,537.29,421.24,536.5,419.78Z"/><path class="cls-1" d="M539.51,425.66c13.75,28.33,17.71,59.2,24.63,85.34C556.32,482.33,552.46,452.6,539.51,425.66Z"/><path class="cls-1" d="M567.39,522.12c5.85,18.66,15.73,45.69,24.62,69.27C583.35,568.49,574.62,545.52,567.39,522.12Z"/><path class="cls-1" d="M607.57,631.92q-1.26-3.23-2.51-6.45Z"/><path class="cls-3" d="M206,487.14c-29.67-13.49-58.66-28.28-91.82-30.14C146.85,453.82,179.32,469.74,206,487.14Z"/><path class="cls-3" d="M173.14,439c12.05,9.79,21.07,26.37,21.42,42C189.3,465.87,181.88,452.38,173.14,439Z"/><path class="cls-2" d="M297.4,588.15l1.23-.68c-3.75,16.24-11.15,32.8-24,43.87-14.9,12.83-34.38,13.18-53,11.62-22.37-1.87-44.47-5.65-66.69-8.74-10.65-1.48-21.35-2.89-32.09-3.42-11.11-.55-22.14.88-33.23,1.12-20.93.45-43.15-3.11-60.11-16.23.36-.45,10.13,3.69,11.39,4.08a111.8,111.8,0,0,0,14.38,3.4,170.71,170.71,0,0,0,26.51,2.14c18.42.22,36.81-1.43,55.23-1,20.13.48,40.19,2.52,60.33,2.85,16.65.27,34.46-.18,49.62-7.92a40.22,40.22,0,0,0,11.73-8.58c1.32-1.47,2.14-3.26,3.39-4.73,1.39-1.64,3.54-2.14,5.5-3A318.68,318.68,0,0,0,297.4,588.15Z"/><path class="cls-3" d="M257.14,641c-14.73,4.5-30.49,3.45-45.61,2-16.66-1.58-33.2-4-49.77-6.37-16-2.25-32.11-4.41-48.31-4.44s-31.92,2-48-1c-15.08-2.74-30.87-8.49-41.28-20.24,19,18.78,48.77,21.08,74,19.15A242.62,242.62,0,0,1,149.36,632c17.55,2.33,35,5.38,52.53,7.79C220.07,642.28,239,645.29,257.14,641Z"/><path class="cls-2" d="M304.59,789.21c-2-8.41-7.14-15.82-12.32-22.56,1.84,5.34,4.24,10.47,5.92,15.86a55.59,55.59,0,0,1,2.07,18A318.43,318.43,0,0,1,297.89,836c-.71,5.27-1.11,11.91-3.52,16.69a28.73,28.73,0,0,1-6.3,7.64c-4.85,4.45-10.79,7.45-16.82,10C254,877.5,236,882.56,219.21,891c-11,5.49-21.54,11.64-32.72,16.74a319.51,319.51,0,0,1-30.33,12c-19.71,6.66-40,11.15-60.42,15,15.79,1,30.55-1,45.89-4.6a265,265,0,0,0,52-17.72c9.1-4.3,17.71-9.52,26.88-13.69,9.75-4.43,19.75-8.26,29.7-12.21,9-3.57,18-7.18,26.39-12A49.47,49.47,0,0,0,295.78,855c5.26-9.27,7.7-19.91,9-30.4C306.17,813.1,307.25,800.59,304.59,789.21Z"/><path class="cls-3" d="M61.14,930c7,1.88,14.2,2.36,21.34,3,7.66.66,15.36,1.22,23.06,1.14,14.42-.15,28.57-3.35,42.44-7a276.77,276.77,0,0,0,41.55-14.37c13.15-5.86,25.59-13.2,39-18.61,15.1-6.12,30.71-11,45.41-18.07-12.66,7.29-26.43,12.31-39.84,18S208.12,907,195,913.32a242.69,242.69,0,0,1-40.81,15c-14.27,4-28.88,7.55-43.77,7.83a175.33,175.33,0,0,1-24.88-1.65C77.36,933.53,69,932.56,61.14,930Z"/><path class="cls-2" d="M295.9,963.14c-4.5,9.76-9.19,19.64-15.43,28.43A66.93,66.93,0,0,1,264,1007.5c-8.71,6.2-18.43,10.62-28.22,14.94Q214.17,1032,192,1040.08c-13.13,4.81-27.27,10.7-41.48,8-8.17-1.57-14.7-4.85-23.29-4.38-10.95.6-20.6-.33-29.26-7.95,5.68,1.54,11.34,3.66,17.22,4.31,9,1,18.11.33,27.11.5,6.91.13,14.13,2.14,21,1.29a67,67,0,0,0,13.13-3.54c9.56-3.26,19-7,28.4-10.59,23.69-9.14,46.87-19.34,66.53-35.75C280.9,984,290.28,974.41,295.9,963.14Z"/><path class="cls-1" d="M234.88,400.91c.29-1.16.58-2.31.88-3.45Z"/><path class="cls-1" d="M276.5,352.61c-13.5,6.63-25.91,17.07-33.2,27.17C251.57,368.18,263.74,358.82,276.5,352.61Z"/><path class="cls-1" d="M282.32,350a63.47,63.47,0,0,1,11.43-3.44A65.65,65.65,0,0,0,282.32,350Z"/><path class="cls-1" d="M293.75,346.58c1.18-.24,2.37-.43,3.57-.58C296.14,346.15,294.95,346.35,293.75,346.58Z"/><path class="cls-1" d="M304.22,345.66c6.7.12,13.31,1.41,20,1.79C317.54,347.12,310.88,345.86,304.22,345.66Z"/><path class="cls-1" d="M370.68,347.47c-9.58.16-21.27.49-32.94.36C348.72,347.93,359.7,347.61,370.68,347.47Z"/><path class="cls-1" d="M398.24,349.51l1.16.23Q397.08,349.31,398.24,349.51Z"/><path class="cls-1" d="M457.91,364.62c-1.31-.43-2.63-.84-3.94-1.25Z"/><path class="cls-1" d="M454,363.37c-16.8-5.24-33.12-9.13-45.19-11.71C424,354.88,439.12,358.69,454,363.37Z"/><path class="cls-1" d="M405.17,350.9l3.61.76Z"/><path class="cls-1" d="M474.57,370.5a186.89,186.89,0,0,1,28.12,13.15A196.5,196.5,0,0,0,474.57,370.5Z"/><path class="cls-2" d="M611.64,664.5s-35,76-76,111C535.64,775.5,598.64,734.5,611.64,664.5Z"/><path class="cls-2" d="M440.64,985.29c-6.91,3.14-11.58,9.74-18.5,12.71-5.3,2.28-11.45,3.11-17.09,4.07a201.66,201.66,0,0,1-27.43,3.11c-4.45.14-9.8-1-14,.49-7.21,2.53-14.21,4.36-21.9,3-1.64-.29-3.24-1.07-4.86-1.33-2.59-.42-5.46.77-8.15,1.2-11.16,1.8-21.65,1-32-3.51-.47-.21-1.14-1-1.64-1-1.71-.22-5.54,2.37-7.44,2.93a49.3,49.3,0,0,1-7.07,1.54,48.49,48.49,0,0,1-17.49-.47c16.73-10,25.34-28.64,33.16-45.71,4.5-9.82,7.42-19,6.26-30-1.14-10.78-5.24-21.1-10.41-30.55A139.44,139.44,0,0,0,273.88,876c7.21-3.84,14.17-8.31,18.31-15.55,6.06,18,12.29,35.72,22.27,52a145.71,145.71,0,0,0,62.17,55.69C396.72,977.65,418.61,982.88,440.64,985.29Z"/><path class="cls-2" d="M663.14,693s3,63-36,172C627.14,865,680.14,747,663.14,693Z"/><path class="cls-2" d="M632.14,679c4.56,19.42,2.76,41-2.19,60.17A111.6,111.6,0,0,1,611.14,779C626.54,747.91,633.08,713.61,632.14,679Z"/><path class="cls-2" d="M314.14,742c13.46,22.84,36.85,41.53,59.53,54.62,13.59,7.84,28.23,13.86,43.67,16.83,16.69,3.21,33.28,2.29,49.8-1.46-29.16,14.32-63.31,9.82-91.29-5a151.32,151.32,0,0,1-36.08-26.87C329.33,769.62,318.22,756.5,314.14,742Z"/><path class="cls-2" d="M531.14,856c-13.06,31.65-28.65,63.95-29,99-3.39-17.29.82-36.81,6.37-53.24A190.88,190.88,0,0,1,531.14,856Z"/><path class="cls-2" d="M29.14,714c-1,15.63-3.37,31.45,0,47C22.66,747.15,25,728.16,29.14,714Z"/><path class="cls-2" d="M55.14,720c-1,15.37-2.2,31.7,0,47-2.7-7.31-2.93-15.78-2.89-23.49A88.3,88.3,0,0,1,55.14,720Z"/><path class="cls-2" d="M45.14,711c-1.58,11.17-2,22.53-2.42,33.79-.32,8-.93,16.2-.58,24.21-2.14-9.28-1.64-19.69-1.21-29.14C41.36,730.23,42.17,720.22,45.14,711Z"/><path class="cls-2" d="M30.14,529c-1.77,21-4.44,41.81-4,63C22.45,571.53,25,549,30.14,529Z"/><path class="cls-2" d="M51.14,529c-1.73,11.44-3.32,22.9-4.47,34.42S44.23,586.55,45.14,598c-2.44-11.28-1.6-23.39-.46-34.79A190.64,190.64,0,0,1,51.14,529Z"/><path class="cls-2" d="M41.14,856a161.37,161.37,0,0,0,1.52,24.75c1.3,8.17,4.41,16.09,5.48,24.25-2.86-8-6.11-15.47-7.46-23.94A71.72,71.72,0,0,1,41.14,856Z"/><path class="cls-2" d="M53.14,860c1,16.57,4.62,32.79,8,49C54.86,894.23,50.92,876,53.14,860Z"/><path class="cls-2" d="M96.14,983c4.69,15,7.53,31,15,45-5.17-5.91-8.11-14.13-10.4-21.52A110.07,110.07,0,0,1,96.14,983Z"/><path class="cls-2" d="M111.14,983a229.8,229.8,0,0,1,7.84,22.27c1.76,5.54,3.15,11.73,6.16,16.73-4.6-4.5-6.77-12.18-8.68-18.1A154.72,154.72,0,0,1,111.14,983Z"/><path class="cls-3" d="M302.45,346.13c6.19,0,12.39.76,18.8,1.17,5.81.37,11.63.49,17.44.49,6.27,0,12.54-.15,18.81-.3,4.48-.11,9-.21,13.45-.21a160.12,160.12,0,0,1,22.43,1.34c11.6,1.64,23,4.59,34.34,7.43,21.34,5.33,42.66,11.77,62.65,21,19.49,9,34.7,22.13,45.23,41,10.91,19.53,16.34,41.39,21.31,63,10.75,46.77,27.45,91.3,44.84,135.94l5.71,14.64c1.53,3.92,2.22,8.43,5.82,10.89,9.45,6.45,20.35,11.18,30.63,16.14,21.3,10.28,42.9,19.93,64.52,29.53q33.25,14.76,66.69,29.12,16.36,7,32.76,14c2.27,1,4.52,2,6.83,2.86,1.72.63,4.29,1,5.63,2.31,1.5,1.49,1.25,3.8,1.45,5.82.33,3.22.67,6.45.94,9.68A460.23,460.23,0,0,1,813,892.86,344.5,344.5,0,0,1,792.14,956c-17.84,39.95-43.14,76.86-75.45,106.49a264.14,264.14,0,0,1-25.58,20.76c-4.08,2.9-8.26,5.65-12.57,8.2-1.36.8-4.42,3.42-6.11,3.42h0c-1.33,0-2.68-1.6-3.65-2.37-18.2-14.51-38.12-27.22-57.59-39.93s-39.35-25.07-59.33-37.12q-15.28-9.22-30.72-18.15c-5.15-3-10.32-5.87-15.49-8.78-4.92-2.78-9.84-5.93-15.34-7.44a79.43,79.43,0,0,0-20.75-3,52.22,52.22,0,0,0-12.58,1.45c-11,2.74-19.67,7.59-28.6,14.43-8.54,6.54-19.83,7.73-30.19,9.23-5.24.76-10.51,1.42-15.8,1.76q-4.56.29-9.13.29h-.7c-1.77,0-3.66-.3-5.49-.3a10.42,10.42,0,0,0-2.91.36c-4.59,1.33-8.62,3.31-13.52,3.73q-1.51.13-3,.13a33.08,33.08,0,0,1-5-.37c-2.3-.35-4.75-1.73-7.06-1.73h-.32c-4.42.26-8.92,1.94-13.45,2.26-1.61.12-3.24.18-4.86.18a49.49,49.49,0,0,1-11.8-1.33,33.24,33.24,0,0,1-6.53-2.25c-1.33-.64-2.47-1.7-4-1.74h-.07c-1.54,0-3.23,1.38-4.61,2a38.27,38.27,0,0,1-8.91,2.26,46.14,46.14,0,0,1-7,.52,56.82,56.82,0,0,1-8.26-.64,8.37,8.37,0,0,0-1.21-.1c-1.69,0-2.44.72-4.13,1.88a73.37,73.37,0,0,1-8,4.51,504.17,504.17,0,0,1-63.82,27c-9.71,3.4-20,7.22-30.46,7.22q-1.42,0-2.83-.1c-5.77-.4-10.89-2.58-16.41-4a37.38,37.38,0,0,0-9.63-1.05c-2.37,0-4.75.11-7.14.17H121c-9.77,0-18.17-3-25.16-10.1-6.34-6.46-10.66-14.82-13.66-23.28-3.71-10.45-5.77-21.33-9.74-31.71a165.49,165.49,0,0,1-9.21-32.1c-.78-4.65-.91-9.47-1.73-14.07-.76-4.29-5.79-4.4-9.35-6-8.92-4.11-17-10-22.24-18.46-5.75-9.23-7.05-19.75-7.83-30.38a226.48,226.48,0,0,0-5.57-34.08c-2.56-11.23-4.78-22.47-4.14-34a130.9,130.9,0,0,1,6.34-33c.66-2,1.71-3.62.56-5.59s-3.52-3.64-5-5.36a53.49,53.49,0,0,1-8.92-13.89c-4-9.68-3.47-20.15-3.16-30.4a526.73,526.73,0,0,1,6.6-71.31c.85-5,1.76-10.22,3.77-15a152.66,152.66,0,0,1,8.2-15.48c1-1.8,3.74-4.85,4-6.83.22-1.51-.76-1.94-1.9-3.11A89,89,0,0,1,13.19,598c-6.53-9.36-10.55-19.82-10.85-31.3-.3-11.31,1.87-23.05,4.46-34a96.51,96.51,0,0,1,12.75-30.16Q29,487.42,39.55,473c12.83-17.59,25.73-35.27,45.94-44.75,18.46-8.67,39.55-11.4,59.79-11.4h.31a70,70,0,0,1,15.07,1.38c5.69,1.26,10.95,3.78,16.41,5.73,6.33,2.26,13.58,2.72,20.71,2.72,4.18,0,8.32-.16,12.2-.21,3.22,0,6.45-.16,9.67-.17h0c1.25,0,2.92.23,4.48.23a6.86,6.86,0,0,0,3-.51c2.78-1.38,3-7.34,3.85-10.32,2.82-10.53,4.42-22.13,9.78-31.76,9.44-17,28.63-30.27,46.93-35.84a49.93,49.93,0,0,1,14.77-2m0-3a52.42,52.42,0,0,0-15.65,2.12c-20.44,6.22-39.55,20.85-48.68,37.25-4.17,7.5-6.14,16-8,24.19-.66,2.86-1.29,5.57-2,8.24-.23.85-.4,1.82-.59,2.84-.25,1.38-.91,5-1.71,5.58a4.2,4.2,0,0,1-1.62.19c-.71,0-1.5-.06-2.26-.12s-1.52-.11-2.22-.11c-1.92,0-3.81,0-5.64.09-1.37,0-2.73.06-4.1.08-1.56,0-3.16.06-4.79.09-2.41.06-4.9.11-7.38.11-5.85,0-13.38-.29-19.7-2.54-1.67-.6-3.37-1.27-5-1.92a78.55,78.55,0,0,0-11.75-3.92,71.44,71.44,0,0,0-15.71-1.45h-.31c-24.34,0-44.31,3.82-61.06,11.69C63.3,435.38,50,453.63,37.13,471.27,30,481,23.28,490.94,17,500.88A99.6,99.6,0,0,0,3.88,531.95C1.6,541.63-1,554.33-.66,566.74c.3,11.45,4.13,22.53,11.39,32.94a91.35,91.35,0,0,0,10,12c.28.29.56.54.81.77l.14.13a23.8,23.8,0,0,1-2,3.11c-.59.83-1.15,1.61-1.56,2.33l-1.32,2.31a127.52,127.52,0,0,0-7,13.48c-2.21,5.21-3.18,11-4,15.62A525.51,525.51,0,0,0-.78,721.13l0,1.24c-.31,10.08-.64,20.51,3.43,30.4A56.8,56.8,0,0,0,12,767.44a28.18,28.18,0,0,0,2.24,2.28,14.85,14.85,0,0,1,2.44,2.66c.16.28.18.42-.38,1.9-.15.4-.31.81-.45,1.24a134.08,134.08,0,0,0-6.48,33.8c-.68,12.21,1.71,23.92,4.21,34.88a224.73,224.73,0,0,1,5.5,33.63c.78,10.59,2.06,21.77,8.28,31.75,5.08,8.15,13,14.75,23.53,19.6a27.81,27.81,0,0,0,3.4,1.23c3.06,1,4,1.44,4.25,2.61.4,2.26.63,4.57.87,7s.46,4.67.85,7c1.68,10.05,4.57,20.13,9.36,32.68,2.08,5.43,3.66,11.16,5.19,16.71,1.36,4.91,2.76,10,4.52,14.94,3.61,10.15,8.43,18.35,14.35,24.38,7.27,7.4,16.2,11,27.3,11h1.23l2.42-.07c1.6-.05,3.12-.1,4.65-.1a34.06,34.06,0,0,1,8.87,1c1.59.42,3.21.92,4.77,1.4a53.22,53.22,0,0,0,12.2,2.72c1,.07,2,.1,3,.1,10.4,0,20.33-3.48,29.93-6.86l1.51-.53a507.6,507.6,0,0,0,64.2-27.13l.74-.38a68.51,68.51,0,0,0,7.6-4.32l.68-.48c1.2-.84,1.3-.88,1.75-.88a5.52,5.52,0,0,1,.77.07,59.59,59.59,0,0,0,8.7.67,48.84,48.84,0,0,0,7.44-.56,41.43,41.43,0,0,0,9.61-2.46,16.41,16.41,0,0,0,1.76-.91,7.84,7.84,0,0,1,1.72-.82,5.23,5.23,0,0,1,1.29.66c.41.25.88.53,1.41.79a36,36,0,0,0,7.12,2.47,52.66,52.66,0,0,0,12.51,1.41c1.63,0,3.34-.06,5.08-.19a49.43,49.43,0,0,0,7.09-1.2,41.66,41.66,0,0,1,6.32-1.07h.15a11.39,11.39,0,0,1,3.12.76,20.92,20.92,0,0,0,3.49.94,36.22,36.22,0,0,0,5.41.4c1.08,0,2.18,0,3.28-.14a40.69,40.69,0,0,0,10.09-2.52c1.31-.45,2.66-.92,4-1.31a7.52,7.52,0,0,1,2.08-.24c.82,0,1.68.07,2.59.14s1.9.15,2.88.16h.72c3.08,0,6.22-.1,9.32-.3,5.85-.37,11.64-1.15,16-1.79l2.2-.31c9.76-1.38,20.83-2.95,29.39-9.5,9.58-7.34,17.81-11.5,27.5-13.9a49.34,49.34,0,0,1,11.85-1.37,76,76,0,0,1,20,2.9c4.24,1.16,8.32,3.51,12.26,5.78l2.4,1.37,3,1.67c4.11,2.31,8.35,4.71,12.5,7.1,9.47,5.45,19.51,11.38,30.67,18.11,21.8,13.15,41.18,25.28,59.24,37.06l5.27,3.44c17.52,11.41,35.64,23.21,52.09,36.32.18.14.37.32.58.5,1.15,1,2.73,2.46,4.86,2.52h.12c2,0,4-1.31,6.44-3,.46-.33.94-.67,1.2-.82,4.17-2.46,8.35-5.19,12.78-8.33a268.12,268.12,0,0,0,25.87-21c31.2-28.62,57.54-65.79,76.16-107.48a348.5,348.5,0,0,0,21.06-63.69c10.39-45.09,13.78-94.1,9.8-141.74-.25-3-.56-6-.86-8.92l-.08-.81c0-.37-.06-.76-.08-1.15-.1-1.9-.24-4.49-2.24-6.48a11.66,11.66,0,0,0-5.33-2.58c-.52-.15-1-.28-1.39-.42-1.56-.57-3.09-1.24-4.71-1.95l-2-.86c-10.54-4.48-21.56-9.2-32.75-14-24.64-10.61-46.44-20.13-66.66-29.1-21.83-9.69-43.18-19.24-64.43-29.49q-2.77-1.34-5.58-2.66c-8.4-4-17.09-8.09-24.66-13.26-2-1.33-2.77-3.8-3.72-6.66-.31-.93-.63-1.89-1-2.84l-5.71-14.64c-17.42-44.71-34-88.72-44.72-135.53-5.17-22.49-10.72-44.3-21.62-63.82-10.47-18.74-25.71-32.55-46.59-42.24-17.35-8-37.43-14.79-63.19-21.23l-2.39-.6c-10.48-2.63-21.31-5.34-32.25-6.89A161.89,161.89,0,0,0,371,344.28c-4.37,0-8.71.1-13.52.21-5.76.14-12.29.3-18.74.3s-12.05-.16-17.25-.49c-2.08-.13-4.19-.31-6.22-.47-4.18-.34-8.49-.7-12.76-.7Z"/><path class="cls-4" d="M617.22,645c-2.81-1.62-5.84-3-7.11-6.1-1.41-3.43-2.56-7-3.91-10.48q-5-12.88-10-25.77c-6.75-17.45-13.37-35-19.54-52.63s-11.7-35.61-16.17-53.86c-4.32-17.65-7.8-35.54-13.73-52.75-5.33-15.46-12.61-30.7-23.49-43.07s-25.59-20.4-40.76-26.68a378.63,378.63,0,0,0-50.16-16.43c-18.05-4.67-36.23-9.38-55-9.85s-37.4,1.13-56.1-.06c-9-.57-18-2.26-27-.75a70.33,70.33,0,0,0-22.34,8.37c-13.14,7.35-26.76,18.58-33,32.65-3.49,7.91-5,16.72-7.15,25-2,7.74-3.89,15.49-6.15,23.14a179.21,179.21,0,0,1-10.57,26.32c-3.74,7.82-6.64,16.08-10,24.08-3.55,8.47-7.23,16.88-10.83,25.33-3.48,8.17-5.51,16.51-8.25,24.9-5.22,16-14.3,33-4.83,49.29,7.44,12.78,21.48,21.09,35.6,24.45,16.14,3.84,33.29,1.28,48.52-4.84a298,298,0,0,0,46.26-23.83c13.75-8.58,28.32-18.67,38.73-31.27,5-6.11,8.32-13.83,12.16-20.7,2.83-5.07,5.8-10.06,8.47-15.23,3.24-6.27,7.16-13.2,8.23-20.26-1.84,12-8.05,23.84-12.92,34.88-4.73,10.74-9.43,21.5-13.77,32.41s-10.15,22.86-8.73,34.83c1.54,12.89,10,23.61,19.3,32.11,10.1,9.25,21.83,17.12,33.38,24.43a264.81,264.81,0,0,0,43,22.12c28.42,11.42,59.22,17.53,89.89,15.49a156.56,156.56,0,0,0,51-11.72c16.89-7.22,32.16-17.56,47.18-28C624,648.77,620.58,646.95,617.22,645Z"/><path class="cls-3" d="M259.74,606.38c6.38-1.75,12.88-5.79,18.85-8.63,6.78-3.23,13.49-6.6,20-10.27a331.43,331.43,0,0,1-39.54,18.48c-.15,0,1,.53,0,.33Q259.28,606.68,259.74,606.38Z"/><path class="cls-3" d="M259.24,606.56c-15.15,5.18-32.2,6.43-47.66,1.82-13.79-4.11-27.42-13.78-32.77-27.59-6.37-16.42,4.25-33.16,8.5-48.7,4.71-17.22,12.5-33.22,19.34-49.69,7.65-18.42,14.76-37.09,20.1-56.32a90.75,90.75,0,0,1-5.06,25.41c-3.28,9.06-7,18-10.74,26.83-7.12,16.69-16.28,33.15-20.8,50.8-3.92,15.3-14.93,32-10.74,48.22,3.84,14.93,18.92,25.53,32.89,30a68.17,68.17,0,0,0,28.8,2.62,70.22,70.22,0,0,0,11.37-2.22C253.68,607.42,258.31,605.37,259.24,606.56Z"/><path class="cls-3" d="M374.18,507.66c17.85-13.92,30.34-33.25,34-55.71,2.44-15,.93-30.13-2-45,1.57,11.54.86,23.61-.89,35.07a132.06,132.06,0,0,1-9.52,33.22,117.34,117.34,0,0,1-9.48,17.44q-2.91,4.41-6.22,8.54C378.36,503.34,376.46,506.33,374.18,507.66Z"/><path class="cls-3" d="M373.18,507.36c20.64-27.3,28.87-68.8,10-99.36a138.8,138.8,0,0,1,5.7,32.3A99.75,99.75,0,0,1,387,468.37a63.09,63.09,0,0,1-4.78,13.87c-1.27,2.59-3,4.84-3.86,7.56C376.45,495.59,374.9,501.52,373.18,507.36Z"/><path class="cls-3" d="M371.11,515.56c29.07-8.18,43.77-36.75,52-63.56a172.8,172.8,0,0,1-14.77,27.68A128.3,128.3,0,0,1,391.43,501,77.48,77.48,0,0,1,381,509.84a57.53,57.53,0,0,1-5.91,3.61c-.87.46-1.76.85-2.63,1.29C371.91,515,370.06,515.2,371.11,515.56Z"/><path class="cls-3" d="M363.14,522s53,2,82-45C445.14,477,404.64,518.5,363.14,522Z"/><path class="cls-5" d="M226.14,503C206,516.42,195.59,539.77,190,562.46c6.45-.22,12.88-.72,19.35-.68,8.74,0,17.26.59,26-.59a128.4,128.4,0,0,0,42.57-14c2-1.07,5.6-2.34,7.1-4.08,2.24-2.6,2.65-9.18,3.34-12.61q1.33-6.63,2.18-13.35c.46-3.64,2.05-9.5.61-12.85C286.63,494,273,490.56,263,490.91,250,491.36,237.06,496.24,226.14,503Z"/><path class="cls-6" d="M299.14,501c-.88-5.26-7.55-8.79-11.94-10.66A46.33,46.33,0,0,0,267.14,487c-10.28.43-20.54,2.33-30,6.59-24.47,11.09-40.78,36-52.87,59-1.8,3.44-4.78,8.83.85,9.76a10,10,0,0,0,3.57.14c1.53-.42,1.3-.27,1.81-2.26s1.06-4,1.64-5.92c2.11-7.12,4.41-14.49,8.08-21,6.47-11.41,14.22-22.56,25.29-30a78.85,78.85,0,0,1,28.71-11.49c10.49-2,22.5-1.58,31.06,5.59a22,22,0,0,1,5.46,6.34c1.71,3.34.23,8.77-.23,12.5a183.52,183.52,0,0,1-5.22,26.5c3.45-2.18,7.89-4.72,10.08-8.31,1.82-3,2.33-7,2.85-10.33C299.41,516.82,300.38,508.43,299.14,501Z"/><path class="cls-2" d="M375,505.23c-9.94,29.46-30.63,52.55-56.12,69.84a295.36,295.36,0,0,1-50.11,27.4c-15.25,6.45-31.65,10.46-48.26,7.57-18.37-3.19-41.16-16.71-42.77-37.34,9.66,14.47,23.3,24.9,41.19,25.74a63.92,63.92,0,0,0,13.21-1,194.73,194.73,0,0,0,41.1-11.71c38.73-15.51,73.16-43.18,89.16-82.58,12.36-30.44,12.67-64.19,6.72-96.12,8.85,15.92,11.78,34.77,12,52.78C381.31,474.92,379.88,490.8,375,505.23Z"/><path class="cls-3" d="M382,464.63c-.18,18.88-3.41,38-11.31,55.26-8,17.54-20.78,32.4-35.52,44.68-16.2,13.5-34.65,24-53.5,33.36s-39.1,16.63-60.46,13.08c-19-3.15-42.07-17.06-43.41-38.32,2.26,22,27.22,35,46.91,37,23.88,2.4,45.7-8.58,66.11-19.5,21.17-11.32,41.81-24.54,57.9-42.61,15.16-17,25.44-37.23,29.41-59.76,4.64-26.3,3.45-56.7-9-80.8C379.08,424.36,382.14,444.87,382,464.63Z"/><path class="cls-7" d="M30.14,802c-6.39,16-4.81,33.63,5.47,47.58,4.82,6.55,10,12.06,18.43,11.6,9.81-.53,19.64-3.66,28.94-6.6,12.88-4.07,25.52-8.89,38-14.06,12.27-5.08,24.41-10.53,36.26-16.53,8.07-4.09,16.68-8.26,23.73-14,1.56-1.28,3.38-2.61,1-3.84-3-1.56-8.57-.46-11.71-.28-15.56.93-31,2.93-46.59,4.09-20.86,1.55-41.85,2.15-62.49-1.86-7.59-1.47-15-3.63-22.4-5.73C37.21,801.91,31.15,799.46,30.14,802Z"/><path class="cls-7" d="M48.14,651c-14.53,6.46-25.42,22.09-25.76,38.11-.11,5,.78,12.72,4.94,16.23,2.41,2,6.07,2.11,9.06,2,11.69-.53,23.44-5.16,34.29-9.14,14.55-5.34,28.84-11.38,43.18-17.26,13.24-5.43,26.52-11,40.22-15.18,1.6-.49,13.14-2.26,7.51-5.09-5.95-3-14.1-3.36-20.56-4.27-11.39-1.61-22.84-2.76-34.3-3.74-12.63-1.08-25.29-1.95-38-2.34-4.46-.14-8.92-.24-13.38-.1C53.12,650.24,50.25,650.06,48.14,651Z"/><path class="cls-7" d="M97.64,957.5c-4.15-1.19-13.26-3.88-16.21,1.11-2.26,3.82.91,9.35,2.93,12.55C89.3,979,97.92,988.28,108,987.4c12.58-1.1,25.21-5.14,37.22-8.81a399.07,399.07,0,0,0,50.93-19.19c13.68-6.33,28.64-13.63,39.25-24.64,3.39-3.52,4.44-6.94-1.5-7.11-8.6-.24-17.67,2.6-25.92,4.67-13,3.28-26,7-38.92,10.66s-26.1,7.36-39.29,10.5c-9.06,2.15-18.79,4.8-28.19,4.51A16.05,16.05,0,0,1,97.64,957.5Z"/><path class="cls-7" d="M98.14,460a306.14,306.14,0,0,1,42.24,16.34c11.54,5.59,23.44,12.2,32.26,21.7,4.88,5.25,11.45,14.81,7.61,22.31-3.11,6.07-11.84,7-17.83,7.44-22.22,1.58-44.7-3.53-66.79-5.26-11.52-.9-23.39-.19-34.7-2.9-6-1.43-11.95-4.53-9.59-11.56,1.56-4.66,5.11-8.74,8.28-12.37a196.16,196.16,0,0,0,15.82-20.46C81,467,86.53,456.37,98.14,460Z"/><path class="cls-7" d="M314.14,389c-15.36,4-24.68-13.2-20.79-26.43,3.07-10.45,12.69-10.13,21.61-10,30.85.27,62,4.18,92.29,9.75A404.74,404.74,0,0,1,462,375.9c15.24,5.08,30.56,11.34,43.64,20.82a74.87,74.87,0,0,1,7.84,6.48c.68.65,4.34,3.48,4.15,4.57-.26,1.47-3.94.16-4.89-.07-12.84-3.1-25.4-7.5-38.17-10.9-45.66-12.16-94.1-19.47-141.16-11.86Q323.69,386.51,314.14,389Z"/><path class="cls-7" d="M632.14,679c28.3,47.17,145,88,168,82S626.14,669,632.14,679Z"/><path class="cls-7" d="M556.14,882c27.3,41.86,125,89,148,81S541.14,859,556.14,882Z"/><path class="cls-7" d="M530,489c7.37,20.57,14.45,41.24,20.94,62.11,7.58,24.36,15.36,49.4,18.41,74.82.9,7.53,1,14.68-.74,22.07-1.86,7.93-4.11,15.77-6.47,23.56-5.51,18.22-11.38,36.89-20.16,53.84-1.81,3.49-5,11-9.44,12.06-4.66,1.09-5.7-7.06-6.18-10-2.21-13.7-1.38-28.11-.8-41.89a332.32,332.32,0,0,1,3.82-39.66c2.32-14.15,6.12-27.65,4-42.1-4.4-30.1-18-58.39-26.26-87.47-3.31-11.67-6.59-24-6.63-36.2,0-4.34.15-11.37,4.58-13.84,8.06-4.48,17.86,9.27,21.1,14.71A46.16,46.16,0,0,1,530,489Z"/></svg>