<svg xmlns="http://www.w3.org/2000/svg" viewBox="0 0 826.21 1096.88"><defs><style>.cls-1{fill:#fc9;}.cls-2{fill:#80664d;}.cls-3{fill:#bf9973;}.cls-4{fill:#ffebd6;}.cls-5{fill:#ffe0c2;}.cls-6{fill:#ffd6ad;}</style></defs><title>Hand</title><g id="Frame_10" data-name="Frame 10"><path class="cls-1" d="M821.62,740.76c-.59-5-3-5-7.35-6.68-5.41-2.06-10.7-4.53-16-6.8q-16.16-6.9-32.28-13.87-31.82-13.74-63.49-27.82c-21.1-9.4-42.2-18.86-62.95-29-5.1-2.5-10.2-5-15.23-7.67-3.83-2-10.2-4.4-13.06-7.82-2.14-2.55-3.06-7.6-4.26-10.67l-6.45-16.56c-4.17-10.72-8.32-21.45-12.37-32.22s-7.26-21.95-11.79-32.43c-1.77-4.09-5.89-7.61-9-10.84-3.53-3.71-7.18-7.31-11-10.7a129.31,129.31,0,0,0-25.89-17.9c-9.94-5.17-20.51-9-30.42-14.26-9.66-5.11-19.36-10.15-29.2-14.91-19.2-9.31-39-17.55-59.51-23.37-21.6-6.12-43-12.81-64.59-19-19.94-5.75-40.61-11.63-61.33-13.58-27.83-2.63-55.83,2.24-83.68,1.9-5.29-.06-10.59-.26-15.86-.74-5.45-.5-10.15-2.29-15.2-4.25-10.24-4-20.29-4.93-31.21-4.51-19.35.75-39,3.63-56.47,12.47-19.35,9.81-32,27.69-44.43,44.86-12.74,17.59-26.12,35.43-31.43,56.78s-8.32,44.14,4,63.71a86.13,86.13,0,0,0,9.61,12.53c1,1.1,2.92,2.28,3.62,3.55,1.09,2-.34,3-1.56,5.06-5.45,9.36-10.93,18.51-13.11,29.23C5.17,667.34,3.54,690.51,2.52,713c-.46,10.26-1.53,21.11.61,31.24,2.22,10.55,8.51,17.91,15.4,25.79,2.67,3.06-.4,8.18-1.33,11.69a165.59,165.59,0,0,0-3.63,16.73,97.24,97.24,0,0,0,.36,32.81c1.94,10.76,5,21.29,6.74,32.09s1.06,22,4,32.55a44.46,44.46,0,0,0,15.49,23.36,61.75,61.75,0,0,0,12.62,7.45c3.54,1.59,7.9,1.54,8.72,5.75.89,4.56,1,9.44,1.73,14.07A145.9,145.9,0,0,0,66.87,963c2.94,10.19,7.58,19.77,10.32,30,4.56,17,9.76,36.94,26.12,46.59,10,5.9,20.24,2.94,31.09,4.18,5.14.59,9.85,2.82,14.86,4a42.74,42.74,0,0,0,16.71.36c10.81-1.79,21.47-6,31.68-9.85,10.42-4,20.69-8.34,30.94-12.7,9.89-4.21,20-8.44,29.28-13.86,1.73-1,3.67-3.11,5.6-3.62s5,.75,7,.85a51.38,51.38,0,0,0,16.55-1.8c3.34-.94,6.44-3.69,9.76-2.2a45.59,45.59,0,0,0,13.88,4.23,62.48,62.48,0,0,0,13.9-.07c4.42-.48,9.37-2.77,13.6-1.39a32.19,32.19,0,0,0,13.91,1.18,38.55,38.55,0,0,0,7.28-1.6c2.47-.81,4.58-2.23,7.22-2.32,5.25-.17,10.52.33,15.81,0,5.8-.37,11.58-1.13,17.33-2,9.92-1.49,20.49-2.75,28.66-9,8.73-6.68,17.07-11.44,27.83-14.23s21.94-1.52,32.7,1c10.42,2.45,20.21,9.68,29.42,15,40,22.89,79.25,47.23,117.32,73.18q14.28,9.74,28.24,19.94c1.65,1.21,3.3,2.42,4.9,3.69.74.59,2.29,2.31,3.39,2.38s2.94-1.42,3.82-1.93c2.59-1.51,5.18-3,7.7-4.65,17.62-11.3,33.62-25.33,48-40.54a328.61,328.61,0,0,0,67.12-107.69c16.16-42.25,23.64-87.66,25.18-132.75A443.28,443.28,0,0,0,821.62,740.76Z"/><path class="cls-2" d="M314.71,176.52c14.39,0,27.42,9.71,40.46,15.37,17.08,7.41,32.73,17.34,48.73,26.77,16.26,9.59,32.1,20,49.62,27.22,15.64,6.41,34.29,10.79,46.71,22.85a79.41,79.41,0,0,1,14.68,20.1c4.12,7.89,6.91,16.37,11.13,24.23,18.16,33.82,28.71,71.43,36.17,108.91,7.85,39.38,12.15,79.38,15.12,119.39.37,4.93.19,10.07,1.45,14.87,1,4,2.8,7.75,4.25,11.59,3.57,9.47,7.06,19,10.69,28.43s7.23,18.68,10.86,28c2.69,6.91,3.95,15.48,10.47,19.76,7.55,5,16.36,8.57,24.47,12.53q13.55,6.63,27.27,12.91C685,677.86,703.25,686,721.56,694q27.9,12.29,55.91,24.32c9.25,4,18.52,7.9,27.74,11.93,4,1.73,8,3.15,12,4.83,2.75,1.16,4,2.55,4.4,5.63a429.71,429.71,0,0,1,2.57,54.3c-.67,66.18-14.53,133.05-47.28,191a310.67,310.67,0,0,1-61.26,77.34c-12.31,11.17-25.88,22.41-40.64,30.22a5.13,5.13,0,0,1-2.43.64c-2.92,0-5.34-2.75-7.77-4.69-3.32-2.65-6.81-5.08-10.26-7.55q-11.35-8.11-22.91-15.91-45.86-31-93.67-59c-7.81-4.6-15.69-9.1-23.52-13.68-7.23-4.23-14.58-9.05-22.53-11.84a63.84,63.84,0,0,0-21.1-3.54,64.7,64.7,0,0,0-28.58,6.59c-6.92,3.42-12.24,9.29-19.15,12.73s-15.06,4.36-22.74,5.49a179.09,179.09,0,0,1-25.95,2.38h-1.07c-1.8,0-3.41-.14-5-.14a15.7,15.7,0,0,0-6.49,1.2,35.89,35.89,0,0,1-11.35,2.72c-.56,0-1.11.06-1.66.06a44.49,44.49,0,0,1-9.54-1.42,16.59,16.59,0,0,0-3.55-.39,30.61,30.61,0,0,0-6.95,1,51.73,51.73,0,0,1-11.55,1.29,50.5,50.5,0,0,1-12.67-1.57c-3.22-.84-6.44-3.59-9.76-3.71h-.25c-3.56,0-7.12,2.75-10.55,3.53a47.52,47.52,0,0,1-10.43,1.17q-1.22,0-2.42-.07c-2.06-.11-4-.64-5.88-.64a7,7,0,0,0-3.73,1c-15.17,9-31.44,15.85-47.76,22.59-8.56,3.54-17.19,6.89-25.94,9.92-8.12,2.82-16.36,5.82-25,6.7a29.7,29.7,0,0,1-3,.15c-7.1,0-13.62-2.43-20.6-4a45.75,45.75,0,0,0-10.26-.95c-2.56,0-5.11.09-7.67.09a54.41,54.41,0,0,1-7.38-.42c-16.3-2.23-26.16-17.81-31.2-32.05C80.2,1004,78.4,996.43,76.09,989c-2.53-8.08-6-15.83-8.55-23.89A144.44,144.44,0,0,1,62,938.42c-.3-2.53.15-6.5-1.77-8.48-2.19-2.26-7-3-9.82-4.31-14.5-6.94-23.86-19.05-26.75-34.85-1.39-7.61-1.64-15.36-2.48-23-.93-8.46-3-16.74-4.77-25-3.9-17.83-5.22-34.5-1.3-52.47a117.93,117.93,0,0,1,3.45-12.73c1.33-3.91,1.31-5.94-1.52-9.08C11.5,762.25,6.79,756.11,4.4,748-.17,732.6,2.21,715,3.33,699.19c1.27-17.92,2.62-36.38,6.31-54,1.81-8.65,5.7-16.06,10-23.7,1.4-2.48,4.52-5.66,4.9-8.55s-2.94-4.57-4.67-6.52C8.4,593.54,1.57,578.42,2.42,561c.83-17.08,4.36-36.24,12.65-51.34C23.46,494.33,34.33,480,44.7,466c9.22-12.44,19-25,32.33-33.22C91.3,424,107.86,420,124.35,418.05a155.1,155.1,0,0,1,17.84-1.15c2.89,0,5.77.11,8.65.35,9.07.77,17,3.71,25.58,6.31,8.19,2.47,16.74,2.78,25.23,3q4.45.1,8.89.11c6.21,0,12.43-.18,18.63-.64,13.17-1,26.36-2.11,39.56-2.11,5.49,0,11,.2,16.47.68,18.2,1.6,36,6.48,53.55,11.34,8.65,2.39,17.25,5,25.84,7.56,4.07,1.23,8.1,2.6,12.15,3.86a16.58,16.58,0,0,0,3.95,1.07,1.13,1.13,0,0,0,.59-.13c.25-.16.4-1,.59-1.31,1.93-3.08,2.56-8,3.58-11.49,1.26-4.31,2.43-8.64,3.44-13a124.23,124.23,0,0,0,2.44-13.42c.11-1,0-9.93,1-9.93h0a188.09,188.09,0,0,1-25.72-11.29c-15.21-8-30.15-17.19-42.8-28.9C311,347,301.47,332.12,293.69,316.48a288.84,288.84,0,0,1-20.23-52.86c-4.62-17.12-5.92-35.18.3-52.08,5.32-14.47,16.42-28.8,31.63-33.58a30.84,30.84,0,0,1,9.32-1.43m0-3a34,34,0,0,0-10.22,1.57c-14.53,4.57-27.07,17.8-33.54,35.41-5.71,15.52-5.84,33.65-.38,53.9A290,290,0,0,0,291,317.81c9.3,18.7,19.09,32.46,30.82,43.31,11.14,10.31,24.94,19.63,43.45,29.36A193,193,0,0,0,388.71,401c0,.32-.06.62-.08.89-.15,1.77-.2,3.84-.23,5.35,0,.62,0,1.32,0,1.5A120.52,120.52,0,0,1,386,421.8c-.92,4-2,8.2-3.39,12.84-.33,1.11-.6,2.29-.89,3.54a28.7,28.7,0,0,1-2.19,6.93c-.47-.15-.94-.32-1.18-.4l-.68-.23c-1.72-.54-3.43-1.09-5.14-1.64-2.3-.74-4.67-1.51-7-2.23-8.23-2.49-17.06-5.13-25.91-7.58-16.57-4.59-35.36-9.78-54.09-11.43-5.28-.46-10.75-.69-16.74-.69-11.75,0-23.62.9-35.1,1.76l-4.68.35c-5.7.42-11.72.63-18.4.63-2.8,0-5.69,0-8.82-.11-8.9-.21-16.87-.56-24.43-2.85-1.54-.47-3.06-.94-4.56-1.41-7.13-2.24-13.86-4.35-21.63-5-2.84-.24-5.84-.36-8.91-.37A158,158,0,0,0,124,415.07c-19.78,2.29-35.66,7.26-48.54,15.19-13.56,8.35-23.43,20.84-33.17,34l-2.46,3.31c-9.62,13-19.56,26.34-27.4,40.62C3,525.48.13,546.36-.58,560.83c-.83,17.07,5.3,33.08,18.2,47.59a20.25,20.25,0,0,0,1.94,1.83c.87.75,2.07,1.79,2,2.3-.16,1.2-1.51,3.07-2.6,4.58A31.5,31.5,0,0,0,17,620c-4.35,7.72-8.41,15.41-10.32,24.55C2.92,662.64,1.55,681.94.34,699c-.16,2.21-.34,4.46-.52,6.73-1.17,14.45-2.38,29.38,1.71,43.18,2.48,8.37,7.11,14.67,13.31,21.55,1.88,2.09,2,2.89.91,6.11a119.33,119.33,0,0,0-3.54,13.05c-3.62,16.55-3.22,33.13,1.3,53.75q.43,2,.87,3.93a193.47,193.47,0,0,1,3.85,20.8c.28,2.57.5,5.22.71,7.78.42,5.06.86,10.3,1.8,15.46,3.07,16.79,12.9,29.59,28.41,37A31.18,31.18,0,0,0,53,929.76c2,.63,4.18,1.34,5.09,2.27.64.66.73,2.92.79,4.41,0,.82.06,1.59.15,2.34A146.35,146.35,0,0,0,64.68,966c1.28,4,2.79,8,4.25,11.86s3,8,4.29,12c.91,2.9,1.75,5.89,2.57,8.78,1.26,4.48,2.57,9.1,4.16,13.61,4.08,11.55,13.88,31.33,33.62,34a56.32,56.32,0,0,0,7.79.45c1.31,0,2.62,0,3.89,0s2.53,0,3.78,0a43.15,43.15,0,0,1,9.59.87c1.84.42,3.7.91,5.5,1.39,5,1.33,10.2,2.71,15.77,2.71a32.86,32.86,0,0,0,3.33-.17c8.44-.86,16.45-3.65,24.19-6.34l1.45-.5c8.16-2.83,16.7-6.1,26.1-10,18.27-7.55,33.41-14,48.15-22.78a4,4,0,0,1,2.19-.55,19.22,19.22,0,0,1,2.7.28c1,.14,1.94.29,3,.35.85,0,1.72.07,2.59.07a50.18,50.18,0,0,0,11.09-1.25,25.49,25.49,0,0,0,4.86-1.82,13.8,13.8,0,0,1,5-1.63h.14a12.5,12.5,0,0,1,4.48,1.67,23.34,23.34,0,0,0,4.63,1.94,53.2,53.2,0,0,0,13.42,1.67,54.5,54.5,0,0,0,12.23-1.36,28,28,0,0,1,6.27-1,13.61,13.61,0,0,1,2.92.32l.71.15a43.18,43.18,0,0,0,9.46,1.33c.63,0,1.27,0,1.89-.07a39,39,0,0,0,12.3-2.95,12.88,12.88,0,0,1,5.32-1c.76,0,1.55,0,2.4.06s1.64.06,2.54.07h1.1a183.44,183.44,0,0,0,26.38-2.41l2.38-.34c7.14-1,14.51-2.07,21.26-5.43a63.35,63.35,0,0,0,10-6.65,57.61,57.61,0,0,1,9.12-6.08,61.76,61.76,0,0,1,27.25-6.28,60.58,60.58,0,0,1,20.1,3.38c6.23,2.19,12.26,5.79,18.08,9.27,1.31.79,2.62,1.57,3.93,2.33q5,2.95,10.11,5.87c4.4,2.55,9,5.18,13.4,7.8,32.74,19.3,64.21,39.13,93.51,58.94,8.15,5.51,15.63,10.7,22.85,15.86l1.61,1.15c2.84,2,5.78,4.12,8.52,6.3.45.36.91.76,1.4,1.18,2.14,1.85,4.8,4.16,8.24,4.16a8.14,8.14,0,0,0,3.83-1c15.88-8.4,30.39-20.8,41.26-30.65a312.38,312.38,0,0,0,61.86-78.09c15.87-28.1,28-59.47,36-93.24a451,451,0,0,0,11.69-99.25,430.83,430.83,0,0,0-2.59-54.68c-.47-4-2.33-6.4-6.22-8-1.85-.78-3.74-1.52-5.57-2.22-2.12-.82-4.31-1.67-6.41-2.59-6.15-2.69-12.42-5.37-18.48-8l-9.28-4c-20.52-8.83-38.8-16.78-55.89-24.31-17.53-7.73-36.3-16-54.72-24.53-10-4.59-18.85-8.8-27.2-12.88-2.13-1-4.34-2.07-6.48-3.07a141.66,141.66,0,0,1-17.66-9.27c-4.15-2.72-5.81-7.83-7.56-13.25-.55-1.69-1.11-3.44-1.76-5.1-3.37-8.64-7.18-18.43-10.86-28-2.26-5.89-4.51-11.91-6.68-17.74q-2-5.34-4-10.68c-.44-1.17-.91-2.34-1.37-3.47a65.78,65.78,0,0,1-2.78-7.82,48.37,48.37,0,0,1-1.13-10.12c-.06-1.38-.12-2.81-.23-4.21-3.53-47.48-8.35-85.53-15.17-119.76-9-45.37-20.63-80.24-36.47-109.74-2.12-3.94-3.92-8.18-5.66-12.27-1.68-3.94-3.41-8-5.45-11.93a82.67,82.67,0,0,0-15.25-20.86c-9.91-9.62-23.25-14.45-36.15-19.12-4-1.46-7.82-2.83-11.51-4.35-13.68-5.61-26.63-13.43-39.16-21-3.29-2-6.7-4-10.08-6q-4.13-2.44-8.24-4.9c-13-7.78-26.5-15.83-40.82-22-3.56-1.54-7.08-3.38-10.81-5.32-9.72-5.06-19.76-10.3-30.85-10.3Z"/><path class="cls-3" d="M306.58,740.68c-4.6,8.34-10.36,17-18.88,21.74-6.12,3.42-13.61,5.26-20.34,7.11-19.89,5.47-40.3,9.18-60.63,12.51-24.17,4-48.49,6.92-72.82,9.7-16,1.83-32.19,3.68-48.35,3.73-17.15.06-33.76-2.67-48.86-11.32,12.9,2.76,25.76,4.88,39,5.23,24,.63,48.15-2.49,71.85-6.1,32.06-4.88,64.44-9.87,96.16-16.72,20.31-4.39,46.46-11,58.8-29.57,2.49-3.75,3.66-9,4.84-13.37a92,92,0,0,0,2.87-14.85,90.86,90.86,0,0,0-2.27-30.16c-4.83-20.29-15.72-37-26.35-54.56,14.54,14.88,27,32.24,32.68,52.48A85.1,85.1,0,0,1,306.58,740.68Z"/><path class="cls-2" d="M282.17,764.75c-16.19,6.94-33.6,10.4-50.79,13.88q-27.37,5.55-55,9.38-27.94,3.82-56,6.67c-18.19,1.82-36.7,3.37-54.86.47a79.55,79.55,0,0,1-26.92-9.28c-7.31-4.18-16.18-10.19-21.41-16.87,5.35,6.14,14,11.49,21.09,15.36a80,80,0,0,0,22.54,7.81c16.23,3.24,33,2.42,49.32.79,36.91-3.68,73.91-8.24,110.5-14.39C241.28,775.09,262.31,771.72,282.17,764.75Z"/><path class="cls-1" d="M607.57,631.92q-1.26-3.23-2.51-6.45Z"/><path class="cls-2" d="M206,487.14c-29.67-13.49-58.66-28.28-91.82-30.14C146.85,453.82,179.32,469.74,206,487.14Z"/><path class="cls-2" d="M173.14,439c12.05,9.79,21.07,26.37,21.42,42C189.3,465.87,181.88,452.38,173.14,439Z"/><path class="cls-2" d="M257.14,641c-14.73,4.5-30.49,3.45-45.61,2-16.66-1.58-33.2-4-49.77-6.37-16-2.25-32.11-4.41-48.31-4.44s-31.92,2-48-1c-15.08-2.74-30.87-8.49-41.28-20.24,19,18.78,48.77,21.08,74,19.15A242.62,242.62,0,0,1,149.36,632c17.55,2.33,35,5.38,52.53,7.79C220.07,642.28,239,645.29,257.14,641Z"/><path class="cls-3" d="M289.39,529.35c-9.6-24.7-23.67-55.34-52.65-60.9-10.38-2-21.07-.15-30.86,3.54,13-4.91,27.44-7.5,41.11-3.89,10.36,2.74,19.31,9,26.29,17,12.75,14.65,19.77,34.43,24.45,53,4.61,18.33,5.67,36.39-.42,54.43-5.11,15.14-11.39,29.85-24.27,40.09-15.1,12-34.55,11.8-52.84,10.2-21.35-1.87-42.47-5.41-63.68-8.39-11.71-1.65-23.52-3.3-35.35-3.72-11.44-.41-22.83,1.17-34.26,1.23-20.08.1-41.19-3.71-57.43-16.26.32-.38,16,5.41,17.83,5.85A130.89,130.89,0,0,0,67,624.63c13.37,1.14,26.8.65,40.19.16,12.88-.47,26-1.35,38.79.35s25.3,5.18,38,7.66c11,2.16,21.92,2.26,33,3.35,9.84,1,19.76,2.3,29.61.71,21.84-3.53,34.86-21.82,41.47-41.55C294.86,574.91,297.35,549.82,289.39,529.35Z"/><path class="cls-3" d="M304.59,789.21c-2-8.41-7.14-15.82-12.32-22.56,1.84,5.34,4.24,10.47,5.92,15.86a55.59,55.59,0,0,1,2.07,18A318.43,318.43,0,0,1,297.89,836c-.71,5.27-1.11,11.91-3.52,16.69a28.73,28.73,0,0,1-6.3,7.64c-4.85,4.45-10.79,7.45-16.82,10C254,877.5,236,882.56,219.21,891c-11,5.49-21.54,11.64-32.72,16.74a319.51,319.51,0,0,1-30.33,12c-19.71,6.66-40,11.15-60.42,15,15.79,1,30.55-1,45.89-4.6a265,265,0,0,0,52-17.72c9.1-4.3,17.71-9.52,26.88-13.69,9.75-4.43,19.75-8.26,29.7-12.21,9-3.57,18-7.18,26.39-12A49.47,49.47,0,0,0,295.78,855c5.26-9.27,7.7-19.91,9-30.4C306.17,813.1,307.25,800.59,304.59,789.21Z"/><path class="cls-2" d="M61.14,930c7,1.88,14.2,2.36,21.34,3,7.66.66,15.36,1.22,23.06,1.14,14.42-.15,28.57-3.35,42.44-7a276.77,276.77,0,0,0,41.55-14.37c13.15-5.86,25.59-13.2,39-18.61,15.1-6.12,30.71-11,45.41-18.07-12.66,7.29-26.43,12.31-39.84,18S208.12,907,195,913.32a242.69,242.69,0,0,1-40.81,15c-14.27,4-28.88,7.55-43.77,7.83a175.33,175.33,0,0,1-24.88-1.65C77.36,933.53,69,932.56,61.14,930Z"/><path class="cls-3" d="M295.9,963.14c-4.5,9.76-9.19,19.64-15.43,28.43A66.93,66.93,0,0,1,264,1007.5c-8.71,6.2-18.43,10.62-28.22,14.94Q214.17,1032,192,1040.08c-13.13,4.81-27.27,10.7-41.48,8-8.17-1.57-14.7-4.85-23.29-4.38-10.95.6-20.6-.33-29.26-7.95,5.68,1.54,11.34,3.66,17.22,4.31,9,1,18.11.33,27.11.5,6.91.13,14.13,2.14,21,1.29a67,67,0,0,0,13.13-3.54c9.56-3.26,19-7,28.4-10.59,23.69-9.14,46.87-19.34,66.53-35.75C280.9,984,290.28,974.41,295.9,963.14Z"/><path class="cls-3" d="M611.64,664.5s-35,76-76,111C535.64,775.5,598.64,734.5,611.64,664.5Z"/><path class="cls-3" d="M440.64,985.29c-6.91,3.14-11.58,9.74-18.5,12.71-5.3,2.28-11.45,3.11-17.09,4.07a201.66,201.66,0,0,1-27.43,3.11c-4.45.14-9.8-1-14,.49-7.21,2.53-14.21,4.36-21.9,3-1.64-.29-3.24-1.07-4.86-1.33-2.59-.42-5.46.77-8.15,1.2-11.16,1.8-21.65,1-32-3.51-.47-.21-1.14-1-1.64-1-1.71-.22-5.54,2.37-7.44,2.93a49.3,49.3,0,0,1-7.07,1.54,48.49,48.49,0,0,1-17.49-.47c16.73-10,25.34-28.64,33.16-45.71,4.5-9.82,7.42-19,6.26-30-1.14-10.78-5.24-21.1-10.41-30.55A139.44,139.44,0,0,0,273.88,876c7.21-3.84,14.17-8.31,18.31-15.55,6.06,18,12.29,35.72,22.27,52a145.71,145.71,0,0,0,62.17,55.69C396.72,977.65,418.61,982.88,440.64,985.29Z"/><path class="cls-3" d="M663.14,693s3,63-36,172C627.14,865,680.14,747,663.14,693Z"/><path class="cls-3" d="M632.14,679c4.56,19.42,2.76,41-2.19,60.17A111.6,111.6,0,0,1,611.14,779C626.54,747.91,633.08,713.61,632.14,679Z"/><path class="cls-3" d="M314.14,742c13.46,22.84,36.85,41.53,59.53,54.62,13.59,7.84,28.23,13.86,43.67,16.83,16.69,3.21,33.28,2.29,49.8-1.46-29.16,14.32-63.31,9.82-91.29-5a151.32,151.32,0,0,1-36.08-26.87C329.33,769.62,318.22,756.5,314.14,742Z"/><path class="cls-3" d="M531.14,856c-13.06,31.65-28.65,63.95-29,99-3.39-17.29.82-36.81,6.37-53.24A190.88,190.88,0,0,1,531.14,856Z"/><path class="cls-3" d="M29.14,714c-1,15.63-3.37,31.45,0,47C22.66,747.15,25,728.16,29.14,714Z"/><path class="cls-3" d="M55.14,720c-1,15.37-2.2,31.7,0,47-2.7-7.31-2.93-15.78-2.89-23.49A88.3,88.3,0,0,1,55.14,720Z"/><path class="cls-3" d="M45.14,711c-1.58,11.17-2,22.53-2.42,33.79-.32,8-.93,16.2-.58,24.21-2.14-9.28-1.64-19.69-1.21-29.14C41.36,730.23,42.17,720.22,45.14,711Z"/><path class="cls-3" d="M30.14,529c-1.77,21-4.44,41.81-4,63C22.45,571.53,25,549,30.14,529Z"/><path class="cls-3" d="M51.14,529c-1.73,11.44-3.32,22.9-4.47,34.42S44.23,586.55,45.14,598c-2.44-11.28-1.6-23.39-.46-34.79A190.64,190.64,0,0,1,51.14,529Z"/><path class="cls-3" d="M41.14,856a161.37,161.37,0,0,0,1.52,24.75c1.3,8.17,4.41,16.09,5.48,24.25-2.86-8-6.11-15.47-7.46-23.94A71.72,71.72,0,0,1,41.14,856Z"/><path class="cls-3" d="M53.14,860c1,16.57,4.62,32.79,8,49C54.86,894.23,50.92,876,53.14,860Z"/><path class="cls-3" d="M96.14,983c4.69,15,7.53,31,15,45-5.17-5.91-8.11-14.13-10.4-21.52A110.07,110.07,0,0,1,96.14,983Z"/><path class="cls-3" d="M111.14,983a229.8,229.8,0,0,1,7.84,22.27c1.76,5.54,3.15,11.73,6.16,16.73-4.6-4.5-6.77-12.18-8.68-18.1A154.72,154.72,0,0,1,111.14,983Z"/><path class="cls-1" d="M391.68,399c.85,9.92-1.85,20.29-4.37,29.79-3.37,12.75-7.67,25.25-12.25,37.61q-6.44,17.35-13.75,34.37c-2.84,6.66-6.35,13.18-8.93,19.93-1.73,4.53,1,10.77,3.1,15,3.41,6.85,8.56,12.73,14.2,17.83,14.23,12.86,32.06,21.68,49.86,28.46a260.2,260.2,0,0,0,63.64,15.42c19.24,2.14,39.46,2.39,58.27-2.78,14-3.86,28.16-11.58,33.87-25.72,2.95-7.3,2.89-14.81,2.31-22.52-.78-10.33-1.55-20.67-2.46-31-5.62-63.23-15.05-128.76-41.54-187-3.31-7.28-6.93-14.43-10.93-21.37-16.82,11.75-32.66,25-48.94,37.51C453,360.43,432.17,376.69,410,390.66a104.29,104.29,0,0,1-11.78,6.69C396.53,398.13,393.64,399.73,391.68,399Z"/><path class="cls-1" d="M464.2,400.66a122.28,122.28,0,0,0,31.72-16.85,109.33,109.33,0,0,0,13.25-11.61c4-4.11,9.18-8.82,10.1-14.55,2.18-13.5,7.33-27,5.35-40.79-1.85-12.88-7.24-25.24-14.52-36-7.45-11-16.21-18.56-28.45-23.7-12-5-24.16-9.4-36-14.66-12.42-5.53-23.52-13.46-35.33-20.12-12.59-7.1-24.91-14.65-37.38-21.95a147.29,147.29,0,0,0-17.81-8.58c-6.19-2.59-12-6-18-9-12.46-6.14-25.14-9.4-38-2.33-21.79,12-31.09,38-29.56,61.77.83,12.89,4.73,25.31,9,37.44A317.45,317.45,0,0,0,294,317c5.89,11.75,12.77,23.54,21.43,33.49A144.75,144.75,0,0,0,332,366.21c10.66,8.84,23.9,16.1,36.19,22.43,23.37,12,49.82,20.4,76.35,16.88A90.76,90.76,0,0,0,464.2,400.66Z"/><path class="cls-2" d="M272,254c.89,6.56,4.05,13.53,6.09,19.82,2.31,7.14,4.77,14.24,7.56,21.21a331.37,331.37,0,0,1-13.14-41.62c0-.15-.65.89-.34,0Q271.8,253.47,272,254Z"/><path class="cls-2" d="M271.92,253.44c-3.12-15.55-2.16-32.39,4.24-47,5.89-13.48,17.65-26.25,32.5-29.49,16.9-3.69,31.85,8.79,46.51,15,16.22,6.82,30.83,16.46,46,25.28,17.48,10.14,35.29,19.8,53.91,27.71a90.83,90.83,0,0,1-24.52-8.34C421.79,232,413.22,227,404.7,222c-15.6-9.24-30.7-20.46-47.64-27.14-14.45-5.69-28.75-18.45-45.16-16.77-15.65,1.61-28.43,15.5-34.77,29a68.1,68.1,0,0,0-6.22,27.19,70.61,70.61,0,0,0,.7,12.3C271.8,247.82,273.22,252.68,271.92,253.44Z"/><path class="cls-3" d="M440,397.21c-34.32-2.76-66.75-14.09-93.36-36.27a164.48,164.48,0,0,1-32.75-36.59c-5.05-7.79-8.44-16.56-13.5-24.26a170.67,170.67,0,0,1-12-21.71,206.37,206.37,0,0,1-16.67-56.51c-3.8,20,1.89,40.14,8.41,58.91,6.15,17.71,13.77,35.27,23.72,51.2,19.56,31.32,49.61,55.37,85.59,64.49,20.53,5.2,42.9,7.72,63.49,1.43Q446.48,397.72,440,397.21Z"/><path class="cls-2" d="M393.89,398.38c-19.77-4.42-38.81-12.36-54.76-25a160,160,0,0,1-38.85-44.69c-10.86-18.58-18.94-38.91-25.19-59.47-6-19.88-8.65-41.8.11-61.32,7.11-15.84,22.12-32.1,41-30.81-19.7-.57-34.25,17.41-40.54,34.29-9,24.18-1.2,49.68,7.39,72.74,8.52,22.86,18.69,45.47,34.49,64.31,14.71,17.54,32.88,32.42,54.17,41.16,25.16,10.32,54.58,15.52,81.25,8.29C433.85,404,413.2,402.69,393.89,398.38Z"/><path class="cls-4" d="M389.38,220.51c-21-13.4-44.32-23.19-67.48-32.16,7.84,9.6,14.68,19,24.29,27,5,4.1,10.12,8,15.4,11.64,6.08,4.25,12,6.9,19,9.52,3.82,1.44,33,14.82,33.77,6.93.33-3.49-5.28-7.83-7.49-9.82A145.43,145.43,0,0,0,389.38,220.51Z"/><path class="cls-5" d="M413.18,250.1c4.33,1.12,8.18-.73,5.93-5.37-1.27-2.63-3.67-5-5.71-7a103.42,103.42,0,0,0-16.77-13.48C376.86,211,355,201,333.47,190.86c-2.89-1.36-5.77-2.74-8.72-3.94-.61-.25-3.16-1.65-3.86-1.23-2.78,1.67,9.19,5.88,9.72,6.09,24.42,9.79,49.37,20.7,70.3,36.9,2.17,1.68,19.64,15,10.8,17.14-6.1,1.46-14.21-3.17-19.79-5.16q-11.43-4.1-22.73-8.56C382.48,240.74,397.87,246.15,413.18,250.1Z"/><path class="cls-2" d="M396.32,403.57c18.37,13.21,40.44,19.77,63,17,15.1-1.88,29.18-7.58,42.57-14.59-10.68,4.78-22.54,7.49-34.08,9a131.89,131.89,0,0,1-34.71.14,117.79,117.79,0,0,1-18.74-4c-3.5-1.06-7-2.3-10.34-3.7C402,406.53,397.37,405.36,396.32,403.57Z"/><path class="cls-2" d="M396.33,402.53c32,12.13,74.14,8.36,98.15-18.38A138.79,138.79,0,0,1,465,398.72a98.86,98.86,0,0,1-28.08,6.14,62.31,62.31,0,0,1-14.38-.8c-2.8-.5-5.34-1.43-8.17-1.5C408.38,402.39,402.34,402.54,396.33,402.53Z"/><path class="cls-6" d="M30.14,802c-6.39,16-4.81,33.63,5.47,47.58,4.82,6.55,10,12.06,18.43,11.6,9.81-.53,19.64-3.66,28.94-6.6,12.88-4.07,25.52-8.89,38-14.06,12.27-5.08,24.41-10.53,36.26-16.53,8.07-4.09,16.68-8.26,23.73-14,1.56-1.28,3.38-2.61,1-3.84-3-1.56-8.57-.46-11.71-.28-15.56.93-31,2.93-46.59,4.09-20.86,1.55-41.85,2.15-62.49-1.86-7.59-1.47-15-3.63-22.4-5.73C37.21,801.91,31.15,799.46,30.14,802Z"/><path class="cls-6" d="M48.14,651c-14.53,6.46-25.42,22.09-25.76,38.11-.11,5,.78,12.72,4.94,16.23,2.41,2,6.07,2.11,9.06,2,11.69-.53,23.44-5.16,34.29-9.14,14.55-5.34,28.84-11.38,43.18-17.26,13.24-5.43,26.52-11,40.22-15.18,1.6-.49,13.14-2.26,7.51-5.09-5.95-3-14.1-3.36-20.56-4.27-11.39-1.61-22.84-2.76-34.3-3.74-12.63-1.08-25.29-1.95-38-2.34-4.46-.14-8.92-.24-13.38-.1C53.12,650.24,50.25,650.06,48.14,651Z"/><path class="cls-6" d="M97.64,957.5c-4.15-1.19-13.26-3.88-16.21,1.11-2.26,3.82.91,9.35,2.93,12.55C89.3,979,97.92,988.28,108,987.4c12.58-1.1,25.21-5.14,37.22-8.81a399.07,399.07,0,0,0,50.93-19.19c13.68-6.33,28.64-13.63,39.25-24.64,3.39-3.52,4.44-6.94-1.5-7.11-8.6-.24-17.67,2.6-25.92,4.67-13,3.28-26,7-38.92,10.66s-26.1,7.36-39.29,10.5c-9.06,2.15-18.79,4.8-28.19,4.51A16.05,16.05,0,0,1,97.64,957.5Z"/><path class="cls-6" d="M98.14,460c9,2.81,18.22,5,27.13,8.07,5.84,2,11.63,4.69,15.57,9.64,4.76,6,6.41,14,7.56,21.34s3.57,17.81-3.75,22.72c-6.79,4.56-17.13,3.24-24.78,2.69-12.41-.89-24.74-2.11-37.18-2.58-8.7-.33-19.87,0-27.75-4.38-5.61-3.13-4.57-8.48-1.71-13.32,3-5.11,7.29-9.29,11.08-13.8a195.85,195.85,0,0,0,13-17.91C82.39,464.78,87.77,456.76,98.14,460Z"/><path class="cls-6" d="M445.78,261.26C434.6,239.82,514.68,271,500.17,306,494.76,319.1,469.95,307.62,445.78,261.26Z"/><path class="cls-6" d="M632.14,679c28.3,47.17,145,88,168,82S626.14,669,632.14,679Z"/><path class="cls-6" d="M556.14,882c27.3,41.86,125,89,148,81S541.14,859,556.14,882Z"/><path class="cls-6" d="M373.53,569c-5.64,28-43.6,156-44.33,56C328.88,581,379.18,541,373.53,569Z"/></g></svg>