<svg xmlns="http://www.w3.org/2000/svg" viewBox="0 0 840 1096.88"><defs><style>.cls-1{fill:#fc9;}.cls-2{fill:#80664d;}.cls-3{fill:#bf9973;}.cls-4{fill:#ffebd6;}.cls-5{fill:#ffe0c2;}.cls-6{fill:#ffd6ad;}</style></defs><title>Hand</title><g id="Frame_4" data-name="Frame 4"><path class="cls-1" d="M799,956c-17.26,38.66-41.48,74.44-72.31,103.57a268.91,268.91,0,0,1-26.17,21.85q-6.73,4.91-13.83,9.26c-2.84,1.74-6.08,5.42-9.4,3.28-4.45-2.87-8.51-6.81-12.8-10q-7.22-5.32-14.63-10.37c-9.64-6.61-19.46-13-29.26-19.35q-29.94-19.51-60.54-38-15.27-9.23-30.71-18.18c-9.5-5.49-19.23-12.29-29.53-16.15-21-7.89-43.4-3.21-61.29,9.52-3.7,2.63-7.16,5.27-11.42,7a70.87,70.87,0,0,1-15.54,3.79c-11,1.7-22.37,3.47-33.58,2.95-5.43-.25-9.14.93-14.32,2.52a29.22,29.22,0,0,1-16.65.44c-5.58-1.6-9.73-.13-15.36.8a50.86,50.86,0,0,1-16.69-.14,39,39,0,0,1-7.61-2.06c-1.83-.72-3.86-2.51-5.86-2.56s-4.31,1.84-6.12,2.5a40,40,0,0,1-9,1.93,48.84,48.84,0,0,1-9.12.18c-2.1-.15-4.61-.95-6.67-.53-1.66.34-3.13,1.76-4.53,2.64-2.82,1.78-5.86,3.23-8.83,4.74-20.85,10.57-42.58,19.22-64.63,26.91-10.53,3.67-21.91,7.59-33.22,5.76-5.17-.84-10-3-15.09-4.05-5.5-1.12-11-.47-16.59-.52-22.58-.17-34.35-19.11-40.38-38.64-3.49-11.28-6.75-22.47-10.63-33.63a144.93,144.93,0,0,1-7.51-32.77c-.44-4.16-.24-8.21-4.42-10.25s-8.66-3.24-12.8-5.81c-8.6-5.34-15.44-12.93-19-22.5-3.78-10.26-3.62-21.27-5-32-1.49-11.44-4.38-22.56-6.57-33.86a104.88,104.88,0,0,1-1.1-35.49,132.82,132.82,0,0,1,3.1-15.08c1.26-4.75,5-10.57,1.27-14.76-7-7.8-12.93-15.2-14.85-25.85-2-10.85-.82-22.36-.3-33.3.56-11.95,1.46-23.88,2.79-35.76,1.29-11.49,2.32-23.64,5.6-34.76,1.54-5.23,4.17-10.05,6.84-14.78,1.09-1.94,2.14-3.92,3.35-5.79,1.09-1.68,3.19-3.65,3.47-5.71.44-3.3-5.78-7.69-7.86-10.25a70.57,70.57,0,0,1-9.3-14.56c-9.19-19.71-5-44,1.62-64,6.89-20.88,21.5-39.24,34.41-56.72,12.13-16.43,25.48-32.2,44.65-40.49,19.81-8.57,43.47-11.68,64.93-9.89,10.93.91,20.12,6.73,30.74,8.57s21.78.83,32.52.63c3.31-.06,9.42,1.5,11.9-1.36,2.25-2.6,2.21-7.46,3-10.67,2.67-10.67,4.41-21.86,10-31.48,9.63-16.46,27.15-28.63,45.11-34.37,10.92-3.49,22-2.09,33.2-1.31,12,.85,24.11.63,36.17.34s24-.63,35.91.87,23.57,4.54,35.18,7.45c22.42,5.62,45,12.17,65.79,22.37,16.76,8.21,31.1,20.47,40.88,36.45,11.67,19.08,17.42,41.15,22.45,62.74,10.67,45.8,26.39,89.9,43.38,133.68q3.14,8.1,6.31,16.2c1.61,4.14,2.61,9.2,5.16,12.87,2.72,3.91,8.6,6.41,12.67,8.61,4.89,2.63,9.91,5,14.92,7.37q33.28,15.78,66.91,30.77Q745.56,701.67,779,716q16.39,7.07,32.81,14.06c4.43,1.89,9.51,3.24,13.77,5.39s3.39,9.16,3.78,13.32a454,454,0,0,1-9.09,142.48A346.13,346.13,0,0,1,799,956Z"/><path class="cls-2" d="M313.47,740.68c-3.82,6.92-8.25,13.81-14.5,18.79-6.72,5.34-15.24,7.49-23.36,9.7a580.82,580.82,0,0,1-57.17,12.08c-19.32,3.23-38.73,5.87-58.18,8.22s-38.68,4.94-58.12,5.78c-20.18.87-40.69-.85-58.56-11.09,28,6,55.6,6.11,84,2.81s56.58-8,84.66-13c23.31-4.1,48.17-7.45,70.15-16.67,9.25-3.88,18.19-9.22,24.58-17.1,7.31-9,9.66-23.35,10.35-34.65,1.87-30.64-13.66-56.34-28.88-81.54,14.66,15,27.3,32.72,32.87,53.18A85.66,85.66,0,0,1,313.47,740.68Z"/><path class="cls-2" d="M289.06,764.75c-16.2,6.95-33.59,10.41-50.79,13.88-18.25,3.69-36.6,6.85-55,9.38q-27.94,3.83-56,6.67c-18.43,1.84-37.22,3.46-55.61.34C54.35,792.1,35.07,783.09,24,769c10.39,11.91,27,19.61,42.18,22.87,17.53,3.77,35.56,2.62,53.26.84,37.19-3.75,74.26-8.47,111.12-14.66C250.3,774.74,270.14,771.39,289.06,764.75Z"/><path class="cls-1" d="M236.94,419.13c.17-.65.36-1.34.56-2.07C237.32,417.75,237.13,418.44,236.94,419.13Z"/><path class="cls-1" d="M237.5,417.06c.27-1,.54-2,.79-2.93C238,415.17,237.75,416.14,237.5,417.06Z"/><path class="cls-1" d="M244,392a34.76,34.76,0,0,1,5.17-10.8c-3.16,4.69-5,10.13-6.37,15.56Z"/><path class="cls-1" d="M331.11,347.45l2.07.09Q332.15,347.51,331.11,347.45Z"/><path class="cls-1" d="M397,348c2.54.47,5.09.93,7.63,1.42a111.47,111.47,0,0,0-20.72-2C388.31,347.39,392.72,347.21,397,348Z"/><path class="cls-1" d="M531,401a124.68,124.68,0,0,1,7.26,10.16,83.86,83.86,0,0,0-22.21-23.42A65.81,65.81,0,0,1,531,401Z"/><path class="cls-1" d="M543.39,419.78q1.2,2.19,2.29,4.4C544.94,422.7,544.18,421.24,543.39,419.78Z"/><path class="cls-1" d="M546.4,425.66C560.15,454,564.11,484.86,571,511,563.21,482.33,559.35,452.6,546.4,425.66Z"/><path class="cls-1" d="M574.28,522.12c5.85,18.66,15.73,45.69,24.62,69.27C590.24,568.49,581.51,545.52,574.28,522.12Z"/><path class="cls-1" d="M614.46,631.92q-1.26-3.23-2.51-6.45Z"/><path class="cls-2" d="M212.85,487.14C183.18,473.65,154.19,458.87,121,457,153.74,453.82,186.22,469.74,212.85,487.14Z"/><path class="cls-2" d="M180,439c12.05,9.79,21.07,26.37,21.42,42C196.19,465.87,188.78,452.38,180,439Z"/><path class="cls-2" d="M264,641c-15,4.58-31,3.43-46.42,1.94-16.38-1.58-32.67-4-49-6.29-16.55-2.33-33.18-4.53-49.92-4.43C102.8,632.3,86.84,634,71.06,631c-14.72-2.82-29.86-8.53-40-20,19.2,19,48.52,20.95,74,19.15,34.51-2.43,68.15,4.64,102.14,9.4C225.87,642.17,245.32,645.43,264,641Z"/><path class="cls-2" d="M296.29,529.35c-6.43-16.54-13.84-33.72-26.56-46.48-15.51-15.57-36.65-18.54-57-10.88,14.84-5.6,31.7-8.12,46.79-2,13.65,5.54,23.66,17,30.7,29.62,7.32,13.12,12,27.8,15.29,42.41,3.75,16.78,4.09,34-1.35,50.5-4.44,13.45-10.27,27-20.7,37-11,10.44-25.4,14-40.19,14.09-34.31.29-68.34-8.67-102.36-12-19-1.86-37.81,1.27-56.8.07-16.94-1.07-34.17-5.46-47.79-16,.94-1.13,14.2,4.67,15.9,5.23,10.36,3.42,22,4,32.82,4.32,27,.72,53.72-3.34,80.46,2.1,13.12,2.67,26,6.17,39.38,7.35,12.76,1.12,25.83,2.95,38.64,2.92,22.05-.05,38.25-12.95,47.41-32.43C301.62,582.54,305.5,553.06,296.29,529.35Z"/><path class="cls-2" d="M311.49,789.21c-2-8.47-7.11-15.78-12.32-22.56,3.3,9.57,7.52,18.2,7.94,28.51a240.69,240.69,0,0,1-1.25,31.22c-.74,8.25-.74,18.82-4.59,26.34-4,7.88-12.75,13-20.55,16.49-18.4,8.24-38,13.37-56,22.5s-35.34,18.53-54.29,25.45c-22,8-44.8,13.25-67.75,17.61,19.72,1.26,39.14-2.46,58.06-7.73a267.25,267.25,0,0,0,53.93-21.85c17.11-9.09,35.29-15.39,53.07-23,15.85-6.74,29.39-15,37-31.07,4.37-9.28,6.2-19.44,7.35-29.56C313.23,810.87,314,799.8,311.49,789.21Z"/><path class="cls-2" d="M68,930c13.71,3.71,29.43,4.2,43.57,4.12,15-.08,29.64-3.39,44-7.26a274.89,274.89,0,0,0,40.79-14.17c12.91-5.77,25.16-12.92,38.24-18.32,15.3-6.31,31.19-11.17,46.12-18.36-12.67,7.29-26.44,12.28-39.84,18-13.11,5.62-25.5,12.69-38.31,18.94a243.56,243.56,0,0,1-40.76,15.17c-14.26,4-28.84,7.62-43.72,8a173.34,173.34,0,0,1-25.68-1.63C84.25,933.54,75.94,932.56,68,930Z"/><path class="cls-3" d="M302.79,963.14c-6.25,13.55-12.75,27.81-24,38s-25.31,16.55-39.15,22.59c-15.28,6.67-30.81,12.69-46.46,18.43-7.19,2.63-14.51,5.18-22.14,6.15S156.5,1048,149.2,1046a53.61,53.61,0,0,0-12.14-2.34c-3.86-.16-7.7.3-11.57.06-7.65-.46-14.83-2.88-20.65-8,7.08,1.92,13.8,4.18,21.19,4.65,7.71.49,15.43-.07,23.14.17,7.52.23,15,2.32,22.5,1.07,7.32-1.22,14.48-4.24,21.41-6.8,27-10,54.84-20.2,78.21-37.42C283.68,988.25,295.85,977.08,302.79,963.14Z"/><path class="cls-1" d="M241.77,400.91c.29-1.16.58-2.31.88-3.45Z"/><path class="cls-1" d="M283.39,352.61c-13.5,6.63-25.91,17.07-33.2,27.17C258.46,368.18,270.63,358.82,283.39,352.61Z"/><path class="cls-1" d="M289.21,350a63.47,63.47,0,0,1,11.43-3.44A65.65,65.65,0,0,0,289.21,350Z"/><path class="cls-1" d="M300.64,346.58c1.18-.24,2.37-.43,3.57-.58C303,346.15,301.84,346.35,300.64,346.58Z"/><path class="cls-1" d="M311.11,345.66c6.7.12,13.31,1.41,20,1.79C324.44,347.12,317.77,345.86,311.11,345.66Z"/><path class="cls-1" d="M377.57,347.47c-9.58.16-21.27.49-32.94.36C355.61,347.93,366.59,347.61,377.57,347.47Z"/><path class="cls-1" d="M405.13,349.51l1.16.23Q404,349.31,405.13,349.51Z"/><path class="cls-1" d="M464.8,364.62c-1.31-.43-2.63-.84-3.94-1.25Z"/><path class="cls-1" d="M460.86,363.37c-16.8-5.24-33.12-9.13-45.19-11.71C430.89,354.88,446,358.69,460.86,363.37Z"/><path class="cls-1" d="M412.06,350.9l3.61.76Z"/><path class="cls-1" d="M481.46,370.5a186.89,186.89,0,0,1,28.12,13.15A196.5,196.5,0,0,0,481.46,370.5Z"/><path class="cls-3" d="M618.53,664.5s-35,76-76,111C542.53,775.5,605.53,734.5,618.53,664.5Z"/><path class="cls-3" d="M447.53,985.29c-5,2.27-8.78,6.35-13.16,9.54-4.77,3.48-10.2,5-15.94,6.13-13.29,2.5-26.74,4.51-40.28,4-6.29-.24-11.58,2.42-17.66,3.54a34,34,0,0,1-9.57.46c-2.86-.29-5.6-1.73-8.46-1.73s-5.6,1.12-8.35,1.52a62.39,62.39,0,0,1-10.42.65,53.16,53.16,0,0,1-17.92-3.52c-3.12-1.21-3.77-2.33-6.93-.93a38.69,38.69,0,0,1-7.06,2.73A48.9,48.9,0,0,1,270,1008c10.31-6.19,17.73-15.92,23.56-26.26,5.73-10.15,11.58-21.38,14.53-32.69,6.87-26.38-10.49-54.14-27.35-73,7.12-3.79,14.21-8.38,18.31-15.55,8.77,26,18.81,51.37,37.22,72.24,17,19.26,38.82,33.36,63,41.92A213.89,213.89,0,0,0,447.53,985.29Z"/><path class="cls-3" d="M670,693s3,63-36,172C634,865,687,747,670,693Z"/><path class="cls-3" d="M639,679c7.74,33-.43,73-21,100C633.35,748.07,640,713.4,639,679Z"/><path class="cls-3" d="M321,742c14.15,24,37.5,42.31,61.51,55.75C410.9,813.62,442.17,819.23,474,812c-45.95,22.56-98.64-1.39-131.18-35.83C333.61,766.39,324.73,755.16,321,742Z"/><path class="cls-3" d="M538,856c-13.09,31.74-28.65,64-29,99-3.35-17.06.41-35,5.71-51.23A191.94,191.94,0,0,1,538,856Z"/><path class="cls-3" d="M36,714c-1,15.63-3.37,31.45,0,47C29.56,747.15,31.91,728.16,36,714Z"/><path class="cls-3" d="M62,720c-1.05,15.61-2.24,31.43,0,47-2.67-7.23-2.92-15.14-2.89-22.77C59.18,736.08,59.8,727.87,62,720Z"/><path class="cls-3" d="M52,711a290.19,290.19,0,0,0-2.23,29c-.39,9.66-1.19,19.38-.77,29-2.19-9.52-1.66-19.46-1.21-29.14S49,720.31,52,711Z"/><path class="cls-3" d="M37,529c-1.77,21-4.44,41.81-4,63C29.35,571.53,31.92,549,37,529Z"/><path class="cls-3" d="M58,529c-1.77,11.7-3.36,23.42-4.55,35.19C52.35,575.41,51.14,586.72,52,598c-2.42-11.17-1.65-22.76-.53-34A193.24,193.24,0,0,1,58,529Z"/><path class="cls-3" d="M48,856c0,8.26.18,16.58,1.52,24.75s4.4,16,5.48,24.25c-2.73-7.64-5.93-15.16-7.33-23.2A71.32,71.32,0,0,1,48,856Z"/><path class="cls-3" d="M60,860c1,16.57,4.62,32.79,8,49C61.76,894.23,57.82,876,60,860Z"/><path class="cls-3" d="M103,983c4.71,15.08,7.51,30.93,15,45-4.87-5.57-7.57-12.72-9.81-19.66A113,113,0,0,1,103,983Z"/><path class="cls-3" d="M118,983a210.8,210.8,0,0,1,7.36,20.77c1.93,6.12,3.3,12.68,6.64,18.23-4.56-4.46-6.43-11.08-8.32-17A165.3,165.3,0,0,1,118,983Z"/><path class="cls-2" d="M319.75,301.39q1.3,0,2.59.06c11.72.54,22.76,5,34,8,22.52,6,46.06,7.88,67.92,16.37s42.7,19.43,62.65,31.61c18,11,35.38,23.61,47.08,41.44s18.42,38.68,24.13,59.15c6.59,23.61,11.3,47.72,18.51,71.16s15.92,46.11,24.71,68.85c4.33,11.2,9,22.27,13.16,33.55,1.41,3.85,2.51,8,5.67,10.81,3.74,3.35,9.24,5.51,13.67,7.81,21.77,11.3,44.21,21.31,66.6,31.33q33.83,15.15,67.87,29.84c11.52,5,23.08,9.89,34.61,14.88,5.79,2.51,11.51,5.19,17.41,7.44,3.67,1.4,7.68,2.46,8.22,7a446.37,446.37,0,0,1,2,72.95c-2.2,46.62-10.8,93.27-29,136.42-16.88,40.09-41.4,77.21-72.77,107.45a276.77,276.77,0,0,1-25.87,22.08c-4.54,3.41-9.36,6.41-13.95,9.75-2.61,1.9-6,5.33-9.49,5.33a5.29,5.29,0,0,1-.64,0c-4-.48-7.32-5.26-10.35-7.5-4.11-3-8.3-6-12.49-8.94q-15.41-10.85-31.17-21.19c-20.39-13.45-41.1-26.42-62-39.08-10.61-6.43-21.3-12.7-32-19-9.73-5.73-19.18-12.2-29.68-16.49a59.35,59.35,0,0,0-22.48-4.31A68.59,68.59,0,0,0,442.08,989c-4.29,2.75-8.2,6.13-12.82,8.35-5,2.42-10.55,3.56-16,4.55a175.14,175.14,0,0,1-31.47,3.23q-2.75,0-5.52-.12l-.74,0c-5.83,0-10.53,3.08-16.29,3.89a28.32,28.32,0,0,1-3.94.27,41.34,41.34,0,0,1-9.66-1.32,15.06,15.06,0,0,0-3.51-.4c-4.06,0-8,1.4-12.15,1.79-2.07.19-4.17.3-6.28.3a46.19,46.19,0,0,1-9.77-1c-4.59-1-8.45-4-13-4a10.2,10.2,0,0,0-2.6.34c-5.32,1.39-9.65,3.79-15.35,3.94h-.47c-3,0-6.1-.72-9.09-.72a11.24,11.24,0,0,0-5.37,1.18c-4.39,2.32-8.47,5.2-12.93,7.47-21,10.66-43,19.14-65.29,26.74-8,2.72-16.2,5.1-24.54,5.1a39,39,0,0,1-9.68-1.18c-5.91-1.5-11.38-3.59-17.55-3.83-.83,0-1.66,0-2.48,0-2.36,0-4.71.1-7.06.1a46.05,46.05,0,0,1-5.86-.32c-22.79-2.91-31.91-26-37.46-45.38-3.1-10.81-6.83-21.34-10.26-32a141.09,141.09,0,0,1-4.55-18c-.87-4.81-.5-10-1.64-14.75-1.23-5.07-6.46-6.15-10.78-7.71a39.79,39.79,0,0,1-12.5-7.62c-7.14-6.19-11.61-14.28-14-23.36-2.43-9.28-2.92-18.92-3.94-28.41-1.1-10.26-3.7-20.14-5.72-30.23A108.56,108.56,0,0,1,20.17,800a96.14,96.14,0,0,1,4-18.12c1.56-4.59,3.56-8.48.72-13-2.63-4.21-6.9-7.1-9.57-11.32a40.91,40.91,0,0,1-5.36-14c-2.21-11.13-1.14-22.91-.56-34.15q.91-17.78,2.94-35.48c1.32-11.52,2.24-23.74,5.74-34.84,1.8-5.72,4.74-11,7.7-16.16,1.71-3,4.8-5.86,5.75-9.17,1.12-3.9-3.63-5.94-5.91-8.59a79.33,79.33,0,0,1-9-12.71c-11.23-20-7.65-44-1.55-65.07,6.32-21.86,21.12-40.27,34.27-58.45,11.87-16.42,24.92-32.28,43.71-41,17-7.87,36.24-11.32,55.05-11.32q4.11,0,8.18.22a63,63,0,0,1,17.45,3.26c4.93,1.72,9.65,3.94,14.79,5,2.6.55,5.81,1.48,8.77,1.48a9.92,9.92,0,0,0,3.3-.5c3.77-1.33,6.18-7.25,8.33-10.38,7-10.22,14.26-20.25,21.17-30.53,6.4-9.53,11.36-19.88,16.38-30.17,4.89-10,9.28-20.61,16.76-29,7-7.91,16.43-13.42,26-17.6s20-7,30.47-7m0-7c-10.5,0-21.69,2.55-33.26,7.58-12.37,5.38-21.68,11.72-28.47,19.37-6.94,7.83-11.31,17-15.53,25.85-.76,1.59-1.52,3.19-2.29,4.76l-.84,1.72c-4.78,9.79-9.29,19-15.06,27.62-3.84,5.71-7.87,11.46-11.78,17-3.08,4.39-6.27,8.94-9.36,13.46-.69,1-1.33,2.12-2,3.21a24,24,0,0,1-3.08,4.57,4.27,4.27,0,0,1-.81.06,27.76,27.76,0,0,1-5.48-.91L190,418.3a61.66,61.66,0,0,1-9.13-3c-1.55-.6-3.15-1.22-4.81-1.79a69.3,69.3,0,0,0-19.38-3.64c-2.84-.15-5.72-.23-8.55-.23-21,0-41.05,4.14-58,12-21.05,9.73-35,27.41-46.44,43.22Q41.36,468,39,471.27C26.84,487.84,14.29,505,8.37,525.42,2.92,544.3-2.8,572.13,10.54,595.87a86.13,86.13,0,0,0,9.74,13.84,25.53,25.53,0,0,0,3.18,3l.58.49c-.46.7-1.05,1.49-1.57,2.17a38.58,38.58,0,0,0-2.8,4.07c-3.38,5.91-6.34,11.31-8.3,17.53-3.18,10.1-4.33,20.71-5.44,31-.19,1.74-.38,3.47-.57,5.19C4,685,3,697.11,2.38,709q-.11,2.08-.23,4.18c-.59,10.36-1.19,21.08.91,31.7a47.78,47.78,0,0,0,6.31,16.4A41.8,41.8,0,0,0,15,768a29.49,29.49,0,0,1,3.88,4.52c.58.93.58,1.49-.8,5.33-.21.57-.41,1.16-.61,1.75a102.4,102.4,0,0,0-4.28,19.45c-1.59,12-1,24.5,1.7,38.16.59,2.92,1.22,5.84,1.84,8.67a196,196,0,0,1,3.79,20.93c.21,2,.41,4,.59,6,.72,7.66,1.47,15.57,3.53,23.41,2.9,11,8.34,20.08,16.17,26.87a46.36,46.36,0,0,0,14.71,8.91l1.83.63c1.74.59,4.36,1.47,4.52,2.15a41.37,41.37,0,0,1,.79,6.86,63.37,63.37,0,0,0,.77,7.48,146.82,146.82,0,0,0,4.77,18.88c1.14,3.55,2.32,7.12,3.47,10.57,2.31,7,4.69,14.14,6.73,21.26,6.22,21.68,16.77,47,43.3,50.39a52.5,52.5,0,0,0,6.74.37c1.25,0,2.48,0,3.68-.05s2.28,0,3.39,0c.81,0,1.53,0,2.21,0A49.68,49.68,0,0,1,149.2,1053c1.5.43,3.05.87,4.66,1.28a46.27,46.27,0,0,0,11.41,1.4c9.45,0,18.47-2.63,26.8-5.47,26.54-9.06,47.57-17.68,66.19-27.12,2.61-1.32,5-2.79,7.34-4.21,2-1.19,3.81-2.32,5.69-3.31a4.32,4.32,0,0,1,2.11-.37,33.71,33.71,0,0,1,3.72.31,45.17,45.17,0,0,0,5.37.41h.66a39.75,39.75,0,0,0,12.4-2.73c1.56-.54,3-1,4.54-1.44a3.18,3.18,0,0,1,.83-.11,14.88,14.88,0,0,1,4.88,1.53,36.61,36.61,0,0,0,6.65,2.3,53.31,53.31,0,0,0,11.25,1.13c2.19,0,4.52-.11,6.92-.33a55.85,55.85,0,0,0,6-1,29.94,29.94,0,0,1,5.53-.79,8.09,8.09,0,0,1,1.89.21,47.62,47.62,0,0,0,11.28,1.51,35.56,35.56,0,0,0,4.91-.34,45,45,0,0,0,8.31-2.18,22.94,22.94,0,0,1,7-1.63H376c1.91.09,3.87.13,5.83.13a180.5,180.5,0,0,0,32.72-3.35c5.82-1.06,12-2.33,17.79-5.13a63.75,63.75,0,0,0,9.41-5.91c1.43-1,2.78-2,4.14-2.86a61.71,61.71,0,0,1,32.87-9.74A52.19,52.19,0,0,1,498.57,989c7.41,3,14.29,7.24,21.57,11.7,2.34,1.43,4.77,2.92,7.19,4.35l3.7,2.18c9.28,5.46,18.87,11.11,28.22,16.77,22.72,13.77,42.92,26.5,61.76,38.93,11.35,7.49,21.48,14.38,31,21.07,4.07,2.87,8.28,5.83,12.35,8.84a28.11,28.11,0,0,1,2.23,2c2.69,2.61,6.37,6.18,11.44,6.79a12.33,12.33,0,0,0,1.49.09c5.26,0,9.25-3.2,12.17-5.55.53-.43,1-.83,1.45-1.13,2-1.46,4-2.84,6.19-4.3,2.57-1.75,5.23-3.55,7.83-5.5a284.81,284.81,0,0,0,26.53-22.64c31-29.87,56.7-67.83,74.36-109.77,17.15-40.74,27.08-87.44,29.5-138.8,1.28-27,.6-51.24-2.08-74.09-1-8.41-8-11-11.77-12.4l-.91-.34c-4-1.53-7.94-3.27-12.07-5.1-1.68-.74-3.36-1.49-5-2.22-5.82-2.52-11.74-5.06-17.47-7.51s-11.43-4.9-17.14-7.37c-24.43-10.57-46.61-20.32-67.79-29.81l-1.8-.8C680.12,664.83,658,654.95,637,644c-1.17-.61-2.4-1.2-3.58-1.77-3.22-1.56-6.56-3.16-8.64-5-1.39-1.24-2.21-3.59-3.17-6.31-.2-.57-.4-1.13-.6-1.7-2.55-7-5.33-13.89-8-20.6-1.72-4.29-3.5-8.72-5.18-13.07-8.07-20.87-17.21-44.53-24.55-68.39C579.23,514,575.9,500.26,572.68,487c-2.45-10.11-5-20.56-7.85-30.8-5.4-19.35-12.23-41.63-25-61.11-13-19.84-32.22-33.16-49.29-43.57-22.44-13.69-43.3-24.21-63.76-32.16-14-5.43-28.57-8.24-42.68-11-8.6-1.66-17.48-3.37-26-5.64-2.91-.78-5.79-1.66-8.84-2.59-8.45-2.58-17.19-5.25-26.62-5.69-1,0-1.94-.07-2.91-.07Z"/><path class="cls-1" d="M626.65,646.44c-2.54-1.69-5.64-2.73-7.82-4.94-2.9-2.94-3.8-8-5.22-11.74-3.14-8.37-6.48-16.67-9.72-25-6.75-17.39-13.37-34.83-19.55-52.44-5.83-16.59-11.14-33.37-15.53-50.4-4.07-15.82-7.21-31.87-11.73-47.57a259.07,259.07,0,0,0-17.37-45.43,105.49,105.49,0,0,0-31.21-37c-13.77-10.43-28.88-19.19-44.17-27.18-16.43-8.58-33.36-17-51-22.73-18.17-5.9-37.38-7.87-55.95-12.17-8.5-2-16.7-4.91-25.16-7a56.41,56.41,0,0,0-24.59-.32c-14.83,2.94-30.16,9.69-41.32,20-12.66,11.75-18.34,29.74-25.9,44.85-8,16-19.29,29.76-29.13,44.63-9.36,14.14-20.28,27.52-28.35,42.45-3.7,6.84-7.52,13.52-11.55,20.17-4.21,6.92-8.41,14.2-9.89,22.27-2.93,16,7.47,30.79,19.75,39.88,29.58,21.9,67.82,12,99.76,1.39,16.47-5.46,33.19-11.71,47.71-21.38a78.24,78.24,0,0,0,17.26-16c5.05-6.14,10.41-12,15.51-18.1,4.78-5.73,10.05-11.57,13-18.5-2.61,6.42-6.74,12.06-10.68,17.7-1.68,2.41-3.17,5-4.93,7.32-1.57,2.1-2.9,2.71-2,5.15,2.84,7.67,7.84,15.12,11.59,22.4,1.47,2.86,4.22,6.41,4.82,9.59.68,3.6-2.25,7.24-3.66,10.4q-4.93,11.11-9.46,22.4c-3.12,7.74-6.64,15.6-8.63,23.71-3.51,14.3,2.31,27.66,11.66,38.38,10.11,11.59,23.24,20.69,36.15,28.88A295.42,295.42,0,0,0,441.2,672.7c29.41,12.59,61.48,19.51,93.54,17.69a155.7,155.7,0,0,0,54.18-12.59c16.3-7.22,30.68-17.42,45.44-27.25Q630.47,648.56,626.65,646.44Z"/><path class="cls-2" d="M235.08,548.62c6.91-.42,13.55-2.91,20.22-4.59,7.28-1.84,14.55-3.69,21.72-6a327.79,327.79,0,0,1-42.49,10c-.06,0,.91.75,0,.34Z"/><path class="cls-2" d="M234.56,548.7c-25.23,3.12-57.83-5.44-69.77-30.08-3.33-6.86-4.91-14.61-3.45-22.17,1.61-8.33,6.19-15.73,10.62-22.82,4.88-7.8,9.08-16,13.9-23.79,5.31-8.63,11.16-16.92,17-25.22,13.31-19.07,26.2-38.53,36.89-59.22-10,35.79-40.43,60.95-56.94,93.4C176,472,164,484,162.52,499.44c-1.54,15.77,9.66,29.69,22,38A65.92,65.92,0,0,0,211,547.7a70,70,0,0,0,14.83.92C227.39,548.53,233.66,546.87,234.56,548.7Z"/><path class="cls-2" d="M367.31,475.42c15.45-7.58,28.93-19.18,37.94-33.91,10.68-17.45,13.77-37.93,13.95-58.08-1.29,18.27-7.26,36.17-16.17,52.11a127.36,127.36,0,0,1-15.55,22.12,114.76,114.76,0,0,1-10,10C374.74,470.1,371,474.53,367.31,475.42Z"/><path class="cls-2" d="M366.39,474.92c26-22.67,42.35-61.4,30.08-95.22,1.65,17.43,0,36.14-5.74,52.73-2.59,7.47-6.15,14.83-11.37,20.82C373.72,459.74,370.43,467.4,366.39,474.92Z"/><path class="cls-2" d="M362.69,482.53c29.93-2,50.46-27.17,63.93-51.57a167.21,167.21,0,0,1-29.17,32.51A103.42,103.42,0,0,1,380,475.78a67,67,0,0,1-9.83,4.45C369,480.65,362.81,482.6,362.69,482.53Z"/><path class="cls-2" d="M353.57,487.19S405,500,443,459.93C443,459.93,394.9,492.26,353.57,487.19Z"/><path class="cls-4" d="M223.36,440.55c-22.42,9-37.42,29.71-47.57,50.8,7.42,1.29,14.86,2.34,22.21,4,7.51,1.68,15,3.5,22.69,4.06a126,126,0,0,0,43.77-4.88c2.5-.72,5.95-1.18,8.05-2.8s2.93-4.62,4-6.9a210.47,210.47,0,0,0,7.82-19.9c1.11-3.23,2.79-6.69,2.1-10.18-.56-2.86-2.63-5.77-4.48-7.95A30.59,30.59,0,0,0,268.72,438C254.29,432.92,237.41,435.45,223.36,440.55Z"/><path class="cls-5" d="M285,440.19c-10.38-6.89-23.81-8.57-36-8.17a73.44,73.44,0,0,0-34.48,10.2c-10,5.8-18.86,13.51-27.1,21.61-4.19,4.12-8.23,8.42-12,12.91-2.07,2.44-8.63,8.32-6.35,12.06.78,1.28,2.91,1.85,4.25,2.18,2.27.56,2.69.54,3.74-1.57,2.11-4.23,4.08-8.46,6.54-12.54a100.22,100.22,0,0,1,22-25.53c16-13.27,39.5-19.54,59.91-14.3,9.25,2.37,23.62,11,20.85,22.39-2.67,11-8,22.18-13.16,32.24,4.81-1.8,10-3.44,13-7.93s4.5-10.18,6.07-15.18,4-11.89,2.74-17.21C293.82,446.47,289,442.81,285,440.19Z"/><path class="cls-3" d="M368.63,473.21c-17,28.83-45,47.69-75.73,59.46-17.84,6.84-36.74,12.61-55.71,15.27-17.84,2.5-36.15.63-51.63-9.13-13.4-8.45-26-23-23.82-39.94,7.59,18.87,22.4,32.93,43.2,35,22.78,2.25,46.83-1.21,68.71-7.63,40.38-11.84,75.68-37.7,93.63-76.44C378,426.71,382.42,401.15,383,375.86c5.05,16.28,4.52,33.79,1.62,50.41C381.77,442.54,377,458.9,368.63,473.21Z"/><path class="cls-2" d="M383.73,434.89c-4.33,19.8-12.17,39.16-24.92,55.08-12.22,15.26-28.45,26.81-45.86,35.47C293.78,535,273,541.5,252.19,546.33,232,551,210,552.5,191,542.82c-16-8.11-32-24.57-29.24-43.95-2.07,19.94,15.21,35.84,31.9,43.3,23.69,10.58,49.84,4.35,73.6-2.6s47.5-15.77,67.55-30.76a122.36,122.36,0,0,0,40.71-52.72c9.9-25,14.76-53.9,7.5-80.23C389.17,394.91,388,415.56,383.73,434.89Z"/><path class="cls-6" d="M37,802a50.45,50.45,0,0,0-1.81,33c2.7,9,9,20.41,17.93,24.66,4.89,2.33,10.38,1.48,15.53.59A152.47,152.47,0,0,0,88.41,855c12.87-4.06,25.5-8.77,38-13.9,12.3-5.06,24.45-10.47,36.34-16.43,5.24-2.63,10.52-5.22,15.58-8.2a82,82,0,0,0,7.3-4.78c1.9-1.41,5.82-3.34,3.31-5.61s-10.12-.39-13.32-.18c-7,.48-13.93,1.1-20.89,1.78-13.37,1.3-26.73,2.62-40.15,3.15-15,.59-30.06.2-44.83-2.5-7.11-1.3-14.07-3.23-21-5.19C46.61,802.62,38.28,798.88,37,802Z"/><path class="cls-6" d="M55,651c-17,7.56-29.53,28.1-24.89,46.8,1,4,3,7.9,7.21,9.1,5.14,1.45,11.54,0,16.58-1.07,11.69-2.58,23-7.3,34.13-11.63,22.81-8.89,45.09-19.34,68.36-27,2-.67,15.12-2.92,13-6s-10.44-3.43-13.68-3.87q-8.76-1.18-17.55-2.24c-14.17-1.7-28.42-2.92-42.67-3.84-6.88-.44-13.77-.79-20.66-1-3.62-.11-7.25-.17-10.87-.12C61.09,650.17,57.7,649.82,55,651Z"/><path class="cls-6" d="M104.53,957.5c-6.63-1.89-20.09-3.91-16.35,7.62,2.69,8.3,10.62,17.47,18.63,20.89,5.18,2.21,10.55,1.28,15.93.35a170.46,170.46,0,0,0,18.71-4.55c12.78-3.73,25.48-7.8,37.94-12.51,11.37-4.31,22.54-9.15,33.43-14.56,9.83-4.88,19.55-10.45,27.54-18.07,1.9-1.81,6.76-5.9,3.47-8.42-1.74-1.33-5.68-.62-7.64-.46a73.6,73.6,0,0,0-10.81,1.85c-12.42,2.91-24.73,6.38-37,9.83-14.06,4-28.09,8-42.24,11.66-7,1.8-14.09,3.6-21.2,5.07C118.69,957.5,110.83,959.3,104.53,957.5Z"/><path class="cls-6" d="M105,460c17.06,5.33,40.61,7.14,47.4,26.57a77.34,77.34,0,0,1,4.16,23.08c.15,8.46-4.5,13.58-12.8,15s-17.51-.16-25.93-.83c-10.23-.81-20.46-1.67-30.72-2-8.23-.24-18,.1-25.32-4.31-8.42-5.07-1.33-14.63,3.07-19.88A327.06,327.06,0,0,0,85.13,471C89.84,464.09,95.73,457.09,105,460Z"/><path class="cls-6" d="M326.38,357.32c-12,1.19-19.12-10-18.47-20.94.34-5.73,2.72-12.11,8-15,6.56-3.52,16.72-.34,23.63.74,33,5.19,65.56,14.72,96.76,26.59,25.84,9.83,50.52,22.69,69.3,43.41,1.2,1.33,7.91,8.08,3.7,8.29-2.4.12-6.4-2.53-8.45-3.42-4.19-1.83-8.33-3.77-12.46-5.7A433.33,433.33,0,0,0,440.24,372C403.69,360,364.86,353.5,326.38,357.32Z"/><path class="cls-6" d="M639,679c28.3,47.17,145,88,168,82S633,669,639,679Z"/><path class="cls-6" d="M563,882c27.3,41.86,125,89,148,81S548,859,563,882Z"/><path class="cls-6" d="M536.94,489c7.18,20.05,14.09,40.21,20.45,60.54,6.24,20,12.51,40,16.42,60.55,2,10.31,3.92,21.1,2.8,31.62-1.08,10.1-4.61,20.16-7.53,29.85-5.72,19-11.93,37.62-20.9,55.32-1.73,3.4-7.61,15.22-12.41,8.92-3.75-4.92-3.42-15-3.71-20.66-1-20.25.43-41.26,3.1-61.34,1.39-10.44,3.89-20.7,5.14-31.15,1.21-10.05.23-19.62-1.89-29.48-4.24-19.77-11.71-38.62-18.25-57.69a334.5,334.5,0,0,1-9.76-33.09c-2.16-9.34-4.76-20.86-2.2-30.39,2.34-8.69,10.36-7.22,15.81-2.4A48.44,48.44,0,0,1,536.94,489Z"/><path class="cls-2" d="M284.63,880.5C298,909,337,932,270,1009l4,3s40-41,39-73S284.63,880.5,284.63,880.5Z"/></g></svg>