<svg xmlns="http://www.w3.org/2000/svg" viewBox="0 0 826.21 1096.88"><defs><style>.cls-1{fill:#fc9;}.cls-2{fill:#80664d;}.cls-3{fill:#bf9973;}.cls-4{fill:#ffd6ad;}</style></defs><title>Hand</title><g id="Frame_11" data-name="Frame 11"><path class="cls-1" d="M821.62,740.76c-.59-5-3-5-7.35-6.68-5.41-2.06-10.7-4.53-16-6.8q-16.16-6.9-32.28-13.87-31.82-13.74-63.49-27.82c-21.1-9.4-42.2-18.86-62.95-29-5.1-2.5-10.2-5-15.23-7.67-3.83-2-10.2-4.4-13.06-7.82-2.14-2.55-3.06-7.6-4.26-10.67l-6.45-16.56c-4.17-10.72-8.32-21.45-12.37-32.22s-7.26-21.95-11.79-32.43c-1.77-4.09-5.89-7.61-9-10.84-3.53-3.71-7.18-7.31-11-10.7a129.31,129.31,0,0,0-25.89-17.9c-9.94-5.17-20.51-9-30.42-14.26-9.66-5.11-19.36-10.15-29.2-14.91-19.2-9.31-39-17.55-59.51-23.37-21.6-6.12-43-12.81-64.59-19-19.94-5.75-40.61-11.63-61.33-13.58-27.83-2.63-55.83,2.24-83.68,1.9-5.29-.06-10.59-.26-15.86-.74-5.45-.5-10.15-2.29-15.2-4.25-10.24-4-20.29-4.93-31.21-4.51-19.35.75-39,3.63-56.47,12.47-19.35,9.81-32,27.69-44.43,44.86-12.74,17.59-26.12,35.43-31.43,56.78s-8.32,44.14,4,63.71a86.13,86.13,0,0,0,9.61,12.53c1,1.1,2.92,2.28,3.62,3.55,1.09,2-.34,3-1.56,5.06-5.45,9.36-10.93,18.51-13.11,29.23C5.17,667.34,3.54,690.51,2.52,713c-.46,10.26-1.53,21.11.61,31.24,2.22,10.55,8.51,17.91,15.4,25.79,2.67,3.06-.4,8.18-1.33,11.69a165.59,165.59,0,0,0-3.63,16.73,97.24,97.24,0,0,0,.36,32.81c1.94,10.76,5,21.29,6.74,32.09s1.06,22,4,32.55a44.46,44.46,0,0,0,15.49,23.36,61.75,61.75,0,0,0,12.62,7.45c3.54,1.59,7.9,1.54,8.72,5.75.89,4.56,1,9.44,1.73,14.07A145.9,145.9,0,0,0,66.87,963c2.94,10.19,7.58,19.77,10.32,30,4.56,17,9.76,36.94,26.12,46.59,10,5.9,20.24,2.94,31.09,4.18,5.14.59,9.85,2.82,14.86,4a42.74,42.74,0,0,0,16.71.36c10.81-1.79,21.47-6,31.68-9.85,10.42-4,20.69-8.34,30.94-12.7,9.89-4.21,20-8.44,29.28-13.86,1.73-1,3.67-3.11,5.6-3.62s5,.75,7,.85a51.38,51.38,0,0,0,16.55-1.8c3.34-.94,6.44-3.69,9.76-2.2a45.59,45.59,0,0,0,13.88,4.23,62.48,62.48,0,0,0,13.9-.07c4.42-.48,9.37-2.77,13.6-1.39a32.19,32.19,0,0,0,13.91,1.18,38.55,38.55,0,0,0,7.28-1.6c2.47-.81,4.58-2.23,7.22-2.32,5.25-.17,10.52.33,15.81,0,5.8-.37,11.58-1.13,17.33-2,9.92-1.49,20.49-2.75,28.66-9,8.73-6.68,17.07-11.44,27.83-14.23s21.94-1.52,32.7,1c10.42,2.45,20.21,9.68,29.42,15,40,22.89,79.25,47.23,117.32,73.18q14.28,9.74,28.24,19.94c1.65,1.21,3.3,2.42,4.9,3.69.74.59,2.29,2.31,3.39,2.38s2.94-1.42,3.82-1.93c2.59-1.51,5.18-3,7.7-4.65,17.62-11.3,33.62-25.33,48-40.54a328.61,328.61,0,0,0,67.12-107.69c16.16-42.25,23.64-87.66,25.18-132.75A443.28,443.28,0,0,0,821.62,740.76Z"/><path class="cls-2" d="M387.89,143.33a41.19,41.19,0,0,1,4.64.26c11.82,1.34,20.23,9.09,27,18.29,7.33,9.92,14.89,19.76,22,29.81,15.89,22.41,27.71,47.69,44,69.81,13,17.72,30.68,32.76,40.79,52.17,12.85,24.64,22,50.92,28.9,77.8a681.13,681.13,0,0,1,15.47,83c1.81,14.09,3.29,28.22,4.53,42.37.61,7,1.16,14.07,1.7,21.12.48,6.25.24,13.07,2.16,19.08,8.55,26.75,20.32,52.45,29.92,78.82,2.07,5.7,5.84,7.89,11,10.74,6.14,3.42,12.46,6.53,18.76,9.63,12.69,6.23,25.51,12.18,38.38,18q38.93,17.65,78.18,34.58,19.55,8.48,39.14,16.85c6.43,2.75,12.78,5.78,19.33,8.24,3.82,1.43,7.25,2.2,7.8,6.86,3.16,27,3.3,54.38,1.56,81.49-3.41,53.14-15.67,105.72-40.36,153.13-23.41,44.94-57.17,85.51-99.8,113.33-2.66,1.73-6.93,6.12-10.51,6.12a4,4,0,0,1-.79-.08c-2.07-.42-3.78-2.84-5.4-4.12-2.3-1.82-4.75-3.49-7.12-5.21-11.52-8.34-23.25-16.4-35.08-24.29-23.49-15.67-47.43-30.66-71.6-45.25-11.88-7.17-23.9-14.09-35.79-21.25-11.49-6.92-22.56-13.48-36-15.4a78.09,78.09,0,0,0-11-.82,60,60,0,0,0-27.32,6.39c-5.51,2.74-10.12,6.48-15.15,9.93-5.24,3.59-10.92,5.28-17.09,6.5a206.13,206.13,0,0,1-40.38,3.7c-6.26,0-11.46,3.26-17.66,4a16.89,16.89,0,0,1-1.9.1c-4.69,0-9.4-1.72-14-1.72a14.62,14.62,0,0,0-3,.3,79,79,0,0,1-16.33,2q-1.4,0-2.81-.07c-6.45-.33-11.43-2.19-17.25-4.62a5.23,5.23,0,0,0-2-.46c-1.48,0-2.66.79-4.35,1.57a33.39,33.39,0,0,1-8.69,2.37,48,48,0,0,1-7.67.6q-1.32,0-2.64-.07c-1.89-.1-4.15-.71-6.2-.71a6.73,6.73,0,0,0-2.24.33c-2.32.82-4.51,2.94-6.7,4.13-2.89,1.56-5.82,3-8.76,4.5q-9.27,4.62-18.77,8.77c-12.66,5.56-25.56,10.56-38.6,15.15-10,3.53-20.79,7.76-31.61,7.76a37.15,37.15,0,0,1-7.58-.75c-6.46-1.34-12.45-4.13-19.13-4.43-.89,0-1.78-.05-2.67-.05-2.72,0-5.44.14-8.15.14a40.61,40.61,0,0,1-7.78-.63c-26.59-5.16-31.77-36.27-38.51-57.78-4.06-12.94-9.14-25.2-11.45-38.66-.56-3.26-1.11-6.56-1.41-9.86-.16-1.79.33-4.59-.65-6.19-1.24-2-5.11-2.44-7.13-3.27a61.5,61.5,0,0,1-7.25-3.58C36.59,917.83,28.69,909,25.22,897.58c-3.8-12.46-3.12-25.92-5.48-38.68-2.46-13.34-6.41-26.43-7.27-40a106.22,106.22,0,0,1,5.44-39.56c.85-2.51,2.6-5.36,1.41-8-.88-2-3.13-3.54-4.53-5.15A53.27,53.27,0,0,1,5,750.56c-4.7-12.28-2.94-26.16-2.39-39,.6-13.79,1.48-27.59,3.11-41.3,1.57-13.13,3.12-26.82,8.68-38.95,2.67-5.82,6-11.22,9.24-16.74,1.62-2.8.89-3.43-1.26-5.63-1.94-2-3.78-4-5.52-6.17C9,593.06,4,582.19,2.74,569.7c-2.34-23.84,5.4-49.13,18-69.11,7.37-11.67,15.31-23,23.6-34,7.79-10.36,15.58-21.16,25.94-29.13,19.61-15.09,46.46-20.76,70.88-20.76h1.92c6.16.07,12.37.38,18.33,2,5.76,1.6,11.24,4.06,17,5.64,6.94,1.91,14.32,2.36,21.73,2.36,6.26,0,12.54-.32,18.57-.35,13.9-.07,27.69-2,41.59-2.24q2.19,0,4.37,0A212.84,212.84,0,0,1,300.86,427a406.15,406.15,0,0,1,40.93,9.75c6.77,1.91,13.51,3.91,20.25,5.94l10.09,3.06c2.22.68,5.6,2.58,8,2.58h.17c1.65-.07.83.18,1.59-1.34a32,32,0,0,0,1.49-4.64q1.52-4.83,2.9-9.71a177,177,0,0,0,4.49-19.45c.58-3.59,2.82-11.49.17-14.39-1.47-1.61-4.27-2.81-6-4.17q-3.67-2.85-7.12-6c-18.59-16.75-34.1-39.14-45-61.63-11.8-24.46-14-51.71-12.17-78.47,1.64-24.4,4.61-51.7,17.29-73.17,10-17,29.42-32.07,50-32.07m0-3c-22.61,0-42.68,16.85-52.54,33.54-12.6,21.33-16,48.41-17.7,74.49-2.14,32,1.93,58.16,12.46,80,11.8,24.45,28,46.66,45.65,62.55,2.42,2.18,4.87,4.23,7.29,6.11a27.52,27.52,0,0,0,2.71,1.77,14.85,14.85,0,0,1,2.94,2.06c1.18,1.29-.08,7.57-.49,9.64-.16.82-.32,1.59-.42,2.25a170.77,170.77,0,0,1-4.42,19.12c-.87,3.09-1.81,6.23-2.88,9.62-.17.53-.31,1.07-.45,1.58a20.37,20.37,0,0,1-.68,2.2,24.3,24.3,0,0,1-3.54-1.27c-1-.41-1.93-.8-2.82-1.07l-.68-.21-9.43-2.86c-8.19-2.47-14.45-4.3-20.3-6a408.28,408.28,0,0,0-41.23-9.82,216.78,216.78,0,0,0-36.67-3c-1.46,0-2.95,0-4.43,0-6.7.12-13.45.62-20,1.12-7.08.53-14.4,1.08-21.57,1.12-2.86,0-5.81.1-8.67.17-3.24.09-6.59.18-9.88.18-5.93,0-13.68-.26-20.93-2.25-2.79-.77-5.49-1.74-8.35-2.77s-5.69-2.05-8.66-2.87c-6.31-1.75-12.91-2.06-19.1-2.14h-2c-16.78,0-48.55,2.78-72.71,21.38-10,7.7-17.61,17.84-25,27.66L42,464.75C33,476.63,25.26,487.83,18.22,499,4.23,521.14-2.5,547-.25,570c1.23,12.54,6,23.88,14.73,34.68,1.67,2.08,3.54,4.17,5.71,6.39l.17.17c.36.37.8.81,1,1.1a7.51,7.51,0,0,1-.39.75q-.94,1.62-1.9,3.24a153.26,153.26,0,0,0-7.47,13.76C6,642.41,4.37,656,2.81,669.17l-.09.75C1.29,681.86.3,695.06-.42,711.45c-.08,1.93-.2,3.93-.31,5.86-.65,11.46-1.33,23.31,2.89,34.33a55.93,55.93,0,0,0,10.37,16.45c.56.65,1.2,1.25,1.81,1.83a10.41,10.41,0,0,1,2.24,2.57c.42,1-.19,2.47-.83,4.08-.23.58-.47,1.18-.68,1.79a109,109,0,0,0-5.6,40.71c.59,9.42,2.64,18.65,4.62,27.57.93,4.2,1.9,8.54,2.69,12.81.93,5,1.39,10.3,1.83,15.42.68,7.8,1.38,15.87,3.73,23.59,3.54,11.61,11.48,21.24,22.95,27.86a64.62,64.62,0,0,0,7.61,3.76,21.76,21.76,0,0,0,2.42.78c1,.27,2.93.82,3.31,1.3a9.49,9.49,0,0,1,.17,2.7,20.47,20.47,0,0,0,0,2.18c.3,3.31.83,6.53,1.44,10.09,1.69,9.88,4.88,19.22,8,28.25,1.2,3.53,2.45,7.17,3.58,10.8.87,2.77,1.7,5.67,2.59,8.75,5.92,20.6,13.29,46.24,38.21,51.08a42.8,42.8,0,0,0,8.35.69c1.39,0,2.79,0,4.14-.07s2.68-.07,4-.07c.93,0,1.76,0,2.54.05A47.14,47.14,0,0,1,143,1049c2.35.7,4.78,1.43,7.3,2a40.36,40.36,0,0,0,8.19.82c10.34,0,20.26-3.53,29.84-7l2.76-1c14-4.95,26.72-9.93,38.81-15.24,6.54-2.87,12.89-5.84,18.9-8.83,2.86-1.43,5.9-3,8.85-4.55a28.76,28.76,0,0,0,2.95-1.93,15.63,15.63,0,0,1,3.32-2,3.85,3.85,0,0,1,1.24-.16,21.09,21.09,0,0,1,3.07.34,28.67,28.67,0,0,0,3,.37c.93,0,1.87.07,2.79.07a51.12,51.12,0,0,0,8.15-.64,36.3,36.3,0,0,0,9.48-2.61l1.11-.54a5.51,5.51,0,0,1,2-.76,2.38,2.38,0,0,1,.88.22c5.83,2.44,11.22,4.49,18.25,4.85,1,.05,2,.08,3,.08a80.47,80.47,0,0,0,17-2,11.57,11.57,0,0,1,2.4-.23,36,36,0,0,1,6.33.8,41.79,41.79,0,0,0,7.62.92,20,20,0,0,0,2.23-.12,43.21,43.21,0,0,0,8.44-2.06,29.42,29.42,0,0,1,8.89-1.88,209.61,209.61,0,0,0,41-3.76c5.59-1.1,12.12-2.8,18.2-7,1.36-.93,2.69-1.88,4-2.81a79.28,79.28,0,0,1,10.82-6.91,57.11,57.11,0,0,1,26-6.08,74.57,74.57,0,0,1,10.62.79c13.09,1.87,24.18,8.54,34.9,15,5.8,3.49,11.73,7,17.46,10.36,6,3.55,12.25,7.21,18.33,10.88,26.58,16,50,30.82,71.48,45.18,13,8.66,24.44,16.59,35,24.23l2.06,1.48c1.66,1.18,3.37,2.4,5,3.66.37.29.81.73,1.28,1.19,1.37,1.36,3.08,3,5.39,3.51a7,7,0,0,0,1.39.14c3.68,0,7.17-2.75,10-5,.82-.65,1.59-1.25,2.18-1.64,40.83-26.65,75.69-66.23,100.82-114.46,23.3-44.73,37-96.65,40.69-154.32,1.91-29.79,1.4-56.63-1.58-82-.71-6-5.12-7.64-8.67-8.93l-1.06-.39c-4.35-1.63-8.73-3.57-13-5.45-2-.91-4.16-1.84-6.25-2.74-13-5.55-26.14-11.22-39.12-16.85-29.36-12.73-54.92-24-78.13-34.56-15.17-6.88-27.34-12.59-38.3-18-5.81-2.85-12.39-6.09-18.63-9.56-5.18-2.88-8-4.59-9.61-9.15-3.87-10.62-8.14-21.28-12.28-31.6-6.15-15.33-12.51-31.19-17.6-47.11-1.32-4.12-1.54-8.9-1.75-13.51-.07-1.61-.15-3.27-.27-4.88-.48-6.33-1.06-13.78-1.7-21.15-1.31-15-2.8-28.9-4.54-42.49a680.8,680.8,0,0,0-15.54-83.36c-7.71-30-17.24-55.61-29.14-78.44-6.45-12.37-15.9-23-25-33.38-5.47-6.18-11.13-12.57-16-19.18-8.43-11.45-15.81-24-23-36.2-6.57-11.2-13.37-22.78-21-33.57-4.78-6.74-9.82-13.47-14.7-20-2.42-3.24-4.93-6.58-7.36-9.88-5.6-7.59-14.72-17.86-29.1-19.49a44.41,44.41,0,0,0-5-.28Z"/><path class="cls-3" d="M306.58,740.68c-4.6,8.34-10.36,17-18.88,21.74-6.12,3.42-13.61,5.26-20.34,7.11-19.89,5.47-40.3,9.18-60.63,12.51-24.17,4-48.49,6.92-72.82,9.7-16,1.83-32.19,3.68-48.35,3.73-17.15.06-33.76-2.67-48.86-11.32,12.9,2.76,25.76,4.88,39,5.23,24,.63,48.15-2.49,71.85-6.1,32.06-4.88,64.44-9.87,96.16-16.72,20.31-4.39,46.46-11,58.8-29.57,2.49-3.75,3.66-9,4.84-13.37a92,92,0,0,0,2.87-14.85,90.86,90.86,0,0,0-2.27-30.16c-4.83-20.29-15.72-37-26.35-54.56,14.54,14.88,27,32.24,32.68,52.48A85.1,85.1,0,0,1,306.58,740.68Z"/><path class="cls-2" d="M282.17,764.75c-16.19,6.94-33.6,10.4-50.79,13.88q-27.37,5.55-55,9.38-27.94,3.82-56,6.67c-18.19,1.82-36.7,3.37-54.86.47a79.55,79.55,0,0,1-26.92-9.28c-7.31-4.18-16.18-10.19-21.41-16.87,5.35,6.14,14,11.49,21.09,15.36a80,80,0,0,0,22.54,7.81c16.23,3.24,33,2.42,49.32.79,36.91-3.68,73.91-8.24,110.5-14.39C241.28,775.09,262.31,771.72,282.17,764.75Z"/><path class="cls-1" d="M230,419.13c.17-.65.36-1.34.56-2.07C230.43,417.75,230.24,418.44,230,419.13Z"/><path class="cls-1" d="M607.57,631.92q-1.26-3.23-2.51-6.45Z"/><path class="cls-2" d="M206,487.14c-29.67-13.49-58.66-28.28-91.82-30.14C146.85,453.82,179.32,469.74,206,487.14Z"/><path class="cls-2" d="M173.14,439c12.05,9.79,21.07,26.37,21.42,42C189.3,465.87,181.88,452.38,173.14,439Z"/><path class="cls-2" d="M257.14,641c-14.73,4.5-30.49,3.45-45.61,2-16.66-1.58-33.2-4-49.77-6.37-16-2.25-32.11-4.41-48.31-4.44s-31.92,2-48-1c-15.08-2.74-30.87-8.49-41.28-20.24,19,18.78,48.77,21.08,74,19.15A242.62,242.62,0,0,1,149.36,632c17.55,2.33,35,5.38,52.53,7.79C220.07,642.28,239,645.29,257.14,641Z"/><path class="cls-3" d="M289.39,529.35c-9.6-24.7-23.67-55.34-52.65-60.9-10.38-2-21.07-.15-30.86,3.54,13-4.91,27.44-7.5,41.11-3.89,10.36,2.74,19.31,9,26.29,17,12.75,14.65,19.77,34.43,24.45,53,4.61,18.33,5.67,36.39-.42,54.43-5.11,15.14-11.39,29.85-24.27,40.09-15.1,12-34.55,11.8-52.84,10.2-21.35-1.87-42.47-5.41-63.68-8.39-11.71-1.65-23.52-3.3-35.35-3.72-11.44-.41-22.83,1.17-34.26,1.23-20.08.1-41.19-3.71-57.43-16.26.32-.38,16,5.41,17.83,5.85A130.89,130.89,0,0,0,67,624.63c13.37,1.14,26.8.65,40.19.16,12.88-.47,26-1.35,38.79.35s25.3,5.18,38,7.66c11,2.16,21.92,2.26,33,3.35,9.84,1,19.76,2.3,29.61.71,21.84-3.53,34.86-21.82,41.47-41.55C294.86,574.91,297.35,549.82,289.39,529.35Z"/><path class="cls-3" d="M304.59,789.21c-2-8.41-7.14-15.82-12.32-22.56,1.84,5.34,4.24,10.47,5.92,15.86a55.59,55.59,0,0,1,2.07,18A318.43,318.43,0,0,1,297.89,836c-.71,5.27-1.11,11.91-3.52,16.69a28.73,28.73,0,0,1-6.3,7.64c-4.85,4.45-10.79,7.45-16.82,10C254,877.5,236,882.56,219.21,891c-11,5.49-21.54,11.64-32.72,16.74a319.51,319.51,0,0,1-30.33,12c-19.71,6.66-40,11.15-60.42,15,15.79,1,30.55-1,45.89-4.6a265,265,0,0,0,52-17.72c9.1-4.3,17.71-9.52,26.88-13.69,9.75-4.43,19.75-8.26,29.7-12.21,9-3.57,18-7.18,26.39-12A49.47,49.47,0,0,0,295.78,855c5.26-9.27,7.7-19.91,9-30.4C306.17,813.1,307.25,800.59,304.59,789.21Z"/><path class="cls-2" d="M61.14,930c7,1.88,14.2,2.36,21.34,3,7.66.66,15.36,1.22,23.06,1.14,14.42-.15,28.57-3.35,42.44-7a276.77,276.77,0,0,0,41.55-14.37c13.15-5.86,25.59-13.2,39-18.61,15.1-6.12,30.71-11,45.41-18.07-12.66,7.29-26.43,12.31-39.84,18S208.12,907,195,913.32a242.69,242.69,0,0,1-40.81,15c-14.27,4-28.88,7.55-43.77,7.83a175.33,175.33,0,0,1-24.88-1.65C77.36,933.53,69,932.56,61.14,930Z"/><path class="cls-3" d="M295.9,963.14c-4.5,9.76-9.19,19.64-15.43,28.43A66.93,66.93,0,0,1,264,1007.5c-8.71,6.2-18.43,10.62-28.22,14.94Q214.17,1032,192,1040.08c-13.13,4.81-27.27,10.7-41.48,8-8.17-1.57-14.7-4.85-23.29-4.38-10.95.6-20.6-.33-29.26-7.95,5.68,1.54,11.34,3.66,17.22,4.31,9,1,18.11.33,27.11.5,6.91.13,14.13,2.14,21,1.29a67,67,0,0,0,13.13-3.54c9.56-3.26,19-7,28.4-10.59,23.69-9.14,46.87-19.34,66.53-35.75C280.9,984,290.28,974.41,295.9,963.14Z"/><path class="cls-3" d="M611.64,664.5s-35,76-76,111C535.64,775.5,598.64,734.5,611.64,664.5Z"/><path class="cls-3" d="M440.64,985.29c-6.91,3.14-11.58,9.74-18.5,12.71-5.3,2.28-11.45,3.11-17.09,4.07a201.66,201.66,0,0,1-27.43,3.11c-4.45.14-9.8-1-14,.49-7.21,2.53-14.21,4.36-21.9,3-1.64-.29-3.24-1.07-4.86-1.33-2.59-.42-5.46.77-8.15,1.2-11.16,1.8-21.65,1-32-3.51-.47-.21-1.14-1-1.64-1-1.71-.22-5.54,2.37-7.44,2.93a49.3,49.3,0,0,1-7.07,1.54,48.49,48.49,0,0,1-17.49-.47c16.73-10,25.34-28.64,33.16-45.71,4.5-9.82,7.42-19,6.26-30-1.14-10.78-5.24-21.1-10.41-30.55A139.44,139.44,0,0,0,273.88,876c7.21-3.84,14.17-8.31,18.31-15.55,6.06,18,12.29,35.72,22.27,52a145.71,145.71,0,0,0,62.17,55.69C396.72,977.65,418.61,982.88,440.64,985.29Z"/><path class="cls-3" d="M663.14,693s3,63-36,172C627.14,865,680.14,747,663.14,693Z"/><path class="cls-3" d="M632.14,679c4.56,19.42,2.76,41-2.19,60.17A111.6,111.6,0,0,1,611.14,779C626.54,747.91,633.08,713.61,632.14,679Z"/><path class="cls-3" d="M314.14,742c13.46,22.84,36.85,41.53,59.53,54.62,13.59,7.84,28.23,13.86,43.67,16.83,16.69,3.21,33.28,2.29,49.8-1.46-29.16,14.32-63.31,9.82-91.29-5a151.32,151.32,0,0,1-36.08-26.87C329.33,769.62,318.22,756.5,314.14,742Z"/><path class="cls-3" d="M531.14,856c-13.06,31.65-28.65,63.95-29,99-3.39-17.29.82-36.81,6.37-53.24A190.88,190.88,0,0,1,531.14,856Z"/><path class="cls-3" d="M29.14,714c-1,15.63-3.37,31.45,0,47C22.66,747.15,25,728.16,29.14,714Z"/><path class="cls-3" d="M55.14,720c-1,15.37-2.2,31.7,0,47-2.7-7.31-2.93-15.78-2.89-23.49A88.3,88.3,0,0,1,55.14,720Z"/><path class="cls-3" d="M45.14,711c-1.58,11.17-2,22.53-2.42,33.79-.32,8-.93,16.2-.58,24.21-2.14-9.28-1.64-19.69-1.21-29.14C41.36,730.23,42.17,720.22,45.14,711Z"/><path class="cls-3" d="M30.14,529c-1.77,21-4.44,41.81-4,63C22.45,571.53,25,549,30.14,529Z"/><path class="cls-3" d="M51.14,529c-1.73,11.44-3.32,22.9-4.47,34.42S44.23,586.55,45.14,598c-2.44-11.28-1.6-23.39-.46-34.79A190.64,190.64,0,0,1,51.14,529Z"/><path class="cls-3" d="M41.14,856a161.37,161.37,0,0,0,1.52,24.75c1.3,8.17,4.41,16.09,5.48,24.25-2.86-8-6.11-15.47-7.46-23.94A71.72,71.72,0,0,1,41.14,856Z"/><path class="cls-3" d="M53.14,860c1,16.57,4.62,32.79,8,49C54.86,894.23,50.92,876,53.14,860Z"/><path class="cls-3" d="M96.14,983c4.69,15,7.53,31,15,45-5.17-5.91-8.11-14.13-10.4-21.52A110.07,110.07,0,0,1,96.14,983Z"/><path class="cls-3" d="M111.14,983a229.8,229.8,0,0,1,7.84,22.27c1.76,5.54,3.15,11.73,6.16,16.73-4.6-4.5-6.77-12.18-8.68-18.1A154.72,154.72,0,0,1,111.14,983Z"/><path class="cls-1" d="M391.68,399c.85,9.92-1.85,20.29-4.37,29.79-3.37,12.75-7.67,25.25-12.25,37.61q-6.44,17.35-13.75,34.37c-2.84,6.66-6.35,13.18-8.93,19.93-1.73,4.53,1,10.77,3.1,15,3.41,6.85,8.56,12.73,14.2,17.83,14.23,12.86,32.06,21.68,49.86,28.46a260.2,260.2,0,0,0,63.64,15.42c19.24,2.14,39.46,2.39,58.27-2.78,14-3.86,28.16-11.58,33.87-25.72,2.95-7.3,2.89-14.81,2.31-22.52-.78-10.33-1.55-20.67-2.46-31-5.62-63.23-15.05-128.76-41.54-187-3.31-7.28-6.93-14.43-10.93-21.37-16.82,11.75-32.66,25-48.94,37.51C453,360.43,432.17,376.69,410,390.66a104.29,104.29,0,0,1-11.78,6.69C396.53,398.13,393.64,399.73,391.68,399Z"/><path class="cls-1" d="M432.37,415.05a120.91,120.91,0,0,0,41.19-1.24,107.12,107.12,0,0,0,19-5.84c3.55-1.47,6.25-2.49,8.55-5.57,2.18-2.92,4.4-5.8,6.7-8.62,4-4.94,8.53-9.5,12-14.89A57.09,57.09,0,0,0,527,360.77a92,92,0,0,0-.15-40.43c-3.2-14.16-12.14-23.81-21.32-34.53-8.49-9.91-17.28-19.73-24.36-30.73-3.54-5.5-6.5-11.35-10-16.84-4.1-6.38-8.28-12.7-12.31-19.13-7.44-11.87-14.05-24.89-23.11-35.64-8.6-10.21-15.15-22.74-25.16-31.67-9.81-8.75-22.9-9.75-35.2-6.31-23.47,6.57-39.29,27.37-46.22,49.85-4,12.87-5.59,26.65-7.13,40a242.36,242.36,0,0,0-1.49,43.09c1.12,17.59,5.22,35.74,13.8,51.32,18.61,33.79,43,69.05,81.35,81.58A90.61,90.61,0,0,0,432.37,415.05Z"/><path class="cls-2" d="M329.88,196.1c-2.24,6.23-2.67,13.87-3.77,20.39-1.26,7.4-2.36,14.83-3.11,22.3a331.37,331.37,0,0,1,7.61-43c.07-.13-1,.49-.3-.16Q329.89,195.55,329.88,196.1Z"/><path class="cls-2" d="M330,195.59c8-27.61,34.55-58.43,66.65-51.15,17,3.86,24.75,21.5,34.69,33.93a207.37,207.37,0,0,1,15.07,20.73c5,8.06,9.92,16.13,15,24.13,10.81,17.08,22.13,33.88,35,49.51C467,249,456.24,210.47,432.12,182.45c-10-11.62-16.63-29.17-31.79-35.2-14.79-5.88-32.77.72-44.69,10A68.22,68.22,0,0,0,338,178.12,70,70,0,0,0,333,189C332.6,190.23,331.57,195.51,330,195.59Z"/><path class="cls-4" d="M358.39,191.14c6.73,10,32.67-5.65,23.36-30.12C378.28,151.89,344.82,171.07,358.39,191.14Z"/><path class="cls-3" d="M322.35,249.66c-.71,30.51,3.21,59.88,16,87.82,11.83,25.89,30.78,46,54.62,61.28,13.29,8.53,28.12,15.32,43.92,17.23-14.43-6.93-27.14-15.8-39.61-25.78-7.92-6.34-16-12.65-22.88-20.1C351,345,334.27,314.3,327,280.66,324.8,270.4,323.77,260,322.35,249.66Z"/><path class="cls-2" d="M381.3,391.66c-16-11.94-30.08-26.69-39.67-44.26a167.36,167.36,0,0,1-19.31-61.48c-2.57-22.94-1.74-46.55,1.26-69.42,2.51-19.17,8.38-38.65,22-53,13.11-13.82,35.86-25.19,54.39-15.3-20.12-9.72-43.61,4.41-56.13,20.1-15.08,18.9-17.82,43.85-19.19,67.15-1.58,26.85-1.28,54,6.73,80,7,22.75,18.32,44,35.19,61,19,19.1,43.29,35.35,70.34,39.52C416.39,413.79,397.57,403.85,381.3,391.66Z"/><path class="cls-2" d="M396.25,403.56c17.36,14.52,38.88,22.67,61.61,21.51,15.2-.77,29.66-5.43,43.52-11.44-11,4-23,5.82-34.59,6.51a132.16,132.16,0,0,1-33.92-2.23,117.57,117.57,0,0,1-18.72-5.4q-4.84-1.85-9.5-4.13C402.61,407.4,397.24,405.61,396.25,403.56Z"/><path class="cls-4" d="M30.14,802c-6.39,16-4.81,33.63,5.47,47.58,4.82,6.55,10,12.06,18.43,11.6,9.81-.53,19.64-3.66,28.94-6.6,12.88-4.07,25.52-8.89,38-14.06,12.27-5.08,24.41-10.53,36.26-16.53,8.07-4.09,16.68-8.26,23.73-14,1.56-1.28,3.38-2.61,1-3.84-3-1.56-8.57-.46-11.71-.28-15.56.93-31,2.93-46.59,4.09-20.86,1.55-41.85,2.15-62.49-1.86-7.59-1.47-15-3.63-22.4-5.73C37.21,801.91,31.15,799.46,30.14,802Z"/><path class="cls-4" d="M48.14,651c-14.53,6.46-25.42,22.09-25.76,38.11-.11,5,.78,12.72,4.94,16.23,2.41,2,6.07,2.11,9.06,2,11.69-.53,23.44-5.16,34.29-9.14,14.55-5.34,28.84-11.38,43.18-17.26,13.24-5.43,26.52-11,40.22-15.18,1.6-.49,13.14-2.26,7.51-5.09-5.95-3-14.1-3.36-20.56-4.27-11.39-1.61-22.84-2.76-34.3-3.74-12.63-1.08-25.29-1.95-38-2.34-4.46-.14-8.92-.24-13.38-.1C53.12,650.24,50.25,650.06,48.14,651Z"/><path class="cls-4" d="M97.64,957.5c-4.15-1.19-13.26-3.88-16.21,1.11-2.26,3.82.91,9.35,2.93,12.55C89.3,979,97.92,988.28,108,987.4c12.58-1.1,25.21-5.14,37.22-8.81a399.07,399.07,0,0,0,50.93-19.19c13.68-6.33,28.64-13.63,39.25-24.64,3.39-3.52,4.44-6.94-1.5-7.11-8.6-.24-17.67,2.6-25.92,4.67-13,3.28-26,7-38.92,10.66s-26.1,7.36-39.29,10.5c-9.06,2.15-18.79,4.8-28.19,4.51A16.05,16.05,0,0,1,97.64,957.5Z"/><path class="cls-4" d="M98.14,460c9,2.81,18.22,5,27.13,8.07,5.84,2,11.63,4.69,15.57,9.64,4.76,6,6.41,14,7.56,21.34s3.57,17.81-3.75,22.72c-6.79,4.56-17.13,3.24-24.78,2.69-12.41-.89-24.74-2.11-37.18-2.58-8.7-.33-19.87,0-27.75-4.38-5.61-3.13-4.57-8.48-1.71-13.32,3-5.11,7.29-9.29,11.08-13.8a195.85,195.85,0,0,0,13-17.91C82.39,464.78,87.77,456.76,98.14,460Z"/><path class="cls-4" d="M632.14,679c28.3,47.17,145,88,168,82S626.14,669,632.14,679Z"/><path class="cls-4" d="M556.14,882c27.3,41.86,125,89,148,81S541.14,859,556.14,882Z"/><path class="cls-4" d="M385.42,526.7c-7.93,40.32-62.55,224.41-65.73,80C318.29,543.1,393.36,486.38,385.42,526.7Z"/></g></svg>