<?xml version="1.0" encoding="utf-8"?>
<!-- Generator: Adobe Illustrator 21.0.2, SVG Export Plug-In . SVG Version: 6.00 Build 0)  -->
<svg version="1.1" id="Layer_1" xmlns="http://www.w3.org/2000/svg" xmlns:xlink="http://www.w3.org/1999/xlink" x="0px" y="0px"
	 viewBox="0 0 505 670" style="enable-background:new 0 0 505 670;" xml:space="preserve">
<style type="text/css">
	.st0{fill:#FFFF00;}
</style>
<title>letterH</title>
<path class="st0" d="M252.5,670c-35.7,0-70.2-9.6-102.6-28.6c-30.2-17.7-57.1-42.8-80-74.5C24.8,504.4,0,422,0,335
	c0-87,24.8-169.4,69.9-231.9c22.9-31.7,49.8-56.8,80-74.5C182.3,9.6,216.8,0,252.5,0s70.2,9.6,102.6,28.6
	c30.2,17.7,57.1,42.8,80,74.5C480.2,165.6,505,248,505,335c0,87-24.8,169.4-69.9,231.9c-22.9,31.7-49.8,56.8-80,74.5
	C322.7,660.4,288.2,670,252.5,670z M252.5,114.3c-37.3,0-73.1,21.2-100.8,59.7c-30.6,42.4-47.5,99.6-47.5,161s16.9,118.6,47.5,161
	c27.8,38.5,63.6,59.7,100.8,59.7s73.1-21.2,100.8-59.7c30.6-42.4,47.5-99.6,47.5-161s-16.9-118.6-47.5-161
	C325.6,135.5,289.8,114.3,252.5,114.3z"/>
</svg>
