<svg id="Layer_1" data-name="Layer 1" xmlns="http://www.w3.org/2000/svg" viewBox="0 0 800 800"><defs><style>.cls-1{fill:red;}.cls-2,.cls-5{fill:#ffffe5;}.cls-2{stroke:#bfbfac;stroke-miterlimit:10;stroke-width:7px;}.cls-3{fill:#fcee21;}.cls-4{fill:#bdb319;}.cls-6{fill:#bfbfac;}</style></defs><title>Vandalism</title><path class="cls-1" d="M732.6,709.64Q608.77,601.46,492.29,485.23q-44-43.87-86.8-88.85c22.07-24.68,43.37-50,64.22-75.83,36.07-44.61,71.6-89.84,111.63-131,40.93-42.1,86.6-79.78,139.52-105.82,6.3-3.1,8-12,4.66-17.79-3.76-6.42-11.46-7.77-17.79-4.66C607.77,110.46,535.3,198,466.75,283c-25.81,32-51.84,63.78-79.15,94.47q-61.27-65-120.18-132.17-60.9-69.46-119.17-141.17c-4.43-5.45-13.78-4.61-18.38,0-5.39,5.39-4.44,12.92,0,18.38Q233.59,250.15,345.6,370.68q12.19,13.11,24.49,26.14-8.19,8.86-16.56,17.58c-39.4,41-81,79.69-123.93,117C181.11,573.52,131,613.81,80.54,653.55c-5.52,4.35-4.55,13.83,0,18.38,5.45,5.45,12.85,4.36,18.38,0,89.34-70.32,177.6-142.5,257.64-223.42q16-16.17,31.38-32.84,92.14,96.66,189.41,188.25Q644.62,667.25,714.22,728c5.28,4.62,13.18,5.2,18.38,0C737.32,723.31,737.91,714.28,732.6,709.64Z"/><path class="cls-2" d="M680.15,589.31C674.9,624.22,640.84,574,633,567.86c-7-5.4-46-25-51-11.13-7.86,20.92,7.38,56.9,12.2,78.86,4.91,22.35,14.46,62.33-9,78.38-23.16,15.84-43.8-7.67-45.48-29.73-1.1-14.46,11.76-51-2.58-60.62-19.07-12.83-30.29,33.47-43.27,42.78-26.91,19.3-40.82-.37-34-27.55,4.66-18.58,17.34-34.07,21.05-53-23.73,1.62-88.15-17.6-53.74-51.37,22.27-21.85,40.18,4.48,62.47,4.48-2.5-16.67-24.65-23.68-27.75-42-5.18-30.58,39.15-53.23,50.52-18.32,10.64-11.06,13.35-6.75,17.25-22.85,1.48-6.12-.95-17.6-1-23.91-.2-15.65-1.33-42.14,18.24-46.92,45.46-11.11,14.78,74.89,11.92,93.51,18.37-13.87,36.48-27.37,51.69-44.69,9.22-10.49,21-28.6,38-21.66,36.67,14.92-33.84,74.18-47.41,84.88,13.6,12,33.81,14.9,48.46,26.09C670.19,538.91,684.17,562.6,680.15,589.31Z"/><path class="cls-3" d="M572.08,502.23c-38.09-41.74-89.33,26.65-49.67,57.89C553.55,584.67,599.8,532.61,572.08,502.23Z"/><path class="cls-4" d="M571.71,502.57a38.93,38.93,0,0,0-5.33-4.84,30.91,30.91,0,0,0-6.2-3.51,27,27,0,0,0-13.39-1.89,35.67,35.67,0,0,0-12.17,3.77,52.78,52.78,0,0,0-19.49,17.53A34.13,34.13,0,0,0,510,526.49a30,30,0,0,0,.92,13.82A28.88,28.88,0,0,0,518,551.94a40.28,40.28,0,0,0,5.16,4.35l1.39.95c.47.29,1,.53,1.42.8l1.39.82c.48.23,1,.43,1.45.64a26,26,0,0,0,12,2.27,30.51,30.51,0,0,0,11.83-3.55,46.77,46.77,0,0,0,10.37-7.5,50.06,50.06,0,0,0,8.23-10.09,51.53,51.53,0,0,0,5.66-11.91A28.86,28.86,0,0,0,578,515.16,25.33,25.33,0,0,0,571.71,502.57Zm.74-.67a42,42,0,0,1,8.11,12.5,37.72,37.72,0,0,1,2.87,15.31,38.55,38.55,0,0,1-3.71,15.53,48,48,0,0,1-9.26,13.1,45.31,45.31,0,0,1-13.29,9.31A38.27,38.27,0,0,1,541,571.22a30.83,30.83,0,0,1-16-4.67,38.28,38.28,0,0,1-11.26-11.19,42.28,42.28,0,0,1-6-14.18,48,48,0,0,1-.87-15.1,59.65,59.65,0,0,1,3.37-14.89A44.38,44.38,0,0,1,518,497.62,35.66,35.66,0,0,1,530.91,488,29.44,29.44,0,0,1,547,486,34.34,34.34,0,0,1,561.4,492a62.27,62.27,0,0,1,5.83,4.68c.89.86,1.82,1.66,2.66,2.56S571.6,501,572.45,501.89Z"/><path class="cls-5" d="M311.11,141.46c-9.84,7.72-32.8,14-38.9,24.91-11,19.69,16.42,15.91,30.4,21.16,13.7,5.15,26.35,20.34,11.91,35.1-6.45,6.59-13,2.23-15.66,10.27-2,5.94,8.45,18,2.64,23.61-5.31,5.09-17.71-5.22-23.67-2-10.12,5.47-5,24.71-16.48,32.35-10.09,6.71-24.77-1.11-32.33,6.74-6.91,7.18-1.78,30.21-1.73,39.81.08,17.63-7.44,71.34-35.59,43.55-21.13-20.86-2.65-59.15-17.62-82.29-8.73,26.43-3.06,81.61-50.87,57.41-45.66-23.11-2.2-78.36,6-107.88-41.48,11-58.08-33.8-28.58-59.5,24.07-21,61.82-16.42,39.79-56.58C133.2,115,120.31,107.34,127,90.31c5.35-13.65,20.28-19.46,34-18.72,19.23,1,35.63,13.64,40.18,32.13,2.93,11.9-5.9,31.16,1.82,41.35,11-9.73,24.94-14.81,36.42-23.71C251.89,111.65,260.76,96,277.57,93,297.39,89.47,333.15,124.16,311.11,141.46Z"/><path class="cls-6" d="M311.33,141.74a80.67,80.67,0,0,1-13.1,7.52c-4.5,2.22-9,4.37-13.37,6.84a53.19,53.19,0,0,0-6.22,4.11,23,23,0,0,0-5.14,5.23,17.25,17.25,0,0,0-1,1.54c-.27.55-.57,1.09-.82,1.65a17.2,17.2,0,0,0-1.16,3.43,6.63,6.63,0,0,0,1.5,6.4,14.74,14.74,0,0,0,6.32,3.2,65.34,65.34,0,0,0,7.28,1.46c4.93.77,10,1.26,14.94,2.59A35.39,35.39,0,0,1,314.24,193a27.71,27.71,0,0,1,5.19,6,19.7,19.7,0,0,1,2.93,7.56,17.58,17.58,0,0,1-.69,8.21,23.3,23.3,0,0,1-3.94,7.1c-.4.54-.85,1-1.29,1.53a17.16,17.16,0,0,1-1.45,1.47,16.24,16.24,0,0,1-1.66,1.35,17.54,17.54,0,0,1-1.85,1.1c-2.54,1.33-5.39,1.74-7.26,2.5a4.69,4.69,0,0,0-2.09,1.54,7,7,0,0,0-.7,1.16l-.26.72-.14.35c0,.11,0,.17-.06.25a6.51,6.51,0,0,0,.23,2.69,29.54,29.54,0,0,0,1.09,3.29c.87,2.27,1.91,4.6,2.71,7.2a19.39,19.39,0,0,1,.85,4.25,9.44,9.44,0,0,1-.91,5,8.33,8.33,0,0,1-1.65,2.22,8,8,0,0,1-2.44,1.56,10.52,10.52,0,0,1-5,.53,39.9,39.9,0,0,1-7.84-2,32.34,32.34,0,0,0-6.62-1.72,4,4,0,0,0-2.1.26,1.14,1.14,0,0,0-.23.14l-.28.18a4.2,4.2,0,0,0-.53.39,7.47,7.47,0,0,0-1,.93,14.67,14.67,0,0,0-2.71,5.56c-.66,2.2-1.13,4.62-1.68,7.1a58.12,58.12,0,0,1-2.1,7.66,23.16,23.16,0,0,1-4.32,7.49,19.63,19.63,0,0,1-3.43,3,18.84,18.84,0,0,1-4,2A27.57,27.57,0,0,1,250.7,293c-2.69.11-5.25,0-7.71-.06a33.32,33.32,0,0,0-6.83.39,8.91,8.91,0,0,0-4.93,2.49A10.79,10.79,0,0,0,229,301c-.83,4.39-.65,9.34-.33,14.22s1,9.84,1.29,15c.08,1.27.12,2.68.09,4s-.09,2.59-.17,3.88q-.25,3.85-.73,7.65a124.09,124.09,0,0,1-2.81,15.1A67.58,67.58,0,0,1,221,375.46a29.5,29.5,0,0,1-4.65,6.65,14.81,14.81,0,0,1-7.42,4.4,14.09,14.09,0,0,1-8.55-1,27.47,27.47,0,0,1-6.78-4.35c-1-.84-2-1.74-2.88-2.65-.47-.45-.9-1-1.35-1.45a17.8,17.8,0,0,1-1.29-1.51,34.88,34.88,0,0,1-4.19-6.7,44.16,44.16,0,0,1-2.64-7.36,61.59,61.59,0,0,1-1.37-7.6c-1.16-10.19-.36-20.28-.43-30.24a84,84,0,0,0-1.19-14.79,46.83,46.83,0,0,0-1.89-7.08,36.51,36.51,0,0,0-3.2-6.53l1.92-.25A100.11,100.11,0,0,0,172,308.14c-.81,4.46-1.5,9-2.29,13.46s-1.65,9-2.84,13.46a56.1,56.1,0,0,1-5,13,29.92,29.92,0,0,1-2,3c-.37.47-.71,1-1.1,1.41l-1.24,1.31a18.52,18.52,0,0,1-6,4A20.07,20.07,0,0,1,148,358.9c-.59.13-1.2.17-1.8.26a11.82,11.82,0,0,1-1.8.16,30.27,30.27,0,0,1-7.1-.59,55.42,55.42,0,0,1-13.22-4.55l-1.58-.73-1.54-.84c-1-.58-2.08-1.09-3.07-1.73l-2.93-2c-1-.69-1.84-1.5-2.76-2.25a33.52,33.52,0,0,1-8.51-11.48,37.16,37.16,0,0,1-3-14c-.26-9.55,2.13-18.75,5.12-27.46s6.78-17.14,10.53-25.44c1.88-4.15,3.77-8.28,5.51-12.42a102.18,102.18,0,0,0,4.5-12.47l3.55,3.59a57.1,57.1,0,0,1-11.78,1.85,39.66,39.66,0,0,1-12.08-1.41A32.56,32.56,0,0,1,95,241.91a31.63,31.63,0,0,1-8.13-9.4,36.12,36.12,0,0,1-3.91-24,44.48,44.48,0,0,1,10.59-21.62c5.33-6.1,12-10.64,18.81-14.31s13.88-6.55,20.11-10c.76-.45,1.55-.87,2.25-1.35l1.09-.7,1-.74c.71-.48,1.27-1,1.91-1.54a18.68,18.68,0,0,0,1.6-1.68,12.17,12.17,0,0,0,3-8,28.29,28.29,0,0,0-2-9.63,68.83,68.83,0,0,0-4.56-9.62,86.69,86.69,0,0,0-6.11-8.9,66.58,66.58,0,0,1-6.54-10,24.48,24.48,0,0,1-2.63-12.8l.14-1.65c.06-.55.21-1.06.31-1.6a20.36,20.36,0,0,1,.81-3.11,30.56,30.56,0,0,1,2.49-5.86,31,31,0,0,1,8.34-9.58,36.8,36.8,0,0,1,11-5.72,45.08,45.08,0,0,1,12-2.1c1,0,2-.07,3.05,0l1.52,0,1.51.14a56,56,0,0,1,6,.87,47.45,47.45,0,0,1,21.5,10.76,45,45,0,0,1,8,9.16,46.37,46.37,0,0,1,5.16,11l.81,2.92a23.59,23.59,0,0,1,.52,3.2,38.61,38.61,0,0,1,0,6.13c-.27,4-.88,7.71-1.39,11.4a70.87,70.87,0,0,0-.88,10.76,16.11,16.11,0,0,0,2.5,9.2l-3.7-.37c5.5-4.68,11.65-8.26,17.73-11.61s12.16-6.52,17.7-10.41,10.28-8.79,15.27-13.62,10.31-9.63,16.78-12.7A31.5,31.5,0,0,1,279,91.94a9.7,9.7,0,0,1,1.36,0c.45,0,.91,0,1.35,0a24.59,24.59,0,0,1,2.66.36l1.31.26,1.28.35a26.21,26.21,0,0,1,2.52.82,51.85,51.85,0,0,1,24,19.61,32,32,0,0,1,4.28,9.56,21.74,21.74,0,0,1,.65,5.24,17.07,17.07,0,0,1-.92,5.21A18.14,18.14,0,0,1,311.33,141.74Zm-.43-.55a17.4,17.4,0,0,0,5.91-8.08,16.27,16.27,0,0,0,.84-5,20.91,20.91,0,0,0-.67-5,31.08,31.08,0,0,0-4.23-9.25,45.16,45.16,0,0,0-6.59-7.84A48.73,48.73,0,0,0,289,95.16a23.53,23.53,0,0,0-9.84-1.44,29.67,29.67,0,0,0-9.51,3c-6,3.07-11,7.8-15.72,12.77S244.5,119.73,238.77,124s-11.75,7.75-17.64,11.29S209.5,142.48,204.61,147l-2,1.83-1.71-2.2a17.78,17.78,0,0,1-2.94-5.88,26.77,26.77,0,0,1-1-6.16,72,72,0,0,1,.59-11.7c.42-3.77.91-7.45,1-11a32.53,32.53,0,0,0-.16-5.13,17.21,17.21,0,0,0-.45-2.35l-.76-2.49a39.86,39.86,0,0,0-4.56-9.28,38.34,38.34,0,0,0-6.91-7.68,41.81,41.81,0,0,0-18.49-9,49,49,0,0,0-5.16-.7l-1.3-.12-1.29,0c-.86,0-1.72,0-2.58,0A37.9,37.9,0,0,0,146.87,77c-6.45,2.12-12.07,6.28-15.14,12a23.12,23.12,0,0,0-1.86,4.5,13.82,13.82,0,0,0-.59,2.34c-.07.39-.19.78-.22,1.17L129,98.14a16.88,16.88,0,0,0,1.87,9c2.94,5.91,8.42,11.44,12.42,18.5a76,76,0,0,1,5.06,10.74,35.15,35.15,0,0,1,2.43,12.34,20.46,20.46,0,0,1-1.28,6.73l-.3.82-.39.78c-.27.51-.51,1.05-.82,1.54a21.37,21.37,0,0,1-2,2.75,26,26,0,0,1-2.31,2.37c-.82.67-1.63,1.4-2.48,2l-1.27.9-1.29.82c-.86.56-1.73,1-2.59,1.52-3.47,1.92-6.95,3.48-10.35,5.06s-6.75,3.13-10,4.83c-6.42,3.38-12.38,7.43-17,12.63a37.78,37.78,0,0,0-9.19,18.25,29.64,29.64,0,0,0,3,19.7,25.72,25.72,0,0,0,15.34,12.18,33.61,33.61,0,0,0,10.2,1.32,52.1,52.1,0,0,0,10.46-1.51l4.95-1.18L132,245a107.35,107.35,0,0,1-5,13.12c-1.87,4.22-3.85,8.34-5.81,12.44-3.92,8.21-7.85,16.37-11,24.77s-5.56,17.09-5.53,25.82a33,33,0,0,0,2.42,12.61,30,30,0,0,0,7.41,10.43c.83.7,1.61,1.46,2.49,2.12l2.68,1.9c.91.62,1.9,1.12,2.84,1.69l1.44.83,1.51.73A52.6,52.6,0,0,0,137.89,356c4.25.91,8.76,1.1,12.66-.58a16,16,0,0,0,5.28-3.45l1.12-1.15c.36-.4.67-.85,1-1.27a27.53,27.53,0,0,0,1.83-2.71,52.26,52.26,0,0,0,4.88-12.39c1.18-4.34,2.05-8.79,2.85-13.26s1.51-9,2.34-13.47A112.53,112.53,0,0,1,173,294.32l.7-2.19,1.22,1.95a38.65,38.65,0,0,1,3.46,6.94,49,49,0,0,1,2,7.43,93.13,93.13,0,0,1,1.36,15.17c.24,10.08-.41,20.14.93,29.9a58.65,58.65,0,0,0,1.48,7.17,41,41,0,0,0,2.61,6.72,31.49,31.49,0,0,0,3.93,5.93,15.13,15.13,0,0,0,1.19,1.32c.42.42.8.87,1.25,1.27.88.83,1.78,1.63,2.72,2.37a23.78,23.78,0,0,0,5.93,3.6,10.1,10.1,0,0,0,6.16.62,10.66,10.66,0,0,0,5.21-3.36,25.28,25.28,0,0,0,3.79-5.76,63.11,63.11,0,0,0,4.6-13.72,119.08,119.08,0,0,0,2.32-14.54c.24-2.45.42-4.9.51-7.34,0-1.22.07-2.44.06-3.64s-.07-2.31-.17-3.54c-.45-4.84-1.13-9.87-1.56-15-.21-2.55-.37-5.12-.38-7.75a44.87,44.87,0,0,1,.59-8,23,23,0,0,1,1.16-4.21,12.71,12.71,0,0,1,2.57-4.17,14,14,0,0,1,3.87-2.86,17.12,17.12,0,0,1,4.34-1.46,39,39,0,0,1,8.16-.53c2.56,0,5,.15,7.34,0,4.67-.14,8.71-1.37,11.4-4.36s4-7.5,5.09-12.29c.56-2.41,1.06-4.92,1.86-7.52a20.4,20.4,0,0,1,4-7.76,8.38,8.38,0,0,1,.84-.86,8.63,8.63,0,0,1,.93-.79,9.48,9.48,0,0,1,1-.7l.52-.31a4.65,4.65,0,0,1,.59-.31A9.68,9.68,0,0,1,282,251a36.67,36.67,0,0,1,7.89,2.17,35.78,35.78,0,0,0,6.64,1.93,5.33,5.33,0,0,0,2.41-.12,2.59,2.59,0,0,0,.73-.43,3,3,0,0,0,.6-.77,4.4,4.4,0,0,0,.44-2.28,14.4,14.4,0,0,0-.54-3.13c-.59-2.22-1.52-4.52-2.36-7a33.87,33.87,0,0,1-1.13-3.9,10.73,10.73,0,0,1-.1-4.77c.06-.22.12-.47.19-.66l.21-.52.43-1a11.31,11.31,0,0,1,1.31-2,9.14,9.14,0,0,1,4-2.76,36.28,36.28,0,0,1,3.85-1.05,16.75,16.75,0,0,0,3.19-1.07,15,15,0,0,0,5.11-4.21,19.69,19.69,0,0,0,3.54-5.86,14.25,14.25,0,0,0,.79-6.62c-.53-4.51-3.24-8.7-6.71-12a32.35,32.35,0,0,0-12.44-7.2c-4.68-1.4-9.67-2.05-14.62-3a66.84,66.84,0,0,1-7.42-1.72,16.43,16.43,0,0,1-6.87-3.72,7.21,7.21,0,0,1-1.87-3.63,9.2,9.2,0,0,1,.16-4,18.37,18.37,0,0,1,1.31-3.65c.27-.58.59-1.14.88-1.7a18.51,18.51,0,0,1,1.06-1.63,24,24,0,0,1,5.46-5.36,62.62,62.62,0,0,1,6.37-4.11c4.4-2.47,9-4.6,13.46-6.79A80.13,80.13,0,0,0,310.89,141.18Z"/><path class="cls-3" d="M185.92,183.17c-53.45,18.32-11.13,92.55,33.32,68.62C254.16,233,224.83,169.83,185.92,183.17Z"/><path class="cls-4" d="M186.08,183.64a38.93,38.93,0,0,0-6.56,3,30.91,30.91,0,0,0-5.69,4.29,27,27,0,0,0-7.07,11.53,35.67,35.67,0,0,0-1.39,12.67A52.79,52.79,0,0,0,173.69,240a34.13,34.13,0,0,0,9.77,9.82,30,30,0,0,0,13,4.66A28.88,28.88,0,0,0,210,252.58a40.28,40.28,0,0,0,6-3l1.42-.9c.45-.32.87-.66,1.3-1l1.3-.95c.4-.35.78-.72,1.17-1.08a26,26,0,0,0,6.85-10.08,30.51,30.51,0,0,0,1.45-12.26,46.77,46.77,0,0,0-2.76-12.5,50.05,50.05,0,0,0-6-11.57,51.52,51.52,0,0,0-8.67-9.94,28.86,28.86,0,0,0-12-6.42A25.32,25.32,0,0,0,186.08,183.64Zm-.32-.95a42,42,0,0,1,14.69-2.46,37.72,37.72,0,0,1,15.19,3.46,38.55,38.55,0,0,1,12.77,9.59A48,48,0,0,1,236.74,207,45.31,45.31,0,0,1,240,222.9a38.27,38.27,0,0,1-3.18,16.29A30.83,30.83,0,0,1,226.16,252a38.28,38.28,0,0,1-14.75,5.87,42.28,42.28,0,0,1-15.41-.11,48,48,0,0,1-14.19-5.22,59.65,59.65,0,0,1-12.32-9,44.38,44.38,0,0,1-9.33-12.59,35.66,35.66,0,0,1-3.65-15.65,29.44,29.44,0,0,1,4.5-15.61,34.34,34.34,0,0,1,11.28-10.78,62.27,62.27,0,0,1,6.62-3.48c1.14-.48,2.25-1,3.41-1.42S184.61,183.12,185.76,182.7Z"/></svg>