<svg id="Layer_1" data-name="Layer 1" xmlns="http://www.w3.org/2000/svg" viewBox="0 0 800 800"><defs><style>.cls-1{fill:red;}.cls-2{fill:red;}</style></defs><title>Vandalism</title><path class="cls-1" d="M149.43,106.43a43.51,43.51,0,0,0-17.29-11.28c17.79-12.67,28.66-41.52,8.92-57.39C126,25.65,77,27.31,60.92,35.87c-5.43,2.89-15.83,4.05-10.24,13.57q3,4.79,8.62,3.34Q75.18,42.67,73.78,61.4c13.71,22.2,13.47,67.88,16.06,93.48-16.5-1.57-22.14,4.53-10.31,14.86-4.9-4.28,21.12,6.91,20.14,6.95,5.56-.21,6.39-4.78,11.62-6.06C138.05,164.09,178.74,138.72,149.43,106.43ZM139.35,139c-4.14,7.18-16.22,17.42-25.48,15.85-13.08-2.21-8.82-9-10.77-23.54A716,716,0,0,0,86.78,47.49c9.36-.85,42.39-4.42,48.1,6.36,7.76,14.67-11.9,26.71-20.54,33-13.76,10-23.43,11.36-1.47,19.64C126.67,111.66,151.92,117.16,139.35,139Z"/><path class="cls-1" d="M209.48,153c-5.43-9.28-22.12,1.62-28.74,3.57.58-33.84,6.52-65.93,12.28-99.09,5.38-31-11.28-23.09-16.85,2.15-6.59,29.83-13.57,63.9-11.4,94.61,1.37,19.35,1.18,21.65,20.86,17.53C192.2,170.43,216.46,165,209.48,153Z"/><path class="cls-1" d="M335.26,165.12c-11.71-19-18.1-33.77-10.27-54.74,5-13.51,17.55-34.25,4.14-48-14.53-14.94-37.84-.83-54.21-4-1.41-.27-3.6-8.89-9-9.75-1.54-.25-14.39,5.62-15.54,6.53C231.73,69.84,200.76,155,240,161.88c19.29,3.4,24.41-17.78,28.57-31.64,3.7-12.35,6.71-24.9,7.93-37.75,1.58-16.63-3.8-18.95,13.75-20.29l-1.62,49.32c-.27,8.27-5.23,31.26-1.21,37,15.68,22.37,16.47-14.32,16.88-26.84,2,10.84,7,29.52,14.77,37.29C323.85,173.8,344.2,179.64,335.26,165.12ZM258,107.47c-2,9.13-9.57,52.47-19.74,31.16-8.67-18.19,12.55-57.15,22.09-71.59C262.48,80.51,260.93,94.26,258,107.47ZM317.9,86.74C315.63,97.25,308,105,304.81,115l1.42-43.22C317.7,72.15,320.48,74.79,317.9,86.74Z"/><path class="cls-2" d="M479.86,338.83C474.69,317.44,457,313.7,439,306.93c-25-9.42-21.55-22.87-38.33-41.27-22.56-24.75-79.19-26.88-109.11-18.45-48.46,13.66-42.39,70-40.83,108.32.59,14.52,3.32,43-2.24,57.5-2.81,7.33-9.47,9.88-13.14,15.37-6.2,9.28-9.51,21.91-14.56,31.89-18.75,37.06-44.07,65.15-62.58,100.26-14.65,27.79-53.46,54.87-39.3,88.32,7.29,17.22,22.34,27.31,9.73,48.41-6,10-32.88,18.51-33.39,30.29-.63,14.54,32.38,28.15,43.57,33,29.21,12.53,33.05,13.4,31.15-17.26,12,3.84,42.64,16.66,29.48-7.71,21.45,1,50,11.72,24.65-15.77-22.63-24.52-11.43-37.12-17.36-66.43,7.86,10.09,29.61,16,34.4,24.54,6.16,11-7.91,19.36-7,29.54,1.07,11.35,16.84,13.35,26.78,17.21,14,5.43,31.25,16.22,46.06,17.9,24.82,2.82,2.37-11.8-5.49-25.17,8.54,1.76,18.87,6.66,27.17,5.59,4.59-.59,5.61-7.72.65-9.86,7.09,0,44.74,13,34.86-4.27-8.34-14.55-43.47-8-44.26-30.61-.29-8.32,8.56-13.63,12.67-20.31,6.44-10.48,9.83-20.93,11.59-33.11,3.7-25.72-2-52.21,5.22-77.55,9.63,10.8,23.28,25,37.79,29,20.16,5.68,27.87-5.26,14.77-21.91-5.15-6.55-14.24-9.33-19.91-16.64-4-5.19-9.27-14.3-11.22-20.56-1.64-5.25.17-9.49-1.51-16.64-3.25-13.8-9.72-26.93-12.78-41,23.79,8.17,69.86,6.71,89.67-11.14,5.56-5,18.18-24,13.6-32.31-2.91-5.29-9.86-8.61-12.9-.1-4.09-13.59-10.74-2.18-16.36-2.29,3.18.06-14.07,2.91-9.07,1.29q-5.14-4.76-10.07-1.42a11.45,11.45,0,0,0-7.14,5.84,8.64,8.64,0,0,1-7.41,5.17,15.77,15.77,0,0,0-5.29-5.34c-4.85,0-28,1.39-32-4.29-4.94-7.06,6.88-11.29,9.17-24.15C384.32,416,389.4,407,404.65,386.37c14.67,23.4,20.25,20.35,31.09-3.08,9,17.89,15.41,15.3,18.55-3.73,10,6,18.34,12.54,26.17,3.53C485.09,377.75,481.51,345.68,479.86,338.83Zm-10.39,36.25c-7.82-3.44-26.32-18.74-25.59.37-9.85-17.47-20.05,7.62-23.27,14.8-15.9-25.19-18.48-18.88-35.56,4.26-6-7-8.78-22.13-19.06-20.53-11.2,1.74-6.74,14.83-10.38,23.62-5-2.16-17.44-17.7-20.58-5.25-.19.76,17,33.26,17.79,33.9,6.14,5.11,26,.42,32.56,1.25,8.46,1.07.91,12.2,17.56,7.24,2.11-.63,12-8.07,11.46-11.23,6.4,9.31,9.82,3,17.52,3.57a17.57,17.57,0,0,0,5.55-4.44q2.94,6.07,8.81,6.66c-7.94,22.77-48.35,24.84-68.17,23.18-5.85-.49-32-11.89-35.17-9.45-7,5.47,1.66,7.58,1.56,11.64-.26,11.48,7.36,22.21,8.48,33.31,1.4,13.78-.33,13.08,3.91,26.82,2.32,7.54,39.23,57.57,42.31,52.93-9.24,13.91-62-53.74-65-57.09-8.23-9.24-18.46-19.68-13.75-.45,2.51,10.27,18.9,17.89,20.5,27.85,1.78,11.09-5.92,30.83-6.13,43.31-.26,16.19,1.3,32.89-2.61,48.79-6.32,25.64-42.58,52.09-6.49,72.14-6.38.29-24.71,1.21-28.76,3.08-11,5.1-12.67,5.74-3.07,20.35L247.1,707.52c11.12-19.74,9.46-29.81-6.78-42-8.44-6.35-34.7-34.23-43.72-31.51-10.22,3.08-1.25,30.77-1.08,40.52.44,24.34,2.55,33.87,20.15,51.63-10.75-1.63-37.73-7.25-28,10.8-22.67-6.4-29.67-7.25-27.09,19.85a157.8,157.8,0,0,1-53.43-27.65C117,717,133,714.3,140.21,698.76c9.21-19.93.53-32.78-7.77-50.07-15.72-32.76,23.61-59.26,38.45-88.88,29.86-59.64,91.91-113,89.84-184.57-.88-30.51-7.31-63,6.74-91.88,16.08-33,53.91-30.64,86.27-26.28,12.7,1.71,26.41,4.44,36.18,13.45,10.11,9.32,11.33,23.94,20.72,33.66,12.26,12.71,30.28,11.1,44.33,20C473.74,336.05,470.32,355,469.46,375.08Z"/><path class="cls-2" d="M328.61,586.81C317.87,572.91,302,522.93,284.29,519c-15.16-3.34-1,15.29,2.35,20.08A410.28,410.28,0,0,1,312,580.4c-17.57-8.86-35.72-26.11-48.74-40.69-3.27-3.66-15.5-24.63-20.26-23.2-10.16,3.05-1.8,12.5,1.33,17.72,10.38,17.33,29.9,32.53,45.66,44.62C293.15,581.28,342.09,604.26,328.61,586.81Z"/><path class="cls-2" d="M338.46,315.73c-2.54-22.3-33.28-24.34-28.6.69C313.61,336.46,340.86,336.76,338.46,315.73Z"/><path class="cls-2" d="M606.87,442.45c-4.93-31.54-24.37-50.3-49-67.6-13.45-9.45-14.67-7.11-14.22-25.31.36-15,4.15-30.11,6.39-44.86,2.86-18.78,16.29-70.6-16.43-59.75-5,1.66-8.14,6.91-12.81,9.12-3.27,1.55-16.67,3.84-18.16,5.21-10.87,10,1.71,15.06,15.13,9.34q5.72,76.39,18.43,152c1.67,9.93,4.59,56.18,17.39,34.77,5.8-9.71-11.21-65.44-12.8-76.56,17.79,10.76,33.43,17.88,44.7,36.89,3.88,6.55,5.32,20.31,9.82,25.18C596.05,441.7,609.39,458.56,606.87,442.45Zm-78.36-177.4c-.35-4.74,8.14-10.91,13.39-12.39,2.51-.7-6.16,71.16-7.21,78.59Q530.94,298.22,528.51,265.05Z"/><path class="cls-2" d="M668.35,403q-28.62-72.45-61.7-143c-7.15-15.24-14.3-30.06-21.74-45.15-13.68-27.73-20.91-17.61-8.69,7.18,20.37,41.34,17.64,99.28,23.95,145,1.07,7.74,4.67,61.54,15.92,53.26,7.55-5.55-5.22-55.59-6.23-63,5.65,4.75,19.81-8.81,22.23-13.68q9.94,23.26,19.4,46.71c1.55,3.84,4.05,16.15,8.49,17.46C662.17,408.41,671.61,411.29,668.35,403ZM623,337.47c-4.33,3.85-10.31,8.12-14.12,12.66q-5.37-40.21-9.86-80.52,15.52,33.26,30.05,67Z"/><path class="cls-2" d="M730.53,193q-1.8-6.89-8.45-4.71Q716.27,196,720.3,206c-.7,17.12,1.6,34.86,1.93,52q1,52-1.66,104.08c-11.84-29.44-21.52-61-25.69-92.56-1.41-10.67,1.39-41.71-5.18-49.18-16.49-18.76-6,46.44-5.59,51.08,3.19,33.69,2.66,68.15.68,101.89a929.35,929.35,0,0,1-29.92-137.47c-.82-5.87-1.45-49.06-13.08-42.85-8.3,4.44,3.32,51.93,4.59,60.08a939.25,939.25,0,0,0,28.9,126.86c2.45,8.11,7.85,38.44,18.31,22.2,9.06-14.06,3.48-58,3.48-74.24,4,13.26,11.39,51.4,22.87,60.25,15.48,11.93,12-33.76,12.33-41.22A1465.39,1465.39,0,0,0,730.53,193Z"/><path class="cls-2" d="M792.86,272.57c-3.49-21.08-15.76-39.63-19.11-60.67-3-18.77,10.27-46.46-.17-63.46-9-14.66-21.33-10.53-35.66-8.73-.74.09-4.55-9.2-9.43-4.37-6.22,6.15,4.11,29.39,5.88,37,6.39,27.42,12.42,55,16.75,82.8,1.7,10.9.36,71.49,7.05,77.59,17.7,16.13,9.93-27.28,8.92-38.42-2.41-26.72-11.06-52.52-3.6-77.8,3.56,15,10,29.44,15,44,1.2,3.51,1.83,15.4,5.53,17C786.74,278.58,794.22,280.77,792.86,272.57ZM754,209.93c-2-9.85-27.63-82,6.23-60.69C777.07,159.88,758,196.91,754,209.93Z"/></svg>