<svg xmlns="http://www.w3.org/2000/svg" width="800" height="800" viewBox="0 0 800 800" preserveAspectRatio="xMidYMid meet" style="width: 100%; height: 100%;"><defs><clipPath id="animationMask_rpOT83PmdU"><rect width="800" height="800" x="0" y="0"></rect></clipPath></defs><g clip-path="url(#animationMask_rpOT83PmdU)"><g transform="matrix(0.6358940572532504,-0.6358940572532503,0.6358940572532503,0.6358940572532504,-74.09517727379784,656.1629859221991)" opacity="1" style="-webkit-user-select: none;"><g opacity="1" transform="matrix(1,0,0,1,641.5,168.89)"><path fill="rgb(255,255,102)" fill-opacity="1" d="M0 0 M-336.75,-110 C-336.75,-110 -336.75,110 -336.75,110 C-336.75,110 -3.038,138.32 -3.038,138.32 C-3.038,138.32 336.75,167.155 336.75,167.155 C336.75,167.155 336.75,-167.155 336.75,-167.155 C336.75,-167.155 158.917,-152.064 158.917,-152.064 C158.917,-152.064 56.407,-143.364 56.407,-143.364 C56.407,-143.364 -9.703,-137.754 -9.703,-137.754 C-9.703,-137.754 -86.294,-131.254 -86.294,-131.254 C-86.294,-131.254 -139.679,-126.724 -139.679,-126.724 C-139.679,-126.724 -217.694,-120.103 -217.694,-120.103 C-217.694,-120.103 -336.75,-110 -336.75,-110z"></path></g><g opacity="1" transform="matrix(1,0,0,1,641.5,168.89)"><path fill="rgb(255,255,118)" fill-opacity="1" d="M0 0 M-336.75,-72.717 C-336.75,-72.717 -336.75,72.717 -336.75,72.717 C-336.75,72.717 -246.407,77.785 -246.407,77.785 C-246.407,77.785 336.75,110.5 336.75,110.5 C336.75,110.5 336.75,-110.5 336.75,-110.5 C336.75,-110.5 133.257,-99.084 133.257,-99.084 C133.257,-99.084 -16.503,-90.683 -16.503,-90.683 C-16.503,-90.683 -164.418,-82.385 -164.418,-82.385 C-164.418,-82.385 -336.75,-72.717 -336.75,-72.717z"></path></g><g opacity="1" transform="matrix(1,0,0,1,641.5,168.89)"><path fill="rgb(255,255,133)" fill-opacity="1" d="M0 0 M-336.75,-29.284 C-336.75,-29.284 -336.75,29.284 -336.75,29.284 C-336.75,29.284 -12.035,36.62 -12.035,36.62 C-12.035,36.62 336.75,44.5 336.75,44.5 C336.75,44.5 336.75,-44.5 336.75,-44.5 C336.75,-44.5 -16.486,-36.52 -16.486,-36.52 C-16.486,-36.52 -336.75,-29.284 -336.75,-29.284z"></path></g><g opacity="1" transform="matrix(1,0,0,1,641.5,292.825)"><path fill="rgb(234,234,117)" fill-opacity="1" d="M0 0 M336.75,-15.615 C336.75,-15.615 336.75,-0.815 336.75,-0.815 C330.311,2.3850000000000002 322.35,6.154999999999999 312.75,10.565 C305.8,13.765 306.93899999999996,27.334 305.39,40.555 C305.39,40.555 133.744,25.99 133.744,25.99 C133.744,25.99 68.769,20.476 68.769,20.476 C68.769,20.476 -16.237,13.263 -16.237,13.263 C-16.237,13.263 -136.393,3.067 -136.393,3.067 C-136.393,3.067 -210.497,-3.222 -210.497,-3.222 C-210.497,-3.222 -336.75,-13.935 -336.75,-13.935 C-336.75,-13.935 -336.75,-29.205 -336.75,-29.205 C-336.59,-29.284999999999997 -336.42,-29.365 -336.25,-29.435 C-310.46,-40.555 -253.45,-30.095000000000002 -190.63,-24.126 C-158.43599999999998,-21.066000000000003 -126.654,-21.176 -99.976,-21.287 C-74.588,-21.393 -53.822,-21.499000000000002 -41.72,-18.876 C-32.894,-16.963 -11.474,-13.700000000000001 14.584,-10.3 C61.839,-4.134 124.346,2.4819999999999998 154.66,2.315 C226.67000000000002,1.914 300.9,-11.426 336.75,-15.615z"></path></g><g opacity="1" transform="matrix(1,0,0,1,617.477,51.409)"><path fill="rgb(255,255,194)" fill-opacity="1" d="M0 0 M-272.537,22.408 C-260.907,27.424 -251,28.37 -237.863,27.349 C-221.872,26.106 -201.096,21.948 -166.603,18.671 C-135.155,15.683 -104.10199999999999,15.718 -77.814,15.824 C-51.581999999999994,15.929 -30.095,16.106 -17.695,13.419 C-6.481,10.989 25.076,6.462 60.644,2.215 C103.816,-2.9400000000000004 152.897,-7.683 178.68,-7.77 C225.703,-7.927 274.80499999999995,-5.907 283.323,-19.718 C291.842,-33.528999999999996 244.10899999999998,-25.09 199.164,-22.753 C175.515,-21.524 129.704,-20.345 84.209,-18.258 C43.23800000000001,-16.378999999999998 2.524000000000001,-13.763000000000002 -21.514,-9.714 C-45.400999999999996,-5.69 -67.316,-2.402 -87.27,-0.084 C-109.693,2.521 -129.639,3.901 -147.118,3.723 C-165.516,3.536 -208.315,6.771 -239.291,11.113 C-263.93,14.565999999999999 -281.09,18.719 -272.537,22.408z"></path></g><g opacity="1" transform="matrix(1,0,0,1,307.425,111.935)"><path fill="rgb(230,230,230)" fill-opacity="1" d="M0 0 M29.295,53.045 C15.566000000000003,1.8049999999999997 -5.525000000000002,-17.945 -29.295,-20.945 C-20.275000000000002,-40.785 -9.465,-53.045 -2.175,-53.045 C12.114999999999998,-53.045 28.515,-5.945 29.295,53.045z"></path></g><g opacity="1" transform="matrix(1,0,0,1,297.695,258.655)"><path fill="rgb(179,179,179)" fill-opacity="1" d="M0 0 M23.835,2.635 C18.765,14.385 13.004999999999999,21.235 7.555,21.235 C-0.9359999999999999,21.235 -14.195,4.614000000000001 -23.835,-21.235 C-9.795000000000002,-6.354999999999999 4.095000000000002,3.864 23.835,2.635z"></path></g><g opacity="1" transform="matrix(1,0,0,1,299.25,176.755)"><path fill="rgb(204,204,204)" fill-opacity="1" d="M0 0 M37.5,-7.365 C37.5,30.955 30.85,64.715 22.28,84.535 C2.5400000000000027,85.765 -11.350000000000001,75.545 -25.39,60.665 C-26.990000000000002,56.385 -28.490000000000002,51.855 -29.85,47.105 C-34.46,31.034999999999997 -37.5,12.444999999999999 -37.5,-7.365 C-37.5,-38.015 -30.22,-65.745 -21.12,-85.765 C2.6499999999999986,-82.765 23.74,-63.015 37.47,-11.775 C37.49,-10.315000000000001 37.5,-8.845 37.5,-7.365z"></path></g><g opacity="1" transform="matrix(0.9856100000000001,0,0,0.99707,965.25,168.89)"><path fill="rgb(228,228,92)" fill-opacity="1" d="M0 0 M33.5,-168.89 C33.5,-168.89 33.5,168.89 33.5,168.89 C33.5,168.89 -33.5,163.2 -33.5,163.2 C-33.5,163.2 -33.5,-163.2 -33.5,-163.2 C-33.5,-163.2 33.5,-168.89 33.5,-168.89z"></path></g><g opacity="1" transform="matrix(1,0,0,1,964.759,169.89)"><path fill="rgb(172,172,69)" fill-opacity="1" d="M0 0 M26.991,0.15 C22.491,0.389 17.991,0.5469999999999999 13.491,0.75 C13.491,0.75 -0.009,1.2 -0.009,1.2 C-4.509,1.33 -9.009,1.719 -13.509,1.5 C-18.009,1.297 -22.509,0.977 -27.009,0.15 C-27.092,0.134 -27.147,0.05500000000000001 -27.131,-0.028 C-27.119,-0.092 -27.07,-0.13899999999999998 -27.009,-0.151 C-22.509,-0.978 -18.009,-1.298 -13.509,-1.5 C-9.009,-1.72 -4.509,-1.33 -0.009,-1.201 C-0.009,-1.201 13.491,-0.75 13.491,-0.75 C17.991,-0.548 22.491,-0.39 26.991,-0.151 C27.073999999999998,-0.146 27.137,-0.076 27.133,0.007 C27.128999999999998,0.085 27.066,0.145 26.991,0.15z"></path></g><g opacity="1" transform="matrix(1,0,0,1,964.759,200.333)"><path fill="rgb(172,172,69)" fill-opacity="1" d="M0 0 M26.989,0.707 C22.485,0.8799999999999999 17.983,0.9720000000000001 13.48,1.106 C13.48,1.106 -0.027,1.356 -0.027,1.356 C-4.529,1.4200000000000002 -9.033999999999999,1.7429999999999999 -13.532,1.456 C-18.029,1.1869999999999998 -22.524,0.801 -27.011,-0.094 C-27.093999999999998,-0.109 -27.148,-0.19 -27.131,-0.272 C-27.118,-0.337 -27.068,-0.383 -27.007,-0.394 C-22.494,-1.154 -17.990000000000002,-1.408 -13.487,-1.543 C-8.984,-1.696 -4.489999999999999,-1.24 0.009,-1.043 C0.009,-1.043 13.502,-0.394 13.502,-0.394 C17.999000000000002,-0.125 22.497,0.10100000000000003 26.993,0.406 C27.075999999999997,0.41200000000000003 27.137999999999998,0.48399999999999993 27.133,0.566 C27.128,0.6439999999999999 27.064,0.703 26.989,0.707z"></path></g><g opacity="1" transform="matrix(1,0,0,1,964.759,230.779)"><path fill="rgb(172,172,69)" fill-opacity="1" d="M0 0 M26.988,1.262 C22.48,1.367 17.975,1.393 13.469,1.461 C13.469,1.461 -0.043,1.511 -0.043,1.511 C-4.547,1.508 -9.059000000000001,1.7639999999999998 -13.553,1.41 C-18.046,1.075 -22.537,0.6219999999999999 -27.012,-0.339 C-27.095,-0.35600000000000004 -27.148,-0.437 -27.129,-0.519 C-27.116,-0.583 -27.065,-0.629 -27.004,-0.638 C-22.479,-1.3319999999999999 -17.971,-1.5190000000000001 -13.464,-1.588 C-8.958,-1.675 -4.470000000000001,-1.151 0.026,-0.887 C0.026,-0.887 13.513,-0.038 13.513,-0.038 C18.008,0.29700000000000004 22.503999999999998,0.589 26.996,0.961 C27.078999999999997,0.969 27.14,1.041 27.134,1.123 C27.128,1.2 27.063,1.2590000000000001 26.988,1.262z"></path></g><g opacity="1" transform="matrix(1,0,0,1,964.759,261.324)"><path fill="rgb(172,172,69)" fill-opacity="1" d="M0 0 M26.985,1.715 C22.474,1.7550000000000001 17.967,1.713 13.459,1.715 C13.459,1.715 -0.061,1.565 -0.061,1.565 C-4.567,1.494 -9.084,1.684 -13.575,1.264 C-18.066,0.862 -22.551000000000002,0.34199999999999997 -27.015,-0.684 C-27.097,-0.7040000000000001 -27.148,-0.785 -27.129,-0.867 C-27.115000000000002,-0.931 -27.062,-0.975 -27.001,-0.984 C-22.465000000000003,-1.611 -17.951,-1.731 -13.442,-1.733 C-8.932,-1.7530000000000001 -4.45,-1.163 0.045,-0.833 C0.045,-0.833 13.525,0.216 13.525,0.216 C18.016,0.618 22.509,0.978 26.999,1.417 C27.081,1.425 27.141,1.498 27.133,1.581 C27.125999999999998,1.657 27.06,1.7140000000000002 26.985,1.715z"></path></g><g opacity="1" transform="matrix(1,0,0,1,964.759,292.005)"><path fill="rgb(172,172,69)" fill-opacity="1" d="M0 0 M26.983,2.034 C22.468,2.0069999999999997 17.96,1.898 13.448,1.833 C13.448,1.833 -0.079,1.482 -0.079,1.482 C-4.587,1.346 -9.11,1.4689999999999999 -13.597,0.982 C-18.085,0.513 -22.566,-0.07199999999999984 -27.017,-1.166 C-27.099,-1.186 -27.149,-1.2690000000000001 -27.129,-1.35 C-27.114,-1.413 -27.06,-1.457 -26.999,-1.465 C-22.451,-2.0250000000000004 -17.931,-2.078 -13.419,-2.013 C-8.907,-1.966 -4.429,-1.31 0.063,-0.913 C0.063,-0.913 13.536,0.336 13.536,0.336 C18.024,0.8049999999999999 22.515,1.229 27.001,1.735 C27.084,1.744 27.142,1.818 27.133,1.901 C27.125,1.977 27.058,2.0349999999999997 26.983,2.034z"></path></g><g opacity="1" transform="matrix(1,0,0,1,964.759,322.678)"><path fill="rgb(172,172,69)" fill-opacity="1" d="M0 0 M26.981,2.362 C22.462000000000003,2.267 17.951,2.092 13.436,1.961 C13.436,1.961 -0.097,1.409 -0.097,1.409 C-4.607,1.206 -9.134999999999998,1.2610000000000001 -13.62,0.709 C-18.104,0.17399999999999993 -22.581,-0.47899999999999987 -27.019,-1.638 C-27.101,-1.6589999999999998 -27.15,-1.742 -27.128,-1.824 C-27.112000000000002,-1.887 -27.058,-1.9300000000000002 -26.998,-1.937 C-22.436,-2.4290000000000003 -17.913,-2.415 -13.397,-2.284 C-8.881,-2.1689999999999996 -4.409999999999999,-1.448 0.081,-0.984 C0.081,-0.984 13.547,0.465 13.547,0.465 C18.033,1 22.521,1.491 27.002,2.063 C27.084999999999997,2.0740000000000003 27.143,2.149 27.132,2.231 C27.123,2.307 27.056,2.363 26.981,2.362z"></path></g><g opacity="1" transform="matrix(1,0,0,1,964.759,139.447)"><path fill="rgb(172,172,69)" fill-opacity="1" d="M0 0 M26.993,-0.407 C22.497,-0.10099999999999998 17.999000000000002,0.124 13.502,0.393 C13.502,0.393 0.009,1.042 0.009,1.042 C-4.489,1.239 -8.984000000000002,1.696 -13.486,1.542 C-17.989,1.407 -22.494,1.154 -27.007,0.393 C-27.09,0.378 -27.146,0.3 -27.132,0.217 C-27.121000000000002,0.153 -27.070999999999998,0.105 -27.011,0.093 C-22.524,-0.802 -18.028,-1.1880000000000002 -13.531,-1.457 C-9.034,-1.744 -4.5280000000000005,-1.421 -0.027,-1.357 C-0.027,-1.357 13.48,-1.107 13.48,-1.107 C17.983,-0.972 22.485,-0.881 26.989,-0.708 C27.072,-0.704 27.137,-0.635 27.134,-0.552 C27.13,-0.47400000000000003 27.069,-0.413 26.993,-0.407z"></path></g><g opacity="1" transform="matrix(1,0,0,1,964.759,109.001)"><path fill="rgb(172,172,69)" fill-opacity="1" d="M0 0 M26.995,-0.961 C22.503,-0.589 18.008,-0.29700000000000004 13.514,0.038 C13.514,0.038 0.026,0.888 0.026,0.888 C-4.470000000000001,1.151 -8.958,1.675 -13.464,1.588 C-17.971,1.5190000000000001 -22.479999999999997,1.3319999999999999 -27.005,0.639 C-27.087999999999997,0.626 -27.145000000000003,0.548 -27.132,0.465 C-27.122,0.4 -27.073,0.35100000000000003 -27.013,0.339 C-22.538000000000004,-0.6219999999999999 -18.047,-1.075 -13.554,-1.41 C-9.06,-1.7639999999999998 -4.547999999999999,-1.508 -0.044,-1.511 C-0.044,-1.511 13.469,-1.461 13.469,-1.461 C17.974,-1.393 22.479,-1.367 26.987,-1.262 C27.069,-1.26 27.136,-1.19 27.134,-1.107 C27.132,-1.03 27.071,-0.968 26.995,-0.961z"></path></g><g opacity="1" transform="matrix(1,0,0,1,964.759,78.456)"><path fill="rgb(172,172,69)" fill-opacity="1" d="M0 0 M26.998,-1.416 C22.509,-0.9769999999999999 18.016,-0.619 13.524,-0.217 C13.524,-0.217 0.044,0.833 0.044,0.833 C-4.45,1.163 -8.933,1.752 -13.442,1.732 C-17.951,1.731 -22.466,1.611 -27.002,0.984 C-27.086,0.972 -27.144000000000002,0.896 -27.132,0.812 C-27.123,0.748 -27.075,0.6980000000000001 -27.016,0.684 C-22.552,-0.34299999999999986 -18.066,-0.8629999999999999 -13.575,-1.265 C-9.084999999999999,-1.684 -4.567,-1.4949999999999999 -0.062,-1.565 C-0.062,-1.565 13.458,-1.715 13.458,-1.715 C17.967,-1.713 22.474000000000004,-1.755 26.984,-1.716 C27.067,-1.715 27.134,-1.647 27.134,-1.564 C27.133,-1.487 27.073,-1.424 26.998,-1.416z"></path></g><g opacity="1" transform="matrix(1,0,0,1,964.759,47.774)"><path fill="rgb(172,172,69)" fill-opacity="1" d="M0 0 M27,-1.735 C22.515,-1.229 18.023,-0.804 13.535,-0.336 C13.535,-0.336 0.063,0.913 0.063,0.913 C-4.430000000000001,1.3090000000000002 -8.907,1.966 -13.42,2.013 C-17.932,2.078 -22.451,2.024 -27,1.465 C-27.083,1.4540000000000002 -27.143,1.378 -27.133,1.295 C-27.125,1.23 -27.077,1.18 -27.018,1.165 C-22.566000000000003,0.07299999999999995 -18.086000000000002,-0.514 -13.598,-0.982 C-9.11,-1.468 -4.588,-1.346 -0.08,-1.483 C-0.08,-1.483 13.447,-1.834 13.447,-1.834 C17.959,-1.899 22.468,-2.007 26.982,-2.035 C27.064999999999998,-2.035 27.133,-1.968 27.134,-1.885 C27.134,-1.808 27.075,-1.744 27,-1.735z"></path></g><g opacity="1" transform="matrix(1,0,0,1,964.759,17.102)"><path fill="rgb(172,172,69)" fill-opacity="1" d="M0 0 M27.002,-2.063 C22.521,-1.491 18.032,-0.9990000000000001 13.547,-0.464 C13.547,-0.464 0.08,0.984 0.08,0.984 C-4.41,1.448 -8.882000000000001,2.1689999999999996 -13.397,2.284 C-17.913,2.416 -22.436,2.4290000000000003 -26.998,1.937 C-27.081,1.9280000000000002 -27.142,1.853 -27.133,1.769 C-27.125999999999998,1.7049999999999998 -27.078999999999997,1.654 -27.019,1.638 C-22.581,0.47899999999999987 -18.104,-0.17399999999999993 -13.62,-0.709 C-9.136,-1.2610000000000001 -4.607,-1.206 -0.098,-1.409 C-0.098,-1.409 13.436,-1.96 13.436,-1.96 C17.95,-2.092 22.462000000000003,-2.2680000000000002 26.981,-2.362 C27.064,-2.364 27.132,-2.298 27.134,-2.215 C27.135,-2.138 27.076999999999998,-2.073 27.002,-2.063z"></path></g><g opacity="1" transform="matrix(1,0,0,1,383.603,172.22)"><path fill="rgb(204,51,0)" fill-opacity="1" d="M0 0 M7.677,3.615 C8.109,6.640000000000001 8.885,9.614999999999998 9.965,12.501 C9.965,12.501 -7.906,11.827 -7.906,11.827 C-8.579,9.145 -9.074,6.399 -9.392,3.615 C-9.965,-1.545 -9.812000000000001,-6.742 -8.986,-11.839 C-8.986,-11.839 8.516,-12.501 8.516,-12.501 C7.245,-7.212999999999999 6.914,-1.7359999999999998 7.677,3.615z"></path></g><g opacity="1" transform="matrix(1,0,0,1,451.823,173.847)"><path fill="rgb(204,51,0)" fill-opacity="1" d="M0 0 M29.709,14.204 C29.709,14.204 12.322,13.543 12.322,13.543 C11.774999999999999,11.902999999999999 10.835,10.416 9.412,9.171 C2.1420000000000012,2.8529999999999998 -9.704000000000002,5.891 -18.042,7.544 C-22.579,8.433 -27.244,6.298 -28.553,1.57 C-29.709,-2.6369999999999996 -27.117,-8.039 -22.579,-8.929 C-7.594000000000001,-11.877 9.334999999999999,-14.203 21.575,-2.789 C26.506,1.8109999999999995 29.073999999999998,7.861000000000001 29.709,14.204z"></path></g><g opacity="1" transform="matrix(1,0,0,1,504.315,172.181)"><path fill="rgb(204,51,0)" fill-opacity="1" d="M0 0 M8.713,-17.038 C8.572999999999999,-5.676 8.445,5.676 8.318,17.038 C8.318,17.038 -8.712,16.389 -8.712,16.389 C-8.687,13.655999999999999 -8.663,10.937000000000001 -8.624,8.204 C-8.535,0.006000000000000227 -8.458,-8.190999999999999 -8.356,-16.389 C-8.356,-16.389 8.713,-17.038 8.713,-17.038z"></path></g><g opacity="1" transform="matrix(1,0,0,1,591.126,167.131)"><path fill="rgb(204,51,0)" fill-opacity="1" d="M0 0 M14.943,-9.37 C4.981,-8.815 -4.98,-8.261000000000001 -14.941,-7.706 C-25.869,-7.098000000000001 -25.939,9.981 -14.941,9.368 C-4.98,8.814 4.981,8.261000000000001 14.943,7.706 C25.869999999999997,7.098000000000001 25.939999999999998,-9.982 14.943,-9.37z"></path></g><g opacity="1" transform="matrix(1,0,0,1,675.167,172.239)"><path fill="rgb(204,51,0)" fill-opacity="1" d="M0 0 M27.479,-1.5 C13.027999999999999,0.7250000000000001 -1.423,2.9619999999999997 -15.875,5.186 C-15.875,5.186 -14.844,22.572 -14.844,22.572 C-14.844,22.572 -31.952,21.925 -31.952,21.925 C-31.952,21.925 -34.558,-21.925 -34.558,-21.925 C-34.558,-21.925 -17.514,-22.572 -17.514,-22.572 C-17.514,-22.572 -16.878,-11.82 -16.878,-11.82 C-3.609,-13.866 9.66,-15.913 22.942,-17.972 C27.504,-18.671000000000003 32.105999999999995,-16.878999999999998 33.44,-11.998 C34.558,-7.930999999999999 32.042,-2.199 27.479,-1.5z"></path></g><g opacity="1" transform="matrix(1,0,0,1,780.989,172.143)"><path fill="rgb(204,51,0)" fill-opacity="1" d="M0 0 M45.082,-28.845 C45.082,-28.845 42.718,28.845 42.718,28.845 C42.718,28.845 17.158,27.88 17.158,27.88 C11.566000000000003,18.283 6.7490000000000006,8.243 2.758,-2.116 C0.02499999999999991,7.594000000000001 -2.707,17.304000000000002 -5.439,27.015 C-5.439,27.015 -29.156,26.125 -29.156,26.125 C-32.856,8.459 -38.168,-8.800999999999998 -45.082,-25.439 C-45.082,-25.439 -26.958,-26.113 -26.958,-26.113 C-23.043,-16.11 -19.662000000000003,-5.916 -16.841,4.455 C-13.904000000000002,-5.98 -10.969,-16.402 -8.045,-26.837 C-8.045,-26.837 12.366,-27.599 12.366,-27.599 C12.366,-27.599 12.379,-27.599 12.379,-27.599 C15.837,-14.865 20.552,-2.574 26.449,9.145 C26.958000000000002,-3.298 27.466,-15.754 27.975,-28.197 C27.975,-28.197 45.082,-28.845 45.082,-28.845z"></path></g><g opacity="1" transform="matrix(1,0,0,1,869.469,168.566)"><path fill="rgb(204,51,0)" fill-opacity="1" d="M0 0 M10.136,16.167 C10.084,27.174 -6.985,27.160000000000004 -6.947,16.167 C-6.883,1.817000000000002 -7.975999999999999,-12.442999999999998 -10.187,-26.525 C-10.187,-26.525 7.009,-27.174 7.009,-27.174 C9.144,-12.837 10.187,1.665000000000001 10.136,16.167z"></path></g><g opacity="1" transform="matrix(1,0,0,1,426.321,131.987)"><path fill="rgb(213,92,51)" fill-opacity="1" d="M0 0 M49.187,-1.398 C47.013999999999996,2.314 41.256,4.3469999999999995 37.507,1.665 C21.568999999999996,-9.774000000000001 -0.9909999999999997,-10.892 -17.019,1.144 C-25.546999999999997,7.538 -31.697999999999997,17.248 -34.202,27.733 C-34.202,27.733 -51.704,28.394 -51.704,28.394 C-48.857,10.485999999999997 -37.939,-6.202 -22.522,-15.684 C-1.843,-28.393 26.449,-27.198999999999998 46.124,-13.078 C49.886,-10.383 51.704,-5.694 49.187,-1.398z"></path></g><g opacity="1" transform="matrix(1,0,0,1,504.664,140.02)"><path fill="rgb(213,92,51)" fill-opacity="1" d="M0 0 M8.579,-4.779 C8.503,1.8550000000000004 8.439,8.49 8.363,15.124 C8.363,15.124 -8.706,15.773 -8.706,15.773 C-8.642999999999999,8.922 -8.566,2.072 -8.49,-4.779 C-8.376,-15.773 8.706000000000001,-15.773 8.579,-4.779z"></path></g><g opacity="1" transform="matrix(1,0,0,1,676.743,125.675)"><path fill="rgb(213,92,51)" fill-opacity="1" d="M0 0 M27.924,-5.433 C11.706,-4.785 -4.498999999999999,-4.149 -20.717,-3.514 C-20.717,-3.514 -19.091,23.991 -19.091,23.991 C-19.091,23.991 -36.135,24.638 -36.135,24.638 C-36.135,24.638 -38.13,-9.144 -38.13,-9.144 C-38.371,-10.199 -38.434,-11.305 -38.32,-12.398 C-38.32,-12.398 -38.434,-14.355 -38.434,-14.355 C-38.93,-22.642000000000003 -29.347,-24.638 -24.314,-20.443 C-6.901,-21.129 10.511,-21.816 27.924,-22.502 C38.93,-22.933999999999997 38.866,-5.851999999999999 27.924,-5.433z"></path></g><g opacity="1" transform="matrix(1,0,0,1,735.735,123.833)"><path fill="rgb(213,92,51)" fill-opacity="1" d="M0 0 M18.296,22.197 C18.296,22.197 0.172,22.872 0.172,22.872 C-3.7169999999999996,13.491999999999999 -8.114999999999998,4.328 -13.008,-4.607 C-18.296,-14.266000000000002 -3.5389999999999997,-22.872 1.735,-13.225 C8.014,-1.7739999999999991 13.543,10.059 18.296,22.197z"></path></g><g opacity="1" transform="matrix(1,0,0,1,783.15,137.242)"><path fill="rgb(213,92,51)" fill-opacity="1" d="M0 0 M10.206,7.302 C10.206,7.302 -10.206,8.064 -10.206,8.064 C-9.469999999999999,5.484 -8.745000000000001,2.891 -8.021,0.311 C-5.809000000000001,-7.582 6.494000000000001,-8.064 8.438,0.311 C8.985000000000001,2.65 9.571,4.988999999999999 10.206,7.302z"></path></g><g opacity="1" transform="matrix(1,0,0,1,818.585,117.605)"><path fill="rgb(213,92,51)" fill-opacity="1" d="M0 0 M9.177,-15.347 C8.616999999999999,-1.6709999999999994 8.045,12.017000000000001 7.487,25.693 C7.487,25.693 -9.621,26.341 -9.621,26.341 C-9.05,12.450000000000001 -8.477,-1.4429999999999996 -7.905,-15.347 C-7.461,-26.316 9.621,-26.341 9.177,-15.347z"></path></g><g opacity="1" transform="matrix(1,0,0,1,861.271,113.9)"><path fill="rgb(213,92,51)" fill-opacity="1" d="M0 0 M15.208,27.492 C15.208,27.492 -1.989,28.14 -1.989,28.14 C-4.176,14.172 -7.455,0.3680000000000003 -11.827,-13.193 C-15.208,-23.692 1.2890000000000001,-28.14 4.644,-17.731 C9.398,-2.9620000000000015 12.92,12.177000000000001 15.208,27.492z"></path></g><g opacity="1" transform="matrix(1,0,0,1,428.99,210.152)"><path fill="rgb(166,51,13)" fill-opacity="1" d="M0 0 M47.637,-0.381 C35.614000000000004,20.183 7.155999999999999,26.106 -14.07,17.984 C-33.541,10.55 -48.272999999999996,-6.126000000000001 -53.293,-26.106 C-53.293,-26.106 -35.423,-25.432 -35.423,-25.432 C-30.962000000000003,-13.458999999999998 -21.314999999999998,-3.164 -9.533,1.525 C4.105,6.952999999999999 23.436,5.236999999999999 32.244,-7.931 C34.964,-12.011 36.756,-17.972 35.155,-22.763 C35.155,-22.763 52.542,-22.102 52.542,-22.102 C53.292,-14.667000000000002 51.412,-6.825 47.637,-0.381z"></path></g><g opacity="1" transform="matrix(1,0,0,1,541.478,210.921)"><path fill="rgb(166,51,13)" fill-opacity="1" d="M0 0 M40.207,11.725 C40.207,11.725 -4.607,18.118 -4.607,18.118 C-12.551,19.247999999999998 -20.482,20.544999999999998 -28.451,21.499 C-35.53,22.351 -42.407,19.719 -45,12.602 C-47.274,6.324000000000001 -46.105000000000004,-1.4169999999999998 -46.042,-7.962 C-45.991,-12.754 -45.927,-17.558 -45.876,-22.35 C-45.876,-22.35 -28.845,-21.702 -28.845,-21.702 C-28.933999999999997,-13.491000000000001 -29.011,-5.2940000000000005 -29.087,2.905 C-29.087,2.9939999999999998 -29.035999999999998,3.667 -29.011,4.443 C-28.172,4.34 -27.384,4.251 -27.384,4.251 C-25.731,4.023000000000001 -24.079,3.782 -22.414,3.54 C-16.059,2.637 -9.691,1.7349999999999999 -3.337,0.82 C9.666,-1.036 22.667999999999996,-2.891 35.657,-4.747 C40.245999999999995,-5.395 44.821,-3.6919999999999993 46.168,1.227 C47.274,5.255 44.77,11.077 40.207,11.725z"></path></g><g opacity="1" transform="matrix(1,0,0,1,685.024,212.821)"><path fill="rgb(166,51,13)" fill-opacity="1" d="M0 0 M41.809,1.665 C41.809,6.673 37.843,9.647 33.268,10.207 C33.268,10.207 -32.545,18.1 -32.545,18.1 C-37.158,18.658 -41.086,13.753 -41.086,9.571 C-41.086,8.236 -40.805,7.067 -40.31,6.025 C-40.348,5.7700000000000005 -40.374,5.517 -40.399,5.25 C-40.399,5.25 -41.809,-18.657 -41.809,-18.657 C-41.809,-18.657 -24.702,-18.01 -24.702,-18.01 C-24.702,-18.01 -23.634,-0.037 -23.634,-0.037 C-4.670999999999999,-2.3249999999999997 14.304000000000002,-4.601 33.268,-6.875 C37.881,-7.422 41.809,-2.5279999999999996 41.809,1.665z"></path></g><g opacity="1" transform="matrix(1,0,0,1,763.691,210.755)"><path fill="rgb(166,51,13)" fill-opacity="1" d="M0 0 M11.859,-11.597 C10.422,-6.475 8.972,-1.3529999999999998 7.537,3.769 C5.426,11.293 -7.6000000000000005,12.488 -8.922,3.769 C-9.748000000000001,-1.6840000000000002 -10.728,-7.111 -11.859,-12.488 C-11.859,-12.488 11.859,-11.597 11.859,-11.597z"></path></g><g opacity="1" transform="matrix(1,0,0,1,810.927,210.724)"><path fill="rgb(166,51,13)" fill-opacity="1" d="M0 0 M12.78,-9.736 C12.652999999999999,-6.648000000000001 12.526,-3.558 12.399,-0.469 C12.043,8.338000000000001 1.291,10.702 -3.514,3.839 C-6.805999999999999,-0.8770000000000002 -9.907,-5.732 -12.78,-10.701 C-12.78,-10.701 12.78,-9.736 12.78,-9.736z"></path></g><g opacity="1" transform="matrix(1,0,0,1,872.004,215.472)"><path fill="rgb(166,51,13)" fill-opacity="1" d="M0 0 M0,8.535 C-11.007,8.535 -10.981,-8.535 0,-8.535 C11.006,-8.535 10.98,8.535 0,8.535z"></path></g></g><g transform="matrix(0.6358940572532504,-0.6358940572532503,0.6358940572532503,0.6358940572532504,-60.423455042852964,649.48609832104)" opacity="1" style="-webkit-user-select: none;"><g opacity="1" transform="matrix(1,0,0,1,244.155,194.665)"><path stroke-linecap="butt" stroke-linejoin="miter" fill-opacity="0" stroke-miterlimit="4" stroke="rgb(190,72,32)" stroke-opacity="1" stroke-width="2" d="M0 0 M46.525,-10.525 C46.495,-10.315 46.465,-10.115 46.435,-9.905 C43.795,8.395000000000001 37.595,15.225 37.595,15.225 C37.595,15.225 -46.525,7.725 -46.525,7.725 C-46.525,7.725 -43.815,1.415000000000001 -41.925,-8.565 C-41.535,-10.635 -41.185,-12.855 -40.895,-15.225 C-40.895,-15.225 46.525,-10.525 46.525,-10.525z"></path><path fill="rgb(189,71,31)" fill-opacity="1" d="M0 0 M46.525,-10.525 C46.495,-10.315 46.465,-10.115 46.435,-9.905 C43.795,8.395000000000001 37.595,15.225 37.595,15.225 C37.595,15.225 -46.525,7.725 -46.525,7.725 C-46.525,7.725 -43.815,1.415000000000001 -41.925,-8.565 C-41.535,-10.635 -41.185,-12.855 -40.895,-15.225 C-40.895,-15.225 46.525,-10.525 46.525,-10.525z"></path></g><g opacity="1" transform="matrix(1,0,0,1,247.505,167.39)"><path fill="rgb(213,92,51)" fill-opacity="1" d="M0 0 M44.245,0 C44.245,6.41 43.834999999999994,11.96 43.175,16.75 C43.175,16.75 -44.245,12.05 -44.245,12.05 C-43.794999999999995,8.34 -43.505,4.29 -43.505,0 C-43.505,-4.29 -43.794999999999995,-8.34 -44.245,-12.05 C-44.245,-12.05 43.175,-16.75 43.175,-16.75 C43.834999999999994,-11.96 44.245,-6.41 44.245,0z"></path><path stroke-linecap="butt" stroke-linejoin="miter" fill-opacity="0" stroke-miterlimit="4" stroke="rgb(214,91,51)" stroke-opacity="1" stroke-width="2" d="M0 0 M44.245,0 C44.245,6.41 43.834999999999994,11.96 43.175,16.75 C43.175,16.75 -44.245,12.05 -44.245,12.05 C-43.794999999999995,8.34 -43.505,4.29 -43.505,0 C-43.505,-4.29 -43.794999999999995,-8.34 -44.245,-12.05 C-44.245,-12.05 43.175,-16.75 43.175,-16.75 C43.834999999999994,-11.96 44.245,-6.41 44.245,0z"></path></g><g opacity="1" transform="matrix(1,0,0,1,244.155,140.115)"><path stroke-linecap="butt" stroke-linejoin="miter" fill-opacity="0" stroke-miterlimit="4" stroke="rgb(218,109,72)" stroke-opacity="1" stroke-width="2" d="M0 0 M46.525,10.525 C46.525,10.525 -40.895,15.225 -40.895,15.225 C-41.185,12.855 -41.535,10.635 -41.925,8.565 C-43.815,-1.415000000000001 -46.525,-7.725 -46.525,-7.725 C-46.525,-7.725 37.595,-15.225 37.595,-15.225 C37.595,-15.225 43.795,-8.395000000000001 46.435,9.905 C46.465,10.115 46.495,10.315 46.525,10.525z"></path><path fill="rgb(218,108,71)" fill-opacity="1" d="M0 0 M46.525,10.525 C46.525,10.525 -40.895,15.225 -40.895,15.225 C-41.185,12.855 -41.535,10.635 -41.925,8.565 C-43.815,-1.415000000000001 -46.525,-7.725 -46.525,-7.725 C-46.525,-7.725 37.595,-15.225 37.595,-15.225 C37.595,-15.225 43.795,-8.395000000000001 46.435,9.905 C46.465,10.115 46.495,10.315 46.525,10.525z"></path></g><g opacity="1" transform="matrix(1,0,0,1,197.627,167.39)"><path fill="rgb(166,51,13)" fill-opacity="1" d="M0 0 M6.377,0 C6.377,29.235 0,35 0,35 C0,35 -6.377,29.235 -6.377,0 C-6.377,-29.235 0,-35 0,-35 C0,-35 6.377,-29.235 6.377,0z"></path><path stroke-linecap="butt" stroke-linejoin="miter" fill-opacity="0" stroke-miterlimit="4" stroke="rgb(166,51,13)" stroke-opacity="1" stroke-width="2" d="M0 0 M6.377,0 C6.377,29.235 0,35 0,35 C0,35 -6.377,29.235 -6.377,0 C-6.377,-29.235 0,-35 0,-35 C0,-35 6.377,-29.235 6.377,0z"></path></g><g opacity="1" transform="matrix(1,0,0,1,248.246,166.89)"><path fill="rgb(166,51,13)" fill-opacity="1" d="M0 0 M37.504,0.15 C31.253999999999998,0.977 25.004,1.2979999999999998 18.754,1.501 C12.504000000000001,1.72 6.254,1.331 0.004,1.201 C0.004,1.201 -18.746,0.751 -18.746,0.751 C-18.746,0.751 -37.496,0.15 -37.496,0.15 C-37.579,0.147 -37.644,0.078 -37.641,-0.005 C-37.638999999999996,-0.084 -37.574000000000005,-0.147 -37.496,-0.15 C-37.496,-0.15 -18.746,-0.749 -18.746,-0.749 C-18.746,-0.749 0.004,-1.201 0.004,-1.201 C6.254,-1.33 12.504000000000001,-1.719 18.754,-1.499 C25.004,-1.2970000000000002 31.253999999999998,-0.977 37.504,-0.15 C37.586999999999996,-0.13799999999999998 37.644000000000005,-0.062 37.633,0.02 C37.624,0.08900000000000001 37.57,0.141 37.504,0.15z"></path></g><g opacity="1" transform="matrix(1,0,0,1,248.147,173.753)"><path fill="rgb(166,51,13)" fill-opacity="1" d="M0 0 M37.486,0.476 C31.227999999999998,1.222 24.975,1.4609999999999999 18.725,1.581 C12.475000000000001,1.72 6.234000000000001,1.248 -0.012,1.038 C-0.012,1.038 -18.749,0.342 -18.749,0.342 C-18.749,0.342 -37.482,-0.502 -37.482,-0.502 C-37.565,-0.505 -37.629999999999995,-0.5760000000000001 -37.626,-0.659 C-37.623,-0.738 -37.558,-0.8 -37.479,-0.801 C-37.479,-0.801 -18.729,-1.157 -18.729,-1.157 C-18.729,-1.157 0.018,-1.363 0.018,-1.363 C6.2669999999999995,-1.412 12.52,-1.72 18.764,-1.419 C25.009,-1.135 31.253,-0.7330000000000001 37.49,0.176 C37.572,0.188 37.629,0.26499999999999996 37.616,0.347 C37.607,0.416 37.552,0.46799999999999997 37.486,0.476z"></path></g><g opacity="1" transform="matrix(1,0,0,1,247.046,180.616)"><path fill="rgb(166,51,13)" fill-opacity="1" d="M0 0 M37.468,0.801 C31.202000000000005,1.465 24.949,1.623 18.699,1.662 C12.448,1.7189999999999999 6.214,1.166 -0.028,0.873 C-0.028,0.873 -18.75,-0.065 -18.75,-0.065 C-18.75,-0.065 -37.468,-1.154 -37.468,-1.154 C-37.551,-1.1589999999999998 -37.614000000000004,-1.229 -37.609,-1.312 C-37.605000000000004,-1.391 -37.539,-1.453 -37.46,-1.454 C-37.46,-1.454 -18.711,-1.565 -18.711,-1.565 C-18.711,-1.565 0.035,-1.526 0.035,-1.526 C6.283,-1.493 12.538,-1.72 18.777,-1.337 C25.016000000000002,-0.972 31.253,-0.489 37.476,0.501 C37.558,0.514 37.614,0.5920000000000001 37.601,0.674 C37.591,0.7430000000000001 37.534000000000006,0.794 37.468,0.801z"></path></g><g opacity="1" transform="matrix(1,0,0,1,245.947,187.319)"><path fill="rgb(166,51,13)" fill-opacity="1" d="M0 0 M37.45,1.286 C31.176000000000002,1.869 24.921,1.946 18.671,1.903 C12.419999999999998,1.879 6.194000000000001,1.245 -0.044,0.87 C-0.044,0.87 -18.752,-0.313 -18.752,-0.313 C-18.752,-0.313 -37.454,-1.646 -37.454,-1.646 C-37.537,-1.6509999999999998 -37.599000000000004,-1.723 -37.593,-1.806 C-37.588,-1.885 -37.521,-1.945 -37.443,-1.945 C-37.443,-1.945 -18.693,-1.813 -18.693,-1.813 C-18.693,-1.813 0.051,-1.527 0.051,-1.527 C6.298,-1.4129999999999998 12.555,-1.559 18.788,-1.095 C25.022,-0.649 31.252000000000002,-0.08399999999999996 37.462,0.987 C37.544000000000004,1.002 37.599000000000004,1.079 37.585,1.161 C37.573,1.23 37.516000000000005,1.28 37.45,1.286z"></path></g><g opacity="1" transform="matrix(1,0,0,1,244.846,193.939)"><path fill="rgb(166,51,13)" fill-opacity="1" d="M0 0 M37.432,1.855 C31.150000000000002,2.356 24.893,2.35 18.643,2.226 C12.393,2.12 6.1739999999999995,1.405 -0.059,0.949 C-0.059,0.949 -18.754,-0.478 -18.754,-0.478 C-18.754,-0.478 -37.441,-2.054 -37.441,-2.054 C-37.523,-2.061 -37.583999999999996,-2.1340000000000003 -37.577,-2.216 C-37.57,-2.2950000000000004 -37.503,-2.356 -37.425,-2.354 C-37.425,-2.354 -18.675,-1.976 -18.675,-1.976 C-18.675,-1.976 0.066,-1.448 0.066,-1.448 C6.312,-1.251 12.572000000000001,-1.315 18.8,-0.77 C25.029,-0.243 31.251,0.40400000000000014 37.448,1.556 C37.53,1.571 37.584,1.65 37.569,1.732 C37.556000000000004,1.801 37.498000000000005,1.85 37.432,1.855z"></path></g><g opacity="1" transform="matrix(1,0,0,1,242.747,200.598)"><path fill="rgb(166,51,13)" fill-opacity="1" d="M0 0 M37.414,2.385 C31.123,2.803 24.866,2.7159999999999997 18.616,2.51 C12.364999999999998,2.323 6.153,1.5270000000000001 -0.075,0.99 C-0.075,0.99 -18.755,-0.681 -18.755,-0.681 C-18.755,-0.681 -37.427,-2.502 -37.427,-2.502 C-37.509,-2.51 -37.568999999999996,-2.584 -37.562,-2.666 C-37.553999999999995,-2.745 -37.485,-2.803 -37.407,-2.801 C-37.407,-2.801 -18.658,-2.178 -18.658,-2.178 C-18.658,-2.178 0.081,-1.405 0.081,-1.405 C6.327000000000001,-1.1280000000000001 12.588999999999999,-1.109 18.811,-0.483 C25.035,0.126 31.249999999999996,0.8529999999999998 37.434,2.086 C37.516,2.1029999999999998 37.569,2.183 37.552,2.264 C37.539,2.3329999999999997 37.480000000000004,2.38 37.414,2.385z"></path></g><g opacity="1" transform="matrix(1,0,0,1,248.246,166.89)"><path fill="rgb(166,51,13)" fill-opacity="1" d="M0 0 M37.504,0.15 C31.253999999999998,0.977 25.004,1.2979999999999998 18.754,1.501 C12.504000000000001,1.72 6.254,1.331 0.004,1.201 C0.004,1.201 -18.746,0.751 -18.746,0.751 C-18.746,0.751 -37.496,0.15 -37.496,0.15 C-37.579,0.147 -37.644,0.078 -37.641,-0.005 C-37.638999999999996,-0.084 -37.574000000000005,-0.147 -37.496,-0.15 C-37.496,-0.15 -18.746,-0.749 -18.746,-0.749 C-18.746,-0.749 0.004,-1.201 0.004,-1.201 C6.254,-1.33 12.504000000000001,-1.719 18.754,-1.499 C25.004,-1.2970000000000002 31.253999999999998,-0.977 37.504,-0.15 C37.586999999999996,-0.13799999999999998 37.644000000000005,-0.062 37.633,0.02 C37.624,0.08900000000000001 37.57,0.141 37.504,0.15z"></path></g><g opacity="1" transform="matrix(1,0,0,1,248.147,160.027)"><path fill="rgb(166,51,13)" fill-opacity="1" d="M0 0 M37.49,-0.176 C31.253,0.7330000000000001 25.01,1.1360000000000001 18.765,1.419 C12.521,1.72 6.268,1.412 0.019,1.363 C0.019,1.363 -18.728,1.157 -18.728,1.157 C-18.728,1.157 -37.478,0.802 -37.478,0.802 C-37.561,0.801 -37.626999999999995,0.732 -37.626,0.649 C-37.623999999999995,0.5690000000000001 -37.56,0.506 -37.482,0.502 C-37.482,0.502 -18.748,-0.342 -18.748,-0.342 C-18.748,-0.342 -0.012,-1.037 -0.012,-1.037 C6.234000000000001,-1.248 12.475999999999999,-1.72 18.726,-1.581 C24.976,-1.4609999999999999 31.227,-1.222 37.485,-0.476 C37.568,-0.46599999999999997 37.628,-0.391 37.618,-0.308 C37.61,-0.238 37.556000000000004,-0.186 37.49,-0.176z"></path></g><g opacity="1" transform="matrix(1,0,0,1,247.047,153.164)"><path fill="rgb(166,51,13)" fill-opacity="1" d="M0 0 M37.475,-0.502 C31.252000000000002,0.488 25.016,0.973 18.776,1.337 C12.536999999999999,1.72 6.2829999999999995,1.492 0.034,1.525 C0.034,1.525 -18.712,1.564 -18.712,1.564 C-18.712,1.564 -37.461,1.453 -37.461,1.453 C-37.544,1.4520000000000002 -37.611,1.385 -37.61,1.302 C-37.61,1.223 -37.547000000000004,1.1589999999999998 -37.469,1.154 C-37.469,1.154 -18.751,0.064 -18.751,0.064 C-18.751,0.064 -0.028,-0.874 -0.028,-0.874 C6.213,-1.167 12.448,-1.72 18.698,-1.663 C24.948,-1.624 31.201,-1.465 37.467,-0.801 C37.55,-0.792 37.611,-0.718 37.602,-0.635 C37.595,-0.565 37.541000000000004,-0.513 37.475,-0.502z"></path></g><g opacity="1" transform="matrix(1,0,0,1,245.946,146.461)"><path fill="rgb(166,51,13)" fill-opacity="1" d="M0 0 M37.462,-0.987 C31.252000000000002,0.08399999999999996 25.023000000000003,0.649 18.789,1.095 C12.555000000000001,1.559 6.298,1.413 0.051,1.528 C0.051,1.528 -18.693,1.812 -18.693,1.812 C-18.693,1.812 -37.442,1.946 -37.442,1.946 C-37.525,1.946 -37.593,1.879 -37.594,1.796 C-37.594,1.717 -37.532000000000004,1.6509999999999998 -37.454,1.646 C-37.454,1.646 -18.752,0.313 -18.752,0.313 C-18.752,0.313 -0.043,-0.87 -0.043,-0.87 C6.194,-1.245 12.419999999999998,-1.879 18.671,-1.903 C24.921,-1.946 31.176000000000002,-1.8699999999999999 37.45,-1.287 C37.533,-1.279 37.594,-1.206 37.587,-1.123 C37.580000000000005,-1.053 37.527,-0.999 37.462,-0.987z"></path></g><g opacity="1" transform="matrix(1,0,0,1,244.845,139.841)"><path fill="rgb(166,51,13)" fill-opacity="1" d="M0 0 M37.449,-1.556 C31.253,-0.40400000000000014 25.03,0.243 18.802,0.77 C12.574,1.315 6.314,1.252 0.068,1.448 C0.068,1.448 -18.674,1.976 -18.674,1.976 C-18.674,1.976 -37.424,2.354 -37.424,2.354 C-37.506,2.356 -37.575,2.29 -37.576,2.208 C-37.578,2.128 -37.517,2.061 -37.439,2.054 C-37.439,2.054 -18.752,0.478 -18.752,0.478 C-18.752,0.478 -0.057,-0.949 -0.057,-0.949 C6.175,-1.405 12.393999999999998,-2.1189999999999998 18.645,-2.226 C24.895,-2.35 31.150000000000002,-2.356 37.432,-1.855 C37.516000000000005,-1.849 37.579,-1.776 37.572,-1.693 C37.567,-1.622 37.513999999999996,-1.568 37.449,-1.556z"></path></g><g opacity="1" transform="matrix(1,0,0,1,242.744,133.182)"><path fill="rgb(166,51,13)" fill-opacity="1" d="M0 0 M37.436,-2.086 C31.253,-0.8529999999999998 25.037,-0.126 18.814,0.483 C12.591000000000001,1.109 6.329,1.1280000000000001 0.084,1.405 C0.084,1.405 -18.655,2.179 -18.655,2.179 C-18.655,2.179 -37.405,2.802 -37.405,2.802 C-37.487,2.804 -37.557,2.7390000000000003 -37.56,2.656 C-37.563,2.577 -37.502,2.51 -37.424,2.502 C-37.424,2.502 -18.753,0.682 -18.753,0.682 C-18.753,0.682 -0.072,-0.989 -0.072,-0.989 C6.156,-1.526 12.366999999999997,-2.323 18.618,-2.511 C24.868,-2.717 31.125999999999998,-2.8040000000000003 37.416,-2.386 C37.5,-2.3800000000000003 37.563,-2.3080000000000003 37.557,-2.225 C37.553000000000004,-2.154 37.501,-2.0999999999999996 37.436,-2.086z"></path></g><g opacity="1" transform="matrix(1,0,0,1,98.375,164.89)"><path fill="rgb(189,71,31)" fill-opacity="1" d="M0 0 M98.375,4.07 C97.905,4.49 97.405,4.969 96.875,5.5 C91.875,10.5 50.875,12.5 36.875,11.5 C22.875,10.5 -34.125,8.5 -48.125,9.5 C-62.125,10.5 -86.125,10.5 -93.125,9.5 C-94.285,9.33 -95.355,8.98 -96.345,8.5 C-97.615,6.86 -98.375,4.769 -98.375,2.5 C-98.375,-0.1200000000000001 -97.365,-2.5 -95.725,-4.231 C-94.085,-5.96 -91.825,-7.04 -89.315,-7.071 C-89.315,-7.071 96.245,-12.5 96.245,-12.5 C96.245,-12.5 98.315,-6.741 98.375,4.07z"></path><path stroke-linecap="butt" stroke-linejoin="miter" fill-opacity="0" stroke-miterlimit="4" stroke="rgb(190,72,32)" stroke-opacity="1" stroke-width="2" d="M0 0 M98.375,4.07 C97.905,4.49 97.405,4.969 96.875,5.5 C91.875,10.5 50.875,12.5 36.875,11.5 C22.875,10.5 -34.125,8.5 -48.125,9.5 C-62.125,10.5 -86.125,10.5 -93.125,9.5 C-94.285,9.33 -95.355,8.98 -96.345,8.5 C-97.615,6.86 -98.375,4.769 -98.375,2.5 C-98.375,-0.1200000000000001 -97.365,-2.5 -95.725,-4.231 C-94.085,-5.96 -91.825,-7.04 -89.315,-7.071 C-89.315,-7.071 96.245,-12.5 96.245,-12.5 C96.245,-12.5 98.315,-6.741 98.375,4.07z"></path></g><g opacity="1" transform="matrix(1,0,0,1,102.75,160.89)"><path fill="rgb(213,92,51)" fill-opacity="1" d="M0 0 M86.5,-1.5 C77.769,0.43999999999999995 30.5,2.5 12.5,1.5 C-5.5,0.5 -77.5,3.5 -86.5,2.5 C-95.5,1.5 -74.5,-0.5 -50.5,-0.5 C-26.5,-0.5 37.5,0.5 50.5,-1.5 C63.5,-3.5 95.5,-3.5 86.5,-1.5z"></path></g><g opacity="1" transform="matrix(1,0,0,1,99.39,175.675)"><path fill="rgb(166,51,13)" fill-opacity="1" d="M0 0 M97.36,-6.715 C97.36,-6.715 97.36,-6.236 97.36,-6.236 C97.36,4.875000000000001 95.23,6.715 95.23,6.715 C95.23,6.715 -90.33,1.285 -90.33,1.285 C-93.17999999999999,1.255 -95.71,-0.13500000000000023 -97.36,-2.285 C-96.37,-1.8050000000000002 -95.3,-1.4549999999999998 -94.14,-1.285 C-87.14,-0.2849999999999999 -63.14,-0.2849999999999999 -49.14,-1.285 C-35.14,-2.285 21.86,-0.28500000000000003 35.86,0.715 C49.86,1.7149999999999999 90.86,-0.28500000000000014 95.86,-5.285 C96.39,-5.816 96.89,-6.295 97.36,-6.715z"></path></g><g opacity="1" transform="matrix(0.9407,0,0,1,62.5,11.125)"><path fill="rgb(119,37,10)" fill-opacity="1" d="M0 0 M-64.331,152.551 C-62.387,152.5 -62.321000000000005,160.375 -64.298,160.324 C-66.275,160.27300000000002 -66.275,152.60199999999998 -64.331,152.551z"></path></g></g></g></svg>