<?xml version="1.0" encoding="utf-8"?>
<!-- Generator: Adobe Illustrator 21.1.0, SVG Export Plug-In . SVG Version: 6.00 Build 0)  -->
<svg version="1.1" id="Layer_1" xmlns="http://www.w3.org/2000/svg" xmlns:xlink="http://www.w3.org/1999/xlink" x="0px" y="0px"
	 viewBox="0 0 857 858" style="enable-background:new 0 0 857 858;" xml:space="preserve">
<style type="text/css">
	.st0{clip-path:url(#SVGID_2_);}
	.st1{fill:#FFFF66;}
	.st2{fill:#FFFF76;}
	.st3{fill:#FFFF85;}
	.st4{fill:#EAEA75;}
	.st5{fill:#FFFFC2;}
	.st6{fill:#E6E6E6;}
	.st7{fill:#B3B3B3;}
	.st8{fill:#CCCCCC;}
	.st9{fill:#E4E45C;}
	.st10{fill:#ACAC45;}
	.st11{fill:#CC3300;}
	.st12{fill:#D55C33;}
	.st13{fill:#A6330D;}
	.st14{fill-opacity:0;stroke:#BE4820;stroke-width:2;}
	.st15{fill:#BD471F;}
	.st16{fill-opacity:0;stroke:#D65B33;stroke-width:2;}
	.st17{fill-opacity:0;stroke:#DA6D48;stroke-width:2;}
	.st18{fill:#DA6C47;}
	.st19{fill-opacity:0;stroke:#A6330D;stroke-width:2;}
	.st20{fill:#77250A;}
</style>
<g>
	<defs>
		
			<rect id="SVGID_1_" x="-153" y="323" transform="matrix(0.7071 -0.7071 0.7071 0.7071 -249.0408 394.7624)" width="1010" height="350"/>
	</defs>
	<clipPath id="SVGID_2_">
		<use xlink:href="#SVGID_1_"  style="overflow:visible;"/>
	</clipPath>
	<g class="st0">
		<g transform="matrix(1,0,0,1,10.5,6)">
			<g transform="matrix(1,0,0,1,641.5,168.89)">
				<path class="st1" d="M-512,379.4L-356.5,535l256-215.9L160.2,99.2L-76.2-137.2L-191.3-0.8l-66.3,78.6l-42.8,50.7l-49.6,58.8
					l-34.5,41l-50.5,59.8L-512,379.4z"/>
			</g>
			<g transform="matrix(1,0,0,1,641.5,168.89)">
				<path class="st2" d="M-485.7,405.8l102.8,102.8l67.5-60.3L120.1,59.1L-36.2-97.2L-172,54.8l-100,111.8l-98.7,110.5L-485.7,405.8
					z"/>
			</g>
			<g transform="matrix(1,0,0,1,641.5,168.89)">
				<path class="st3" d="M-455,436.5l41.4,41.4l234.8-224.4L73.5,12.4L10.5-50.5l-244.1,255.4L-455,436.5z"/>
			</g>
			<g transform="matrix(1,0,0,1,641.5,292.825)">
				<path class="st4" d="M118.6-66.4L129-55.9c-2.3,6.8-5.3,15.1-8.9,25c-2.7,7.2,7.7,16,16,26.4L4.5,106.6l-49.8,42l-65.2,55
					l-92.2,77.8l-56.8,48l-96.8,81.7l-10.8-10.8c0.1-0.2,0.1-0.3,0.2-0.5c10.4-26.1,58.1-59,106.7-99.2
					c24.9-20.6,47.3-43.2,66.1-62.1c17.9-18,32.5-32.8,42.9-39.5c7.6-4.9,25-17.7,45.9-33.7c37.8-29.1,86.7-68.6,108-90.1
					C53.1,23.9,96.2-38.1,118.6-66.4z"/>
			</g>
			<g transform="matrix(1,0,0,1,617.477,51.409)">
				<path class="st5" d="M-449,479c11.8-4.7,19.4-11,28-21c10.4-12.2,22.2-29.8,44.3-56.5c20.1-24.3,42.1-46.3,60.8-64.8
					c18.6-18.5,33.9-33.5,40.8-44.2c6.2-9.6,25.3-35.2,47.5-63.3c26.9-34.2,58.2-72.2,76.4-90.5C-118.2,105.3-82,72-85.8,56.2
					c-3.7-15.8-31.5,23.9-61.7,57.4c-15.9,17.6-47.4,50.8-78.1,84.5c-27.6,30.3-54.6,60.9-68.7,80.8c-14,19.7-27.2,37.6-39.7,53.3
					c-14,17.7-27.1,32.8-39.6,45c-13.1,12.9-41.1,45.4-60,70.4C-448.5,467.4-457.7,482.5-449,479z"/>
			</g>
			<g transform="matrix(1,0,0,1,307.425,111.935)">
				<path class="st6" d="M-80.3,488.8c-45.9-26.5-74.8-25.6-93.7-10.9c-7.7-20.4-8.7-36.7-3.5-41.9
					C-167.5,425.9-122.6,447.6-80.3,488.8z"/>
			</g>
			<g transform="matrix(1,0,0,1,297.695,258.655)">
				<path class="st7" d="M-13.2,420.9c4.7,11.9,5.5,20.8,1.6,24.7c-6,6-27.1,3.6-52.2-7.8C-43.4,438.3-26.3,435.7-13.2,420.9z"/>
			</g>
			<g transform="matrix(1,0,0,1,299.25,176.755)">
				<path class="st8" d="M-69,427.1c27.1,27.1,46.3,55.7,54.2,75.7c-13.1,14.8-30.1,17.4-50.6,16.8c-4.2-1.9-8.4-4-12.7-6.4
					c-14.6-8.1-29.9-19.1-43.9-33.1c-21.7-21.7-36.1-46.4-43.9-67c18.9-14.7,47.8-15.6,93.7,10.9C-71.1,425-70.1,426-69,427.1z"/>
			</g>
			<g transform="matrix(0.9856100000000001,0,0,0.99707,965.25,168.89)">
				<path class="st9" d="M-392.3-152.7l241.6,238.8l-51.4,42.8l-233.5-230.8L-392.3-152.7z"/>
			</g>
			<g transform="matrix(1,0,0,1,964.759,169.89)">
				<path class="st10" d="M-270.9-28.8c-3,3.4-6.1,6.6-9.1,10l-9.2,9.9c-3.1,3.3-6,6.7-9.3,9.8c-3.3,3-6.7,6-10.5,8.6
					c-0.1,0-0.2,0-0.2,0c0-0.1,0-0.1,0-0.2c2.6-3.8,5.6-7.2,8.6-10.5c3-3.3,6.5-6.2,9.8-9.3l9.9-9.2c3.3-3,6.6-6.1,10-9.1
					c0.1-0.1,0.2-0.1,0.2,0C-270.9-28.9-270.9-28.8-270.9-28.8z"/>
			</g>
			<g transform="matrix(1,0,0,1,964.759,200.333)">
				<path class="st10" d="M-249-37.3c-3.1,3.3-6.2,6.6-9.3,9.8l-9.4,9.7c-3.1,3.2-6.1,6.6-9.5,9.6c-3.4,3-6.8,5.9-10.6,8.4
					c-0.1,0-0.2,0-0.2,0c0-0.1,0-0.1,0-0.2c2.7-3.7,5.7-7.1,8.7-10.4c3.1-3.3,6.6-6.1,9.9-9.2l10-9.1c3.4-3,6.7-6,10.1-9
					c0.1-0.1,0.2,0,0.2,0C-248.9-37.4-248.9-37.3-249-37.3z"/>
			</g>
			<g transform="matrix(1,0,0,1,964.759,230.779)">
				<path class="st10" d="M-227.1-45.8c-3.1,3.3-6.3,6.5-9.4,9.7l-9.5,9.6c-3.2,3.2-6.2,6.6-9.6,9.5c-3.4,2.9-6.9,5.8-10.8,8.3
					c-0.1,0-0.2,0-0.2,0c0-0.1,0-0.1,0-0.2c2.7-3.7,5.8-7,8.9-10.2c3.1-3.2,6.7-6.1,10-9l10.1-8.9c3.4-2.9,6.8-5.9,10.2-8.8
					c0.1-0.1,0.2,0,0.2,0C-227-46-227-45.9-227.1-45.8z"/>
			</g>
			<g transform="matrix(1,0,0,1,964.759,261.324)">
				<path class="st10" d="M-205.2-54.4c-3.2,3.2-6.4,6.4-9.6,9.6l-9.7,9.5c-3.2,3.1-6.3,6.5-9.8,9.3c-3.5,2.9-7,5.7-10.9,8.1
					c-0.1,0-0.2,0-0.2,0c0-0.1,0-0.1,0-0.2c2.8-3.7,5.9-6.9,9.1-10.1c3.2-3.2,6.8-6,10.2-8.9l10.3-8.8c3.5-2.9,6.9-5.8,10.4-8.7
					c0.1-0.1,0.2,0,0.2,0C-205.1-54.6-205.1-54.5-205.2-54.4z"/>
			</g>
			<g transform="matrix(1,0,0,1,964.759,292.005)">
				<path class="st10" d="M-183.2-63.2c-3.2,3.2-6.5,6.3-9.7,9.4l-9.8,9.3c-3.3,3.1-6.4,6.4-9.9,9.2c-3.5,2.8-7.1,5.6-11,8
					c-0.1,0-0.2,0-0.2-0.1c0-0.1,0-0.1,0-0.2c2.8-3.6,6-6.8,9.2-10c3.2-3.2,6.9-5.9,10.3-8.8l10.4-8.6c3.5-2.8,7-5.7,10.5-8.5
					c0.1-0.1,0.2,0,0.2,0C-183.2-63.3-183.2-63.2-183.2-63.2z"/>
			</g>
			<g transform="matrix(1,0,0,1,964.759,322.678)">
				<path class="st10" d="M-161.3-71.9c-3.3,3.1-6.6,6.2-9.9,9.3l-10,9.2c-3.3,3-6.5,6.3-10.1,9.1c-3.5,2.8-7.2,5.5-11.1,7.8
					c-0.1,0-0.2,0-0.2-0.1c0-0.1,0-0.1,0-0.2c2.9-3.6,6.1-6.8,9.4-9.9c3.3-3.1,6.9-5.8,10.4-8.6l10.5-8.5c3.6-2.8,7.1-5.6,10.6-8.4
					c0.1-0.1,0.2,0,0.2,0C-161.3-72.1-161.3-72-161.3-71.9z"/>
			</g>
			<g transform="matrix(1,0,0,1,964.759,139.447)">
				<path class="st10" d="M-292.8-20.2c-3,3.4-6,6.7-9,10.1l-9.1,10c-3,3.3-5.9,6.8-9.2,9.9c-3.3,3.1-6.6,6.1-10.4,8.7
					c-0.1,0-0.2,0-0.2,0c0-0.1,0-0.1,0-0.2c2.5-3.8,5.4-7.3,8.4-10.6c3-3.4,6.4-6.3,9.6-9.5l9.7-9.4c3.3-3.1,6.5-6.2,9.8-9.3
					c0.1-0.1,0.2-0.1,0.2,0C-292.8-20.4-292.8-20.3-292.8-20.2z"/>
			</g>
			<g transform="matrix(1,0,0,1,964.759,109.001)">
				<path class="st10" d="M-314.8-11.7c-2.9,3.4-5.9,6.8-8.8,10.2l-8.9,10.1c-3,3.4-5.8,6.9-9,10c-3.2,3.1-6.6,6.2-10.2,8.9
					c-0.1,0-0.2,0-0.2,0c0-0.1,0-0.1,0-0.2c2.5-3.8,5.3-7.3,8.3-10.8c2.9-3.4,6.3-6.4,9.5-9.6l9.6-9.5c3.2-3.1,6.4-6.3,9.7-9.4
					c0.1-0.1,0.2-0.1,0.2,0C-314.7-11.9-314.7-11.8-314.8-11.7z"/>
			</g>
			<g transform="matrix(1,0,0,1,964.759,78.456)">
				<path class="st10" d="M-336.7-3.1c-2.9,3.5-5.8,6.9-8.7,10.4l-8.8,10.3c-2.9,3.4-5.7,7-8.9,10.2c-3.2,3.2-6.5,6.3-10.1,9.1
					c-0.1,0.1-0.2,0-0.2,0c0-0.1,0-0.1,0-0.2c2.4-3.9,5.2-7.4,8.1-10.9c2.9-3.5,6.2-6.5,9.3-9.8l9.5-9.7c3.2-3.2,6.3-6.4,9.6-9.6
					c0.1-0.1,0.2-0.1,0.2,0C-336.6-3.2-336.6-3.2-336.7-3.1z"/>
			</g>
			<g transform="matrix(1,0,0,1,964.759,47.774)">
				<path class="st10" d="M-358.6,5.7c-2.8,3.5-5.7,7-8.5,10.5l-8.6,10.4c-2.9,3.5-5.6,7.1-8.8,10.3c-3.1,3.2-6.4,6.4-10,9.2
					c-0.1,0.1-0.2,0-0.2,0c0-0.1,0-0.1,0-0.2c2.4-3.9,5.1-7.5,8-11c2.8-3.5,6.1-6.6,9.2-9.9l9.3-9.8c3.1-3.2,6.3-6.5,9.4-9.7
					c0.1-0.1,0.2-0.1,0.2,0C-358.5,5.5-358.5,5.6-358.6,5.7z"/>
			</g>
			<g transform="matrix(1,0,0,1,964.759,17.102)">
				<path class="st10" d="M-380.5,14.4c-2.8,3.6-5.6,7.1-8.4,10.6l-8.5,10.5c-2.8,3.5-5.5,7.2-8.6,10.4c-3.1,3.3-6.3,6.5-9.9,9.4
					c-0.1,0.1-0.2,0-0.2,0c0-0.1,0-0.1,0-0.2c2.3-4,5-7.6,7.8-11.1c2.8-3.6,6-6.7,9.1-10.1l9.2-10c3.1-3.3,6.2-6.6,9.3-9.9
					c0.1-0.1,0.2-0.1,0.2,0C-380.5,14.3-380.5,14.4-380.5,14.4z"/>
			</g>
			<g transform="matrix(1,0,0,1,383.603,172.22)">
				<path class="st11" d="M-110.3,397.6c2.4,1.8,5.1,3.4,7.9,4.7l-13.1,12.2c-2.4-1.4-4.7-3-6.9-4.8c-4.1-3.2-7.6-7-10.6-11.2
					l11.9-12.8C-118.2,390.2-114.6,394.4-110.3,397.6z"/>
			</g>
			<g transform="matrix(1,0,0,1,451.823,173.847)">
				<path class="st11" d="M-106,340.8l-12.8,11.8c-1.5-0.8-3.3-1.2-5.1-1c-9.6,0.7-15.8,11.2-20.6,18.3c-2.6,3.8-7.4,5.6-11.7,3.2
					c-3.8-2.2-5.8-7.8-3.2-11.6c8.5-12.7,18.8-26.3,35.6-26.9C-117,334.3-111,336.8-106,340.8z"/>
			</g>
			<g transform="matrix(1,0,0,1,504.315,172.181)">
				<path class="st11" d="M-159.5,296.9c7.9,8.1,15.9,16.3,23.8,24.4l-12.5,11.6c-1.9-2-3.8-3.9-5.7-5.8
					c-5.7-5.9-11.5-11.7-17.2-17.6L-159.5,296.9z"/>
			</g>
			<g transform="matrix(1,0,0,1,591.126,167.131)">
				<path class="st11" d="M-178.7,238c-6.7,7.4-13.3,14.9-20,22.3c-7.3,8.2,4.7,20.3,12.1,12.1c6.7-7.4,13.3-14.9,20-22.3
					C-159.3,241.9-171.3,229.8-178.7,238z"/>
			</g>
			<g transform="matrix(1,0,0,1,675.167,172.239)">
				<path class="st11" d="M-185.3,173.8c-8.6,11.8-17.3,23.6-25.9,35.4l13,11.6l-12.6,11.6l-32.8-29.2l11.6-12.5l8.1,7.2
					c7.9-10.8,15.9-21.7,23.8-32.5c2.7-3.7,7.3-5.7,11.6-3.2C-184.8,164.3-182.5,170.1-185.3,173.8z"/>
			</g>
			<g transform="matrix(1,0,0,1,780.989,172.143)">
				<path class="st11" d="M-223.2,67.2l39.1,42.5l-18.8,17.4c-10.7-2.8-21.2-6.5-31.4-11c4.9,8.8,9.9,17.6,14.8,26.4l-17.4,16.1
					c-15.1-9.9-31.1-18.3-47.7-25.2l12.3-13.3c9.8,4.3,19.4,9.1,28.8,14.5c-5.3-9.5-10.6-18.9-15.9-28.3l13.9-15l0,0
					c11.4,6.6,23.5,11.9,35.9,16c-8.4-9.2-16.9-18.3-25.3-27.5L-223.2,67.2z"/>
			</g>
			<g transform="matrix(1,0,0,1,869.469,168.566)">
				<path class="st11" d="M-244.5,62.2c7.7,7.8-4.3,19.9-12.1,12.1c-10.1-10.2-21-19.5-32.5-27.9l11.7-12.6
					C-265.7,42.4-254.8,52-244.5,62.2z"/>
			</g>
			<g transform="matrix(1,0,0,1,426.321,131.987)">
				<path class="st12" d="M-125.4,346.3c1.1,4.2-1.5,9.7-6.1,10.4c-19.4,3.2-36.1,18.3-38.9,38.2c-1.5,10.6,1,21.8,6.7,31
					l-11.9,12.8c-10.6-14.7-14.7-34.2-10.5-51.8c5.6-23.6,26.5-42.8,50.4-46.7C-131.3,339.4-126.7,341.5-125.4,346.3z"/>
			</g>
			<g transform="matrix(1,0,0,1,504.664,140.02)">
				<path class="st12" d="M-173.8,314.9c4.6,4.7,9.3,9.5,13.9,14.2l-11.6,12.5c-4.8-4.9-9.6-9.8-14.4-14.7
					C-193.5,319.1-181.5,307-173.8,314.9z"/>
			</g>
			<g transform="matrix(1,0,0,1,676.743,125.675)">
				<path class="st12" d="M-221.1,183.2c-11,11.9-22,23.8-33,35.8l20.6,18.3l-11.6,12.5l-25.3-22.5c-0.9-0.6-1.7-1.3-2.4-2.2
					l-1.5-1.3c-6.2-5.5-0.8-13.7,5.7-14.3c11.8-12.8,23.7-25.6,35.5-38.4C-225.7,163.1-213.7,175.2-221.1,183.2z"/>
			</g>
			<g transform="matrix(1,0,0,1,735.735,123.833)">
				<path class="st12" d="M-227,168.4l-12.3,13.3c-9.4-3.9-19-7.3-28.8-10.1c-10.6-3.1-6.2-19.6,4.3-16.5
					C-251.2,158.7-238.9,163.2-227,168.4z"/>
			</g>
			<g transform="matrix(1,0,0,1,783.15,137.242)">
				<path class="st12" d="M-247.6,126.1l-13.9,15c-1.3-2.3-2.6-4.7-3.9-7c-4-7.1,4.3-16.2,11.6-11.6
					C-251.8,123.7-249.7,125-247.6,126.1z"/>
			</g>
			<g transform="matrix(1,0,0,1,818.585,117.605)">
				<path class="st12" d="M-288.6,91.5c9.3,10.1,18.5,20.1,27.8,30.2l-11.6,12.6c-9.4-10.2-18.8-20.5-28.3-30.7
					C-308.1,95.6-296.1,83.5-288.6,91.5z"/>
			</g>
			<g transform="matrix(1,0,0,1,861.271,113.9)">
				<path class="st12" d="M-269.2,88.5l-11.7,12.6c-11.4-8.3-23.5-15.8-36.2-22.3c-9.8-5-1.3-19.8,8.4-14.9
					C-294.8,71.1-281.6,79.3-269.2,88.5z"/>
			</g>
			<g transform="matrix(1,0,0,1,428.99,210.152)">
				<path class="st13" d="M-71.3,323.3c6,23-9.9,47.4-30.6,56.6c-19,8.5-41.2,7.1-58.9-3.4l13.1-12.2c11.6,5.3,25.7,5.8,37.4,0.8
					c13.5-5.8,25.9-20.7,22.9-36.2c-1-4.8-3.9-10.3-8.4-12.5l12.8-11.8C-77.4,309.2-73.2,316.1-71.3,323.3z"/>
			</g>
			<g transform="matrix(1,0,0,1,541.478,210.921)">
				<path class="st13" d="M-100.4,257.4l-27.2,36.2c-4.8,6.4-9.5,12.9-14.5,19.3c-4.4,5.6-11.1,8.6-18,5.4
					c-6-2.8-10.7-9.1-15.3-13.8c-3.4-3.4-6.7-6.9-10.1-10.3l12.5-11.6c5.7,5.9,11.5,11.7,17.2,17.6c0.1,0.1,0.6,0.5,1.1,1
					c0.5-0.7,1-1.3,1-1.3c1-1.3,2-2.7,3-4c3.9-5.1,7.7-10.3,11.6-15.4c7.9-10.5,15.8-21,23.6-31.5c2.8-3.7,7.2-5.7,11.7-3.2
					C-100,247.8-97.6,253.7-100.4,257.4z"/>
			</g>
			<g transform="matrix(1,0,0,1,685.024,212.821)">
				<path class="st13" d="M-147.1,147.1c3.5,3.5,2.8,8.4,0,12.1l-41,52.1c-2.9,3.7-9.1,3-12.1,0c-0.9-0.9-1.6-2-2-3.1
					c-0.2-0.2-0.4-0.3-0.6-0.5l-17.9-15.9l12.6-11.6l13.5,12c11.8-15,23.6-30.1,35.4-45.1C-156.3,143.4-150,144.1-147.1,147.1z"/>
			</g>
			<g transform="matrix(1,0,0,1,763.691,210.755)">
				<path class="st13" d="M-202.1,103.8c2.6,4.6,5.2,9.3,7.8,13.9c3.8,6.8-4.5,16.9-11.6,11.6c-4.4-3.3-9-6.4-13.6-9.4L-202.1,103.8
					z"/>
			</g>
			<g transform="matrix(1,0,0,1,810.927,210.724)">
				<path class="st13" d="M-214,71.1c2.1,2.3,4.2,4.5,6.3,6.8c6,6.5,0,15.8-8.2,14.3c-5.7-1-11.3-2.2-16.8-3.7L-214,71.1z"/>
			</g>
			<g transform="matrix(1,0,0,1,872.004,215.472)">
				<path class="st13" d="M-224.7,48.5c-7.8,7.8-19.8-4.3-12.1-12.1C-229,28.6-216.9,40.7-224.7,48.5z"/>
			</g>
		</g>
		<g transform="matrix(1,0,0,1,26.5,11.5)">
			<g transform="matrix(1,0,0,1,244.155,194.665)">
				<path class="st14" d="M-36.9,439.2c0.1,0.2,0.2,0.3,0.4,0.5c11.1,14.8,11.5,24,11.5,24l-64.8,54.2c0,0-2.5-6.4-8.3-14.8
					c-1.2-1.7-2.5-3.6-4-5.4L-36.9,439.2z"/>
				<path class="st15" d="M-36.9,439.2c0.1,0.2,0.2,0.3,0.4,0.5c11.1,14.8,11.5,24,11.5,24l-64.8,54.2c0,0-2.5-6.4-8.3-14.8
					c-1.2-1.7-2.5-3.6-4-5.4L-36.9,439.2z"/>
			</g>
			<g transform="matrix(1,0,0,1,247.505,167.39)">
				<path class="st12" d="M-51.3,453.9c4.5,4.5,8.2,8.7,11.1,12.6l-65.1,58.5c-2.3-2.9-5-6-8-9c-3-3-6.1-5.7-9-8l58.5-65.1
					C-60.1,445.7-55.8,449.4-51.3,453.9z"/>
				<path class="st16" d="M-51.3,453.9c4.5,4.5,8.2,8.7,11.1,12.6l-65.1,58.5c-2.3-2.9-5-6-8-9c-3-3-6.1-5.7-9-8l58.5-65.1
					C-60.1,445.7-55.8,449.4-51.3,453.9z"/>
			</g>
			<g transform="matrix(1,0,0,1,244.155,140.115)">
				<path class="st17" d="M-60.6,470.1l-58.5,65.1c-1.9-1.5-3.7-2.8-5.4-4c-8.4-5.7-14.8-8.3-14.8-8.3l54.2-64.8
					c0,0,9.2,0.4,24,11.5C-60.9,469.9-60.7,470-60.6,470.1z"/>
				<path class="st18" d="M-60.6,470.1l-58.5,65.1c-1.9-1.5-3.7-2.8-5.4-4c-8.4-5.7-14.8-8.3-14.8-8.3l54.2-64.8
					c0,0,9.2,0.4,24,11.5C-60.9,469.9-60.7,470-60.6,470.1z"/>
			</g>
			<g transform="matrix(1,0,0,1,197.627,167.39)">
				<path class="st13" d="M-63.5,516c20.7,20.7,20.2,29.3,20.2,29.3s-8.6,0.4-29.3-20.2c-20.7-20.7-20.2-29.3-20.2-29.3
					S-84.1,495.3-63.5,516z"/>
				<path class="st19" d="M-63.5,516c20.7,20.7,20.2,29.3,20.2,29.3s-8.6,0.4-29.3-20.2c-20.7-20.7-20.2-29.3-20.2-29.3
					S-84.1,495.3-63.5,516z"/>
			</g>
			<g transform="matrix(1,0,0,1,248.246,166.89)">
				<path class="st13" d="M-56.5,458.4c-3.8,5-8,9.7-12.3,14.2c-4.3,4.6-9,8.7-13.5,13l-13.6,12.9l-13.7,12.8
					c-0.1,0.1-0.2,0.1-0.2,0c-0.1-0.1-0.1-0.1,0-0.2l12.8-13.7L-84,484c4.3-4.5,8.5-9.2,13-13.5c4.6-4.3,9.2-8.5,14.2-12.3
					c0.1-0.1,0.2,0,0.2,0C-56.5,458.3-56.5,458.4-56.5,458.4z"/>
			</g>
			<g transform="matrix(1,0,0,1,248.147,173.753)">
				<path class="st13" d="M-51.4,456.7c-3.9,5-8.2,9.5-12.5,14c-4.3,4.5-9.1,8.6-13.6,12.9l-13.7,12.8l-13.8,12.6
					c-0.1,0.1-0.2,0.1-0.2,0c-0.1-0.1-0.1-0.1,0-0.2l13-13.5l13.1-13.4c4.4-4.5,8.6-9.1,13.2-13.3c4.6-4.2,9.3-8.3,14.4-12.1
					c0.1,0,0.2,0,0.2,0C-51.4,456.6-51.4,456.7-51.4,456.7z"/>
			</g>
			<g transform="matrix(1,0,0,1,247.046,180.616)">
				<path class="st13" d="M-46,455.7c-4,4.9-8.3,9.4-12.7,13.9c-4.4,4.5-9.2,8.5-13.8,12.7l-13.9,12.6l-14,12.5
					c-0.1,0.1-0.2,0.1-0.2,0c-0.1-0.1-0.1-0.1,0-0.2l13.2-13.3l13.3-13.2c4.4-4.4,8.7-9,13.4-13.1c4.7-4.2,9.4-8.2,14.5-11.9
					c0.1,0,0.2,0,0.2,0C-46,455.6-46,455.7-46,455.7z"/>
			</g>
			<g transform="matrix(1,0,0,1,245.947,187.319)">
				<path class="st13" d="M-40.7,454.9c-4,4.8-8.4,9.3-12.8,13.7c-4.4,4.4-9.3,8.4-14,12.5l-14.1,12.4l-14.2,12.3
					c-0.1,0.1-0.2,0-0.2,0c-0.1-0.1,0-0.1,0-0.2l13.4-13.2l13.5-13.1c4.5-4.3,8.8-8.9,13.6-12.9c4.7-4.1,9.5-8.1,14.7-11.7
					c0.1,0,0.2,0,0.2,0C-40.6,454.8-40.6,454.8-40.7,454.9z"/>
			</g>
			<g transform="matrix(1,0,0,1,244.846,193.939)">
				<path class="st13" d="M-35.3,454.1c-4.1,4.8-8.5,9.2-13,13.5c-4.5,4.3-9.4,8.2-14.1,12.3l-14.2,12.2L-91,504.3
					c-0.1,0.1-0.2,0-0.2,0c-0.1-0.1,0-0.2,0-0.2l13.5-13l13.6-12.9c4.6-4.3,8.9-8.7,13.7-12.8c4.8-4,9.6-8,14.8-11.5
					c0.1,0,0.2,0,0.2,0C-35.2,454-35.2,454.1-35.3,454.1z"/>
			</g>
			<g transform="matrix(1,0,0,1,242.747,200.598)">
				<path class="st13" d="M-29.6,454.1c-4.2,4.7-8.6,9.1-13.2,13.4c-4.6,4.3-9.5,8.1-14.3,12.1l-14.4,12L-86,503.5
					c-0.1,0.1-0.2,0-0.2,0c-0.1-0.1,0-0.2,0-0.2l13.7-12.8l13.8-12.7c4.6-4.2,9.1-8.6,13.9-12.6c4.8-4,9.7-7.9,15-11.4
					c0.1,0,0.2,0,0.2,0C-29.5,453.9-29.5,454-29.6,454.1z"/>
			</g>
			<g transform="matrix(1,0,0,1,248.246,166.89)">
				<path class="st13" d="M-56.5,458.4c-3.8,5-8,9.7-12.3,14.2c-4.3,4.6-9,8.7-13.5,13l-13.6,12.9l-13.7,12.8
					c-0.1,0.1-0.2,0.1-0.2,0c-0.1-0.1-0.1-0.1,0-0.2l12.8-13.7L-84,484c4.3-4.5,8.5-9.2,13-13.5c4.6-4.3,9.2-8.5,14.2-12.3
					c0.1-0.1,0.2,0,0.2,0C-56.5,458.3-56.5,458.4-56.5,458.4z"/>
			</g>
			<g transform="matrix(1,0,0,1,248.147,160.027)">
				<path class="st13" d="M-61.6,460.3c-3.8,5.1-7.9,9.8-12.1,14.4c-4.2,4.6-8.8,8.8-13.3,13.2l-13.4,13.1l-13.5,13
					c-0.1,0.1-0.2,0.1-0.2,0c-0.1-0.1-0.1-0.1,0-0.2l12.7-13.8l12.8-13.7c4.3-4.6,8.3-9.3,12.9-13.6c4.5-4.3,9.1-8.6,14-12.5
					c0.1-0.1,0.2,0,0.2,0C-61.6,460.1-61.6,460.2-61.6,460.3z"/>
			</g>
			<g transform="matrix(1,0,0,1,247.047,153.164)">
				<path class="st13" d="M-66.4,462.8c-3.7,5.1-7.8,9.9-11.9,14.5c-4.1,4.7-8.7,8.9-13.1,13.4l-13.2,13.3l-13.3,13.2
					c-0.1,0.1-0.2,0.1-0.2,0c-0.1-0.1-0.1-0.1,0-0.2l12.5-14l12.6-13.9c4.2-4.6,8.2-9.4,12.7-13.8c4.4-4.4,9-8.7,13.9-12.7
					c0.1-0.1,0.2,0,0.2,0C-66.3,462.7-66.3,462.8-66.4,462.8z"/>
			</g>
			<g transform="matrix(1,0,0,1,245.946,146.461)">
				<path class="st13" d="M-71.1,465.2c-3.6,5.1-7.6,10-11.7,14.7c-4.1,4.7-8.6,9.1-12.9,13.6l-13.1,13.5l-13.2,13.4
					c-0.1,0.1-0.2,0.1-0.2,0c-0.1-0.1-0.1-0.1,0-0.2l12.3-14.2l12.4-14.1c4.1-4.7,8.1-9.5,12.5-14c4.4-4.4,8.9-8.8,13.7-12.8
					c0.1-0.1,0.2,0,0.2,0C-71.1,465.1-71.1,465.2-71.1,465.2z"/>
			</g>
			<g transform="matrix(1,0,0,1,244.845,139.841)">
				<path class="st13" d="M-75.9,467.6c-3.6,5.2-7.5,10.1-11.5,14.8c-4,4.8-8.5,9.2-12.8,13.7l-12.9,13.6l-13,13.5
					c-0.1,0.1-0.2,0.1-0.2,0c-0.1-0.1-0.1-0.1,0-0.2l12.1-14.3l12.2-14.2c4.1-4.7,8-9.6,12.3-14.1c4.3-4.5,8.8-8.9,13.5-13
					c0.1-0.1,0.2,0,0.2,0C-75.9,467.4-75.9,467.5-75.9,467.6z"/>
			</g>
			<g transform="matrix(1,0,0,1,242.744,133.182)">
				<path class="st13" d="M-80.4,470.6c-3.5,5.2-7.4,10.2-11.4,15c-4,4.8-8.4,9.3-12.6,13.9l-12.7,13.8l-12.8,13.7
					c-0.1,0.1-0.2,0.1-0.2,0c-0.1-0.1-0.1-0.1,0-0.2l11.9-14.5l12-14.4c4-4.8,7.9-9.7,12.1-14.3c4.3-4.6,8.6-9.1,13.4-13.2
					c0.1-0.1,0.2,0,0.2,0C-80.4,470.5-80.4,470.6-80.4,470.6z"/>
			</g>
			<g transform="matrix(1,0,0,1,98.375,164.89)">
				<path class="st15" d="M31.8,524.7c0,0.6-0.1,1.3,0,2.1c0,7.1-27.6,37.5-38.2,46.7s-52.3,48.1-61.5,58.7
					c-9.2,10.6-26.2,27.6-31.8,31.8c-0.9,0.7-1.9,1.2-3,1.6c-2.1-0.3-4.1-1.2-5.7-2.8c-1.9-1.9-2.8-4.2-2.9-6.6
					c-0.1-2.4,0.8-4.7,2.5-6.5l127.4-135C18.5,514.5,24.1,517.1,31.8,524.7z"/>
				<path class="st14" d="M31.8,524.7c0,0.6-0.1,1.3,0,2.1c0,7.1-27.6,37.5-38.2,46.7s-52.3,48.1-61.5,58.7
					c-9.2,10.6-26.2,27.6-31.8,31.8c-0.9,0.7-1.9,1.2-3,1.6c-2.1-0.3-4.1-1.2-5.7-2.8c-1.9-1.9-2.8-4.2-2.9-6.6
					c-0.1-2.4,0.8-4.7,2.5-6.5l127.4-135C18.5,514.5,24.1,517.1,31.8,524.7z"/>
			</g>
			<g transform="matrix(1,0,0,1,102.75,160.89)">
				<path class="st12" d="M15.3,527.2c-4.8,7.5-36.8,42.4-50.2,54.4s-62.2,65.1-69.3,70.7s6.4-10.6,23.3-27.6
					c17-17,62.9-61.5,70.7-72.1C-2.4,542.1,20.3,519.5,15.3,527.2z"/>
			</g>
			<g transform="matrix(1,0,0,1,99.39,175.675)">
				<path class="st13" d="M30.7,513.9l0.3,0.3c7.9,7.9,7.7,10.7,7.7,10.7L-96.3,652.3c-2,2-4.8,2.8-7.5,2.4c1-0.4,2-0.9,3-1.6
					c5.7-4.2,22.6-21.2,31.8-31.8s50.9-49.5,61.5-58.7s38.2-39.6,38.2-46.7C30.7,515.2,30.7,514.5,30.7,513.9z"/>
			</g>
			<g transform="matrix(0.9407,0,0,1,62.5,11.125)">
				<path class="st20" d="M-78.5,812.4c1.3-1.3,7.3,4.2,5.9,5.5C-74,819.2-79.8,813.8-78.5,812.4z"/>
			</g>
		</g>
	</g>
</g>
</svg>
