<svg id="Layer_1" data-name="Layer 1" xmlns="http://www.w3.org/2000/svg" viewBox="0 0 800 800"><defs><style>.cls-1{fill:red;}.cls-2{fill:#754c24;}.cls-3{fill:#8c6239;}.cls-4{fill:#603813;}</style></defs><title>Vandalism</title><path class="cls-1" d="M565.62,53.65a91.3,91.3,0,0,0-20.69-30.09c6.86-1.63,11.43-8.93,1.72-12.13-11.36-3.74-22.29,15.29-24.11,23.67C508.9,7.54,479.1,29.41,484.65,53.53c5.28,22.95,40.56,26.82,41.43-.25C534.84,66.7,577.69,82.55,565.62,53.65Zm-52,1.34c-.73,12.82-19.44,1.84-16.77-10C501.69,23.51,514.36,42.35,513.64,55Zm36.48,2.69c-10.39-5-20.19-13.13-13.68-25.66,7.53,7.32,15.78,17.26,18.69,27.67A7.34,7.34,0,0,1,550.12,57.69Z"/><path class="cls-1" d="M605.38,17.66c-7.5-.58-28.74-3.84-34.62,1.71-4.41,4.17-.29,27.73-.11,34.06C571,65.1,568,125.26,582,126.79c9.15,1,0-54.13,3.81-59.86C588.87,62.31,647.82,21,605.38,17.66Zm1.37,16C603.18,43,590.94,50.34,582.69,55q-.38-12.67-.36-25.36C586.75,29.6,609.53,26.38,606.75,33.67Z"/><path class="cls-1" d="M645.24,61.14c-.92-7.62,1.83-59-13.14-37.52-2.64,3.79-1.66,33.85,1.14,37.52C635.45,64,646.56,72,645.24,61.14Z"/><path class="cls-1" d="M688.76,22c-5.64-.92-21.4,4.82-24.08,8.69-2.78,4-6.61,22.73-1.2,26,15.54,9.43,7.39-24.54,23.43-22.91,11.72,1.19,7.34,38.85,19.56,28.66S700.72,24,688.76,22Z"/><path class="cls-1" d="M763.33,73.29c-1.14-15.46-4.63-29.1-13.16-40.08-4.49-5.78-.77-15-13.43-12.23-5.89,1.31-8.16,7.78-9.2,12.8-3.7,17.9,10.27,15.44,17.71,22.73,5.59,5.47,11.27,31.17,4,41.75-6.16,9-16.84,6.64-26.27,5.42-5-.64-21.16-9.7-14.16,5.1,5.72,12.08,34.07,9.59,42.92,3.85C764.3,104.5,764.33,86.82,763.33,73.29Zm-18.7-28.37c-4.62,1.65-5.78-7.68-5.57-9.23C738.53,34.87,749.95,43,744.63,44.92Z"/><path class="cls-1" d="M279.53,136a40.56,40.56,0,0,1-6,12.41c-4.43-32.14-20.6-3.59-30.5,8.5-3.64-12.56-16.35,6.75-18.2,9-6.37-11.84-17,.86-24.21,5.17,6.49-23.17-3.69-19.63-19.36-7.56,2.5-19.08-12.75-7.61-20.83-1.45,11-28.84-22.23-.2-28.7,5.18,4.73-9.28-2.75-9.34-8.68-8.73-6.95.71-24.33,23.6-29.66,28.76,1.46-3.09,9.6-16.35.44-18.45-7.11-1.63-16.93,13.44-21.67,16L67.87,182a17.39,17.39,0,0,0-12.33,7c-7.78,4.59-14.85,9.7-23.24,13.37,6.44-6.81,35.35-20.25,36.35-27.36,2.35-16.53-23.92,1.37-27.11,3.63C34,184,10.33,201.08,9.92,211.58c-.71,17.94,26.93,2.15,34.89-2-7.06,11.68,10.26,5.09,13.54,3.48,5.75-2.81,11.11-9.86,15.91-14.12C70.46,206.31,59,221,73,221.92c7.85.5,28.83-26.14,34.22-31.37.3,17.49,34.7-16.28,36.26-17.58-8.67,22.71,17.47,3.63,23.77-1.17-6.83,20.6,11.33,8.76,20.15,2-7.17,25.6,17.54,9.36,28.1,1.72,3.58,26.09,40.38-15.25,46.33-23.34,1.73,19.06,9.56,19.71,21.52,3,2.87-4,11.48-16.25,7.11-20.66C287.33,131.27,281.19,130.18,279.53,136Z"/><path class="cls-1" d="M106,244.15c-3.12-8.71-24.51-10.16-30.66-6.21-9.5,6.09-5.78,2.92,1.56,12.65,1.95,2.58,10,18.22,11.41,18.64C98.16,272.06,108.78,251.89,106,244.15Zm-12.8,12.2a49.84,49.84,0,0,0-7.54-9.87C93.69,246.29,102.65,246.29,93.2,256.35Z"/><path class="cls-1" d="M136,235.81c-5.67-14.53-9.65,12.5-9.28,12.07-10.91,12.49-5.78-13.14-15.41-5.59C95.73,254.49,150.57,273.28,136,235.81Z"/><path class="cls-1" d="M193.85,242c-7.13-23.27-16.4-38.46-31.21-11.14-7.08-18.49-21.7-3.86-19,8.82,1.48,7,2.23,13.67,9.46,7-2.5,2.32.07-12.69.55-13.72,8.92,23.26,15.8,4.55,23.13-9.14,1.4,4.32,3.85,10.74,6.29,14.19C183,237.92,198.19,256.13,193.85,242Z"/><path class="cls-2" d="M724.49,503.14c-17.19,21.3-46.89,30.33-73.19,23.72-22.21-5.58-60.07-41.07-84.25-25.33-31.53,20.52,30.38,25.2,38.2,27.86,30.7,10.45,34.38,47.76,9,67.23-15.44,11.83-57.13,15.74-31.71,40.88,21.39,21.15,49.53,28.05,64.87,56.68,31.39,58.59-29.73,117.55-86.44,80.19-24.27-16-43.77-41.78-60.21-65.25-12.76-18.21-25.8-61.44-53.36-57.68-38.2,5.22-67.06,127.12-116.56,82.64-16.31-14.65-22.95-52.37-17.06-72.56,6.61-22.67,37.39-46.76.23-63-26-11.39-55.47,5.17-70,26.49-19.33,28.35-24.23,56.83-55.18,76.8C141,732.61,56.61,751.68,34.2,681.91c-20.4-63.51,40-112,92.92-130.61,18.65-6.57,64.88-7.85,73.63-28.55,10-23.73-31.55-50.93-43.78-66.2-10.31-12.87-32.18-45.72-10-58,25-13.83,57.71,19.07,75.23,32,10.18,7.51,54.39,36.3,56.88,6.53,1.23-14.73-19.77-23.54-6.19-40.35,8-9.86,22.22-3.95,29.22-10.66,21-20.16-20.74-48.16-28.31-64.09-10.56-22.22-4.33-52.83,17.57-65.92,17.85-10.67,43.56-6.65,57.26,9.11,22.4,25.78-8.63,64.48,12.27,87.3,34.23,37.37,75.28-79.54,90.25-95.1,23.82-24.75,60.11-24,88.35-6.46,32.61,20.22,29,54.54,12,84.28C536.22,361.83,513,389,481.94,396.58c-14.21,3.47-37.88-1.09-49.45,10.48-10.88,10.87-5.76,21.84,6.86,29.05,30.07,17.17,72.46-6.9,98.59-21.23,33.2-18.22,66.21-36.52,105.26-36C704.94,379.69,774.15,441.59,724.49,503.14Z"/><path class="cls-3" d="M725.27,503.77a70.17,70.17,0,0,1-20.34,16.95,75.31,75.31,0,0,1-25.09,8.47l-3.29.47-3.32.25-1.66.13-1.66,0-3.33,0a73.8,73.8,0,0,1-13.23-1.57,40.62,40.62,0,0,1-6.48-1.77q-3.15-1.16-6.15-2.59c-4-1.89-7.89-3.95-11.74-6.05-7.69-4.2-15.27-8.54-23.15-12.14a88.9,88.9,0,0,0-12-4.6,43.26,43.26,0,0,0-12.41-2,25.23,25.23,0,0,0-3.07.19c-.5.07-1,.1-1.52.2l-1.48.33a9.19,9.19,0,0,0-1.46.41l-1.43.47-1.37.62a8.64,8.64,0,0,0-1.34.68,34.38,34.38,0,0,0-5.06,3.52,21.81,21.81,0,0,0-2.16,2.06,9.94,9.94,0,0,0-1.58,2.21,4.18,4.18,0,0,0-.53,2.06,3.49,3.49,0,0,0,.72,1.82,12.5,12.5,0,0,0,4.36,3.25,57.9,57.9,0,0,0,11.88,4c4.16,1,8.41,1.81,12.69,2.52s8.57,1.29,13,2.07c.56.1,1.13.21,1.72.34l.93.23c.37.1.69.21.94.3,1.09.41,2.21.75,3.28,1.23s2.16.91,3.19,1.49l1.57.82c.51.29,1,.61,1.51.92a42.26,42.26,0,0,1,5.71,4.25,40.91,40.91,0,0,1,4.86,5.27,38.52,38.52,0,0,1,6.51,12.79,41,41,0,0,1,1.5,14.31,44.85,44.85,0,0,1-11.15,26.14,50.42,50.42,0,0,1-5.13,5l-1.37,1.16c-.48.38-1,.76-1.51,1.13-1,.71-2,1.4-3.08,2-2.06,1.23-4.12,2.28-6.16,3.26s-4.08,1.9-6.09,2.8c-4,1.8-7.94,3.53-11.52,5.46a38.44,38.44,0,0,0-4.89,3.08,12.69,12.69,0,0,0-3.22,3.28,3.92,3.92,0,0,0-.6,2.76,9.35,9.35,0,0,0,1.57,3.71,9.1,9.1,0,0,0,.73,1c.27.35.5.71.8,1.06.64.69,1.18,1.41,1.88,2.1l1,1a14.91,14.91,0,0,0,1.09,1l2.3,2.06c6.17,5.45,13.25,10,20.57,14.7s15,9.34,22.29,15.17a97.49,97.49,0,0,1,10.41,9.58l2.34,2.73c.76.93,1.6,1.79,2.27,2.79l2.13,2.92c.35.49.72,1,1,1.47l.94,1.54a65.89,65.89,0,0,1,3.57,6.26l1.61,3.21c.52,1.08.93,2.22,1.4,3.33s.93,2.22,1.34,3.36l1.1,3.47a67.94,67.94,0,0,1,1.8,7.07,35.12,35.12,0,0,1,.61,3.61c.17,1.21.35,2.43.49,3.64l.21,3.68.1,1.84c0,.61,0,1.23,0,1.85l-.11,3.7c-.06,1.23-.25,2.46-.37,3.69a66.9,66.9,0,0,1-1.24,7.32,67.64,67.64,0,0,1-36,45.33,67.65,67.65,0,0,1-21.66,6.21c-1.25.18-2.51.17-3.76.26s-2.52.19-3.77.1a72.84,72.84,0,0,1-29-6.48c-2.18-1.1-4.42-2.13-6.54-3.33l-3.13-1.88c-1-.63-2.11-1.24-3-1.92-1.93-1.34-3.9-2.63-5.73-4.06l-2.8-2.11-2.7-2.2A182.46,182.46,0,0,1,524,753.72c-6.1-6.74-11.77-13.74-17.19-20.85q-4-5.35-7.93-10.76L495,716.68l-1.92-2.76c-.71-1-1.4-2.09-2-3.11-2.54-4.11-4.62-8.1-6.69-12s-4-7.75-6.06-11.46c-4-7.4-8.32-14.48-13.34-19.85a28,28,0,0,0-7.82-6.07,13.71,13.71,0,0,0-6-1.56l-1,0-1.07.09-.54,0L448,660a5.57,5.57,0,0,0-.93.19,14.8,14.8,0,0,0-2,.64,22.51,22.51,0,0,0-4.17,2.32,51.94,51.94,0,0,0-8.38,7.5,192.64,192.64,0,0,0-15.37,19.82c-4.94,7.07-9.79,14.38-14.94,21.65a193.4,193.4,0,0,1-17.07,21.34,78.32,78.32,0,0,1-10.86,9.6,53.32,53.32,0,0,1-6.59,4,39.57,39.57,0,0,1-7.61,2.82,31.08,31.08,0,0,1-16.65-.45A41.41,41.41,0,0,1,329.84,742c-1-.75-1.89-1.58-2.82-2.38l-.69-.61-.71-.69c-.46-.47-1-.91-1.38-1.4a47.64,47.64,0,0,1-4.7-6,68.14,68.14,0,0,1-6.61-12.86A104.44,104.44,0,0,1,306.46,691a102.44,102.44,0,0,1-.55-13.9A71.19,71.19,0,0,1,307.67,663a46.31,46.31,0,0,1,2.26-7c.91-2.24,1.93-4.37,3-6.4,2.14-4.09,4.45-7.87,6.62-11.61a87,87,0,0,0,5.68-11A20,20,0,0,0,327,616.69a12.09,12.09,0,0,0-1.66-4.32l-.69-1-.84-1c-.14-.16-.27-.33-.42-.49l-.49-.46-1-.93a42.82,42.82,0,0,0-10.09-6.06,41.16,41.16,0,0,0-23.31-2.86,58.14,58.14,0,0,0-22.65,9.06,70.53,70.53,0,0,0-18,17,202.7,202.7,0,0,0-13.32,22c-4.1,7.66-8.06,15.54-12.65,23.2a106.43,106.43,0,0,1-16.38,21.42L203,694.59c-.84.76-1.63,1.58-2.53,2.27L197.85,699c-.88.71-1.74,1.45-2.69,2.07-1.86,1.27-3.7,2.63-5.58,3.82s-3.77,2.38-5.71,3.46A189.31,189.31,0,0,1,134.6,728.4a144,144,0,0,1-26.48,4.07,98.65,98.65,0,0,1-26.94-2.09,67.88,67.88,0,0,1-25-11.08A63.67,63.67,0,0,1,38,698.83l-1.69-3c-.54-1-1-2.06-1.46-3.09l-1.43-3.11c-.42-1.06-.79-2.13-1.19-3.19L31,683.24c-.36-1.08-.65-2.18-1-3.27s-.65-2.18-.94-3.28l-.73-3.34A79.66,79.66,0,0,1,27.17,646,85.7,85.7,0,0,1,35,619.83a112.2,112.2,0,0,1,14.88-22.78,149.13,149.13,0,0,1,19.31-18.9,178.7,178.7,0,0,1,22-15.48,206,206,0,0,1,23.93-12.29c2.08-.85,4.14-1.75,6.24-2.55l3.15-1.2.79-.3.86-.3c.57-.19,1.15-.4,1.71-.56,4.53-1.4,8.9-2.33,13.24-3.26,8.65-1.82,17.16-3.43,25.35-5.6a114,114,0,0,0,11.87-3.78,48.4,48.4,0,0,0,10.3-5.31,23.76,23.76,0,0,0,3.81-3.4,14.84,14.84,0,0,0,2.38-3.78,14.18,14.18,0,0,0,.43-8.91l-.13-.6-.2-.61-.4-1.21c-.37-.81-.62-1.63-1.07-2.45l-.61-1.23-.7-1.22c-.44-.82-1-1.63-1.51-2.44a77.78,77.78,0,0,0-7.52-9.42c-5.6-6.11-12-11.83-18.46-17.72-3.26-3-6.56-5.93-9.87-9.32-.83-.83-1.66-1.74-2.49-2.67l-1.23-1.45L150,459.73q-2.16-2.71-4.18-5.52a126.62,126.62,0,0,1-7.52-11.75,83,83,0,0,1-6.06-13.12,43.52,43.52,0,0,1-2.75-15.68,26.91,26.91,0,0,1,1.76-9,24.88,24.88,0,0,1,5.21-8.14,28.16,28.16,0,0,1,7.28-5.41,30.81,30.81,0,0,1,3.9-1.77,31.26,31.26,0,0,1,4.1-1.29,39.57,39.57,0,0,1,16.47-.29,62.72,62.72,0,0,1,14.38,4.72,103.51,103.51,0,0,1,12.5,6.87,254.35,254.35,0,0,1,21.91,16c3.43,2.73,6.82,5.46,10.07,7.86s6.76,4.63,10.29,6.76,7.17,4.1,10.8,5.84a71,71,0,0,0,10.8,4.22,32.07,32.07,0,0,0,5,1,11.91,11.91,0,0,0,3.63-.07,2.16,2.16,0,0,0,1.17-.5,4.81,4.81,0,0,0,.74-1.72c.06-.28.13-.55.21-.82l.12-1a5.12,5.12,0,0,0,.09-.88,3.35,3.35,0,0,0,0-.65,9.74,9.74,0,0,0-.93-3.25,39.86,39.86,0,0,0-2.55-4.65c-1.07-1.76-2.34-3.72-3.61-6.07a32.4,32.4,0,0,1-3.3-8.5,23.32,23.32,0,0,1,.14-10.77,27.75,27.75,0,0,1,4.09-8.91c.41-.65.85-1.18,1.29-1.78.24-.3.4-.55.7-.89l.89-1a20.93,20.93,0,0,1,1.87-1.87q1-.86,2.1-1.67a28.77,28.77,0,0,1,9-4.08,56.91,56.91,0,0,1,7.81-1.32c2.31-.25,4.26-.45,5.69-.75a6.22,6.22,0,0,0,2.28-.77,0,0,0,0,1,0,0s0,.08.13-.1.43-.48.65-.72.23-.23.33-.35l.24-.35.49-.67a8.22,8.22,0,0,0,.95-2.49,10,10,0,0,0-.16-3,21.37,21.37,0,0,0-1.42-4,53.29,53.29,0,0,0-5.91-9.21c-2.43-3.13-5.16-6.25-8-9.41s-5.88-6.38-8.92-9.86c-1.53-1.77-3.07-3.56-4.61-5.63-.38-.49-.77-1-1.16-1.59s-.77-1.08-1.16-1.72-.76-1.17-1.15-1.9l-.56-1.06c-.18-.34-.4-.74-.5-1a63.68,63.68,0,0,1-2.85-7.33l-.59-1.87-.29-.94-.22-.95-.85-3.8c-.27-1.27-.39-2.56-.58-3.84l-.26-1.92c-.08-.64-.09-1.29-.13-1.93l-.2-3.87.11-3.86c0-.64,0-1.29.09-1.93l.21-1.92c.16-1.28.25-2.57.49-3.84a69.13,69.13,0,0,1,4.34-15c.51-1.21,1.13-2.38,1.71-3.56l.88-1.77,1-1.7a55,55,0,0,1,10.08-12.47l3.09-2.65c1-.87,2.21-1.58,3.33-2.36l1.7-1.14c.56-.39,1.2-.68,1.79-1l1.83-1a16.47,16.47,0,0,1,1.86-.9,52.67,52.67,0,0,1,15.59-4.35,58.67,58.67,0,0,1,15.91.15A61,61,0,0,1,338,244.7a52.61,52.61,0,0,1,13.7,8.67l1.56,1.35,1.45,1.49a35.9,35.9,0,0,1,2.81,3.11,35.47,35.47,0,0,1,2.56,3.45l1.18,1.81c.37.62.7,1.27,1,1.9a46.45,46.45,0,0,1,5,16.08,74.91,74.91,0,0,1,.21,15.31c-.38,4.83-1,9.39-1.68,13.75s-1.26,8.5-1.61,12.41a48.28,48.28,0,0,0,0,10.73,19.19,19.19,0,0,0,2.7,8,13.84,13.84,0,0,0,1.17,1.62l.64.79.76.78a13.58,13.58,0,0,0,2.87,2.28,6.06,6.06,0,0,0,2.21.78,5.92,5.92,0,0,0,2.34-.22,14.35,14.35,0,0,0,3.36-1.49,30.35,30.35,0,0,0,3.88-2.81,63.74,63.74,0,0,0,7.77-8c2.51-3,4.91-6.32,7.24-9.72,4.64-6.82,8.95-14.13,13.13-21.59s8.17-15.13,12.2-22.88l6.13-11.72c2.11-3.94,4.24-7.9,6.74-12a61.57,61.57,0,0,1,4.52-6.56c.44-.57,1.11-1.3,1.68-1.91L445,248.7l1.36-1.33,1.42-1.27a71.56,71.56,0,0,1,12.47-8.9,72.93,72.93,0,0,1,29-8.93A84.17,84.17,0,0,1,518.86,231a95.47,95.47,0,0,1,26.72,11.9,68.77,68.77,0,0,1,11.92,9.57A57.93,57.93,0,0,1,567,265.08a53.86,53.86,0,0,1,5.59,14.9,62.59,62.59,0,0,1,1.33,15.48,85.8,85.8,0,0,1-6.59,28.66A118.13,118.13,0,0,1,561.15,337L559.41,340l-1.77,2.93c-1.16,2-2.42,3.88-3.66,5.8a176.82,176.82,0,0,1-16.83,21.89,129.17,129.17,0,0,1-20.9,18.73,95.55,95.55,0,0,1-25.51,13c-2.31.72-4.66,1.31-7,1.95a56.53,56.53,0,0,1-7.54,1.1c-4.79.4-9.24.43-13.53.56a108.33,108.33,0,0,0-12.21.88,29.52,29.52,0,0,0-10,3,9.86,9.86,0,0,0-1,.59,8.35,8.35,0,0,0-.9.64,11.06,11.06,0,0,0-1.67,1.52l-.86.88-.69.9-.35.44c-.11.15-.17.3-.27.44l-.54.87c-1,2.33-1.24,4.06,0,6.49a13.41,13.41,0,0,0,2.69,3.6,24.59,24.59,0,0,0,1.9,1.73c.71.54,1.42,1.1,2.19,1.61a37.82,37.82,0,0,0,10.13,4.75c7.27,2.19,15.38,2.28,23.46,1.08a117.76,117.76,0,0,0,24.15-6.64,249.7,249.7,0,0,0,23.49-10.55c15.46-7.85,30.88-16.42,47-23.79a247.86,247.86,0,0,1,24.68-9.94,160.47,160.47,0,0,1,25.93-6.41,128.47,128.47,0,0,1,26.7-1.39,110.45,110.45,0,0,1,26.27,4.87A122.29,122.29,0,0,1,697,392.33a111.54,111.54,0,0,1,21.28,15.91c1.61,1.53,3.1,3.18,4.65,4.77l2.16,2.54c.71.86,1.48,1.66,2.11,2.57,1.3,1.8,2.73,3.51,3.88,5.42l1.81,2.81c.57,1,1.08,1.95,1.62,2.92a71.32,71.32,0,0,1,5.25,12.27c.3,1.07.57,2.16.86,3.23a28.66,28.66,0,0,1,.75,3.26,53.26,53.26,0,0,1,.89,6.63,60.58,60.58,0,0,1-3.68,26.25A83.43,83.43,0,0,1,725.27,503.77Zm-1.56-1.26a81.38,81.38,0,0,0,12.92-22.34A57.82,57.82,0,0,0,740,454.86a51.07,51.07,0,0,0-.93-6.36,27,27,0,0,0-.76-3.12c-.29-1-.55-2.07-.86-3.1a68.81,68.81,0,0,0-5.2-11.76,81.09,81.09,0,0,0-16-20.14,112.5,112.5,0,0,0-44.74-25,104.82,104.82,0,0,0-25.33-4.06,123.52,123.52,0,0,0-25.58,2.08c-16.9,3.1-33,9.67-48.43,17.46s-30.35,16.85-45.77,25.45a263.16,263.16,0,0,1-24,11.89,128.26,128.26,0,0,1-26.08,8.28c-9.11,1.73-18.93,2.16-28.59-.3a50.37,50.37,0,0,1-13.78-5.81c-1.08-.65-2.14-1.4-3.19-2.15a36.19,36.19,0,0,1-3.05-2.57,26.56,26.56,0,0,1-5.34-6.7,20,20,0,0,1-2.66-9.23,21.55,21.55,0,0,1,2-9.48c.34-.67.7-1.33,1.06-2,.19-.32.36-.67.56-1l.62-.88,1.26-1.74,1.35-1.54a24.6,24.6,0,0,1,3.08-3,20.83,20.83,0,0,1,1.73-1.32c.58-.43,1.18-.81,1.79-1.18A43.43,43.43,0,0,1,448,392.36a121.88,121.88,0,0,1,13.91-1.54c4.45-.3,8.75-.5,12.67-1a42.12,42.12,0,0,0,5.41-1c1.84-.58,3.74-1.11,5.58-1.74a79.1,79.1,0,0,0,20.7-11.44c12.82-9.7,23.49-22.68,32.26-36.83,1.09-1.78,2.21-3.54,3.23-5.36l1.57-2.72,1.45-2.67a99.4,99.4,0,0,0,5-10.92,68.41,68.41,0,0,0,4.78-22.33,38.16,38.16,0,0,0-4.8-20.12,43.22,43.22,0,0,0-15-14.9c-13.08-8.24-28.79-12.54-43.55-11a51,51,0,0,0-29.52,13l-1,.92-1,1-1,1c-.16.2-.25.26-.48.57a42.9,42.9,0,0,0-2.87,4.28c-2,3.38-4,7.13-6,10.92l-6,11.57c-4,7.8-8.05,15.68-12.37,23.51s-8.87,15.64-14.08,23.29c-2.61,3.82-5.36,7.62-8.43,11.33A84.67,84.67,0,0,1,398,360.88a51.46,51.46,0,0,1-6.75,4.86,35.68,35.68,0,0,1-8.64,3.74,26.91,26.91,0,0,1-20.79-2.55,34.72,34.72,0,0,1-7.46-5.74c-.51-.52-1-1-1.52-1.57l-1.45-1.74a35.08,35.08,0,0,1-2.66-3.7A40.72,40.72,0,0,1,343,337.55a69.06,69.06,0,0,1,0-15.46c.45-4.8,1.15-9.31,1.8-13.61,1.31-8.56,2.34-16.51,1.5-23.19a24.06,24.06,0,0,0-8.47-16c-4.81-4.37-11.4-7.16-18.18-8.27a37.78,37.78,0,0,0-10.25-.17,31.93,31.93,0,0,0-9.61,2.58,6.63,6.63,0,0,0-1.1.52l-1.07.57a10.35,10.35,0,0,0-1.07.58l-1,.7c-.67.48-1.41.87-2,1.4l-1.9,1.6a34.33,34.33,0,0,0-6.42,7.8c-7.21,11.75-8.21,28.25-2.33,40.88a3,3,0,0,0,.22.46l.2.39c.11.25.37.61.54.92s.43.66.67,1,.47.7.76,1.07c1.05,1.45,2.35,3,3.67,4.56,2.68,3.13,5.62,6.34,8.59,9.69s6,6.85,8.88,10.67a71.82,71.82,0,0,1,8,13,40.22,40.22,0,0,1,2.75,8.37,29,29,0,0,1,.21,10,27.37,27.37,0,0,1-3.77,9.67c-.46.69-.95,1.33-1.43,2l-.74,1c-.25.3-.52.57-.78.86L309,392.76a12.34,12.34,0,0,1-1.1,1q-.62.51-1.25,1a21.38,21.38,0,0,1-5.17,2.7c-.41.15-.87.34-1.26.44l-1.17.32-1.18.3-1.07.21c-2.87.54-5.29.71-7.32.92a40.11,40.11,0,0,0-5.14.76,10.24,10.24,0,0,0-2.9,1.18,3.17,3.17,0,0,1-.47.37c-.18.1-.28.32-.44.45l-.24.22a3.84,3.84,0,0,0-.32.4c-.21.29-.49.59-.65.87a9.28,9.28,0,0,0-1.47,2.9,4.41,4.41,0,0,0-.05,2.23,14.09,14.09,0,0,0,1.46,3.69c.79,1.52,1.86,3.25,3.05,5.24a56.89,56.89,0,0,1,3.64,6.91,28,28,0,0,1,2.33,9.39,20.37,20.37,0,0,1,0,2.63,19.66,19.66,0,0,1-.23,2.38l-.33,2.22q-.28,1.18-.6,2.36c-.11.4-.19.77-.34,1.18l-.49,1.24-.51,1.23a8.27,8.27,0,0,1-.63,1.24c-.49.83-1,1.66-1.54,2.45s-1.3,1.57-2,2.31-1.57,1.36-2.39,2A24.94,24.94,0,0,1,276.6,457a21.48,21.48,0,0,1-5.35,1.8,29.84,29.84,0,0,1-9.43.26,50,50,0,0,1-7.87-1.69,87.54,87.54,0,0,1-13.57-5.45c-4.24-2.09-8.27-4.37-12.2-6.78s-7.72-4.93-11.55-7.8-7.14-5.66-10.53-8.41a241,241,0,0,0-20.18-15.3c-6.8-4.49-14-8.16-20.81-9.62a23.2,23.2,0,0,0-9.57-.11,16.36,16.36,0,0,0-7.54,3.8,8.84,8.84,0,0,0-1.9,2.78,11.09,11.09,0,0,0-.79,3.8,28.27,28.27,0,0,0,1.67,10c2.39,7.19,6.5,14.45,11.15,21.25,1.17,1.7,2.37,3.39,3.62,5l.94,1.22.87,1.07c.61.72,1.23,1.44,1.93,2.18,2.73,2.94,5.86,5.92,9,8.92,6.31,6,12.86,12.16,18.92,19.12a90.89,90.89,0,0,1,8.54,11.3c.63,1.05,1.29,2.07,1.86,3.19l.88,1.65.81,1.73c.56,1.13,1,2.4,1.45,3.6l.58,1.92.28,1,.21,1a28.26,28.26,0,0,1,.63,8.41,26.83,26.83,0,0,1-2.1,8.41,27.41,27.41,0,0,1-4.76,7.17,36.11,36.11,0,0,1-6.09,5.17,60.27,60.27,0,0,1-13.12,6.39,125.6,125.6,0,0,1-13.24,3.85c-8.79,2.08-17.54,3.48-26.05,5-4.23.79-8.45,1.61-12.32,2.7-.49.13-.95.28-1.41.43l-.7.22-.75.27-3,1.06c-2,.7-4,1.52-6,2.27a196.12,196.12,0,0,0-23,11.11,153.36,153.36,0,0,0-39.75,31.57,104,104,0,0,0-14.18,20.78,77.49,77.49,0,0,0-7.62,23.7,72.39,72.39,0,0,0,.72,24.89,80.94,80.94,0,0,0,8.53,23.55A57.07,57.07,0,0,0,60,714.08a61,61,0,0,0,22.6,10.19,92.07,92.07,0,0,0,25.22,2.1,138,138,0,0,0,25.34-3.84,178.56,178.56,0,0,0,47.63-19.45c1.88-1.05,3.67-2.23,5.5-3.36s3.49-2.41,5.24-3.61a31.38,31.38,0,0,0,2.5-1.94l2.45-2c.84-.64,1.56-1.42,2.34-2.13l2.29-2.18a100.12,100.12,0,0,0,15.24-20.32c4.36-7.39,8.16-15.22,12.2-23a208.82,208.82,0,0,1,13.52-23.05,78.31,78.31,0,0,1,19.59-19.19,66.84,66.84,0,0,1,25.53-10.78,51.52,51.52,0,0,1,14.21-.64,48.49,48.49,0,0,1,13.93,3.47,52.31,52.31,0,0,1,12.5,7.15l1.44,1.29.72.65c.23.23.45.49.67.73.44.49.9,1,1.33,1.49l1.2,1.66a21.55,21.55,0,0,1,3.2,7.76,24.28,24.28,0,0,1,0,8.16,36.1,36.1,0,0,1-.81,3.76c-.37,1.18-.72,2.38-1.16,3.5a66.37,66.37,0,0,1-2.83,6.48c-1,2.08-2.07,4.05-3.13,6-4.21,7.77-8.59,15.1-10,22.43-1.53,7.63-1.33,16.06-.23,24.21a92.63,92.63,0,0,0,6.39,23.68c.77,1.86,1.68,3.63,2.59,5.38a52.16,52.16,0,0,0,3.06,4.91,34.55,34.55,0,0,0,3.52,4.23c.3.34.64.6,1,.91l.48.44.56.46c.75.6,1.48,1.26,2.25,1.78a28,28,0,0,0,9.35,4.82,17,17,0,0,0,9.26,0,25.51,25.51,0,0,0,4.62-1.89,39.25,39.25,0,0,0,4.54-3,64,64,0,0,0,8.55-8,179.62,179.62,0,0,0,15.16-20c4.81-7.12,9.48-14.49,14.4-21.89a196.32,196.32,0,0,1,16.38-21.94c1.61-1.77,3.25-3.53,5.08-5.22a54.91,54.91,0,0,1,5.92-4.89,39.34,39.34,0,0,1,7.22-4.15,31.94,31.94,0,0,1,4.25-1.49,20,20,0,0,1,2.27-.52l1.16-.21,1.1-.11,2.2-.19c.74,0,1.49,0,2.24,0a30.87,30.87,0,0,1,12.93,3.1,38.59,38.59,0,0,1,7.15,4.39,52.25,52.25,0,0,1,5.87,5.25c7,7.41,11.84,15.46,16.25,23.35,2.19,3.95,4.25,7.88,6.28,11.7s4,7.56,6.13,10.88c.52.84,1,1.62,1.57,2.38l1.84,2.61,3.77,5.27q3.78,5.25,7.65,10.37c5.18,6.81,10.54,13.41,16.19,19.65A176.38,176.38,0,0,0,555.23,759l2.37,2,2.43,1.86c1.6,1.28,3.29,2.39,4.95,3.56.83.62,1.66,1.07,2.49,1.59l2.49,1.52c1.68,1,3.43,1.76,5.13,2.66A56.54,56.54,0,0,0,597,777.33a24.22,24.22,0,0,0,2.79,0c.93-.06,1.86,0,2.78-.15a50.45,50.45,0,0,0,16.05-4.37l2.51-1.24c.84-.4,1.61-.95,2.42-1.41a53.41,53.41,0,0,0,4.64-3.15c.74-.58,1.43-1.21,2.15-1.81l1.08-.91c.34-.32.66-.66,1-1l2-2,1.83-2.15c.3-.36.63-.7.91-1.08l.82-1.15c.54-.77,1.13-1.51,1.64-2.3a53.87,53.87,0,0,0,2.81-4.91,52.55,52.55,0,0,0,4-10.58,51,51,0,0,0,1.09-5.58c.11-.94.3-1.88.37-2.83l.15-2.86c0-.48.07-1,.07-1.43l0-1.43-.08-2.87-.32-2.87a24.26,24.26,0,0,0-.4-2.86,52.86,52.86,0,0,0-1.29-5.67l-.79-2.82c-.31-.93-.68-1.84-1-2.76s-.65-1.85-1.06-2.76l-1.26-2.69a51.81,51.81,0,0,0-2.76-5.23l-.72-1.29c-.26-.42-.55-.81-.82-1.22l-1.66-2.44a28.91,28.91,0,0,0-1.8-2.35l-1.86-2.32a87.43,87.43,0,0,0-8.63-8.46c-6.2-5.35-13.31-10.08-20.6-15.06S588.24,651,581.51,644.63l-2.5-2.42c-.42-.39-.83-.82-1.24-1.28l-1.24-1.34c-.83-.88-1.59-1.93-2.38-2.88-.39-.5-.75-1.07-1.12-1.6a17.38,17.38,0,0,1-1.07-1.69l-1-1.82c-.3-.66-.57-1.35-.85-2a15.56,15.56,0,0,1-.66-2.22,12.63,12.63,0,0,1-.38-2.42,11.86,11.86,0,0,1,0-2.57,12.16,12.16,0,0,1,.46-2.57,15.39,15.39,0,0,1,2.1-4.54,23.09,23.09,0,0,1,6.06-5.9,48.72,48.72,0,0,1,6.34-3.68c4.21-2.07,8.37-3.69,12.41-5.32,2-.81,4-1.62,5.94-2.46s3.81-1.71,5.54-2.66c.89-.46,1.7-1,2.49-1.47.38-.27.76-.51,1.15-.79l1.17-.92a41.56,41.56,0,0,0,4.38-4,36.59,36.59,0,0,0,9.91-21,33.44,33.44,0,0,0-.77-11.7,31.5,31.5,0,0,0-4.93-10.66,32.92,32.92,0,0,0-3.87-4.51,35.86,35.86,0,0,0-4.69-3.73l-1.26-.83-1.32-.75c-.86-.53-1.8-.93-2.71-1.37s-1.88-.77-2.82-1.17c-.26-.11-.46-.18-.61-.23l-.66-.18c-.47-.12-1-.24-1.48-.35-4.15-.87-8.53-1.61-12.84-2.48s-8.66-1.8-13-3a62.28,62.28,0,0,1-12.8-4.77,16.66,16.66,0,0,1-5.85-4.81,7.93,7.93,0,0,1-1.45-4.27,8.51,8.51,0,0,1,1.12-4.21,14.17,14.17,0,0,1,2.3-3.06,25.94,25.94,0,0,1,2.64-2.4,38.17,38.17,0,0,1,5.79-3.83,11.24,11.24,0,0,1,1.6-.77l1.64-.69,1.69-.52a11.73,11.73,0,0,1,1.71-.44l1.73-.34c.58-.1,1.16-.13,1.74-.19a28.92,28.92,0,0,1,3.48-.14,46.73,46.73,0,0,1,13.37,2.42,98.72,98.72,0,0,1,12.37,5c8,3.82,15.54,8.31,23.13,12.62,3.8,2.15,7.6,4.28,11.5,6.14a48.78,48.78,0,0,0,12.07,4.29,71.47,71.47,0,0,0,12.79,1.64h4.85l1.61-.11,3.23-.21,3.2-.43a72.26,72.26,0,0,0,24.41-8.16A68.14,68.14,0,0,0,723.71,502.51Z"/><path class="cls-4" d="M350.64,457.65c.64-10.89-19.35-6.67-11.7,6.08C345.75,475.07,359.57,463.75,350.64,457.65Z"/><path class="cls-4" d="M642.85,436.36c-5.43-5-17.48-8.61-17,2.69C626.64,456.41,656.84,444.91,642.85,436.36Z"/><path class="cls-4" d="M480.12,548.3c-4.38-8-19.69-22.7-18.72-3.94C462.12,558.49,487.82,559.08,480.12,548.3Z"/><path class="cls-4" d="M388.3,548.49c-6.41-9.77-22.22,1.39-14.47,9.18C378.62,562.49,393.3,556.12,388.3,548.49Z"/><path class="cls-4" d="M176.16,583.07c-13-4.09-29.28,13.82-11.58,18.08C170.5,602.58,189.22,587.18,176.16,583.07Z"/><path class="cls-4" d="M135.68,655c-8.78-2.84-18.6,4.58-8,11.07C136.76,671.63,146.14,658.41,135.68,655Z"/><path class="cls-4" d="M288.61,491.49c-6-5.47-16.69,2-10.69,9.19C283.07,506.86,295.58,497.89,288.61,491.49Z"/><path class="cls-4" d="M321.61,304c-6.79-6.24-20.45,7.59-13.69,13.69S328.27,310.12,321.61,304Z"/><path class="cls-4" d="M527,284.1c-8.36,0-8.38,13,0,13S535.38,284.1,527,284.1Z"/><path class="cls-4" d="M474.5,326.09c-8.36,0-8.38,13,0,13S482.88,326.09,474.5,326.09Z"/><path class="cls-4" d="M582.71,692.2c-1.33-4.11-7.07-5.08-10.6-5C541,687.75,589.49,713.15,582.71,692.2Z"/></svg>