<svg id="Layer_1" data-name="Layer 1" xmlns="http://www.w3.org/2000/svg" viewBox="0 0 318.9 337.46"><defs><style>.cls-1{fill:#fff;stroke-width:5px;}.cls-1,.cls-2{stroke:#000;stroke-miterlimit:10;}.cls-2{fill:none;stroke-width:4px;}</style></defs><title>CrumpledPaper</title><polygon class="cls-1" points="111.9 73.88 152.15 21.79 275.28 2.85 315.54 242 291.86 227.79 301.33 265.68 180.57 334.35 126.11 279.88 83.49 220.69 24.29 253.84 2.98 116.5 21.92 118.87 19.55 95.19 111.9 73.88"/><polyline class="cls-2" points="126.11 279.88 147.42 144.92 18.5 118.44"/><polygon points="24.29 140.18 86.85 223.34 84.95 224.74 24.29 140.18"/><polyline class="cls-2" points="291.86 227.79 258.71 71.51 168.73 182.8 300.63 262.89"/><path d="M159,278.35c8.13-1.12,16.28-1.94,24.43-2.66,4.07-.39,8.16-.67,12.23-1l12.24-.83,12.25-.67c4.09-.17,8.17-.39,12.27-.5,8.18-.28,16.37-.45,24.57-.33-8.13,1.12-16.28,1.95-24.43,2.67-4.07.39-8.16.67-12.23,1l-12.25.83-12.26.67c-4.09.17-8.17.39-12.27.5C175.37,278.29,167.18,278.47,159,278.35Z"/><polyline class="cls-2" points="24.29 95.19 147.42 135.45 175.83 102.3 152.15 21.79"/><path d="M123.74,76.25c4,1.42,7.94,3.11,11.79,4.89,1.94.86,3.83,1.82,5.74,2.74l5.66,2.89Q152.56,89.71,158,93c3.65,2.17,7.24,4.43,10.7,7-4-1.42-7.94-3.11-11.79-4.88s-7.66-3.65-11.4-5.63l-5.59-3c-1.84-1.06-3.7-2.07-5.51-3.18C130.8,81,127.2,78.77,123.74,76.25Z"/><polyline class="cls-2" points="157.2 21.79 175.83 78.62 275.28 2.85"/><path d="M227.93,45.47c-2.18,8.1-4.63,16.1-7.19,24.06-1.25,4-2.6,7.95-3.91,11.92l-4.07,11.87-4.22,11.81c-1.46,3.92-2.87,7.86-4.38,11.76-3,7.82-6,15.61-9.39,23.29,2.17-8.1,4.63-16.1,7.18-24.07,1.25-4,2.61-7.95,3.91-11.92l4.07-11.87,4.22-11.81c1.46-3.92,2.87-7.86,4.38-11.76C221.51,60.94,224.58,53.15,227.93,45.47Z"/><path d="M180.57,213.59c.82,4.71,1.34,9.43,1.76,14.16.24,2.36.37,4.73.55,7.09l.38,7.1.22,7.11c0,2.37.09,4.74,0,7.11,0,4.74-.15,9.49-.58,14.26-.82-4.71-1.34-9.43-1.76-14.16-.24-2.36-.36-4.73-.55-7.09l-.37-7.1L180,235c0-2.37-.09-4.74,0-7.11C180,223.1,180.15,218.35,180.57,213.59Z"/><path d="M168.73,166.23a25.93,25.93,0,0,1-5.26-1.32,43.09,43.09,0,0,1-4.88-2.08,42.33,42.33,0,0,1-4.59-2.65,25.62,25.62,0,0,1-4.21-3.42,25.62,25.62,0,0,1,5.26,1.31,42.33,42.33,0,0,1,4.88,2.08,43.08,43.08,0,0,1,4.59,2.66A25.93,25.93,0,0,1,168.73,166.23Z"/></svg>