<svg id="Layer_1" data-name="Layer 1" xmlns="http://www.w3.org/2000/svg" viewBox="0 0 800 800"><defs><style>.cls-1{fill:red;}</style></defs><title>Vandalism</title><path class="cls-1" d="M279.62,195.82c-3.72-7.46-30.42-53.41-36-31.45-.64,2.51,18.78,28.48,22.14,31.28C266.6,196.38,288.06,212.75,279.62,195.82Z"/><path class="cls-1" d="M304.17,143.53c-1.23,15-3.11,30.09-5.62,45-6.1-9-6.3-17.55-12.28-29.26-16.28-31.86-15.21,11.33-6.92,25.08,5.92,9.82,20.75,19.17,30.29,10.25,5-4.67,6.92-37.09,5.7-42.5C315.08,150.9,305.78,123.95,304.17,143.53Z"/><path class="cls-1" d="M339.05,147c-6.57,7.06-37.35,67.91-14.9,48.93,1.78-1.5,14.66-28.54,15.84-31.36C338.34,168.47,354.76,130.07,339.05,147Z"/><path class="cls-1" d="M390.75,137.47c-4-12-9.8.63-11.57,3.19-.34.48,9.5,49.07,9.15,48.93C408.73,197.32,394.42,148.47,390.75,137.47Z"/><path class="cls-1" d="M438.57,152.61A105,105,0,0,0,421.76,187c-.29-7.38,10.86-46.71,4.66-48.46-13.06-3.68-21.25,46-16.46,53.15,8.52,12.65,17.68,3.41,24.21-3.53,1.09-1.16,15.26-27.42,14.76-29.44C448.05,155.09,445.82,142.92,438.57,152.61Z"/><path class="cls-1" d="M475.05,177c-7.67,1.61-60.29,21.92-36.57,29.42,1.13.36,31.48-14,33.2-15.95C470.79,191.53,494.94,172.87,475.05,177Z"/><path class="cls-1" d="M64.95,585.6c-17.1-8-42.56-2.17-51.71,15.5C1.1,624.56,18.63,625.36,33,636.78c16.48,13.12,16.48,27,15.59,48.43-1.16,27.71-8.24,28.53-24,46.26-8.86,9.95-16.91,17,5,16.37,19.82-.61,30.93-26,34.41-41.41,3.74-16.61,4.84-45.11-1.16-61.1-.75-2-35.42-38.06-37.15-29.88-3.77-13.53,22.2-14.47,26.59-16C52.47,599.31,85.51,595.2,64.95,585.6Z"/><path class="cls-1" d="M142.08,759.48c-6.65.53-47,8.17-51.62,3.92s1.84-52.33,2.14-58.07c1.25-24.07,9.22-54.38,5-77.79-3.79-21-10.45-20.61-17-.39-7,21.72-3.59,51.35-4.81,74.3-.79,14.95-9.31,56-1,69.16,9.83,15.62,37.17,9.29,52.51,7.06,4.7-.69,17.73,1.07,20.9-4.33C151.18,768.24,150.58,758.8,142.08,759.48Z"/><path class="cls-1" d="M397.68,744.68c-1-11.62-13.33-20.14-23-22.3-17.86-4-.51,12.74.8,22.76.36,2.79-4,26.71-7.16,19.76,2,4.24-4.28,4.56,2.07,6.95C381.42,776,398.26,751.53,397.68,744.68Zm-12.53,10.45q-1.84-10.46-3.15-21C389.38,738.64,392.94,748.33,385.15,755.13Z"/><path class="cls-1" d="M422.52,731.15c-1.73,3.59-1.23,24.84-7.42,27-7.17,2.55-3.67-28.67-4-29.19-8.54-13.62-10.38,24.72-7,29.53C428.62,793,427.56,720.66,422.52,731.15Z"/><path class="cls-1" d="M457.63,734.79c-4.53-5.57-8.39,6.07-8.9,7.35-5.69-35.6-28.35,20.64-20.24,24.19,6.46,2.83,11.84-19.08,12.55-21.2.47,4.16,4.92,24.3,11.32,9.61C452.19,802,468.76,748.45,457.63,734.79Z"/><path class="cls-1" d="M583.88,724.67c-4.48,2.32-.68,16.12-.47,18.95,2.42,32.1,4.1,12.68,13.49-.57,4-5.63,28.35-16.05,14-26.15C604.67,712.54,589.38,721.82,583.88,724.67ZM601,732.56l-10.2,4.6c-1.12-9.85,7.22-11.54,16-13.13A17.76,17.76,0,0,1,601,732.56Z"/><path class="cls-1" d="M637.65,725c0,6.81-1.29,29.76-10.64,31.78-3.24.7,2-67.58-10.23-19-3.53,14.07.59,33.68,18,23.21,6.86-4.12,11.37-22.24,10.13-29C645.48,734.74,637.76,709.55,637.65,725Z"/><path class="cls-1" d="M355.23,347.61c-.55-10.14-18.07-8.85-24.8-8.2a5.63,5.63,0,0,0-1,.2c-1.86-3.62-8.16-4.28-9.26.71a238.68,238.68,0,0,0,.92,107c1.11,4.65,8.68,4.89,9.64,0q6.78-34.39,16-68.24,2.18-8,4.5-15.93C352.57,358.43,355.5,352.61,355.23,347.61Zm-11.48,5.46q-1,3.26-1.94,6.53-4.11,14-7.79,28.15-4.19,16.12-7.79,32.37a226.9,226.9,0,0,1,2.26-70.9,4.86,4.86,0,0,0,1.94.18,132,132,0,0,1,14.23.35c0,.16,0,.33-.06.51Z"/><path class="cls-1" d="M404.2,338.75c-3.22-4.39-8.58-4.64-13.56-4.82-7.43-.27-14.87-.5-22.3-.75a4.36,4.36,0,0,0-4.5,2.94,4.05,4.05,0,0,0-2.27,5.52,317.49,317.49,0,0,1,21.71,106.68c-.08,3.42-.05,6.86.14,10.3.36,6.38,10,6.49,10,0,0-3.47,0-6.95-.14-10.41.66-24.44,7.86-48.16,11.37-72.32a188,188,0,0,0,1.93-19.28C406.81,351,407.74,343.58,404.2,338.75Zm-7.5,12.45c0,12.23-1.84,24.34-4.13,36.33-1.09,5.7-2.26,11.4-3.41,17.11a323.76,323.76,0,0,0-16.31-61.31l14.07.48c2.1.07,6.37-.61,8.26.45C397.36,345.47,396.7,348.95,396.7,351.2Z"/><path class="cls-1" d="M317.51,273.66c-54.21-12.13-105.79,13.74-147.18,46.7-5,4,2.08,11,7.07,7.07,38.4-30.57,87.08-55.4,137.45-44.12C321.12,284.71,323.8,275.07,317.51,273.66Z"/><path class="cls-1" d="M311.71,261.84c-54-37.41-127.15-42.5-186-13.69-5.78,2.83-.72,11.46,5,8.63,55.78-27.3,125-21.62,175.91,13.69C312,274.15,317,265.49,311.71,261.84Z"/><path class="cls-1" d="M301,293.77c-11.7.44-22.09,7.47-31.06,14.44A116,116,0,0,0,225.75,392c-.41,6.43,9.59,6.4,10,0a106.25,106.25,0,0,1,37.75-73.86c7.43-6.24,17.48-14,27.52-14.36C307.43,303.52,307.46,293.52,301,293.77Z"/><path class="cls-1" d="M516.22,211.11c-9.27-6.1-20.64-4.74-30.72-1.53a199.38,199.38,0,0,0-32.88,14.23,216.8,216.8,0,0,0-30,19.33c-9,6.9-16.9,14.58-21.05,25.34-2.32,6,7.35,8.61,9.64,2.66,3.53-9.15,11.53-15.74,19.19-21.43a215.92,215.92,0,0,1,25.72-16.44,206.21,206.21,0,0,1,27.41-12.45c8.73-3.2,19.17-6.65,27.63-1.08C516.56,223.29,521.58,214.64,516.22,211.11Z"/><path class="cls-1" d="M543.83,289.1c-36-28.76-88.13-33.16-128.2-10.16-5.58,3.2-.55,11.85,5,8.63,35.86-20.58,83.67-17.3,116.08,8.6C541.74,300.15,548.86,293.12,543.83,289.1Z"/><path class="cls-1" d="M535.31,401.49a205.22,205.22,0,0,0-43.75-60.43c-19.93-18.95-43.61-32.31-67.72-45.15-5.68-3-10.74,5.61-5,8.63,23.35,12.43,46.39,25.23,65.7,43.58a197.52,197.52,0,0,1,42.19,58.41C529.44,412.34,538.06,407.28,535.31,401.49Z"/></svg>